<svg width="500" height="500" viewBox="0 0 500 500" fill="none" xmlns="http://www.w3.org/2000/svg">
<mask id="mask0_795_366" style="mask-type:alpha" maskUnits="userSpaceOnUse" x="93" y="0" width="315" height="416">
<path fill-rule="evenodd" clip-rule="evenodd" d="M269.942 206.631C311.162 206.424 353.394 206.517 394.819 206.517C396.731 206.517 398.405 206.604 399.857 206.347C403.794 205.651 406.748 202.71 406.957 198.044C407.107 194.731 406.957 191.262 406.957 187.819C406.957 184.425 406.957 181.001 406.957 177.596C406.959 172.461 404.818 169.426 400.83 168.22C399.498 167.815 398.001 167.823 396.079 167.823C347.719 167.821 299.262 167.793 250.875 167.823C250.639 167.823 250.444 167.921 250.589 167.654C250.77 167.321 251.196 167.054 251.449 166.807C263.173 155.24 273.931 142.396 283.627 128.961C288.713 121.912 293.491 114.717 297.768 106.985C302.058 99.2375 305.969 90.9757 308.705 81.905C310.083 77.3397 311.379 72.3983 311.854 67.0499C312.357 61.3943 312.222 55.5813 311.282 50.3303C309.476 40.2399 305.602 32.2147 300.461 25.1363C295.376 18.136 288.903 12.5509 281.278 8.13394C275.504 4.78926 268.995 2.28395 261.296 0.904626C258.736 0.446556 255.948 0.194488 253.108 0C251.296 0 249.481 0 247.669 0C236.204 0.594981 227.233 3.74261 219.499 8.13394C211.853 12.4754 205.379 18.1603 200.317 25.08C195.225 32.0432 191.216 40.2424 189.495 50.3303C188.602 55.5699 188.29 61.3737 188.865 67.1061C189.399 72.4352 190.515 77.2349 191.957 81.9615C194.744 91.1011 198.561 99.3322 202.894 107.099C213.578 126.256 226.862 143.219 241.484 158.785C244.098 161.57 247.074 164.582 249.844 167.372C250.02 167.55 249.906 167.275 250.13 167.655C250.314 167.966 249.506 167.824 249.1 167.824C200.878 167.823 152.418 167.825 104.011 167.824C100.145 167.824 98.2024 168.528 96.2816 170.423C95.3984 171.294 94.724 172.269 94.2778 173.53C93.8213 174.817 93.8188 176.273 93.8188 178.161C93.8188 181.706 93.8188 184.972 93.8188 188.386C93.8188 191.806 93.6113 195.242 93.8188 198.61C94.0121 201.753 95.7563 203.777 97.6551 205.049C98.6707 205.728 100.02 206.333 101.435 206.462C102.971 206.6 104.639 206.518 106.531 206.518C147.828 206.518 189.362 206.518 230.777 206.518C230.779 253.912 230.775 301.296 230.777 348.867C230.777 368.059 230.777 386.795 230.777 405.695C230.777 410.448 232.896 413.158 236.274 414.449C238.025 415.116 240.392 415.014 242.915 415.014C247.81 415.014 252.443 415.014 257.286 415.014C259.726 415.014 262.28 415.228 264.101 414.617C267.4 413.511 269.94 410.674 269.94 406.201C269.946 340.089 269.938 272.842 269.942 206.631ZM235.875 96.8179C231.421 94.9779 227.776 92.4995 224.652 89.5324C218.498 83.6811 213.602 75.6162 213.201 64.1682C212.997 58.3617 214.27 53.0083 216.063 48.7475C217.909 44.3625 220.4 40.9014 223.449 37.677C226.342 34.615 230.027 31.8859 234.213 29.9372C238.408 27.9858 243.396 26.6552 249.272 26.3787C255.049 26.1074 260.754 27.4727 264.96 29.2601C269.356 31.1258 273.088 33.6055 276.125 36.6034C282.279 42.6722 287.062 50.4083 287.575 61.965C287.845 67.9749 286.451 73.1276 284.599 77.387C280.879 85.9446 274.708 92.1911 266.392 96.1398C262.179 98.1398 257.209 99.4897 251.503 99.7546C245.548 100.034 240.181 98.5979 235.875 96.8179Z" fill="white"/>
</mask>
<g mask="url(#mask0_795_366)">
<path d="M250.502 0C216.311 0 188.598 27.1747 188.598 60.6886C188.598 108.704 250.502 167.135 250.502 167.135C250.502 167.135 312.406 107.874 312.406 60.6886C312.406 27.1747 284.692 0 250.502 0ZM287.807 62.7716C287.807 82.9692 271.11 99.3451 250.502 99.3451C229.894 99.3451 213.196 82.9692 213.196 62.7716C213.196 42.5684 229.894 26.1925 250.502 26.1925C271.11 26.1925 287.807 42.5684 287.807 62.7716Z" fill="url(#paint0_linear_795_366)"/>
<path d="M270.101 287.105V171.898L230.895 205.232V320.438L270.101 287.105Z" fill="url(#paint1_linear_795_366)"/>
<path d="M271.328 413.659L269.998 276.363L230.895 320.71V441.585L271.328 413.659Z" fill="url(#paint2_linear_795_366)"/>
<path d="M181.751 205.566H64.2358L98.2368 167.135H215.751L181.751 205.566Z" fill="url(#paint3_linear_795_366)"/>
<path d="M298.955 205.566H181.44L215.441 167.135H332.956L298.955 205.566Z" fill="url(#paint4_linear_795_366)"/>
<path d="M415.864 205.566H298.351L332.35 167.135H449.865L415.864 205.566Z" fill="url(#paint5_linear_795_366)"/>
</g>
<path fill-rule="evenodd" clip-rule="evenodd" d="M194.363 243.913C194.363 241.007 194.321 238.679 193.332 236.852C192.439 235.198 190.967 233.784 189.038 233.01C187.028 232.205 184.389 232.39 181.481 232.39C143.297 232.394 104.947 232.388 66.795 232.39C64.039 232.39 61.2052 232.635 58.6645 232.334C54.3054 231.817 51.1629 228.484 51.1629 223.577C51.1629 167.238 51.1629 110.572 51.1629 53.9468C51.1629 50.9732 50.9332 49.0564 49.731 47.2816C48.6415 45.6708 47.0592 44.4334 45.0361 43.8358C43.0049 43.2346 39.8613 43.4969 37.1921 43.4969C31.9199 43.4969 26.0577 43.4969 20.818 43.4969C15.8286 43.4969 12.7289 46.7225 12 51.0089C12 169.813 12 288.693 12 407.502C12.4578 409.963 13.3566 411.593 14.8066 412.867C16.2579 414.146 18.1878 415.013 20.818 415.013C26.0616 415.013 31.8564 415.013 37.1921 415.013C40.0077 415.013 42.9078 415.308 45.0361 414.673C47.0399 414.079 48.6235 412.865 49.731 411.227C50.9204 409.472 51.1629 407.382 51.1629 404.565C51.1629 364.235 51.1629 323.808 51.1629 283.398C51.1629 280.527 51.0293 277.939 51.9074 276.055C53.1291 273.431 55.5465 271.248 59.178 271.084C62.9988 270.911 67.5667 271.084 71.4317 271.084C96.0115 271.082 120.48 271.084 145.178 271.084C148.119 271.084 149.986 271.453 151.705 272.721C153.256 273.869 154.407 275.459 154.911 277.636C155.411 279.782 155.141 282.744 155.141 285.488C155.141 322.895 155.141 360.923 155.141 398.575C155.141 401.261 155.051 404.113 155.141 406.653C155.232 409.239 156.247 411.053 157.545 412.357C158.862 413.683 160.579 414.837 163.042 415.013C165.58 415.194 168.147 415.013 171.23 415.013C174.018 415.013 176.747 415.013 179.417 415.013C182.199 415.013 185.072 415.308 187.434 414.843C191.763 413.99 194.362 410.663 194.362 405.524C194.366 351.89 194.362 297.43 194.363 243.913Z" fill="#323232"/>
<path fill-rule="evenodd" clip-rule="evenodd" d="M304.289 243.913C304.289 241.007 304.332 238.679 305.32 236.852C306.214 235.198 307.686 233.784 309.614 233.01C311.624 232.205 314.264 232.39 317.172 232.39C355.355 232.394 393.705 232.388 431.857 232.39C434.613 232.39 437.447 232.635 439.988 232.334C444.347 231.817 447.489 228.484 447.489 223.577C447.489 167.238 447.489 110.572 447.489 53.9468C447.489 50.9732 447.719 49.0564 448.921 47.2816C450.011 45.6708 451.593 44.4334 453.616 43.8358C455.647 43.2346 458.791 43.4969 461.46 43.4969C466.732 43.4969 472.595 43.4969 477.834 43.4969C482.824 43.4969 485.923 46.7225 486.652 51.0089C486.652 169.813 486.652 288.693 486.652 407.502C486.195 409.963 485.296 411.593 483.846 412.867C482.394 414.146 480.465 415.013 477.834 415.013C472.591 415.013 466.796 415.013 461.46 415.013C458.645 415.013 455.745 415.308 453.616 414.673C451.612 414.079 450.029 412.865 448.921 411.227C447.732 409.472 447.489 407.382 447.489 404.565C447.489 364.235 447.489 323.808 447.489 283.398C447.489 280.527 447.623 277.939 446.745 276.055C445.523 273.431 443.106 271.248 439.474 271.084C435.654 270.911 431.086 271.084 427.221 271.084C402.641 271.082 378.172 271.084 353.475 271.084C350.533 271.084 348.667 271.453 346.947 272.721C345.396 273.869 344.245 275.459 343.741 277.636C343.242 279.782 343.511 282.744 343.511 285.488C343.511 322.895 343.511 360.923 343.511 398.575C343.511 401.261 343.601 404.113 343.511 406.653C343.421 409.239 342.405 411.053 341.107 412.357C339.79 413.683 338.073 414.837 335.61 415.013C333.072 415.194 330.506 415.013 327.423 415.013C324.634 415.013 321.905 415.013 319.235 415.013C316.453 415.013 313.58 415.308 311.218 414.843C306.889 413.99 304.29 410.663 304.29 405.524C304.286 351.89 304.29 297.43 304.289 243.913Z" fill="#323232"/>
<path d="M18.9545 471.586H50.4542V464.483L18.9545 464.73V471.586ZM50.4542 441.355V470.264V499.174H57.4087V470.264V441.355H50.4542ZM12 441.355V499.174H18.9545V441.355H12Z" fill="url(#paint6_linear_795_366)"/>
<path d="M101.659 441.355L86.8501 468.117L72.123 441.355H64.3504L83.4138 474.312V499.174H90.3683V474.229L109.432 441.355H101.659Z" fill="url(#paint7_linear_795_366)"/>
<path d="M123.304 468.117L131.076 468.613C134.513 468.613 137.485 468.117 139.994 467.126C142.558 466.135 144.549 464.675 145.967 462.748C147.385 460.821 148.094 458.508 148.094 455.81C148.094 452.506 147.385 449.807 145.967 447.715C144.549 445.567 142.558 443.97 139.994 442.924C137.485 441.878 134.513 441.355 131.076 441.355H116.349V499.174H131.894C135.604 499.174 138.903 498.568 141.794 497.357C144.74 496.09 147.058 494.218 148.749 491.74C150.494 489.207 151.367 486.041 151.367 482.241C151.367 479.598 150.876 477.313 149.894 475.386C148.912 473.458 147.522 471.889 145.722 470.677C143.976 469.411 141.931 468.475 139.585 467.869C137.24 467.263 134.676 468.603 131.894 468.603L123.304 468.117V470.677L131.894 470.843C133.749 470.843 135.44 471.09 136.967 471.586C138.494 472.027 139.803 472.715 140.894 473.651C142.04 474.587 142.913 475.744 143.513 477.12C144.113 478.497 144.413 480.066 144.413 481.828C144.413 484.196 143.867 486.206 142.776 487.858C141.74 489.51 140.267 490.777 138.358 491.658C136.504 492.539 134.349 492.979 131.894 492.979H123.304V468.117V447.55H131.076C133.967 447.55 136.367 448.321 138.276 449.863C140.185 451.349 141.14 453.469 141.14 456.223C141.14 458.04 140.703 459.582 139.831 460.848C138.958 462.115 137.758 463.078 136.231 463.739C134.704 464.4 132.985 464.73 131.076 464.73L123.304 464.483V468.117Z" fill="url(#paint8_linear_795_366)"/>
<path d="M175.545 476.046L191.835 499.174H200.426L183.419 475.386L175.545 476.046ZM161.972 441.355V499.174H168.926V470.264V441.355H161.972ZM168.926 447.55H177.517C179.972 447.55 182.126 447.99 183.981 448.871C185.89 449.752 187.363 451.019 188.399 452.671C189.49 454.323 190.035 456.333 190.035 458.701C190.035 461.068 189.49 463.078 188.399 464.73C187.363 466.382 185.89 467.649 183.981 468.53C182.126 469.411 179.972 469.851 177.517 469.851H168.926V476.046H177.517C181.226 476.046 184.526 475.358 187.417 473.981C190.363 472.55 192.681 470.54 194.372 467.952C196.117 465.309 196.99 462.225 196.99 458.701C196.99 455.121 196.117 452.038 194.372 449.45C192.681 446.861 190.363 444.879 187.417 443.502C184.526 442.071 181.226 441.355 177.517 441.355H168.926V447.55Z" fill="url(#paint9_linear_795_366)"/>
<path d="M207.755 441.355V499.174H214.709V441.355H207.755Z" fill="url(#paint10_linear_795_366)"/>
<path d="M227.809 441.355V499.174H234.764V441.355H227.809ZM244.991 499.174C250.555 499.174 255.491 497.963 259.8 495.54C264.109 493.117 267.491 489.758 269.945 485.463C272.4 481.113 273.627 476.046 273.627 470.264C273.627 464.483 272.4 459.444 269.945 455.149C267.491 450.799 264.109 447.412 259.8 444.989C255.491 442.566 250.555 441.355 244.991 441.355H234.764V448.376H244.991C248.209 448.376 251.155 448.899 253.827 449.945C256.5 450.936 258.791 452.396 260.7 454.323C262.609 456.195 264.082 458.48 265.118 461.179C266.154 463.877 266.673 466.905 266.673 470.264C266.673 473.624 266.154 476.652 265.118 479.35C264.082 482.049 262.609 484.361 260.7 486.289C258.791 488.161 256.5 489.62 253.827 490.666C251.155 491.658 248.209 492.153 244.991 492.153H234.764V499.174H244.991Z" fill="url(#paint11_linear_795_366)"/>
<path d="M290.374 471.09H321.874V464.483H290.374V471.09ZM321.874 441.355V499.174H328.828V441.355H321.874ZM283.42 441.355V499.174H290.374V441.355H283.42Z" fill="url(#paint12_linear_795_366)"/>
<path d="M348.861 499.174H374.633V492.566H348.861V499.174ZM348.861 447.963H374.633V441.355H348.861V447.963ZM348.861 471.09H372.997V464.483H348.861V471.09ZM341.906 441.355V470.264V499.174H348.861V441.355H341.906Z" fill="url(#paint13_linear_795_366)"/>
<path d="M400.828 476.046L416.753 499.174H425.344L408.899 475.243L400.828 476.046ZM386.89 441.355V499.174H393.844V470.264V441.355H386.89ZM393.844 447.55H402.435C404.89 447.55 407.044 447.99 408.899 448.871C410.808 449.752 412.281 451.019 413.317 452.671C414.408 454.323 414.953 456.333 414.953 458.701C414.953 461.068 414.408 463.078 413.317 464.73C412.281 466.382 410.808 467.649 408.899 468.53C407.044 469.411 404.89 469.851 402.435 469.851H393.844V476.046H402.435C406.144 476.046 409.444 475.358 412.335 473.981C415.281 472.55 417.599 470.54 419.29 467.952C421.035 465.309 421.908 462.225 421.908 458.701C421.908 455.121 421.035 452.038 419.29 449.45C417.599 446.861 415.281 444.879 412.335 443.502C409.444 442.071 406.144 441.355 402.435 441.355H393.844V447.55Z" fill="url(#paint14_linear_795_366)"/>
<path d="M436.763 470.264C436.763 465.914 437.691 462.032 439.545 458.618C441.454 455.204 444.045 452.506 447.318 450.523C450.591 448.541 454.3 447.55 458.445 447.55C462.645 447.55 466.354 448.541 469.572 450.523C472.845 452.506 475.408 455.204 477.263 458.618C479.172 462.032 480.127 465.914 480.127 470.264C480.127 474.615 479.172 478.497 477.263 481.911C475.408 485.325 472.845 488.023 469.572 490.006C466.354 491.988 462.645 492.979 458.445 492.979C454.3 492.979 450.591 491.988 447.318 490.006C444.045 488.023 441.454 485.325 439.545 481.911C437.691 478.497 436.763 474.615 436.763 470.264ZM429.4 470.264C429.4 474.45 430.109 478.359 431.527 481.994C433 485.628 435.045 488.794 437.663 491.492C440.281 494.136 443.363 496.228 446.909 497.77C450.454 499.257 454.3 500 458.445 500C462.645 500 466.49 499.257 469.981 497.77C473.527 496.228 476.608 494.136 479.227 491.492C481.845 488.794 483.863 485.628 485.281 481.994C486.754 478.359 487.49 474.45 487.49 470.264C487.49 466.024 486.754 462.115 485.281 458.535C483.863 454.901 481.845 451.762 479.227 449.119C476.608 446.421 473.527 444.328 469.981 442.842C466.49 441.3 462.645 440.529 458.445 440.529C454.3 440.529 450.454 441.3 446.909 442.842C443.363 444.328 440.281 446.421 437.663 449.119C435.045 451.762 433 454.901 431.527 458.535C430.109 462.115 429.4 466.024 429.4 470.264Z" fill="url(#paint15_linear_795_366)"/>
<defs>
<linearGradient id="paint0_linear_795_366" x1="189.067" y1="60.1104" x2="312.889" y2="60.1104" gradientUnits="userSpaceOnUse">
<stop stop-color="#51A6D3"/>
<stop offset="1" stop-color="#007ABA"/>
</linearGradient>
<linearGradient id="paint1_linear_795_366" x1="231.044" y1="225.321" x2="270.254" y2="225.321" gradientUnits="userSpaceOnUse">
<stop stop-color="#51A6D3"/>
<stop offset="1" stop-color="#007ABA"/>
</linearGradient>
<linearGradient id="paint2_linear_795_366" x1="231.048" y1="335.785" x2="271.485" y2="335.785" gradientUnits="userSpaceOnUse">
<stop stop-color="#51A6D3"/>
<stop offset="1" stop-color="#007ABA"/>
</linearGradient>
<linearGradient id="paint3_linear_795_366" x1="215.751" y1="186.35" x2="64.2358" y2="186.35" gradientUnits="userSpaceOnUse">
<stop stop-color="#EB6744"/>
<stop offset="1" stop-color="#FF9966"/>
</linearGradient>
<linearGradient id="paint4_linear_795_366" x1="332.956" y1="186.35" x2="181.44" y2="186.35" gradientUnits="userSpaceOnUse">
<stop stop-color="#EB6744"/>
<stop offset="1" stop-color="#FF9966"/>
</linearGradient>
<linearGradient id="paint5_linear_795_366" x1="449.865" y1="186.35" x2="298.351" y2="186.35" gradientUnits="userSpaceOnUse">
<stop stop-color="#EB6744"/>
<stop offset="1" stop-color="#FF9966"/>
</linearGradient>
<linearGradient id="paint6_linear_795_366" x1="487.49" y1="470.264" x2="12" y2="470.264" gradientUnits="userSpaceOnUse">
<stop stop-color="#EB6744"/>
<stop offset="1" stop-color="#FF9966"/>
</linearGradient>
<linearGradient id="paint7_linear_795_366" x1="487.49" y1="470.264" x2="12" y2="470.264" gradientUnits="userSpaceOnUse">
<stop stop-color="#EB6744"/>
<stop offset="1" stop-color="#FF9966"/>
</linearGradient>
<linearGradient id="paint8_linear_795_366" x1="487.49" y1="470.264" x2="12" y2="470.264" gradientUnits="userSpaceOnUse">
<stop stop-color="#EB6744"/>
<stop offset="1" stop-color="#FF9966"/>
</linearGradient>
<linearGradient id="paint9_linear_795_366" x1="487.49" y1="470.264" x2="12" y2="470.264" gradientUnits="userSpaceOnUse">
<stop stop-color="#EB6744"/>
<stop offset="1" stop-color="#FF9966"/>
</linearGradient>
<linearGradient id="paint10_linear_795_366" x1="487.49" y1="470.264" x2="12" y2="470.264" gradientUnits="userSpaceOnUse">
<stop stop-color="#EB6744"/>
<stop offset="1" stop-color="#FF9966"/>
</linearGradient>
<linearGradient id="paint11_linear_795_366" x1="487.49" y1="470.264" x2="12" y2="470.264" gradientUnits="userSpaceOnUse">
<stop stop-color="#EB6744"/>
<stop offset="1" stop-color="#FF9966"/>
</linearGradient>
<linearGradient id="paint12_linear_795_366" x1="13.8039" y1="461.918" x2="489.341" y2="461.918" gradientUnits="userSpaceOnUse">
<stop stop-color="#51A6D3"/>
<stop offset="1" stop-color="#007ABA"/>
</linearGradient>
<linearGradient id="paint13_linear_795_366" x1="13.8039" y1="461.918" x2="489.341" y2="461.918" gradientUnits="userSpaceOnUse">
<stop stop-color="#51A6D3"/>
<stop offset="1" stop-color="#007ABA"/>
</linearGradient>
<linearGradient id="paint14_linear_795_366" x1="13.8039" y1="461.918" x2="489.341" y2="461.918" gradientUnits="userSpaceOnUse">
<stop stop-color="#51A6D3"/>
<stop offset="1" stop-color="#007ABA"/>
</linearGradient>
<linearGradient id="paint15_linear_795_366" x1="13.8039" y1="461.918" x2="489.341" y2="461.918" gradientUnits="userSpaceOnUse">
<stop stop-color="#51A6D3"/>
<stop offset="1" stop-color="#007ABA"/>
</linearGradient>
</defs>
</svg>
