<svg width="150" height="44" viewBox="0 0 150 44" fill="none" xmlns="http://www.w3.org/2000/svg">
<path d="M1.274 4.088H4.76C5.39467 4.088 5.91733 4.17667 6.328 4.354C6.73867 4.522 7.06067 4.74133 7.294 5.012C7.53667 5.27333 7.70467 5.572 7.798 5.908C7.89133 6.23467 7.938 6.552 7.938 6.86C7.938 7.168 7.89133 7.49 7.798 7.826C7.70467 8.15267 7.53667 8.45133 7.294 8.722C7.06067 8.98333 6.73867 9.20267 6.328 9.38C5.91733 9.548 5.39467 9.632 4.76 9.632H2.618V14H1.274V4.088ZM2.618 8.456H4.382C4.64333 8.456 4.9 8.43733 5.152 8.4C5.41333 8.35333 5.642 8.274 5.838 8.162C6.04333 8.05 6.20667 7.89133 6.328 7.686C6.44933 7.47133 6.51 7.196 6.51 6.86C6.51 6.524 6.44933 6.25333 6.328 6.048C6.20667 5.83333 6.04333 5.67 5.838 5.558C5.642 5.446 5.41333 5.37133 5.152 5.334C4.9 5.28733 4.64333 5.264 4.382 5.264H2.618V8.456ZM10.2728 10.682C10.2728 11.018 10.3242 11.3307 10.4268 11.62C10.5295 11.9 10.6742 12.1427 10.8608 12.348C11.0475 12.544 11.2762 12.7027 11.5468 12.824C11.8175 12.936 12.1208 12.992 12.4568 12.992C12.7928 12.992 13.0962 12.936 13.3668 12.824C13.6375 12.7027 13.8662 12.544 14.0528 12.348C14.2395 12.1427 14.3842 11.9 14.4868 11.62C14.5895 11.3307 14.6408 11.018 14.6408 10.682C14.6408 10.346 14.5895 10.038 14.4868 9.758C14.3842 9.46867 14.2395 9.226 14.0528 9.03C13.8662 8.82467 13.6375 8.666 13.3668 8.554C13.0962 8.43267 12.7928 8.372 12.4568 8.372C12.1208 8.372 11.8175 8.43267 11.5468 8.554C11.2762 8.666 11.0475 8.82467 10.8608 9.03C10.6742 9.226 10.5295 9.46867 10.4268 9.758C10.3242 10.038 10.2728 10.346 10.2728 10.682ZM8.92883 10.682C8.92883 10.1967 9.01749 9.744 9.19483 9.324C9.38149 8.904 9.63349 8.53533 9.95083 8.218C10.2682 7.90067 10.6415 7.65333 11.0708 7.476C11.5002 7.28933 11.9622 7.196 12.4568 7.196C12.9515 7.196 13.4135 7.28933 13.8428 7.476C14.2722 7.65333 14.6455 7.90067 14.9628 8.218C15.2802 8.53533 15.5275 8.904 15.7048 9.324C15.8915 9.744 15.9848 10.1967 15.9848 10.682C15.9848 11.1673 15.8915 11.6247 15.7048 12.054C15.5275 12.474 15.2802 12.8427 14.9628 13.16C14.6455 13.468 14.2722 13.7153 13.8428 13.902C13.4135 14.0793 12.9515 14.168 12.4568 14.168C11.9622 14.168 11.5002 14.0793 11.0708 13.902C10.6415 13.7153 10.2682 13.468 9.95083 13.16C9.63349 12.8427 9.38149 12.474 9.19483 12.054C9.01749 11.6247 8.92883 11.1673 8.92883 10.682ZM16.7653 7.364H18.1793L19.6773 12.32H19.7053L21.2873 7.364H22.6173L24.2973 12.32H24.3253L25.7533 7.364H27.0833L24.9413 14H23.6673L21.9173 9.044H21.8893L20.3073 14H18.9493L16.7653 7.364ZM29.1384 11.144C29.1384 11.4333 29.199 11.6993 29.3204 11.942C29.451 12.1753 29.619 12.376 29.8244 12.544C30.0297 12.712 30.2677 12.8427 30.5384 12.936C30.809 13.0293 31.089 13.076 31.3784 13.076C31.7704 13.076 32.111 12.9873 32.4004 12.81C32.6897 12.6233 32.9557 12.3807 33.1984 12.082L34.1504 12.81C33.4504 13.7153 32.4704 14.168 31.2104 14.168C30.6877 14.168 30.2117 14.0793 29.7824 13.902C29.3624 13.7247 29.003 13.482 28.7044 13.174C28.415 12.8567 28.191 12.488 28.0324 12.068C27.8737 11.6387 27.7944 11.1767 27.7944 10.682C27.7944 10.1873 27.8784 9.73 28.0464 9.31C28.2237 8.88067 28.4617 8.512 28.7604 8.204C29.0684 7.88667 29.4324 7.63933 29.8524 7.462C30.2724 7.28467 30.7297 7.196 31.2244 7.196C31.8124 7.196 32.307 7.29867 32.7084 7.504C33.119 7.70933 33.455 7.98 33.7164 8.316C33.9777 8.64267 34.1644 9.016 34.2764 9.436C34.3977 9.84667 34.4584 10.2667 34.4584 10.696V11.144H29.1384ZM33.1144 10.136C33.105 9.856 33.0584 9.59933 32.9744 9.366C32.8997 9.13267 32.783 8.932 32.6244 8.764C32.4657 8.58667 32.265 8.45133 32.0224 8.358C31.789 8.25533 31.5137 8.204 31.1964 8.204C30.8884 8.204 30.6037 8.26467 30.3424 8.386C30.0904 8.498 29.8757 8.64733 29.6984 8.834C29.521 9.02067 29.381 9.23067 29.2784 9.464C29.185 9.688 29.1384 9.912 29.1384 10.136H33.1144ZM35.9657 7.364H37.2257V8.386H37.2537C37.3377 8.20867 37.4497 8.05 37.5897 7.91C37.7297 7.76067 37.8837 7.63467 38.0517 7.532C38.229 7.42933 38.4203 7.35 38.6257 7.294C38.831 7.22867 39.0363 7.196 39.2417 7.196C39.447 7.196 39.6337 7.224 39.8017 7.28L39.7457 8.638C39.643 8.61 39.5403 8.58667 39.4377 8.568C39.335 8.54933 39.2323 8.54 39.1297 8.54C38.5137 8.54 38.0423 8.71267 37.7157 9.058C37.389 9.40333 37.2257 9.94 37.2257 10.668V14H35.9657V7.364ZM41.8532 11.144C41.8532 11.4333 41.9139 11.6993 42.0352 11.942C42.1659 12.1753 42.3339 12.376 42.5392 12.544C42.7446 12.712 42.9826 12.8427 43.2532 12.936C43.5239 13.0293 43.8039 13.076 44.0932 13.076C44.4852 13.076 44.8259 12.9873 45.1152 12.81C45.4046 12.6233 45.6706 12.3807 45.9132 12.082L46.8652 12.81C46.1652 13.7153 45.1852 14.168 43.9252 14.168C43.4026 14.168 42.9266 14.0793 42.4972 13.902C42.0772 13.7247 41.7179 13.482 41.4192 13.174C41.1299 12.8567 40.9059 12.488 40.7472 12.068C40.5886 11.6387 40.5092 11.1767 40.5092 10.682C40.5092 10.1873 40.5932 9.73 40.7612 9.31C40.9386 8.88067 41.1766 8.512 41.4752 8.204C41.7832 7.88667 42.1472 7.63933 42.5672 7.462C42.9872 7.28467 43.4446 7.196 43.9392 7.196C44.5272 7.196 45.0219 7.29867 45.4232 7.504C45.8339 7.70933 46.1699 7.98 46.4312 8.316C46.6926 8.64267 46.8792 9.016 46.9912 9.436C47.1126 9.84667 47.1732 10.2667 47.1732 10.696V11.144H41.8532ZM45.8292 10.136C45.8199 9.856 45.7732 9.59933 45.6892 9.366C45.6146 9.13267 45.4979 8.932 45.3392 8.764C45.1806 8.58667 44.9799 8.45133 44.7372 8.358C44.5039 8.25533 44.2286 8.204 43.9112 8.204C43.6032 8.204 43.3186 8.26467 43.0572 8.386C42.8052 8.498 42.5906 8.64733 42.4132 8.834C42.2359 9.02067 42.0959 9.23067 41.9932 9.464C41.8999 9.688 41.8532 9.912 41.8532 10.136H45.8292ZM55.3305 14H54.0705V13.048H54.0425C53.7998 13.4027 53.4638 13.678 53.0345 13.874C52.6145 14.07 52.1805 14.168 51.7325 14.168C51.2192 14.168 50.7525 14.0793 50.3325 13.902C49.9218 13.7247 49.5672 13.4773 49.2685 13.16C48.9792 12.8427 48.7552 12.474 48.5965 12.054C48.4378 11.634 48.3585 11.1767 48.3585 10.682C48.3585 10.1873 48.4378 9.73 48.5965 9.31C48.7552 8.88067 48.9792 8.512 49.2685 8.204C49.5672 7.88667 49.9218 7.63933 50.3325 7.462C50.7525 7.28467 51.2192 7.196 51.7325 7.196C52.2085 7.196 52.6565 7.29867 53.0765 7.504C53.4965 7.7 53.8185 7.97067 54.0425 8.316H54.0705V3.416H55.3305V14ZM51.8865 12.992C52.2225 12.992 52.5258 12.936 52.7965 12.824C53.0672 12.7027 53.2958 12.544 53.4825 12.348C53.6692 12.1427 53.8138 11.9 53.9165 11.62C54.0192 11.3307 54.0705 11.018 54.0705 10.682C54.0705 10.346 54.0192 10.038 53.9165 9.758C53.8138 9.46867 53.6692 9.226 53.4825 9.03C53.2958 8.82467 53.0672 8.666 52.7965 8.554C52.5258 8.43267 52.2225 8.372 51.8865 8.372C51.5505 8.372 51.2472 8.43267 50.9765 8.554C50.7058 8.666 50.4772 8.82467 50.2905 9.03C50.1038 9.226 49.9592 9.46867 49.8565 9.758C49.7538 10.038 49.7025 10.346 49.7025 10.682C49.7025 11.018 49.7538 11.3307 49.8565 11.62C49.9592 11.9 50.1038 12.1427 50.2905 12.348C50.4772 12.544 50.7058 12.7027 50.9765 12.824C51.2472 12.936 51.5505 12.992 51.8865 12.992ZM61.1356 3.416H62.3956V8.316H62.4236C62.6476 7.97067 62.9696 7.7 63.3896 7.504C63.8096 7.29867 64.2576 7.196 64.7336 7.196C65.2469 7.196 65.7089 7.28467 66.1196 7.462C66.5396 7.63933 66.8943 7.88667 67.1836 8.204C67.4823 8.512 67.7109 8.88067 67.8696 9.31C68.0283 9.73 68.1076 10.1873 68.1076 10.682C68.1076 11.1767 68.0283 11.634 67.8696 12.054C67.7109 12.474 67.4823 12.8427 67.1836 13.16C66.8943 13.4773 66.5396 13.7247 66.1196 13.902C65.7089 14.0793 65.2469 14.168 64.7336 14.168C64.2856 14.168 63.8469 14.07 63.4176 13.874C62.9976 13.678 62.6663 13.4027 62.4236 13.048H62.3956V14H61.1356V3.416ZM64.5796 12.992C64.9156 12.992 65.2189 12.936 65.4896 12.824C65.7603 12.7027 65.9889 12.544 66.1756 12.348C66.3623 12.1427 66.5069 11.9 66.6096 11.62C66.7123 11.3307 66.7636 11.018 66.7636 10.682C66.7636 10.346 66.7123 10.038 66.6096 9.758C66.5069 9.46867 66.3623 9.226 66.1756 9.03C65.9889 8.82467 65.7603 8.666 65.4896 8.554C65.2189 8.43267 64.9156 8.372 64.5796 8.372C64.2436 8.372 63.9403 8.43267 63.6696 8.554C63.3989 8.666 63.1703 8.82467 62.9836 9.03C62.7969 9.226 62.6523 9.46867 62.5496 9.758C62.4469 10.038 62.3956 10.346 62.3956 10.682C62.3956 11.018 62.4469 11.3307 62.5496 11.62C62.6523 11.9 62.7969 12.1427 62.9836 12.348C63.1703 12.544 63.3989 12.7027 63.6696 12.824C63.9403 12.936 64.2436 12.992 64.5796 12.992ZM68.8962 7.364H70.3522L72.3262 12.544H72.3542L74.2302 7.364H75.5882L72.4382 15.428C72.3262 15.7173 72.2095 15.9787 72.0882 16.212C71.9669 16.4547 71.8222 16.66 71.6542 16.828C71.4862 16.996 71.2809 17.1267 71.0382 17.22C70.8049 17.3133 70.5155 17.36 70.1702 17.36C69.9835 17.36 69.7922 17.346 69.5962 17.318C69.4095 17.2993 69.2275 17.2527 69.0502 17.178L69.2042 16.03C69.4562 16.1327 69.7082 16.184 69.9602 16.184C70.1562 16.184 70.3195 16.156 70.4502 16.1C70.5902 16.0533 70.7069 15.9787 70.8002 15.876C70.9029 15.7827 70.9869 15.6707 71.0522 15.54C71.1175 15.4093 71.1829 15.26 71.2482 15.092L71.6542 14.042L68.8962 7.364Z" fill="#EE6D2A"/>
<path d="M2.2592 32.2432H10.5854V24.304H12.8446V43.6392H10.5854V34.5414H2.2592V43.6392H0V24.304H2.2592V32.2432ZM20.934 30.059C21.2438 30.6098 21.5717 31.2366 21.8997 31.9203C22.2276 32.6041 22.428 33.0029 22.5009 33.1359L22.6467 33.4208C22.8653 32.927 23.0839 32.4521 23.339 31.9773C23.5941 31.5025 23.9402 30.8567 24.3957 30.04L27.5477 24.323H30.153L23.6305 35.4721V43.6582H21.3895V35.4721L15.0856 24.323H17.7639L20.934 30.078V30.059ZM44.1455 29.2423C44.1455 30.1349 43.9451 30.9517 43.5261 31.6734C43.107 32.3952 42.5422 32.9649 41.7952 33.3448C42.8155 33.6487 43.5989 34.1995 44.1455 34.9972C44.6921 35.814 44.9654 36.8016 44.9654 37.9982C44.9654 39.1948 44.7285 40.1824 44.2548 41.0181C43.7811 41.8538 43.0888 42.4996 42.196 42.9365C41.3033 43.3733 40.2466 43.6012 39.0076 43.6012H32.394V24.266H38.6433C39.864 24.266 40.8842 24.4749 41.7041 24.8928C42.524 25.3106 43.1435 25.8804 43.5443 26.6212C43.9451 27.3619 44.1455 28.2166 44.1455 29.2043V29.2423ZM41.8863 29.2992C41.8863 28.4445 41.5948 27.7798 41.0118 27.3049C40.4288 26.8301 39.4814 26.6022 38.1513 26.6022H34.635V32.3951H38.4246C39.5724 32.3951 40.447 32.1672 41.0118 31.6924C41.5766 31.2176 41.8681 30.4198 41.8681 29.2992H41.8863ZM42.6515 38.0172C42.6515 36.8586 42.3054 36.0039 41.613 35.4911C40.9207 34.9593 39.864 34.6933 38.4793 34.6933H34.6532V41.341H38.7708C40.119 41.341 41.1029 41.0751 41.7223 40.5243C42.3418 39.9735 42.6515 39.1378 42.6515 38.0172ZM60.3061 29.6791C60.3061 31.0086 59.9964 32.1103 59.3587 32.9839C58.721 33.8576 57.7918 34.4654 56.5711 34.8453V34.9213C56.8262 35.0352 57.0813 35.2252 57.2999 35.4721C57.5185 35.719 57.7736 36.0989 58.0651 36.6117C58.3384 37.1245 58.6846 37.8462 59.1036 38.7959L61.2535 43.6582H58.7392L56.9537 39.4797C56.4982 38.3971 56.0792 37.5613 55.6966 36.9726C55.314 36.3838 54.8585 35.9659 54.3484 35.7C53.8382 35.4151 53.2005 35.2821 52.4353 35.2821H50.4858V43.6582H48.2449V24.323H54.4941C56.4254 24.323 57.8829 24.7788 58.8485 25.7095C59.8142 26.6212 60.2879 27.9507 60.2879 29.6981L60.3061 29.6791ZM57.974 29.7551C57.974 28.6914 57.6825 27.8937 57.0995 27.3809C56.5165 26.8681 55.6419 26.6022 54.4577 26.6022H50.4858V32.965H54.3848C55.5508 32.965 56.4436 32.699 57.0448 32.1672C57.6643 31.6354 57.9558 30.8377 57.9558 29.7551H57.974ZM66.1727 43.6392H63.9135V24.304H66.1727V43.6392ZM83.7544 33.8766C83.7544 35.9659 83.4629 37.7513 82.8617 39.1948C82.2604 40.6573 81.4041 41.7589 80.2745 42.5186C79.1449 43.2783 77.7967 43.6392 76.2116 43.6392H70.2174V24.304H76.412C77.9424 24.304 79.2542 24.6649 80.3474 25.4056C81.4405 26.1273 82.2786 27.21 82.8617 28.6345C83.4447 30.059 83.7362 31.8064 83.7362 33.8576L83.7544 33.8766ZM81.4223 33.8196C81.4223 31.3315 80.9669 29.4892 80.0741 28.3496C79.1814 27.21 77.8513 26.6212 76.1205 26.6212H72.4584V41.36H76.0476C77.8695 41.36 79.2178 40.7522 80.1105 39.5367C81.0033 38.3211 81.4406 36.4217 81.4406 33.8386L81.4223 33.8196Z" fill="url(#paint0_linear_8171_37236)"/>
<path d="M90.0036 32.2431H98.3298V24.3039H100.589V43.6391H98.3298V34.5413H90.0036V43.6391H87.7444V24.3039H90.0036V32.2431ZM115.274 26.6021H106.875V32.509H114.636V34.8072H106.875V41.3409H115.675V43.6391H104.634V24.3039H115.274V26.6021ZM131.161 29.679C131.161 31.0085 130.851 32.1102 130.214 32.9839C129.576 33.8576 128.647 34.4653 127.426 34.8452V34.9212C127.681 35.0351 127.936 35.2251 128.155 35.472C128.374 35.7189 128.629 36.0988 128.92 36.6116C129.193 37.1244 129.54 37.8462 129.959 38.7958L132.109 43.6581H129.594L127.809 39.4796C127.353 38.397 126.934 37.5613 126.552 36.9725C126.169 36.4027 125.714 35.9658 125.203 35.6999C124.693 35.415 124.056 35.2821 123.29 35.2821H121.341V43.6581H119.1V24.3229H125.349C127.28 24.3229 128.738 24.7787 129.704 25.7094C130.669 26.6211 131.143 27.9506 131.143 29.698L131.161 29.679ZM128.847 29.755C128.847 28.6914 128.556 27.8936 127.973 27.3808C127.39 26.868 126.515 26.6021 125.331 26.6021H121.359V32.9649H125.258C126.424 32.9649 127.317 32.699 127.918 32.1671C128.538 31.6353 128.829 30.8376 128.829 29.755H128.847ZM133.748 34.0095C133.748 32.0152 134.094 30.2678 134.805 28.7483C135.516 27.2289 136.481 26.0513 137.72 25.2346C138.959 24.4179 140.344 24 141.892 24C143.441 24 144.807 24.4179 146.046 25.2346C147.267 26.0513 148.233 27.2099 148.943 28.7293C149.636 30.2298 150 31.9962 150 34.0095C150 36.0228 149.654 37.7512 148.943 39.2707C148.251 40.7901 147.285 41.9487 146.046 42.7654C144.826 43.5821 143.441 44 141.892 44C140.344 44 138.959 43.5822 137.72 42.7464C136.481 41.9107 135.516 40.7331 134.823 39.2327C134.131 37.7132 133.767 35.9848 133.767 34.0285L133.748 34.0095ZM141.856 26.1842C140.726 26.1842 139.724 26.4881 138.85 27.1149C137.975 27.7417 137.301 28.6534 136.809 29.831C136.317 31.0275 136.08 32.4331 136.08 34.0665C136.08 35.6999 136.335 37.0294 136.827 38.207C137.319 39.3846 138.012 40.2583 138.886 40.8851C139.761 41.4929 140.763 41.8158 141.874 41.8158C142.986 41.8158 144.006 41.5119 144.88 40.8851C145.755 40.2773 146.429 39.3846 146.939 38.207C147.431 37.0294 147.686 35.6619 147.686 34.0475C147.686 32.4331 147.449 31.0465 146.957 29.8689C146.465 28.6914 145.791 27.7797 144.917 27.1529C144.042 26.5261 143.04 26.2032 141.892 26.2032L141.856 26.1842Z" fill="url(#paint1_linear_8171_37236)"/>
<defs>
<linearGradient id="paint0_linear_8171_37236" x1="0" y1="33.9716" x2="83.7544" y2="33.9716" gradientUnits="userSpaceOnUse">
<stop stop-color="#F8AD44"/>
<stop offset="1" stop-color="#ED6928"/>
</linearGradient>
<linearGradient id="paint1_linear_8171_37236" x1="87.7444" y1="33.9715" x2="149.945" y2="33.9715" gradientUnits="userSpaceOnUse">
<stop stop-color="#32A6DF"/>
<stop offset="1" stop-color="#2376BB"/>
</linearGradient>
</defs>
</svg>
