<svg width="70" height="70" viewBox="0 0 70 70" fill="none" xmlns="http://www.w3.org/2000/svg">
<mask id="path-1-inside-1_538_7866" fill="white">
<path fill-rule="evenodd" clip-rule="evenodd" d="M28 5.00073C28 2.23931 25.7614 0.000732422 23 0.000732422H5C2.23858 0.000732422 0 2.23931 0 5.00073V47V65V65.0007C0 67.7622 2.23857 70.0007 5 70.0007H23C23.0283 70.0007 23.0565 70.0005 23.0846 70H65C67.7614 70 70 67.7615 70 65V47C70 44.2386 67.7614 42 65 42H28L28 5.00073Z"/>
</mask>
<path fill-rule="evenodd" clip-rule="evenodd" d="M28 5.00073C28 2.23931 25.7614 0.000732422 23 0.000732422H5C2.23858 0.000732422 0 2.23931 0 5.00073V47V65V65.0007C0 67.7622 2.23857 70.0007 5 70.0007H23C23.0283 70.0007 23.0565 70.0005 23.0846 70H65C67.7614 70 70 67.7615 70 65V47C70 44.2386 67.7614 42 65 42H28L28 5.00073Z" fill="#C9C9C9"/>
<path d="M28 5.00073H29H28ZM23.0846 70V69H23.0764L23.0681 69.0002L23.0846 70ZM28 42H27V43H28V42ZM23 1.00073C25.2091 1.00073 27 2.79159 27 5.00073H29C29 1.68702 26.3137 -0.999268 23 -0.999268V1.00073ZM5 1.00073H23V-0.999268H5V1.00073ZM1 5.00073C1 2.79159 2.79086 1.00073 5 1.00073V-0.999268C1.68629 -0.999268 -1 1.68702 -1 5.00073H1ZM1 47V5.00073H-1V47H1ZM1 65V47H-1V65H1ZM1 65.0007V65H-1V65.0007H1ZM5 69.0007C2.79086 69.0007 1 67.2099 1 65.0007H-1C-1 68.3144 1.68629 71.0007 5 71.0007V69.0007ZM23 69.0007H5V71.0007H23V69.0007ZM23.0681 69.0002C23.0454 69.0005 23.0227 69.0007 23 69.0007V71.0007C23.0338 71.0007 23.0676 71.0005 23.1012 70.9999L23.0681 69.0002ZM65 69H23.0846V71H65V69ZM69 65C69 67.2092 67.2091 69 65 69V71C68.3137 71 71 68.3137 71 65H69ZM69 47V65H71V47H69ZM65 43C67.2091 43 69 44.7909 69 47H71C71 43.6863 68.3137 41 65 41V43ZM28 43H65V41H28V43ZM27 5.00073L27 42H29L29 5.00073H27Z" fill="#323232" mask="url(#path-1-inside-1_538_7866)"/>
<circle cx="34" cy="34.0007" r="12.5" fill="#005580" stroke="#323232"/>
</svg>