<svg width="21" height="18" viewBox="0 0 21 18" fill="none" xmlns="http://www.w3.org/2000/svg">
<path d="M15.9145 11.4286H13.0573C12.6786 11.4282 12.3154 11.2776 12.0476 11.0097C11.7798 10.7419 11.6291 10.3788 11.6288 10V5C11.6291 4.62123 11.7798 4.25809 12.0476 3.99027C12.3154 3.72244 12.6786 3.57181 13.0573 3.57143H15.9145C16.2932 3.57181 16.6564 3.72244 16.9242 3.99027C17.192 4.25809 17.3427 4.62123 17.3431 5V10C17.3427 10.3788 17.192 10.7419 16.9242 11.0097C16.6564 11.2776 16.2932 11.4282 15.9145 11.4286ZM13.0573 5V10H15.9152L15.9145 5H13.0573ZM7.34305 17.1429H4.48591C4.10714 17.1425 3.744 16.9918 3.47618 16.724C3.20835 16.4562 3.05772 16.0931 3.05734 15.7143V5C3.05772 4.62123 3.20835 4.25809 3.47618 3.99027C3.744 3.72244 4.10714 3.57181 4.48591 3.57143H7.34305C7.72182 3.57181 8.08496 3.72244 8.35279 3.99027C8.62061 4.25809 8.77125 4.62123 8.77162 5V15.7143C8.77125 16.0931 8.62061 16.4562 8.35279 16.724C8.08496 16.9918 7.72182 17.1425 7.34305 17.1429ZM4.48591 5V15.7143H7.34377L7.34305 5H4.48591ZM0.200195 0H20.2002V1.42857H0.200195V0Z" fill="black"/>
</svg>
