<svg width="18" height="20" viewBox="0 0 18 20" fill="none" xmlns="http://www.w3.org/2000/svg">
<path d="M15.9145 17.1429H5.20019C4.82143 17.1425 4.45829 16.9918 4.19046 16.724C3.92263 16.4562 3.772 16.0931 3.77162 15.7143V12.8571C3.772 12.4784 3.92263 12.1152 4.19046 11.8474C4.45829 11.5796 4.82143 11.429 5.20019 11.4286H15.9145C16.2932 11.429 16.6564 11.5796 16.9242 11.8474C17.192 12.1152 17.3427 12.4784 17.3431 12.8571V15.7143C17.3427 16.0931 17.192 16.4562 16.9242 16.724C16.6564 16.9918 16.2932 17.1425 15.9145 17.1429ZM15.9145 12.8564L5.20019 12.8571V15.7143H15.9145V12.8564ZM10.2002 8.57143H5.20019C4.82143 8.57105 4.45829 8.42042 4.19046 8.15259C3.92263 7.88476 3.772 7.52162 3.77162 7.14286V4.28571C3.772 3.90695 3.92263 3.54381 4.19046 3.27598C4.45829 3.00815 4.82143 2.85752 5.20019 2.85714H10.2002C10.579 2.85752 10.9421 3.00815 11.2099 3.27598C11.4778 3.54381 11.6284 3.90695 11.6288 4.28571V7.14286C11.6284 7.52162 11.4778 7.88476 11.2099 8.15259C10.9421 8.42042 10.579 8.57105 10.2002 8.57143ZM10.2002 4.285L5.20019 4.28571V7.14286H10.2002V4.285ZM0.200195 0H1.62877V20H0.200195V0Z" fill="black"/>
</svg>
