<svg width="18" height="20" viewBox="0 0 18 20" fill="none" xmlns="http://www.w3.org/2000/svg">
<path d="M0.200195 15.7143V12.8571C0.200574 12.4784 0.351205 12.1152 0.619032 11.8474C0.886859 11.5796 1.25 11.429 1.62877 11.4286H12.3431C12.7218 11.429 13.085 11.5796 13.3528 11.8474C13.6206 12.1152 13.7712 12.4784 13.7716 12.8571V15.7143C13.7712 16.0931 13.6206 16.4562 13.3528 16.724C13.085 16.9918 12.7218 17.1425 12.3431 17.1429H1.62877C1.25 17.1425 0.886859 16.9918 0.619032 16.724C0.351205 16.4562 0.200574 16.0931 0.200195 15.7143ZM1.62877 15.7143H12.3431V12.8571L1.62877 12.8564V15.7143ZM5.91448 7.14286V4.28571C5.91486 3.90695 6.06549 3.54381 6.33332 3.27598C6.60114 3.00815 6.96429 2.85752 7.34305 2.85714H12.3431C12.7218 2.85752 13.085 3.00815 13.3528 3.27598C13.6206 3.54381 13.7712 3.90695 13.7716 4.28571V7.14286C13.7712 7.52162 13.6206 7.88476 13.3528 8.15259C13.085 8.42042 12.7218 8.57105 12.3431 8.57143H7.34305C6.96429 8.57105 6.60114 8.42042 6.33332 8.15259C6.06549 7.88476 5.91486 7.52162 5.91448 7.14286ZM7.34305 7.14286H12.3431V4.28571L7.34305 4.285V7.14286ZM17.3431 20H15.9145V0H17.3431V20Z" fill="black"/>
</svg>
