<svg width="21" height="18" viewBox="0 0 21 18" fill="none" xmlns="http://www.w3.org/2000/svg">
<path d="M0.200195 15.7143H20.2002V17.1429H0.200195V15.7143ZM15.9145 13.5714H13.0573C12.6786 13.571 12.3154 13.4204 12.0476 13.1526C11.7798 12.8848 11.6291 12.5216 11.6288 12.1429V7.14286C11.6291 6.76409 11.7798 6.40095 12.0476 6.13312C12.3154 5.86529 12.6786 5.71466 13.0573 5.71429H15.9145C16.2932 5.71466 16.6564 5.86529 16.9242 6.13312C17.192 6.40095 17.3427 6.76409 17.3431 7.14286V12.1429C17.3427 12.5216 17.192 12.8848 16.9242 13.1526C16.6564 13.4204 16.2932 13.571 15.9145 13.5714ZM13.0573 7.14286V12.1429H15.9152L15.9145 7.14286H13.0573ZM7.34305 13.5714H4.48591C4.10715 13.571 3.744 13.4204 3.47618 13.1526C3.20835 12.8848 3.05772 12.5216 3.05734 12.1429V1.42857C3.05772 1.04981 3.20835 0.686664 3.47618 0.418837C3.744 0.15101 4.10715 0.000378198 4.48591 0H7.34305C7.72182 0.000378198 8.08496 0.15101 8.35279 0.418837C8.62061 0.686664 8.77125 1.04981 8.77162 1.42857V12.1429C8.77125 12.5216 8.62061 12.8848 8.35279 13.1526C8.08496 13.4204 7.72182 13.571 7.34305 13.5714ZM4.48591 1.42857V12.1429H7.34377L7.34305 1.42857H4.48591Z" fill="black"/>
</svg>
