<svg width="20" height="20" viewBox="0 0 20 20" fill="none" xmlns="http://www.w3.org/2000/svg">
<g clip-path="url(#clip0_1034_8278)">
<path d="M16.3929 17.2738C16.7834 16.8833 16.7834 16.2501 16.3929 15.8596L11.2404 10.7071C10.8499 10.3166 10.8499 9.68346 11.2404 9.29293L16.3929 4.14048C16.7834 3.74996 16.7834 3.11679 16.3929 2.72627L16.0404 2.37381C15.6499 1.98329 15.0167 1.98329 14.6262 2.37381L7.70708 9.29294C7.31656 9.68346 7.31656 10.3166 7.70708 10.7071L14.6262 17.6263C15.0167 18.0168 15.6499 18.0168 16.0404 17.6263L16.3929 17.2738Z" fill="#DCDCDC"/>
<rect x="5" y="18" width="2.5" height="16" rx="1" transform="rotate(180 5 18)" fill="#DCDCDC"/>
</g>
<defs>
<clipPath id="clip0_1034_8278">
<rect width="20" height="20" fill="white" transform="translate(20 20) rotate(180)"/>
</clipPath>
</defs>
</svg>
