<svg width="36" height="35" viewBox="0 0 36 35" fill="none" xmlns="http://www.w3.org/2000/svg">
<path d="M20.365 0H16.1344C15.2894 0 14.5896 0.633259 14.5064 1.47246L14.0726 4.0715C13.2578 4.32484 12.466 4.65391 11.7096 5.05178L9.53271 3.4972C9.27244 3.28148 8.90466 3.14965 8.52755 3.14965C8.09028 3.14965 7.67971 3.32019 7.37026 3.62965L4.37908 6.62089C3.78167 7.21829 3.73541 8.16101 4.27036 8.81451L5.80178 10.9596C5.40271 11.7172 5.07422 12.5095 4.8215 13.3221L2.18426 13.7622C1.38383 13.8391 0.75 14.5389 0.75 15.385V19.615C0.75 20.46 1.38326 21.1597 2.22246 21.2436L4.8215 21.6786C5.07536 22.4946 5.40443 23.2863 5.80121 24.0405L4.2472 26.2173C3.73478 26.8391 3.78105 27.7817 4.37908 28.3786L7.37083 31.3709C7.94748 31.9464 8.93468 31.9943 9.56274 31.4808L11.7107 29.9487C12.4643 30.346 13.256 30.6745 14.0726 30.9284L14.5116 33.5651C14.5897 34.3667 15.29 35 16.135 35H20.3656C21.2094 35 21.9092 34.3673 21.9942 33.5287L22.4286 30.9284C23.244 30.6746 24.0358 30.346 24.7899 29.9487L26.9673 31.5033C27.227 31.7185 27.5949 31.8498 27.9719 31.8498C28.4091 31.8498 28.8197 31.6797 29.1286 31.3709L32.1198 28.3786C32.7167 27.7835 32.7646 26.8414 32.2308 26.1873L30.6988 24.0404C31.0967 23.2863 31.4246 22.4945 31.6785 21.6785L34.3157 21.2384C35.1173 21.1597 35.75 20.46 35.75 19.615V15.385C35.75 14.5389 35.1167 13.8397 34.2763 13.7582L31.6784 13.3238C31.4246 12.5072 31.096 11.7149 30.6987 10.9608L32.2533 8.78443C32.7652 8.16043 32.7171 7.21715 32.1192 6.62146L29.1285 3.63085C28.5542 3.05598 27.5647 3.00514 26.9349 3.52156L24.7899 5.05247C24.0333 4.65397 23.2417 4.3249 22.4285 4.07212L21.9878 1.43431C21.9092 0.633259 21.2094 0 20.365 0ZM11.6679 6.31138C11.765 6.31138 11.8628 6.28713 11.9507 6.23738C12.8321 5.74343 13.7701 5.35426 14.7412 5.07957C14.9563 5.01884 15.1171 4.83898 15.1541 4.61806L15.6521 1.62453C15.681 1.34578 15.8909 1.15666 16.1344 1.15666H20.365C20.6084 1.15666 20.8178 1.34521 20.8415 1.58638L21.3464 4.61806C21.3828 4.83841 21.5442 5.01827 21.7594 5.079C22.7281 5.35317 23.6661 5.7424 24.5481 6.23686C24.743 6.34672 24.9848 6.3334 25.167 6.20272L27.637 4.43819C27.8863 4.23751 28.1402 4.27921 28.309 4.44746L31.3008 7.43921C31.4766 7.61439 31.4904 7.89033 31.3343 8.08168L29.5461 10.5819C29.4153 10.7641 29.4026 11.0052 29.5119 11.2013C30.0058 12.0792 30.3945 13.0173 30.6687 13.99C30.7294 14.2058 30.9092 14.3665 31.1307 14.4035L34.1248 14.9027C34.4036 14.9316 34.5927 15.1404 34.5927 15.3839V19.6138C34.5927 19.8573 34.4042 20.0672 34.163 20.091L31.1313 20.5953C30.9098 20.6323 30.7305 20.793 30.6692 21.0087C30.3951 21.9815 30.0058 22.9196 29.5125 23.7963C29.4032 23.9924 29.416 24.2336 29.5466 24.4158L31.3123 26.887C31.491 27.1079 31.4766 27.3832 31.3019 27.5579L28.3102 30.5508C28.142 30.7191 27.8522 30.7335 27.6694 30.5838L25.1675 28.795C24.9853 28.6643 24.7436 28.6516 24.5487 28.7608C23.6703 29.2542 22.7321 29.6434 21.76 29.9187C21.5448 29.9789 21.384 30.1593 21.347 30.3802L20.8485 33.3737C20.8178 33.6583 20.6125 33.8433 20.365 33.8433H16.1344C15.8863 33.8433 15.6816 33.6588 15.6573 33.4136L15.1541 30.3825C15.1177 30.1616 14.9563 29.9817 14.7412 29.921C13.7673 29.6451 12.8292 29.2565 11.953 28.7631C11.7564 28.6538 11.5152 28.6665 11.3336 28.7973L8.86119 30.5629C8.61248 30.7619 8.35747 30.722 8.18916 30.5525L5.19746 27.5608C5.0228 27.3861 5.00948 27.1108 5.16566 26.9205L6.95329 24.418C7.08403 24.2353 7.09672 23.9942 6.98743 23.7986C6.49469 22.9219 6.10546 21.9838 5.82958 21.0105C5.76941 20.7953 5.58898 20.6345 5.36806 20.5975L2.37458 20.0984C2.09115 20.0683 1.90672 19.863 1.90672 19.6149V15.3849C1.90672 15.1374 2.09064 14.9326 2.33524 14.909L5.36748 14.4047C5.58841 14.3682 5.76827 14.2069 5.829 13.9912C6.10254 13.0236 6.49177 12.085 6.98686 11.2013C7.09621 11.0058 7.08346 10.7652 6.95272 10.583L5.18819 8.11291C5.00776 7.89084 5.0216 7.61559 5.19683 7.4403L8.18859 4.44912C8.35861 4.27967 8.64725 4.26462 8.8294 4.41617L11.3313 6.20381C11.4319 6.27501 11.5499 6.31138 11.6679 6.31138ZM18.2506 10.5773C14.4324 10.5773 11.3261 13.6829 11.3261 17.5006C11.3261 21.3188 14.4324 24.425 18.2506 24.425C22.0688 24.425 25.1745 21.3188 25.1745 17.5006C25.1739 13.6836 22.0682 10.5773 18.2506 10.5773ZM18.2506 23.2684C15.0703 23.2684 12.4828 20.6808 12.4828 17.5006C12.4828 14.3208 15.0703 11.734 18.2506 11.734C21.4303 11.734 24.0178 14.3208 24.0178 17.5006C24.0172 20.6809 21.4303 23.2684 18.2506 23.2684Z" fill="#323232"/>
</svg>
