<svg width="12" height="16" viewBox="0 0 12 16" fill="none" xmlns="http://www.w3.org/2000/svg">
<path d="M6.7366 15.5001C9.98535 15.5001 12 13.8471 12 11.2072C12 9.22123 10.4821 7.73552 8.41496 7.57889V7.49526C9.20658 7.37776 9.92955 6.98525 10.4534 6.38852C10.9773 5.79179 11.2676 5.03015 11.2719 4.241C11.2719 1.94477 9.47937 0.500122 6.62245 0.500122H0V15.5001H6.7366ZM3.1855 2.83893H5.80177C7.28731 2.83893 8.14192 3.52476 8.14192 4.73066C8.14192 5.99891 7.17162 6.73796 5.4732 6.73796H3.1855V2.83741V2.83893ZM3.1855 13.1613V8.80608H5.85422C7.73159 8.80608 8.75434 9.55426 8.75434 10.9578C8.75434 12.3918 7.76244 13.1613 5.92827 13.1613H3.18396H3.1855Z" fill="black"/>
</svg>
