<svg width="24" height="28" viewBox="0 0 24 28" fill="none" xmlns="http://www.w3.org/2000/svg">
<path d="M21.8985 8.63237C20.7874 8.63237 19.8836 9.53891 19.8836 10.6532V12.0147C19.5048 11.7665 19.0542 11.6192 18.5688 11.6192H17.9658L19.4143 2.14325C19.4968 1.60607 19.3417 1.0616 18.9886 0.648985C18.6358 0.236667 18.1228 0 17.5809 0H6.33189C5.79005 0 5.27701 0.236667 4.9242 0.649045C4.57115 1.06166 4.41607 1.60613 4.49856 2.14306L5.94705 11.6193H5.34714C4.86055 11.6193 4.40887 11.7671 4.02937 12.0171V10.6532C4.02937 9.53891 3.12554 8.63237 2.01445 8.63237C0.904008 8.63237 0 9.53891 0 10.6532C0 10.957 0.245244 11.2033 0.54844 11.2033C0.851635 11.2033 1.09664 10.957 1.09664 10.6532C1.09664 10.1454 1.50848 9.73231 2.01451 9.73231C2.52101 9.73231 2.93285 10.1454 2.93285 10.6532C2.93285 10.6532 2.93519 14.0513 2.93543 14.0556C2.94035 15.386 4.01989 16.4672 5.34726 16.4672H9.4146L4.48794 23.7687C4.35278 23.7379 4.2136 23.7181 4.0695 23.7181C3.03004 23.7181 2.18458 24.5664 2.18458 25.6091C2.18458 26.6514 3.03004 27.5 4.0695 27.5C5.10873 27.5 5.95491 26.6514 5.95491 25.6091C5.95491 25.1094 5.75718 24.6578 5.44048 24.3195L10.7384 16.4672H11.4096V23.8088C10.6379 24.0457 10.071 24.7584 10.071 25.6091C10.071 26.6514 10.917 27.5 11.9564 27.5C12.9959 27.5 13.8418 26.6514 13.8418 25.6091C13.8418 24.7596 13.2765 24.0476 12.5063 23.8098V16.4672H13.1711L18.4738 24.3176C18.1563 24.6562 17.9579 25.1087 17.9579 25.6091C17.9579 26.6514 18.8041 27.5 19.8433 27.5C20.8827 27.5 21.7282 26.6514 21.7282 25.6091C21.7282 24.5664 20.8827 23.7181 19.8433 23.7181C19.7002 23.7181 19.5618 23.7374 19.4274 23.768L14.4961 16.4672H18.5689C19.8996 16.4672 20.9823 15.3813 20.9823 14.0466L20.9802 10.6532C20.9802 10.1454 21.392 9.73231 21.8985 9.73231C22.4046 9.73231 22.8164 10.1454 22.8164 10.6532C22.8164 10.957 23.0615 11.2033 23.3646 11.2033C23.6678 11.2033 23.913 10.957 23.913 10.6532C23.9129 9.53897 23.0089 8.63237 21.8985 8.63237ZM4.06956 26.3998C3.63475 26.3998 3.28128 26.0452 3.28128 25.6091C3.28128 25.1729 3.63481 24.8181 4.06956 24.8181C4.50438 24.8181 4.85833 25.1729 4.85833 25.6091C4.85833 26.0452 4.50438 26.3998 4.06956 26.3998ZM12.7452 25.6091C12.7452 26.0452 12.3912 26.3998 11.9564 26.3998C11.5216 26.3998 11.1677 26.0452 11.1677 25.6091C11.1677 25.1729 11.5217 24.8181 11.9564 24.8181C12.3912 24.8181 12.7452 25.1729 12.7452 25.6091ZM20.6316 25.6091C20.6316 26.0452 20.2781 26.3998 19.8432 26.3998C19.4084 26.3998 19.0545 26.0452 19.0545 25.6091C19.0545 25.1729 19.4084 24.8181 19.8432 24.8181C20.2781 24.8181 20.6316 25.1729 20.6316 25.6091ZM5.58224 1.9762C5.54805 1.75343 5.61014 1.53632 5.75628 1.36525C5.90296 1.19417 6.10699 1.09993 6.33189 1.09993H17.581C17.8059 1.09993 18.0099 1.19417 18.1566 1.36525C18.3028 1.53632 18.3649 1.75343 18.3306 1.97644L16.8566 11.6193H7.05623L5.58224 1.9762ZM18.5688 15.3673H5.34702C4.62148 15.3673 4.03093 14.7747 4.03093 14.0401C4.03093 13.3116 4.62148 12.7192 5.34702 12.7192H18.5688C19.2878 12.7192 19.8719 13.3003 19.8836 14.0187V14.04C19.8836 14.0434 19.8852 14.0459 19.8854 14.0491C19.8838 14.7761 19.2941 15.3673 18.5688 15.3673Z" fill="#323232"/>
</svg>
