<svg width="25" height="25" viewBox="0 0 25 25" fill="none" xmlns="http://www.w3.org/2000/svg">
<path d="M22.0701 5.85923C23.6857 5.85923 24.9998 4.54512 24.9998 2.92961C24.9998 1.3141 23.6857 0 22.0701 0C20.4545 0 19.1404 1.31427 19.1404 2.92961C19.1404 4.54512 20.4545 5.85923 22.0701 5.85923ZM22.0701 1.95313C22.6088 1.95313 23.0469 2.39122 23.0469 2.92961C23.0469 3.46801 22.6088 3.90626 22.0701 3.90626C21.5317 3.90626 21.0934 3.46817 21.0934 2.92961C21.0934 2.39105 21.5318 1.95313 22.0701 1.95313ZM2.92961 5.85923C4.54512 5.85923 5.85922 4.54512 5.85922 2.92961C5.85922 1.3141 4.54512 0 2.92961 0C1.3141 0 0 1.31427 0 2.92961C0 4.54512 1.3141 5.85923 2.92961 5.85923ZM2.92961 1.95313C3.46817 1.95313 3.90626 2.39122 3.90626 2.92961C3.90626 3.46801 3.46817 3.90626 2.92961 3.90626C2.39105 3.90626 1.95313 3.46817 1.95313 2.92961C1.95313 2.39105 2.39122 1.95313 2.92961 1.95313ZM22.0854 6.78697C22.0809 6.78697 22.0757 6.78697 22.0712 6.78697C20.0498 6.78697 19.2835 8.25879 18.8003 9.6994C18.6363 10.1894 18.2796 11.26 18.0456 11.9629H16.8946V9.71676C16.8946 8.10125 15.5803 6.78714 13.9648 6.78714H11.0352C9.41969 6.78714 8.10541 8.10125 8.10541 9.71676V11.9629H6.9542C6.72022 11.26 6.36374 10.1894 6.19952 9.6994C5.71636 8.25879 4.95033 6.78697 2.92878 6.78697C2.9241 6.78697 2.9191 6.78697 2.91426 6.78697C1.30743 6.79248 0.0001668 8.10692 0.0001668 9.71659V15.0389C0.0001668 16.312 0.816599 17.3976 1.9533 17.8006V17.8222C1.9785 17.8222 2.00303 17.824 2.0279 17.8258C2.13654 17.8611 2.24803 17.8904 2.36185 17.9128C2.69647 18.0675 2.92978 18.406 2.92978 18.7987V24.9997H4.88291V18.7987C4.88291 18.5104 4.84035 18.2319 4.76241 17.9685H5.90829C6.44668 17.9685 6.88477 18.4066 6.88477 18.9452V24.9997H8.8379V18.9452C8.8379 17.3295 7.52363 16.0154 5.90829 16.0154H2.92978C2.90458 16.0154 2.88005 16.0136 2.85518 16.0116C2.74637 15.9764 2.63505 15.9471 2.52123 15.9246C2.18644 15.7699 1.9533 15.4315 1.9533 15.0389V9.71659C1.9533 9.1802 2.38755 8.74194 2.92127 8.73994C3.36253 8.73844 3.81697 8.73694 4.34752 10.3197C4.6012 11.0764 5.31632 13.2258 5.3235 13.2473L5.5458 13.9156H19.4545L19.6768 13.2473C19.684 13.2256 20.3991 11.0764 20.6528 10.3197C21.1832 8.73694 21.6376 8.73894 22.0792 8.73994C22.6128 8.74194 23.0472 9.18003 23.0472 9.71659V15.0389C23.0472 15.4315 22.8139 15.7699 22.4791 15.9246C22.3653 15.9471 22.2538 15.9764 22.1453 16.0116C22.1205 16.0136 22.0958 16.0154 22.0706 16.0154H19.1409C17.5253 16.0154 16.2113 17.3297 16.2113 18.9452V24.9997H18.1643V18.9452C18.1643 18.4066 18.6024 17.9685 19.1409 17.9685H20.2379C20.16 18.2317 20.1174 18.5104 20.1174 18.7987V24.9997H22.0704V18.7987C22.0704 18.406 22.3037 18.0675 22.6383 17.9128C22.7523 17.8903 22.8638 17.8609 22.9724 17.8258C22.9971 17.8238 23.0218 17.8222 23.047 17.8222V17.8006C24.1836 17.3976 25 16.3121 25 15.0389V9.71659C24.9998 8.10692 23.6924 6.79265 22.0854 6.78697ZM10.0584 9.71676C10.0584 9.17836 10.4965 8.74011 11.035 8.74011H13.9646C14.5032 8.74011 14.9411 9.1782 14.9411 9.71676V11.9629H10.0584V9.71676ZM12.4998 5.85923C14.1153 5.85923 15.4296 4.54512 15.4296 2.92961C15.4296 1.3141 14.1153 0 12.4998 0C10.8843 0 9.57022 1.31427 9.57022 2.92961C9.57022 4.54512 10.8843 5.85923 12.4998 5.85923ZM12.4998 1.95313C13.0384 1.95313 13.4765 2.39122 13.4765 2.92961C13.4765 3.46801 13.0384 3.90626 12.4998 3.90626C11.9613 3.90626 11.5233 3.46817 11.5233 2.92961C11.5233 2.39105 11.9614 1.95313 12.4998 1.95313Z" fill="#323232"/>
</svg>
