<svg width="22" height="26" viewBox="0 0 22 26" fill="none" xmlns="http://www.w3.org/2000/svg">
<path d="M11.136 23.507L10.7484 23.1911C10.7332 23.2098 10.7211 23.2215 10.7126 23.2286C10.711 23.2277 10.7093 23.2266 10.7075 23.2254C10.7018 23.2216 10.697 23.2176 10.6937 23.2144C10.6929 23.2137 10.6923 23.2131 10.6919 23.2127C10.5942 23.0728 9.86922 21.9393 8.90289 20.3174L8.74717 20.0561L8.44347 20.0743C5.81348 20.2317 3.90338 20.6201 2.63587 21.053C2.00445 21.2687 1.51504 21.5013 1.17264 21.7339C1.00215 21.8497 0.852029 21.9763 0.739406 22.1145C0.632193 22.2461 0.519941 22.4367 0.519941 22.6703C0.519941 22.9533 0.678205 23.1755 0.819514 23.3217C0.970687 23.4781 1.17321 23.6216 1.40534 23.7532C1.8725 24.0181 2.53854 24.2789 3.38064 24.5097C5.07036 24.9727 7.53836 25.3336 10.7094 25.3336C13.8802 25.3336 16.3482 24.974 18.0385 24.5117C18.8809 24.2812 19.5475 24.0206 20.0154 23.7554C20.2479 23.6237 20.4508 23.48 20.6023 23.3234C20.7443 23.1766 20.9018 22.9553 20.9037 22.6736V22.6703C20.9037 22.4372 20.7925 22.2464 20.6849 22.1138C20.5722 21.975 20.4219 21.848 20.2513 21.7319C19.9086 21.4989 19.419 21.2664 18.7876 21.051C17.52 20.6187 15.61 20.2317 12.9802 20.0743L12.6765 20.0561L12.5208 20.3174C12.0343 21.134 11.6081 21.8328 11.2912 22.3426C11.1327 22.5976 11.0021 22.8043 10.9055 22.9542C10.857 23.0293 10.818 23.0888 10.7887 23.1324C10.7648 23.1678 10.7523 23.1854 10.7481 23.1912C10.7465 23.1935 10.7462 23.194 10.7469 23.193L11.136 23.507ZM11.136 23.507C11.239 23.3795 11.9745 22.2111 12.9503 20.5734H8.47336C9.44917 22.2111 10.1896 23.3693 10.2877 23.507C10.4201 23.6907 10.8075 23.9101 11.136 23.507ZM13.1159 19.3074L12.7179 19.9943L13.5094 20.0565C14.7021 20.1502 16.6309 20.3641 18.251 20.8247C19.0644 21.056 19.7629 21.3393 20.2479 21.6763C20.7329 22.0132 20.9276 22.3454 20.9286 22.6758C20.9284 22.9911 20.7366 23.3368 20.2001 23.699C19.6663 24.0594 18.8728 24.3757 17.8799 24.6341C15.9014 25.1491 13.2687 25.3999 10.7143 25.3999C8.15744 25.3999 5.52469 25.1491 3.54683 24.6341C2.55425 24.3757 1.76131 24.0595 1.22791 23.6991C0.691707 23.3368 0.5 22.991 0.5 22.6754C0.5 22.3449 0.693544 22.0129 1.17751 21.676C1.66126 21.3392 2.3585 21.0559 3.17095 20.8247C4.78915 20.3641 6.71669 20.1502 7.90938 20.0565L8.70091 19.9943L8.30284 19.3074C7.29409 17.5666 6.15729 15.481 5.27418 13.5222C4.3795 11.5377 3.78539 9.76756 3.78539 8.62439C3.78539 4.62145 6.90956 1.3999 10.7094 1.3999C14.5092 1.3999 17.6334 4.62145 17.6334 8.62439C17.6334 9.76756 17.0393 11.5377 16.1446 13.5222C15.2615 15.481 14.1247 17.5666 13.1159 19.3074ZM10.2863 22.5184L10.7094 23.1903L11.1325 22.5184C11.8807 21.3302 13.4899 18.7125 14.9137 15.9853C15.6253 14.6221 16.2952 13.2229 16.7884 11.9561C17.2754 10.705 17.6134 9.52602 17.6134 8.62439C17.6134 4.69367 14.5346 1.46113 10.7094 1.46113C6.88882 1.46113 3.81023 4.69392 3.81023 8.62439C3.81023 9.52592 4.14789 10.7048 4.63448 11.9559C5.12719 13.2228 5.79645 14.6219 6.50748 15.9851C7.93005 18.7124 9.53801 21.3301 10.2863 22.5184ZM10.7094 5.76215C12.1996 5.76215 13.4408 7.02451 13.4408 8.62439C13.4408 10.2243 12.1996 11.4866 10.7094 11.4866C9.21912 11.4866 7.97791 10.2243 7.97791 8.62439C7.97791 7.02451 9.21912 5.76215 10.7094 5.76215ZM10.7094 5.82337C9.19372 5.82337 7.99785 7.09673 7.99785 8.62439C7.99785 10.1521 9.19372 11.4254 10.7094 11.4254C12.225 11.4254 13.4209 10.1521 13.4209 8.62439C13.4209 7.09673 12.225 5.82337 10.7094 5.82337Z" fill="#323232" stroke="#0F62AB"/>
</svg>
