<svg width="36" height="9" viewBox="0 0 36 9" fill="none" xmlns="http://www.w3.org/2000/svg">
<path d="M9 4.5C9 6.70914 7.20914 8.5 5 8.5C2.79086 8.5 1 6.70914 1 4.5C1 2.29086 2.79086 0.5 5 0.5C7.20914 0.5 9 2.29086 9 4.5ZM22 4.5C22 6.70914 20.2091 8.5 18 8.5C15.7909 8.5 14 6.70914 14 4.5C14 2.29086 15.7909 0.5 18 0.5C20.2091 0.5 22 2.29086 22 4.5ZM35 4.5C35 6.70914 33.2091 8.5 31 8.5C28.7909 8.5 27 6.70914 27 4.5C27 2.29086 28.7909 0.5 31 0.5C33.2091 0.5 35 2.29086 35 4.5Z" stroke="#323232"/>
</svg>
