<svg width="30" height="17" viewBox="0 0 30 17" fill="none" xmlns="http://www.w3.org/2000/svg">
<mask id="mask0_8565_2836" style="mask-type:alpha" maskUnits="userSpaceOnUse" x="0" y="0" width="16" height="16">
<rect y="0.734253" width="15.8333" height="14.6853" fill="#C4C4C4"/>
</mask>
<g mask="url(#mask0_8565_2836)">
<path d="M30.0185 6.38303L27.4747 5.3586L25.2296 2.19949C24.5806 1.2838 23.4386 0.728602 22.2122 0.734296H12.6472C11.5377 0.734296 10.4864 1.18631 9.81152 1.9648L6.91092 5.31278L2.07649 6.48038C0.849933 6.77797 0 7.7681 0 8.88974V10.5209C0 11.9001 1.24592 13.039 2.80975 13.039H3.22511C3.72471 14.739 5.69097 15.7577 7.6182 15.3168C8.88349 15.0251 9.87639 14.1552 10.2009 13.039H21.1025C21.6022 14.739 23.5683 15.7577 25.4956 15.3168C26.7609 15.0251 27.7537 14.1552 28.0783 13.039H28.8569C30.4208 13.039 31.6666 11.9001 31.6666 10.5209V8.66088C31.6732 7.68228 31.0244 6.78936 30.0185 6.38303ZM6.7097 14.2639C5.43779 14.2639 4.406 13.3538 4.406 12.2321C4.406 11.1104 5.43779 10.2004 6.7097 10.2004C7.98145 10.2004 9.01324 11.1104 9.01324 12.2321C9.01985 13.3482 7.98806 14.2581 6.7097 14.2639ZM24.5872 14.2639C23.3153 14.2639 22.2835 13.3538 22.2835 12.2321C22.2835 11.1104 23.3153 10.2004 24.5872 10.2004C25.859 10.2004 26.8907 11.1104 26.8907 12.2321C26.8972 13.3482 25.8654 14.2581 24.5872 14.2639ZM28.8569 11.8944H28.169C27.9548 10.1489 26.1704 8.88974 24.1912 9.08429C22.5104 9.24468 21.1867 10.4178 21.005 11.8944H10.2914C10.0773 10.1489 8.29289 8.88974 6.31371 9.08429C4.63305 9.24468 3.30919 10.4178 3.12749 11.8944H2.80298C1.9529 11.8944 1.29112 11.2706 1.29112 10.5209V8.88974C1.28466 8.27733 1.74537 7.74519 2.41376 7.5791L7.46878 6.35998C7.60498 6.32568 7.72827 6.25694 7.81266 6.1539L10.8365 2.65707C11.2713 2.16492 11.9397 1.87871 12.6469 1.87871H22.2119C22.9905 1.87302 23.7239 2.22213 24.1327 2.8058L26.4817 6.11377C26.5466 6.21098 26.6505 6.28542 26.7605 6.33124L29.4731 7.42441C30.0182 7.64757 30.3686 8.12833 30.3621 8.66061V10.5206H30.3686C30.3689 11.2706 29.7071 11.8944 28.8569 11.8944Z" fill="#323232"/>
</g>
<mask id="mask1_8565_2836" style="mask-type:alpha" maskUnits="userSpaceOnUse" x="16" y="1" width="14" height="16">
<rect x="16.667" y="1.46851" width="13.3333" height="14.6853" fill="#C4C4C4"/>
</mask>
<g mask="url(#mask1_8565_2836)">
<path d="M25.1389 3.67129C25.1389 3.28181 24.9691 2.90829 24.667 2.63288C24.3649 2.35748 23.9551 2.20276 23.5278 2.20276H19.5L25.1389 11.014" stroke="#323232" stroke-linecap="round" stroke-linejoin="round"/>
<path d="M25.1391 14.6853C27.3636 14.6853 29.1669 13.0416 29.1669 11.014C29.1669 8.98636 27.3636 7.34265 25.1391 7.34265C22.9146 7.34265 21.1113 8.98636 21.1113 11.014C21.1113 13.0416 22.9146 14.6853 25.1391 14.6853Z" stroke="#323232" stroke-linecap="round" stroke-linejoin="round"/>
<path d="M9.02734 2.20276H11.8468L17.4857 11.014" stroke="#323232" stroke-linecap="round" stroke-linejoin="round"/>
<path d="M21.3208 5.13989H13.7265L9.02734 11.014" stroke="#323232" stroke-linecap="round" stroke-linejoin="round"/>
</g>
<line x1="16.333" y1="0.5" x2="16.333" y2="14.1853" stroke="#323232" stroke-linecap="round"/>
</svg>
