<svg width="25" height="25" viewBox="0 0 25 25" fill="none" xmlns="http://www.w3.org/2000/svg">
<path d="M22.5586 2.14845H20.2311V1.46484C20.2311 0.657106 19.574 0 18.7663 0C17.9585 0 17.3014 0.65713 17.3014 1.46484V2.14843H9.09829V1.46484C9.09829 0.65713 8.44116 0 7.63345 0C6.82574 0 6.16861 0.65713 6.16861 1.46484V2.1665C6.12711 2.15502 6.08361 2.14845 6.03845 2.14845H4.09294C2.74676 2.14845 1.65153 3.24366 1.65153 4.58986V20.231C1.65153 20.5007 1.87016 20.7193 2.13981 20.7193C2.40942 20.7193 2.6281 20.5007 2.6281 20.231V7.17775H24.0234V23.1443C24.0234 23.629 23.6291 24.0234 23.1443 24.0234C22.6594 24.0234 22.2651 23.629 22.2651 23.1443V21.8811C22.2651 21.6115 22.0464 21.3928 21.7768 21.3928H17.4599H16.0971H8.60678C8.60511 21.3929 8.60352 21.3931 8.60185 21.3931H0.483357C0.216042 21.3957 0 21.6131 0 21.8811V23.1445C0 24.1676 0.832361 25 1.85546 25H23.1442C24.1675 25 25 24.1675 25 23.1442V4.58984C25 3.24366 23.9048 2.14845 22.5586 2.14845ZM1.85546 24.0234C1.37083 24.0234 0.976551 23.6292 0.976551 23.1445V22.3694H16.097H17.4599H21.2885V23.1443C21.2885 23.4622 21.369 23.7616 21.5104 24.0234H1.85546ZM18.278 1.46484C18.278 1.1956 18.497 0.976551 18.7663 0.976551C19.0355 0.976551 19.2545 1.1956 19.2545 1.46484V3.73535C19.2545 4.00458 19.0355 4.22363 18.7663 4.22363C18.497 4.22363 18.278 4.00458 18.278 3.73535V1.46484ZM7.14516 1.46484C7.14516 1.1956 7.36421 0.976551 7.63345 0.976551C7.90269 0.976551 8.12174 1.1956 8.12174 1.46484V3.73535C8.12174 4.00458 7.90269 4.22363 7.63345 4.22363C7.36421 4.22363 7.14516 4.00458 7.14516 3.73535V1.46484ZM2.62808 6.20118V4.58986C2.62808 3.78213 3.28521 3.12502 4.09292 3.12502H6.03843C6.08359 3.12502 6.12708 3.11838 6.16859 3.10697V3.73537C6.16859 4.5431 6.82574 5.20021 7.63343 5.20021C8.44116 5.20021 9.09826 4.54308 9.09826 3.73537V3.125H17.3014V3.73535C17.3014 4.54308 17.9585 5.20018 18.7662 5.20018C19.574 5.20018 20.2311 4.54306 20.2311 3.73535V3.125H22.5586C23.3663 3.125 24.0234 3.78213 24.0234 4.58984V6.20116H2.62808V6.20118Z" fill="#323232"/>
<path d="M12.8068 18.5547C13.7611 18.5547 14.5375 17.7223 14.5375 16.6992C14.5375 15.6761 13.7611 14.8438 12.8068 14.8438C11.8526 14.8438 11.0762 15.6761 11.0762 16.6992C11.0762 17.7223 11.8526 18.5547 12.8068 18.5547ZM12.8068 15.8203C13.2589 15.8203 13.6266 16.2146 13.6266 16.6992C13.6266 17.1838 13.2589 17.5781 12.8068 17.5781C12.3548 17.5781 11.987 17.1838 11.987 16.6992C11.987 16.2146 12.3548 15.8203 12.8068 15.8203Z" fill="#323232"/>
<path d="M19.0373 18.5547C19.9915 18.5547 20.7679 17.7223 20.7679 16.6992C20.7679 15.6761 19.9915 14.8438 19.0373 14.8438C18.083 14.8438 17.3066 15.6761 17.3066 16.6992C17.3066 17.7223 18.083 18.5547 19.0373 18.5547ZM19.0373 15.8203C19.4893 15.8203 19.8571 16.2146 19.8571 16.6992C19.8571 17.1838 19.4893 17.5781 19.0373 17.5781C18.5853 17.5781 18.2175 17.1838 18.2175 16.6992C18.2175 16.2146 18.5853 15.8203 19.0373 15.8203Z" fill="#323232"/>
<path d="M8.307 11.6211C8.307 10.598 7.53061 9.76562 6.57635 9.76562C5.62207 9.76562 4.8457 10.598 4.8457 11.6211C4.8457 12.6442 5.62207 13.4766 6.57635 13.4766C7.53061 13.4766 8.307 12.6442 8.307 11.6211ZM5.75656 11.6211C5.75656 11.1365 6.12432 10.7422 6.57635 10.7422C7.02838 10.7422 7.39614 11.1365 7.39614 11.6211C7.39614 12.1057 7.02836 12.5 6.57633 12.5C6.1243 12.5 5.75656 12.1057 5.75656 11.6211Z" fill="#323232"/>
<path d="M19.0373 13.4766C19.9915 13.4766 20.7679 12.6442 20.7679 11.6211C20.7679 10.598 19.9915 9.76562 19.0373 9.76562C18.083 9.76562 17.3066 10.598 17.3066 11.6211C17.3066 12.6442 18.083 13.4766 19.0373 13.4766ZM19.0373 10.7422C19.4893 10.7422 19.8571 11.1365 19.8571 11.6211C19.8571 12.1057 19.4893 12.5 19.0373 12.5C18.5853 12.5 18.2175 12.1057 18.2175 11.6211C18.2175 11.1364 18.5853 10.7422 19.0373 10.7422Z" fill="#323232"/>
<path d="M12.8068 13.4766C13.7611 13.4766 14.5375 12.6442 14.5375 11.6211C14.5375 10.598 13.7611 9.76562 12.8068 9.76562C11.8526 9.76562 11.0762 10.598 11.0762 11.6211C11.0762 12.6442 11.8526 13.4766 12.8068 13.4766ZM12.8068 10.7422C13.2589 10.7422 13.6266 11.1365 13.6266 11.6211C13.6266 12.1057 13.2589 12.5 12.8068 12.5C12.3548 12.5 11.987 12.1057 11.987 11.6211C11.987 11.1364 12.3548 10.7422 12.8068 10.7422Z" fill="#323232"/>
<path d="M6.57635 18.5547C7.53063 18.5547 8.307 17.7223 8.307 16.6992C8.307 15.6761 7.53063 14.8438 6.57635 14.8438C5.62209 14.8438 4.8457 15.6761 4.8457 16.6992C4.8457 17.7223 5.62209 18.5547 6.57635 18.5547ZM6.57635 15.8203C7.02838 15.8203 7.39614 16.2146 7.39614 16.6992C7.39614 17.1838 7.02838 17.5781 6.57635 17.5781C6.12432 17.5781 5.75656 17.1838 5.75656 16.6992C5.75656 16.2146 6.12435 15.8203 6.57635 15.8203Z" fill="#323232"/>
</svg>
