<svg width="18" height="20" viewBox="0 0 18 20" fill="none" xmlns="http://www.w3.org/2000/svg">
<path d="M14.7857 0C15.6382 0 16.4558 0.351189 17.0586 0.976311C17.6614 1.60143 18 2.44928 18 3.33333V15.3333C18 16.2174 17.6614 17.0652 17.0586 17.6904C16.4558 18.3155 15.6382 18.6667 14.7857 18.6667H10.9286V17.3333H14.7857C15.2972 17.3333 15.7877 17.1226 16.1494 16.7475C16.5111 16.3725 16.7143 15.8638 16.7143 15.3333V5.33333H1.28571V15.3333C1.28571 15.8638 1.4889 16.3725 1.85058 16.7475C2.21226 17.1226 2.7028 17.3333 3.21429 17.3333H7.07143V18.6667H3.21429C2.3618 18.6667 1.54424 18.3155 0.941442 17.6904C0.338647 17.0652 0 16.2174 0 15.3333V3.33333C0 2.44928 0.338647 1.60143 0.941442 0.976311C1.54424 0.351189 2.3618 0 3.21429 0H14.7857ZM14.7857 1.33333H3.21429C2.7028 1.33333 2.21226 1.54405 1.85058 1.91912C1.4889 2.29419 1.28571 2.8029 1.28571 3.33333V4H16.7143V3.33333C16.7143 2.8029 16.5111 2.29419 16.1494 1.91912C15.7877 1.54405 15.2972 1.33333 14.7857 1.33333ZM10.2857 8C10.2857 8.35362 10.1503 8.69276 9.90914 8.94281C9.66802 9.19286 9.34099 9.33333 9 9.33333C8.65901 9.33333 8.33198 9.19286 8.09086 8.94281C7.84974 8.69276 7.71429 8.35362 7.71429 8C7.71429 7.64638 7.84974 7.30724 8.09086 7.05719C8.33198 6.80714 8.65901 6.66667 9 6.66667C9.34099 6.66667 9.66802 6.80714 9.90914 7.05719C10.1503 7.30724 10.2857 7.64638 10.2857 8ZM11.4223 14.76C11.3131 14.8957 11.1565 14.981 10.9867 14.997C10.817 15.013 10.6481 14.9584 10.5171 14.8453L9.64286 14.0907V19.3333C9.64286 19.5101 9.57513 19.6797 9.45457 19.8047C9.33401 19.9298 9.1705 20 9 20C8.8295 20 8.66599 19.9298 8.54543 19.8047C8.42487 19.6797 8.35714 19.5101 8.35714 19.3333V14.0907L7.48286 14.8453C7.35139 14.9535 7.18434 15.0041 7.0174 14.9862C6.85046 14.9684 6.69686 14.8836 6.58942 14.7499C6.48199 14.6162 6.42922 14.4442 6.44241 14.2707C6.4556 14.0972 6.53369 13.9359 6.66 13.8213L8.58857 12.1547C8.70409 12.0549 8.84966 12.0003 9 12.0003C9.15033 12.0003 9.29591 12.0549 9.41143 12.1547L11.34 13.8213C11.4709 13.9345 11.5531 14.097 11.5685 14.273C11.584 14.449 11.5314 14.6242 11.4223 14.76Z" fill="#0F62AB"/>
</svg>
