<svg width="23" height="25" viewBox="0 0 23 25" fill="none" xmlns="http://www.w3.org/2000/svg">
<path d="M18.7321 0.625C19.7977 0.625 20.8197 1.06399 21.5732 1.84539C22.3267 2.62679 22.75 3.6866 22.75 4.79167V19.7917C22.75 20.8967 22.3267 21.9565 21.5732 22.7379C20.8197 23.5193 19.7977 23.9583 18.7321 23.9583H13.9107V22.2917H18.7321C19.3715 22.2917 19.9847 22.0283 20.4368 21.5594C20.8889 21.0906 21.1429 20.4547 21.1429 19.7917V7.29167H1.85714V19.7917C1.85714 20.4547 2.11113 21.0906 2.56322 21.5594C3.01532 22.0283 3.6285 22.2917 4.26786 22.2917H9.08929V23.9583H4.26786C3.20226 23.9583 2.1803 23.5193 1.4268 22.7379C0.673309 21.9565 0.25 20.8967 0.25 19.7917V4.79167C0.25 3.6866 0.673309 2.62679 1.4268 1.84539C2.1803 1.06399 3.20226 0.625 4.26786 0.625H18.7321ZM18.7321 2.29167H4.26786C3.6285 2.29167 3.01532 2.55506 2.56322 3.0239C2.11113 3.49274 1.85714 4.12863 1.85714 4.79167V5.625H21.1429V4.79167C21.1429 4.12863 20.8889 3.49274 20.4368 3.0239C19.9847 2.55506 19.3715 2.29167 18.7321 2.29167ZM13.1071 10.625C13.1071 11.067 12.9378 11.4909 12.6364 11.8035C12.335 12.1161 11.9262 12.2917 11.5 12.2917C11.0738 12.2917 10.665 12.1161 10.3636 11.8035C10.0622 11.4909 9.89286 11.067 9.89286 10.625C9.89286 10.183 10.0622 9.75905 10.3636 9.44649C10.665 9.13393 11.0738 8.95833 11.5 8.95833C11.9262 8.95833 12.335 9.13393 12.6364 9.44649C12.9378 9.75905 13.1071 10.183 13.1071 10.625ZM14.5279 19.075C14.3914 19.2447 14.1956 19.3512 13.9834 19.3712C13.7713 19.3912 13.5601 19.3231 13.3964 19.1817L12.3036 18.2383V24.7917C12.3036 25.0127 12.2189 25.2246 12.0682 25.3809C11.9175 25.5372 11.7131 25.625 11.5 25.625C11.2869 25.625 11.0825 25.5372 10.9318 25.3809C10.7811 25.2246 10.6964 25.0127 10.6964 24.7917V18.2383L9.60357 19.1817C9.43924 19.3169 9.23043 19.3801 9.02175 19.3578C8.81307 19.3355 8.62108 19.2295 8.48678 19.0623C8.35248 18.8952 8.28653 18.6803 8.30301 18.4634C8.3195 18.2465 8.41711 18.0449 8.575 17.9017L10.9857 15.8183C11.1301 15.6936 11.3121 15.6253 11.5 15.6253C11.6879 15.6253 11.8699 15.6936 12.0143 15.8183L14.425 17.9017C14.5886 18.0432 14.6914 18.2462 14.7107 18.4663C14.7299 18.6863 14.6642 18.9052 14.5279 19.075Z" fill="#777777"/>
</svg>
