<svg width="36" height="35" viewBox="0 0 36 35" fill="none" xmlns="http://www.w3.org/2000/svg">
<path d="M16.1433 18.069L13.6458 15.5715L12.2861 16.9311L16.1433 20.7883L23.8576 13.074L22.4979 11.7144L16.1433 18.069Z" fill="black"/>
<path d="M18.0714 31L12.116 27.8246C10.4182 26.9214 8.99844 25.5729 8.00904 23.9238C7.01963 22.2747 6.49796 20.3874 6.50001 18.4643V5.92857C6.50052 5.41724 6.70387 4.927 7.06544 4.56543C7.427 4.20386 7.91725 4.00051 8.42858 4H27.7143C28.2256 4.00051 28.7159 4.20386 29.0774 4.56543C29.439 4.927 29.6424 5.41724 29.6429 5.92857V18.4643C29.6449 20.3874 29.1232 22.2747 28.1338 23.9238C27.1444 25.5729 25.7246 26.9214 24.0269 27.8246L18.0714 31ZM8.42858 5.92857V18.4643C8.42698 20.0378 8.85393 21.5821 9.6636 22.9313C10.4733 24.2805 11.6351 25.3838 13.0244 26.1226L18.0714 28.814L23.1185 26.1236C24.5079 25.3847 25.6698 24.2813 26.4795 22.9318C27.2892 21.5824 27.7161 20.038 27.7143 18.4643V5.92857H8.42858Z" fill="black"/>
</svg>
