<svg width="24" height="24" viewBox="0 0 24 24" fill="none" xmlns="http://www.w3.org/2000/svg">
<path d="M12 17.7144C12.5917 17.7144 13.0714 17.2347 13.0714 16.643C13.0714 16.0512 12.5917 15.5715 12 15.5715C11.4083 15.5715 10.9286 16.0512 10.9286 16.643C10.9286 17.2347 11.4083 17.7144 12 17.7144Z" fill="#3F3F3F"/>
<path d="M12.7143 14.1429H11.2857V11.2857H12.7143C13.5021 11.2857 14.1429 10.645 14.1429 9.85714C14.1429 9.06929 13.5021 8.42857 12.7143 8.42857H11.2857C10.4979 8.42857 9.85714 9.06929 9.85714 9.85714V10.2143H8.42857V9.85714C8.42857 8.28143 9.71 7 11.2857 7H12.7143C14.29 7 15.5714 8.28143 15.5714 9.85714C15.5714 11.4329 14.29 12.7143 12.7143 12.7143V14.1429Z" fill="#3F3F3F"/>
<path d="M21.565 10.9479L13.0521 2.435C12.914 2.29682 12.75 2.18726 12.5694 2.11261C12.3889 2.03796 12.1954 1.9997 12 2C11.6193 2 11.2379 2.145 10.9479 2.435L2.435 10.9479C2.145 11.2379 2 11.6186 2 12C2 12.3814 2.145 12.7621 2.435 13.0521L10.9471 21.5643C11.2379 21.855 11.6193 22 12 22C12.3807 22 12.7621 21.855 13.0521 21.565L21.5643 13.0529C21.855 12.7621 22 12.3814 22 12C22 11.6186 21.855 11.2379 21.565 10.9479ZM12 20.5971L3.40357 12L12 3.40286L20.5971 12L12 20.5971Z" fill="#3F3F3F"/>
</svg>
