<svg width="23" height="23" viewBox="0 0 23 23" fill="none" xmlns="http://www.w3.org/2000/svg">
<path d="M10.0271 1.1876C10.3958 0.819347 10.8892 0.60266 11.4098 0.580291C11.9305 0.557922 12.4406 0.731497 12.8396 1.06677L12.9729 1.18865L14.9521 3.16677H17.75C18.2754 3.16687 18.7814 3.36549 19.1666 3.72285C19.5518 4.08021 19.7877 4.56991 19.8271 5.09385L19.8333 5.2501V8.04802L21.8125 10.0272C22.181 10.396 22.3979 10.8896 22.4203 11.4104C22.4427 11.9313 22.2689 12.4417 21.9333 12.8407L21.8115 12.973L19.8323 14.9522V17.7501C19.8325 18.2757 19.634 18.7819 19.2766 19.1673C18.9192 19.5527 18.4293 19.7888 17.9052 19.8282L17.75 19.8334H14.9531L12.974 21.8126C12.6052 22.1812 12.1116 22.398 11.5907 22.4204C11.0698 22.4428 10.5594 22.269 10.1604 21.9334L10.0281 21.8126L8.04896 19.8334H5.25C4.7244 19.8336 4.21816 19.6351 3.83276 19.2777C3.44736 18.9203 3.21129 18.4305 3.17187 17.9064L3.16667 17.7501V14.9522L1.1875 12.973C0.818952 12.6042 0.60208 12.1107 0.57971 11.5898C0.557339 11.0689 0.731094 10.5585 1.06667 10.1595L1.1875 10.0272L3.16667 8.04802V5.2501C3.16676 4.72468 3.36539 4.2187 3.72275 3.83353C4.08011 3.44835 4.56981 3.21243 5.09375 3.17302L5.25 3.16677H8.04792L10.0271 1.1876ZM11.5 2.6626L9.52083 4.64177C9.17482 4.98724 8.71832 5.2 8.23125 5.24281L8.04792 5.2501H5.25V8.04802C5.25013 8.53749 5.0779 9.01138 4.76354 9.38656L4.63958 9.52198L2.66042 11.5011L4.63958 13.4793C4.98544 13.8251 5.19858 14.2816 5.24167 14.7689L5.25 14.9522V17.7501H8.04792C8.53739 17.75 9.01128 17.9222 9.38646 18.2366L9.52188 18.3605L11.5 20.3397L13.4792 18.3605C13.825 18.0147 14.2815 17.8015 14.7688 17.7584L14.9521 17.7501H17.75V14.9522C17.7499 14.4627 17.9221 13.9888 18.2365 13.6136L18.3604 13.4782L20.3396 11.5001L18.3604 9.52094C18.0146 9.17508 17.8014 8.71856 17.7583 8.23135L17.75 8.04802V5.2501H14.9521C14.4626 5.25023 13.9887 5.07801 13.6135 4.76365L13.4781 4.63969L11.499 2.66052L11.5 2.6626ZM14.7083 8.35844C14.8958 8.17162 15.1473 8.06315 15.4119 8.05508C15.6764 8.047 15.9341 8.13991 16.1326 8.31495C16.3311 8.48998 16.4555 8.73401 16.4806 8.99747C16.5057 9.26093 16.4296 9.52407 16.2677 9.73344L16.1802 9.83135L11.0969 14.9147C10.8984 15.1134 10.6339 15.2323 10.3535 15.2488C10.0731 15.2654 9.79646 15.1783 9.57604 15.0043L9.47604 14.9157L6.97188 12.4116C6.78307 12.2245 6.67288 11.9724 6.66387 11.7068C6.65486 11.4412 6.74771 11.1822 6.9234 10.9828C7.0991 10.7834 7.34436 10.6587 7.60898 10.6343C7.87361 10.6098 8.13758 10.6874 8.34687 10.8511L8.44479 10.9376L10.2865 12.7793L14.7083 8.35844Z" fill="#E9994A"/>
</svg>
