<svg width="25" height="28" viewBox="0 0 25 28" fill="none" xmlns="http://www.w3.org/2000/svg">
<path d="M22.5781 8.86396C21.4629 8.86396 20.5558 9.77379 20.5558 10.8922V12.2586C20.1757 12.0095 19.7235 11.8617 19.2363 11.8617H18.6311L20.0849 2.35123C20.1677 1.8121 20.012 1.26566 19.6576 0.85154C19.3035 0.437723 18.7887 0.200195 18.2448 0.200195H6.9549C6.41108 0.200195 5.89617 0.437723 5.54208 0.851601C5.18775 1.26572 5.03211 1.81216 5.1149 2.35105L6.56865 11.8617H5.96656C5.4782 11.8617 5.02488 12.0101 4.644 12.261V10.8922C4.644 9.77379 3.73688 8.86396 2.62175 8.86396C1.50727 8.86396 0.599976 9.77379 0.599976 10.8922C0.599976 11.1971 0.846112 11.4443 1.15041 11.4443C1.45471 11.4443 1.7006 11.1971 1.7006 10.8922C1.7006 10.3825 2.11394 9.9679 2.62181 9.9679C3.13015 9.9679 3.54349 10.3825 3.54349 10.8922C3.54349 10.8922 3.54584 14.3026 3.54608 14.3069C3.55102 15.6422 4.63449 16.7273 5.96668 16.7273H10.0488L5.10424 24.0553C4.96859 24.0244 4.8289 24.0046 4.68428 24.0046C3.64103 24.0046 2.7925 24.8559 2.7925 25.9024C2.7925 26.9485 3.64103 27.8002 4.68428 27.8002C5.72729 27.8002 6.57654 26.9485 6.57654 25.9024C6.57654 25.4009 6.37809 24.9477 6.06024 24.6081L11.3775 16.7273H12.0511V24.0956C11.2766 24.3334 10.7076 25.0486 10.7076 25.9024C10.7076 26.9485 11.5566 27.8002 12.5999 27.8002C13.6431 27.8002 14.4921 26.9485 14.4921 25.9024C14.4921 25.0498 13.9248 24.3352 13.1517 24.0966V16.7273H13.819L19.1409 24.6062C18.8223 24.9461 18.6232 25.4002 18.6232 25.9024C18.6232 26.9485 19.4724 27.8002 20.5154 27.8002C21.5586 27.8002 22.4072 26.9485 22.4072 25.9024C22.4072 24.8559 21.5586 24.0046 20.5154 24.0046C20.3718 24.0046 20.2329 24.0239 20.0981 24.0546L15.1488 16.7273H19.2364C20.5719 16.7273 21.6586 15.6375 21.6586 14.2979L21.6565 10.8922C21.6565 10.3825 22.0698 9.9679 22.5781 9.9679C23.086 9.9679 23.4993 10.3825 23.4993 10.8922C23.4993 11.1971 23.7453 11.4443 24.0495 11.4443C24.3538 11.4443 24.6 11.1971 24.6 10.8922C24.5999 9.77385 23.6926 8.86396 22.5781 8.86396ZM4.68434 26.696C4.24794 26.696 3.89319 26.3401 3.89319 25.9024C3.89319 25.4647 4.248 25.1085 4.68434 25.1085C5.12074 25.1085 5.47597 25.4646 5.47597 25.9024C5.47597 26.3401 5.12074 26.696 4.68434 26.696ZM13.3915 25.9024C13.3915 26.3401 13.0363 26.696 12.5999 26.696C12.1635 26.696 11.8083 26.3401 11.8083 25.9024C11.8083 25.4647 12.1635 25.1085 12.5999 25.1085C13.0363 25.1086 13.3915 25.4647 13.3915 25.9024ZM21.3066 25.9024C21.3066 26.3401 20.9518 26.696 20.5154 26.696C20.079 26.696 19.7237 26.3401 19.7237 25.9024C19.7237 25.4647 20.079 25.1085 20.5154 25.1085C20.9518 25.1085 21.3066 25.4647 21.3066 25.9024ZM6.20252 2.18358C6.1682 1.96 6.23052 1.7421 6.37719 1.57041C6.5244 1.39871 6.72917 1.30413 6.9549 1.30413H18.2449C18.4706 1.30413 18.6754 1.39871 18.8226 1.57041C18.9693 1.7421 19.0316 1.96 18.9973 2.18382L17.5179 11.8617H7.68186L6.20252 2.18358ZM19.2363 15.6233H5.96644C5.23827 15.6233 4.64556 15.0286 4.64556 14.2914C4.64556 13.5602 5.23827 12.9657 5.96644 12.9657H19.2363C19.9579 12.9657 20.5441 13.5489 20.5558 14.2699V14.2913C20.5558 14.2946 20.5575 14.2972 20.5577 14.3004C20.5561 15.03 19.9643 15.6233 19.2363 15.6233Z" fill="#283237"/>
</svg>
