<svg width="18" height="21" viewBox="0 0 18 21" fill="none" xmlns="http://www.w3.org/2000/svg">
<path d="M15.7043 7.02316C14.9106 7.02316 14.265 7.67068 14.265 8.46662V9.43909C13.9945 9.26183 13.6727 9.15661 13.326 9.15661H12.8952L13.9299 2.38807C13.9888 2.00437 13.878 1.61547 13.6258 1.32074C13.3738 1.02623 13.0074 0.857178 12.6203 0.857178H4.58528C4.19825 0.857178 3.83179 1.02623 3.57979 1.32078C3.32761 1.61551 3.21684 2.00441 3.27576 2.38794L4.31039 9.15666H3.88188C3.53432 9.15666 3.2117 9.26226 2.94062 9.44081V8.46662C2.94062 7.67068 2.29503 7.02316 1.50139 7.02316C0.70822 7.02316 0.0625 7.67068 0.0625 8.46662C0.0625 8.68364 0.237674 8.85956 0.454243 8.85956C0.670811 8.85956 0.845814 8.68364 0.845814 8.46662C0.845814 8.1039 1.13999 7.80883 1.50143 7.80883C1.86322 7.80883 2.15739 8.1039 2.15739 8.46662C2.15739 8.46662 2.15906 10.8938 2.15924 10.8969C2.16275 11.8472 2.93385 12.6195 3.88197 12.6195H6.78722L3.26817 17.8348C3.17163 17.8128 3.07222 17.7987 2.96929 17.7987C2.22681 17.7987 1.62291 18.4046 1.62291 19.1494C1.62291 19.8939 2.22681 20.5 2.96929 20.5C3.71159 20.5 4.31601 19.8939 4.31601 19.1494C4.31601 18.7925 4.17477 18.4699 3.94856 18.2282L7.73281 12.6195H8.21222V17.8635C7.66103 18.0327 7.25609 18.5417 7.25609 19.1494C7.25609 19.8939 7.86033 20.5 8.60281 20.5C9.34528 20.5 9.94952 19.8939 9.94952 19.1494C9.94952 18.5426 9.54574 18.034 8.99554 17.8642V12.6195H9.47045L13.258 18.2269C13.0313 18.4687 12.8896 18.792 12.8896 19.1494C12.8896 19.8939 13.494 20.5 14.2363 20.5C14.9787 20.5 15.5827 19.8939 15.5827 19.1494C15.5827 18.4046 14.9787 17.7987 14.2363 17.7987C14.134 17.7987 14.0352 17.8125 13.9392 17.8343L10.4169 12.6195H13.326C14.2765 12.6195 15.0498 11.8438 15.0498 10.8905L15.0483 8.46662C15.0483 8.1039 15.3425 7.80883 15.7043 7.80883C16.0658 7.80883 16.3599 8.1039 16.3599 8.46662C16.3599 8.68364 16.535 8.85956 16.7515 8.85956C16.9681 8.85956 17.1432 8.68364 17.1432 8.46662C17.1432 7.67073 16.4974 7.02316 15.7043 7.02316ZM2.96933 19.7142C2.65875 19.7142 2.40627 19.4609 2.40627 19.1494C2.40627 18.8378 2.65879 18.5844 2.96933 18.5844C3.27991 18.5844 3.53274 18.8378 3.53274 19.1494C3.53274 19.4609 3.27991 19.7142 2.96933 19.7142ZM9.16621 19.1494C9.16621 19.4609 8.91339 19.7142 8.60281 19.7142C8.29222 19.7142 8.0394 19.4609 8.0394 19.1494C8.0394 18.8378 8.29227 18.5844 8.60281 18.5844C8.91339 18.5844 9.16621 18.8378 9.16621 19.1494ZM14.7993 19.1494C14.7993 19.4609 14.5468 19.7142 14.2362 19.7142C13.9257 19.7142 13.6728 19.4609 13.6728 19.1494C13.6728 18.8378 13.9257 18.5844 14.2362 18.5844C14.5468 18.5844 14.7993 18.8378 14.7993 19.1494ZM4.04982 2.26875C4.02539 2.10963 4.06974 1.95455 4.17413 1.83235C4.2789 1.71016 4.42463 1.64285 4.58528 1.64285H12.6203C12.781 1.64285 12.9267 1.71016 13.0315 1.83235C13.1359 1.95455 13.1803 2.10963 13.1558 2.26892L12.103 9.15666H5.10266L4.04982 2.26875ZM13.326 11.8338H3.8818C3.36356 11.8338 2.94174 11.4105 2.94174 10.8858C2.94174 10.3655 3.36356 9.94232 3.8818 9.94232H13.326C13.8395 9.94232 14.2567 10.3574 14.265 10.8705V10.8858C14.265 10.8881 14.2662 10.8899 14.2664 10.8923C14.2652 11.4115 13.844 11.8338 13.326 11.8338Z" fill="#323232"/>
</svg>
