<svg width="19" height="19" viewBox="0 0 19 19" fill="none" xmlns="http://www.w3.org/2000/svg">
<path d="M16.3357 4.75645C17.4898 4.75645 18.4284 3.8178 18.4284 2.66387C18.4284 1.50993 17.4898 0.571289 16.3357 0.571289C15.1818 0.571289 14.2432 1.51005 14.2432 2.66387C14.2432 3.8178 15.1818 4.75645 16.3357 4.75645ZM16.3357 1.96638C16.7205 1.96638 17.0335 2.2793 17.0335 2.66387C17.0335 3.04844 16.7205 3.36148 16.3357 3.36148C15.9512 3.36148 15.6381 3.04855 15.6381 2.66387C15.6381 2.27918 15.9513 1.96638 16.3357 1.96638ZM2.66399 4.75645C3.81793 4.75645 4.75657 3.8178 4.75657 2.66387C4.75657 1.50993 3.81793 0.571289 2.66399 0.571289C1.51006 0.571289 0.571411 1.51005 0.571411 2.66387C0.571411 3.8178 1.51006 4.75645 2.66399 4.75645ZM2.66399 1.96638C3.04868 1.96638 3.3616 2.2793 3.3616 2.66387C3.3616 3.04844 3.04868 3.36148 2.66399 3.36148C2.27931 3.36148 1.9665 3.04855 1.9665 2.66387C1.9665 2.27918 2.27943 1.96638 2.66399 1.96638ZM16.3467 5.41913C16.3435 5.41913 16.3398 5.41913 16.3366 5.41913C14.8927 5.41913 14.3453 6.47043 14.0002 7.49943C13.883 7.84943 13.6283 8.61415 13.4612 9.11625H12.639V7.51183C12.639 6.35789 11.7002 5.41925 10.5463 5.41925H8.45369C7.29976 5.41925 6.36099 6.35789 6.36099 7.51183V9.11625H5.5387C5.37157 8.61415 5.11694 7.84943 4.99964 7.49943C4.65453 6.47043 4.10736 5.41913 2.66339 5.41913C2.66006 5.41913 2.65648 5.41913 2.65302 5.41913C1.50529 5.42306 0.57153 6.36195 0.57153 7.51171V11.3134C0.57153 12.2227 1.1547 12.9981 1.96662 13.286V13.3014C1.98462 13.3014 2.00215 13.3027 2.01991 13.304C2.09751 13.3292 2.17715 13.3502 2.25845 13.3661C2.49746 13.4766 2.66411 13.7184 2.66411 13.9989V18.4282H4.0592V13.9989C4.0592 13.793 4.0288 13.5941 3.97313 13.406H4.79162C5.17618 13.406 5.48911 13.7189 5.48911 14.1036V18.4282H6.8842V14.1036C6.8842 12.9495 5.94543 12.0109 4.79162 12.0109H2.66411C2.64611 12.0109 2.62859 12.0096 2.61082 12.0081C2.5331 11.983 2.45359 11.9621 2.37229 11.946C2.13316 11.8355 1.96662 11.5938 1.96662 11.3134V7.51171C1.96662 7.12857 2.2768 6.81553 2.65803 6.8141C2.97322 6.81303 3.29782 6.81196 3.67678 7.94253C3.85798 8.48302 4.36879 10.0183 4.37391 10.0337L4.5327 10.511H14.4675L14.6263 10.0337C14.6314 10.0182 15.1422 8.48302 15.3234 7.94253C15.7023 6.81196 16.0269 6.81339 16.3423 6.8141C16.7234 6.81553 17.0337 7.12845 17.0337 7.51171V11.3134C17.0337 11.5938 16.867 11.8355 16.6279 11.946C16.5466 11.9621 16.467 11.983 16.3895 12.0081C16.3717 12.0096 16.3541 12.0109 16.3361 12.0109H14.2435C13.0895 12.0109 12.1509 12.9496 12.1509 14.1036V18.4282H13.5459V14.1036C13.5459 13.7189 13.8588 13.406 14.2435 13.406H15.0271C14.9714 13.5939 14.941 13.793 14.941 13.9989V18.4282H16.336V13.9989C16.336 13.7184 16.5026 13.4766 16.7416 13.3661C16.8231 13.35 16.9027 13.3291 16.9803 13.304C16.9979 13.3026 17.0156 13.3014 17.0336 13.3014V13.286C17.8454 12.9981 18.4286 12.2228 18.4286 11.3134V7.51171C18.4284 6.36195 17.4946 5.42318 16.3467 5.41913ZM7.75597 7.51183C7.75597 7.12726 8.06889 6.81422 8.45357 6.81422H10.5462C10.9308 6.81422 11.2436 7.12714 11.2436 7.51183V9.11625H7.75597V7.51183ZM9.49986 4.75645C10.6538 4.75645 11.5926 3.8178 11.5926 2.66387C11.5926 1.50993 10.6538 0.571289 9.49986 0.571289C8.34593 0.571289 7.40728 1.51005 7.40728 2.66387C7.40728 3.8178 8.34593 4.75645 9.49986 4.75645ZM9.49986 1.96638C9.88455 1.96638 10.1975 2.2793 10.1975 2.66387C10.1975 3.04844 9.88455 3.36148 9.49986 3.36148C9.11518 3.36148 8.80238 3.04855 8.80238 2.66387C8.80238 2.27918 9.1153 1.96638 9.49986 1.96638Z" fill="#323232"/>
</svg>
