<svg width="18" height="21" viewBox="0 0 18 21" fill="none" xmlns="http://www.w3.org/2000/svg">
<path d="M16.2132 6.84457C15.4196 6.84457 14.774 7.49209 14.774 8.28803V9.2605C14.5034 9.08324 14.1816 8.97802 13.8349 8.97802H13.4042L14.4388 2.20948C14.4977 1.82578 14.3869 1.43688 14.1347 1.14215C13.8827 0.847637 13.5163 0.678589 13.1292 0.678589H5.09422C4.70719 0.678589 4.34073 0.847637 4.08873 1.14219C3.83655 1.43692 3.72578 1.82582 3.7847 2.20935L4.81933 8.97807H4.39083C4.04326 8.97807 3.72064 9.08367 3.44956 9.26222V8.28803C3.44956 7.49209 2.80397 6.84457 2.01033 6.84457C1.21716 6.84457 0.571442 7.49209 0.571442 8.28803C0.571442 8.50505 0.746616 8.68097 0.963184 8.68097C1.17975 8.68097 1.35476 8.50505 1.35476 8.28803C1.35476 7.92531 1.64893 7.63024 2.01037 7.63024C2.37216 7.63024 2.66634 7.92531 2.66634 8.28803C2.66634 8.28803 2.66801 10.7152 2.66818 10.7183C2.67169 11.6686 3.44279 12.4409 4.39091 12.4409H7.29616L3.77712 17.6562C3.68057 17.6342 3.58116 17.6201 3.47823 17.6201C2.73575 17.6201 2.13186 18.226 2.13186 18.9708C2.13186 19.7153 2.73575 20.3214 3.47823 20.3214C4.22054 20.3214 4.82495 19.7153 4.82495 18.9708C4.82495 18.6139 4.68371 18.2913 4.4575 18.0496L8.24175 12.4409H8.72116V17.6849C8.16997 17.8541 7.76503 18.3631 7.76503 18.9708C7.76503 19.7153 8.36927 20.3214 9.11175 20.3214C9.85423 20.3214 10.4585 19.7153 10.4585 18.9708C10.4585 18.364 10.0547 17.8554 9.50448 17.6856V12.4409H9.97939L13.767 18.0483C13.5403 18.2902 13.3985 18.6134 13.3985 18.9708C13.3985 19.7153 14.0029 20.3214 14.7452 20.3214C15.4877 20.3214 16.0916 19.7153 16.0916 18.9708C16.0916 18.226 15.4877 17.6201 14.7452 17.6201C14.643 17.6201 14.5441 17.6339 14.4482 17.6557L10.9258 12.4409H13.8349C14.7854 12.4409 15.5588 11.6653 15.5588 10.7119L15.5573 8.28803C15.5573 7.92531 15.8515 7.63024 16.2133 7.63024C16.5747 7.63024 16.8689 7.92531 16.8689 8.28803C16.8689 8.50505 17.0439 8.68097 17.2604 8.68097C17.477 8.68097 17.6522 8.50505 17.6522 8.28803C17.6521 7.49214 17.0064 6.84457 16.2132 6.84457ZM3.47827 19.5356C3.16769 19.5356 2.91521 19.2823 2.91521 18.9708C2.91521 18.6592 3.16773 18.4058 3.47827 18.4058C3.78886 18.4058 4.04168 18.6592 4.04168 18.9708C4.04168 19.2823 3.78886 19.5356 3.47827 19.5356ZM9.67515 18.9708C9.67515 19.2823 9.42233 19.5356 9.11175 19.5356C8.80117 19.5356 8.54835 19.2823 8.54835 18.9708C8.54835 18.6592 8.80121 18.4058 9.11175 18.4058C9.42233 18.4058 9.67515 18.6592 9.67515 18.9708ZM15.3083 18.9708C15.3083 19.2823 15.0558 19.5356 14.7452 19.5356C14.4346 19.5356 14.1818 19.2823 14.1818 18.9708C14.1818 18.6592 14.4346 18.4058 14.7452 18.4058C15.0558 18.4058 15.3083 18.6592 15.3083 18.9708ZM4.55876 2.09016C4.53433 1.93104 4.57868 1.77596 4.68307 1.65376C4.78784 1.53157 4.93358 1.46426 5.09422 1.46426H13.1293C13.2899 1.46426 13.4357 1.53157 13.5404 1.65376C13.6449 1.77596 13.6892 1.93104 13.6647 2.09033L12.6119 8.97807H5.6116L4.55876 2.09016ZM13.8349 11.6552H4.39074C3.8725 11.6552 3.45068 11.2319 3.45068 10.7072C3.45068 10.1869 3.8725 9.76374 4.39074 9.76374H13.8349C14.3484 9.76374 14.7656 10.1788 14.774 10.6919V10.7072C14.774 10.7096 14.7751 10.7114 14.7753 10.7137C14.7741 11.2329 14.353 11.6552 13.8349 11.6552Z" fill="#323232"/>
</svg>
