<svg width="50" height="50" viewBox="0 0 50 50" fill="none" xmlns="http://www.w3.org/2000/svg">
<path d="M42.0465 31.2366C41.6603 30.9725 41.4464 30.5037 41.567 30.0517L42.9323 24.9317C42.9548 24.8477 42.9661 24.761 42.9661 24.674V21.2373C42.2766 13.2718 35.5142 7 27.3729 7H25.661C25.1087 7 24.661 7.44772 24.661 8V20.2373C24.661 20.7896 24.2133 21.2373 23.661 21.2373H15.6427C15.1755 21.2373 14.7706 20.9138 14.6674 20.4582L13.3317 14.562C13.1984 13.9576 12.8634 13.4165 12.3816 13.0278C11.8999 12.6392 11.3002 12.4261 10.6812 12.4237H6C5.44772 12.4237 5 12.8714 5 13.4237V14.1356C5 14.6879 5.44772 15.1356 6 15.1356H9.88238C10.3495 15.1356 10.7545 15.459 10.8577 15.9147L13.8982 29.3365C14.0171 29.8614 13.6951 30.3793 13.1997 30.5895C12.3376 30.9552 11.5573 31.497 10.9107 32.184C10.0428 33.106 9.45053 34.2526 9.20088 35.494C8.95122 36.7354 9.0542 38.0218 9.49815 39.2077C9.94209 40.3935 10.7093 41.4314 11.7127 42.2036C12.7162 42.9758 13.9159 43.4516 15.1759 43.577C16.4359 43.7024 17.7058 43.4725 18.8419 42.9132C19.9779 42.354 20.9346 41.4878 21.6036 40.4127C22.2726 39.3377 22.6272 38.0967 22.6271 36.8305C22.6271 36.4671 22.9089 36.1525 23.2723 36.1525H30.7955C31.1591 36.1525 31.4411 36.4669 31.4407 36.8305C31.4402 38.0328 31.7594 39.2136 32.3656 40.2518C32.9718 41.2901 33.8432 42.1484 34.8904 42.7389C35.9377 43.3294 37.1232 43.6308 38.3253 43.6122C39.5274 43.5936 40.703 43.2557 41.7314 42.633C42.7599 42.0104 43.6043 41.1255 44.1781 40.0689C44.7519 39.0124 45.0344 37.8223 44.9967 36.6207C44.9589 35.419 44.6023 34.2489 43.9634 33.2305C43.4668 32.4388 42.8134 31.7608 42.0465 31.2366ZM27.3729 10.7119C27.3729 10.1596 27.822 9.70781 28.3727 9.75027C34.1871 10.1987 38.9323 14.5243 40.0197 20.1388C40.1325 20.7216 39.6664 21.2373 39.0728 21.2373H28.3729C27.8206 21.2373 27.3729 20.7896 27.3729 20.2373V10.7119ZM15.8475 40.8983C15.0429 40.8983 14.2565 40.6597 13.5875 40.2128C12.9186 39.7658 12.3972 39.1305 12.0893 38.3872C11.7814 37.6439 11.7009 36.826 11.8578 36.0369C12.0148 35.2478 12.4022 34.523 12.9711 33.9541C13.54 33.3853 14.2648 32.9978 15.0539 32.8409C15.8429 32.6839 16.6608 32.7645 17.4041 33.0724C18.1474 33.3802 18.7827 33.9016 19.2297 34.5706C19.6767 35.2395 19.9153 36.026 19.9153 36.8305C19.914 37.909 19.4851 38.9429 18.7225 39.7055C17.9599 40.4681 16.9259 40.8971 15.8475 40.8983ZM32.6624 32.9537C32.4581 33.2467 32.1328 33.4407 31.7755 33.4407H22.2918C21.9348 33.4407 21.6096 33.247 21.4053 32.9543C20.9349 32.2803 20.3451 31.6959 19.6635 31.2308C19.011 30.7856 18.2872 30.4585 17.5255 30.2628C17.1271 30.1604 16.7979 29.8626 16.7071 29.4615L15.7349 25.1701C15.5932 24.5445 16.0688 23.9492 16.7102 23.9492H39.8122C40.0563 23.9492 40.2542 24.1471 40.2542 24.3912C40.2542 24.4297 40.2492 24.468 40.2393 24.5051L38.892 29.5571C38.8122 29.8561 38.5298 30.0518 38.2203 30.0506C37.0309 30.0515 35.8627 30.3652 34.8328 30.9603C33.97 31.4588 33.2297 32.1401 32.6624 32.9537ZM38.2203 40.8983C37.4158 40.8983 36.6293 40.6597 35.9604 40.2128C35.2914 39.7658 34.7701 39.1305 34.4622 38.3872C34.1543 37.6439 34.0737 36.826 34.2307 36.0369C34.3877 35.2478 34.7751 34.523 35.344 33.9541C35.9129 33.3853 36.6377 32.9978 37.4268 32.8409C38.2158 32.6839 39.0337 32.7645 39.777 33.0724C40.5203 33.3802 41.1556 33.9016 41.6026 34.5706C42.0496 35.2395 42.2881 36.026 42.2881 36.8305C42.2869 37.909 41.8579 38.9429 41.0953 39.7055C40.3328 40.4681 39.2988 40.8971 38.2203 40.8983Z" fill="black"/>
</svg>
