<svg width="50" height="50" viewBox="0 0 50 50" fill="none" xmlns="http://www.w3.org/2000/svg">
<path fill-rule="evenodd" clip-rule="evenodd" d="M19.7917 31.2501C19.7917 31.2501 18.2323 29.0605 17.7083 29.1803C12.0792 30.4615 6.25 34.1615 6.25 38.0938V43.7501H43.75V38.0938C43.75 34.1615 37.9208 30.4615 32.2917 29.1803C31.7677 29.0605 30.2083 31.2501 30.2083 31.2501H19.7917ZM26.7552 33.3334H18.7187L18.0958 32.4584L18.0854 32.4449L18.0437 32.3876C17.8034 32.0604 17.5508 31.7425 17.2865 31.4344C15.0104 32.0626 12.7823 33.0959 11.0969 34.3261C9.09375 35.7865 8.33333 37.1532 8.33333 38.0938V41.6667H41.6667V38.0938C41.6667 37.1532 40.9062 35.7865 38.9042 34.3261C37.2187 33.0969 34.9906 32.0626 32.7146 31.4344L32.6365 31.524C32.3994 31.8029 32.1728 32.0907 31.9573 32.3865L31.9156 32.4449L31.9052 32.4574V32.4584L31.2823 33.3334H26.7552Z" fill="#3F3F3F"/>
<path fill-rule="evenodd" clip-rule="evenodd" d="M33.3333 39.5833V33.3333H35.4166V39.5833H33.3333Z" fill="#3F3F3F"/>
<path fill-rule="evenodd" clip-rule="evenodd" d="M37.5 37.5H31.25V35.4167H37.5V37.5ZM25 25C27.2101 25 29.3297 24.122 30.8925 22.5592C32.4553 20.9964 33.3333 18.8768 33.3333 16.6667C33.3333 14.4565 32.4553 12.3369 30.8925 10.7741C29.3297 9.21131 27.2101 8.33333 25 8.33333C22.7898 8.33333 20.6702 9.21131 19.1074 10.7741C17.5446 12.3369 16.6666 14.4565 16.6666 16.6667C16.6666 18.8768 17.5446 20.9964 19.1074 22.5592C20.6702 24.122 22.7898 25 25 25ZM25 27.0833C30.7531 27.0833 35.4166 22.4198 35.4166 16.6667C35.4166 10.9135 30.7531 6.25 25 6.25C19.2469 6.25 14.5833 10.9135 14.5833 16.6667C14.5833 22.4198 19.2469 27.0833 25 27.0833Z" fill="#3F3F3F"/>
</svg>
