<svg width="20" height="19" viewBox="0 0 20 19" fill="none" xmlns="http://www.w3.org/2000/svg">
<g clip-path="url(#clip0_6801_33122)">
<path d="M13.9501 7.17432H19.1162C19.6043 7.17432 19.9999 7.56997 19.9999 8.05803V12.7636C19.9999 14.5574 18.5458 16.0115 16.752 16.0115H16.7367C14.9429 16.0118 13.4885 14.5578 13.4883 12.7641C13.4883 12.7639 13.4883 12.7638 13.4883 12.7636V7.63618C13.4883 7.3811 13.6951 7.17432 13.9501 7.17432Z" fill="#0F62AB"/>
<path d="M17.4426 6.24415C18.5986 6.24415 19.5357 5.30707 19.5357 4.15113C19.5357 2.99518 18.5986 2.05811 17.4426 2.05811C16.2867 2.05811 15.3496 2.99518 15.3496 4.15113C15.3496 5.30707 16.2867 6.24415 17.4426 6.24415Z" fill="#0F62AB"/>
<path d="M10.9295 6.24415C12.5992 6.24415 13.9528 4.89059 13.9528 3.22089C13.9528 1.55119 12.5992 0.197632 10.9295 0.197632C9.25981 0.197632 7.90625 1.55119 7.90625 3.22089C7.90625 4.89059 9.25981 6.24415 10.9295 6.24415Z" fill="#0F62AB"/>
<path d="M14.9615 7.17432H6.43408C5.95183 7.18625 5.57034 7.58647 5.58153 8.06874V13.4357C5.51418 16.3298 7.80383 18.7314 10.6978 18.8022C13.5918 18.7314 15.8814 16.3298 15.8141 13.4357V8.06874C15.8253 7.58647 15.4438 7.18625 14.9615 7.17432Z" fill="#0F62AB"/>
<path opacity="0.1" d="M11.1637 7.17432V14.6952C11.1614 15.0401 10.9524 15.35 10.6334 15.4813C10.5319 15.5242 10.4228 15.5464 10.3125 15.5464H5.99158C5.93112 15.3929 5.8753 15.2394 5.82879 15.0813C5.66597 14.5476 5.5829 13.9928 5.58227 13.4348V8.06734C5.57109 7.58584 5.95195 7.18625 6.43343 7.17432H11.1637Z" fill="black"/>
<path opacity="0.2" d="M10.6986 7.17432V15.1604C10.6985 15.2706 10.6764 15.3798 10.6334 15.4813C10.5021 15.8002 10.1923 16.0092 9.8474 16.0115H6.21019C6.13111 15.858 6.0567 15.7045 5.99158 15.5464C5.92646 15.3883 5.8753 15.2394 5.82879 15.0813C5.66597 14.5476 5.5829 13.9928 5.58227 13.4348V8.06734C5.57109 7.58584 5.95195 7.18625 6.43343 7.17432H10.6986Z" fill="black"/>
<path opacity="0.2" d="M10.6986 7.17432V14.2301C10.695 14.6987 10.316 15.0778 9.84739 15.0813H5.82879C5.66597 14.5476 5.5829 13.9928 5.58227 13.4348V8.06734C5.57109 7.58584 5.95195 7.18625 6.43343 7.17432H10.6986Z" fill="black"/>
<path opacity="0.2" d="M10.2334 7.17432V14.2301C10.2299 14.6987 9.85088 15.0778 9.38227 15.0813H5.82879C5.66597 14.5476 5.5829 13.9928 5.58227 13.4348V8.06734C5.57109 7.58584 5.95195 7.18625 6.43343 7.17432H10.2334Z" fill="black"/>
<path opacity="0.1" d="M11.1623 4.76973V6.23485C11.0833 6.2395 11.0088 6.24415 10.9298 6.24415C10.8507 6.24415 10.7763 6.23951 10.6972 6.23485C10.5402 6.22443 10.3845 6.19952 10.2321 6.16043C9.29023 5.93738 8.5121 5.27684 8.13907 4.38369C8.07489 4.2337 8.02506 4.07796 7.99023 3.91858H10.3112C10.7805 3.92036 11.1605 4.30038 11.1623 4.76973Z" fill="black"/>
<path opacity="0.2" d="M10.6968 5.23482V6.23482C10.5398 6.22441 10.3841 6.1995 10.2317 6.16041C9.28983 5.93736 8.5117 5.27682 8.13867 4.38367H9.84565C10.315 4.38544 10.695 4.76548 10.6968 5.23482Z" fill="black"/>
<path opacity="0.2" d="M10.6968 5.23482V6.23482C10.5398 6.22441 10.3841 6.1995 10.2317 6.16041C9.28983 5.93736 8.5117 5.27682 8.13867 4.38367H9.84565C10.315 4.38544 10.695 4.76548 10.6968 5.23482Z" fill="black"/>
<path opacity="0.2" d="M10.2317 5.23483V6.16041C9.28983 5.93736 8.5117 5.27682 8.13867 4.38367H9.38053C9.84988 4.38545 10.2299 4.76549 10.2317 5.23483Z" fill="black"/>
<path d="M0.852554 4.55017H9.37999C9.85085 4.55017 10.2325 4.93188 10.2325 5.40272V13.9302C10.2325 14.401 9.85084 14.7827 9.37999 14.7827H0.852554C0.381698 14.7827 0 14.401 0 13.9302V5.40272C0 4.93188 0.381706 4.55017 0.852554 4.55017Z" fill="#0F62AB"/>
<path d="M7.36049 7.62922H5.65583V12.2711H4.56979V7.62922H2.87305V6.72876H7.36049V7.62922Z" fill="white"/>
</g>
<defs>
<clipPath id="clip0_6801_33122">
<rect width="20" height="18.6047" fill="white" transform="translate(0 0.197632)"/>
</clipPath>
</defs>
</svg>
