<svg width="16" height="15" viewBox="0 0 16 15" fill="none" xmlns="http://www.w3.org/2000/svg">
<path d="M12.4833 6.49167L10.65 4.65833C10.4167 4.425 10.35 4.1 10.4417 3.80833C10.75 2.875 10.9167 1.875 10.9167 0.833333C10.9167 0.375 11.2917 0 11.75 0H14.6667C15.125 0 15.5 0.375 15.5 0.833333C15.5 8.65833 9.15833 15 1.33333 15C0.875 15 0.5 14.625 0.5 14.1667V11.2583C0.5 10.8 0.875 10.425 1.33333 10.425C2.36667 10.425 3.375 10.2583 4.30833 9.95C4.6 9.85 4.93333 9.925 5.15833 10.15L6.99167 11.9833C9.35 10.775 11.2833 8.85 12.4833 6.49167Z" fill="#0F62AB"/>
</svg>
