<svg width="27" height="27" viewBox="0 0 27 27" fill="none" xmlns="http://www.w3.org/2000/svg">
<path d="M7.25 19.75H4.125C3.2962 19.75 2.50134 19.4208 1.91529 18.8347C1.32924 18.2487 1 17.4538 1 16.625V4.125C1 3.2962 1.32924 2.50134 1.91529 1.91529C2.50134 1.32924 3.2962 1 4.125 1H16.625C17.4538 1 18.2487 1.32924 18.8347 1.91529C19.4208 2.50134 19.75 3.2962 19.75 4.125V7.25M10.375 26H22.875C23.7038 26 24.4987 25.6708 25.0847 25.0847C25.6708 24.4987 26 23.7038 26 22.875V10.375C26 9.5462 25.6708 8.75134 25.0847 8.16529C24.4987 7.57924 23.7038 7.25 22.875 7.25H10.375C9.5462 7.25 8.75134 7.57924 8.16529 8.16529C7.57924 8.75134 7.25 9.5462 7.25 10.375V22.875C7.25 23.7038 7.57924 24.4987 8.16529 25.0847C8.75134 25.6708 9.5462 26 10.375 26Z" stroke="black" stroke-width="2" stroke-linecap="round" stroke-linejoin="round"/>
</svg>
