<svg width="18" height="21" viewBox="0 0 18 21" fill="none" xmlns="http://www.w3.org/2000/svg">
<mask id="path-1-inside-1_425_20102" fill="white">
<path d="M11.3808 15.6729C13.0819 12.7371 15.232 8.61 15.232 6.48857C15.232 2.91 12.4352 0 8.99588 0C5.55652 0 2.75973 2.91 2.75973 6.48857C2.75973 8.61 4.90984 12.7371 6.61098 15.6729C4.59268 15.8314 0 16.4014 0 18.2914C0 20.1514 4.6627 21 9 21C13.3332 21 18 20.1514 18 18.2914C17.9959 16.4014 13.3991 15.8314 11.3808 15.6729ZM3.6206 6.48857C3.6206 3.40286 6.03432 0.891429 8.99588 0.891429C11.9616 0.891429 14.3753 3.40286 14.3753 6.48857C14.3753 9.18429 10.2481 15.9471 8.99588 17.9357C7.74371 15.9471 3.6206 9.18429 3.6206 6.48857ZM8.99588 20.1043C3.72769 20.1043 0.856751 18.9043 0.856751 18.2871C0.856751 17.8114 2.75149 16.7871 7.11762 16.5257C7.9373 17.9014 8.55927 18.8743 8.64165 18.99C8.75286 19.1443 9.07826 19.3286 9.35423 18.99C9.44073 18.8829 10.0586 17.9014 10.8783 16.5257C15.2444 16.7871 17.1391 17.8071 17.1391 18.2871C17.135 18.9086 14.2641 20.1043 8.99588 20.1043Z"/>
<path d="M11.7103 6.48857C11.7103 4.92857 10.4952 3.66429 8.99586 3.66429C7.49655 3.66429 6.28145 4.92857 6.28145 6.48857C6.28145 8.04857 7.49655 9.31286 8.99586 9.31286C10.4952 9.31286 11.7103 8.04857 11.7103 6.48857ZM7.1382 6.48857C7.1382 5.42143 7.97023 4.55572 8.99586 4.55572C10.0215 4.55572 10.8535 5.42143 10.8535 6.48857C10.8535 7.55572 10.0215 8.42143 8.99586 8.42143C7.97023 8.42143 7.1382 7.55572 7.1382 6.48857Z"/>
</mask>
<path d="M11.3808 15.6729C13.0819 12.7371 15.232 8.61 15.232 6.48857C15.232 2.91 12.4352 0 8.99588 0C5.55652 0 2.75973 2.91 2.75973 6.48857C2.75973 8.61 4.90984 12.7371 6.61098 15.6729C4.59268 15.8314 0 16.4014 0 18.2914C0 20.1514 4.6627 21 9 21C13.3332 21 18 20.1514 18 18.2914C17.9959 16.4014 13.3991 15.8314 11.3808 15.6729ZM3.6206 6.48857C3.6206 3.40286 6.03432 0.891429 8.99588 0.891429C11.9616 0.891429 14.3753 3.40286 14.3753 6.48857C14.3753 9.18429 10.2481 15.9471 8.99588 17.9357C7.74371 15.9471 3.6206 9.18429 3.6206 6.48857ZM8.99588 20.1043C3.72769 20.1043 0.856751 18.9043 0.856751 18.2871C0.856751 17.8114 2.75149 16.7871 7.11762 16.5257C7.9373 17.9014 8.55927 18.8743 8.64165 18.99C8.75286 19.1443 9.07826 19.3286 9.35423 18.99C9.44073 18.8829 10.0586 17.9014 10.8783 16.5257C15.2444 16.7871 17.1391 17.8071 17.1391 18.2871C17.135 18.9086 14.2641 20.1043 8.99588 20.1043Z" fill="#323232"/>
<path d="M11.7103 6.48857C11.7103 4.92857 10.4952 3.66429 8.99586 3.66429C7.49655 3.66429 6.28145 4.92857 6.28145 6.48857C6.28145 8.04857 7.49655 9.31286 8.99586 9.31286C10.4952 9.31286 11.7103 8.04857 11.7103 6.48857ZM7.1382 6.48857C7.1382 5.42143 7.97023 4.55572 8.99586 4.55572C10.0215 4.55572 10.8535 5.42143 10.8535 6.48857C10.8535 7.55572 10.0215 8.42143 8.99586 8.42143C7.97023 8.42143 7.1382 7.55572 7.1382 6.48857Z" fill="#323232"/>
<path d="M11.3808 15.6729L10.5155 15.1715L9.7194 16.5454L11.3025 16.6698L11.3808 15.6729ZM6.61098 15.6729L6.68931 16.6698L8.27236 16.5454L7.47622 15.1715L6.61098 15.6729ZM18 18.2914H19L19 18.2892L18 18.2914ZM8.99588 17.9357L8.14967 18.4686L8.99588 19.8124L9.84209 18.4686L8.99588 17.9357ZM7.11762 16.5257L7.97669 16.0139L7.66524 15.4911L7.05785 15.5275L7.11762 16.5257ZM8.64165 18.99L7.82699 19.57L7.83043 19.5747L8.64165 18.99ZM9.35423 18.99L10.1294 19.6218L10.1323 19.6182L9.35423 18.99ZM10.8783 16.5257L10.938 15.5275L10.3306 15.4911L10.0192 16.0139L10.8783 16.5257ZM17.1391 18.2871L18.1391 18.2938V18.2871H17.1391ZM12.246 16.1742C13.1043 14.6931 14.0859 12.8944 14.856 11.1864C15.6029 9.52964 16.232 7.78846 16.232 6.48857H14.232C14.232 7.31011 13.7861 8.69322 13.0327 10.3644C12.3024 11.9842 11.3584 13.7169 10.5155 15.1715L12.246 16.1742ZM16.232 6.48857C16.232 2.39548 13.0246 -1 8.99588 -1V1C11.8459 1 14.232 3.42452 14.232 6.48857H16.232ZM8.99588 -1C4.96721 -1 1.75973 2.39548 1.75973 6.48857H3.75973C3.75973 3.42452 6.14583 1 8.99588 1V-1ZM1.75973 6.48857C1.75973 7.78846 2.38887 9.52964 3.13579 11.1864C3.90586 12.8944 4.88749 14.6931 5.74575 16.1742L7.47622 15.1715C6.63333 13.7169 5.68933 11.9842 4.95906 10.3644C4.20564 8.69322 3.75973 7.31011 3.75973 6.48857H1.75973ZM6.53266 14.6759C5.50615 14.7566 3.77338 14.9446 2.2749 15.3711C1.53234 15.5824 0.772622 15.8724 0.177795 16.2865C-0.416611 16.7003 -1 17.3549 -1 18.2914H1C1 18.2829 0.990695 18.1575 1.32049 17.9279C1.64986 17.6986 2.16446 17.4819 2.82236 17.2947C4.12479 16.924 5.69752 16.7477 6.68931 16.6698L6.53266 14.6759ZM-1 18.2914C-1 19.2323 -0.398142 19.8992 0.236495 20.3279C0.876722 20.7605 1.71965 21.0761 2.62156 21.311C4.43994 21.7844 6.78159 22 9 22V20C6.88111 20 4.72276 19.7913 3.12547 19.3755C2.31954 19.1656 1.72571 18.9204 1.35614 18.6707C1.17547 18.5487 1.08184 18.4477 1.03738 18.3819C0.999538 18.3259 1 18.3014 1 18.2914H-1ZM9 22C11.2164 22 13.558 21.7844 15.3768 21.311C16.2789 21.0762 17.1222 20.7606 17.7627 20.3281C18.3974 19.8995 19 19.2327 19 18.2914H17C17 18.3012 17.0005 18.3256 16.9626 18.3816C16.9181 18.4475 16.8244 18.5484 16.6435 18.6706C16.2736 18.9203 15.6793 19.1656 14.8731 19.3755C13.2752 19.7913 11.1168 20 9 20V22ZM19 18.2892C18.998 17.353 18.4132 16.6992 17.8184 16.286C17.2228 15.8722 16.4624 15.5823 15.7192 15.371C14.2193 14.9446 12.4856 14.7566 11.4591 14.6759L11.3025 16.6698C12.2943 16.7477 13.8681 16.924 15.1723 17.2947C15.831 17.482 16.3467 17.6989 16.6773 17.9285C17.0086 18.1587 17 18.2849 17 18.2936L19 18.2892ZM4.62059 6.48857C4.62059 3.91687 6.62412 1.89143 8.99588 1.89143V-0.108571C5.44453 -0.108571 2.6206 2.88885 2.6206 6.48857H4.62059ZM8.99588 1.89143C11.3722 1.89143 13.3753 3.91737 13.3753 6.48857H15.3753C15.3753 2.88834 12.5509 -0.108571 8.99588 -0.108571V1.89143ZM13.3753 6.48857C13.3753 6.96384 13.1792 7.74388 12.779 8.77202C12.391 9.7686 11.8542 10.8929 11.2687 12.0145C10.0986 14.2558 8.77009 16.4176 8.14967 17.4029L9.84209 18.4686C10.4738 17.4653 11.835 15.2513 13.0416 12.9401C13.6444 11.7855 14.2177 10.5893 14.6427 9.49757C15.0555 8.43737 15.3753 7.36116 15.3753 6.48857H13.3753ZM9.84209 17.4029C9.22185 16.4179 7.89437 14.2561 6.72531 12.0149C6.14027 10.8932 5.60399 9.76892 5.21639 8.77232C4.81652 7.7442 4.62059 6.96403 4.62059 6.48857H2.6206C2.6206 7.36097 2.94005 8.43705 3.3524 9.49728C3.77702 10.589 4.34978 11.7852 4.95204 12.9398C6.15757 15.251 7.51774 17.465 8.14967 18.4686L9.84209 17.4029ZM8.99588 19.1043C6.43217 19.1043 4.48868 18.8117 3.21503 18.4627C2.57271 18.2867 2.13487 18.1055 1.88089 17.9615C1.75102 17.8879 1.70732 17.8453 1.70947 17.8475C1.71214 17.8502 1.74315 17.8822 1.77652 17.946C1.81072 18.0115 1.85675 18.1292 1.85675 18.2871H-0.143249C-0.143249 18.7467 0.11133 19.0718 0.271331 19.2373C0.451061 19.4233 0.672819 19.5757 0.89441 19.7013C1.34336 19.9559 1.95252 20.1905 2.68645 20.3916C4.16533 20.7969 6.2914 21.1043 8.99588 21.1043V19.1043ZM1.85675 18.2871C1.85675 18.5533 1.73234 18.7045 1.72191 18.7173C1.70066 18.7434 1.70832 18.7259 1.78294 18.6752C1.92935 18.5757 2.2126 18.4297 2.67312 18.2724C3.58481 17.961 5.05653 17.6509 7.17739 17.5239L7.05785 15.5275C4.81258 15.6619 3.15386 15.9947 2.02665 16.3798C1.46772 16.5707 1.0044 16.7862 0.659107 17.0208C0.487871 17.1371 0.313399 17.2797 0.171474 17.4539C0.0403704 17.6148 -0.143249 17.9021 -0.143249 18.2871H1.85675ZM6.25855 17.0376C7.07521 18.4082 7.71727 19.4158 7.82701 19.57L9.45629 18.41C9.45832 18.4129 9.44911 18.3997 9.42214 18.3586C9.39819 18.3221 9.36596 18.2724 9.32583 18.2098C9.2457 18.0849 9.1368 17.9129 9.00436 17.7008C8.73957 17.2767 8.38279 16.6954 7.97669 16.0139L6.25855 17.0376ZM7.83043 19.5747C8.01406 19.8295 8.33772 20.0842 8.76135 20.1594C9.27655 20.2509 9.78089 20.0493 10.1294 19.6218L8.57911 18.3582C8.60028 18.3322 8.66252 18.2686 8.77633 18.2238C8.8922 18.1783 9.01084 18.1724 9.11096 18.1902C9.204 18.2067 9.27196 18.2414 9.31631 18.271C9.3585 18.2992 9.40618 18.3405 9.45286 18.4053L7.83043 19.5747ZM10.1323 19.6182C10.1955 19.5399 10.2837 19.4041 10.354 19.2951C10.441 19.1603 10.5551 18.9795 10.6906 18.7615C10.962 18.3248 11.3247 17.7301 11.7373 17.0376L10.0192 16.0139C9.61216 16.697 9.25605 17.2809 8.99201 17.7056C8.85981 17.9183 8.75199 18.089 8.67313 18.2113C8.57764 18.3594 8.5562 18.3865 8.57615 18.3618L10.1323 19.6182ZM10.8185 17.5239C12.9398 17.6509 14.4116 17.96 15.3232 18.2709C15.7837 18.428 16.0665 18.5738 16.2125 18.6731C16.2868 18.7236 16.2942 18.7409 16.2728 18.7146C16.2615 18.7007 16.1391 18.5506 16.1391 18.2871H18.1391C18.1391 17.9037 17.9575 17.6167 17.8256 17.4542C17.6836 17.2791 17.5088 17.136 17.3372 17.0193C16.9915 16.7841 16.5277 16.5686 15.9688 16.378C14.8415 15.9935 13.1829 15.6619 10.938 15.5275L10.8185 17.5239ZM16.1392 18.2805C16.1402 18.1249 16.1859 18.0091 16.2197 17.9448C16.2526 17.882 16.2831 17.8507 16.2855 17.8483C16.2871 17.8466 16.2429 17.8895 16.1128 17.9632C15.8584 18.1074 15.4203 18.2884 14.7777 18.4642C13.5035 18.8127 11.5599 19.1043 8.99588 19.1043V21.1043C11.7001 21.1043 13.826 20.798 15.3054 20.3933C16.0396 20.1925 16.6492 19.9581 17.0989 19.7033C17.3209 19.5775 17.5428 19.425 17.7228 19.239C17.8836 19.0728 18.1361 18.7499 18.1391 18.2938L16.1392 18.2805ZM12.7103 6.48857C12.7103 4.41406 11.0845 2.66429 8.99586 2.66429V4.66429C9.90587 4.66429 10.7103 5.44309 10.7103 6.48857H12.7103ZM8.99586 2.66429C6.90724 2.66429 5.28145 4.41406 5.28145 6.48857H7.28145C7.28145 5.44309 8.08586 4.66429 8.99586 4.66429V2.66429ZM5.28145 6.48857C5.28145 8.56309 6.90724 10.3129 8.99586 10.3129V8.31286C8.08586 8.31286 7.28145 7.53406 7.28145 6.48857H5.28145ZM8.99586 10.3129C11.0845 10.3129 12.7103 8.56309 12.7103 6.48857H10.7103C10.7103 7.53406 9.90587 8.31286 8.99586 8.31286V10.3129ZM8.1382 6.48857C8.1382 5.93595 8.55954 5.55572 8.99586 5.55572V3.55572C7.38092 3.55572 6.1382 4.90691 6.1382 6.48857H8.1382ZM8.99586 5.55572C9.43218 5.55572 9.85353 5.93595 9.85353 6.48857H11.8535C11.8535 4.90691 10.6108 3.55572 8.99586 3.55572V5.55572ZM9.85353 6.48857C9.85353 7.0412 9.43218 7.42143 8.99586 7.42143V9.42143C10.6108 9.42143 11.8535 8.07023 11.8535 6.48857H9.85353ZM8.99586 7.42143C8.55954 7.42143 8.1382 7.0412 8.1382 6.48857H6.1382C6.1382 8.07023 7.38092 9.42143 8.99586 9.42143V7.42143Z" fill="#323232" mask="url(#path-1-inside-1_425_20102)"/>
</svg>
