<svg width="38" height="38" viewBox="0 0 38 38" fill="none" xmlns="http://www.w3.org/2000/svg">
<path d="M16.0833 27.75L30.7708 13.0625L28.1667 10.6667L16.0833 22.75L9.83333 16.5L7.22917 18.8958L16.0833 27.75ZM4.41667 37.75C3.27084 37.75 2.28959 37.3417 1.47292 36.525C0.656253 35.7083 0.248615 34.7278 0.250004 33.5833V4.41667C0.250004 3.27084 0.658337 2.28959 1.475 1.47292C2.29167 0.656253 3.27223 0.248615 4.41667 0.250004H33.5833C34.7292 0.250004 35.7104 0.658337 36.5271 1.475C37.3438 2.29167 37.7514 3.27223 37.75 4.41667V33.5833C37.75 34.7292 37.3417 35.7104 36.525 36.5271C35.7083 37.3438 34.7278 37.7514 33.5833 37.75H4.41667ZM3.58333 34.4167H34.4167V3.58333H3.58333V34.4167Z" fill="#323232"/>
</svg>
