<svg width="30" height="36" viewBox="0 0 30 36" fill="none" xmlns="http://www.w3.org/2000/svg">
<path d="M28.5305 24.2674C27.8961 22.3472 27.5719 20.3386 27.57 18.3169V13.3215C27.6162 10.1562 26.4832 7.08633 24.3902 4.70579C22.3044 2.32149 19.4095 0.78844 16.2601 0.400425C14.5198 0.22041 12.7493 0.400426 11.0691 0.967973C9.38895 1.50552 7.85923 2.40309 6.57026 3.60069C5.27486 4.76741 4.24236 6.19476 3.54092 7.78854C2.83599 9.38172 2.46805 11.1027 2.46009 12.844V18.3444C2.45641 20.3578 2.13222 22.3579 1.49962 24.2699L0 28.6928L1.2012 30.3379H9.99081C9.99081 31.653 10.53 32.9381 11.4603 33.8682C12.3882 34.7933 13.6797 35.3333 15.0013 35.3333C16.3203 35.3333 17.6093 34.7958 18.5397 33.8682C19.47 32.9406 20.0117 31.653 20.0117 30.3379H28.8013L30 28.6928L28.5305 24.2674ZM16.7692 32.1356C16.5385 32.3702 16.2635 32.557 15.9601 32.6853C15.6567 32.8136 15.3308 32.8809 15.0013 32.8831C14.6711 32.8809 14.3446 32.8134 14.0408 32.6847C13.7369 32.5559 13.4616 32.3685 13.2308 32.1331C12.995 31.9033 12.8071 31.6292 12.678 31.3267C12.5489 31.0242 12.4811 30.6992 12.4785 30.3704H17.4914C17.5019 30.6985 17.4432 31.025 17.3193 31.3291C17.1953 31.6331 17.0088 31.9079 16.7717 32.1356H16.7692ZM2.93906 27.8602L3.86943 25.075C4.59495 22.9052 4.96994 20.6341 4.98036 18.3469V12.844C4.98036 11.4363 5.28128 10.0612 5.85054 8.80363C6.41979 7.51852 7.22979 6.38093 8.28053 5.45335C9.33127 4.49827 10.5626 3.77821 11.8816 3.36067C13.2308 2.91064 14.6401 2.76062 16.0194 2.91064C18.5472 3.24203 20.8649 4.48768 22.532 6.41093C24.1996 8.33657 25.0961 10.8079 25.0497 13.3515V18.3769C25.0497 20.6496 25.4109 22.9223 26.1607 25.105L27.091 27.8877H2.94157V27.8577L2.93906 27.8602Z" fill="#323232"/>
</svg>
