<svg width="36" height="40" viewBox="0 0 36 40" fill="none" xmlns="http://www.w3.org/2000/svg">
<path d="M32.141 13.0463C30.5537 13.0463 29.2625 14.3413 29.2625 15.9332V17.8781C28.7214 17.5236 28.0778 17.3132 27.3843 17.3132H26.5229L28.5921 3.77607C28.71 3.00867 28.4883 2.23087 27.984 1.64142C27.48 1.05239 26.7471 0.714294 25.973 0.714294H9.90298C9.12893 0.714294 8.396 1.05239 7.89199 1.6415C7.38764 2.23096 7.1661 3.00876 7.28394 3.77582L9.35321 17.3132H8.49619C7.80106 17.3132 7.15581 17.5245 6.61367 17.8816V15.9332C6.61367 14.3413 5.32248 13.0463 3.7352 13.0463C2.14886 13.0463 0.857422 14.3413 0.857422 15.9332C0.857422 16.3672 1.20777 16.7191 1.64091 16.7191C2.07404 16.7191 2.42405 16.3672 2.42405 15.9332C2.42405 15.2077 3.01239 14.6176 3.73529 14.6176C4.45887 14.6176 5.04721 15.2077 5.04721 15.9332C5.04721 15.9332 5.05055 20.7876 5.05089 20.7937C5.05792 22.6943 6.60012 24.2389 8.49636 24.2389H14.3069L7.26877 34.6695C7.07568 34.6255 6.87686 34.5973 6.671 34.5973C5.18605 34.5973 3.97825 35.8092 3.97825 37.2987C3.97825 38.7877 5.18605 40 6.671 40C8.15561 40 9.36443 38.7877 9.36443 37.2987C9.36443 36.5849 9.08196 35.9398 8.62954 35.4564L16.198 24.2389H17.1569V34.7269C16.0545 35.0653 15.2446 36.0834 15.2446 37.2987C15.2446 38.7877 16.4531 40 17.938 40C19.423 40 20.6315 38.7877 20.6315 37.2987C20.6315 36.0851 19.8239 35.068 18.7235 34.7283V24.2389H19.6733L27.2485 35.4537C26.7951 35.9374 26.5116 36.5839 26.5116 37.2987C26.5116 38.7877 27.7204 40 29.205 40C30.6899 40 31.8977 38.7877 31.8977 37.2987C31.8977 35.8092 30.6899 34.5973 29.205 34.5973C29.0005 34.5973 28.8028 34.6248 28.6109 34.6685L21.5661 24.2389H27.3844C29.2854 24.2389 30.8321 22.6876 30.8321 20.7809L30.8291 15.9332C30.8291 15.2077 31.4175 14.6176 32.141 14.6176C32.8639 14.6176 33.4523 15.2077 33.4523 15.9332C33.4523 16.3672 33.8024 16.7191 34.2354 16.7191C34.6686 16.7191 35.0189 16.3672 35.0189 15.9332C35.0187 14.3414 33.7273 13.0463 32.141 13.0463ZM6.67109 38.4283C6.04992 38.4283 5.54496 37.9216 5.54496 37.2987C5.54496 36.6756 6.05 36.1687 6.67109 36.1687C7.29225 36.1687 7.79789 36.6755 7.79789 37.2987C7.79789 37.9216 7.29225 38.4283 6.67109 38.4283ZM19.0648 37.2987C19.0648 37.9216 18.5592 38.4283 17.938 38.4283C17.3169 38.4283 16.8112 37.9216 16.8112 37.2987C16.8112 36.6756 17.317 36.1687 17.938 36.1687C18.5592 36.1688 19.0648 36.6756 19.0648 37.2987ZM30.3311 37.2987C30.3311 37.9216 29.8261 38.4283 29.2049 38.4283C28.5837 38.4283 28.0781 37.9216 28.0781 37.2987C28.0781 36.6756 28.5837 36.1687 29.2049 36.1687C29.8261 36.1687 30.3311 36.6756 30.3311 37.2987ZM8.83206 3.53744C8.78321 3.2192 8.87191 2.90904 9.08068 2.66465C9.29022 2.42025 9.58169 2.28563 9.90298 2.28563H25.9731C26.2944 2.28563 26.5859 2.42025 26.7954 2.66465C27.0043 2.90904 27.093 3.2192 27.044 3.53778L24.9383 17.3132H10.9377L8.83206 3.53744ZM27.3843 22.6675H8.49602C7.45954 22.6675 6.61589 21.8209 6.61589 20.7716C6.61589 19.7309 7.45954 18.8846 8.49602 18.8846H27.3843C28.4114 18.8846 29.2458 19.7147 29.2625 20.741V20.7715C29.2625 20.7762 29.2648 20.7798 29.2652 20.7845C29.2628 21.823 28.4205 22.6675 27.3843 22.6675Z" fill="#323232"/>
</svg>
