<svg width="44" height="24" viewBox="0 0 44 24" fill="none" xmlns="http://www.w3.org/2000/svg">
<mask id="mask0_10510_36400" style="mask-type:alpha" maskUnits="userSpaceOnUse" x="0" y="1" width="24" height="22">
<rect x="0.571289" y="1.33469" width="22.619" height="20.979" fill="#C4C4C4"/>
</mask>
<g mask="url(#mask0_10510_36400)">
<path d="M43.4549 9.40437L39.8209 7.9409L36.6136 3.42788C35.6864 2.11975 34.055 1.32661 32.303 1.33475H18.6388C17.0537 1.33475 15.5518 1.98049 14.5877 3.09262L10.444 7.87543L3.5377 9.54343C1.78548 9.96857 0.571289 11.383 0.571289 12.9854V15.3156C0.571289 17.2859 2.35118 18.9129 4.58521 18.9129H5.17858C5.8923 21.3415 8.70125 22.7968 11.4544 22.1669C13.262 21.7501 14.6804 20.5075 15.144 18.9129H30.7177C31.4316 21.3415 34.2403 22.7968 36.9935 22.1669C38.8011 21.7501 40.2195 20.5075 40.6831 18.9129H41.7954C44.0296 18.9129 45.8093 17.2859 45.8093 15.3156V12.6584C45.8188 11.2604 44.8918 9.98484 43.4549 9.40437ZM10.1566 20.6628C8.33957 20.6628 6.86558 19.3626 6.86558 17.7603C6.86558 16.1577 8.33957 14.8577 10.1566 14.8577C11.9734 14.8577 13.4473 16.1577 13.4473 17.7603C13.4568 19.3547 11.9828 20.6545 10.1566 20.6628ZM35.6959 20.6628C33.8789 20.6628 32.4049 19.3626 32.4049 17.7603C32.4049 16.1577 33.8789 14.8577 35.6959 14.8577C37.5127 14.8577 38.9866 16.1577 38.9866 17.7603C38.9959 19.3547 37.5219 20.6545 35.6959 20.6628ZM41.7954 17.2778H40.8127C40.5067 14.7841 37.9576 12.9854 35.1302 13.2633C32.729 13.4924 30.838 15.1684 30.5784 17.2778H15.2733C14.9674 14.7841 12.4183 12.9854 9.59087 13.2633C7.18994 13.4924 5.29871 15.1684 5.03914 17.2778H4.57555C3.36114 17.2778 2.41574 16.3866 2.41574 15.3156V12.9854C2.40652 12.1105 3.06467 11.3503 4.01951 11.113L11.241 9.37144C11.4355 9.32244 11.6117 9.22424 11.7322 9.07704L16.0521 4.08156C16.6731 3.37849 17.6279 2.96963 18.6383 2.96963H32.3026C33.4148 2.96149 34.4626 3.46023 35.0465 4.29403L38.4023 9.01971C38.495 9.15858 38.6434 9.26492 38.8006 9.33038L42.6758 10.892C43.4545 11.2109 43.955 11.8977 43.9457 12.6581V15.3152H43.955C43.9554 16.3866 43.01 17.2778 41.7954 17.2778Z" fill="#323232"/>
</g>
<mask id="mask1_10510_36400" style="mask-type:alpha" maskUnits="userSpaceOnUse" x="24" y="2" width="20" height="22">
<rect x="24.3809" y="2.38364" width="19.0476" height="20.979" fill="#C4C4C4"/>
</mask>
<g mask="url(#mask1_10510_36400)">
<path d="M36.4843 5.53046C36.4843 4.97406 36.2418 4.44045 35.8101 4.04702C35.3785 3.65359 34.7931 3.43256 34.1827 3.43256H28.4287L36.4843 16.02" stroke="#323232" stroke-linecap="round" stroke-linejoin="round"/>
<path d="M36.4835 21.2647C39.6613 21.2647 42.2374 18.9166 42.2374 16.02C42.2374 13.1234 39.6613 10.7752 36.4835 10.7752C33.3056 10.7752 30.7295 13.1234 30.7295 16.02C30.7295 18.9166 33.3056 21.2647 36.4835 21.2647Z" stroke="#323232" stroke-linecap="round" stroke-linejoin="round"/>
<path d="M13.4678 3.43256H17.4955L25.5511 16.02" stroke="#323232" stroke-linecap="round" stroke-linejoin="round"/>
<path d="M31.0299 7.62836H20.1808L13.4678 16.02" stroke="#323232" stroke-linecap="round" stroke-linejoin="round"/>
</g>
<line x1="23.6904" y1="0.785706" x2="23.6904" y2="20.7647" stroke="#323232" stroke-linecap="round"/>
</svg>
