<svg width="37" height="36" viewBox="0 0 37 36" fill="none" xmlns="http://www.w3.org/2000/svg">
<path d="M32.3861 8.51317C34.6942 8.51317 36.5715 6.63589 36.5715 4.32801C36.5715 2.02014 34.6942 0.142853 32.3861 0.142853C30.0782 0.142853 28.2009 2.02038 28.2009 4.32801C28.2009 6.63589 30.0782 8.51317 32.3861 8.51317ZM32.3861 2.93304C33.1557 2.93304 33.7815 3.55888 33.7815 4.32801C33.7815 5.09715 33.1557 5.72323 32.3861 5.72323C31.6169 5.72323 30.9909 5.09738 30.9909 4.32801C30.9909 3.55864 31.6172 2.93304 32.3861 2.93304ZM5.04258 8.51317C7.35045 8.51317 9.22774 6.63589 9.22774 4.32801C9.22774 2.02014 7.35045 0.142853 5.04258 0.142853C2.73471 0.142853 0.857422 2.02038 0.857422 4.32801C0.857422 6.63589 2.73471 8.51317 5.04258 8.51317ZM5.04258 2.93304C5.81195 2.93304 6.4378 3.55888 6.4378 4.32801C6.4378 5.09715 5.81195 5.72323 5.04258 5.72323C4.27321 5.72323 3.64761 5.09738 3.64761 4.32801C3.64761 3.55864 4.27345 2.93304 5.04258 2.93304ZM32.408 9.83853C32.4016 9.83853 32.3942 9.83853 32.3877 9.83853C29.5 9.83853 28.4052 11.9411 27.715 13.9991C27.4807 14.6991 26.9712 16.2286 26.6369 17.2328H24.9925V14.0239C24.9925 11.7161 23.115 9.83877 20.8071 9.83877H16.622C14.3141 9.83877 12.4366 11.7161 12.4366 14.0239V17.2328H10.792C10.4577 16.2286 9.94848 14.6991 9.71387 13.9991C9.02366 11.9411 7.92933 9.83853 5.04139 9.83853C5.03471 9.83853 5.02756 9.83853 5.02065 9.83853C2.72518 9.8464 0.85766 11.7242 0.85766 14.0237V21.627C0.85766 23.4457 2.02399 24.9966 3.64785 25.5723V25.6031C3.68385 25.6031 3.71889 25.6057 3.75442 25.6083C3.90963 25.6587 4.06889 25.7006 4.23149 25.7326C4.70952 25.9536 5.04282 26.4371 5.04282 26.9981V35.8567H7.83301V26.9981C7.83301 26.5863 7.77221 26.1884 7.66087 25.8122H9.29784C10.067 25.8122 10.6928 26.438 10.6928 27.2074V35.8567H13.483V27.2074C13.483 24.8993 11.6055 23.022 9.29784 23.022H5.04282C5.00682 23.022 4.97177 23.0194 4.93625 23.0165C4.7808 22.9662 4.62178 22.9245 4.45918 22.8923C3.98091 22.6713 3.64785 22.1878 3.64785 21.627V14.0237C3.64785 13.2574 4.26821 12.6313 5.03066 12.6285C5.66103 12.6263 6.31024 12.6242 7.06817 14.8853C7.43056 15.9663 8.45217 19.0369 8.46242 19.0676L8.78 20.0223H28.6496L28.9672 19.0676C28.9774 19.0366 29.999 15.9663 30.3614 14.8853C31.1191 12.6242 31.7683 12.6271 32.3992 12.6285C33.1614 12.6313 33.782 13.2572 33.782 14.0237V21.627C33.782 22.1878 33.4487 22.6713 32.9704 22.8923C32.8078 22.9245 32.6486 22.9662 32.4936 23.0165C32.4581 23.0194 32.4228 23.022 32.3868 23.022H28.2016C25.8935 23.022 24.0165 24.8995 24.0165 27.2074V35.8567H26.8064V27.2074C26.8064 26.438 27.4323 25.8122 28.2016 25.8122H29.7687C29.6574 26.1882 29.5966 26.5863 29.5966 26.9981V35.8567H32.3866V26.9981C32.3866 26.4371 32.7199 25.9536 33.1979 25.7326C33.3607 25.7004 33.52 25.6584 33.6752 25.6083C33.7105 25.6055 33.7458 25.6031 33.7818 25.6031V25.5723C35.4054 24.9966 36.5717 23.4459 36.5717 21.627V14.0237C36.5715 11.7242 34.7037 9.84664 32.408 9.83853ZM15.2265 14.0239C15.2265 13.2548 15.8524 12.6287 16.6217 12.6287H20.8069C21.5763 12.6287 22.2019 13.2546 22.2019 14.0239V17.2328H15.2265V14.0239ZM18.7143 8.51317C21.0222 8.51317 22.8997 6.63589 22.8997 4.32801C22.8997 2.02014 21.0222 0.142853 18.7143 0.142853C16.4065 0.142853 14.5292 2.02038 14.5292 4.32801C14.5292 6.63589 16.4065 8.51317 18.7143 8.51317ZM18.7143 2.93304C19.4837 2.93304 20.1095 3.55888 20.1095 4.32801C20.1095 5.09715 19.4837 5.72323 18.7143 5.72323C17.945 5.72323 17.3194 5.09738 17.3194 4.32801C17.3194 3.55864 17.9452 2.93304 18.7143 2.93304Z" fill="#323232"/>
</svg>
