<svg width="25" height="28" viewBox="0 0 25 28" fill="none" xmlns="http://www.w3.org/2000/svg">
<path d="M22.3985 9.13237C21.2874 9.13237 20.3836 10.0389 20.3836 11.1532V12.5147C20.0048 12.2665 19.5542 12.1192 19.0688 12.1192H18.4658L19.9143 2.64325C19.9968 2.10607 19.8417 1.5616 19.4886 1.14899C19.1358 0.736667 18.6228 0.5 18.0809 0.5H6.83189C6.29005 0.5 5.77701 0.736667 5.4242 1.14905C5.07115 1.56166 4.91607 2.10613 4.99856 2.64306L6.44705 12.1193H5.84714C5.36055 12.1193 4.90887 12.2671 4.52937 12.5171V11.1532C4.52937 10.0389 3.62554 9.13237 2.51445 9.13237C1.40401 9.13237 0.5 10.0389 0.5 11.1532C0.5 11.457 0.745244 11.7033 1.04844 11.7033C1.35164 11.7033 1.59664 11.457 1.59664 11.1532C1.59664 10.6454 2.00848 10.2323 2.51451 10.2323C3.02101 10.2323 3.43285 10.6454 3.43285 11.1532C3.43285 11.1532 3.43519 14.5513 3.43543 14.5556C3.44035 15.886 4.51989 16.9672 5.84726 16.9672H9.9146L4.98794 24.2687C4.85278 24.2379 4.7136 24.2181 4.5695 24.2181C3.53004 24.2181 2.68458 25.0664 2.68458 26.1091C2.68458 27.1514 3.53004 28 4.5695 28C5.60873 28 6.45491 27.1514 6.45491 26.1091C6.45491 25.6094 6.25718 25.1578 5.94048 24.8195L11.2384 16.9672H11.9096V24.3088C11.1379 24.5457 10.571 25.2584 10.571 26.1091C10.571 27.1514 11.417 28 12.4564 28C13.4959 28 14.3418 27.1514 14.3418 26.1091C14.3418 25.2596 13.7765 24.5476 13.0063 24.3098V16.9672H13.6711L18.9738 24.8176C18.6563 25.1562 18.4579 25.6087 18.4579 26.1091C18.4579 27.1514 19.3041 28 20.3433 28C21.3827 28 22.2282 27.1514 22.2282 26.1091C22.2282 25.0664 21.3827 24.2181 20.3433 24.2181C20.2002 24.2181 20.0618 24.2374 19.9274 24.268L14.9961 16.9672H19.0689C20.3996 16.9672 21.4823 15.8813 21.4823 14.5466L21.4802 11.1532C21.4802 10.6454 21.892 10.2323 22.3985 10.2323C22.9046 10.2323 23.3164 10.6454 23.3164 11.1532C23.3164 11.457 23.5615 11.7033 23.8646 11.7033C24.1678 11.7033 24.413 11.457 24.413 11.1532C24.4129 10.039 23.5089 9.13237 22.3985 9.13237ZM4.56956 26.8998C4.13475 26.8998 3.78128 26.5452 3.78128 26.1091C3.78128 25.6729 4.13481 25.3181 4.56956 25.3181C5.00438 25.3181 5.35833 25.6729 5.35833 26.1091C5.35833 26.5452 5.00438 26.8998 4.56956 26.8998ZM13.2452 26.1091C13.2452 26.5452 12.8912 26.8998 12.4564 26.8998C12.0216 26.8998 11.6677 26.5452 11.6677 26.1091C11.6677 25.6729 12.0217 25.3181 12.4564 25.3181C12.8912 25.3181 13.2452 25.6729 13.2452 26.1091ZM21.1316 26.1091C21.1316 26.5452 20.7781 26.8998 20.3432 26.8998C19.9084 26.8998 19.5545 26.5452 19.5545 26.1091C19.5545 25.6729 19.9084 25.3181 20.3432 25.3181C20.7781 25.3181 21.1316 25.6729 21.1316 26.1091ZM6.08224 2.4762C6.04805 2.25343 6.11014 2.03632 6.25628 1.86525C6.40296 1.69417 6.60699 1.59993 6.83189 1.59993H18.081C18.3059 1.59993 18.5099 1.69417 18.6566 1.86525C18.8028 2.03632 18.8649 2.25343 18.8306 2.47644L17.3566 12.1193H7.55623L6.08224 2.4762ZM19.0688 15.8673H5.84702C5.12148 15.8673 4.53093 15.2747 4.53093 14.5401C4.53093 13.8116 5.12148 13.2192 5.84702 13.2192H19.0688C19.7878 13.2192 20.3719 13.8003 20.3836 14.5187V14.54C20.3836 14.5434 20.3852 14.5459 20.3854 14.5491C20.3838 15.2761 19.7941 15.8673 19.0688 15.8673Z" fill="#323232"/>
</svg>
