<svg width="34" height="34" viewBox="0 0 34 34" fill="none" xmlns="http://www.w3.org/2000/svg">
<circle cx="16.6667" cy="17.3327" r="5.16667" fill="white" stroke="#323232"/>
<path d="M33.0506 18.9351C32.7477 21.4471 31.858 23.8626 30.4423 25.9814C28.6658 28.64 26.141 30.7121 23.1869 31.9357C20.2328 33.1593 16.9822 33.4795 13.8462 32.8557C10.7102 32.2319 7.82956 30.6922 5.56861 28.4312C3.30766 26.1703 1.76794 23.2897 1.14414 20.1536C0.520347 17.0176 0.840501 13.767 2.06412 10.813C3.28773 7.85889 5.35986 5.334 8.01845 3.55758C10.1373 2.14184 12.5527 1.25217 15.0648 0.949263C15.8232 0.857812 16.5002 1.486 16.5002 2.33301V8.33301C16.5002 9.13854 15.8159 9.8643 14.8822 10.1531C14.225 10.3564 13.5969 10.6544 13.0186 11.0408C11.84 11.8283 10.9215 12.9476 10.379 14.2571C9.83661 15.5666 9.69468 17.0076 9.97121 18.3978C10.2477 19.788 10.9303 21.065 11.9326 22.0673C12.9348 23.0695 14.2118 23.7521 15.602 24.0286C16.9922 24.3052 18.4332 24.1632 19.7427 23.6208C21.0523 23.0784 22.1715 22.1598 22.959 20.9813C23.3454 20.403 23.6434 19.7749 23.8467 19.1176C24.1355 18.184 24.8613 17.4997 25.6668 17.4997H31.6668C32.5138 17.4997 33.142 18.1767 33.0506 18.9351Z" stroke="#323232"/>
</svg>
