<svg width="34" height="34" viewBox="0 0 34 34" fill="none" xmlns="http://www.w3.org/2000/svg">
<mask id="path-1-inside-1_9204_35441" fill="white">
<path fill-rule="evenodd" clip-rule="evenodd" d="M13.9168 5.33301C13.9168 2.57158 11.6783 0.333008 8.91683 0.333008H5.5835C2.82207 0.333008 0.583496 2.57158 0.583496 5.33301V25.333V28.6663C0.583496 28.8389 0.592241 29.0095 0.60931 29.1776C0.86536 31.6988 2.99466 33.6663 5.58349 33.6663H8.91683L28.9168 33.6663C31.6783 33.6663 33.9168 31.4278 33.9168 28.6663V25.333C33.9168 22.5716 31.6783 20.333 28.9168 20.333H13.9168L13.9168 5.33301Z"/>
</mask>
<path fill-rule="evenodd" clip-rule="evenodd" d="M13.9168 5.33301C13.9168 2.57158 11.6783 0.333008 8.91683 0.333008H5.5835C2.82207 0.333008 0.583496 2.57158 0.583496 5.33301V25.333V28.6663C0.583496 28.8389 0.592241 29.0095 0.60931 29.1776C0.86536 31.6988 2.99466 33.6663 5.58349 33.6663H8.91683L28.9168 33.6663C31.6783 33.6663 33.9168 31.4278 33.9168 28.6663V25.333C33.9168 22.5716 31.6783 20.333 28.9168 20.333H13.9168L13.9168 5.33301Z" fill="white"/>
<path d="M13.9168 5.33301H14.9168H13.9168ZM0.60931 29.1776L1.60419 29.0765H1.60419L0.60931 29.1776ZM8.91683 33.6663V32.6663V33.6663ZM28.9168 33.6663V34.6663V33.6663ZM13.9168 20.333H12.9168V21.333H13.9168V20.333ZM8.91683 1.33301C11.126 1.33301 12.9168 3.12387 12.9168 5.33301H14.9168C14.9168 2.0193 12.2305 -0.666992 8.91683 -0.666992V1.33301ZM5.5835 1.33301H8.91683V-0.666992H5.5835V1.33301ZM1.5835 5.33301C1.5835 3.12387 3.37436 1.33301 5.5835 1.33301V-0.666992C2.26979 -0.666992 -0.416504 2.0193 -0.416504 5.33301H1.5835ZM1.5835 25.333V5.33301H-0.416504V25.333H1.5835ZM1.5835 28.6663V25.333H-0.416504V28.6663H1.5835ZM1.60419 29.0765C1.59053 28.942 1.5835 28.8051 1.5835 28.6663H-0.416504C-0.416504 28.8727 -0.406046 29.077 -0.385572 29.2786L1.60419 29.0765ZM5.58349 32.6663C3.51304 32.6663 1.80892 31.0925 1.60419 29.0765L-0.385572 29.2786C-0.0782046 32.3052 2.47627 34.6663 5.58349 34.6663V32.6663ZM8.91683 32.6663H5.58349V34.6663H8.91683V32.6663ZM28.9168 32.6663L8.91683 32.6663V34.6663L28.9168 34.6663V32.6663ZM32.9168 28.6663C32.9168 30.8755 31.126 32.6663 28.9168 32.6663V34.6663C32.2305 34.6663 34.9168 31.9801 34.9168 28.6663H32.9168ZM32.9168 25.333V28.6663H34.9168V25.333H32.9168ZM28.9168 21.333C31.126 21.333 32.9168 23.1239 32.9168 25.333H34.9168C34.9168 22.0193 32.2305 19.333 28.9168 19.333V21.333ZM13.9168 21.333H28.9168V19.333H13.9168V21.333ZM12.9168 5.33301L12.9168 20.333H14.9168L14.9168 5.33301H12.9168Z" fill="#323232" mask="url(#path-1-inside-1_9204_35441)"/>
<circle cx="16.2502" cy="17.3327" r="5.16667" fill="white" stroke="#323232"/>
</svg>
