<svg width="34" height="24" viewBox="0 0 34 24" fill="none" xmlns="http://www.w3.org/2000/svg">
<circle cx="16.6667" cy="6.33366" r="5.16667" fill="white" stroke="#323232"/>
<path d="M31.9362 12.8537C31.1238 14.8151 29.9329 16.5973 28.4317 18.0986C26.9305 19.5998 25.1483 20.7906 23.1869 21.603C21.2254 22.4155 19.1232 22.8337 17.0002 22.8337C14.8771 22.8337 12.7749 22.4155 10.8134 21.603C8.85202 20.7906 7.06982 19.5998 5.5686 18.0986C4.06739 16.5973 2.87656 14.8151 2.06411 12.8537C1.49971 11.4911 1.12559 10.0606 0.949757 8.60236C0.858309 7.84395 1.48648 7.16699 2.3335 7.16699H8.3335C9.13903 7.16699 9.86479 7.85129 10.1536 8.7849C10.2189 8.99612 10.2941 9.20457 10.379 9.40956C10.7392 10.2791 11.2671 11.0691 11.9326 11.7346C12.5981 12.4001 13.3881 12.928 14.2576 13.2881C15.1271 13.6483 16.059 13.8337 17.0002 13.8337C17.9413 13.8337 18.8732 13.6483 19.7427 13.2881C20.6122 12.928 21.4023 12.4001 22.0678 11.7346C22.7332 11.0691 23.2611 10.2791 23.6213 9.40956C23.7062 9.20457 23.7814 8.99612 23.8467 8.7849C24.1355 7.85129 24.8613 7.16699 25.6668 7.16699H31.6668C32.5138 7.16699 33.142 7.84395 33.0506 8.60236C32.8747 10.0606 32.5006 11.4911 31.9362 12.8537Z" stroke="black"/>
</svg>
