<svg width="29" height="29" viewBox="0 0 29 29" fill="none" xmlns="http://www.w3.org/2000/svg">
<path d="M7.25 16.3125H17.4C17.8108 16.3125 18.1555 16.1385 18.4339 15.7905C18.7113 15.4437 18.85 15.0135 18.85 14.5C18.85 13.9865 18.7113 13.5557 18.4339 13.2077C18.1555 12.8609 17.8108 12.6875 17.4 12.6875H7.25C6.83917 12.6875 6.49455 12.8609 6.21615 13.2077C5.93872 13.5557 5.8 13.9865 5.8 14.5C5.8 15.0135 5.93872 15.4437 6.21615 15.7905C6.49455 16.1385 6.83917 16.3125 7.25 16.3125ZM7.25 10.875H17.4C17.8108 10.875 18.1555 10.701 18.4339 10.353C18.7113 10.0062 18.85 9.57604 18.85 9.0625C18.85 8.54896 18.7113 8.11819 18.4339 7.77019C18.1555 7.4234 17.8108 7.25 17.4 7.25H7.25C6.83917 7.25 6.49455 7.4234 6.21615 7.77019C5.93872 8.11819 5.8 8.54896 5.8 9.0625C5.8 9.57604 5.93872 10.0062 6.21615 10.353C6.49455 10.701 6.83917 10.875 7.25 10.875ZM2.9 29C2.1025 29 1.42003 28.6454 0.8526 27.9361C0.2842 27.2256 0 26.3719 0 25.375V3.625C0 2.62812 0.2842 1.77504 0.8526 1.06575C1.42003 0.35525 2.1025 0 2.9 0H26.1C26.8975 0 27.5805 0.35525 28.1489 1.06575C28.7163 1.77504 29 2.62812 29 3.625V25.375C29 26.3719 28.7163 27.2256 28.1489 27.9361C27.5805 28.6454 26.8975 29 26.1 29H2.9ZM2.9 26H26.1V3H2.9V26Z" fill="#323232"/>
</svg>