<svg width="25" height="25" viewBox="0 0 25 25" fill="none" xmlns="http://www.w3.org/2000/svg">
<path d="M7.25 12.25H17.75V12.75H7.25V12.25ZM24 22.5C24 23.3284 23.3284 24 22.5 24L2.5 24C1.67157 24 1 23.3284 1 22.5L1 18.75C1 17.9216 1.67157 17.25 2.5 17.25L22.5 17.25C23.3284 17.25 24 17.9216 24 18.75V22.5ZM24 6.25C24 7.07843 23.3284 7.75 22.5 7.75L2.5 7.75C1.67157 7.75 1 7.07842 1 6.25L1 2.5C1 1.67157 1.67157 1 2.5 1L22.5 1C23.3284 1 24 1.67157 24 2.5V6.25Z" stroke="black" stroke-width="2"/>
</svg>
