<svg width="25" height="25" viewBox="0 0 25 25" fill="none" xmlns="http://www.w3.org/2000/svg">
<path d="M12.75 7.25L12.75 17.75L12.25 17.75L12.25 7.25L12.75 7.25ZM2.5 24C1.67157 24 0.999999 23.3284 0.999999 22.5L1 2.5C1 1.67157 1.67157 0.999999 2.5 0.999999L6.25 1C7.07843 1 7.75 1.67157 7.75 2.5L7.75 22.5C7.75 23.3284 7.07843 24 6.25 24L2.5 24ZM18.75 24C17.9216 24 17.25 23.3284 17.25 22.5L17.25 2.5C17.25 1.67157 17.9216 1 18.75 1L22.5 1C23.3284 1 24 1.67157 24 2.5L24 22.5C24 23.3284 23.3284 24 22.5 24L18.75 24Z" stroke="black" stroke-width="2"/>
</svg>
