<svg width="25" height="25" viewBox="0 0 25 25" fill="none" xmlns="http://www.w3.org/2000/svg">
<path d="M11.1111 16.6667H16.6667V11.1111H19.4444V16.6667H25V19.4444H19.4444V25H16.6667V19.4444H11.1111V16.6667ZM8.33333 16.6667V19.4444H5.55556V16.6667H8.33333ZM2.77778 16.6667V19.4444H0V16.6667H2.77778ZM19.4444 5.55556V8.33333H16.6667V5.55556H19.4444ZM19.4444 0V2.77778H16.6667V0H19.4444ZM13.8889 0V2.77778H11.1111V0H13.8889ZM8.33333 0V2.77778H5.55556V0H8.33333ZM2.77778 0V2.77778H0V0H2.77778ZM2.77778 11.1111V13.8889H0V11.1111H2.77778ZM2.77778 5.55556V8.33333H0V5.55556H2.77778Z" fill="black"/>
</svg>
