<svg width="25" height="26" viewBox="0 0 25 26" fill="none" xmlns="http://www.w3.org/2000/svg">
<path d="M9.37494 21.5939H4.68744C4.48024 21.5939 4.28152 21.5116 4.13501 21.3651C3.9885 21.2185 3.90619 21.0198 3.90619 20.8126V16.4487C3.90619 16.3461 3.9264 16.2445 3.96566 16.1498C4.00492 16.055 4.06247 15.9688 4.13501 15.8963L15.8538 4.17755C16.0003 4.03104 16.199 3.94873 16.4062 3.94873C16.6134 3.94873 16.8121 4.03104 16.9586 4.17755L21.3225 8.54145C21.469 8.68796 21.5513 8.88668 21.5513 9.09388C21.5513 9.30108 21.469 9.49979 21.3225 9.6463L9.37494 21.5939Z" stroke="#323232" stroke-width="2" stroke-linecap="round" stroke-linejoin="round"/>
<path d="M13.2812 6.75L18.7499 12.2188" stroke="#323232" stroke-width="2" stroke-linecap="round" stroke-linejoin="round"/>
</svg>
