<svg width="25" height="25" viewBox="0 0 25 25" fill="none" xmlns="http://www.w3.org/2000/svg">
<path d="M18.2178 1.21913C19.5898 -0.153772 21.8164 -0.153772 23.1885 1.21913L23.7793 1.81093C25.1514 3.18397 25.1514 5.41005 23.7793 6.78212L14.1504 16.4159C13.7256 16.8358 13.2031 17.1434 12.627 17.3095L7.74414 18.7059C7.33398 18.8231 6.89453 18.7059 6.5918 18.3641C6.29395 18.1054 6.17676 17.6659 6.29394 17.2557L7.69043 12.3729C7.85645 11.7968 8.16406 11.2743 8.58398 10.8495L18.2178 1.21913ZM21.4893 2.87636C21.0742 2.41884 20.332 2.41884 19.873 2.87636L18.4521 4.29677L20.7031 6.54774L22.124 5.0829C22.583 4.66786 22.583 3.92567 22.124 3.46815L21.4893 2.87636ZM9.94629 13.0175L9.12598 15.8739L11.9824 15.0536C12.1777 14.9999 12.3486 14.8974 12.4902 14.7557L19.0479 8.20302L16.7969 5.95204L10.2441 12.5097C10.1025 12.6513 10 12.8222 9.94629 13.0175ZM9.76562 3.12489C10.415 3.12489 10.9375 3.64979 10.9375 4.29677C10.9375 4.94618 10.415 5.46864 9.76562 5.46864H4.29688C3.21826 5.46864 2.34375 6.34266 2.34375 7.42177V20.703C2.34375 21.7821 3.21826 22.6561 4.29688 22.6561H17.5781C18.6572 22.6561 19.5312 21.7821 19.5312 20.703V15.2343C19.5312 14.5849 20.0537 14.0624 20.7031 14.0624C21.3525 14.0624 21.875 14.5849 21.875 15.2343V20.703C21.875 23.0761 19.9512 24.9999 17.5781 24.9999H4.29688C1.92383 24.9999 0 23.0761 0 20.703V7.42177C0 5.04872 1.92383 3.12489 4.29688 3.12489H9.76562Z" fill="black"/>
</svg>
