<svg width="23" height="20" viewBox="0 0 23 20" fill="none" xmlns="http://www.w3.org/2000/svg">
<path d="M13.6375 0.824944C13.002 0.40949 12.2592 0.188232 11.5 0.188232C10.7408 0.188232 9.99798 0.40949 9.3625 0.824944L0.915623 6.34682C0.795463 6.42527 0.699235 6.53531 0.637495 6.66486C0.575754 6.7944 0.550888 6.93845 0.565623 7.08119C0.563396 7.10613 0.562354 7.13116 0.562498 7.15619V13.4062C0.562498 13.6134 0.644808 13.8121 0.791321 13.9586C0.937833 14.1051 1.13655 14.1874 1.34375 14.1874C1.55095 14.1874 1.74966 14.1051 1.89618 13.9586C2.04269 13.8121 2.125 13.6134 2.125 13.4062V8.47494L3.6875 9.53276V15.2828C3.68748 15.469 3.75398 15.6491 3.875 15.7906L3.87812 15.7953L3.8875 15.8062L3.91875 15.8406L4.025 15.9562C4.11719 16.0531 4.25 16.1874 4.42187 16.3468C4.76562 16.664 5.27031 17.0828 5.92031 17.5031C7.21719 18.339 9.12187 19.1906 11.5 19.1906C13.8781 19.1906 15.7812 18.339 17.0797 17.5031C17.7297 17.0828 18.2344 16.664 18.5781 16.3468C18.7528 16.1852 18.9207 16.0163 19.0812 15.8406L19.1125 15.8062L19.1219 15.7953L19.125 15.7921L19.1266 15.789C19.2463 15.6481 19.3122 15.4693 19.3125 15.2843V9.53119L22.0937 7.64838C22.2059 7.58207 22.2975 7.48588 22.3582 7.37055C22.4189 7.25522 22.4464 7.12528 22.4375 6.99526C22.4365 6.86629 22.4036 6.73959 22.3417 6.62644C22.2798 6.5133 22.1909 6.41723 22.0828 6.34682L13.6375 0.824944ZM17.75 10.5874V14.9734C17.2871 15.4293 16.7787 15.8367 16.2328 16.189C15.1078 16.9124 13.4969 17.6265 11.5 17.6265C9.50312 17.6265 7.89062 16.9124 6.76719 16.189C6.22121 15.8362 5.71282 15.4283 5.25 14.9718V10.589L9.31094 13.3374C9.95722 13.7747 10.7197 14.0085 11.5 14.0085C12.2803 14.0085 13.0428 13.7747 13.6891 13.3374L17.75 10.5874ZM4.46875 15.2828L3.875 15.789L4.46875 15.2812V15.2828ZM10.2172 2.13276C10.5985 1.88335 11.0443 1.75053 11.5 1.75053C11.9557 1.75053 12.4015 1.88335 12.7828 2.13276L20.2453 6.99994L12.8141 12.0437C12.4262 12.3063 11.9685 12.4467 11.5 12.4467C11.0315 12.4467 10.5738 12.3063 10.1859 12.0437L2.75312 7.01244L10.2172 2.13276Z" fill="#E9994A"/>
</svg>
