<svg width="21" height="21" viewBox="0 0 21 21" fill="none" xmlns="http://www.w3.org/2000/svg">
<path fill-rule="evenodd" clip-rule="evenodd" d="M5.71304 16.08C9.27815 15.5592 11.7328 15.604 15.3026 16.0983C15.5611 16.1357 15.7974 16.2655 15.9677 16.4636C16.138 16.6617 16.2309 16.9147 16.2292 17.1759C16.2292 17.4259 16.1432 17.6686 15.988 17.8582C15.7175 18.1887 15.4404 18.5138 15.1568 18.8332H16.5323C16.6188 18.73 16.7058 18.6248 16.7938 18.5181C17.1027 18.1392 17.2712 17.6652 17.2709 17.1764C17.2709 16.1217 16.5011 15.2129 15.4453 15.067C11.7912 14.5613 9.237 14.5129 5.56252 15.0498C4.49585 15.2056 3.72919 16.1285 3.72919 17.1905C3.72919 17.6618 3.88283 18.128 4.17398 18.5056C4.25992 18.617 4.34481 18.7264 4.42919 18.8337H5.77137C5.50753 18.5178 5.25019 18.1966 4.9995 17.8702C4.85052 17.6747 4.77015 17.4357 4.77085 17.1899C4.77085 16.629 5.17398 16.1587 5.71304 16.08ZM10.5 11.0207C10.9104 11.0207 11.3168 10.9398 11.6959 10.7828C12.075 10.6257 12.4195 10.3956 12.7097 10.1054C12.9999 9.8152 13.2301 9.4707 13.3871 9.09156C13.5442 8.71241 13.625 8.30605 13.625 7.89567C13.625 7.48529 13.5442 7.07893 13.3871 6.69978C13.2301 6.32064 12.9999 5.97615 12.7097 5.68596C12.4195 5.39578 12.075 5.16559 11.6959 5.00855C11.3168 4.8515 10.9104 4.77067 10.5 4.77067C9.67122 4.77067 8.87636 5.09991 8.29031 5.68596C7.70426 6.27201 7.37502 7.06687 7.37502 7.89567C7.37502 8.72447 7.70426 9.51933 8.29031 10.1054C8.87636 10.6914 9.67122 11.0207 10.5 11.0207ZM10.5 12.0623C11.6051 12.0623 12.6649 11.6234 13.4463 10.8419C14.2277 10.0605 14.6667 9.00074 14.6667 7.89567C14.6667 6.7906 14.2277 5.73079 13.4463 4.94939C12.6649 4.16799 11.6051 3.729 10.5 3.729C9.39495 3.729 8.33514 4.16799 7.55374 4.94939C6.77234 5.73079 6.33335 6.7906 6.33335 7.89567C6.33335 9.00074 6.77234 10.0605 7.55374 10.8419C8.33514 11.6234 9.39495 12.0623 10.5 12.0623Z" fill="#E9994A"/>
<path fill-rule="evenodd" clip-rule="evenodd" d="M10.5 19.8749C15.6776 19.8749 19.875 15.6775 19.875 10.4999C19.875 5.32231 15.6776 1.12492 10.5 1.12492C5.32241 1.12492 1.12501 5.32231 1.12501 10.4999C1.12501 15.6775 5.32241 19.8749 10.5 19.8749ZM10.5 20.9166C16.2531 20.9166 20.9167 16.253 20.9167 10.4999C20.9167 4.74679 16.2531 0.083252 10.5 0.083252C4.74689 0.083252 0.0833435 4.74679 0.0833435 10.4999C0.0833435 16.253 4.74689 20.9166 10.5 20.9166Z" fill="#E9994A"/>
</svg>
