<svg width="25" height="22" viewBox="0 0 25 22" fill="none" xmlns="http://www.w3.org/2000/svg">
<path d="M0.863432 13.1011H2.89974V21.1388C2.89974 21.6126 3.29258 22 3.77248 22H9.73609C10.216 22 10.6088 21.6126 10.6088 21.1388V15.2539H14.2451V21.1388C14.2451 21.6126 14.6379 22 15.1178 22H20.7904C21.2703 22 21.6631 21.6126 21.6631 21.1388V13.1011H24.1358C24.4849 13.1011 24.8049 12.8857 24.936 12.57C25.0668 12.2542 24.994 11.8811 24.7469 11.637L13.3725 0.2549C13.038 -0.0752664 12.4853 -0.0895839 12.1507 0.240582L0.267241 11.6227C0.00542106 11.8667 -0.0673423 12.2401 0.0636729 12.57C0.194268 12.9 0.514339 13.1011 0.863432 13.1011ZM12.7322 2.07777L22.0412 11.3787H20.7904C20.3105 11.3787 19.9178 11.7663 19.9178 12.2399V20.2776H15.9905V14.3927C15.9905 13.9191 15.5979 13.5315 15.1178 13.5315H9.73609C9.25619 13.5315 8.86335 13.9191 8.86335 14.3927V20.2776H4.64521V12.2399C4.64521 11.7661 4.25238 11.3787 3.77248 11.3787H3.01604L12.7322 2.07777Z" fill="#E9994A"/>
</svg>
