<svg width="25" height="19" viewBox="0 0 25 19" fill="none" xmlns="http://www.w3.org/2000/svg">
<path d="M12.4799 5.75C11.4927 5.75655 10.5477 6.15374 9.84965 6.85559C9.15158 7.55744 8.75652 8.50746 8.75 9.5C8.75 11.5525 10.4384 13.25 12.4799 13.25C14.5201 13.25 16.2097 11.5525 16.2097 9.5C16.2097 7.44875 14.5201 5.75 12.4799 5.75Z" fill="#323232"/>
<path d="M12.5 0.75C3.01 0.75 0.157897 9.02125 0.131788 9.105L0 9.5L0.130545 9.895C0.157898 9.97875 3.01 18.25 12.5 18.25C21.99 18.25 24.8421 9.97875 24.8682 9.895L25 9.5L24.8695 9.105C24.8421 9.02125 21.99 0.75 12.5 0.75ZM12.5 15.75C5.84717 15.75 3.26984 10.9425 2.64571 9.5C3.27233 8.0525 5.8509 3.25 12.5 3.25C19.1528 3.25 21.7302 8.0575 22.3543 9.5C21.7277 10.9475 19.1491 15.75 12.5 15.75V15.75Z" fill="#323232"/>
</svg>
