<svg width="25" height="25" viewBox="0 0 25 25" fill="none" xmlns="http://www.w3.org/2000/svg">
<path d="M12.4997 21.2492C13.6822 21.2492 14.7621 21.1204 15.7471 20.898L13.5509 18.7018C13.2097 18.728 12.8634 18.7493 12.4997 18.7493C5.81119 18.7493 3.22004 13.942 2.59256 12.4995C3.06373 11.4481 3.70008 10.4788 4.47749 9.62837L2.73006 7.88094C0.807627 9.96461 0.0789039 12.0633 0.0651544 12.1045C-0.0210671 12.3612 -0.0210671 12.6391 0.0651544 12.8958C0.0914034 12.9782 2.9588 21.2492 12.4997 21.2492ZM12.4997 3.74984C10.2035 3.74984 8.31735 4.24482 6.74491 4.97604L2.13383 0.366211L0.366393 2.13365L22.8656 24.6328L24.633 22.8654L20.4844 18.7168C23.7518 16.2781 24.918 12.9482 24.9355 12.8958C25.0217 12.6391 25.0217 12.3612 24.9355 12.1045C24.908 12.0208 22.0406 3.74984 12.4997 3.74984ZM18.7145 16.9469L15.8646 14.097C16.1021 13.6095 16.2496 13.0732 16.2496 12.4995C16.2496 10.4483 14.5509 8.74965 12.4997 8.74965C11.926 8.74965 11.3897 8.89715 10.9035 9.13589L8.64359 6.87597C9.88419 6.45025 11.1881 6.23849 12.4997 6.24974C19.1882 6.24974 21.7794 11.0571 22.4068 12.4995C22.0293 13.3645 20.9494 15.4269 18.7145 16.9469Z" fill="#323232"/>
</svg>
