<svg width="24" height="20" viewBox="0 0 24 20" fill="none" xmlns="http://www.w3.org/2000/svg">
<path d="M8.20872 11.75C9.06196 11.7499 9.89032 12.0374 10.5599 12.5663C11.2295 13.0951 11.7013 13.8343 11.8989 14.6643L22.7921 14.6666C23.0137 14.6667 23.2271 14.7509 23.3891 14.9023C23.5511 15.0536 23.6496 15.2608 23.6647 15.482C23.6799 15.7032 23.6105 15.9218 23.4705 16.0938C23.3306 16.2658 23.1307 16.3782 22.9111 16.4085L22.7921 16.4166H11.8989C11.7016 17.247 11.2301 17.9866 10.5604 18.5159C9.8908 19.0451 9.06223 19.333 8.20872 19.333C7.3552 19.333 6.52664 19.0451 5.857 18.5159C5.18736 17.9866 4.71579 17.247 4.51855 16.4166H1.20872C0.987024 16.4166 0.77362 16.3323 0.611627 16.181C0.449635 16.0296 0.351131 15.8224 0.336021 15.6013C0.32091 15.3801 0.390319 15.1614 0.530222 14.9894C0.670126 14.8175 0.870093 14.705 1.08972 14.6748L1.20872 14.6666H4.51855C4.71573 13.8362 5.18727 13.0965 5.85691 12.5672C6.52656 12.0379 7.35516 11.75 8.20872 11.75ZM8.20872 13.5C7.78535 13.4999 7.37243 13.6315 7.02713 13.8764C6.68182 14.1214 6.42122 14.4677 6.28138 14.8673L6.25688 14.9408L6.21138 15.1135C6.14446 15.4278 6.15246 15.7536 6.23472 16.0643L6.28138 16.216L6.31055 16.2965C6.46388 16.6838 6.73205 17.0151 7.07907 17.2456C7.42608 17.4762 7.83533 17.595 8.25187 17.5863C8.6684 17.5775 9.07228 17.4415 9.4093 17.1966C9.74631 16.9516 10.0003 16.6094 10.1372 16.216L10.1839 16.0643L10.1629 16.1343C10.2563 15.8262 10.2754 15.5004 10.2189 15.1835L10.1839 15.0236L10.1606 14.942L10.1057 14.7856C9.95444 14.4061 9.6928 14.0807 9.35461 13.8515C9.01642 13.6223 8.61726 13.4999 8.20872 13.5ZM15.7921 0.666626C16.6456 0.666644 17.4742 0.954574 18.1439 1.48385C18.8135 2.01314 19.285 2.75282 19.4822 3.58329H22.7921C23.0137 3.58336 23.2271 3.66758 23.3891 3.81893C23.5511 3.97028 23.6496 4.17747 23.6647 4.39865C23.6799 4.61983 23.6105 4.8385 23.4705 5.01047C23.3306 5.18245 23.1307 5.29491 22.9111 5.32513L22.7921 5.33329H19.4822C19.285 6.1637 18.8134 6.90331 18.1438 7.43253C17.4741 7.96174 16.6456 8.24962 15.7921 8.24962C14.9385 8.24962 14.11 7.96174 13.4403 7.43253C12.7707 6.90331 12.2991 6.1637 12.1019 5.33329H1.20872C0.987024 5.33322 0.77362 5.24901 0.611627 5.09766C0.449635 4.94631 0.351131 4.73911 0.336021 4.51793C0.32091 4.29675 0.390319 4.07808 0.530222 3.90611C0.670126 3.73414 0.870093 3.62168 1.08972 3.59146L1.20872 3.58329L12.1019 3.58096C12.2995 2.75092 12.7712 2.01176 13.4408 1.48294C14.1105 0.954115 14.9388 0.666519 15.7921 0.666626ZM15.7921 2.41663C15.3685 2.41666 14.9555 2.5484 14.6102 2.79359C14.2649 3.03878 14.0044 3.38529 13.8647 3.78513L13.8402 3.85746L13.7959 4.03013C13.7286 4.34442 13.7362 4.67014 13.8181 4.98096L13.8647 5.13263L13.8939 5.21313C14.0471 5.60055 14.3152 5.93183 14.6621 6.16249C15.0091 6.39315 15.4183 6.51215 15.8348 6.50351C16.2513 6.49488 16.6552 6.35902 16.9923 6.11418C17.3294 5.86934 17.5835 5.52723 17.7206 5.13379L17.7672 4.98096L17.7462 5.05096C17.8396 4.74286 17.8588 4.41705 17.8022 4.10013L17.7672 3.94029L17.7439 3.85863L17.6891 3.70229C17.5378 3.3228 17.2761 2.99741 16.9379 2.76821C16.5998 2.53901 16.2006 2.41653 15.7921 2.41663Z" fill="#0F62AB"/>
</svg>
