<svg width="24" height="19" viewBox="0 0 24 19" fill="none" xmlns="http://www.w3.org/2000/svg">
<path d="M8.20823 11.2501C9.06147 11.25 9.88983 11.5376 10.5594 12.0664C11.229 12.5952 11.7008 13.3344 11.8984 14.1644L22.7916 14.1667C23.0133 14.1668 23.2267 14.251 23.3887 14.4024C23.5506 14.5537 23.6492 14.7609 23.6643 14.9821C23.6794 15.2033 23.61 15.422 23.4701 15.5939C23.3302 15.7659 23.1302 15.8784 22.9106 15.9086L22.7916 15.9167H11.8984C11.7012 16.7472 11.2296 17.4868 10.5599 18.016C9.89031 18.5452 9.06174 18.8331 8.20823 18.8331C7.35472 18.8331 6.52615 18.5452 5.85651 18.016C5.18687 17.4868 4.7153 16.7472 4.51806 15.9167H1.20823C0.986535 15.9167 0.773132 15.8325 0.611139 15.6811C0.449146 15.5298 0.350643 15.3226 0.335532 15.1014C0.320422 14.8802 0.38983 14.6615 0.529734 14.4896C0.669637 14.3176 0.869604 14.2051 1.08923 14.1749L1.20823 14.1667H4.51806C4.71524 13.3363 5.18678 12.5966 5.85642 12.0673C6.52607 11.538 7.35467 11.2501 8.20823 11.2501ZM8.20823 13.0001C7.78486 13 7.37194 13.1316 7.02664 13.3766C6.68134 13.6215 6.42073 13.9678 6.2809 14.3674L6.2564 14.4409L6.2109 14.6136C6.14397 14.928 6.15197 15.2537 6.23423 15.5644L6.2809 15.7161L6.31006 15.7966C6.46339 16.184 6.73157 16.5152 7.07858 16.7457C7.4256 16.9763 7.83484 17.0952 8.25138 17.0864C8.66791 17.0776 9.0718 16.9417 9.40881 16.6967C9.74582 16.4518 9.99983 16.1096 10.1367 15.7161L10.1834 15.5644L10.1624 15.6344C10.2558 15.3263 10.275 15.0005 10.2184 14.6836L10.1834 14.5237L10.1601 14.4421L10.1052 14.2857C9.95395 13.9062 9.69231 13.5809 9.35412 13.3517C9.01594 13.1225 8.61677 13 8.20823 13.0001ZM15.7916 0.166748C16.6451 0.166766 17.4737 0.454696 18.1434 0.983977C18.813 1.51326 19.2846 2.25294 19.4817 3.08341H22.7916C23.0133 3.08348 23.2267 3.1677 23.3887 3.31905C23.5506 3.4704 23.6492 3.6776 23.6643 3.89877C23.6794 4.11995 23.61 4.33862 23.4701 4.5106C23.3302 4.68257 23.1302 4.79503 22.9106 4.82525L22.7916 4.83341H19.4817C19.2845 5.66383 18.8129 6.40343 18.1433 6.93265C17.4736 7.46186 16.6451 7.74975 15.7916 7.74975C14.938 7.74975 14.1095 7.46186 13.4398 6.93265C12.7702 6.40343 12.2986 5.66383 12.1014 4.83341H1.20823C0.986535 4.83335 0.773132 4.74913 0.611139 4.59778C0.449146 4.44643 0.350643 4.23923 0.335532 4.01805C0.320422 3.79688 0.38983 3.57821 0.529734 3.40623C0.669637 3.23426 0.869604 3.1218 1.08923 3.09158L1.20823 3.08341L12.1014 3.08108C12.299 2.25104 12.7708 1.51189 13.4404 0.983061C14.11 0.454237 14.9383 0.166641 15.7916 0.166748ZM15.7916 1.91675C15.368 1.91678 14.955 2.04852 14.6097 2.29371C14.2644 2.53891 14.0039 2.88542 13.8642 3.28525L13.8397 3.35758L13.7954 3.53025C13.7281 3.84455 13.7357 4.17026 13.8176 4.48108L13.8642 4.63275L13.8934 4.71325C14.0466 5.10067 14.3147 5.43195 14.6616 5.66261C15.0086 5.89327 15.4178 6.01227 15.8343 6.00364C16.2508 5.995 16.6548 5.85914 16.9918 5.6143C17.3289 5.36946 17.583 5.02736 17.7201 4.63391L17.7667 4.48108L17.7457 4.55108C17.8391 4.24298 17.8583 3.91717 17.8017 3.60025L17.7667 3.44041L17.7434 3.35875L17.6886 3.20241C17.5373 2.82292 17.2756 2.49753 16.9375 2.26833C16.5993 2.03913 16.2001 1.91666 15.7916 1.91675Z" fill="#323232"/>
</svg>
