<svg width="14" height="19" viewBox="0 0 14 19" fill="none" xmlns="http://www.w3.org/2000/svg">
<path d="M13.291 8.66404C12.9118 7.81063 12.3606 7.04466 11.6719 6.41404L11.1035 5.89255C11.0842 5.87533 11.061 5.86311 11.0359 5.85697C11.0107 5.85082 10.9845 5.85093 10.9594 5.85729C10.9344 5.86366 10.9112 5.87608 10.8921 5.89346C10.8729 5.91085 10.8584 5.93267 10.8496 5.95701L10.5957 6.68552C10.4375 7.14255 10.1465 7.60935 9.73438 8.06834C9.70703 8.09763 9.67578 8.10545 9.6543 8.1074C9.63281 8.10935 9.59961 8.10545 9.57031 8.0781C9.54297 8.05466 9.5293 8.01951 9.53125 7.98435C9.60352 6.80857 9.25195 5.4824 8.48242 4.03904C7.8457 2.83982 6.96094 1.90427 5.85547 1.25193L5.04883 0.777321C4.94336 0.714821 4.80859 0.796852 4.81445 0.919899L4.85742 1.8574C4.88672 2.49802 4.8125 3.06443 4.63672 3.53513C4.42188 4.1113 4.11328 4.64646 3.71875 5.12693C3.44419 5.46084 3.13299 5.76287 2.79102 6.02732C1.96739 6.66046 1.29768 7.47172 0.832031 8.40037C0.367527 9.33711 0.125567 10.3685 0.125 11.414C0.125 12.3359 0.306641 13.2285 0.666016 14.0703C1.01302 14.8808 1.51379 15.6163 2.14063 16.2363C2.77344 16.8613 3.50781 17.3535 4.32617 17.6953C5.17383 18.0508 6.07227 18.2304 7 18.2304C7.92773 18.2304 8.82617 18.0508 9.67383 17.6972C10.4902 17.3574 11.2325 16.8619 11.8594 16.2383C12.4922 15.6133 12.9883 14.8828 13.334 14.0722C13.6928 13.2327 13.8769 12.329 13.875 11.416C13.875 10.4629 13.6797 9.53709 13.291 8.66404ZM10.9258 15.291C9.87695 16.3301 8.48438 16.9004 7 16.9004C5.51562 16.9004 4.12305 16.3301 3.07422 15.291C2.0293 14.2539 1.45312 12.8789 1.45312 11.416C1.45312 10.5664 1.64453 9.75193 2.02148 8.99412C2.38867 8.25388 2.93555 7.59177 3.59961 7.08201C4.02312 6.75817 4.40725 6.38584 4.74414 5.97263C5.23242 5.37693 5.61523 4.71287 5.88086 3.99998C5.98982 3.70591 6.06899 3.40165 6.11719 3.09177C6.58789 3.52537 6.98242 4.0488 7.3125 4.66209C7.96484 5.88474 8.26562 6.97263 8.20703 7.89841C8.19303 8.11645 8.22864 8.33483 8.31119 8.53713C8.39373 8.73942 8.52105 8.92038 8.68359 9.06638C8.82445 9.19362 8.98919 9.2916 9.16823 9.35464C9.34728 9.41767 9.53706 9.4445 9.72656 9.43357C10.1113 9.41404 10.4648 9.24412 10.7227 8.95701C10.9824 8.66599 11.207 8.36912 11.3945 8.06638C11.668 8.41599 11.8965 8.79685 12.0781 9.20701C12.3887 9.90623 12.5469 10.6504 12.5469 11.416C12.5469 12.8789 11.9707 14.2558 10.9258 15.291Z" fill="black"/>
</svg>
