<svg width="19" height="23" viewBox="0 0 19 23" fill="none" xmlns="http://www.w3.org/2000/svg">
<path d="M17.3638 10.4551C16.8898 9.38829 16.2008 8.43082 15.3398 7.64255L14.6294 6.99069C14.6053 6.96917 14.5762 6.95389 14.5448 6.94621C14.5134 6.93852 14.4806 6.93866 14.4493 6.94662C14.418 6.95457 14.389 6.9701 14.3651 6.99183C14.3412 7.01356 14.3229 7.04084 14.312 7.07126L13.9946 7.98191C13.7969 8.55319 13.4331 9.13669 12.918 9.71042C12.8838 9.74704 12.8447 9.75681 12.8179 9.75925C12.791 9.76169 12.7495 9.75681 12.7129 9.72263C12.6787 9.69333 12.6616 9.64939 12.6641 9.60544C12.7544 8.13571 12.3149 6.478 11.353 4.6738C10.5571 3.17478 9.45117 2.00534 8.06934 1.18991L7.06103 0.596651C6.9292 0.518526 6.76074 0.621065 6.76807 0.774873L6.82178 1.94675C6.8584 2.74753 6.76562 3.45554 6.5459 4.04392C6.27734 4.76413 5.8916 5.43308 5.39844 6.03366C5.05523 6.45105 4.66624 6.82858 4.23877 7.15915C3.20924 7.95057 2.3721 8.96465 1.79004 10.1255C1.20941 11.2964 0.906958 12.5856 0.90625 13.8925C0.90625 15.0449 1.1333 16.1606 1.58252 17.2129C2.01628 18.226 2.64223 19.1454 3.42578 19.9204C4.2168 20.7016 5.13477 21.3169 6.15771 21.7441C7.21728 22.1884 8.34033 22.4131 9.5 22.4131C10.6597 22.4131 11.7827 22.1884 12.8423 21.7466C13.8627 21.3218 14.7906 20.7024 15.5742 19.9228C16.3652 19.1416 16.9853 18.2285 17.4175 17.2153C17.866 16.1659 18.0961 15.0362 18.0937 13.895C18.0937 12.7036 17.8496 11.5464 17.3638 10.4551ZM14.4072 18.7387C13.0962 20.0376 11.3555 20.7505 9.5 20.7505C7.64453 20.7505 5.90381 20.0376 4.59277 18.7387C3.28662 17.4424 2.56641 15.7236 2.56641 13.895C2.56641 12.833 2.80566 11.8149 3.27686 10.8676C3.73584 9.94236 4.41943 9.11472 5.24951 8.47751C5.7789 8.07271 6.25906 7.6073 6.68018 7.09079C7.29053 6.34616 7.76904 5.51608 8.10107 4.62497C8.23727 4.25739 8.33624 3.87706 8.39648 3.48972C8.98486 4.03171 9.47803 4.68601 9.89062 5.45261C10.7061 6.98093 11.082 8.34079 11.0088 9.49802C10.9913 9.77057 11.0358 10.0435 11.139 10.2964C11.2422 10.5493 11.4013 10.7755 11.6045 10.958C11.7806 11.117 11.9865 11.2395 12.2103 11.3183C12.4341 11.3971 12.6713 11.4306 12.9082 11.417C13.3892 11.3926 13.8311 11.1801 14.1533 10.8213C14.478 10.4575 14.7588 10.0864 14.9932 9.70798C15.335 10.145 15.6206 10.6211 15.8477 11.1338C16.2358 12.0078 16.4336 12.938 16.4336 13.895C16.4336 15.7236 15.7134 17.4448 14.4072 18.7387Z" fill="#323232"/>
</svg>
