<svg width="21" height="21" viewBox="0 0 21 21" fill="none" xmlns="http://www.w3.org/2000/svg">
<path d="M19.0938 6.78906H14.2109V1.90625C14.2109 1.54365 14.0669 1.1959 13.8105 0.939503C13.5541 0.683105 13.2064 0.539062 12.8438 0.539062H8.15625C7.79365 0.539062 7.4459 0.683105 7.1895 0.939503C6.9331 1.1959 6.78906 1.54365 6.78906 1.90625V6.78906H1.90625C1.54365 6.78906 1.1959 6.9331 0.939503 7.1895C0.683105 7.4459 0.539063 7.79365 0.539062 8.15625V12.8438C0.539062 13.2064 0.683105 13.5541 0.939503 13.8105C1.1959 14.0669 1.54365 14.2109 1.90625 14.2109H6.78906V19.0938C6.78906 19.4564 6.9331 19.8041 7.1895 20.0605C7.4459 20.3169 7.79365 20.4609 8.15625 20.4609H12.8438C13.2064 20.4609 13.5541 20.3169 13.8105 20.0605C14.0669 19.8041 14.2109 19.4564 14.2109 19.0938V14.2109H19.0938C19.4564 14.2109 19.8041 14.0669 20.0605 13.8105C20.3169 13.5541 20.4609 13.2064 20.4609 12.8438V8.15625C20.4609 7.79365 20.3169 7.4459 20.0605 7.1895C19.8041 6.9331 19.4564 6.78906 19.0938 6.78906ZM19.2891 12.8438C19.2891 12.8955 19.2685 12.9452 19.2319 12.9819C19.1952 13.0185 19.1455 13.0391 19.0938 13.0391H13.625C13.4696 13.0391 13.3206 13.1008 13.2107 13.2107C13.1008 13.3206 13.0391 13.4696 13.0391 13.625V19.0938C13.0391 19.1455 13.0185 19.1952 12.9819 19.2319C12.9452 19.2685 12.8955 19.2891 12.8438 19.2891H8.15625C8.10445 19.2891 8.05477 19.2685 8.01814 19.2319C7.98151 19.1952 7.96094 19.1455 7.96094 19.0938V13.625C7.96094 13.4696 7.8992 13.3206 7.78932 13.2107C7.67944 13.1008 7.5304 13.0391 7.375 13.0391H1.90625C1.85445 13.0391 1.80477 13.0185 1.76814 12.9819C1.73151 12.9452 1.71094 12.8955 1.71094 12.8438V8.15625C1.71094 8.10445 1.73151 8.05477 1.76814 8.01814C1.80477 7.98151 1.85445 7.96094 1.90625 7.96094H7.375C7.5304 7.96094 7.67944 7.8992 7.78932 7.78932C7.8992 7.67944 7.96094 7.5304 7.96094 7.375V1.90625C7.96094 1.85445 7.98151 1.80477 8.01814 1.76814C8.05477 1.73151 8.10445 1.71094 8.15625 1.71094H12.8438C12.8955 1.71094 12.9452 1.73151 12.9819 1.76814C13.0185 1.80477 13.0391 1.85445 13.0391 1.90625V7.375C13.0391 7.5304 13.1008 7.67944 13.2107 7.78932C13.3206 7.8992 13.4696 7.96094 13.625 7.96094H19.0938C19.1455 7.96094 19.1952 7.98151 19.2319 8.01814C19.2685 8.05477 19.2891 8.10445 19.2891 8.15625V12.8438Z" fill="#323232"/>
</svg>
