<svg width="36" height="35" viewBox="0 0 36 35" fill="none" xmlns="http://www.w3.org/2000/svg">
<path d="M19.99 0H15.7594C14.9144 0 14.2146 0.633259 14.1314 1.47246L13.6976 4.0715C12.8828 4.32484 12.091 4.65391 11.3346 5.05178L9.15771 3.4972C8.89744 3.28148 8.52966 3.14965 8.15255 3.14965C7.71528 3.14965 7.30471 3.32019 6.99526 3.62965L4.00408 6.62089C3.40667 7.21829 3.36041 8.16101 3.89536 8.81451L5.42678 10.9596C5.02771 11.7172 4.69922 12.5095 4.4465 13.3221L1.80926 13.7622C1.00883 13.8391 0.375 14.5389 0.375 15.385V19.615C0.375 20.46 1.00826 21.1597 1.84746 21.2436L4.4465 21.6786C4.70036 22.4946 5.02943 23.2863 5.42621 24.0405L3.8722 26.2173C3.35978 26.8391 3.40605 27.7817 4.00408 28.3786L6.99583 31.3709C7.57248 31.9464 8.55968 31.9943 9.18774 31.4808L11.3357 29.9487C12.0893 30.346 12.881 30.6745 13.6976 30.9284L14.1366 33.5651C14.2147 34.3667 14.915 35 15.76 35H19.9906C20.8344 35 21.5342 34.3673 21.6192 33.5287L22.0536 30.9284C22.869 30.6746 23.6608 30.346 24.4149 29.9487L26.5923 31.5033C26.852 31.7185 27.2199 31.8498 27.5969 31.8498C28.0341 31.8498 28.4447 31.6797 28.7536 31.3709L31.7448 28.3786C32.3417 27.7835 32.3896 26.8414 31.8558 26.1873L30.3238 24.0404C30.7217 23.2863 31.0496 22.4945 31.3035 21.6785L33.9407 21.2384C34.7423 21.1597 35.375 20.46 35.375 19.615V15.385C35.375 14.5389 34.7417 13.8397 33.9013 13.7582L31.3034 13.3238C31.0496 12.5072 30.721 11.7149 30.3237 10.9608L31.8783 8.78443C32.3902 8.16043 32.3421 7.21715 31.7442 6.62146L28.7535 3.63085C28.1792 3.05598 27.1897 3.00514 26.5599 3.52156L24.4149 5.05247C23.6583 4.65397 22.8667 4.3249 22.0535 4.07212L21.6128 1.43431C21.5342 0.633259 20.8344 0 19.99 0ZM11.2929 6.31138C11.39 6.31138 11.4878 6.28713 11.5757 6.23738C12.4571 5.74343 13.3951 5.35426 14.3662 5.07957C14.5813 5.01884 14.7421 4.83898 14.7791 4.61806L15.2771 1.62453C15.306 1.34578 15.5159 1.15666 15.7594 1.15666H19.99C20.2334 1.15666 20.4428 1.34521 20.4665 1.58638L20.9714 4.61806C21.0078 4.83841 21.1692 5.01827 21.3844 5.079C22.3531 5.35317 23.2911 5.7424 24.1731 6.23686C24.368 6.34672 24.6098 6.3334 24.792 6.20272L27.262 4.43819C27.5113 4.23751 27.7652 4.27921 27.934 4.44746L30.9258 7.43921C31.1016 7.61439 31.1154 7.89033 30.9593 8.08168L29.1711 10.5819C29.0403 10.7641 29.0276 11.0052 29.1369 11.2013C29.6308 12.0792 30.0195 13.0173 30.2937 13.99C30.3544 14.2058 30.5342 14.3665 30.7557 14.4035L33.7498 14.9027C34.0286 14.9316 34.2177 15.1404 34.2177 15.3839V19.6138C34.2177 19.8573 34.0292 20.0672 33.788 20.091L30.7563 20.5953C30.5348 20.6323 30.3555 20.793 30.2942 21.0087C30.0201 21.9815 29.6308 22.9196 29.1375 23.7963C29.0282 23.9924 29.041 24.2336 29.1716 24.4158L30.9373 26.887C31.116 27.1079 31.1016 27.3832 30.9269 27.5579L27.9352 30.5508C27.767 30.7191 27.4772 30.7335 27.2944 30.5838L24.7925 28.795C24.6103 28.6643 24.3686 28.6516 24.1737 28.7608C23.2953 29.2542 22.3571 29.6434 21.385 29.9187C21.1698 29.9789 21.009 30.1593 20.972 30.3802L20.4735 33.3737C20.4428 33.6583 20.2375 33.8433 19.99 33.8433H15.7594C15.5113 33.8433 15.3066 33.6588 15.2823 33.4136L14.7791 30.3825C14.7427 30.1616 14.5813 29.9817 14.3662 29.921C13.3923 29.6451 12.4542 29.2565 11.578 28.7631C11.3814 28.6538 11.1402 28.6665 10.9586 28.7973L8.48619 30.5629C8.23748 30.7619 7.98247 30.722 7.81416 30.5525L4.82246 27.5608C4.6478 27.3861 4.63448 27.1108 4.79066 26.9205L6.57829 24.418C6.70903 24.2353 6.72172 23.9942 6.61243 23.7986C6.11969 22.9219 5.73046 21.9838 5.45458 21.0105C5.39441 20.7953 5.21398 20.6345 4.99306 20.5975L1.99958 20.0984C1.71615 20.0683 1.53172 19.863 1.53172 19.6149V15.3849C1.53172 15.1374 1.71564 14.9326 1.96024 14.909L4.99248 14.4047C5.21341 14.3682 5.39327 14.2069 5.454 13.9912C5.72754 13.0236 6.11677 12.085 6.61186 11.2013C6.72121 11.0058 6.70846 10.7652 6.57772 10.583L4.81319 8.11291C4.63276 7.89084 4.6466 7.61559 4.82183 7.4403L7.81359 4.44912C7.98361 4.27967 8.27225 4.26462 8.4544 4.41617L10.9563 6.20381C11.0569 6.27501 11.1749 6.31138 11.2929 6.31138ZM17.8756 10.5773C14.0574 10.5773 10.9511 13.6829 10.9511 17.5006C10.9511 21.3188 14.0574 24.425 17.8756 24.425C21.6938 24.425 24.7995 21.3188 24.7995 17.5006C24.7989 13.6836 21.6932 10.5773 17.8756 10.5773ZM17.8756 23.2684C14.6953 23.2684 12.1078 20.6808 12.1078 17.5006C12.1078 14.3208 14.6953 11.734 17.8756 11.734C21.0553 11.734 23.6428 14.3208 23.6428 17.5006C23.6422 20.6809 21.0553 23.2684 17.8756 23.2684Z" fill="#323232"/>
</svg>
