<svg width="19" height="22" viewBox="0 0 19 22" fill="none" xmlns="http://www.w3.org/2000/svg">
<mask id="path-1-inside-1_6641_19896" fill="white">
<path d="M11.6242 16.2985C13.3118 13.3861 15.4449 9.29167 15.4449 7.18708C15.4449 3.6369 12.6703 0.75 9.25823 0.75C5.84616 0.75 3.07156 3.6369 3.07156 7.18708C3.07156 9.29167 5.20461 13.3861 6.89226 16.2985C4.88997 16.4558 0.33374 17.0213 0.33374 18.8963C0.33374 20.7415 4.95943 21.5833 9.26231 21.5833C13.5611 21.5833 18.1909 20.7415 18.1909 18.8963C18.1868 17.0213 13.6265 16.4558 11.6242 16.2985ZM3.9256 7.18708C3.9256 4.12585 6.32017 1.63435 9.25823 1.63435C12.2004 1.63435 14.5949 4.12585 14.5949 7.18708C14.5949 9.8614 10.5005 16.5706 9.25823 18.5434C8.01599 16.5706 3.9256 9.8614 3.9256 7.18708ZM9.25823 20.6947C4.03184 20.6947 1.18369 19.5043 1.18369 18.892C1.18369 18.4201 3.06339 17.4039 7.39487 17.1446C8.20805 18.5094 8.82508 19.4745 8.9068 19.5893C9.01713 19.7423 9.33995 19.9252 9.61373 19.5893C9.69955 19.483 10.3125 18.5094 11.1257 17.1446C15.4571 17.4039 17.3368 18.4158 17.3368 18.892C17.3328 19.5085 14.4846 20.6947 9.25823 20.6947Z"/>
<path d="M11.9511 7.18708C11.9511 5.63946 10.7456 4.38521 9.25821 4.38521C7.77079 4.38521 6.56534 5.63946 6.56534 7.18708C6.56534 8.7347 7.77079 9.98895 9.25821 9.98895C10.7456 9.98895 11.9511 8.7347 11.9511 7.18708ZM7.41529 7.18708C7.41529 6.1284 8.24072 5.26956 9.25821 5.26956C10.2757 5.26956 11.1011 6.1284 11.1011 7.18708C11.1011 8.24575 10.2757 9.10459 9.25821 9.10459C8.24072 9.10459 7.41529 8.24575 7.41529 7.18708Z"/>
</mask>
<path d="M11.6242 16.2985C13.3118 13.3861 15.4449 9.29167 15.4449 7.18708C15.4449 3.6369 12.6703 0.75 9.25823 0.75C5.84616 0.75 3.07156 3.6369 3.07156 7.18708C3.07156 9.29167 5.20461 13.3861 6.89226 16.2985C4.88997 16.4558 0.33374 17.0213 0.33374 18.8963C0.33374 20.7415 4.95943 21.5833 9.26231 21.5833C13.5611 21.5833 18.1909 20.7415 18.1909 18.8963C18.1868 17.0213 13.6265 16.4558 11.6242 16.2985ZM3.9256 7.18708C3.9256 4.12585 6.32017 1.63435 9.25823 1.63435C12.2004 1.63435 14.5949 4.12585 14.5949 7.18708C14.5949 9.8614 10.5005 16.5706 9.25823 18.5434C8.01599 16.5706 3.9256 9.8614 3.9256 7.18708ZM9.25823 20.6947C4.03184 20.6947 1.18369 19.5043 1.18369 18.892C1.18369 18.4201 3.06339 17.4039 7.39487 17.1446C8.20805 18.5094 8.82508 19.4745 8.9068 19.5893C9.01713 19.7423 9.33995 19.9252 9.61373 19.5893C9.69955 19.483 10.3125 18.5094 11.1257 17.1446C15.4571 17.4039 17.3368 18.4158 17.3368 18.892C17.3328 19.5085 14.4846 20.6947 9.25823 20.6947Z" fill="#323232"/>
<path d="M11.9511 7.18708C11.9511 5.63946 10.7456 4.38521 9.25821 4.38521C7.77079 4.38521 6.56534 5.63946 6.56534 7.18708C6.56534 8.7347 7.77079 9.98895 9.25821 9.98895C10.7456 9.98895 11.9511 8.7347 11.9511 7.18708ZM7.41529 7.18708C7.41529 6.1284 8.24072 5.26956 9.25821 5.26956C10.2757 5.26956 11.1011 6.1284 11.1011 7.18708C11.1011 8.24575 10.2757 9.10459 9.25821 9.10459C8.24072 9.10459 7.41529 8.24575 7.41529 7.18708Z" fill="#323232"/>
<path d="M11.6242 16.2985L10.759 15.7971L9.96282 17.171L11.5459 17.2954L11.6242 16.2985ZM6.89226 16.2985L6.97058 17.2954L8.55363 17.171L7.75749 15.7971L6.89226 16.2985ZM18.1909 18.8963H19.1909L19.1909 18.8941L18.1909 18.8963ZM9.25823 18.5434L8.41201 19.0762L9.25823 20.4201L10.1044 19.0762L9.25823 18.5434ZM7.39487 17.1446L8.25394 16.6327L7.94249 16.11L7.3351 16.1463L7.39487 17.1446ZM8.9068 19.5893L8.09215 20.1693L8.09559 20.174L8.9068 19.5893ZM9.61373 19.5893L10.3889 20.2211L10.3918 20.2174L9.61373 19.5893ZM11.1257 17.1446L11.1854 16.1463L10.578 16.11L10.2666 16.6327L11.1257 17.1446ZM17.3368 18.892L18.3368 18.8986V18.892H17.3368ZM12.4894 16.7998C13.3409 15.3304 14.3149 13.5457 15.079 11.8508C15.82 10.2073 16.4449 8.47855 16.4449 7.18708H14.4449C14.4449 8.0002 14.0032 9.37091 13.2558 11.0288C12.5315 12.6354 11.5951 14.3542 10.759 15.7971L12.4894 16.7998ZM16.4449 7.18708C16.4449 3.12239 13.2596 -0.25 9.25823 -0.25V1.75C12.081 1.75 14.4449 4.15142 14.4449 7.18708H16.4449ZM9.25823 -0.25C5.25685 -0.25 2.07156 3.12239 2.07156 7.18708H4.07156C4.07156 4.15142 6.43547 1.75 9.25823 1.75V-0.25ZM2.07156 7.18708C2.07156 8.47855 2.69644 10.2073 3.43741 11.8508C4.20152 13.5457 5.17552 15.3304 6.02702 16.7998L7.75749 15.7971C6.92135 14.3542 5.985 12.6354 5.26068 11.0288C4.51321 9.37091 4.07156 8.0002 4.07156 7.18708H2.07156ZM6.81393 15.3015C5.79543 15.3816 4.07577 15.5681 2.58841 15.9914C1.85141 16.2012 1.09675 16.4892 0.50559 16.9008C-0.0851486 17.312 -0.66626 17.9635 -0.66626 18.8963H1.33374C1.33374 18.8915 1.32216 18.7692 1.64828 18.5422C1.97399 18.3154 2.48353 18.1007 3.13587 17.915C4.42719 17.5475 5.9868 17.3727 6.97058 17.2954L6.81393 15.3015ZM-0.66626 18.8963C-0.66626 19.8335 -0.0667144 20.4971 0.563915 20.9232C1.20013 21.353 2.03736 21.6665 2.93249 21.8995C4.73732 22.3694 7.06112 22.5833 9.26231 22.5833V20.5833C7.16063 20.5833 5.02014 20.3764 3.4364 19.964C2.63725 19.756 2.04912 19.5129 1.68356 19.266C1.50489 19.1453 1.41284 19.0458 1.36947 18.9816C1.3327 18.9272 1.33374 18.9044 1.33374 18.8963H-0.66626ZM9.26231 22.5833C11.4615 22.5833 13.7853 22.3694 15.5905 21.8995C16.4859 21.6665 17.3234 21.3531 17.9599 20.9234C18.5906 20.4975 19.1909 19.8338 19.1909 18.8963H17.1909C17.1909 18.9042 17.192 18.9269 17.1552 18.9813C17.1118 19.0455 17.0196 19.145 16.8407 19.2658C16.4748 19.5129 15.8862 19.7559 15.0868 19.964C13.5024 20.3764 11.3619 20.5833 9.26231 20.5833V22.5833ZM19.1909 18.8941C19.1888 17.9616 18.6064 17.3109 18.0152 16.9002C17.4233 16.489 16.668 16.2011 15.9303 15.9913C14.4416 15.5681 12.721 15.3816 11.7025 15.3015L11.5459 17.2954C12.5297 17.3727 14.0904 17.5475 15.3834 17.9151C16.0366 18.1008 16.5473 18.3156 16.8741 18.5427C17.2018 18.7703 17.1909 18.8935 17.1909 18.8984L19.1909 18.8941ZM4.9256 7.18708C4.9256 4.63986 6.90997 2.63435 9.25823 2.63435V0.634354C5.73037 0.634354 2.9256 3.61184 2.9256 7.18708H4.9256ZM9.25823 2.63435C11.6111 2.63435 13.5949 4.64037 13.5949 7.18708H15.5949C15.5949 3.61133 12.7897 0.634354 9.25823 0.634354V2.63435ZM13.5949 7.18708C13.5949 7.657 13.4009 8.42967 13.0039 9.44953C12.6192 10.4378 12.0868 11.5529 11.5059 12.6655C10.3453 14.8887 9.02747 17.0331 8.41201 18.0105L10.1044 19.0762C10.7312 18.0808 12.0817 15.8842 13.2789 13.5911C13.877 12.4455 14.4458 11.2586 14.8676 10.1751C15.2771 9.12316 15.5949 8.05431 15.5949 7.18708H13.5949ZM10.1044 18.0105C9.48916 17.0334 8.17235 14.8891 7.01271 12.6658C6.43238 11.5532 5.9005 10.4381 5.51613 9.44983C5.11949 8.42999 4.9256 7.65719 4.9256 7.18708H2.9256C2.9256 8.05412 3.24301 9.12284 3.65214 10.1748C4.07353 11.2582 4.64189 12.4452 5.23944 13.5908C6.43555 15.8839 7.78506 18.0805 8.41201 19.0762L10.1044 18.0105ZM9.25823 19.6947C6.71542 19.6947 4.78808 19.4045 3.52536 19.0585C2.88849 18.884 2.45481 18.7045 2.20362 18.5621C2.07514 18.4892 2.0325 18.4474 2.03535 18.4503C2.03837 18.4534 2.06965 18.4857 2.10319 18.5499C2.13757 18.6157 2.18369 18.7337 2.18369 18.892H0.183691C0.183691 19.3509 0.437914 19.6754 0.597211 19.8402C0.776236 20.0254 0.996941 20.177 1.21714 20.3019C1.6633 20.5548 2.26831 20.7878 2.99677 20.9874C4.46473 21.3897 6.57465 21.6947 9.25823 21.6947V19.6947ZM2.18369 18.892C2.18369 19.1586 2.05905 19.3104 2.04814 19.3238C2.02641 19.3504 2.03335 19.3336 2.10699 19.2835C2.25145 19.1854 2.53174 19.0408 2.98821 18.8849C3.89181 18.5762 5.3511 18.2687 7.45464 18.1428L7.3351 16.1463C5.10716 16.2797 3.46086 16.61 2.34174 16.9922C1.78686 17.1818 1.3265 17.3959 0.983156 17.6291C0.812897 17.7448 0.639147 17.8868 0.497701 18.0604C0.367076 18.2207 0.183691 18.5074 0.183691 18.892H2.18369ZM6.5358 17.6564C7.34596 19.0162 7.98308 20.016 8.09216 20.1693L9.72144 19.0093C9.72356 19.0123 9.7145 18.9993 9.68774 18.9585C9.664 18.9224 9.63204 18.8731 9.59224 18.811C9.51277 18.6871 9.40475 18.5165 9.27337 18.3061C9.01071 17.8854 8.65678 17.3088 8.25394 16.6327L6.5358 17.6564ZM8.09559 20.174C8.27878 20.4282 8.60157 20.6822 9.02417 20.7572C9.53834 20.8485 10.0415 20.6473 10.3889 20.2211L8.83861 18.9575C8.86033 18.9308 8.92314 18.8668 9.03752 18.8218C9.15394 18.7761 9.27315 18.7702 9.37378 18.788C9.46733 18.8046 9.53577 18.8395 9.58051 18.8694C9.62311 18.8978 9.67111 18.9395 9.71802 19.0045L8.09559 20.174ZM10.3918 20.2174C10.4548 20.1394 10.5426 20.0043 10.6123 19.8963C10.6986 19.7625 10.8118 19.5831 10.9462 19.3668C11.2155 18.9335 11.5753 18.3435 11.9847 17.6564L10.2666 16.6327C9.86282 17.3104 9.50956 17.8896 9.24765 18.3109C9.11651 18.5219 9.00957 18.6912 8.93136 18.8125C8.83654 18.9596 8.81553 18.986 8.83565 18.9611L10.3918 20.2174ZM11.0659 18.1428C13.1699 18.2687 14.6292 18.5753 15.5328 18.8834C15.9892 19.0391 16.2691 19.1835 16.4131 19.2814C16.4864 19.3313 16.4931 19.348 16.4712 19.321C16.4595 19.3066 16.3368 19.156 16.3368 18.892H18.3368C18.3368 18.509 18.1555 18.2225 18.0241 18.0606C17.8825 17.8862 17.7084 17.7437 17.5378 17.6277C17.194 17.3938 16.7332 17.1797 16.1784 16.9905C15.0592 16.6088 13.413 16.2797 11.1854 16.1463L11.0659 18.1428ZM16.3369 18.8854C16.3379 18.7294 16.3837 18.6133 16.4176 18.5487C16.4508 18.4856 16.4815 18.4539 16.4843 18.4511C16.4866 18.4487 16.4434 18.4909 16.3148 18.5637C16.0631 18.7063 15.6292 18.8857 14.992 19.06C13.7288 19.4055 11.8013 19.6947 9.25823 19.6947V21.6947C11.9415 21.6947 14.0513 21.3908 15.5197 20.9891C16.2485 20.7898 16.854 20.557 17.3008 20.3038C17.5214 20.1788 17.7423 20.0271 17.9215 19.8419C18.0816 19.6764 18.3338 19.3541 18.3368 18.8986L16.3369 18.8854ZM12.9511 7.18708C12.9511 5.12494 11.3349 3.38521 9.25821 3.38521V5.38521C10.1563 5.38521 10.9511 6.15397 10.9511 7.18708H12.9511ZM9.25821 3.38521C7.18148 3.38521 5.56534 5.12494 5.56534 7.18708H7.56534C7.56534 6.15397 8.3601 5.38521 9.25821 5.38521V3.38521ZM5.56534 7.18708C5.56534 9.24921 7.18148 10.9889 9.25821 10.9889V8.98895C8.36011 8.98895 7.56534 8.22018 7.56534 7.18708H5.56534ZM9.25821 10.9889C11.3349 10.9889 12.9511 9.24921 12.9511 7.18708H10.9511C10.9511 8.22018 10.1563 8.98895 9.25821 8.98895V10.9889ZM8.41529 7.18708C8.41529 6.64292 8.83003 6.26956 9.25821 6.26956V4.26956C7.65141 4.26956 6.41529 5.61389 6.41529 7.18708H8.41529ZM9.25821 6.26956C9.68639 6.26956 10.1011 6.64292 10.1011 7.18708H12.1011C12.1011 5.61389 10.865 4.26956 9.25821 4.26956V6.26956ZM10.1011 7.18708C10.1011 7.73123 9.68639 8.10459 9.25821 8.10459V10.1046C10.865 10.1046 12.1011 8.76027 12.1011 7.18708H10.1011ZM9.25821 8.10459C8.83003 8.10459 8.41529 7.73123 8.41529 7.18708H6.41529C6.41529 8.76027 7.65141 10.1046 9.25821 10.1046V8.10459Z" fill="#0F62AB" mask="url(#path-1-inside-1_6641_19896)"/>
</svg>
