<svg width="20" height="21" viewBox="0 0 20 21" fill="none" xmlns="http://www.w3.org/2000/svg">
<mask id="path-1-inside-1_11967_5292" fill="white">
<path d="M10 0.5C4.48421 0.5 0 4.98421 0 10.5C0 16.0158 4.48421 20.5 10 20.5C15.5158 20.5 20 16.0158 20 10.5C20 4.98421 15.5158 0.5 10 0.5ZM1.26316 10.5C1.26316 8.32093 2.06048 6.33169 3.38472 4.8027C3.50975 4.65834 3.72455 4.61227 3.87368 4.73158C3.93684 4.79474 3.9579 5.19474 3.91579 5.63684V5.6579C3.91579 5.6718 3.91832 5.68517 3.92317 5.6982C3.97263 5.831 4.24448 6.62522 3.93684 7.27895C3.55789 8.03684 3.64211 9.2579 3.83158 9.53158C4 9.76316 4.82105 10.8368 4.94737 10.9632C5.03158 11.0474 5.32632 11.8263 5.34737 11.9316C5.36842 12.0368 5.91579 12.6895 6.48421 12.6895C6.82105 12.6684 7.2 12.8579 7.45263 12.9842C7.52719 13.0215 7.58708 13.0514 7.63663 13.074C7.69501 13.1007 7.74794 13.1128 7.77981 13.1685C7.79934 13.2026 7.82011 13.2541 7.84018 13.2879C7.92474 13.4303 8.05365 13.6134 8.31579 13.7632C8.4 13.8053 8.48421 13.8474 8.56842 13.9105C8.78413 14.0338 9.06751 14.1909 9.21221 14.291C9.2807 14.3384 9.29444 14.3986 9.24256 14.4638C9.21926 14.493 9.18733 14.5349 9.16266 14.563C8.97453 14.7776 8.72115 15.119 8.8 15.5526C8.92632 16.2053 9.83158 16.9842 10.1263 17.1737C10.3158 17.3 10.2316 18.6263 10.1263 18.879C10.0943 18.943 10.0744 19.0436 10.076 19.153C10.0769 19.2086 10.0345 19.2579 9.97895 19.2579C5.17895 19.2368 1.26316 15.3211 1.26316 10.5ZM12.1058 18.9859C11.9881 19.0156 11.9312 18.884 11.9957 18.7812C12.0031 18.7695 12.005 18.7687 12.0163 18.7608C12.033 18.7492 12.0576 18.7345 12.0824 18.7183C12.1279 18.6884 12.1715 18.655 12.2185 18.6275C12.3402 18.5564 12.4523 18.483 12.5053 18.3947C12.6105 18.2474 12.9053 17.9316 13.0316 17.8684C13.2 17.7842 14.2316 16.8579 14.2947 16.7105C14.4632 16.3316 14.6737 15.9105 14.8 15.8053C15.0254 15.6208 14.8319 15.2967 14.7438 15.1631C14.7392 15.1561 14.7338 15.1496 14.7279 15.1437C14.7199 15.1356 14.7132 15.1263 14.7061 15.1175C14.6201 15.0122 14.2741 14.9533 14.0806 14.9407C13.999 14.9354 13.9159 14.9386 13.8403 14.9075C13.7111 14.8545 13.5213 14.7508 13.4119 14.6704C13.346 14.622 13.326 14.5404 13.2846 14.4699C13.1645 14.2649 12.8195 13.9526 12.7158 13.9526C12.6526 13.9526 12.3579 13.8895 12.2105 13.7C12.0211 13.4684 11.3263 13.3 11.1368 13.3C10.9474 13.3 10.6737 13.2579 10.4842 13.1737C10.3158 13.0895 10.0211 13.2158 9.72632 13.3421C9.6266 13.3753 9.52284 13.4112 9.41843 13.399C9.27571 13.3823 9.076 13.345 8.93288 13.3081C8.82879 13.2813 8.74779 13.2107 8.73221 13.1043C8.72494 13.0547 8.72008 13 8.71764 12.95C8.71533 12.9027 8.71218 12.8554 8.7066 12.8084C8.69899 12.7443 8.69491 12.6945 8.68893 12.6535C8.6821 12.6067 8.66552 12.559 8.62673 12.5319C8.56095 12.4859 8.4383 12.4583 8.23158 12.3947C8.22546 12.3927 8.21914 12.3907 8.21268 12.3886C8.11788 12.3587 8.07383 12.2575 8.10526 12.1632C8.18947 11.9526 8.25263 11.8053 8.21053 11.7211C8.20569 11.7114 8.20086 11.7028 8.19577 11.6954C8.16469 11.6499 8.09803 11.6502 8.04416 11.6616C7.92481 11.687 7.77293 11.7882 7.62105 11.8895C7.60415 11.9021 7.58556 11.9157 7.56629 11.9294C7.43973 12.0193 7.28535 12.0567 7.14066 12.0004C7.03262 11.9584 6.90101 11.8933 6.75789 11.8053C6.61053 11.7211 6.77895 11.1947 6.86316 10.9632C6.90526 10.8368 6.94737 10.7526 6.94737 10.6895C6.94737 10.6263 7.24211 10.5421 7.66316 10.5421C7.76842 10.5421 7.93684 10.5211 8.08421 10.5C8.21053 10.4789 8.35789 10.4579 8.44211 10.4579C8.50526 10.4579 8.61053 10.6263 8.67369 10.7105C8.77895 10.8789 8.86316 10.9842 8.98947 10.9632C9.1579 10.9211 9.13684 10.7105 9.13684 10.5632C9.13684 10.5621 9.13684 10.561 9.13684 10.56C9.13684 10.4782 9.14832 10.3968 9.18624 10.3244C9.26274 10.1782 9.41146 9.95217 9.53684 9.88947C9.69852 9.79247 9.89744 9.53406 9.95245 9.33355C9.98088 9.2299 9.97528 9.11956 10.0543 9.04675C10.1697 8.94054 10.3576 8.80894 10.4421 8.75263C10.4666 8.73633 10.4878 8.72319 10.506 8.71198C10.549 8.68541 10.5887 8.66099 10.6316 8.63421C10.6744 8.60743 10.7182 8.57355 10.7625 8.54917C10.8739 8.48778 10.9895 8.39707 10.9895 8.20526C10.9895 8.09288 11.3061 8.0305 11.539 7.98845C11.5936 7.97859 11.6568 7.97347 11.7109 7.9613C11.7537 7.9517 11.7904 7.95042 11.8332 7.94118C11.9412 7.91786 12.0066 7.87957 12.0421 7.82632C12.0698 7.77086 12.061 7.70627 12.0398 7.63856C12.0172 7.5667 11.9916 7.49369 11.9579 7.42632C11.8737 7.23684 11.9158 7.08947 12.1053 6.96316C12.1895 6.9 12.3368 6.87895 12.5053 6.87895C12.6737 6.85789 12.8421 6.83684 13.0105 6.77368C13.1368 6.73158 13.2 6.66842 13.2211 6.58421C13.236 6.50926 13.2083 6.44499 13.1683 6.38378C13.1355 6.33356 13.1 6.28486 13.0686 6.23379C13.0633 6.22517 13.0579 6.21589 13.0526 6.20526C12.9885 6.07704 12.8756 5.97322 12.7882 5.8938C12.7394 5.84952 12.6885 5.80438 12.6651 5.74282C12.6279 5.64498 12.5982 5.48833 12.5684 5.38421C12.5555 5.3197 12.5426 5.2631 12.5297 5.21925C12.5164 5.17385 12.5031 5.12494 12.4683 5.09285C12.4457 5.07204 12.416 5.05971 12.3789 5.04737C12.2798 5.01433 12.1289 5.0461 12.0074 5.09184C11.9644 5.10801 11.8998 5.07704 11.895 5.03138C11.8945 5.02636 11.8941 5.02384 11.8929 5.01893C11.8736 4.9372 11.8718 4.85605 11.8105 4.79474C11.7895 4.77368 11.7053 4.68947 11.6211 4.62632C11.4947 4.52105 11.3474 4.37368 11.2421 4.26842C11.2084 4.23475 11.1748 4.21903 11.1443 4.21169C11.0983 4.20061 11.0489 4.20595 11.0058 4.22559C10.8973 4.27512 10.8012 4.40053 10.7177 4.54386C10.7022 4.57046 10.6845 4.59535 10.6702 4.62263C10.661 4.64025 10.6469 4.65555 10.6358 4.67211C10.5183 4.84908 10.4729 4.99833 10.4937 5.10798C10.5123 5.20562 10.5918 5.29531 10.5474 5.38421C10.4842 5.53158 10.4 5.63684 10.3368 5.63684C10.1684 5.61579 10.1263 5.84737 10.0842 6.07895C10.0531 6.20339 9.9623 6.21256 9.9493 6.08496C9.94151 6.00858 9.93684 5.9104 9.93684 5.78421V5.74211C9.93684 5.65311 9.85847 5.58038 9.76964 5.57502C9.7474 5.57368 9.72528 5.57368 9.70526 5.57368C9.69871 5.57368 9.69242 5.57368 9.68636 5.57367C9.59817 5.57353 9.53574 5.51166 9.46503 5.45895C9.38819 5.40166 9.27878 5.34334 9.16819 5.29208C8.96541 5.19807 8.82105 4.92522 8.82105 4.70171C8.82105 4.58935 8.86311 4.56152 8.95301 4.49412C9.18373 4.32111 9.63863 4.02236 9.76842 3.97368C10 3.88947 10.5684 3.51053 10.6947 3.42632C10.7482 3.39425 10.7799 3.35676 10.7955 3.31935C10.8225 3.25431 10.8014 3.17605 10.7603 3.11885C10.749 3.10315 10.7357 3.08805 10.7208 3.07356C10.5027 2.86121 10.2267 2.62032 9.92267 2.60685C9.88681 2.60526 9.84938 2.60526 9.81053 2.60526C9.70526 2.60526 9.6 2.60526 9.45263 2.58421C8.90526 2.5 8.46316 2.47895 8.08421 2.52105C7.83158 2.56316 7.51579 2.5 7.26316 2.43684C7.13813 2.416 7.03372 2.39516 6.92952 2.37433C6.92739 2.3739 6.92601 2.37368 6.92384 2.37368C6.88774 2.37368 6.87735 2.32491 6.91094 2.31168C7.88061 1.92995 8.94237 1.72105 10.0421 1.72105C11.0877 1.72105 12.0837 1.90322 13.0153 2.25287C13.2383 2.33659 13.3882 2.53953 13.4947 2.75263C13.6 3.00526 13.8105 3.44737 13.7895 3.76316C13.7895 4.07895 13.8316 4.43684 13.7895 4.54211C13.7474 4.64737 14.4421 5.40526 14.5895 5.42632C14.7368 5.44737 14.8421 5.34211 14.9263 5.19474C15.0316 5.04737 15.1579 4.87895 15.4316 4.66842C15.5268 4.597 15.7095 4.54577 15.9074 4.51093C16.1914 4.46093 16.4781 4.57203 16.6675 4.78955C16.8068 4.9496 16.938 5.11618 17.0634 5.29166C17.1447 5.40535 17.1094 5.53801 17.0105 5.63684C16.8842 5.76316 16.5263 6.12105 16.5684 6.37368C16.6105 6.64737 16.9053 6.98421 17.2421 7.15263C17.6 7.34211 17.6421 7.7 17.6421 7.76316C17.6421 7.7772 17.6671 7.80375 17.706 7.83653C17.9387 8.03288 18.1361 8.56316 17.8316 8.56316C17.7263 8.56316 17.6421 8.98421 17.6421 9.15263C17.6421 9.32105 17.8526 9.61579 18.0632 9.78421C18.2553 9.93796 18.5704 9.56537 18.6238 9.49929C18.629 9.49281 18.6358 9.48807 18.6437 9.48543C18.6696 9.47679 18.6968 9.49481 18.6989 9.52205C18.7096 9.66224 18.7204 9.80242 18.7312 9.9426C18.7462 10.1377 18.6064 10.3109 18.4196 10.3692C18.2234 10.4306 18.0459 10.5096 17.9789 10.5632C17.8316 10.6895 17.5158 11.7 17.3684 11.8053C17.2211 11.9105 16.9263 13.3 16.9053 13.4474C16.8924 13.5117 17.0524 13.8588 17.246 14.2008C17.4495 14.5603 17.4919 15.0142 17.2616 15.3571C16.0714 17.1292 14.2456 18.446 12.1058 18.9859Z"/>
</mask>
<path d="M10 0.5C4.48421 0.5 0 4.98421 0 10.5C0 16.0158 4.48421 20.5 10 20.5C15.5158 20.5 20 16.0158 20 10.5C20 4.98421 15.5158 0.5 10 0.5ZM1.26316 10.5C1.26316 8.32093 2.06048 6.33169 3.38472 4.8027C3.50975 4.65834 3.72455 4.61227 3.87368 4.73158C3.93684 4.79474 3.9579 5.19474 3.91579 5.63684V5.6579C3.91579 5.6718 3.91832 5.68517 3.92317 5.6982C3.97263 5.831 4.24448 6.62522 3.93684 7.27895C3.55789 8.03684 3.64211 9.2579 3.83158 9.53158C4 9.76316 4.82105 10.8368 4.94737 10.9632C5.03158 11.0474 5.32632 11.8263 5.34737 11.9316C5.36842 12.0368 5.91579 12.6895 6.48421 12.6895C6.82105 12.6684 7.2 12.8579 7.45263 12.9842C7.52719 13.0215 7.58708 13.0514 7.63663 13.074C7.69501 13.1007 7.74794 13.1128 7.77981 13.1685C7.79934 13.2026 7.82011 13.2541 7.84018 13.2879C7.92474 13.4303 8.05365 13.6134 8.31579 13.7632C8.4 13.8053 8.48421 13.8474 8.56842 13.9105C8.78413 14.0338 9.06751 14.1909 9.21221 14.291C9.2807 14.3384 9.29444 14.3986 9.24256 14.4638C9.21926 14.493 9.18733 14.5349 9.16266 14.563C8.97453 14.7776 8.72115 15.119 8.8 15.5526C8.92632 16.2053 9.83158 16.9842 10.1263 17.1737C10.3158 17.3 10.2316 18.6263 10.1263 18.879C10.0943 18.943 10.0744 19.0436 10.076 19.153C10.0769 19.2086 10.0345 19.2579 9.97895 19.2579C5.17895 19.2368 1.26316 15.3211 1.26316 10.5ZM12.1058 18.9859C11.9881 19.0156 11.9312 18.884 11.9957 18.7812C12.0031 18.7695 12.005 18.7687 12.0163 18.7608C12.033 18.7492 12.0576 18.7345 12.0824 18.7183C12.1279 18.6884 12.1715 18.655 12.2185 18.6275C12.3402 18.5564 12.4523 18.483 12.5053 18.3947C12.6105 18.2474 12.9053 17.9316 13.0316 17.8684C13.2 17.7842 14.2316 16.8579 14.2947 16.7105C14.4632 16.3316 14.6737 15.9105 14.8 15.8053C15.0254 15.6208 14.8319 15.2967 14.7438 15.1631C14.7392 15.1561 14.7338 15.1496 14.7279 15.1437C14.7199 15.1356 14.7132 15.1263 14.7061 15.1175C14.6201 15.0122 14.2741 14.9533 14.0806 14.9407C13.999 14.9354 13.9159 14.9386 13.8403 14.9075C13.7111 14.8545 13.5213 14.7508 13.4119 14.6704C13.346 14.622 13.326 14.5404 13.2846 14.4699C13.1645 14.2649 12.8195 13.9526 12.7158 13.9526C12.6526 13.9526 12.3579 13.8895 12.2105 13.7C12.0211 13.4684 11.3263 13.3 11.1368 13.3C10.9474 13.3 10.6737 13.2579 10.4842 13.1737C10.3158 13.0895 10.0211 13.2158 9.72632 13.3421C9.6266 13.3753 9.52284 13.4112 9.41843 13.399C9.27571 13.3823 9.076 13.345 8.93288 13.3081C8.82879 13.2813 8.74779 13.2107 8.73221 13.1043C8.72494 13.0547 8.72008 13 8.71764 12.95C8.71533 12.9027 8.71218 12.8554 8.7066 12.8084C8.69899 12.7443 8.69491 12.6945 8.68893 12.6535C8.6821 12.6067 8.66552 12.559 8.62673 12.5319C8.56095 12.4859 8.4383 12.4583 8.23158 12.3947C8.22546 12.3927 8.21914 12.3907 8.21268 12.3886C8.11788 12.3587 8.07383 12.2575 8.10526 12.1632C8.18947 11.9526 8.25263 11.8053 8.21053 11.7211C8.20569 11.7114 8.20086 11.7028 8.19577 11.6954C8.16469 11.6499 8.09803 11.6502 8.04416 11.6616C7.92481 11.687 7.77293 11.7882 7.62105 11.8895C7.60415 11.9021 7.58556 11.9157 7.56629 11.9294C7.43973 12.0193 7.28535 12.0567 7.14066 12.0004C7.03262 11.9584 6.90101 11.8933 6.75789 11.8053C6.61053 11.7211 6.77895 11.1947 6.86316 10.9632C6.90526 10.8368 6.94737 10.7526 6.94737 10.6895C6.94737 10.6263 7.24211 10.5421 7.66316 10.5421C7.76842 10.5421 7.93684 10.5211 8.08421 10.5C8.21053 10.4789 8.35789 10.4579 8.44211 10.4579C8.50526 10.4579 8.61053 10.6263 8.67369 10.7105C8.77895 10.8789 8.86316 10.9842 8.98947 10.9632C9.1579 10.9211 9.13684 10.7105 9.13684 10.5632C9.13684 10.5621 9.13684 10.561 9.13684 10.56C9.13684 10.4782 9.14832 10.3968 9.18624 10.3244C9.26274 10.1782 9.41146 9.95217 9.53684 9.88947C9.69852 9.79247 9.89744 9.53406 9.95245 9.33355C9.98088 9.2299 9.97528 9.11956 10.0543 9.04675C10.1697 8.94054 10.3576 8.80894 10.4421 8.75263C10.4666 8.73633 10.4878 8.72319 10.506 8.71198C10.549 8.68541 10.5887 8.66099 10.6316 8.63421C10.6744 8.60743 10.7182 8.57355 10.7625 8.54917C10.8739 8.48778 10.9895 8.39707 10.9895 8.20526C10.9895 8.09288 11.3061 8.0305 11.539 7.98845C11.5936 7.97859 11.6568 7.97347 11.7109 7.9613C11.7537 7.9517 11.7904 7.95042 11.8332 7.94118C11.9412 7.91786 12.0066 7.87957 12.0421 7.82632C12.0698 7.77086 12.061 7.70627 12.0398 7.63856C12.0172 7.5667 11.9916 7.49369 11.9579 7.42632C11.8737 7.23684 11.9158 7.08947 12.1053 6.96316C12.1895 6.9 12.3368 6.87895 12.5053 6.87895C12.6737 6.85789 12.8421 6.83684 13.0105 6.77368C13.1368 6.73158 13.2 6.66842 13.2211 6.58421C13.236 6.50926 13.2083 6.44499 13.1683 6.38378C13.1355 6.33356 13.1 6.28486 13.0686 6.23379C13.0633 6.22517 13.0579 6.21589 13.0526 6.20526C12.9885 6.07704 12.8756 5.97322 12.7882 5.8938C12.7394 5.84952 12.6885 5.80438 12.6651 5.74282C12.6279 5.64498 12.5982 5.48833 12.5684 5.38421C12.5555 5.3197 12.5426 5.2631 12.5297 5.21925C12.5164 5.17385 12.5031 5.12494 12.4683 5.09285C12.4457 5.07204 12.416 5.05971 12.3789 5.04737C12.2798 5.01433 12.1289 5.0461 12.0074 5.09184C11.9644 5.10801 11.8998 5.07704 11.895 5.03138C11.8945 5.02636 11.8941 5.02384 11.8929 5.01893C11.8736 4.9372 11.8718 4.85605 11.8105 4.79474C11.7895 4.77368 11.7053 4.68947 11.6211 4.62632C11.4947 4.52105 11.3474 4.37368 11.2421 4.26842C11.2084 4.23475 11.1748 4.21903 11.1443 4.21169C11.0983 4.20061 11.0489 4.20595 11.0058 4.22559C10.8973 4.27512 10.8012 4.40053 10.7177 4.54386C10.7022 4.57046 10.6845 4.59535 10.6702 4.62263C10.661 4.64025 10.6469 4.65555 10.6358 4.67211C10.5183 4.84908 10.4729 4.99833 10.4937 5.10798C10.5123 5.20562 10.5918 5.29531 10.5474 5.38421C10.4842 5.53158 10.4 5.63684 10.3368 5.63684C10.1684 5.61579 10.1263 5.84737 10.0842 6.07895C10.0531 6.20339 9.9623 6.21256 9.9493 6.08496C9.94151 6.00858 9.93684 5.9104 9.93684 5.78421V5.74211C9.93684 5.65311 9.85847 5.58038 9.76964 5.57502C9.7474 5.57368 9.72528 5.57368 9.70526 5.57368C9.69871 5.57368 9.69242 5.57368 9.68636 5.57367C9.59817 5.57353 9.53574 5.51166 9.46503 5.45895C9.38819 5.40166 9.27878 5.34334 9.16819 5.29208C8.96541 5.19807 8.82105 4.92522 8.82105 4.70171C8.82105 4.58935 8.86311 4.56152 8.95301 4.49412C9.18373 4.32111 9.63863 4.02236 9.76842 3.97368C10 3.88947 10.5684 3.51053 10.6947 3.42632C10.7482 3.39425 10.7799 3.35676 10.7955 3.31935C10.8225 3.25431 10.8014 3.17605 10.7603 3.11885C10.749 3.10315 10.7357 3.08805 10.7208 3.07356C10.5027 2.86121 10.2267 2.62032 9.92267 2.60685C9.88681 2.60526 9.84938 2.60526 9.81053 2.60526C9.70526 2.60526 9.6 2.60526 9.45263 2.58421C8.90526 2.5 8.46316 2.47895 8.08421 2.52105C7.83158 2.56316 7.51579 2.5 7.26316 2.43684C7.13813 2.416 7.03372 2.39516 6.92952 2.37433C6.92739 2.3739 6.92601 2.37368 6.92384 2.37368C6.88774 2.37368 6.87735 2.32491 6.91094 2.31168C7.88061 1.92995 8.94237 1.72105 10.0421 1.72105C11.0877 1.72105 12.0837 1.90322 13.0153 2.25287C13.2383 2.33659 13.3882 2.53953 13.4947 2.75263C13.6 3.00526 13.8105 3.44737 13.7895 3.76316C13.7895 4.07895 13.8316 4.43684 13.7895 4.54211C13.7474 4.64737 14.4421 5.40526 14.5895 5.42632C14.7368 5.44737 14.8421 5.34211 14.9263 5.19474C15.0316 5.04737 15.1579 4.87895 15.4316 4.66842C15.5268 4.597 15.7095 4.54577 15.9074 4.51093C16.1914 4.46093 16.4781 4.57203 16.6675 4.78955C16.8068 4.9496 16.938 5.11618 17.0634 5.29166C17.1447 5.40535 17.1094 5.53801 17.0105 5.63684C16.8842 5.76316 16.5263 6.12105 16.5684 6.37368C16.6105 6.64737 16.9053 6.98421 17.2421 7.15263C17.6 7.34211 17.6421 7.7 17.6421 7.76316C17.6421 7.7772 17.6671 7.80375 17.706 7.83653C17.9387 8.03288 18.1361 8.56316 17.8316 8.56316C17.7263 8.56316 17.6421 8.98421 17.6421 9.15263C17.6421 9.32105 17.8526 9.61579 18.0632 9.78421C18.2553 9.93796 18.5704 9.56537 18.6238 9.49929C18.629 9.49281 18.6358 9.48807 18.6437 9.48543C18.6696 9.47679 18.6968 9.49481 18.6989 9.52205C18.7096 9.66224 18.7204 9.80242 18.7312 9.9426C18.7462 10.1377 18.6064 10.3109 18.4196 10.3692C18.2234 10.4306 18.0459 10.5096 17.9789 10.5632C17.8316 10.6895 17.5158 11.7 17.3684 11.8053C17.2211 11.9105 16.9263 13.3 16.9053 13.4474C16.8924 13.5117 17.0524 13.8588 17.246 14.2008C17.4495 14.5603 17.4919 15.0142 17.2616 15.3571C16.0714 17.1292 14.2456 18.446 12.1058 18.9859Z" stroke="#283237" stroke-width="4" mask="url(#path-1-inside-1_11967_5292)"/>
</svg>
