<svg width="25" height="25" viewBox="0 0 25 25" fill="none" xmlns="http://www.w3.org/2000/svg">
<path d="M12.4992 21.2492C13.6817 21.2492 14.7616 21.1204 15.7466 20.898L13.5504 18.7018C13.2092 18.728 12.8629 18.7493 12.4992 18.7493C5.81071 18.7493 3.21955 13.942 2.59207 12.4995C3.06324 11.4481 3.69959 10.4788 4.477 9.62837L2.72957 7.88094C0.807139 9.96461 0.0784156 12.0633 0.0646661 12.1045C-0.0215554 12.3612 -0.0215554 12.6391 0.0646661 12.8958C0.0909151 12.9782 2.95831 21.2492 12.4992 21.2492ZM12.4992 3.74984C10.203 3.74984 8.31686 4.24482 6.74442 4.97604L2.13334 0.366211L0.365905 2.13365L22.8651 24.6328L24.6325 22.8654L20.4839 18.7168C23.7513 16.2781 24.9175 12.9482 24.935 12.8958C25.0212 12.6391 25.0212 12.3612 24.935 12.1045C24.9075 12.0208 22.0401 3.74984 12.4992 3.74984ZM18.714 16.9469L15.8641 14.097C16.1016 13.6095 16.2491 13.0732 16.2491 12.4995C16.2491 10.4483 14.5504 8.74965 12.4992 8.74965C11.9255 8.74965 11.3892 8.89715 10.903 9.13589L8.6431 6.87597C9.88371 6.45025 11.1876 6.23849 12.4992 6.24974C19.1877 6.24974 21.7789 11.0571 22.4063 12.4995C22.0289 13.3645 20.9489 15.4269 18.714 16.9469Z" fill="#323232"/>
</svg>
