<svg width="24" height="24" viewBox="0 0 24 24" fill="none" xmlns="http://www.w3.org/2000/svg">
<path d="M23.1673 14.6195V15.9986L14.5328 13.459C13.8923 13.2707 13.2507 13.7508 13.2507 14.4184V19.8837C13.2507 20.235 13.4349 20.5605 13.7362 20.7412L16.1673 22.1999L16.1673 23.0264L12.2432 22.0454C12.0839 22.0056 11.9174 22.0056 11.7581 22.0454L7.83398 23.0264V22.1999L10.2651 20.7412C10.5664 20.5605 10.7507 20.235 10.7507 19.8837V14.4184C10.7507 13.7508 10.109 13.2707 9.46849 13.459L0.833984 15.9986L0.833984 14.6195L10.2577 9.07613C10.5631 8.89645 10.7507 8.56855 10.7507 8.21419V2.0835C10.7507 1.39131 11.3085 0.833496 12.0007 0.833496C12.6928 0.833496 13.2507 1.39131 13.2507 2.0835V8.21419C13.2507 8.56855 13.4382 8.89645 13.7436 9.07612L23.1673 14.6195Z" stroke="black"/>
</svg>
