<svg width="28" height="25" viewBox="0 0 28 25" fill="none" xmlns="http://www.w3.org/2000/svg">
<path d="M0.967044 14.9032H3.24771V23.8012C3.24771 24.3257 3.68769 24.7546 4.22517 24.7546H10.9044C11.4419 24.7546 11.8819 24.3257 11.8819 23.8012V17.2865H15.9545V23.8012C15.9545 24.3257 16.3945 24.7546 16.9319 24.7546H23.2852C23.8227 24.7546 24.2627 24.3257 24.2627 23.8012V14.9032H27.0321C27.4231 14.9032 27.7815 14.6647 27.9283 14.3153C28.0748 13.9657 27.9933 13.5526 27.7165 13.2824L14.9773 0.682084C14.6025 0.31658 13.9835 0.30073 13.6088 0.666234L0.29931 13.2666C0.00607158 13.5368 -0.0754234 13.9501 0.0713137 14.3153C0.21758 14.6806 0.576059 14.9032 0.967044 14.9032ZM14.2601 2.70005L24.6862 12.9964H23.2852C22.7477 12.9964 22.308 13.4256 22.308 13.9498V22.8478H17.9094V16.3331C17.9094 15.8088 17.4697 15.3797 16.9319 15.3797H10.9044C10.3669 15.3797 9.92696 15.8088 9.92696 16.3331V22.8478H5.20263V13.9498C5.20263 13.4253 4.76266 12.9964 4.22517 12.9964H3.37796L14.2601 2.70005Z" fill="#323232"/>
</svg>
