<svg width="25" height="18" viewBox="0 0 25 18" fill="none" xmlns="http://www.w3.org/2000/svg">
<path d="M25 8.03572H21.4286V5.35714C21.4281 4.88369 21.2398 4.42976 20.905 4.09497C20.5702 3.76019 20.1163 3.5719 19.6429 3.57143H16.0714C15.598 3.5719 15.144 3.76019 14.8093 4.09497C14.4745 4.42976 14.2862 4.88369 14.2857 5.35714V8.03572H10.7143V1.78571C10.7138 1.31226 10.5255 0.85833 10.1907 0.523546C9.85596 0.188762 9.40203 0.000472747 8.92857 0H5.35714C4.88369 0.000472747 4.42976 0.188762 4.09497 0.523546C3.76019 0.85833 3.5719 1.31226 3.57143 1.78571V8.03572H0V9.82143H3.57143V16.0714C3.5719 16.5449 3.76019 16.9988 4.09497 17.3336C4.42976 17.6684 4.88369 17.8567 5.35714 17.8571H8.92857C9.40203 17.8567 9.85596 17.6684 10.1907 17.3336C10.5255 16.9988 10.7138 16.5449 10.7143 16.0714V9.82143H14.2857V12.5C14.2862 12.9735 14.4745 13.4274 14.8093 13.7622C15.144 14.097 15.598 14.2852 16.0714 14.2857H19.6429C20.1163 14.2852 20.5702 14.097 20.905 13.7622C21.2398 13.4274 21.4281 12.9735 21.4286 12.5V9.82143H25V8.03572ZM5.35714 16.0714V1.78571H8.92857L8.92946 16.0714H5.35714ZM16.0714 12.5V5.35714H19.6429L19.6437 12.5H16.0714Z" fill="black"/>
</svg>
