<svg width="25" height="25" viewBox="0 0 25 25" fill="none" xmlns="http://www.w3.org/2000/svg">
<path d="M17.8571 14.2857C17.3835 14.2857 16.9293 14.0976 16.5945 13.7627C16.2596 13.4278 16.0714 12.9736 16.0714 12.5C16.0714 12.0264 16.2596 11.5722 16.5945 11.2373C16.9293 10.9024 17.3835 10.7143 17.8571 10.7143C18.3307 10.7143 18.7849 10.9024 19.1198 11.2373C19.4547 11.5722 19.6429 12.0264 19.6429 12.5C19.6429 12.9736 19.4547 13.4278 19.1198 13.7627C18.7849 14.0976 18.3307 14.2857 17.8571 14.2857ZM16.0714 17.8571C16.0714 18.3307 16.2596 18.7849 16.5945 19.1198C16.9293 19.4547 17.3835 19.6429 17.8571 19.6429C18.3307 19.6429 18.7849 19.4547 19.1198 19.1198C19.4547 18.7849 19.6429 18.3307 19.6429 17.8571C19.6429 17.3835 19.4547 16.9293 19.1198 16.5945C18.7849 16.2596 18.3307 16.0714 17.8571 16.0714C17.3835 16.0714 16.9293 16.2596 16.5945 16.5945C16.2596 16.9293 16.0714 17.3835 16.0714 17.8571ZM12.5 14.2857C12.0264 14.2857 11.5722 14.0976 11.2373 13.7627C10.9024 13.4278 10.7143 12.9736 10.7143 12.5C10.7143 12.0264 10.9024 11.5722 11.2373 11.2373C11.5722 10.9024 12.0264 10.7143 12.5 10.7143C12.9736 10.7143 13.4278 10.9024 13.7627 11.2373C14.0976 11.5722 14.2857 12.0264 14.2857 12.5C14.2857 12.9736 14.0976 13.4278 13.7627 13.7627C13.4278 14.0976 12.9736 14.2857 12.5 14.2857ZM10.7143 17.8571C10.7143 18.3307 10.9024 18.7849 11.2373 19.1198C11.5722 19.4547 12.0264 19.6429 12.5 19.6429C12.9736 19.6429 13.4278 19.4547 13.7627 19.1198C14.0976 18.7849 14.2857 18.3307 14.2857 17.8571C14.2857 17.3835 14.0976 16.9293 13.7627 16.5945C13.4278 16.2596 12.9736 16.0714 12.5 16.0714C12.0264 16.0714 11.5722 16.2596 11.2373 16.5945C10.9024 16.9293 10.7143 17.3835 10.7143 17.8571ZM7.14286 14.2857C6.66926 14.2857 6.21505 14.0976 5.88017 13.7627C5.54528 13.4278 5.35714 12.9736 5.35714 12.5C5.35714 12.0264 5.54528 11.5722 5.88017 11.2373C6.21505 10.9024 6.66926 10.7143 7.14286 10.7143C7.61646 10.7143 8.07066 10.9024 8.40555 11.2373C8.74043 11.5722 8.92857 12.0264 8.92857 12.5C8.92857 12.9736 8.74043 13.4278 8.40555 13.7627C8.07066 14.0976 7.61646 14.2857 7.14286 14.2857ZM0 4.46429C0 3.28028 0.470343 2.14477 1.30756 1.30756C2.14477 0.470343 3.28028 0 4.46429 0H20.5357C21.7197 0 22.8552 0.470343 23.6924 1.30756C24.5297 2.14477 25 3.28028 25 4.46429V20.5357C25 21.7197 24.5297 22.8552 23.6924 23.6924C22.8552 24.5297 21.7197 25 20.5357 25H4.46429C3.28028 25 2.14477 24.5297 1.30756 23.6924C0.470343 22.8552 0 21.7197 0 20.5357V4.46429ZM23.2143 7.14286H1.78571V20.5357C1.78571 21.2461 2.06792 21.9274 2.57025 22.4298C3.07258 22.9321 3.75388 23.2143 4.46429 23.2143H20.5357C21.2461 23.2143 21.9274 22.9321 22.4298 22.4298C22.9321 21.9274 23.2143 21.2461 23.2143 20.5357V7.14286ZM20.5357 1.78571H4.46429C3.75388 1.78571 3.07258 2.06792 2.57025 2.57025C2.06792 3.07258 1.78571 3.75388 1.78571 4.46429V5.35714H23.2143V4.46429C23.2143 3.75388 22.9321 3.07258 22.4298 2.57025C21.9274 2.06792 21.2461 1.78571 20.5357 1.78571Z" fill="#0F62AB"/>
</svg>
