<svg width="23" height="24" viewBox="0 0 23 24" fill="none" xmlns="http://www.w3.org/2000/svg">
<path d="M20.25 0.75C20.913 0.75 21.5489 1.01339 22.0178 1.48223C22.4866 1.95107 22.75 2.58696 22.75 3.25V20.75C22.75 21.413 22.4866 22.0489 22.0178 22.5178C21.5489 22.9866 20.913 23.25 20.25 23.25H2.75C2.08696 23.25 1.45107 22.9866 0.982233 22.5178C0.513392 22.0489 0.25 21.413 0.25 20.75V3.25C0.25 2.58696 0.513392 1.95107 0.982233 1.48223C1.45107 1.01339 2.08696 0.75 2.75 0.75H20.25ZM20.25 3.25H2.75V20.75H20.25V3.25ZM11.5462 6.66125C11.885 5.57625 13.3463 5.47375 13.8588 6.43125L13.9238 6.56875L16.0963 12H17.75C18.0686 12.0004 18.375 12.1223 18.6067 12.3411C18.8384 12.5598 18.9778 12.8587 18.9965 13.1767C19.0151 13.4948 18.9117 13.808 18.7072 14.0523C18.5027 14.2966 18.2126 14.4536 17.8963 14.4913L17.75 14.5H15.2587C15.0324 14.5001 14.8101 14.4394 14.6153 14.3242C14.4205 14.2089 14.2602 14.0434 14.1513 13.845L14.0863 13.7075L12.895 10.7275L10.8275 17.3437C10.5037 18.3787 9.13375 18.535 8.56875 17.6625L8.49375 17.5312L6.97625 14.5H5.25C4.9314 14.4996 4.62496 14.3777 4.39329 14.1589C4.16162 13.9402 4.02221 13.6413 4.00354 13.3233C3.98486 13.0052 4.08834 12.692 4.29283 12.4477C4.49732 12.2034 4.78738 12.0464 5.10375 12.0087L5.25 12H7.7425C8.1675 12 8.56 12.2125 8.7925 12.5613L8.87125 12.6988L9.35625 13.6688L11.5462 6.66125Z" fill="black"/>
</svg>
