<svg width="27" height="20" viewBox="0 0 27 20" fill="none" xmlns="http://www.w3.org/2000/svg">
<path d="M24.2143 0.142822H2.78571C1.61785 0.185679 0.68571 1.11782 0.642853 2.28568V17.2857C0.68571 18.4535 1.61785 19.3857 2.78571 19.4285H24.2143C25.3821 19.3857 26.3143 18.4535 26.3571 17.2857V2.28568C26.3374 1.72364 26.1053 1.18998 25.7077 0.792306C25.31 0.394637 24.7763 0.162542 24.2143 0.142822ZM24.5204 17.4387H2.47959V2.07139H24.5204V17.4387ZM16.1786 4.42854C15.8827 4.42854 15.6429 4.66838 15.6429 4.96425C15.6429 5.26012 15.8827 5.49997 16.1786 5.49997H21.5357C21.8316 5.49997 22.0714 5.26012 22.0714 4.96425C22.0714 4.66838 21.8316 4.42854 21.5357 4.42854H16.1786ZM16.1786 6.57139C15.8827 6.57139 15.6429 6.81124 15.6429 7.10711C15.6429 7.40298 15.8827 7.64282 16.1786 7.64282H21.5357C21.8316 7.64282 22.0714 7.40298 22.0714 7.10711C22.0714 6.81124 21.8316 6.57139 21.5357 6.57139H16.1786ZM16.1786 8.71425C15.8827 8.71425 15.6429 8.9541 15.6429 9.24997C15.6429 9.54583 15.8827 9.78568 16.1786 9.78568H19.3929C19.6887 9.78568 19.9286 9.54583 19.9286 9.24997C19.9286 8.9541 19.6887 8.71425 19.3929 8.71425H16.1786Z" fill="#323232"/>
<path fill-rule="evenodd" clip-rule="evenodd" d="M9.2602 8.82087C9.5617 8.82087 9.86026 8.76148 10.1388 8.6461C10.4174 8.53072 10.6705 8.3616 10.8837 8.14841C11.0969 7.93521 11.266 7.68211 11.3814 7.40356C11.4967 7.125 11.5561 6.82645 11.5561 6.52495C11.5561 6.22344 11.4967 5.92489 11.3814 5.64634C11.266 5.36778 11.0969 5.11468 10.8837 4.90149C10.6705 4.68829 10.4174 4.51918 10.1388 4.4038C9.86026 4.28841 9.5617 4.22903 9.2602 4.22903C8.65128 4.22903 8.06731 4.47092 7.63674 4.90149C7.20617 5.33206 6.96428 5.91603 6.96428 6.52495C6.96428 7.13386 7.20617 7.71784 7.63674 8.14841C8.06731 8.57898 8.65128 8.82087 9.2602 8.82087ZM9.2602 9.58617C10.0721 9.58617 10.8507 9.26365 11.4248 8.68956C11.9989 8.11547 12.3214 7.33684 12.3214 6.52495C12.3214 5.71306 11.9989 4.93443 11.4248 4.36034C10.8507 3.78624 10.0721 3.46372 9.2602 3.46372C8.44831 3.46372 7.66968 3.78624 7.09559 4.36034C6.52149 4.93443 6.19897 5.71306 6.19897 6.52495C6.19897 7.33684 6.52149 8.11547 7.09559 8.68956C7.66968 9.26365 8.44831 9.58617 9.2602 9.58617Z" fill="#323232"/>
<path fill-rule="evenodd" clip-rule="evenodd" d="M14.2337 13.3432C14.2337 12.626 13.7493 12.0007 13.0622 11.8265C13.0069 11.8125 12.9503 11.8014 12.8925 11.7935C10.2078 11.4219 8.33131 11.3863 5.63169 11.7808C4.84802 11.8952 4.28475 12.5733 4.28475 13.3535V13.8368C4.28475 14.5544 4.76975 15.1801 5.45744 15.3538C5.51236 15.3677 5.56858 15.3786 5.62595 15.3866C8.31065 15.7581 10.1872 15.7937 12.8868 15.3992C13.6705 15.2848 14.2337 14.6067 14.2337 13.8265V13.3432ZM12.7886 12.5514C10.1659 12.1882 8.36249 12.1553 5.74323 12.538C5.34719 12.5957 5.05102 12.9413 5.05102 13.3534L5.05102 13.8375C5.04977 14.0294 5.11801 14.2153 5.24314 14.3608C5.35007 14.4851 5.49237 14.5728 5.65005 14.6129C5.67656 14.6196 5.70351 14.625 5.7308 14.6289C8.3535 14.9921 10.1569 15.025 12.7762 14.6423C13.1723 14.5845 13.4684 14.239 13.4684 13.8269L13.4694 13.3431C13.4706 13.1511 13.4024 12.9653 13.2773 12.8197C13.1701 12.6951 13.0274 12.6073 12.8694 12.5674C12.8429 12.5607 12.8159 12.5553 12.7886 12.5514Z" fill="#323232"/>
</svg>
