<svg width="25" height="25" viewBox="0 0 25 25" fill="none" xmlns="http://www.w3.org/2000/svg">
<path d="M22.5 5.5C23.225 5.5 23.8125 5.75 24.275 6.2375C24.75 6.75 25 7.3125 25 8V21.75C25 22.4375 24.75 23 24.275 23.5125C23.8125 24 23.225 24.25 22.5 24.25H2.5C1.775 24.25 1.1875 24 0.725 23.5125C0.25 23 0 22.4375 0 21.75V8C0 7.3125 0.25 6.75 0.725 6.2375C1.1875 5.75 1.775 5.5 2.5 5.5H7.5V3C7.5 2.275 7.75 1.6875 8.225 1.225C8.6875 0.75 9.275 0.5 10 0.5H15C15.725 0.5 16.3125 0.75 16.775 1.225C17.25 1.6875 17.5 2.275 17.5 3V5.5H22.5ZM2.5 8V21.75H22.5V8H2.5ZM15 5.5V3H10V5.5H15Z" fill="#323232"/>
</svg>
