<svg width="31" height="24" viewBox="0 0 31 24" fill="none" xmlns="http://www.w3.org/2000/svg">
<path d="M25.8125 2.625C26.0611 2.625 26.2996 2.72377 26.4754 2.89959C26.6512 3.0754 26.75 3.31386 26.75 3.5625V17.625H4.25V3.5625C4.25 3.31386 4.34877 3.0754 4.52459 2.89959C4.7004 2.72377 4.93886 2.625 5.1875 2.625H25.8125ZM5.1875 0.75C4.44158 0.75 3.72621 1.04632 3.19876 1.57376C2.67132 2.10121 2.375 2.81658 2.375 3.5625V19.5H28.625V3.5625C28.625 2.81658 28.3287 2.10121 27.8012 1.57376C27.2738 1.04632 26.5584 0.75 25.8125 0.75H5.1875ZM0.5 20.4375H30.5C30.5 21.1834 30.2037 21.8988 29.6762 22.4262C29.1488 22.9537 28.4334 23.25 27.6875 23.25H3.3125C2.56658 23.25 1.85121 22.9537 1.32376 22.4262C0.796316 21.8988 0.5 21.1834 0.5 20.4375Z" fill="#323232"/>
</svg>
