<svg width="27" height="15" viewBox="0 0 27 15" fill="none" xmlns="http://www.w3.org/2000/svg">
<path d="M23.1913 7.0498H20.2421C19.6898 7.0498 19.2512 6.60185 19.2935 6.05119C19.3762 4.97487 19.4333 4.0796 18.3538 3.6748L10.7045 0.908339C10.597 0.869474 10.4837 0.849316 10.3694 0.848741L1.64712 0.804861C1.09288 0.802073 0.64209 1.2506 0.64209 1.80485V13.6496C0.64209 14.2019 1.08981 14.6496 1.64209 14.6496H7.19131C7.74359 14.6496 8.19131 14.2019 8.19131 13.6496V13.4791C8.19131 12.8449 8.77411 12.3709 9.39502 12.5001L16.578 13.9947C16.751 14.0307 16.9304 14.0202 17.098 13.9643L25.715 11.092C25.7994 11.0639 25.8796 11.0246 25.9535 10.9753L26.2968 10.7465C26.575 10.561 26.7515 10.2471 26.7079 9.91561C26.4756 8.15003 25.0823 7.0498 23.1913 7.0498ZM6.64209 12.4496C6.64209 13.0019 6.19437 13.4496 5.64209 13.4496H2.84209C2.2898 13.4496 1.84209 13.0019 1.84209 12.4496V3.04961C1.84209 2.49732 2.28981 2.04961 2.84209 2.04961H5.64209C6.19438 2.04961 6.64209 2.49732 6.64209 3.04961V12.4496ZM17.1103 12.7634C16.9349 12.8198 16.7474 12.8266 16.5684 12.7832L8.95541 10.9351C8.50701 10.8262 8.19131 10.4247 8.19131 9.96332V3.04961C8.19131 2.49732 8.63902 2.04961 9.19131 2.04961H10.0676C10.183 2.04961 10.2976 2.06961 10.4063 2.10872L17.7421 4.74961C18.0876 4.91907 18.1385 5.48343 18.1174 6.02585C18.0955 6.58811 17.5782 7.03762 17.0161 7.01219C16.3327 6.98128 15.5234 6.93132 15.3163 6.8623L13.2171 6.1655C12.7534 6.01159 12.2603 6.30136 12.1691 6.78135C12.0957 7.16751 12.311 7.55043 12.679 7.68845L14.4421 8.34961C15.0796 8.56211 15.7421 8.66211 16.4171 8.66211H23.1913C23.4565 8.66211 23.9807 8.98012 24.4359 9.33658C24.9146 9.71141 24.7248 10.3159 24.146 10.5019L17.1103 12.7634Z" fill="black"/>
</svg>
