<svg width="26" height="26" viewBox="0 0 26 26" fill="none" xmlns="http://www.w3.org/2000/svg">
<path d="M18.6195 11.4684C18.7422 11.3138 18.7995 11.1174 18.7793 10.9212C18.7591 10.7249 18.6629 10.5443 18.5113 10.418C18.3598 10.2917 18.1648 10.2296 17.9681 10.2451C17.7714 10.2606 17.5885 10.3525 17.4586 10.501L15.6477 12.6737C15.2748 13.1221 15.044 13.3952 14.8556 13.5655C14.8066 13.6137 14.7513 13.655 14.6913 13.6885L14.6802 13.6935L14.6692 13.6885C14.6088 13.6551 14.5532 13.6137 14.5039 13.5655C14.3154 13.3942 14.0857 13.1221 13.7118 12.6737L13.4175 12.321C13.086 11.9229 12.7877 11.5651 12.5095 11.3132C12.2062 11.0391 11.8243 10.7952 11.3204 10.7952C10.8165 10.7952 10.4356 11.0391 10.1313 11.3132C9.85312 11.5651 9.55482 11.9229 9.22428 12.321L7.38009 14.532C7.31657 14.6083 7.2687 14.6963 7.2392 14.7911C7.20971 14.8859 7.19918 14.9856 7.20821 15.0845C7.22645 15.2841 7.32326 15.4684 7.47734 15.5967C7.63142 15.7249 7.83016 15.7868 8.02983 15.7685C8.22949 15.7503 8.41374 15.6535 8.54203 15.4994L10.353 13.3267C10.7258 12.8782 10.9566 12.6051 11.1451 12.4348C11.1941 12.3867 11.2493 12.3454 11.3093 12.3119L11.3204 12.3068L11.3315 12.3119C11.3918 12.3453 11.4474 12.3867 11.4968 12.4348C11.6852 12.6062 11.915 12.8782 12.2889 13.3267L12.5831 13.6794C12.9147 14.0775 13.213 14.4352 13.4911 14.6872C13.7944 14.9613 14.1764 15.2051 14.6802 15.2051C15.1841 15.2051 15.5651 14.9613 15.8694 14.6872C16.1475 14.4352 16.4458 14.0775 16.7764 13.6794L18.6195 11.4684Z" fill="#3F3F3F"/>
<path fill-rule="evenodd" clip-rule="evenodd" d="M12.9419 2.16663C10.615 2.16663 8.79198 2.16663 7.36904 2.3581C5.91385 2.5536 4.76501 2.96275 3.86307 3.86368C2.96113 4.76562 2.55299 5.91446 2.35749 7.37066C2.16602 8.79259 2.16602 10.6156 2.16602 12.9425V13.0574C2.16602 15.3843 2.16602 17.2073 2.35749 18.6303C2.55299 20.0855 2.96214 21.2343 3.86307 22.1362C4.76501 23.0382 5.91385 23.4463 7.37005 23.6418C8.79198 23.8333 10.615 23.8333 12.9419 23.8333H13.0568C15.3837 23.8333 17.2067 23.8333 18.6297 23.6418C20.0849 23.4463 21.2337 23.0372 22.1356 22.1362C23.0376 21.2343 23.4457 20.0855 23.6412 18.6293C23.8327 17.2073 23.8327 15.3843 23.8327 13.0574V12.9425C23.8327 10.6156 23.8327 8.79259 23.6412 7.36965C23.4457 5.91446 23.0366 4.76562 22.1356 3.86368C21.2337 2.96174 20.0849 2.5536 18.6287 2.3581C17.2067 2.16663 15.3837 2.16663 13.0568 2.16663H12.9419ZM4.93229 4.9329C5.50671 4.35849 6.28268 4.02895 7.5716 3.85562C8.88167 3.68027 10.6029 3.67825 12.9993 3.67825C15.3958 3.67825 17.117 3.68027 18.4271 3.85562C19.716 4.02895 20.493 4.35949 21.0674 4.9329C21.6408 5.50732 21.9704 6.28329 22.1437 7.57221C22.319 8.88228 22.3211 10.6035 22.3211 13C22.3211 15.3964 22.319 17.1176 22.1437 18.4277C21.9704 19.7166 21.6398 20.4936 21.0664 21.068C20.492 21.6414 19.716 21.971 18.4271 22.1443C17.117 22.3196 15.3958 22.3217 12.9993 22.3217C10.6029 22.3217 8.88167 22.3196 7.5716 22.1443C6.28268 21.971 5.50571 21.6404 4.93129 21.067C4.35788 20.4926 4.02834 19.7166 3.85501 18.4277C3.67966 17.1176 3.67764 15.3964 3.67764 13C3.67764 10.6035 3.67966 8.88228 3.85501 7.57221C4.02834 6.28329 4.35888 5.50732 4.93229 4.9329Z" fill="#3F3F3F"/>
</svg>
