<svg width="22" height="24" viewBox="0 0 22 24" fill="none" xmlns="http://www.w3.org/2000/svg">
<path d="M14.6429 24H21.5V17.1429H18.9286V13.7143C18.9281 13.2598 18.7474 12.824 18.426 12.5026C18.1046 12.1812 17.6688 12.0005 17.2143 12L12.0714 12V6.85714L14.6429 6.85714V0L7.78571 0L7.78571 6.85714L10.3571 6.85714V12L5.21428 12C4.75977 12.0005 4.324 12.1812 4.0026 12.5026C3.68121 12.824 3.50045 13.2598 3.5 13.7143V17.1429H0.928572V24H7.78571V17.1429H5.21428V13.7143L17.2143 13.7143V17.1429H14.6429V24ZM9.5 5.14286L9.5 1.71429L12.9286 1.71429L12.9286 5.14286H9.5ZM6.07143 18.8571V22.2857H2.64286V18.8571H6.07143ZM19.7857 18.8571V22.2857H16.3571V18.8571H19.7857Z" fill="#323232"/>
</svg>
