<svg width="25" height="24" viewBox="0 0 25 24" fill="none" xmlns="http://www.w3.org/2000/svg">
<path d="M10.1953 13.125H12.0703V11.5625L20 11.5625V9.6875L12.0703 9.6875V8.125H10.1953V13.125ZM5 11.5625L10.1953 11.5625V9.6875L5 9.6875V11.5625ZM8.75 23.125C8.39584 23.125 8.09875 23.005 7.85875 22.765C7.61875 22.525 7.49917 22.2283 7.5 21.875V20.625H2.5C1.8125 20.625 1.22375 20.38 0.733752 19.89C0.243752 19.4 -0.000831211 18.8117 2.12224e-06 18.125V3.125C2.12224e-06 2.4375 0.245002 1.84875 0.735002 1.35875C1.225 0.868752 1.81334 0.624169 2.5 0.625002H22.5C23.1875 0.625002 23.7763 0.870002 24.2663 1.36C24.7563 1.85 25.0008 2.43834 25 3.125V18.125C25 18.8125 24.755 19.4013 24.265 19.8913C23.775 20.3813 23.1867 20.6258 22.5 20.625H17.5V21.875C17.5 22.2292 17.38 22.5263 17.14 22.7663C16.9 23.0063 16.6033 23.1258 16.25 23.125H8.75ZM2.5 18.125H22.5V3.125H2.5V18.125Z" fill="#323232"/>
</svg>
