<svg width="25" height="26" viewBox="0 0 25 26" fill="none" xmlns="http://www.w3.org/2000/svg">
<path d="M24.5 15.786L24.5 17.3318L15.1572 14.5839C14.5167 14.3955 13.875 14.8756 13.875 15.5432V21.4669C13.875 21.8182 14.0593 22.1437 14.3605 22.3244L17 23.9081V24.8596L12.7425 23.7952C12.5833 23.7554 12.4167 23.7554 12.2575 23.7952L8 24.8596V23.9081L10.6395 22.3244C10.9407 22.1437 11.125 21.8182 11.125 21.4669V15.5432C11.125 14.8756 10.4833 14.3955 9.84284 14.5839L0.5 17.3318L0.5 15.786L10.632 9.82596C10.9375 9.64629 11.125 9.31839 11.125 8.96403V2.375C11.125 1.61364 11.7386 1 12.5 1C13.2614 1 13.875 1.61364 13.875 2.375V8.96403C13.875 9.31839 14.0625 9.64629 14.368 9.82596L24.5 15.786Z" stroke="#323232"/>
</svg>
