<svg width="19" height="21" viewBox="0 0 19 21" fill="none" xmlns="http://www.w3.org/2000/svg">
<mask id="path-1-inside-1_1238_17908" fill="white">
<path d="M11.624 15.5485C13.3116 12.6361 15.4446 8.54167 15.4446 6.43707C15.4446 2.8869 12.67 0 9.25798 0C5.84592 0 3.07132 2.8869 3.07132 6.43707C3.07132 8.54167 5.20437 12.6361 6.89201 15.5485C4.88972 15.7058 0.333496 16.2713 0.333496 18.1463C0.333496 19.9915 4.95919 20.8333 9.26207 20.8333C13.5609 20.8333 18.1906 19.9915 18.1906 18.1463C18.1866 16.2713 13.6262 15.7058 11.624 15.5485ZM3.92536 6.43707C3.92536 3.37585 6.31993 0.884354 9.25798 0.884354C12.2001 0.884354 14.5947 3.37585 14.5947 6.43707C14.5947 9.11139 10.5002 15.8206 9.25798 17.7934C8.01575 15.8206 3.92536 9.11139 3.92536 6.43707ZM9.25798 19.9447C4.0316 19.9447 1.18345 18.7543 1.18345 18.142C1.18345 17.6701 3.06315 16.6539 7.39463 16.3946C8.2078 17.7594 8.82483 18.7245 8.90656 18.8393C9.01689 18.9923 9.33971 19.1752 9.61349 18.8393C9.6993 18.733 10.3122 17.7594 11.1254 16.3946C15.4569 16.6539 17.3366 17.6658 17.3366 18.142C17.3325 18.7585 14.4844 19.9447 9.25798 19.9447Z"/>
<path d="M11.9508 6.43708C11.9508 4.88946 10.7454 3.63521 9.25796 3.63521C7.77055 3.63521 6.56509 4.88946 6.56509 6.43708C6.56509 7.98469 7.77055 9.23895 9.25796 9.23895C10.7454 9.23895 11.9508 7.98469 11.9508 6.43708ZM7.41504 6.43708C7.41504 5.3784 8.24047 4.51956 9.25796 4.51956C10.2755 4.51956 11.1009 5.3784 11.1009 6.43708C11.1009 7.49575 10.2755 8.35459 9.25796 8.35459C8.24047 8.35459 7.41504 7.49575 7.41504 6.43708Z"/>
</mask>
<path d="M11.624 15.5485C13.3116 12.6361 15.4446 8.54167 15.4446 6.43707C15.4446 2.8869 12.67 0 9.25798 0C5.84592 0 3.07132 2.8869 3.07132 6.43707C3.07132 8.54167 5.20437 12.6361 6.89201 15.5485C4.88972 15.7058 0.333496 16.2713 0.333496 18.1463C0.333496 19.9915 4.95919 20.8333 9.26207 20.8333C13.5609 20.8333 18.1906 19.9915 18.1906 18.1463C18.1866 16.2713 13.6262 15.7058 11.624 15.5485ZM3.92536 6.43707C3.92536 3.37585 6.31993 0.884354 9.25798 0.884354C12.2001 0.884354 14.5947 3.37585 14.5947 6.43707C14.5947 9.11139 10.5002 15.8206 9.25798 17.7934C8.01575 15.8206 3.92536 9.11139 3.92536 6.43707ZM9.25798 19.9447C4.0316 19.9447 1.18345 18.7543 1.18345 18.142C1.18345 17.6701 3.06315 16.6539 7.39463 16.3946C8.2078 17.7594 8.82483 18.7245 8.90656 18.8393C9.01689 18.9923 9.33971 19.1752 9.61349 18.8393C9.6993 18.733 10.3122 17.7594 11.1254 16.3946C15.4569 16.6539 17.3366 17.6658 17.3366 18.142C17.3325 18.7585 14.4844 19.9447 9.25798 19.9447Z" fill="#E9994A"/>
<path d="M11.9508 6.43708C11.9508 4.88946 10.7454 3.63521 9.25796 3.63521C7.77055 3.63521 6.56509 4.88946 6.56509 6.43708C6.56509 7.98469 7.77055 9.23895 9.25796 9.23895C10.7454 9.23895 11.9508 7.98469 11.9508 6.43708ZM7.41504 6.43708C7.41504 5.3784 8.24047 4.51956 9.25796 4.51956C10.2755 4.51956 11.1009 5.3784 11.1009 6.43708C11.1009 7.49575 10.2755 8.35459 9.25796 8.35459C8.24047 8.35459 7.41504 7.49575 7.41504 6.43708Z" fill="#E9994A"/>
<path d="M11.624 15.5485L10.7587 15.0471L9.96258 16.421L11.5456 16.5454L11.624 15.5485ZM6.89201 15.5485L6.97034 16.5454L8.55339 16.421L7.75724 15.0471L6.89201 15.5485ZM18.1906 18.1463H19.1906L19.1906 18.1441L18.1906 18.1463ZM9.25798 17.7934L8.41177 18.3262L9.25798 19.6701L10.1042 18.3262L9.25798 17.7934ZM7.39463 16.3946L8.2537 15.8827L7.94225 15.36L7.33486 15.3963L7.39463 16.3946ZM8.90656 18.8393L8.0919 19.4193L8.09534 19.424L8.90656 18.8393ZM9.61349 18.8393L10.3886 19.4711L10.3916 19.4674L9.61349 18.8393ZM11.1254 16.3946L11.1852 15.3963L10.5778 15.36L10.2663 15.8827L11.1254 16.3946ZM17.3366 18.142L18.3366 18.1486V18.142H17.3366ZM12.4892 16.0498C13.3407 14.5804 14.3147 12.7957 15.0788 11.1008C15.8198 9.45732 16.4446 7.72855 16.4446 6.43707H14.4446C14.4446 7.2502 14.003 8.62091 13.2555 10.2788C12.5312 11.8854 11.5949 13.6042 10.7587 15.0471L12.4892 16.0498ZM16.4446 6.43707C16.4446 2.37239 13.2594 -1 9.25798 -1V1C12.0807 1 14.4446 3.40142 14.4446 6.43707H16.4446ZM9.25798 -1C5.25661 -1 2.07132 2.37239 2.07132 6.43707H4.07132C4.07132 3.40142 6.43523 1 9.25798 1V-1ZM2.07132 6.43707C2.07132 7.72855 2.6962 9.45732 3.43717 11.1008C4.20128 12.7957 5.17527 14.5804 6.02678 16.0498L7.75724 15.0471C6.92111 13.6042 5.98476 11.8854 5.26043 10.2788C4.51297 8.62091 4.07132 7.2502 4.07132 6.43707H2.07132ZM6.81369 14.5515C5.79518 14.6316 4.07553 14.8181 2.58817 15.2414C1.85116 15.4512 1.09651 15.7392 0.505346 16.1508C-0.0853927 16.562 -0.666504 17.2135 -0.666504 18.1463H1.3335C1.3335 18.1415 1.32191 18.0192 1.64804 17.7922C1.97374 17.5654 2.48328 17.3507 3.13563 17.165C4.42695 16.7975 5.98655 16.6227 6.97034 16.5454L6.81369 14.5515ZM-0.666504 18.1463C-0.666504 19.0835 -0.0669585 19.7471 0.563671 20.1732C1.19989 20.603 2.03712 20.9164 2.93225 21.1495C4.73708 21.6194 7.06087 21.8333 9.26207 21.8333V19.8333C7.16039 19.8333 5.01989 19.6264 3.43616 19.214C2.637 19.006 2.04888 18.7629 1.68332 18.516C1.50465 18.3953 1.4126 18.2958 1.36922 18.2316C1.33246 18.1772 1.3335 18.1544 1.3335 18.1463H-0.666504ZM9.26207 21.8333C11.4613 21.8333 13.785 21.6194 15.5903 21.1495C16.4856 20.9165 17.3232 20.6031 17.9596 20.1734C18.5904 19.7475 19.1906 19.0838 19.1906 18.1463H17.1906C17.1906 18.1542 17.1917 18.1769 17.1549 18.2313C17.1115 18.2955 17.0194 18.395 16.8405 18.5158C16.4746 18.7629 15.886 19.0059 15.0865 19.214C13.5022 19.6264 11.3616 19.8333 9.26207 19.8333V21.8333ZM19.1906 18.1441C19.1886 17.2116 18.6061 16.5609 18.015 16.1502C17.4231 15.739 16.6678 15.4511 15.9301 15.2413C14.4413 14.8181 12.7208 14.6316 11.7023 14.5515L11.5456 16.5454C12.5294 16.6227 14.0902 16.7975 15.3832 17.1651C16.0363 17.3508 16.547 17.5656 16.8739 17.7927C17.2015 18.0203 17.1906 18.1435 17.1906 18.1484L19.1906 18.1441ZM4.92536 6.43707C4.92536 3.88986 6.90973 1.88435 9.25798 1.88435V-0.115646C5.73013 -0.115646 2.92536 2.86184 2.92536 6.43707H4.92536ZM9.25798 1.88435C11.6108 1.88435 13.5947 3.89037 13.5947 6.43707H15.5947C15.5947 2.86133 12.7894 -0.115646 9.25798 -0.115646V1.88435ZM13.5947 6.43707C13.5947 6.907 13.4007 7.67967 13.0036 8.69952C12.6189 9.68781 12.0865 10.8029 11.5057 11.9155C10.3451 14.1387 9.02723 16.2831 8.41177 17.2605L10.1042 18.3262C10.731 17.3308 12.0815 15.1342 13.2786 12.8411C13.8767 11.6955 14.4456 10.5086 14.8674 9.42508C15.2769 8.37316 15.5947 7.30431 15.5947 6.43707H13.5947ZM10.1042 17.2605C9.48891 16.2834 8.17211 14.139 7.01246 11.9158C6.43214 10.8032 5.90026 9.68813 5.51588 8.69982C5.11924 7.67999 4.92536 6.90719 4.92536 6.43707H2.92536C2.92536 7.30412 3.24277 8.37284 3.6519 9.42478C4.07329 10.5082 4.64165 11.6952 5.2392 12.8408C6.43531 15.1339 7.78481 17.3305 8.41177 18.3262L10.1042 17.2605ZM9.25798 18.9447C6.71518 18.9447 4.78783 18.6545 3.52511 18.3085C2.88824 18.134 2.45456 17.9545 2.20337 17.8121C2.07489 17.7392 2.03225 17.6974 2.03511 17.7003C2.03813 17.7034 2.06941 17.7357 2.10295 17.7999C2.13733 17.8657 2.18345 17.9837 2.18345 18.142H0.183447C0.183447 18.6009 0.43767 18.9254 0.596967 19.0902C0.775992 19.2754 0.996696 19.427 1.21689 19.5519C1.66306 19.8048 2.26806 20.0378 2.99653 20.2374C4.46448 20.6397 6.5744 20.9447 9.25798 20.9447V18.9447ZM2.18345 18.142C2.18345 18.4086 2.0588 18.5604 2.04789 18.5738C2.02616 18.6004 2.03311 18.5836 2.10675 18.5335C2.25121 18.4354 2.53149 18.2908 2.98797 18.1349C3.89157 17.8262 5.35086 17.5187 7.4544 17.3928L7.33486 15.3963C5.10691 15.5297 3.46061 15.86 2.3415 16.2422C1.78661 16.4318 1.32625 16.6459 0.982912 16.8791C0.812652 16.9948 0.638903 17.1368 0.497457 17.3104C0.366832 17.4707 0.183447 17.7574 0.183447 18.142H2.18345ZM6.53555 16.9064C7.34572 18.2662 7.98284 19.266 8.09192 19.4193L9.7212 18.2593C9.72332 18.2623 9.71425 18.2493 9.68749 18.2085C9.66376 18.1724 9.6318 18.1231 9.59199 18.061C9.51252 17.9371 9.4045 17.7665 9.27313 17.5561C9.01047 17.1354 8.65654 16.5588 8.2537 15.8827L6.53555 16.9064ZM8.09534 19.424C8.27853 19.6782 8.60132 19.9322 9.02392 20.0072C9.5381 20.0985 10.0412 19.8973 10.3886 19.4711L8.83837 18.2075C8.86009 18.1808 8.92289 18.1168 9.03727 18.0718C9.1537 18.0261 9.2729 18.0202 9.37354 18.038C9.46708 18.0546 9.53552 18.0895 9.58027 18.1194C9.62286 18.1478 9.67087 18.1895 9.71778 18.2545L8.09534 19.424ZM10.3916 19.4674C10.4546 19.3894 10.5424 19.2543 10.612 19.1463C10.6983 19.0125 10.8115 18.8331 10.946 18.6168C11.2153 18.1835 11.5751 17.5935 11.9845 16.9064L10.2663 15.8827C9.86257 16.5604 9.50931 17.1396 9.2474 17.5609C9.11626 17.7719 9.00933 17.9412 8.93112 18.0625C8.83629 18.2096 8.81529 18.236 8.8354 18.2111L10.3916 19.4674ZM11.0657 17.3928C13.1696 17.5187 14.629 17.8253 15.5325 18.1334C15.989 18.2891 16.2688 18.4335 16.4128 18.5314C16.4862 18.5813 16.4928 18.598 16.4709 18.571C16.4592 18.5566 16.3366 18.406 16.3366 18.142H18.3366C18.3366 17.759 18.1552 17.4725 18.0238 17.3106C17.8822 17.1362 17.7082 16.9937 17.5376 16.8777C17.1938 16.6438 16.733 16.4297 16.1781 16.2405C15.0589 15.8588 13.4127 15.5297 11.1852 15.3963L11.0657 17.3928ZM16.3366 18.1354C16.3377 17.9794 16.3834 17.8633 16.4174 17.7987C16.4506 17.7356 16.4813 17.7039 16.484 17.7011C16.4863 17.6987 16.4432 17.7409 16.3146 17.8137C16.0629 17.9563 15.6289 18.1357 14.9918 18.31C13.7286 18.6555 11.8011 18.9447 9.25798 18.9447V20.9447C11.9412 20.9447 14.0511 20.6408 15.5195 20.2391C16.2482 20.0398 16.8537 19.807 17.3006 19.5538C17.5212 19.4288 17.742 19.2771 17.9213 19.0919C18.0814 18.9264 18.3336 18.6041 18.3366 18.1486L16.3366 18.1354ZM12.9508 6.43708C12.9508 4.37494 11.3347 2.63521 9.25796 2.63521V4.63521C10.1561 4.63521 10.9508 5.40397 10.9508 6.43708H12.9508ZM9.25796 2.63521C7.18124 2.63521 5.56509 4.37494 5.56509 6.43708H7.56509C7.56509 5.40397 8.35986 4.63521 9.25796 4.63521V2.63521ZM5.56509 6.43708C5.56509 8.49921 7.18124 10.2389 9.25796 10.2389V8.23895C8.35986 8.23895 7.56509 7.47018 7.56509 6.43708H5.56509ZM9.25796 10.2389C11.3347 10.2389 12.9508 8.49921 12.9508 6.43708H10.9508C10.9508 7.47018 10.1561 8.23895 9.25796 8.23895V10.2389ZM8.41504 6.43708C8.41504 5.89292 8.82979 5.51956 9.25796 5.51956V3.51956C7.65116 3.51956 6.41504 4.86388 6.41504 6.43708H8.41504ZM9.25796 5.51956C9.68614 5.51956 10.1009 5.89292 10.1009 6.43708H12.1009C12.1009 4.86388 10.8648 3.51956 9.25796 3.51956V5.51956ZM10.1009 6.43708C10.1009 6.98123 9.68614 7.35459 9.25796 7.35459V9.35459C10.8648 9.35459 12.1009 8.01027 12.1009 6.43708H10.1009ZM9.25796 7.35459C8.82979 7.35459 8.41504 6.98123 8.41504 6.43708H6.41504C6.41504 8.01027 7.65116 9.35459 9.25796 9.35459V7.35459Z" fill="#E9994A" mask="url(#path-1-inside-1_1238_17908)"/>
</svg>
