<svg width="15" height="15" viewBox="0 0 15 15" fill="none" xmlns="http://www.w3.org/2000/svg">
<g clip-path="url(#clip0_425_24161)">
<path d="M10.7143 8.57143C10.4301 8.57143 10.1576 8.45855 9.95667 8.25761C9.75574 8.05668 9.64286 7.78416 9.64286 7.5C9.64286 7.21584 9.75574 6.94332 9.95667 6.74239C10.1576 6.54145 10.4301 6.42857 10.7143 6.42857C10.9984 6.42857 11.271 6.54145 11.4719 6.74239C11.6728 6.94332 11.7857 7.21584 11.7857 7.5C11.7857 7.78416 11.6728 8.05668 11.4719 8.25761C11.271 8.45855 10.9984 8.57143 10.7143 8.57143ZM9.64286 10.7143C9.64286 10.9984 9.75574 11.271 9.95667 11.4719C10.1576 11.6728 10.4301 11.7857 10.7143 11.7857C10.9984 11.7857 11.271 11.6728 11.4719 11.4719C11.6728 11.271 11.7857 10.9984 11.7857 10.7143C11.7857 10.4301 11.6728 10.1576 11.4719 9.95667C11.271 9.75574 10.9984 9.64286 10.7143 9.64286C10.4301 9.64286 10.1576 9.75574 9.95667 9.95667C9.75574 10.1576 9.64286 10.4301 9.64286 10.7143ZM7.5 8.57143C7.21584 8.57143 6.94332 8.45855 6.74239 8.25761C6.54145 8.05668 6.42857 7.78416 6.42857 7.5C6.42857 7.21584 6.54145 6.94332 6.74239 6.74239C6.94332 6.54145 7.21584 6.42857 7.5 6.42857C7.78416 6.42857 8.05668 6.54145 8.25761 6.74239C8.45855 6.94332 8.57143 7.21584 8.57143 7.5C8.57143 7.78416 8.45855 8.05668 8.25761 8.25761C8.05668 8.45855 7.78416 8.57143 7.5 8.57143ZM6.42857 10.7143C6.42857 10.9984 6.54145 11.271 6.74239 11.4719C6.94332 11.6728 7.21584 11.7857 7.5 11.7857C7.78416 11.7857 8.05668 11.6728 8.25761 11.4719C8.45855 11.271 8.57143 10.9984 8.57143 10.7143C8.57143 10.4301 8.45855 10.1576 8.25761 9.95667C8.05668 9.75574 7.78416 9.64286 7.5 9.64286C7.21584 9.64286 6.94332 9.75574 6.74239 9.95667C6.54145 10.1576 6.42857 10.4301 6.42857 10.7143ZM4.28571 8.57143C4.00155 8.57143 3.72903 8.45855 3.5281 8.25761C3.32717 8.05668 3.21429 7.78416 3.21429 7.5C3.21429 7.21584 3.32717 6.94332 3.5281 6.74239C3.72903 6.54145 4.00155 6.42857 4.28571 6.42857C4.56987 6.42857 4.8424 6.54145 5.04333 6.74239C5.24426 6.94332 5.35714 7.21584 5.35714 7.5C5.35714 7.78416 5.24426 8.05668 5.04333 8.25761C4.8424 8.45855 4.56987 8.57143 4.28571 8.57143ZM0 2.67857C0 1.96817 0.282206 1.28686 0.784535 0.784535C1.28686 0.282206 1.96817 0 2.67857 0H12.3214C13.0318 0 13.7131 0.282206 14.2155 0.784535C14.7178 1.28686 15 1.96817 15 2.67857V12.3214C15 13.0318 14.7178 13.7131 14.2155 14.2155C13.7131 14.7178 13.0318 15 12.3214 15H2.67857C1.96817 15 1.28686 14.7178 0.784535 14.2155C0.282206 13.7131 0 13.0318 0 12.3214V2.67857ZM13.9286 4.28571H1.07143V12.3214C1.07143 12.7477 1.24075 13.1565 1.54215 13.4578C1.84355 13.7592 2.25233 13.9286 2.67857 13.9286H12.3214C12.7477 13.9286 13.1565 13.7592 13.4578 13.4578C13.7592 13.1565 13.9286 12.7477 13.9286 12.3214V4.28571ZM12.3214 1.07143H2.67857C2.25233 1.07143 1.84355 1.24075 1.54215 1.54215C1.24075 1.84355 1.07143 2.25233 1.07143 2.67857V3.21429H13.9286V2.67857C13.9286 2.25233 13.7592 1.84355 13.4578 1.54215C13.1565 1.24075 12.7477 1.07143 12.3214 1.07143Z" fill="#323232"/>
</g>
<defs>
<clipPath id="clip0_425_24161">
<rect width="15" height="15" fill="white"/>
</clipPath>
</defs>
</svg>
