<svg width="25" height="28" viewBox="0 0 25 28" fill="none" xmlns="http://www.w3.org/2000/svg">
<path d="M23.3244 19.1473C22.8169 17.6111 22.5575 16.0042 22.556 14.3869V10.3905C22.5929 7.85829 21.6865 5.40239 20.0122 3.49795C18.3435 1.59052 16.0276 0.364077 13.5081 0.0536656C12.1158 -0.0903465 10.6994 0.0536656 9.3553 0.507704C8.01116 0.937739 6.78739 1.6558 5.75621 2.61388C4.71988 3.54725 3.89389 4.68913 3.33273 5.96416C2.76879 7.2387 2.47444 8.61547 2.46807 10.0085V14.4089C2.46513 16.0196 2.20578 17.6196 1.6997 19.1493L0.5 22.6876L1.46096 24.0037H8.49264C8.49264 25.0558 8.92397 26.0838 9.66827 26.8279C10.4106 27.568 11.4437 28 12.501 28C13.5563 28 14.5874 27.57 15.3317 26.8279C16.076 26.0858 16.5094 25.0558 16.5094 24.0037H23.541L24.5 22.6876L23.3244 19.1473ZM13.9154 25.4418C13.7308 25.6295 13.5108 25.779 13.2681 25.8816C13.0253 25.9842 12.7647 26.038 12.501 26.0398C12.2369 26.038 11.9757 25.984 11.7326 25.8811C11.4895 25.7781 11.2693 25.6281 11.0846 25.4398C10.896 25.2559 10.7457 25.0367 10.6424 24.7947C10.5391 24.5527 10.4849 24.2927 10.4828 24.0297H14.4931C14.5015 24.2921 14.4546 24.5534 14.3554 24.7966C14.2562 25.0398 14.107 25.2596 13.9174 25.4418H13.9154ZM2.85125 22.0215L3.59554 19.7933C4.17596 18.0574 4.47595 16.2406 4.48429 14.4109V10.0085C4.48429 8.8824 4.72503 7.78231 5.18043 6.77623C5.63584 5.74814 6.28383 4.83807 7.12443 4.096C7.96502 3.33194 8.95005 2.75589 10.0053 2.42186C11.0846 2.06183 12.2121 1.94182 13.3155 2.06183C15.3378 2.32695 17.1919 3.32347 18.5256 4.86207C19.8597 6.40258 20.5768 8.37961 20.5398 10.4145V14.4349C20.5398 16.253 20.8287 18.0712 21.4285 19.8173L22.1728 22.0435H2.85326V22.0195L2.85125 22.0215Z" fill="black"/>
</svg>
