<svg width="25" height="26" viewBox="0 0 25 26" fill="none" xmlns="http://www.w3.org/2000/svg">
<path d="M13.75 0.537598V3.0626C19.2375 3.7376 23.125 8.7251 22.45 14.2126C21.875 18.7626 18.3 22.3751 13.75 22.9126V25.4126C20.625 24.7251 25.625 18.6251 24.9375 11.7501C24.375 5.8126 19.6625 1.1251 13.75 0.537598ZM11.25 0.575098C8.8125 0.812598 6.4875 1.7501 4.5875 3.3251L6.375 5.1751C7.775 4.0501 9.4625 3.3251 11.25 3.0751V0.575098ZM2.825 5.0876C1.26207 6.98428 0.300252 9.30395 0.0625 11.7501H2.5625C2.8 9.9751 3.5 8.2876 4.6125 6.8751L2.825 5.0876ZM16.875 8.6251L10.775 14.7251L8.125 12.0751L6.8 13.4001L10.775 17.3751L18.2 9.9501L16.875 8.6251ZM0.075 14.2501C0.325 16.7001 1.2875 19.0126 2.8375 20.9126L4.6125 19.1251C3.50866 17.7121 2.80494 16.0283 2.575 14.2501H0.075ZM6.375 20.9626L4.5875 22.6751C6.48097 24.2535 8.79909 25.2364 11.25 25.5001V23.0001C9.47175 22.7702 7.78801 22.0664 6.375 20.9626Z" fill="black"/>
</svg>
