<svg width="24" height="24" viewBox="0 0 24 24" fill="none" xmlns="http://www.w3.org/2000/svg">
<rect opacity="0.28" width="24" height="24" fill="white"/>
<path d="M23.4 8.97676C23.4 9.60924 23.2954 10.233 23.093 10.8328C22.1419 15.1066 13.9142 20.2769 13.5639 20.4972C13.4547 20.5646 13.332 20.6 13.2069 20.6C13.0818 20.6 12.9574 20.5686 12.8482 20.4972C12.7541 20.4365 10.436 18.9842 8.08565 16.988C7.80425 16.747 7.77466 16.3315 8.01101 16.0535C8.25274 15.7775 8.67062 15.7438 8.9527 15.9784C10.7046 17.4643 12.475 18.6655 13.2102 19.1494C15.681 17.5501 21.1361 13.4812 21.8047 10.4797C21.9796 9.94967 22.0582 9.46739 22.0582 8.9781C22.0582 7.27458 21.1239 5.70356 19.6195 4.88118C17.6982 3.82282 15.1262 4.31078 13.7206 5.99294C13.4682 6.29666 12.9484 6.29666 12.6909 5.99294C11.2812 4.30978 8.7113 3.82549 6.7923 4.87918C5.28313 5.7039 4.34884 7.27358 4.34884 8.97542C4.34884 9.46172 4.43188 9.94567 4.58619 10.4136C4.68537 10.8515 4.87498 11.2794 5.11637 11.7233H9.01392L10.3522 8.6697C10.4669 8.40837 10.7406 8.24382 11.0223 8.27319C11.3094 8.29789 11.5485 8.50282 11.6123 8.78118L12.5977 12.9168L13.8722 10.8418C13.9919 10.6449 14.2088 10.5244 14.4418 10.5244H16.8606C17.2291 10.5244 17.528 10.8205 17.528 11.1876C17.528 11.5527 17.2288 11.8505 16.8606 11.8505H14.8166L12.8966 14.9818C12.7742 15.1814 12.5581 15.3006 12.3288 15.3006C12.2925 15.3006 12.2571 15.2978 12.2242 15.2929C11.9553 15.2498 11.7434 15.0529 11.6789 14.7919L10.7782 11.0247L10.0669 12.6508C9.96064 12.8948 9.71952 13.049 9.45392 13.049H1.66735C1.3019 13.049 1 12.7522 1 12.3865C1 12.021 1.3019 11.7236 1.66735 11.7236H3.62568C3.4865 11.3946 3.37421 11.0751 3.30462 10.7661C3.11837 10.2297 3.0175 9.6049 3.0175 8.97576C3.0175 6.78962 4.21537 4.77638 6.1505 3.71835C8.39192 2.48744 11.3575 2.8746 13.2099 4.60249C15.057 2.87427 18.0209 2.48777 20.266 3.71835C22.1988 4.7747 23.4 6.78896 23.4 8.97676Z" fill="#0F62AB"/>
</svg>
