<svg width="20" height="15" viewBox="0 0 20 15" fill="none" xmlns="http://www.w3.org/2000/svg">
<path d="M18.3333 0H1.66667C0.758333 0.0333333 0.0333333 0.758333 0 1.66667V13.3333C0.0333333 14.2417 0.758333 14.9667 1.66667 15H18.3333C19.2417 14.9667 19.9667 14.2417 20 13.3333V1.66667C19.9847 1.22952 19.8041 0.814453 19.4948 0.505154C19.1855 0.195856 18.7705 0.0153379 18.3333 0ZM18.5714 13.4524H1.42857V1.5H18.5714V13.4524ZM12.0833 3.33333C11.8532 3.33333 11.6667 3.51988 11.6667 3.75C11.6667 3.98012 11.8532 4.16667 12.0833 4.16667H16.25C16.4801 4.16667 16.6667 3.98012 16.6667 3.75C16.6667 3.51988 16.4801 3.33333 16.25 3.33333H12.0833ZM12.0833 5C11.8532 5 11.6667 5.18655 11.6667 5.41667C11.6667 5.64679 11.8532 5.83333 12.0833 5.83333H16.25C16.4801 5.83333 16.6667 5.64679 16.6667 5.41667C16.6667 5.18655 16.4801 5 16.25 5H12.0833ZM12.0833 6.66667C11.8532 6.66667 11.6667 6.85321 11.6667 7.08333C11.6667 7.31345 11.8532 7.5 12.0833 7.5H14.5833C14.8135 7.5 15 7.31345 15 7.08333C15 6.85321 14.8135 6.66667 14.5833 6.66667H12.0833Z" fill="#E9994A"/>
<path fill-rule="evenodd" clip-rule="evenodd" d="M6.70238 6.74959C6.93688 6.74959 7.16909 6.7034 7.38574 6.61366C7.6024 6.52392 7.79925 6.39239 7.96507 6.22657C8.13089 6.06075 8.26243 5.86389 8.35217 5.64724C8.44191 5.43059 8.4881 5.19838 8.4881 4.96388C8.4881 4.72937 8.44191 4.49717 8.35217 4.28051C8.26243 4.06386 8.13089 3.867 7.96507 3.70118C7.79925 3.53537 7.6024 3.40383 7.38574 3.31409C7.16909 3.22435 6.93688 3.17816 6.70238 3.17816C6.22878 3.17816 5.77458 3.3663 5.43969 3.70118C5.1048 4.03607 4.91667 4.49027 4.91667 4.96388C4.91667 5.43748 5.1048 5.89168 5.43969 6.22657C5.77458 6.56145 6.22878 6.74959 6.70238 6.74959ZM6.70238 7.34483C7.33385 7.34483 7.93945 7.09398 8.38597 6.64746C8.83248 6.20095 9.08333 5.59534 9.08333 4.96388C9.08333 4.33241 8.83248 3.7268 8.38597 3.28029C7.93945 2.83377 7.33385 2.58292 6.70238 2.58292C6.07091 2.58292 5.46531 2.83377 5.01879 3.28029C4.57228 3.7268 4.32143 4.33241 4.32143 4.96388C4.32143 5.59534 4.57228 6.20095 5.01879 6.64746C5.46531 7.09398 6.07091 7.34483 6.70238 7.34483Z" fill="#E9994A"/>
<path fill-rule="evenodd" clip-rule="evenodd" d="M10.5707 10.267C10.5707 9.70917 10.1939 9.22276 9.6595 9.08734C9.61649 9.07644 9.57246 9.06781 9.52753 9.06161C7.43943 8.77262 5.97991 8.74494 3.88021 9.05178C3.27068 9.14077 2.83259 9.66815 2.83259 10.275V10.6509C2.83259 11.209 3.20981 11.6956 3.74468 11.8307C3.7874 11.8415 3.83112 11.8501 3.87574 11.8563C5.96384 12.1452 7.42336 12.1729 9.52307 11.8661C10.1326 11.7771 10.5707 11.2497 10.5707 10.6429V10.267ZM9.44673 9.65108C7.40685 9.36864 6.00417 9.34304 3.96696 9.64066C3.65893 9.6856 3.42857 9.95435 3.42857 10.2749L3.42857 10.6514C3.4276 10.8006 3.48068 10.9452 3.578 11.0584C3.66117 11.1551 3.77185 11.2234 3.89448 11.2545C3.91511 11.2597 3.93607 11.2639 3.95729 11.267C5.99717 11.5494 7.39985 11.575 9.43705 11.2774C9.74509 11.2324 9.97545 10.9637 9.97545 10.6432L9.97619 10.2669C9.97716 10.1176 9.92408 9.97301 9.82676 9.85982C9.74342 9.7629 9.63246 9.6946 9.50953 9.66353C9.48891 9.65832 9.46795 9.65416 9.44673 9.65108Z" fill="#E9994A"/>
</svg>
