<svg width="27" height="27" viewBox="0 0 27 27" fill="none" xmlns="http://www.w3.org/2000/svg">
<path d="M1 6C1 4.67392 1.52678 3.40215 2.46447 2.46447C3.40215 1.52678 4.67392 1 6 1H21C22.3261 1 23.5979 1.52678 24.5355 2.46447C25.4732 3.40215 26 4.67392 26 6V21C26 22.3261 25.4732 23.5979 24.5355 24.5355C23.5979 25.4732 22.3261 26 21 26H6C4.67392 26 3.40215 25.4732 2.46447 24.5355C1.52678 23.5979 1 22.3261 1 21V6Z" stroke="black" stroke-width="2" stroke-linecap="round" stroke-linejoin="round"/>
<path d="M9.125 12.25C10.8509 12.25 12.25 10.8509 12.25 9.125C12.25 7.39911 10.8509 6 9.125 6C7.39911 6 6 7.39911 6 9.125C6 10.8509 7.39911 12.25 9.125 12.25Z" stroke="black" stroke-width="2" stroke-linecap="round" stroke-linejoin="round"/>
<path d="M16.6575 14.2761L6 25.9999H21.1662C22.4482 25.9999 23.6777 25.4906 24.5842 24.5841C25.4907 23.6776 26 22.4481 26 21.1661V20.9999C26 20.4174 25.7813 20.1936 25.3875 19.7624L20.35 14.2686C20.1152 14.0125 19.8296 13.8082 19.5115 13.6686C19.1933 13.529 18.8495 13.4573 18.5021 13.458C18.1547 13.4587 17.8112 13.5318 17.4936 13.6727C17.176 13.8136 16.8912 14.0191 16.6575 14.2761V14.2761Z" stroke="black" stroke-width="2" stroke-linecap="round" stroke-linejoin="round"/>
</svg>
