<svg width="24" height="24" viewBox="0 0 24 24" fill="none" xmlns="http://www.w3.org/2000/svg">
<mask id="path-1-inside-1_10510_35958" fill="white">
<path d="M17.2001 22.4001H6.00009C5.77931 22.4001 5.60011 22.5793 5.60011 22.8001V23.6001C5.60011 23.8209 5.77931 24.0001 6.00009 24.0001C6.22088 24.0001 6.40008 23.8209 6.40008 23.6001V23.2001H17.2001C17.4209 23.2001 17.6001 23.0209 17.6001 22.8001C17.6001 22.5793 17.4209 22.4001 17.2001 22.4001Z"/>
<path d="M8.80004 10C8.80004 10.2208 8.97925 10.4 9.20003 10.4H10.8001C11.0208 10.4 11.2001 10.2208 11.2001 10V7.60001C11.2001 7.37923 11.0208 7.20002 10.8001 7.20002H9.20008C8.97929 7.20002 8.80009 7.37923 8.80009 7.60001L8.80004 10ZM9.60006 8.00004H10.4001V9.60003H9.60006V8.00004Z"/>
<path d="M5.2 4.80001H0.399986C0.179204 4.80001 0 4.97922 0 5.2V13.2C0 13.4208 0.179204 13.6 0.399986 13.6C0.620767 13.6 0.799971 13.4208 0.799971 13.2V5.60003H5.2C5.42078 5.60003 5.59999 5.42083 5.59999 5.20005C5.59999 4.97927 5.42083 4.80001 5.2 4.80001Z"/>
<path d="M19.2 19.6C19.2 19.8208 19.3792 20 19.6 20H21.2C21.4208 20 21.6 19.8208 21.6 19.6V17.2C21.6 16.9793 21.4208 16.8 21.2 16.8H19.6C19.3792 16.8 19.2 16.9793 19.2 17.2V19.6ZM20 17.6001H20.8001V19.2001H20V17.6001Z"/>
<path d="M2.00002 14.4C0.0227812 14.4 0 19.5481 0 19.6C0 20.566 0.688408 21.3737 1.59999 21.5597V23.6001C1.59999 23.8209 1.77919 24.0001 1.99997 24.0001C2.22076 24.0001 2.39996 23.8209 2.39996 23.6001V21.5597C3.31154 21.3737 3.99995 20.566 3.99995 19.6C4 19.5481 3.97721 14.4 2.00002 14.4ZM2.00002 20.8C1.33843 20.8 0.800018 20.2616 0.800018 19.6C0.800018 17.6072 1.33524 15.2 2.00002 15.2C2.6648 15.2 3.20002 17.6072 3.20002 19.6C3.20002 20.2616 2.66162 20.8 2.00002 20.8Z"/>
<path d="M4.39995 12H2.79992C2.57914 12 2.39993 12.1792 2.39993 12.4V13.2C2.39993 13.4208 2.57914 13.6 2.79992 13.6C3.0207 13.6 3.1999 13.4208 3.1999 13.2V12.8001H3.99992V14.8001C3.99992 15.0209 4.17913 15.2001 4.39991 15.2001C4.62069 15.2001 4.79989 15.0209 4.79989 14.8001V12.4001C4.79994 12.1792 4.62074 12 4.39995 12Z"/>
<path d="M19.6 10.4H21.2C21.4208 10.4 21.6 10.2208 21.6 10.0001V7.60005C21.6 7.37927 21.4208 7.20007 21.2 7.20007H19.6C19.3792 7.20007 19.2 7.37927 19.2 7.60005V10.0001C19.2 10.2208 19.3792 10.4 19.6 10.4ZM20 8.00004H20.8001V9.60003H20V8.00004Z"/>
<path d="M4.39995 7.20002H2.79992C2.57914 7.20002 2.39993 7.37923 2.39993 7.60001V10C2.39993 10.2208 2.57914 10.4 2.79992 10.4H4.39991C4.62069 10.4 4.79989 10.2208 4.79989 10V7.60001C4.79994 7.37923 4.62074 7.20002 4.39995 7.20002ZM3.99992 9.60003H3.19995V8.00004H3.99997L3.99992 9.60003Z"/>
<path d="M12.8001 10C12.8001 10.2208 12.9793 10.4 13.2001 10.4H14.8001C15.0208 10.4 15.2 10.2208 15.2 10V7.60001C15.2 7.37923 15.0208 7.20002 14.8001 7.20002H13.2001C12.9793 7.20002 12.8001 7.37923 12.8001 7.60001V10ZM13.6001 8.00004H14.4001V9.60003H13.6001V8.00004Z"/>
<path d="M23.6 4.80001H18.8C18.5792 4.80001 18.4 4.97922 18.4 5.2C18.4 5.42078 18.5792 5.59999 18.8 5.59999H23.2V21.6737C23.0744 21.6288 22.9412 21.6001 22.8 21.6001C22.7309 21.6001 22.662 21.6061 22.5944 21.6181C22.3184 21.1209 21.7933 20.8 21.2001 20.8C20.6069 20.8 20.0817 21.1209 19.8057 21.6181C19.7381 21.6061 19.6693 21.6001 19.6001 21.6001C18.9385 21.6001 18.4001 22.1385 18.4001 22.8001C18.4001 23.4617 18.9385 24.0001 19.6001 24.0001H22.8C23.4616 24.0001 24 23.4617 24 22.8001V5.2C24 4.97922 23.8208 4.80001 23.6 4.80001ZM22.8 23.2001H19.6C19.3796 23.2001 19.2 23.0205 19.2 22.8001C19.2 22.5797 19.3796 22.4001 19.6 22.4001C19.6768 22.4001 19.7496 22.4221 19.8168 22.4653C19.9264 22.5357 20.0632 22.5485 20.184 22.4997C20.3048 22.4509 20.394 22.3461 20.4232 22.2193C20.5076 21.8549 20.8272 21.6001 21.2 21.6001C21.5728 21.6001 21.8924 21.8549 21.9768 22.2193C22.006 22.3461 22.0952 22.4509 22.216 22.4997C22.3364 22.5485 22.4736 22.5357 22.5832 22.4653C22.8436 22.2973 23.2 22.5029 23.2 22.8001C23.2 23.0205 23.0204 23.2001 22.8 23.2001Z"/>
<path d="M13.2001 5.60003H14.8001C15.0208 5.60003 15.2 5.42083 15.2 5.20005V2.80004C15.2 2.57926 15.0208 2.40005 14.8001 2.40005H13.2001C12.9793 2.40005 12.8001 2.57926 12.8001 2.80004V5.20005C12.8001 5.42083 12.9793 5.60003 13.2001 5.60003ZM13.6001 3.20002H14.4001V4.80001H13.6001V3.20002Z"/>
<path d="M12.8001 14.8C12.8001 15.0208 12.9793 15.2 13.2001 15.2H14.8001C15.0208 15.2 15.2 15.0208 15.2 14.8V12.4C15.2 12.1792 15.0208 12 14.8001 12H13.2001C12.9793 12 12.8001 12.1792 12.8001 12.4V14.8ZM13.6001 12.8001H14.4001V14.4H13.6001V12.8001Z"/>
<path d="M9.20008 5.60003H10.8001C11.0209 5.60003 11.2001 5.42083 11.2001 5.20005V2.80004C11.2001 2.57926 11.0209 2.40005 10.8001 2.40005H9.20008C8.9793 2.40005 8.8001 2.57926 8.8001 2.80004V5.20005C8.80005 5.42083 8.97925 5.60003 9.20008 5.60003ZM9.60007 3.20002H10.4001V4.80001H9.60007V3.20002Z"/>
<path d="M11.7161 19.3161C11.6441 19.3921 11.6001 19.4961 11.6001 19.6001C11.6001 19.7041 11.6441 19.8081 11.7161 19.8841C11.7921 19.9561 11.8961 20.0001 12.0001 20.0001C12.1041 20.0001 12.2081 19.9561 12.2841 19.8841C12.3561 19.8081 12.4001 19.7041 12.4001 19.6001C12.4001 19.4961 12.3561 19.3921 12.2841 19.3161C12.1321 19.168 11.8681 19.168 11.7161 19.3161Z"/>
<path d="M8.80004 14.8C8.80004 15.0208 8.97925 15.2 9.20003 15.2H10.8001C11.0208 15.2 11.2001 15.0208 11.2001 14.8V12.4C11.2001 12.1792 11.0208 12 10.8001 12H9.20008C8.97929 12 8.80009 12.1792 8.80009 12.4L8.80004 14.8ZM9.60006 12.8001H10.4001V14.4H9.60006V12.8001Z"/>
<path d="M8.00004 17.2C8.00004 17.4208 8.17925 17.6 8.40003 17.6H9.60003V21.2C9.60003 21.4208 9.77924 21.6 10 21.6C10.2208 21.6 10.4 21.4208 10.4 21.2V17.6H13.6V21.2C13.6 21.4208 13.7792 21.6 14 21.6C14.2208 21.6 14.4 21.4208 14.4 21.2V17.6H15.6C15.8208 17.6 16 17.4208 16 17.2C16 16.9793 15.8208 16.8 15.6 16.8H8.40003C8.17925 16.8 8.00004 16.9793 8.00004 17.2Z"/>
<path d="M19.2 14.8C19.2 15.0208 19.3792 15.2 19.6 15.2H21.2C21.4208 15.2 21.6 15.0208 21.6 14.8V12.4C21.6 12.1792 21.4208 12 21.2 12H19.6C19.3792 12 19.2 12.1792 19.2 12.4V14.8ZM20 12.8001H20.8001V14.4H20V12.8001Z"/>
<path d="M17.2 0H6.79997C6.57918 0 6.39998 0.179204 6.39998 0.399986V21.2C6.39998 21.4208 6.57918 21.6 6.79997 21.6C7.02075 21.6 7.19995 21.4208 7.19995 21.2V0.799971H16.8V21.2C16.8 21.4208 16.9792 21.6 17.2 21.6C17.4207 21.6 17.6 21.4208 17.6 21.2V0.399986C17.6 0.179204 17.4208 0 17.2 0Z"/>
</mask>
<path d="M17.2001 22.4001H6.00009C5.77931 22.4001 5.60011 22.5793 5.60011 22.8001V23.6001C5.60011 23.8209 5.77931 24.0001 6.00009 24.0001C6.22088 24.0001 6.40008 23.8209 6.40008 23.6001V23.2001H17.2001C17.4209 23.2001 17.6001 23.0209 17.6001 22.8001C17.6001 22.5793 17.4209 22.4001 17.2001 22.4001Z" fill="#283237"/>
<path d="M8.80004 10C8.80004 10.2208 8.97925 10.4 9.20003 10.4H10.8001C11.0208 10.4 11.2001 10.2208 11.2001 10V7.60001C11.2001 7.37923 11.0208 7.20002 10.8001 7.20002H9.20008C8.97929 7.20002 8.80009 7.37923 8.80009 7.60001L8.80004 10ZM9.60006 8.00004H10.4001V9.60003H9.60006V8.00004Z" fill="#283237"/>
<path d="M5.2 4.80001H0.399986C0.179204 4.80001 0 4.97922 0 5.2V13.2C0 13.4208 0.179204 13.6 0.399986 13.6C0.620767 13.6 0.799971 13.4208 0.799971 13.2V5.60003H5.2C5.42078 5.60003 5.59999 5.42083 5.59999 5.20005C5.59999 4.97927 5.42083 4.80001 5.2 4.80001Z" fill="#283237"/>
<path d="M19.2 19.6C19.2 19.8208 19.3792 20 19.6 20H21.2C21.4208 20 21.6 19.8208 21.6 19.6V17.2C21.6 16.9793 21.4208 16.8 21.2 16.8H19.6C19.3792 16.8 19.2 16.9793 19.2 17.2V19.6ZM20 17.6001H20.8001V19.2001H20V17.6001Z" fill="#283237"/>
<path d="M2.00002 14.4C0.0227812 14.4 0 19.5481 0 19.6C0 20.566 0.688408 21.3737 1.59999 21.5597V23.6001C1.59999 23.8209 1.77919 24.0001 1.99997 24.0001C2.22076 24.0001 2.39996 23.8209 2.39996 23.6001V21.5597C3.31154 21.3737 3.99995 20.566 3.99995 19.6C4 19.5481 3.97721 14.4 2.00002 14.4ZM2.00002 20.8C1.33843 20.8 0.800018 20.2616 0.800018 19.6C0.800018 17.6072 1.33524 15.2 2.00002 15.2C2.6648 15.2 3.20002 17.6072 3.20002 19.6C3.20002 20.2616 2.66162 20.8 2.00002 20.8Z" fill="#283237"/>
<path d="M4.39995 12H2.79992C2.57914 12 2.39993 12.1792 2.39993 12.4V13.2C2.39993 13.4208 2.57914 13.6 2.79992 13.6C3.0207 13.6 3.1999 13.4208 3.1999 13.2V12.8001H3.99992V14.8001C3.99992 15.0209 4.17913 15.2001 4.39991 15.2001C4.62069 15.2001 4.79989 15.0209 4.79989 14.8001V12.4001C4.79994 12.1792 4.62074 12 4.39995 12Z" fill="#283237"/>
<path d="M19.6 10.4H21.2C21.4208 10.4 21.6 10.2208 21.6 10.0001V7.60005C21.6 7.37927 21.4208 7.20007 21.2 7.20007H19.6C19.3792 7.20007 19.2 7.37927 19.2 7.60005V10.0001C19.2 10.2208 19.3792 10.4 19.6 10.4ZM20 8.00004H20.8001V9.60003H20V8.00004Z" fill="#283237"/>
<path d="M4.39995 7.20002H2.79992C2.57914 7.20002 2.39993 7.37923 2.39993 7.60001V10C2.39993 10.2208 2.57914 10.4 2.79992 10.4H4.39991C4.62069 10.4 4.79989 10.2208 4.79989 10V7.60001C4.79994 7.37923 4.62074 7.20002 4.39995 7.20002ZM3.99992 9.60003H3.19995V8.00004H3.99997L3.99992 9.60003Z" fill="#283237"/>
<path d="M12.8001 10C12.8001 10.2208 12.9793 10.4 13.2001 10.4H14.8001C15.0208 10.4 15.2 10.2208 15.2 10V7.60001C15.2 7.37923 15.0208 7.20002 14.8001 7.20002H13.2001C12.9793 7.20002 12.8001 7.37923 12.8001 7.60001V10ZM13.6001 8.00004H14.4001V9.60003H13.6001V8.00004Z" fill="#283237"/>
<path d="M23.6 4.80001H18.8C18.5792 4.80001 18.4 4.97922 18.4 5.2C18.4 5.42078 18.5792 5.59999 18.8 5.59999H23.2V21.6737C23.0744 21.6288 22.9412 21.6001 22.8 21.6001C22.7309 21.6001 22.662 21.6061 22.5944 21.6181C22.3184 21.1209 21.7933 20.8 21.2001 20.8C20.6069 20.8 20.0817 21.1209 19.8057 21.6181C19.7381 21.6061 19.6693 21.6001 19.6001 21.6001C18.9385 21.6001 18.4001 22.1385 18.4001 22.8001C18.4001 23.4617 18.9385 24.0001 19.6001 24.0001H22.8C23.4616 24.0001 24 23.4617 24 22.8001V5.2C24 4.97922 23.8208 4.80001 23.6 4.80001ZM22.8 23.2001H19.6C19.3796 23.2001 19.2 23.0205 19.2 22.8001C19.2 22.5797 19.3796 22.4001 19.6 22.4001C19.6768 22.4001 19.7496 22.4221 19.8168 22.4653C19.9264 22.5357 20.0632 22.5485 20.184 22.4997C20.3048 22.4509 20.394 22.3461 20.4232 22.2193C20.5076 21.8549 20.8272 21.6001 21.2 21.6001C21.5728 21.6001 21.8924 21.8549 21.9768 22.2193C22.006 22.3461 22.0952 22.4509 22.216 22.4997C22.3364 22.5485 22.4736 22.5357 22.5832 22.4653C22.8436 22.2973 23.2 22.5029 23.2 22.8001C23.2 23.0205 23.0204 23.2001 22.8 23.2001Z" fill="#283237"/>
<path d="M13.2001 5.60003H14.8001C15.0208 5.60003 15.2 5.42083 15.2 5.20005V2.80004C15.2 2.57926 15.0208 2.40005 14.8001 2.40005H13.2001C12.9793 2.40005 12.8001 2.57926 12.8001 2.80004V5.20005C12.8001 5.42083 12.9793 5.60003 13.2001 5.60003ZM13.6001 3.20002H14.4001V4.80001H13.6001V3.20002Z" fill="#283237"/>
<path d="M12.8001 14.8C12.8001 15.0208 12.9793 15.2 13.2001 15.2H14.8001C15.0208 15.2 15.2 15.0208 15.2 14.8V12.4C15.2 12.1792 15.0208 12 14.8001 12H13.2001C12.9793 12 12.8001 12.1792 12.8001 12.4V14.8ZM13.6001 12.8001H14.4001V14.4H13.6001V12.8001Z" fill="#283237"/>
<path d="M9.20008 5.60003H10.8001C11.0209 5.60003 11.2001 5.42083 11.2001 5.20005V2.80004C11.2001 2.57926 11.0209 2.40005 10.8001 2.40005H9.20008C8.9793 2.40005 8.8001 2.57926 8.8001 2.80004V5.20005C8.80005 5.42083 8.97925 5.60003 9.20008 5.60003ZM9.60007 3.20002H10.4001V4.80001H9.60007V3.20002Z" fill="#283237"/>
<path d="M11.7161 19.3161C11.6441 19.3921 11.6001 19.4961 11.6001 19.6001C11.6001 19.7041 11.6441 19.8081 11.7161 19.8841C11.7921 19.9561 11.8961 20.0001 12.0001 20.0001C12.1041 20.0001 12.2081 19.9561 12.2841 19.8841C12.3561 19.8081 12.4001 19.7041 12.4001 19.6001C12.4001 19.4961 12.3561 19.3921 12.2841 19.3161C12.1321 19.168 11.8681 19.168 11.7161 19.3161Z" fill="#283237"/>
<path d="M8.80004 14.8C8.80004 15.0208 8.97925 15.2 9.20003 15.2H10.8001C11.0208 15.2 11.2001 15.0208 11.2001 14.8V12.4C11.2001 12.1792 11.0208 12 10.8001 12H9.20008C8.97929 12 8.80009 12.1792 8.80009 12.4L8.80004 14.8ZM9.60006 12.8001H10.4001V14.4H9.60006V12.8001Z" fill="#283237"/>
<path d="M8.00004 17.2C8.00004 17.4208 8.17925 17.6 8.40003 17.6H9.60003V21.2C9.60003 21.4208 9.77924 21.6 10 21.6C10.2208 21.6 10.4 21.4208 10.4 21.2V17.6H13.6V21.2C13.6 21.4208 13.7792 21.6 14 21.6C14.2208 21.6 14.4 21.4208 14.4 21.2V17.6H15.6C15.8208 17.6 16 17.4208 16 17.2C16 16.9793 15.8208 16.8 15.6 16.8H8.40003C8.17925 16.8 8.00004 16.9793 8.00004 17.2Z" fill="#283237"/>
<path d="M19.2 14.8C19.2 15.0208 19.3792 15.2 19.6 15.2H21.2C21.4208 15.2 21.6 15.0208 21.6 14.8V12.4C21.6 12.1792 21.4208 12 21.2 12H19.6C19.3792 12 19.2 12.1792 19.2 12.4V14.8ZM20 12.8001H20.8001V14.4H20V12.8001Z" fill="#283237"/>
<path d="M17.2 0H6.79997C6.57918 0 6.39998 0.179204 6.39998 0.399986V21.2C6.39998 21.4208 6.57918 21.6 6.79997 21.6C7.02075 21.6 7.19995 21.4208 7.19995 21.2V0.799971H16.8V21.2C16.8 21.4208 16.9792 21.6 17.2 21.6C17.4207 21.6 17.6 21.4208 17.6 21.2V0.399986C17.6 0.179204 17.4208 0 17.2 0Z" fill="#283237"/>
<path d="M17.2001 22.4001H6.00009C5.77931 22.4001 5.60011 22.5793 5.60011 22.8001V23.6001C5.60011 23.8209 5.77931 24.0001 6.00009 24.0001C6.22088 24.0001 6.40008 23.8209 6.40008 23.6001V23.2001H17.2001C17.4209 23.2001 17.6001 23.0209 17.6001 22.8001C17.6001 22.5793 17.4209 22.4001 17.2001 22.4001Z" stroke="#283237" stroke-width="2" mask="url(#path-1-inside-1_10510_35958)"/>
<path d="M8.80004 10C8.80004 10.2208 8.97925 10.4 9.20003 10.4H10.8001C11.0208 10.4 11.2001 10.2208 11.2001 10V7.60001C11.2001 7.37923 11.0208 7.20002 10.8001 7.20002H9.20008C8.97929 7.20002 8.80009 7.37923 8.80009 7.60001L8.80004 10ZM9.60006 8.00004H10.4001V9.60003H9.60006V8.00004Z" stroke="#283237" stroke-width="2" mask="url(#path-1-inside-1_10510_35958)"/>
<path d="M5.2 4.80001H0.399986C0.179204 4.80001 0 4.97922 0 5.2V13.2C0 13.4208 0.179204 13.6 0.399986 13.6C0.620767 13.6 0.799971 13.4208 0.799971 13.2V5.60003H5.2C5.42078 5.60003 5.59999 5.42083 5.59999 5.20005C5.59999 4.97927 5.42083 4.80001 5.2 4.80001Z" stroke="#283237" stroke-width="2" mask="url(#path-1-inside-1_10510_35958)"/>
<path d="M19.2 19.6C19.2 19.8208 19.3792 20 19.6 20H21.2C21.4208 20 21.6 19.8208 21.6 19.6V17.2C21.6 16.9793 21.4208 16.8 21.2 16.8H19.6C19.3792 16.8 19.2 16.9793 19.2 17.2V19.6ZM20 17.6001H20.8001V19.2001H20V17.6001Z" stroke="#283237" stroke-width="2" mask="url(#path-1-inside-1_10510_35958)"/>
<path d="M2.00002 14.4C0.0227812 14.4 0 19.5481 0 19.6C0 20.566 0.688408 21.3737 1.59999 21.5597V23.6001C1.59999 23.8209 1.77919 24.0001 1.99997 24.0001C2.22076 24.0001 2.39996 23.8209 2.39996 23.6001V21.5597C3.31154 21.3737 3.99995 20.566 3.99995 19.6C4 19.5481 3.97721 14.4 2.00002 14.4ZM2.00002 20.8C1.33843 20.8 0.800018 20.2616 0.800018 19.6C0.800018 17.6072 1.33524 15.2 2.00002 15.2C2.6648 15.2 3.20002 17.6072 3.20002 19.6C3.20002 20.2616 2.66162 20.8 2.00002 20.8Z" stroke="#283237" stroke-width="2" mask="url(#path-1-inside-1_10510_35958)"/>
<path d="M4.39995 12H2.79992C2.57914 12 2.39993 12.1792 2.39993 12.4V13.2C2.39993 13.4208 2.57914 13.6 2.79992 13.6C3.0207 13.6 3.1999 13.4208 3.1999 13.2V12.8001H3.99992V14.8001C3.99992 15.0209 4.17913 15.2001 4.39991 15.2001C4.62069 15.2001 4.79989 15.0209 4.79989 14.8001V12.4001C4.79994 12.1792 4.62074 12 4.39995 12Z" stroke="#283237" stroke-width="2" mask="url(#path-1-inside-1_10510_35958)"/>
<path d="M19.6 10.4H21.2C21.4208 10.4 21.6 10.2208 21.6 10.0001V7.60005C21.6 7.37927 21.4208 7.20007 21.2 7.20007H19.6C19.3792 7.20007 19.2 7.37927 19.2 7.60005V10.0001C19.2 10.2208 19.3792 10.4 19.6 10.4ZM20 8.00004H20.8001V9.60003H20V8.00004Z" stroke="#283237" stroke-width="2" mask="url(#path-1-inside-1_10510_35958)"/>
<path d="M4.39995 7.20002H2.79992C2.57914 7.20002 2.39993 7.37923 2.39993 7.60001V10C2.39993 10.2208 2.57914 10.4 2.79992 10.4H4.39991C4.62069 10.4 4.79989 10.2208 4.79989 10V7.60001C4.79994 7.37923 4.62074 7.20002 4.39995 7.20002ZM3.99992 9.60003H3.19995V8.00004H3.99997L3.99992 9.60003Z" stroke="#283237" stroke-width="2" mask="url(#path-1-inside-1_10510_35958)"/>
<path d="M12.8001 10C12.8001 10.2208 12.9793 10.4 13.2001 10.4H14.8001C15.0208 10.4 15.2 10.2208 15.2 10V7.60001C15.2 7.37923 15.0208 7.20002 14.8001 7.20002H13.2001C12.9793 7.20002 12.8001 7.37923 12.8001 7.60001V10ZM13.6001 8.00004H14.4001V9.60003H13.6001V8.00004Z" stroke="#283237" stroke-width="2" mask="url(#path-1-inside-1_10510_35958)"/>
<path d="M23.6 4.80001H18.8C18.5792 4.80001 18.4 4.97922 18.4 5.2C18.4 5.42078 18.5792 5.59999 18.8 5.59999H23.2V21.6737C23.0744 21.6288 22.9412 21.6001 22.8 21.6001C22.7309 21.6001 22.662 21.6061 22.5944 21.6181C22.3184 21.1209 21.7933 20.8 21.2001 20.8C20.6069 20.8 20.0817 21.1209 19.8057 21.6181C19.7381 21.6061 19.6693 21.6001 19.6001 21.6001C18.9385 21.6001 18.4001 22.1385 18.4001 22.8001C18.4001 23.4617 18.9385 24.0001 19.6001 24.0001H22.8C23.4616 24.0001 24 23.4617 24 22.8001V5.2C24 4.97922 23.8208 4.80001 23.6 4.80001ZM22.8 23.2001H19.6C19.3796 23.2001 19.2 23.0205 19.2 22.8001C19.2 22.5797 19.3796 22.4001 19.6 22.4001C19.6768 22.4001 19.7496 22.4221 19.8168 22.4653C19.9264 22.5357 20.0632 22.5485 20.184 22.4997C20.3048 22.4509 20.394 22.3461 20.4232 22.2193C20.5076 21.8549 20.8272 21.6001 21.2 21.6001C21.5728 21.6001 21.8924 21.8549 21.9768 22.2193C22.006 22.3461 22.0952 22.4509 22.216 22.4997C22.3364 22.5485 22.4736 22.5357 22.5832 22.4653C22.8436 22.2973 23.2 22.5029 23.2 22.8001C23.2 23.0205 23.0204 23.2001 22.8 23.2001Z" stroke="#283237" stroke-width="2" mask="url(#path-1-inside-1_10510_35958)"/>
<path d="M13.2001 5.60003H14.8001C15.0208 5.60003 15.2 5.42083 15.2 5.20005V2.80004C15.2 2.57926 15.0208 2.40005 14.8001 2.40005H13.2001C12.9793 2.40005 12.8001 2.57926 12.8001 2.80004V5.20005C12.8001 5.42083 12.9793 5.60003 13.2001 5.60003ZM13.6001 3.20002H14.4001V4.80001H13.6001V3.20002Z" stroke="#283237" stroke-width="2" mask="url(#path-1-inside-1_10510_35958)"/>
<path d="M12.8001 14.8C12.8001 15.0208 12.9793 15.2 13.2001 15.2H14.8001C15.0208 15.2 15.2 15.0208 15.2 14.8V12.4C15.2 12.1792 15.0208 12 14.8001 12H13.2001C12.9793 12 12.8001 12.1792 12.8001 12.4V14.8ZM13.6001 12.8001H14.4001V14.4H13.6001V12.8001Z" stroke="#283237" stroke-width="2" mask="url(#path-1-inside-1_10510_35958)"/>
<path d="M9.20008 5.60003H10.8001C11.0209 5.60003 11.2001 5.42083 11.2001 5.20005V2.80004C11.2001 2.57926 11.0209 2.40005 10.8001 2.40005H9.20008C8.9793 2.40005 8.8001 2.57926 8.8001 2.80004V5.20005C8.80005 5.42083 8.97925 5.60003 9.20008 5.60003ZM9.60007 3.20002H10.4001V4.80001H9.60007V3.20002Z" stroke="#283237" stroke-width="2" mask="url(#path-1-inside-1_10510_35958)"/>
<path d="M11.7161 19.3161C11.6441 19.3921 11.6001 19.4961 11.6001 19.6001C11.6001 19.7041 11.6441 19.8081 11.7161 19.8841C11.7921 19.9561 11.8961 20.0001 12.0001 20.0001C12.1041 20.0001 12.2081 19.9561 12.2841 19.8841C12.3561 19.8081 12.4001 19.7041 12.4001 19.6001C12.4001 19.4961 12.3561 19.3921 12.2841 19.3161C12.1321 19.168 11.8681 19.168 11.7161 19.3161Z" stroke="#283237" stroke-width="2" mask="url(#path-1-inside-1_10510_35958)"/>
<path d="M8.80004 14.8C8.80004 15.0208 8.97925 15.2 9.20003 15.2H10.8001C11.0208 15.2 11.2001 15.0208 11.2001 14.8V12.4C11.2001 12.1792 11.0208 12 10.8001 12H9.20008C8.97929 12 8.80009 12.1792 8.80009 12.4L8.80004 14.8ZM9.60006 12.8001H10.4001V14.4H9.60006V12.8001Z" stroke="#283237" stroke-width="2" mask="url(#path-1-inside-1_10510_35958)"/>
<path d="M8.00004 17.2C8.00004 17.4208 8.17925 17.6 8.40003 17.6H9.60003V21.2C9.60003 21.4208 9.77924 21.6 10 21.6C10.2208 21.6 10.4 21.4208 10.4 21.2V17.6H13.6V21.2C13.6 21.4208 13.7792 21.6 14 21.6C14.2208 21.6 14.4 21.4208 14.4 21.2V17.6H15.6C15.8208 17.6 16 17.4208 16 17.2C16 16.9793 15.8208 16.8 15.6 16.8H8.40003C8.17925 16.8 8.00004 16.9793 8.00004 17.2Z" stroke="#283237" stroke-width="2" mask="url(#path-1-inside-1_10510_35958)"/>
<path d="M19.2 14.8C19.2 15.0208 19.3792 15.2 19.6 15.2H21.2C21.4208 15.2 21.6 15.0208 21.6 14.8V12.4C21.6 12.1792 21.4208 12 21.2 12H19.6C19.3792 12 19.2 12.1792 19.2 12.4V14.8ZM20 12.8001H20.8001V14.4H20V12.8001Z" stroke="#283237" stroke-width="2" mask="url(#path-1-inside-1_10510_35958)"/>
<path d="M17.2 0H6.79997C6.57918 0 6.39998 0.179204 6.39998 0.399986V21.2C6.39998 21.4208 6.57918 21.6 6.79997 21.6C7.02075 21.6 7.19995 21.4208 7.19995 21.2V0.799971H16.8V21.2C16.8 21.4208 16.9792 21.6 17.2 21.6C17.4207 21.6 17.6 21.4208 17.6 21.2V0.399986C17.6 0.179204 17.4208 0 17.2 0Z" stroke="#283237" stroke-width="2" mask="url(#path-1-inside-1_10510_35958)"/>
</svg>
