<svg width="25" height="25" viewBox="0 0 25 25" fill="none" xmlns="http://www.w3.org/2000/svg">
<path d="M11.4583 9.37516H13.5416V7.29183H11.4583M12.5 20.8335C7.90623 20.8335 4.16665 17.0939 4.16665 12.5002C4.16665 7.90641 7.90623 4.16683 12.5 4.16683C17.0937 4.16683 20.8333 7.90641 20.8333 12.5002C20.8333 17.0939 17.0937 20.8335 12.5 20.8335ZM12.5 2.0835C11.132 2.0835 9.7775 2.35293 8.51369 2.87642C7.24989 3.3999 6.10156 4.16719 5.13428 5.13447C3.18078 7.08797 2.08331 9.73749 2.08331 12.5002C2.08331 15.2628 3.18078 17.9124 5.13428 19.8659C6.10156 20.8331 7.24989 21.6004 8.51369 22.1239C9.7775 22.6474 11.132 22.9168 12.5 22.9168C15.2627 22.9168 17.9122 21.8194 19.8657 19.8659C21.8192 17.9124 22.9166 15.2628 22.9166 12.5002C22.9166 11.1322 22.6472 9.77769 22.1237 8.51388C21.6002 7.25007 20.833 6.10174 19.8657 5.13447C18.8984 4.16719 17.7501 3.3999 16.4863 2.87642C15.2225 2.35293 13.8679 2.0835 12.5 2.0835ZM11.4583 17.7085H13.5416V11.4585H11.4583V17.7085Z" fill="#0F62AB"/>
</svg>
