<svg width="50" height="50" viewBox="0 0 50 50" fill="none" xmlns="http://www.w3.org/2000/svg">
<path d="M26.5625 5.72925V9.37508H30.6771C31.4083 9.37508 32.1229 9.59591 32.7271 10.0063L36.2625 12.4105C36.3479 12.4688 36.45 12.5001 36.5541 12.5001H45.1C45.5144 12.5001 45.9118 12.6647 46.2048 12.9577C46.4978 13.2508 46.6625 13.6482 46.6625 14.0626C46.6625 14.477 46.4978 14.8744 46.2048 15.1674C45.9118 15.4605 45.5144 15.6251 45.1 15.6251H41.8125L48.825 31.6251C48.9656 31.9449 48.9949 32.3028 48.908 32.6412C48.8211 32.9797 48.6231 33.2792 48.3458 33.4918C48.1375 33.6459 47.9229 33.7897 47.7 33.9209C47.1715 34.2363 46.6216 34.514 46.0541 34.7522C44.1697 35.5402 42.1467 35.9433 40.1041 35.9376C38.0624 35.944 36.04 35.5417 34.1562 34.7542C33.5885 34.516 33.0385 34.2375 32.5104 33.9209C32.2893 33.793 32.0758 33.6525 31.8708 33.5001L31.8604 33.4918C31.583 33.2792 31.3851 32.9797 31.2982 32.6412C31.2113 32.3028 31.2405 31.9449 31.3812 31.6251L38.3979 15.6251H36.5521C35.8208 15.6251 35.1062 15.4042 34.5021 14.9938L30.9666 12.5897C30.8808 12.5309 30.779 12.4996 30.675 12.5001H26.5625V42.7084H35.9104C36.3248 42.7084 36.7222 42.873 37.0152 43.1661C37.3083 43.4591 37.4729 43.8565 37.4729 44.2709C37.4729 44.6853 37.3083 45.0827 37.0152 45.3758C36.7222 45.6688 36.3248 45.8334 35.9104 45.8334H14.0896C13.6752 45.8334 13.2777 45.6688 12.9847 45.3758C12.6917 45.0827 12.5271 44.6853 12.5271 44.2709C12.5271 43.8565 12.6917 43.4591 12.9847 43.1661C13.2777 42.873 13.6752 42.7084 14.0896 42.7084H23.4375V12.5001H19.3229C19.2189 12.5 19.1173 12.5312 19.0312 12.5897L15.4979 14.9938C14.8937 15.4042 14.1791 15.6251 13.4479 15.6251H11.6021L18.6187 31.6251C18.7545 31.9359 18.7855 32.2825 18.7069 32.6125C18.6284 32.9425 18.4446 33.2379 18.1833 33.4543C18.0166 33.5897 17.85 33.7168 17.5375 33.9188C17.0106 34.26 16.4591 34.5615 15.8875 34.8209C14.0058 35.6757 11.9625 36.1162 9.8958 36.1126C7.82904 36.1169 5.78554 35.6764 3.90414 34.8209C3.33254 34.5615 2.78101 34.26 2.25414 33.9188C2.03134 33.7772 1.81644 33.6235 1.61039 33.4584C1.35118 33.2397 1.16884 32.9436 1.09011 32.6137C1.01138 32.2838 1.04039 31.9373 1.17289 31.6251L8.18747 15.6251H4.90205C4.48765 15.6251 4.09023 15.4605 3.7972 15.1674C3.50417 14.8744 3.33955 14.477 3.33955 14.0626C3.33955 13.6482 3.50417 13.2508 3.7972 12.9577C4.09023 12.6647 4.48765 12.5001 4.90205 12.5001H13.4479C13.5521 12.5001 13.6541 12.4688 13.7416 12.4105L17.2729 10.0063C17.8771 9.59383 18.5937 9.37508 19.325 9.37508H23.4375V5.72925C23.4375 5.31485 23.6021 4.91742 23.8951 4.62439C24.1881 4.33137 24.5856 4.16675 25 4.16675C25.4144 4.16675 25.8118 4.33137 26.1048 4.62439C26.3978 4.91742 26.5625 5.31485 26.5625 5.72925ZM4.56872 31.6626C6.20839 32.5355 8.03827 32.9899 9.8958 32.9855C11.7533 32.9899 13.5832 32.5355 15.2229 31.6626L9.8958 19.5167L4.56872 31.6626ZM34.7979 31.6126C34.9687 31.6959 35.1604 31.7855 35.3708 31.8751C36.475 32.3397 38.0896 32.8126 40.1041 32.8126C41.9407 32.8177 43.7547 32.4075 45.4104 31.6126L40.1041 19.5147L34.7979 31.6126Z" fill="black"/>
</svg>
