<svg width="18" height="22" viewBox="0 0 18 22" fill="none" xmlns="http://www.w3.org/2000/svg">
<mask id="path-1-inside-1_6642_28398" fill="white">
<path d="M11.3808 16.1729C13.0819 13.2371 15.232 9.11 15.232 6.98857C15.232 3.41 12.4352 0.5 8.99588 0.5C5.55652 0.5 2.75973 3.41 2.75973 6.98857C2.75973 9.11 4.90984 13.2371 6.61098 16.1729C4.59268 16.3314 0 16.9014 0 18.7914C0 20.6514 4.6627 21.5 9 21.5C13.3332 21.5 18 20.6514 18 18.7914C17.9959 16.9014 13.3991 16.3314 11.3808 16.1729ZM3.6206 6.98857C3.6206 3.90286 6.03432 1.39143 8.99588 1.39143C11.9616 1.39143 14.3753 3.90286 14.3753 6.98857C14.3753 9.68429 10.2481 16.4471 8.99588 18.4357C7.74371 16.4471 3.6206 9.68429 3.6206 6.98857ZM8.99588 20.6043C3.72769 20.6043 0.856751 19.4043 0.856751 18.7871C0.856751 18.3114 2.75149 17.2871 7.11762 17.0257C7.9373 18.4014 8.55927 19.3743 8.64165 19.49C8.75286 19.6443 9.07826 19.8286 9.35423 19.49C9.44073 19.3829 10.0586 18.4014 10.8783 17.0257C15.2444 17.2871 17.1391 18.3071 17.1391 18.7871C17.135 19.4086 14.2641 20.6043 8.99588 20.6043Z"/>
<path d="M11.7103 6.98857C11.7103 5.42857 10.4952 4.16429 8.99586 4.16429C7.49655 4.16429 6.28145 5.42857 6.28145 6.98857C6.28145 8.54857 7.49655 9.81286 8.99586 9.81286C10.4952 9.81286 11.7103 8.54857 11.7103 6.98857ZM7.1382 6.98857C7.1382 5.92143 7.97023 5.05572 8.99586 5.05572C10.0215 5.05572 10.8535 5.92143 10.8535 6.98857C10.8535 8.05572 10.0215 8.92143 8.99586 8.92143C7.97023 8.92143 7.1382 8.05572 7.1382 6.98857Z"/>
</mask>
<path d="M11.3808 16.1729C13.0819 13.2371 15.232 9.11 15.232 6.98857C15.232 3.41 12.4352 0.5 8.99588 0.5C5.55652 0.5 2.75973 3.41 2.75973 6.98857C2.75973 9.11 4.90984 13.2371 6.61098 16.1729C4.59268 16.3314 0 16.9014 0 18.7914C0 20.6514 4.6627 21.5 9 21.5C13.3332 21.5 18 20.6514 18 18.7914C17.9959 16.9014 13.3991 16.3314 11.3808 16.1729ZM3.6206 6.98857C3.6206 3.90286 6.03432 1.39143 8.99588 1.39143C11.9616 1.39143 14.3753 3.90286 14.3753 6.98857C14.3753 9.68429 10.2481 16.4471 8.99588 18.4357C7.74371 16.4471 3.6206 9.68429 3.6206 6.98857ZM8.99588 20.6043C3.72769 20.6043 0.856751 19.4043 0.856751 18.7871C0.856751 18.3114 2.75149 17.2871 7.11762 17.0257C7.9373 18.4014 8.55927 19.3743 8.64165 19.49C8.75286 19.6443 9.07826 19.8286 9.35423 19.49C9.44073 19.3829 10.0586 18.4014 10.8783 17.0257C15.2444 17.2871 17.1391 18.3071 17.1391 18.7871C17.135 19.4086 14.2641 20.6043 8.99588 20.6043Z" fill="#323232"/>
<path d="M11.7103 6.98857C11.7103 5.42857 10.4952 4.16429 8.99586 4.16429C7.49655 4.16429 6.28145 5.42857 6.28145 6.98857C6.28145 8.54857 7.49655 9.81286 8.99586 9.81286C10.4952 9.81286 11.7103 8.54857 11.7103 6.98857ZM7.1382 6.98857C7.1382 5.92143 7.97023 5.05572 8.99586 5.05572C10.0215 5.05572 10.8535 5.92143 10.8535 6.98857C10.8535 8.05572 10.0215 8.92143 8.99586 8.92143C7.97023 8.92143 7.1382 8.05572 7.1382 6.98857Z" fill="#323232"/>
<path d="M11.3808 16.1729L10.5155 15.6715L9.7194 17.0454L11.3025 17.1698L11.3808 16.1729ZM6.61098 16.1729L6.68931 17.1698L8.27236 17.0454L7.47622 15.6715L6.61098 16.1729ZM18 18.7914H19L19 18.7892L18 18.7914ZM8.99588 18.4357L8.14967 18.9686L8.99588 20.3124L9.84209 18.9686L8.99588 18.4357ZM7.11762 17.0257L7.97669 16.5139L7.66524 15.9911L7.05785 16.0275L7.11762 17.0257ZM8.64165 19.49L7.82699 20.07L7.83043 20.0747L8.64165 19.49ZM9.35423 19.49L10.1294 20.1218L10.1323 20.1182L9.35423 19.49ZM10.8783 17.0257L10.938 16.0275L10.3306 15.9911L10.0192 16.5139L10.8783 17.0257ZM17.1391 18.7871L18.1391 18.7938V18.7871H17.1391ZM12.246 16.6742C13.1043 15.1931 14.0859 13.3944 14.856 11.6864C15.6029 10.0296 16.232 8.28846 16.232 6.98857H14.232C14.232 7.81011 13.7861 9.19322 13.0327 10.8644C12.3024 12.4842 11.3584 14.2169 10.5155 15.6715L12.246 16.6742ZM16.232 6.98857C16.232 2.89548 13.0246 -0.5 8.99588 -0.5V1.5C11.8459 1.5 14.232 3.92452 14.232 6.98857H16.232ZM8.99588 -0.5C4.96721 -0.5 1.75973 2.89548 1.75973 6.98857H3.75973C3.75973 3.92452 6.14583 1.5 8.99588 1.5V-0.5ZM1.75973 6.98857C1.75973 8.28846 2.38887 10.0296 3.13579 11.6864C3.90586 13.3944 4.88749 15.1931 5.74575 16.6742L7.47622 15.6715C6.63333 14.2169 5.68933 12.4842 4.95906 10.8644C4.20564 9.19322 3.75973 7.81011 3.75973 6.98857H1.75973ZM6.53266 15.1759C5.50615 15.2566 3.77338 15.4446 2.2749 15.8711C1.53234 16.0824 0.772622 16.3724 0.177795 16.7865C-0.416611 17.2003 -1 17.8549 -1 18.7914H1C1 18.7829 0.990695 18.6575 1.32049 18.4279C1.64986 18.1986 2.16446 17.9819 2.82236 17.7947C4.12479 17.424 5.69752 17.2477 6.68931 17.1698L6.53266 15.1759ZM-1 18.7914C-1 19.7323 -0.398142 20.3992 0.236495 20.8279C0.876722 21.2605 1.71965 21.5761 2.62156 21.811C4.43994 22.2844 6.78159 22.5 9 22.5V20.5C6.88111 20.5 4.72276 20.2913 3.12547 19.8755C2.31954 19.6656 1.72571 19.4204 1.35614 19.1707C1.17547 19.0487 1.08184 18.9477 1.03738 18.8819C0.999538 18.8259 1 18.8014 1 18.7914H-1ZM9 22.5C11.2164 22.5 13.558 22.2844 15.3768 21.811C16.2789 21.5762 17.1222 21.2606 17.7627 20.8281C18.3974 20.3995 19 19.7327 19 18.7914H17C17 18.8012 17.0005 18.8256 16.9626 18.8816C16.9181 18.9475 16.8244 19.0484 16.6435 19.1706C16.2736 19.4203 15.6793 19.6656 14.8731 19.8755C13.2752 20.2913 11.1168 20.5 9 20.5V22.5ZM19 18.7892C18.998 17.853 18.4132 17.1992 17.8184 16.786C17.2228 16.3722 16.4624 16.0823 15.7192 15.871C14.2193 15.4446 12.4856 15.2566 11.4591 15.1759L11.3025 17.1698C12.2943 17.2477 13.8681 17.424 15.1723 17.7947C15.831 17.982 16.3467 18.1989 16.6773 18.4285C17.0086 18.6587 17 18.7849 17 18.7936L19 18.7892ZM4.62059 6.98857C4.62059 4.41687 6.62412 2.39143 8.99588 2.39143V0.391429C5.44453 0.391429 2.6206 3.38885 2.6206 6.98857H4.62059ZM8.99588 2.39143C11.3722 2.39143 13.3753 4.41737 13.3753 6.98857H15.3753C15.3753 3.38834 12.5509 0.391429 8.99588 0.391429V2.39143ZM13.3753 6.98857C13.3753 7.46384 13.1792 8.24388 12.779 9.27202C12.391 10.2686 11.8542 11.3929 11.2687 12.5145C10.0986 14.7558 8.77009 16.9176 8.14967 17.9029L9.84209 18.9686C10.4738 17.9653 11.835 15.7513 13.0416 13.4401C13.6444 12.2855 14.2177 11.0893 14.6427 9.99757C15.0555 8.93737 15.3753 7.86116 15.3753 6.98857H13.3753ZM9.84209 17.9029C9.22185 16.9179 7.89437 14.7561 6.72531 12.5149C6.14027 11.3932 5.60399 10.2689 5.21639 9.27232C4.81652 8.2442 4.62059 7.46403 4.62059 6.98857H2.6206C2.6206 7.86097 2.94005 8.93705 3.3524 9.99728C3.77702 11.089 4.34978 12.2852 4.95204 13.4398C6.15757 15.751 7.51774 17.965 8.14967 18.9686L9.84209 17.9029ZM8.99588 19.6043C6.43217 19.6043 4.48868 19.3117 3.21503 18.9627C2.57271 18.7867 2.13487 18.6055 1.88089 18.4615C1.75102 18.3879 1.70732 18.3453 1.70947 18.3475C1.71214 18.3502 1.74315 18.3822 1.77652 18.446C1.81072 18.5115 1.85675 18.6292 1.85675 18.7871H-0.143249C-0.143249 19.2467 0.11133 19.5718 0.271331 19.7373C0.451061 19.9233 0.672819 20.0757 0.89441 20.2013C1.34336 20.4559 1.95252 20.6905 2.68645 20.8916C4.16533 21.2969 6.2914 21.6043 8.99588 21.6043V19.6043ZM1.85675 18.7871C1.85675 19.0533 1.73234 19.2045 1.72191 19.2173C1.70066 19.2434 1.70832 19.2259 1.78294 19.1752C1.92935 19.0757 2.2126 18.9297 2.67312 18.7724C3.58481 18.461 5.05653 18.1509 7.17739 18.0239L7.05785 16.0275C4.81258 16.1619 3.15386 16.4947 2.02665 16.8798C1.46772 17.0707 1.0044 17.2862 0.659107 17.5208C0.487871 17.6371 0.313399 17.7797 0.171474 17.9539C0.0403704 18.1148 -0.143249 18.4021 -0.143249 18.7871H1.85675ZM6.25855 17.5376C7.07521 18.9082 7.71727 19.9158 7.82701 20.07L9.45629 18.91C9.45832 18.9129 9.44911 18.8997 9.42214 18.8586C9.39819 18.8221 9.36596 18.7724 9.32583 18.7098C9.2457 18.5849 9.1368 18.4129 9.00436 18.2008C8.73957 17.7767 8.38279 17.1954 7.97669 16.5139L6.25855 17.5376ZM7.83043 20.0747C8.01406 20.3295 8.33772 20.5842 8.76135 20.6594C9.27655 20.7509 9.78089 20.5493 10.1294 20.1218L8.57911 18.8582C8.60028 18.8322 8.66252 18.7686 8.77633 18.7238C8.8922 18.6783 9.01084 18.6724 9.11096 18.6902C9.204 18.7067 9.27196 18.7414 9.31631 18.771C9.3585 18.7992 9.40618 18.8405 9.45286 18.9053L7.83043 20.0747ZM10.1323 20.1182C10.1955 20.0399 10.2837 19.9041 10.354 19.7951C10.441 19.6603 10.5551 19.4795 10.6906 19.2615C10.962 18.8248 11.3247 18.2301 11.7373 17.5376L10.0192 16.5139C9.61216 17.197 9.25605 17.7809 8.99201 18.2056C8.85981 18.4183 8.75199 18.589 8.67313 18.7113C8.57764 18.8594 8.5562 18.8865 8.57615 18.8618L10.1323 20.1182ZM10.8185 18.0239C12.9398 18.1509 14.4116 18.46 15.3232 18.7709C15.7837 18.928 16.0665 19.0738 16.2125 19.1731C16.2868 19.2236 16.2942 19.2409 16.2728 19.2146C16.2615 19.2007 16.1391 19.0506 16.1391 18.7871H18.1391C18.1391 18.4037 17.9575 18.1167 17.8256 17.9542C17.6836 17.7791 17.5088 17.636 17.3372 17.5193C16.9915 17.2841 16.5277 17.0686 15.9688 16.878C14.8415 16.4935 13.1829 16.1619 10.938 16.0275L10.8185 18.0239ZM16.1392 18.7805C16.1402 18.6249 16.1859 18.5091 16.2197 18.4448C16.2526 18.382 16.2831 18.3507 16.2855 18.3483C16.2871 18.3466 16.2429 18.3895 16.1128 18.4632C15.8584 18.6074 15.4203 18.7884 14.7777 18.9642C13.5035 19.3127 11.5599 19.6043 8.99588 19.6043V21.6043C11.7001 21.6043 13.826 21.298 15.3054 20.8933C16.0396 20.6925 16.6492 20.4581 17.0989 20.2033C17.3209 20.0775 17.5428 19.925 17.7228 19.739C17.8836 19.5728 18.1361 19.2499 18.1391 18.7938L16.1392 18.7805ZM12.7103 6.98857C12.7103 4.91406 11.0845 3.16429 8.99586 3.16429V5.16429C9.90587 5.16429 10.7103 5.94309 10.7103 6.98857H12.7103ZM8.99586 3.16429C6.90724 3.16429 5.28145 4.91406 5.28145 6.98857H7.28145C7.28145 5.94309 8.08586 5.16429 8.99586 5.16429V3.16429ZM5.28145 6.98857C5.28145 9.06309 6.90724 10.8129 8.99586 10.8129V8.81286C8.08586 8.81286 7.28145 8.03406 7.28145 6.98857H5.28145ZM8.99586 10.8129C11.0845 10.8129 12.7103 9.06309 12.7103 6.98857H10.7103C10.7103 8.03406 9.90587 8.81286 8.99586 8.81286V10.8129ZM8.1382 6.98857C8.1382 6.43595 8.55954 6.05572 8.99586 6.05572V4.05572C7.38092 4.05572 6.1382 5.40691 6.1382 6.98857H8.1382ZM8.99586 6.05572C9.43218 6.05572 9.85353 6.43595 9.85353 6.98857H11.8535C11.8535 5.40691 10.6108 4.05572 8.99586 4.05572V6.05572ZM9.85353 6.98857C9.85353 7.5412 9.43218 7.92143 8.99586 7.92143V9.92143C10.6108 9.92143 11.8535 8.57023 11.8535 6.98857H9.85353ZM8.99586 7.92143C8.55954 7.92143 8.1382 7.5412 8.1382 6.98857H6.1382C6.1382 8.57023 7.38092 9.92143 8.99586 9.92143V7.92143Z" fill="#0F62AB" mask="url(#path-1-inside-1_6642_28398)"/>
</svg>
