<svg width="35" height="36" viewBox="0 0 35 36" fill="none" xmlns="http://www.w3.org/2000/svg">
<path d="M17.5814 29.0117L17.1939 28.6958C17.1701 28.7249 17.1527 28.7391 17.1433 28.7456C17.1387 28.7436 17.1323 28.7405 17.1247 28.7354C17.1178 28.7307 17.1119 28.7259 17.1076 28.7218C17.1058 28.7201 17.1046 28.7188 17.104 28.7181C17.0046 28.5764 16.2491 27.3953 15.2418 25.7047L15.0861 25.4434L14.7824 25.4615C12.0485 25.6252 10.0638 26.0289 8.74776 26.4784C8.09207 26.7024 7.58489 26.9436 7.23079 27.1842C7.05444 27.304 6.89998 27.4344 6.78449 27.5761C6.6744 27.7112 6.56074 27.905 6.56074 28.1415C6.56074 28.4282 6.72114 28.6544 6.86668 28.805C7.02208 28.9658 7.23092 29.1139 7.47142 29.2503C7.95531 29.5247 8.64629 29.7954 9.52116 30.0351C11.2764 30.5161 13.8413 30.8913 17.1378 30.8913C20.4341 30.8913 22.9989 30.5175 24.7548 30.0372C25.63 29.7978 26.3215 29.5272 26.8061 29.2526C27.0471 29.1161 27.2562 28.9678 27.412 28.8067C27.5583 28.6556 27.718 28.4302 27.7199 28.1448V28.1415C27.7199 27.9054 27.6072 27.7114 27.4967 27.5753C27.3812 27.4329 27.2266 27.3021 27.0501 27.1821C26.6957 26.9411 26.1883 26.7 25.5326 26.4763C24.2165 26.0275 22.2319 25.6252 19.4982 25.4615L19.1945 25.4434L19.0388 25.7047C18.5328 26.554 18.0895 27.2809 17.7598 27.8112C17.5949 28.0765 17.4591 28.2915 17.3585 28.4476C17.3081 28.5257 17.2674 28.5877 17.2368 28.6332C17.211 28.6716 17.1977 28.6902 17.1935 28.6959C17.1922 28.6978 17.1918 28.6983 17.1924 28.6976L17.5814 29.0117ZM17.5814 29.0117C17.6885 28.879 18.4535 27.6639 19.4683 25.9607H14.8123C15.8271 27.6639 16.5972 28.8684 16.6992 29.0117C16.8369 29.2027 17.2398 29.4309 17.5814 29.0117ZM19.6579 24.654L19.2598 25.341L20.0513 25.4032C21.2921 25.5007 23.2997 25.7233 24.9865 26.2028C25.8333 26.4435 26.5621 26.739 27.0692 27.0913C27.5763 27.4435 27.7846 27.7942 27.7857 28.1471C27.7856 28.4846 27.5799 28.8494 27.0193 29.2279C26.4614 29.6045 25.6338 29.9342 24.6002 30.2032C22.5403 30.7393 19.8004 31.0002 17.1429 31.0002C14.4827 31.0002 11.7429 30.7393 9.68366 30.2032C8.65042 29.9342 7.82328 29.6046 7.26583 29.228C6.70558 28.8495 6.5 28.4845 6.5 28.1468C6.5 27.7938 6.70721 27.4432 7.21318 27.091C7.71894 26.7389 8.44652 26.4435 9.29231 26.2028C10.9772 25.7233 12.9834 25.5007 14.2242 25.4032L15.0157 25.341L14.6176 24.654C13.5684 22.8433 12.3858 20.6737 11.4669 18.6357C10.5365 16.572 9.9168 14.7274 9.9168 13.5337C9.9168 9.36036 13.1742 6.00024 17.1378 6.00024C21.1014 6.00024 24.3587 9.36036 24.3587 13.5337C24.3587 14.7274 23.739 16.572 22.8086 18.6357C21.8898 20.6737 20.7071 22.8433 19.6579 24.654ZM16.7147 27.9728L17.1378 28.6447L17.5609 27.9728C18.3388 26.7373 20.0121 24.0154 21.4925 21.1798C22.2324 19.7624 22.9287 18.308 23.4413 16.9914C23.9477 15.6906 24.298 14.4674 24.298 13.5337C24.298 9.45605 21.1042 6.10392 17.1378 6.10392C13.1762 6.10392 9.98264 9.4563 9.98264 13.5337C9.98264 14.4673 10.3326 15.6904 10.8385 16.9912C11.3505 18.3078 12.0462 19.7622 12.7855 21.1796C14.2646 24.0153 15.9366 26.7371 16.7147 27.9728ZM17.1377 10.537C18.6994 10.537 19.9984 11.8595 19.9984 13.5337C19.9984 15.2079 18.6994 16.5304 17.1377 16.5304C15.5761 16.5304 14.277 15.2079 14.277 13.5337C14.277 11.8595 15.5761 10.537 17.1377 10.537ZM17.1377 10.6407C15.5733 10.6407 14.3378 11.9552 14.3378 13.5337C14.3378 15.1122 15.5733 16.4268 17.1377 16.4268C18.7022 16.4268 19.9377 15.1122 19.9377 13.5337C19.9377 11.9552 18.7022 10.6407 17.1377 10.6407Z" fill="#323232" stroke="#323232"/>
</svg>
