<svg width="22" height="25" viewBox="0 0 22 25" fill="none" xmlns="http://www.w3.org/2000/svg">
<path d="M11.7073 22.6071L11.3197 22.2912C11.3045 22.3099 11.2924 22.3216 11.2839 22.3287C11.2823 22.3278 11.2806 22.3267 11.2788 22.3255C11.2731 22.3217 11.2683 22.3177 11.265 22.3145C11.2642 22.3138 11.2636 22.3132 11.2632 22.3127C11.1653 22.1727 10.4404 21.0392 9.47418 19.4175L9.31846 19.1562L9.01476 19.1744C6.38477 19.3318 4.47467 19.7202 3.20715 20.1531C2.57574 20.3688 2.08633 20.6014 1.74393 20.834C1.57344 20.9498 1.42332 21.0764 1.31069 21.2146C1.20348 21.3462 1.09123 21.5368 1.09123 21.7704C1.09123 22.0534 1.24949 22.2756 1.3908 22.4218C1.54198 22.5782 1.7445 22.7217 1.97663 22.8533C2.44379 23.1182 3.10983 23.379 3.95193 23.6098C5.64164 24.0728 8.10965 24.4337 11.2807 24.4337C14.4515 24.4337 16.9195 24.0741 18.6098 23.6117C19.4522 23.3813 20.1188 23.1207 20.5867 22.8555C20.8192 22.7238 21.022 22.5801 21.1736 22.4235C21.3156 22.2767 21.4731 22.0554 21.475 21.7737V21.7704C21.475 21.5372 21.3638 21.3465 21.2562 21.2139C21.1435 21.0751 20.9932 20.9481 20.8225 20.832C20.4799 20.599 19.9903 20.3665 19.3589 20.1511C18.0913 19.7188 16.1813 19.3318 13.5515 19.1744L13.2478 19.1562L13.0921 19.4175C12.6056 20.2341 12.1794 20.9329 11.8625 21.4427C11.7039 21.6977 11.5734 21.9044 11.4768 22.0543C11.4283 22.1294 11.3893 22.1889 11.36 22.2324C11.3267 22.2819 11.3154 22.2965 11.3182 22.2931L11.7073 22.6071ZM11.7073 22.6071C11.8103 22.4796 12.5458 21.3112 13.5216 19.6735H9.04465C10.0205 21.3112 10.7609 22.4694 10.859 22.6071C10.9914 22.7908 11.3787 23.0102 11.7073 22.6071ZM13.6872 18.4075L13.2891 19.0944L14.0807 19.1566C15.2734 19.2503 17.2022 19.4642 18.8223 19.9248C19.6357 20.1561 20.3341 20.4394 20.8192 20.7764C21.3042 21.1133 21.4988 21.4455 21.4999 21.7758C21.4997 22.0912 21.3079 22.4369 20.7714 22.7991C20.2376 23.1595 19.4441 23.4758 18.4512 23.7342C16.4727 24.2492 13.8399 24.5 11.2856 24.5C8.72873 24.5 6.09598 24.2492 4.11811 23.7342C3.12554 23.4758 2.3326 23.1596 1.7992 22.7992C1.263 22.4369 1.07129 22.0911 1.07129 21.7755C1.07129 21.445 1.26483 21.113 1.7488 20.7761C2.23255 20.4393 2.92979 20.156 3.74223 19.9248C5.36043 19.4642 7.28798 19.2503 8.48067 19.1566L9.2722 19.0944L8.87412 18.4075C7.86538 16.6667 6.72858 14.5811 5.84547 12.6223C4.95078 10.6378 4.35668 8.86766 4.35668 7.72449C4.35668 3.72154 7.48085 0.5 11.2807 0.5C15.0805 0.5 18.2047 3.72154 18.2047 7.72449C18.2047 8.86766 17.6106 10.6378 16.7159 12.6223C15.8328 14.5811 14.696 16.6667 13.6872 18.4075ZM10.8576 21.6185L11.2807 22.2904L11.7038 21.6185C12.452 20.4303 14.0611 17.8126 15.4849 15.0853C16.1966 13.7222 16.8665 12.323 17.3597 11.0561C17.8467 9.80507 18.1847 8.62611 18.1847 7.72449C18.1847 3.79376 15.1059 0.561224 11.2807 0.561224C7.46011 0.561224 4.38152 3.79402 4.38152 7.72449C4.38152 8.62602 4.71918 9.80491 5.20576 11.056C5.69848 12.3229 6.36774 13.722 7.07877 15.0852C8.50134 17.8125 10.1093 20.4302 10.8576 21.6185ZM11.2701 22.3384C11.2701 22.3384 11.2704 22.3383 11.2709 22.338L11.2701 22.3384ZM11.2807 4.86225C12.7709 4.86225 14.0121 6.12461 14.0121 7.72449C14.0121 9.32438 12.7709 10.5867 11.2807 10.5867C9.79041 10.5867 8.5492 9.32438 8.5492 7.72449C8.5492 6.12461 9.79041 4.86225 11.2807 4.86225ZM11.2807 4.92347C9.76501 4.92347 8.56914 6.19682 8.56914 7.72449C8.56914 9.25216 9.76501 10.5255 11.2807 10.5255C12.7963 10.5255 13.9922 9.25216 13.9922 7.72449C13.9922 6.19682 12.7963 4.92347 11.2807 4.92347Z" fill="#323232" stroke="#0F62AB"/>
</svg>
