<svg width="76" height="25" viewBox="0 0 76 25" fill="none" xmlns="http://www.w3.org/2000/svg">
<path d="M10.2164 6.27344C5.05681 6.27344 0.880859 10.4494 0.880859 15.609C0.880859 20.7686 5.05681 24.9446 10.2164 24.9446C15.376 24.9446 19.552 20.7686 19.552 15.609C19.552 10.4494 15.376 6.27344 10.2164 6.27344ZM10.2164 20.2861C7.63661 20.2861 5.53936 18.1888 5.53936 15.609C5.53936 13.0292 7.63661 10.9319 10.2164 10.9319C12.7962 10.9319 14.8935 13.0292 14.8935 15.609C14.8935 18.1888 12.7962 20.2861 10.2164 20.2861Z" fill="#1B1B1B"/>
<path d="M26.6234 18.7454C26.6234 18.003 27.5142 17.6503 28.0339 18.17C30.3724 20.5457 34.2329 24.6288 34.2514 24.6474C34.3071 24.703 34.3628 24.7958 34.5855 24.8701C34.6783 24.9072 34.8268 24.9072 34.9938 24.9072H39.2069C39.9678 24.9072 40.1906 24.0349 39.8379 23.5895L32.8595 16.4439L32.4883 16.0728C31.6902 15.1262 31.783 14.755 32.6924 13.7899L38.2232 7.6095C38.5759 7.16407 38.3531 6.31032 37.5736 6.31032H33.7503C33.6018 6.31032 33.4905 6.31032 33.3791 6.34744C33.1564 6.42168 33.0636 6.49592 33.0079 6.57016C32.9894 6.58872 29.927 9.89235 28.0339 11.9154C27.5142 12.4722 26.5863 12.101 26.5863 11.34V0.742391C26.5863 0.204157 26.1408 0 25.7882 0H22.6701C22.1319 0 21.8721 0.352635 21.8721 0.668151V24.1648C21.8721 24.703 22.3175 24.8515 22.6887 24.8515H25.8067C26.2893 24.8515 26.6048 24.4989 26.6048 24.1463V23.905V18.7454H26.6234Z" fill="#1B1B1B"/>
<path d="M52.0871 24.0535L51.753 20.9354C51.7159 20.5085 51.3076 20.2116 50.8807 20.2858C50.6394 20.3229 50.3981 20.3415 50.1568 20.3415C47.6698 20.3415 45.6468 18.3927 45.4983 15.9243C45.4983 15.85 45.4983 15.7572 45.4983 15.6644V11.8411C45.4983 11.34 45.8695 10.9317 46.3707 10.9317H50.5466C50.8436 10.9317 51.289 10.6719 51.289 10.1336V7.18263C51.289 6.60728 50.9178 6.31032 50.5837 6.31032H46.3707C45.8881 6.31032 45.4984 5.95768 45.4798 5.47513V0.742391C45.4798 0.445434 45.2571 0 44.6817 0H41.5822C41.1925 0 40.8213 0.241277 40.8213 0.723831C40.8213 0.723831 40.8213 15.85 40.8213 15.9243C40.9512 20.9725 45.09 25 50.1568 25C50.5837 25 50.992 24.9629 51.4004 24.9072C51.8458 24.8515 52.1427 24.4803 52.0871 24.0535Z" fill="#1B1B1B"/>
<path d="M74.5821 20.1376C71.9466 20.1376 71.5383 19.191 71.5383 15.6461C71.5383 15.6276 71.5383 15.6276 71.5383 15.609V7.09007C71.5383 6.79312 71.3156 6.292 70.7217 6.292H67.6036C67.2139 6.292 66.787 6.60752 66.787 7.09007V7.47983C65.4322 6.70032 63.8546 6.25488 62.1842 6.25488C57.0246 6.25488 52.8486 10.4308 52.8486 15.5904C52.8486 20.7501 57.0246 24.926 62.1842 24.926C64.5042 24.926 66.62 24.0723 68.2532 22.6803C69.1255 24.0166 70.5361 24.9074 72.7447 24.926C73.1159 24.926 75.1203 25.0002 75.1203 24.0537V20.7315C75.1203 20.4531 74.8976 20.1376 74.5821 20.1376ZM62.2028 20.2861C59.6229 20.2861 57.5257 18.1888 57.5257 15.609C57.5257 13.0292 59.6229 10.9319 62.2028 10.9319C64.7826 10.9319 66.8798 13.0292 66.8798 15.609C66.8613 18.1888 64.764 20.2861 62.2028 20.2861Z" fill="#1B1B1B"/>
</svg>
