<svg width="18" height="24" viewBox="0 0 18 24" fill="none" xmlns="http://www.w3.org/2000/svg">
<path d="M8.99998 12H17.1666M17.1666 12L13.6666 15.5M17.1666 12L13.6666 8.5M17.1666 5V3.83333C17.1666 3.21449 16.9208 2.621 16.4832 2.18342C16.0456 1.74583 15.4522 1.5 14.8333 1.5H3.16665C2.54781 1.5 1.95432 1.74583 1.51673 2.18342C1.07915 2.621 0.833313 3.21449 0.833313 3.83333V20.1667C0.833313 20.7855 1.07915 21.379 1.51673 21.8166C1.95432 22.2542 2.54781 22.5 3.16665 22.5H14.8333C15.4522 22.5 16.0456 22.2542 16.4832 21.8166C16.9208 21.379 17.1666 20.7855 17.1666 20.1667V19" stroke="black" stroke-width="1.5" stroke-linecap="round" stroke-linejoin="round"/>
</svg>
