<svg width="29" height="23" viewBox="0 0 29 23" fill="none" xmlns="http://www.w3.org/2000/svg">
<path d="M14.4993 5.55249C11.4035 5.55249 9.48047 7.13889 9.48047 9.70886C9.48047 10.0009 9.71701 10.2377 10.0088 10.2377H18.9898C19.2815 10.2377 19.5181 10.0009 19.5181 9.70886C19.5181 7.14418 17.5951 5.55249 14.4993 5.55249ZM10.574 9.18006C10.9227 6.80575 13.6329 6.61009 14.4993 6.61009C15.3657 6.61009 18.0758 6.80575 18.4245 9.18006H10.574Z" fill="#323232"/>
<path d="M14.4996 0C13.1137 0 11.9902 1.12456 11.9902 2.5118C11.9931 3.89785 13.1149 5.02069 14.4996 5.0236C15.8856 5.0236 17.009 3.89904 17.009 2.5118C17.009 1.12456 15.8856 0 14.4996 0ZM14.4996 3.966C13.6973 3.966 13.0468 3.31492 13.0468 2.5118C13.0468 1.70869 13.6973 1.0576 14.4996 1.0576C15.302 1.0576 15.9525 1.70869 15.9525 2.5118C15.9525 3.31492 15.302 3.966 14.4996 3.966Z" fill="#323232"/>
<path d="M5.5188 17.7148C2.42299 17.7148 0.5 19.3012 0.5 21.8712C0.5 22.1632 0.736544 22.4 1.0283 22.4H10.0093C10.3011 22.4 10.5376 22.1632 10.5376 21.8712C10.5376 19.3065 8.61461 17.7148 5.5188 17.7148ZM1.59357 21.3424C1.94225 18.9681 4.64712 18.7724 5.5188 18.7724C6.39049 18.7724 9.09536 18.9681 9.44404 21.3424H1.59357Z" fill="#323232"/>
<path d="M5.51917 12.1625C4.13325 12.1625 3.00977 13.287 3.00977 14.6743C3.01267 16.0603 4.13444 17.1832 5.51917 17.1861C6.90509 17.1861 8.02857 16.0615 8.02857 14.6743C8.02857 13.287 6.90509 12.1625 5.51917 12.1625ZM5.51917 16.1285C4.71682 16.1285 4.06636 15.4774 4.06636 14.6743C4.06636 13.8712 4.71682 13.2201 5.51917 13.2201C6.32152 13.2201 6.97198 13.8712 6.97198 14.6743C6.97198 15.4774 6.32152 16.1285 5.51917 16.1285Z" fill="#323232"/>
<path d="M23.0188 18C19.923 18 18 19.5864 18 22.1564C18 22.4484 18.2365 22.6852 18.5283 22.6852H27.5093C27.8011 22.6852 28.0376 22.4484 28.0376 22.1564C28.0376 19.5917 26.1146 18 23.0188 18ZM19.0936 21.6276C19.4422 19.2533 22.1471 19.0576 23.0188 19.0576C23.8905 19.0576 26.5954 19.2533 26.944 21.6276H19.0936Z" fill="#323232"/>
<path d="M23.4811 12.1625C22.0952 12.1625 20.9717 13.287 20.9717 14.6743C20.9746 16.0603 22.0964 17.1832 23.4811 17.1861C24.867 17.1861 25.9905 16.0615 25.9905 14.6743C25.9905 13.287 24.867 12.1625 23.4811 12.1625ZM23.4811 16.1285C22.6787 16.1285 22.0283 15.4774 22.0283 14.6743C22.0283 13.8712 22.6787 13.2201 23.4811 13.2201C24.2834 13.2201 24.9339 13.8712 24.9339 14.6743C24.9339 15.4774 24.2834 16.1285 23.4811 16.1285Z" fill="#323232"/>
<path d="M17.2309 16.8001L15.028 14.5844V11.4645C15.028 11.1724 14.7914 10.9357 14.4997 10.9357C14.2079 10.9357 13.9714 11.1724 13.9714 11.4645V14.5844L11.7684 16.7895C11.5598 16.9954 11.5574 17.3316 11.7631 17.5404C11.9688 17.7492 12.3047 17.7516 12.5133 17.5457L14.4997 15.5521L16.486 17.5457C16.7077 17.7357 17.0412 17.7098 17.2309 17.488C17.4003 17.29 17.4003 16.998 17.2309 16.8001Z" fill="#323232"/>
</svg>
