<svg width="22" height="23" viewBox="0 0 22 23" fill="none" xmlns="http://www.w3.org/2000/svg">
<path d="M3.5 20.5L8 16C8.27614 15.7239 8.72386 15.7239 9 16C9.27614 16.2761 9.27614 16.7239 9 17L4.20711 21.7929C3.81658 22.1834 3.18342 22.1834 2.79289 21.7929L0.5 19.5C0.223858 19.2239 0.223858 18.7761 0.5 18.5C0.776142 18.2239 1.22381 18.2238 1.49995 18.4999L3.5 20.5Z" fill="#323232"/>
<path d="M3.5 13L8 8.5C8.27614 8.22386 8.72386 8.22386 9 8.5C9.27614 8.77614 9.27614 9.22386 9 9.5L4.20711 14.2929C3.81658 14.6834 3.18342 14.6834 2.79289 14.2929L0.5 12C0.223858 11.7239 0.223858 11.2761 0.5 11C0.776142 10.7239 1.22381 10.7238 1.49995 10.9999L3.5 13Z" fill="#323232"/>
<path d="M21.25 12.5H13.75C13.3358 12.5 13 12.1642 13 11.75C13 11.3358 13.3358 11 13.75 11H21.25C21.6642 11 22 11.3358 22 11.75C22 12.1642 21.6642 12.5 21.25 12.5Z" fill="#323232"/>
<path d="M21.25 20H13.75C13.3358 20 13 19.6642 13 19.25C13 18.8358 13.3358 18.5 13.75 18.5H21.25C21.6642 18.5 22 18.8358 22 19.25C22 19.6642 21.6642 20 21.25 20Z" fill="#323232"/>
<path d="M3.5 5.5L8 1C8.27614 0.723858 8.72386 0.723858 9 1C9.27614 1.27614 9.27614 1.72386 9 2L4.20711 6.79289C3.81658 7.18342 3.18342 7.18342 2.79289 6.79289L0.5 4.5C0.223858 4.22386 0.223858 3.77614 0.5 3.5C0.776142 3.22386 1.22381 3.22381 1.49995 3.49995L3.5 5.5Z" fill="#323232"/>
<path d="M21.25 5H13.75C13.3358 5 13 4.66421 13 4.25C13 3.83579 13.3358 3.5 13.75 3.5H21.25C21.6642 3.5 22 3.83579 22 4.25C22 4.66421 21.6642 5 21.25 5Z" fill="#323232"/>
</svg>
