<svg width="28" height="28" viewBox="0 0 28 28" fill="none" xmlns="http://www.w3.org/2000/svg">
<path d="M25.2656 2.40626H22.6588V1.64062C22.6588 0.735959 21.9228 0 21.0182 0C20.1136 0 19.3776 0.735985 19.3776 1.64062V2.40624H10.1901V1.64062C10.1901 0.735985 9.4541 0 8.54946 0C7.64483 0 6.90884 0.735985 6.90884 1.64062V2.42649C6.86236 2.41363 6.81364 2.40626 6.76306 2.40626H4.58409C3.07637 2.40626 1.84971 3.6329 1.84971 5.14064V22.6587C1.84971 22.9608 2.09458 23.2056 2.39659 23.2056C2.69855 23.2056 2.94347 22.9608 2.94347 22.6587V8.03909H26.9063V25.9216C26.9063 26.4645 26.4646 26.9063 25.9216 26.9063C25.3786 26.9063 24.9369 26.4645 24.9369 25.9216V24.5069C24.9369 24.2048 24.692 23.96 24.39 23.96H19.5551H18.0287H9.6396C9.63773 23.96 9.63594 23.9603 9.63407 23.9603H0.54136C0.241967 23.9632 0 24.2067 0 24.5068V25.9219C0 27.0677 0.932245 28 2.07812 28H25.9215C27.0676 28 28 27.0676 28 25.9215V5.14062C28 3.6329 26.7734 2.40626 25.2656 2.40626ZM2.07812 26.9063C1.53533 26.9063 1.09374 26.4647 1.09374 25.9219V25.0537H18.0287H19.555H23.8431V25.9216C23.8431 26.2776 23.9332 26.613 24.0916 26.9063H2.07812ZM20.4713 1.64062C20.4713 1.33907 20.7167 1.09374 21.0182 1.09374C21.3197 1.09374 21.5651 1.33907 21.5651 1.64062V4.18359C21.5651 4.48513 21.3197 4.73047 21.0182 4.73047C20.7167 4.73047 20.4713 4.48513 20.4713 4.18359V1.64062ZM8.00258 1.64062C8.00258 1.33907 8.24792 1.09374 8.54946 1.09374C8.85101 1.09374 9.09634 1.33907 9.09634 1.64062V4.18359C9.09634 4.48513 8.85101 4.73047 8.54946 4.73047C8.24792 4.73047 8.00258 4.48513 8.00258 4.18359V1.64062ZM2.94345 6.94532V5.14064C2.94345 4.23598 3.67943 3.50003 4.58407 3.50003H6.76304C6.81362 3.50003 6.86233 3.49258 6.90882 3.4798V4.18361C6.90882 5.08827 7.64483 5.82423 8.54944 5.82423C9.4541 5.82423 10.1901 5.08825 10.1901 4.18361V3.5H19.3776V4.18359C19.3776 5.08825 20.1136 5.82421 21.0182 5.82421C21.9228 5.82421 22.6588 5.08822 22.6588 4.18359V3.5H25.2656C26.1703 3.5 26.9062 4.23599 26.9062 5.14062V6.9453H2.94345V6.94532Z" fill="#323232"/>
<path d="M14.3437 20.7812C15.4125 20.7812 16.2821 19.849 16.2821 18.7031C16.2821 17.5573 15.4125 16.625 14.3437 16.625C13.275 16.625 12.4054 17.5573 12.4054 18.7031C12.4054 19.849 13.275 20.7812 14.3437 20.7812ZM14.3437 17.7187C14.85 17.7187 15.2619 18.1603 15.2619 18.7031C15.2619 19.2459 14.85 19.6875 14.3437 19.6875C13.8375 19.6875 13.4256 19.2459 13.4256 18.7031C13.4256 18.1603 13.8375 17.7187 14.3437 17.7187Z" fill="#323232"/>
<path d="M21.3217 20.7812C22.3905 20.7812 23.26 19.849 23.26 18.7031C23.26 17.5573 22.3905 16.625 21.3217 16.625C20.2529 16.625 19.3834 17.5573 19.3834 18.7031C19.3834 19.849 20.2529 20.7812 21.3217 20.7812ZM21.3217 17.7187C21.828 17.7187 22.2399 18.1603 22.2399 18.7031C22.2399 19.2459 21.828 19.6875 21.3217 19.6875C20.8154 19.6875 20.4035 19.2459 20.4035 18.7031C20.4035 18.1603 20.8154 17.7187 21.3217 17.7187Z" fill="#323232"/>
<path d="M9.30396 13.0156C9.30396 11.8698 8.4344 10.9375 7.36563 10.9375C6.29684 10.9375 5.42731 11.8698 5.42731 13.0156C5.42731 14.1615 6.29684 15.0937 7.36563 15.0937C8.4344 15.0938 9.30396 14.1615 9.30396 13.0156ZM6.44747 13.0156C6.44747 12.4728 6.85936 12.0312 7.36563 12.0312C7.87191 12.0312 8.2838 12.4728 8.2838 13.0156C8.2838 13.5584 7.87188 14 7.36561 14C6.85934 14 6.44747 13.5584 6.44747 13.0156Z" fill="#323232"/>
<path d="M21.3217 15.0938C22.3905 15.0938 23.26 14.1615 23.26 13.0156C23.26 11.8698 22.3905 10.9375 21.3217 10.9375C20.2529 10.9375 19.3834 11.8698 19.3834 13.0156C19.3834 14.1615 20.2529 15.0938 21.3217 15.0938ZM21.3217 12.0312C21.828 12.0312 22.2399 12.4728 22.2399 13.0156C22.2399 13.5584 21.828 14 21.3217 14C20.8154 14 20.4035 13.5584 20.4035 13.0156C20.4035 12.4728 20.8154 12.0312 21.3217 12.0312Z" fill="#323232"/>
<path d="M14.3437 15.0938C15.4125 15.0938 16.2821 14.1615 16.2821 13.0156C16.2821 11.8698 15.4125 10.9375 14.3437 10.9375C13.275 10.9375 12.4054 11.8698 12.4054 13.0156C12.4054 14.1615 13.275 15.0938 14.3437 15.0938ZM14.3437 12.0312C14.85 12.0312 15.2619 12.4728 15.2619 13.0156C15.2619 13.5584 14.85 14 14.3437 14C13.8375 14 13.4256 13.5584 13.4256 13.0156C13.4256 12.4728 13.8375 12.0312 14.3437 12.0312Z" fill="#323232"/>
<path d="M7.3657 20.7812C8.43449 20.7812 9.30402 19.849 9.30402 18.7031C9.30402 17.5573 8.43449 16.625 7.3657 16.625C6.29693 16.625 5.42737 17.5573 5.42737 18.7031C5.42737 19.849 6.29693 20.7812 7.3657 20.7812ZM7.3657 17.7187C7.87197 17.7187 8.28386 18.1603 8.28386 18.7031C8.28386 19.2459 7.87197 19.6875 7.3657 19.6875C6.85942 19.6875 6.44753 19.2459 6.44753 18.7031C6.44753 18.1603 6.85945 17.7187 7.3657 17.7187Z" fill="#323232"/>
</svg>
