<svg width="28" height="28" viewBox="0 0 28 28" fill="none" xmlns="http://www.w3.org/2000/svg">
<path d="M13.9995 8.55273C10.9037 8.55273 8.98071 10.1391 8.98071 12.7091C8.98071 13.0011 9.21726 13.2379 9.50901 13.2379H18.49C18.7818 13.2379 19.0183 13.0011 19.0183 12.7091C19.0183 10.1444 17.0953 8.55273 13.9995 8.55273ZM10.0743 12.1803C10.423 9.80599 13.1331 9.61034 13.9995 9.61034C14.8659 9.61034 17.5761 9.80599 17.9247 12.1803H10.0743Z" fill="#323232"/>
<path d="M13.9996 3C12.6137 3 11.4902 4.12456 11.4902 5.5118C11.4931 6.89785 12.6149 8.02069 13.9996 8.0236C15.3856 8.0236 16.509 6.89904 16.509 5.5118C16.509 4.12456 15.3856 3 13.9996 3ZM13.9996 6.966C13.1973 6.966 12.5468 6.31492 12.5468 5.5118C12.5468 4.70869 13.1973 4.0576 13.9996 4.0576C14.802 4.0576 15.4525 4.70869 15.4525 5.5118C15.4525 6.31492 14.802 6.966 13.9996 6.966Z" fill="#323232"/>
<path d="M5.0188 20.7148C1.92299 20.7148 0 22.3012 0 24.8712C0 25.1632 0.236544 25.4 0.528295 25.4H9.50931C9.80106 25.4 10.0376 25.1632 10.0376 24.8712C10.0376 22.3065 8.11461 20.7148 5.0188 20.7148ZM1.09357 24.3424C1.44225 21.9681 4.14712 21.7724 5.0188 21.7724C5.89049 21.7724 8.59536 21.9681 8.94404 24.3424H1.09357Z" fill="#323232"/>
<path d="M5.01893 15.1626C3.63301 15.1626 2.50952 16.2872 2.50952 17.6744C2.51243 19.0605 3.6342 20.1833 5.01893 20.1862C6.40484 20.1862 7.52833 19.0617 7.52833 17.6744C7.52833 16.2872 6.40484 15.1626 5.01893 15.1626ZM5.01893 19.1286C4.21658 19.1286 3.56611 18.4775 3.56611 17.6744C3.56611 16.8713 4.21658 16.2202 5.01893 16.2202C5.82127 16.2202 6.47174 16.8713 6.47174 17.6744C6.47174 18.4775 5.82127 19.1286 5.01893 19.1286Z" fill="#323232"/>
<path d="M22.9812 20.7148C19.8854 20.7148 17.9624 22.3012 17.9624 24.8712C17.9624 25.1632 18.1989 25.4 18.4907 25.4H27.4717C27.7635 25.4 28 25.1632 28 24.8712C28 22.3065 26.077 20.7148 22.9812 20.7148ZM19.056 24.3424C19.4046 21.9681 22.1095 21.7724 22.9812 21.7724C23.8529 21.7724 26.5578 21.9681 26.9064 24.3424H19.056Z" fill="#323232"/>
<path d="M22.9808 15.1626C21.5949 15.1626 20.4714 16.2872 20.4714 17.6744C20.4743 19.0605 21.5961 20.1833 22.9808 20.1862C24.3668 20.1862 25.4902 19.0617 25.4902 17.6744C25.4902 16.2872 24.3668 15.1626 22.9808 15.1626ZM22.9808 19.1286C22.1785 19.1286 21.528 18.4775 21.528 17.6744C21.528 16.8713 22.1785 16.2202 22.9808 16.2202C23.7832 16.2202 24.4336 16.8713 24.4336 17.6744C24.4336 18.4775 23.7832 19.1286 22.9808 19.1286Z" fill="#323232"/>
<path d="M16.7312 19.7999L14.5282 17.5843V14.4643C14.5282 14.1723 14.2917 13.9355 13.9999 13.9355C13.7082 13.9355 13.4716 14.1723 13.4716 14.4643V17.5843L11.2686 19.7894C11.06 19.9953 11.0576 20.3315 11.2633 20.5403C11.469 20.7491 11.8049 20.7515 12.0135 20.5456L13.9999 18.552L15.9863 20.5456C16.2079 20.7355 16.5414 20.7097 16.7312 20.4879C16.9006 20.2899 16.9006 19.9979 16.7312 19.7999Z" fill="#323232"/>
</svg>
