<svg width="28" height="29" viewBox="0 0 28 29" fill="none" xmlns="http://www.w3.org/2000/svg">
<path d="M27.3385 25.4707H0.6615C0.296133 25.4707 0 25.7668 0 26.1322C0 26.4975 0.296133 26.7937 0.6615 26.7937H27.3385C27.7038 26.7937 28 26.4975 28 26.1322C28 25.7669 27.7039 25.4707 27.3385 25.4707Z" fill="black"/>
<path d="M25.6143 5.32893H20.9687C20.6034 5.32893 20.3072 5.62517 20.3072 5.99043V10.4879H16.9846V2.86755C16.9846 2.5023 16.6883 2.20605 16.3231 2.20605H11.6774C11.3121 2.20605 11.0159 2.5023 11.0159 2.86755V15.3845H7.6932V9.76163C7.6932 9.39626 7.39696 9.10013 7.0317 9.10013H2.38611C2.02074 9.10013 1.72461 9.39626 1.72461 9.76163V22.4252C1.72461 22.7906 2.02085 23.0867 2.38611 23.0867H7.0317H11.6773H16.323H20.9686H25.6142C25.9796 23.0867 26.2757 22.7905 26.2757 22.4252V5.99043C26.2758 5.62517 25.9797 5.32893 25.6143 5.32893ZM6.37026 21.7637H3.04761V10.4231H6.37026V21.7637ZM11.016 21.7637H7.69331V16.7075H11.016V21.7637ZM15.6616 11.1494V21.7637H12.3389V3.52905H15.6616V11.1494ZM20.3073 21.7637H16.9847V11.8109H20.3073V21.7637ZM24.9529 21.7637H21.6303V11.1494V6.65193H24.953V21.7637H24.9529Z" fill="black"/>
</svg>
