<svg width="28" height="28" viewBox="0 0 28 28" fill="none" xmlns="http://www.w3.org/2000/svg">
<path d="M2 15.0556C1.17157 15.0556 0.5 14.384 0.5 13.5556V2C0.5 1.17157 1.17157 0.5 2 0.5H10.4444C11.2729 0.5 11.9444 1.17157 11.9444 2V13.5556C11.9444 14.384 11.2729 15.0556 10.4444 15.0556H2ZM2 27.5C1.17157 27.5 0.5 26.8284 0.5 26V20.6667C0.5 19.8382 1.17157 19.1667 2 19.1667H10.4444C11.2729 19.1667 11.9444 19.8382 11.9444 20.6667V26C11.9444 26.8284 11.2729 27.5 10.4444 27.5H2ZM17.5556 27.5C16.7271 27.5 16.0556 26.8284 16.0556 26V14.4444C16.0556 13.616 16.7271 12.9444 17.5556 12.9444H26C26.8284 12.9444 27.5 13.616 27.5 14.4444V26C27.5 26.8284 26.8284 27.5 26 27.5H17.5556ZM16.0556 2C16.0556 1.17157 16.7271 0.5 17.5556 0.5H26C26.8284 0.5 27.5 1.17157 27.5 2V7.33333C27.5 8.16176 26.8284 8.83333 26 8.83333H17.5556C16.7271 8.83333 16.0556 8.16176 16.0556 7.33333V2Z" stroke="#323232"/>
</svg>
