<svg width="28" height="23" viewBox="0 0 28 23" fill="none" xmlns="http://www.w3.org/2000/svg">
<path d="M28 7.97095C28 8.76155 27.8693 9.5413 27.6163 10.291C26.4274 15.6333 16.1428 22.0961 15.7049 22.3715C15.5684 22.4558 15.415 22.5 15.2586 22.5C15.1023 22.5 14.9468 22.4608 14.8102 22.3715C14.6926 22.2956 11.795 20.4803 8.85706 17.985C8.50531 17.6838 8.46833 17.1644 8.76376 16.8169C9.06592 16.4719 9.58828 16.4297 9.94087 16.723C12.1308 18.5804 14.3438 20.0819 15.2628 20.6868C18.3512 18.6876 25.1701 13.6015 26.0059 9.84961C26.2245 9.18709 26.3228 8.58424 26.3228 7.97262C26.3228 5.84322 25.1549 3.87945 23.2744 2.85147C20.8727 1.52852 17.6578 2.13847 15.9008 4.24117C15.5852 4.62082 14.9355 4.62082 14.6136 4.24117C12.8515 2.13722 9.63913 1.53186 7.24038 2.84897C5.35391 3.87987 4.18605 5.84197 4.18605 7.96928C4.18605 8.57715 4.28985 9.18209 4.48274 9.76701C4.60671 10.3144 4.84373 10.8492 5.14546 11.4041H10.0174L11.6903 7.58713C11.8336 7.26046 12.1757 7.05478 12.5279 7.09149C12.8868 7.12236 13.1856 7.37853 13.2654 7.72647L14.4971 12.896L16.0903 10.3023C16.2399 10.0561 16.511 9.90552 16.8022 9.90552H19.8258C20.2864 9.90552 20.66 10.2756 20.66 10.7345C20.66 11.1909 20.286 11.5631 19.8258 11.5631H17.2708L14.8707 15.4772C14.7178 15.7267 14.4476 15.8757 14.161 15.8757C14.1156 15.8757 14.0714 15.8723 14.0303 15.8661C13.6941 15.8123 13.4293 15.5661 13.3486 15.2399L12.2228 10.5309L11.3336 12.5635C11.2008 12.8685 10.8994 13.0612 10.5674 13.0612H0.834184C0.377379 13.0612 0 12.6903 0 12.2331C0 11.7762 0.377379 11.4045 0.834184 11.4045H3.2821C3.10812 10.9932 2.96776 10.5939 2.88077 10.2076C2.64796 9.53713 2.52188 8.75612 2.52188 7.9697C2.52188 5.23703 4.01921 2.72047 6.43813 1.39794C9.2399 -0.1407 12.9469 0.343254 15.2624 2.50311C17.5712 0.342837 21.2761 -0.140283 24.0825 1.39794C26.4985 2.71838 28 5.2362 28 7.97095Z" fill="#323232"/>
</svg>
