<svg width="28" height="28" viewBox="0 0 28 28" fill="none" xmlns="http://www.w3.org/2000/svg">
<path d="M13.7647 23.0483L13.7278 23.1069L13.7074 23.0744L13.3343 23.34M13.7647 23.0483L5.91603 24.0012M13.7647 23.0483L14.126 23.34M13.7647 23.0483L13.7659 23.0465L14.126 23.34M13.3343 23.34L13.7059 23.0721L13.3047 22.435C13.0048 21.9586 12.5568 21.2362 12.0381 20.3652C11.985 20.276 11.9311 20.1853 11.8766 20.0931L11.6117 20.1139L11.1171 20.1527C10.0045 20.2402 8.20815 20.4396 6.7011 20.8685C5.94423 21.0839 5.29756 21.3471 4.85048 21.6584C4.40561 21.9681 4.23428 22.2675 4.23244 22.559C4.23243 22.5606 4.23242 22.5622 4.23242 22.5638C4.23242 22.8425 4.401 23.1564 4.89713 23.4916C5.16707 23.674 5.50964 23.8446 5.91603 24.0012M13.3343 23.34C13.4578 23.5114 13.8194 23.7162 14.126 23.34M13.3343 23.34C13.2427 23.2114 12.5516 22.1305 11.6409 20.6019C6.78963 20.8924 4.68437 22.0305 4.68437 22.559C4.68437 23.2448 7.8743 24.5781 13.7278 24.5781C19.5814 24.5781 22.7713 23.2495 22.7759 22.559C22.7759 22.0257 20.6706 20.8924 15.8194 20.6019C14.9086 22.1305 14.2221 23.2209 14.126 23.34M5.91603 24.0012C6.25236 24.1307 6.63241 24.2507 7.05119 24.3597C7.58018 24.4974 8.15962 24.6149 8.77338 24.7124C8.05721 24.5956 7.42475 24.4575 6.87888 24.3079C6.52419 24.2107 6.20256 24.1077 5.91603 24.0012ZM20.412 24.3597C19.8755 24.4993 19.2871 24.6181 18.6639 24.7164C19.3877 24.5993 20.0264 24.4604 20.5772 24.3098C20.95 24.2078 21.2863 24.0994 21.5839 23.9871C21.2385 24.122 20.846 24.2467 20.412 24.3597Z" fill="#323232" stroke="#323232"/>
</svg>
