<svg width="28" height="28" viewBox="0 0 28 28" fill="none" xmlns="http://www.w3.org/2000/svg">
<path d="M27.3385 24.9707H0.6615C0.296133 24.9707 0 25.2668 0 25.6322C0 25.9975 0.296133 26.2937 0.6615 26.2937H27.3385C27.7038 26.2937 28 25.9975 28 25.6322C28 25.2669 27.7039 24.9707 27.3385 24.9707Z" fill="black"/>
<path d="M25.614 4.82942H20.9684C20.6031 4.82942 20.3069 5.12566 20.3069 5.49092V9.98842H16.9842V2.36804C16.9842 2.00279 16.688 1.70654 16.3227 1.70654H11.677C11.3118 1.70654 11.0155 2.00279 11.0155 2.36804V14.885H7.6929V9.26211C7.6929 8.89675 7.39666 8.60061 7.0314 8.60061H2.3858C2.02044 8.60061 1.7243 8.89675 1.7243 9.26211V21.9257C1.7243 22.2911 2.02055 22.5872 2.3858 22.5872H7.0314H11.677H16.3227H20.9683H25.6139C25.9793 22.5872 26.2754 22.291 26.2754 21.9257V5.49092C26.2755 5.12566 25.9794 4.82942 25.614 4.82942ZM6.36995 21.2642H3.0473V9.92361H6.36995V21.2642ZM11.0157 21.2642H7.69301V16.208H11.0157V21.2642ZM15.6613 10.6499V21.2642H12.3386V3.02954H15.6613V10.6499ZM20.307 21.2642H16.9844V11.3114H20.307V21.2642ZM24.9526 21.2642H21.63V10.6499V6.15242H24.9527V21.2642H24.9526Z" fill="black"/>
</svg>
