<svg width="22" height="22" viewBox="0 0 22 22" fill="none" xmlns="http://www.w3.org/2000/svg">
<path d="M18.0714 -0.00012207C19.1133 -0.00012207 20.1126 0.41378 20.8493 1.15053C21.5861 1.88728 22 2.88653 22 3.92845V18.0713C22 19.1132 21.5861 20.1125 20.8493 20.8492C20.1126 21.586 19.1133 21.9999 18.0714 21.9999H3.92857C2.88665 21.9999 1.8874 21.586 1.15065 20.8492C0.413902 20.1125 0 19.1132 0 18.0713V3.92845C0 2.88653 0.413902 1.88728 1.15065 1.15053C1.8874 0.41378 2.88665 -0.00012207 3.92857 -0.00012207H18.0714ZM18.0714 1.57131H3.92857C3.30342 1.57131 2.70387 1.81965 2.26182 2.2617C1.81977 2.70375 1.57143 3.3033 1.57143 3.92845V18.0713C1.57143 18.6965 1.81977 19.296 2.26182 19.7381C2.70387 20.1801 3.30342 20.4284 3.92857 20.4284H18.0714C18.6966 20.4284 19.2961 20.1801 19.7382 19.7381C20.1802 19.296 20.4286 18.6965 20.4286 18.0713V3.92845C20.4286 3.3033 20.1802 2.70375 19.7382 2.2617C19.2961 1.81965 18.6966 1.57131 18.0714 1.57131ZM6.28571 12.5713C6.70248 12.5713 7.10218 12.7369 7.39688 13.0316C7.69158 13.3263 7.85714 13.726 7.85714 14.1427C7.85714 14.5595 7.69158 14.9592 7.39688 15.2539C7.10218 15.5486 6.70248 15.7142 6.28571 15.7142C5.86895 15.7142 5.46925 15.5486 5.17455 15.2539C4.87985 14.9592 4.71429 14.5595 4.71429 14.1427C4.71429 13.726 4.87985 13.3263 5.17455 13.0316C5.46925 12.7369 5.86895 12.5713 6.28571 12.5713ZM11 12.5713C11.4168 12.5713 11.8165 12.7369 12.1112 13.0316C12.4059 13.3263 12.5714 13.726 12.5714 14.1427C12.5714 14.5595 12.4059 14.9592 12.1112 15.2539C11.8165 15.5486 11.4168 15.7142 11 15.7142C10.5832 15.7142 10.1835 15.5486 9.88883 15.2539C9.59413 14.9592 9.42857 14.5595 9.42857 14.1427C9.42857 13.726 9.59413 13.3263 9.88883 13.0316C10.1835 12.7369 10.5832 12.5713 11 12.5713ZM6.28571 6.28559C6.70248 6.28559 7.10218 6.45115 7.39688 6.74585C7.69158 7.04055 7.85714 7.44025 7.85714 7.85702C7.85714 8.27379 7.69158 8.67349 7.39688 8.96819C7.10218 9.26289 6.70248 9.42845 6.28571 9.42845C5.86895 9.42845 5.46925 9.26289 5.17455 8.96819C4.87985 8.67349 4.71429 8.27379 4.71429 7.85702C4.71429 7.44025 4.87985 7.04055 5.17455 6.74585C5.46925 6.45115 5.86895 6.28559 6.28571 6.28559ZM11 6.28559C11.4168 6.28559 11.8165 6.45115 12.1112 6.74585C12.4059 7.04055 12.5714 7.44025 12.5714 7.85702C12.5714 8.27379 12.4059 8.67349 12.1112 8.96819C11.8165 9.26289 11.4168 9.42845 11 9.42845C10.5832 9.42845 10.1835 9.26289 9.88883 8.96819C9.59413 8.67349 9.42857 8.27379 9.42857 7.85702C9.42857 7.44025 9.59413 7.04055 9.88883 6.74585C10.1835 6.45115 10.5832 6.28559 11 6.28559ZM15.7143 6.28559C16.1311 6.28559 16.5308 6.45115 16.8255 6.74585C17.1202 7.04055 17.2857 7.44025 17.2857 7.85702C17.2857 8.27379 17.1202 8.67349 16.8255 8.96819C16.5308 9.26289 16.1311 9.42845 15.7143 9.42845C15.2975 9.42845 14.8978 9.26289 14.6031 8.96819C14.3084 8.67349 14.1429 8.27379 14.1429 7.85702C14.1429 7.44025 14.3084 7.04055 14.6031 6.74585C14.8978 6.45115 15.2975 6.28559 15.7143 6.28559Z" fill="black"/>
</svg>
