<svg width="25" height="29" viewBox="0 0 25 29" fill="none" xmlns="http://www.w3.org/2000/svg">
<path d="M22.5782 9.36396C21.4631 9.36396 20.556 10.2738 20.556 11.3922V12.7586C20.1758 12.5095 19.7236 12.3617 19.2365 12.3617H18.6312L20.085 2.85123C20.1678 2.3121 20.0121 1.76566 19.6578 1.35154C19.3037 0.937723 18.7888 0.700195 18.2449 0.700195H6.95502C6.41121 0.700195 5.8963 0.937723 5.5422 1.3516C5.18787 1.76572 5.03223 2.31216 5.11502 2.85105L6.56877 12.3617H5.96668C5.47832 12.3617 5.02501 12.5101 4.64412 12.761V11.3922C4.64412 10.2738 3.73701 9.36396 2.62187 9.36396C1.50739 9.36396 0.600098 10.2738 0.600098 11.3922C0.600098 11.6971 0.846234 11.9443 1.15053 11.9443C1.45483 11.9443 1.70073 11.6971 1.70073 11.3922C1.70073 10.8825 2.11406 10.4679 2.62193 10.4679C3.13028 10.4679 3.54361 10.8825 3.54361 11.3922C3.54361 11.3922 3.54596 14.8026 3.5462 14.8069C3.55114 16.1422 4.63461 17.2273 5.9668 17.2273H10.0489L5.10436 24.5553C4.96871 24.5244 4.82902 24.5046 4.6844 24.5046C3.64115 24.5046 2.79262 25.3559 2.79262 26.4024C2.79262 27.4485 3.64115 28.3002 4.6844 28.3002C5.72741 28.3002 6.57666 27.4485 6.57666 26.4024C6.57666 25.9009 6.37821 25.4477 6.06037 25.1081L11.3776 17.2273H12.0512V24.5956C11.2767 24.8334 10.7077 25.5486 10.7077 26.4024C10.7077 27.4485 11.5568 28.3002 12.6 28.3002C13.6433 28.3002 14.4923 27.4485 14.4923 26.4024C14.4923 25.5498 13.9249 24.8352 13.1518 24.5966V17.2273H13.8191L19.141 25.1062C18.8225 25.4461 18.6233 25.9002 18.6233 26.4024C18.6233 27.4485 19.4725 28.3002 20.5156 28.3002C21.5587 28.3002 22.4073 27.4485 22.4073 26.4024C22.4073 25.3559 21.5587 24.5046 20.5156 24.5046C20.3719 24.5046 20.233 24.5239 20.0982 24.5546L15.1489 17.2273H19.2365C20.572 17.2273 21.6587 16.1375 21.6587 14.7979L21.6566 11.3922C21.6566 10.8825 22.0699 10.4679 22.5783 10.4679C23.0861 10.4679 23.4995 10.8825 23.4995 11.3922C23.4995 11.6971 23.7454 11.9443 24.0497 11.9443C24.354 11.9443 24.6001 11.6971 24.6001 11.3922C24.6 10.2739 23.6927 9.36396 22.5782 9.36396ZM4.68446 27.196C4.24806 27.196 3.89331 26.8401 3.89331 26.4024C3.89331 25.9647 4.24812 25.6085 4.68446 25.6085C5.12086 25.6085 5.47609 25.9646 5.47609 26.4024C5.47609 26.8401 5.12086 27.196 4.68446 27.196ZM13.3916 26.4024C13.3916 26.8401 13.0364 27.196 12.6 27.196C12.1636 27.196 11.8084 26.8401 11.8084 26.4024C11.8084 25.9647 12.1637 25.6085 12.6 25.6085C13.0364 25.6086 13.3916 25.9647 13.3916 26.4024ZM21.3067 26.4024C21.3067 26.8401 20.9519 27.196 20.5155 27.196C20.0791 27.196 19.7239 26.8401 19.7239 26.4024C19.7239 25.9647 20.0791 25.6085 20.5155 25.6085C20.9519 25.6085 21.3067 25.9647 21.3067 26.4024ZM6.20264 2.68358C6.16832 2.46 6.23064 2.2421 6.37731 2.07041C6.52452 1.89871 6.72929 1.80413 6.95502 1.80413H18.245C18.4707 1.80413 18.6755 1.89871 18.8227 2.07041C18.9694 2.2421 19.0318 2.46 18.9974 2.68382L17.518 12.3617H7.68199L6.20264 2.68358ZM19.2365 16.1233H5.96656C5.23839 16.1233 4.64569 15.5286 4.64569 14.7914C4.64569 14.0602 5.23839 13.4657 5.96656 13.4657H19.2365C19.958 13.4657 20.5442 14.0489 20.556 14.7699V14.7913C20.556 14.7946 20.5576 14.7972 20.5578 14.8004C20.5562 15.53 19.9644 16.1233 19.2365 16.1233Z" fill="#283237"/>
</svg>
