<svg width="41" height="40" viewBox="0 0 41 40" fill="none" xmlns="http://www.w3.org/2000/svg">
<path d="M31.3244 25.8138C30.8169 24.2776 30.5575 22.6707 30.556 21.0534V17.057C30.5929 14.5248 29.6865 12.0689 28.0122 10.1645C26.3435 8.25702 24.0276 7.03058 21.5081 6.72017C20.1158 6.57616 18.6994 6.72017 17.3553 7.17421C16.0112 7.60424 14.7874 8.3223 13.7562 9.28038C12.7199 10.2138 11.8939 11.3556 11.3327 12.6307C10.7688 13.9052 10.4744 15.282 10.4681 16.675V21.0754C10.4651 22.6861 10.2058 24.2861 9.6997 25.8158L8.5 29.3541L9.46096 30.6702H16.4926C16.4926 31.7223 16.924 32.7503 17.6683 33.4944C18.4106 34.2345 19.4437 34.6665 20.501 34.6665C21.5563 34.6665 22.5874 34.2365 23.3317 33.4944C24.076 32.7523 24.5094 31.7223 24.5094 30.6702H31.541L32.5 29.3541L31.3244 25.8138ZM21.9154 32.1083C21.7308 32.296 21.5108 32.4455 21.2681 32.5481C21.0253 32.6507 20.7647 32.7045 20.501 32.7063C20.2369 32.7045 19.9757 32.6506 19.7326 32.5476C19.4895 32.4446 19.2693 32.2946 19.0846 32.1063C18.896 31.9224 18.7457 31.7032 18.6424 31.4612C18.5391 31.2192 18.4849 30.9592 18.4828 30.6962H22.4931C22.5015 30.9586 22.4546 31.2199 22.3554 31.4631C22.2562 31.7063 22.107 31.9261 21.9174 32.1083H21.9154ZM10.8512 28.688L11.5955 26.4598C12.176 24.7239 12.4759 22.9071 12.4843 21.0774V16.675C12.4843 15.5489 12.725 14.4488 13.1804 13.4427C13.6358 12.4146 14.2838 11.5046 15.1244 10.7625C15.965 9.99844 16.9501 9.4224 18.0053 9.08837C19.0846 8.72834 20.2121 8.60833 21.3155 8.72834C23.3378 8.99345 25.1919 9.98998 26.5256 11.5286C27.8597 13.0691 28.5768 15.0461 28.5398 17.081V21.1014C28.5398 22.9195 28.8287 24.7377 29.4285 26.4838L30.1728 28.71H10.8533V28.686L10.8512 28.688Z" fill="black"/>
</svg>
