<svg width="24" height="25" viewBox="0 0 24 25" fill="none" xmlns="http://www.w3.org/2000/svg">
<path d="M9.8125 19.5625L7.15625 16.9063C6.90625 16.6563 6.78125 16.3542 6.78125 16C6.78125 15.6458 6.90625 15.3438 7.15625 15.0938C7.40625 14.8438 7.70834 14.7188 8.0625 14.7188C8.41667 14.7188 8.71875 14.8438 8.96875 15.0938L10.6875 16.8125L15.0313 12.4688C15.2813 12.2188 15.5833 12.0938 15.9375 12.0938C16.2917 12.0938 16.5938 12.2188 16.8438 12.4688C17.0938 12.7188 17.2188 13.0208 17.2188 13.375C17.2188 13.7292 17.0938 14.0313 16.8438 14.2813L11.5625 19.5625C11.3125 19.8125 11.0208 19.9375 10.6875 19.9375C10.3542 19.9375 10.0625 19.8125 9.8125 19.5625ZM3.25 25C2.5625 25 1.97375 24.755 1.48375 24.265C0.993752 23.775 0.749169 23.1867 0.750002 22.5V5C0.750002 4.3125 0.995002 3.72375 1.485 3.23375C1.975 2.74375 2.56334 2.49917 3.25 2.5H4.5V1.25C4.5 0.895838 4.62 0.598754 4.86 0.358754C5.1 0.118754 5.39667 -0.000829008 5.75 4.32526e-06C6.10417 4.32526e-06 6.40125 0.120004 6.64125 0.360004C6.88125 0.600004 7.00083 0.896671 7 1.25V2.5H17V1.25C17 0.895838 17.12 0.598754 17.36 0.358754C17.6 0.118754 17.8967 -0.000829008 18.25 4.32526e-06C18.6042 4.32526e-06 18.9012 0.120004 19.1412 0.360004C19.3813 0.600004 19.5008 0.896671 19.5 1.25V2.5H20.75C21.4375 2.5 22.0262 2.745 22.5162 3.235C23.0062 3.725 23.2508 4.31334 23.25 5V22.5C23.25 23.1875 23.005 23.7763 22.515 24.2663C22.025 24.7563 21.4367 25.0008 20.75 25H3.25ZM3 22.6992H21V9.49922H3V22.6992ZM3 7.69922H21V4.69922H3V7.69922Z" fill="#323232"/>
</svg>
