<svg width="300" height="50" viewBox="0 0 300 50" fill="none" xmlns="http://www.w3.org/2000/svg">
<mask id="path-1-inside-1_2530_57461" fill="white">
<path d="M0 0H300V50H0V0Z"/>
</mask>
<path d="M0 0H300V50H0V0Z" fill="#DCDCDC"/>
<path d="M0 3H300V-3H0V3ZM300 47H0V53H300V47Z" fill="#FAFAFA" mask="url(#path-1-inside-1_2530_57461)"/>
<path d="M59.2524 26.5C60.0809 26.5 60.7524 25.8284 60.7524 25C60.7524 24.1716 60.0809 23.5 59.2524 23.5L59.2524 26.5ZM18.9394 23.9393C18.3537 24.5251 18.3537 25.4749 18.9394 26.0607L28.4854 35.6066C29.0712 36.1924 30.0209 36.1924 30.6067 35.6066C31.1925 35.0208 31.1925 34.0711 30.6067 33.4853L22.1214 25L30.6067 16.5147C31.1925 15.9289 31.1925 14.9792 30.6067 14.3934C30.0209 13.8076 29.0712 13.8076 28.4854 14.3934L18.9394 23.9393ZM59.2524 23.5L20.0001 23.5L20.0001 26.5L59.2524 26.5L59.2524 23.5Z" fill="#777777"/>
<path d="M169.626 26.5C170.455 26.5 171.126 25.8284 171.126 25C171.126 24.1716 170.455 23.5 169.626 23.5L169.626 26.5ZM129.313 23.9393C128.727 24.5251 128.727 25.4749 129.313 26.0607L138.859 35.6066C139.445 36.1924 140.395 36.1924 140.98 35.6066C141.566 35.0208 141.566 34.0711 140.98 33.4853L132.495 25L140.98 16.5147C141.566 15.9289 141.566 14.9792 140.98 14.3934C140.395 13.8076 139.445 13.8076 138.859 14.3934L129.313 23.9393ZM169.626 23.5L130.374 23.5L130.374 26.5L169.626 26.5L169.626 23.5Z" fill="#777777"/>
<path d="M280 26.5C280.828 26.5 281.5 25.8284 281.5 25C281.5 24.1716 280.828 23.5 280 23.5L280 26.5ZM239.687 23.9393C239.101 24.5251 239.101 25.4749 239.687 26.0607L249.233 35.6066C249.819 36.1924 250.768 36.1924 251.354 35.6066C251.94 35.0208 251.94 34.0711 251.354 33.4853L242.869 25L251.354 16.5147C251.94 15.9289 251.94 14.9792 251.354 14.3934C250.768 13.8076 249.819 13.8076 249.233 14.3934L239.687 23.9393ZM280 23.5L240.748 23.5L240.748 26.5L280 26.5L280 23.5Z" fill="#777777"/>
</svg>
