<svg width="300" height="50" viewBox="0 0 300 50" fill="none" xmlns="http://www.w3.org/2000/svg">
<mask id="path-1-inside-1_2530_57462" fill="white">
<path d="M0 0H300V50H0V0Z"/>
</mask>
<path d="M0 0H300V50H0V0Z" fill="#DCDCDC"/>
<path d="M0 3H300V-3H0V3ZM300 47H0V53H300V47Z" fill="#FAFAFA" mask="url(#path-1-inside-1_2530_57462)"/>
<path d="M60.3131 26.0607C60.8989 25.4749 60.8989 24.5251 60.3131 23.9393L50.7672 14.3934C50.1814 13.8076 49.2316 13.8076 48.6458 14.3934C48.0601 14.9792 48.0601 15.9289 48.6458 16.5147L57.1311 25L48.6458 33.4853C48.0601 34.0711 48.0601 35.0208 48.6458 35.6066C49.2316 36.1924 50.1814 36.1924 50.7672 35.6066L60.3131 26.0607ZM20.0001 23.5C19.1717 23.5 18.5001 24.1716 18.5001 25C18.5001 25.8284 19.1717 26.5 20.0001 26.5L20.0001 23.5ZM59.2524 23.5L20.0001 23.5L20.0001 26.5L59.2524 26.5L59.2524 23.5Z" fill="#777777"/>
<path d="M170.687 26.0607C171.273 25.4749 171.273 24.5251 170.687 23.9393L161.141 14.3934C160.555 13.8076 159.605 13.8076 159.02 14.3934C158.434 14.9792 158.434 15.9289 159.02 16.5147L167.505 25L159.02 33.4853C158.434 34.0711 158.434 35.0208 159.02 35.6066C159.605 36.1924 160.555 36.1924 161.141 35.6066L170.687 26.0607ZM130.374 23.5C129.545 23.5 128.874 24.1716 128.874 25C128.874 25.8284 129.545 26.5 130.374 26.5L130.374 23.5ZM169.626 23.5L130.374 23.5L130.374 26.5L169.626 26.5L169.626 23.5Z" fill="#777777"/>
<path d="M281.061 26.0607C281.646 25.4749 281.646 24.5251 281.061 23.9393L271.515 14.3934C270.929 13.8076 269.979 13.8076 269.393 14.3934C268.808 14.9792 268.808 15.9289 269.393 16.5147L277.879 25L269.393 33.4853C268.808 34.0711 268.808 35.0208 269.393 35.6066C269.979 36.1924 270.929 36.1924 271.515 35.6066L281.061 26.0607ZM240.748 23.5C239.919 23.5 239.248 24.1716 239.248 25C239.248 25.8284 239.919 26.5 240.748 26.5L240.748 23.5ZM280 23.5L240.748 23.5L240.748 26.5L280 26.5L280 23.5Z" fill="#777777"/>
</svg>
