<svg width="20" height="20" viewBox="0 0 20 20" fill="none" xmlns="http://www.w3.org/2000/svg">
<g clip-path="url(#clip0_1238_20221)">
<path d="M7.5 16.8751H3.75C3.58424 16.8751 3.42527 16.8093 3.30806 16.6921C3.19085 16.5749 3.125 16.4159 3.125 16.2501V12.759C3.125 12.677 3.14117 12.5957 3.17258 12.5199C3.20398 12.444 3.25002 12.3751 3.30806 12.3171L12.6831 2.94209C12.8003 2.82488 12.9592 2.75903 13.125 2.75903C13.2908 2.75903 13.4497 2.82488 13.5669 2.94209L17.0581 6.43321C17.1753 6.55042 17.2411 6.70939 17.2411 6.87515C17.2411 7.04091 17.1753 7.19988 17.0581 7.31709L7.5 16.8751Z" stroke="#0F62AB" stroke-width="1.5" stroke-linecap="round" stroke-linejoin="round"/>
<path d="M10.625 5L15 9.375" stroke="#0F62AB" stroke-width="1.5" stroke-linecap="round" stroke-linejoin="round"/>
</g>
<defs>
<clipPath id="clip0_1238_20221">
<rect width="20" height="20" fill="white"/>
</clipPath>
</defs>
</svg>
