<svg width="25" height="24" viewBox="0 0 25 24" fill="none" xmlns="http://www.w3.org/2000/svg">
<path d="M23.4525 16.13L19.2931 11.9706L23.4525 7.81111C23.7614 7.50223 23.9349 7.08329 23.9349 6.64647C23.9349 6.20964 23.7614 5.7907 23.4525 5.48182L19.4594 1.48875C19.1506 1.17986 18.7316 1.00633 18.2948 1.00633C17.858 1.00633 17.439 1.17986 17.1302 1.48874L12.9707 5.6482L8.81125 1.48874C8.50237 1.17986 8.08343 1.00633 7.64661 1.00633C7.20978 1.00633 6.79084 1.17986 6.48196 1.48874L2.48888 5.48182C2.18 5.7907 2.00647 6.20964 2.00647 6.64646C2.00647 7.08329 2.18 7.50223 2.48888 7.81111L6.64834 11.9706L2.48888 16.13C2.18 16.4389 2.00647 16.8578 2.00647 17.2947C2.00647 17.7315 2.18 18.1504 2.48888 18.4593L6.48196 22.4524C6.79084 22.7613 7.20978 22.9348 7.6466 22.9348C8.08343 22.9348 8.50237 22.7613 8.81125 22.4524L12.9707 18.2929L17.1302 22.4524C17.439 22.7613 17.858 22.9348 18.2948 22.9348C18.7316 22.9348 19.1506 22.7613 19.4594 22.4524L23.4525 18.4593C23.7614 18.1504 23.9349 17.7315 23.9349 17.2947C23.9349 16.8578 23.7614 16.4389 23.4525 16.13ZM18.4612 21.4541C18.4171 21.4982 18.3572 21.523 18.2948 21.523C18.2324 21.523 18.1725 21.4982 18.1284 21.4541L13.4698 16.7955C13.3375 16.6631 13.1579 16.5888 12.9707 16.5888C12.7835 16.5888 12.6039 16.6631 12.4716 16.7955L7.81298 21.4541C7.76886 21.4982 7.70901 21.523 7.6466 21.523C7.5842 21.523 7.52435 21.4982 7.48023 21.4541L3.48715 17.461C3.44303 17.4169 3.41824 17.3571 3.41824 17.2947C3.41824 17.2323 3.44303 17.1724 3.48715 17.1283L8.14574 12.4697C8.27812 12.3373 8.35249 12.1578 8.35249 11.9706C8.35249 11.7834 8.27812 11.6038 8.14574 11.4714L3.48715 6.81284C3.44303 6.76872 3.41824 6.70887 3.41824 6.64646C3.41824 6.58406 3.44303 6.52421 3.48715 6.48009L7.48023 2.48701C7.52435 2.44289 7.5842 2.4181 7.6466 2.4181C7.70901 2.4181 7.76886 2.44289 7.81298 2.48701L12.4716 7.1456C12.6039 7.27798 12.7835 7.35235 12.9707 7.35235C13.1579 7.35235 13.3375 7.27798 13.4698 7.1456L18.1284 2.48701C18.1725 2.44289 18.2324 2.4181 18.2948 2.4181C18.3572 2.4181 18.4171 2.44289 18.4612 2.48701L22.4543 6.48009C22.4984 6.52421 22.5232 6.58406 22.5232 6.64647C22.5232 6.70887 22.4984 6.76872 22.4543 6.81284L17.7957 11.4714C17.6633 11.6038 17.5889 11.7834 17.5889 11.9706C17.5889 12.1578 17.6633 12.3373 17.7957 12.4697L22.4543 17.1283C22.4984 17.1724 22.5232 17.2323 22.5232 17.2947C22.5232 17.3571 22.4984 17.4169 22.4543 17.461L18.4612 21.4541Z" fill="#323232"/>
</svg>
