<svg width="33" height="34" viewBox="0 0 33 34" fill="none" xmlns="http://www.w3.org/2000/svg">
<path d="M32.1613 23.2153L25.9465 17.0005L32.1613 10.7856C32.6228 10.3241 32.8821 9.69818 32.8821 9.0455C32.8821 8.39282 32.6228 7.76687 32.1613 7.30535L26.1951 1.33914C25.7336 0.877625 25.1076 0.618348 24.455 0.618349C23.8023 0.618348 23.1763 0.877625 22.7148 1.33914L16.5 7.55395L10.2852 1.33914C9.82368 0.877624 9.19773 0.618348 8.54505 0.618348C7.89237 0.618347 7.26642 0.877624 6.8049 1.33914L0.838689 7.30535C0.377173 7.76687 0.117897 8.39282 0.117897 9.0455C0.117897 9.69818 0.377173 10.3241 0.838688 10.7856L7.05349 17.0005L0.838688 23.2153C0.377174 23.6768 0.117897 24.3027 0.117895 24.9554C0.117896 25.6081 0.377172 26.234 0.838688 26.6955L6.8049 32.6618C7.26642 33.1233 7.89237 33.3826 8.54505 33.3826C9.19773 33.3826 9.82368 33.1233 10.2852 32.6618L16.5 26.447L22.7148 32.6618C23.1763 33.1233 23.8023 33.3826 24.455 33.3826C25.1076 33.3826 25.7336 33.1233 26.1951 32.6618L32.1613 26.6955C32.6228 26.234 32.8821 25.6081 32.8821 24.9554C32.8821 24.3027 32.6228 23.6768 32.1613 23.2153ZM24.7035 31.1702C24.6376 31.2361 24.5482 31.2732 24.4549 31.2732C24.3617 31.2732 24.2723 31.2361 24.2064 31.1702L17.2458 24.2096C17.048 24.0118 16.7797 23.9007 16.5 23.9007C16.2203 23.9007 15.952 24.0118 15.7542 24.2096L8.79364 31.1702C8.72771 31.2361 8.63829 31.2732 8.54505 31.2732C8.45181 31.2732 8.36239 31.2361 8.29645 31.1702L2.33024 25.204C2.26431 25.1381 2.22727 25.0486 2.22727 24.9554C2.22727 24.8622 2.26431 24.7727 2.33024 24.7068L9.29082 17.7462C9.48862 17.5484 9.59973 17.2802 9.59973 17.0004C9.59973 16.7207 9.48862 16.4525 9.29082 16.2547L2.33024 9.29409C2.26431 9.22816 2.22727 9.13874 2.22727 9.0455C2.22727 8.95226 2.26431 8.86284 2.33024 8.79691L8.29646 2.83069C8.36239 2.76476 8.45181 2.72772 8.54505 2.72772C8.63829 2.72772 8.72771 2.76476 8.79364 2.83069L15.7542 9.79128C15.952 9.98907 16.2203 10.1002 16.5 10.1002C16.7797 10.1002 17.048 9.98907 17.2458 9.79128L24.2064 2.83069C24.2723 2.76476 24.3617 2.72772 24.455 2.72772C24.5482 2.72772 24.6376 2.76476 24.7035 2.83069L30.6698 8.79691C30.7357 8.86284 30.7727 8.95226 30.7727 9.0455C30.7727 9.13874 30.7357 9.22816 30.6698 9.29409L23.7092 16.2547C23.5114 16.4525 23.4003 16.7207 23.4003 17.0005C23.4003 17.2802 23.5114 17.5484 23.7092 17.7462L30.6698 24.7068C30.7357 24.7727 30.7727 24.8622 30.7727 24.9554C30.7727 25.0486 30.7357 25.1381 30.6698 25.204L24.7035 31.1702Z" fill="#323232"/>
</svg>
