<svg width="27" height="27" viewBox="0 0 27 27" fill="none" xmlns="http://www.w3.org/2000/svg">
<path d="M26.0001 18.5003V9.12515C26.0001 8.09014 25.0574 7.25012 23.8236 7.25012C23.0588 7.25012 21.5882 7.62513 21.5882 9.12515V5.37508C21.5882 4.34006 20.6455 3.50005 19.4117 3.50005C18.6661 3.50005 17.1763 3.87505 17.1763 5.37508V2.87504C17.1763 1.84002 16.2336 1 14.9998 1C13.7645 1 12.7644 1.84002 12.7644 2.87504V5.37508C12.7644 3.87505 11.3041 3.50005 10.5585 3.50005C9.32315 3.50005 8.35254 4.36381 8.35254 5.40008V16.0003M12.7644 5.37508V12.2502M17.1763 5.37508V12.2502M21.5882 5.37508V12.2502" stroke="black" stroke-width="2" stroke-linecap="round" stroke-linejoin="round"/>
<path d="M26.0005 18.5003C26.0005 23.5004 21.3915 26.0004 15.7061 26.0004C10.0206 26.0004 8.06468 24.7504 3.65279 18.5003L1.34243 15.244C0.554177 14.159 1.18508 12.7514 2.63806 12.3514C3.11317 12.2195 3.62451 12.2149 4.10277 12.3384C4.58102 12.4618 5.00306 12.7072 5.31166 13.0414L8.35293 16.0415" stroke="black" stroke-width="2" stroke-linecap="round" stroke-linejoin="round"/>
</svg>
