<svg width="31" height="17" viewBox="0 0 31 17" fill="none" xmlns="http://www.w3.org/2000/svg">
<mask id="mask0_8166_29623" style="mask-type:alpha" maskUnits="userSpaceOnUse" x="0" y="1" width="17" height="15">
<rect x="0.5" y="1.23425" width="15.8333" height="14.6853" fill="#C4C4C4"/>
</mask>
<g mask="url(#mask0_8166_29623)">
<path d="M30.5185 6.88303L27.9747 5.8586L25.7296 2.69949C25.0806 1.7838 23.9386 1.2286 22.7122 1.2343H13.1472C12.0377 1.2343 10.9864 1.68631 10.3115 2.4648L7.41092 5.81278L2.57649 6.98038C1.34993 7.27797 0.5 8.2681 0.5 9.38974V11.0209C0.5 12.4001 1.74592 13.539 3.30975 13.539H3.72511C4.22471 15.239 6.19097 16.2577 8.1182 15.8168C9.38349 15.5251 10.3764 14.6552 10.7009 13.539H21.6025C22.1022 15.239 24.0683 16.2577 25.9956 15.8168C27.2609 15.5251 28.2537 14.6552 28.5783 13.539H29.3569C30.9208 13.539 32.1666 12.4001 32.1666 11.0209V9.16088C32.1732 8.18228 31.5244 7.28936 30.5185 6.88303ZM7.2097 14.7639C5.93779 14.7639 4.906 13.8538 4.906 12.7321C4.906 11.6104 5.93779 10.7004 7.2097 10.7004C8.48145 10.7004 9.51324 11.6104 9.51324 12.7321C9.51985 13.8482 8.48806 14.7581 7.2097 14.7639ZM25.0872 14.7639C23.8153 14.7639 22.7835 13.8538 22.7835 12.7321C22.7835 11.6104 23.8153 10.7004 25.0872 10.7004C26.359 10.7004 27.3907 11.6104 27.3907 12.7321C27.3972 13.8482 26.3654 14.7581 25.0872 14.7639ZM29.3569 12.3944H28.669C28.4548 10.6489 26.6704 9.38974 24.6912 9.58429C23.0104 9.74468 21.6867 10.9178 21.505 12.3944H10.7914C10.5773 10.6489 8.79289 9.38974 6.81371 9.58429C5.13305 9.74468 3.80919 10.9178 3.62749 12.3944H3.30298C2.4529 12.3944 1.79112 11.7706 1.79112 11.0209V9.38974C1.78466 8.77733 2.24537 8.24519 2.91376 8.0791L7.96878 6.85998C8.10498 6.82568 8.22827 6.75694 8.31266 6.6539L11.3365 3.15707C11.7713 2.66492 12.4397 2.37871 13.1469 2.37871H22.7119C23.4905 2.37302 24.2239 2.72213 24.6327 3.3058L26.9817 6.61377C27.0466 6.71098 27.1505 6.78542 27.2605 6.83124L29.9731 7.92441C30.5182 8.14757 30.8686 8.62833 30.8621 9.16061V11.0206H30.8686C30.8689 11.7706 30.2071 12.3944 29.3569 12.3944Z" fill="#323232"/>
</g>
<mask id="mask1_8166_29623" style="mask-type:alpha" maskUnits="userSpaceOnUse" x="17" y="1" width="14" height="16">
<rect x="17.167" y="1.96851" width="13.3333" height="14.6853" fill="#C4C4C4"/>
</mask>
<g mask="url(#mask1_8166_29623)">
<path d="M25.6389 4.17129C25.6389 3.78181 25.4691 3.40829 25.167 3.13288C24.8649 2.85748 24.4551 2.70276 24.0278 2.70276H20L25.6389 11.514" stroke="#323232" stroke-linecap="round" stroke-linejoin="round"/>
<path d="M25.6391 15.1853C27.8636 15.1853 29.6669 13.5416 29.6669 11.514C29.6669 9.48636 27.8636 7.84265 25.6391 7.84265C23.4146 7.84265 21.6113 9.48636 21.6113 11.514C21.6113 13.5416 23.4146 15.1853 25.6391 15.1853Z" stroke="#323232" stroke-linecap="round" stroke-linejoin="round"/>
<path d="M9.52734 2.70276H12.3468L17.9857 11.514" stroke="#323232" stroke-linecap="round" stroke-linejoin="round"/>
<path d="M21.8208 5.63989H14.2265L9.52734 11.514" stroke="#323232" stroke-linecap="round" stroke-linejoin="round"/>
</g>
<line x1="16.833" y1="1" x2="16.833" y2="14.6853" stroke="#323232" stroke-linecap="round"/>
</svg>
