<svg width="25" height="25" viewBox="0 0 25 25" fill="none" xmlns="http://www.w3.org/2000/svg">
<path d="M23.214 7.14258H19.6426V8.9283H23.214V10.714H24.9997V8.9283C24.9997 8.4547 24.8116 8.00049 24.4767 7.6656C24.1418 7.33072 23.6876 7.14258 23.214 7.14258Z" fill="black"/>
<path d="M23.2148 12.5H25.0006V17.8572H23.2148V12.5Z" fill="black"/>
<path d="M23.2144 23.214H21.4287V24.9997H23.2144C23.688 24.9997 24.1422 24.8116 24.4771 24.4767C24.812 24.1418 25.0002 23.6876 25.0002 23.214V19.6426H23.2144V23.214Z" fill="black"/>
<path d="M17.8572 16.0715V1.78572C17.8572 1.31212 17.6691 0.857913 17.3342 0.523025C16.9993 0.188138 16.5451 0 16.0715 0H1.78572C1.31212 0 0.857913 0.188138 0.523025 0.523025C0.188138 0.857913 0 1.31212 0 1.78572V16.0715C0 16.5451 0.188138 16.9993 0.523025 17.3342C0.857913 17.6691 1.31212 17.8572 1.78572 17.8572H16.0715C16.5451 17.8572 16.9993 17.6691 17.3342 17.3342C17.6691 16.9993 17.8572 16.5451 17.8572 16.0715ZM1.78572 1.78572H16.0715V16.0715H1.78572V1.78572Z" fill="black"/>
<path d="M14.2861 23.2139H19.6433V24.9996H14.2861V23.2139Z" fill="black"/>
<path d="M8.9283 19.6426H7.14258V23.214C7.14258 23.6876 7.33072 24.1418 7.6656 24.4767C8.00049 24.8116 8.4547 24.9997 8.9283 24.9997H12.4997V23.214H8.9283V19.6426Z" fill="black"/>
</svg>
