<svg width="25" height="25" viewBox="0 0 25 25" fill="none" xmlns="http://www.w3.org/2000/svg">
<path d="M4.16671 19.7913V8.33301H20.8334V11.7601C21.5834 11.9893 22.2917 12.3226 22.9167 12.7705V8.33301C22.9167 7.17676 21.9896 6.24967 20.8334 6.24967H16.6667V4.16634C16.6667 3.01009 15.7396 2.08301 14.5834 2.08301H10.4167C9.26046 2.08301 8.33337 3.01009 8.33337 4.16634V6.24967H4.16671C3.01046 6.24967 2.09379 7.17676 2.09379 8.33301L2.08337 19.7913C2.08337 20.9476 3.01046 21.8747 4.16671 21.8747H12.1667C11.8542 21.2288 11.6459 20.5309 11.5417 19.7913H4.16671ZM10.4167 4.16634H14.5834V6.24967H10.4167V4.16634Z" fill="#E9994A"/>
<path d="M18.75 13.542C15.875 13.542 13.5416 15.8753 13.5416 18.7503C13.5416 21.6253 15.875 23.9587 18.75 23.9587C21.625 23.9587 23.9583 21.6253 23.9583 18.7503C23.9583 15.8753 21.625 13.542 18.75 13.542ZM20.4687 21.1982L18.2291 18.9587V15.6253H19.2708V18.5316L21.1979 20.4587L20.4687 21.1982Z" fill="#E9994A"/>
</svg>
