<svg width="25" height="25" viewBox="0 0 25 25" fill="none" xmlns="http://www.w3.org/2000/svg">
<path d="M0.863432 14.1011H2.89974V22.1388C2.89974 22.6126 3.29258 23 3.77248 23H9.73609C10.216 23 10.6088 22.6126 10.6088 22.1388V16.2539H14.2451V22.1388C14.2451 22.6126 14.6379 23 15.1178 23H20.7904C21.2703 23 21.6631 22.6126 21.6631 22.1388V14.1011H24.1358C24.4849 14.1011 24.8049 13.8857 24.936 13.57C25.0668 13.2542 24.994 12.8811 24.7469 12.637L13.3725 1.2549C13.038 0.924734 12.4853 0.910416 12.1507 1.24058L0.267241 12.6227C0.00542106 12.8667 -0.0673423 13.2401 0.0636729 13.57C0.194268 13.9 0.514339 14.1011 0.863432 14.1011ZM12.7322 3.07777L22.0412 12.3787H20.7904C20.3105 12.3787 19.9178 12.7663 19.9178 13.2399V21.2776H15.9905V15.3927C15.9905 14.9191 15.5979 14.5315 15.1178 14.5315H9.73609C9.25619 14.5315 8.86335 14.9191 8.86335 15.3927V21.2776H4.64521V13.2399C4.64521 12.7661 4.25238 12.3787 3.77248 12.3787H3.01604L12.7322 3.07777Z" fill="#E9994A"/>
</svg>
