<svg width="25" height="25" viewBox="0 0 25 25" fill="none" xmlns="http://www.w3.org/2000/svg">
<path d="M15.1192 22.5H20.8335V16.7857H18.6906V13.9286C18.6903 13.5498 18.5396 13.1867 18.2718 12.9188C18.004 12.651 17.6408 12.5004 17.2621 12.5L12.9764 12.5L12.9764 8.21429L15.1192 8.21429V2.5L9.40493 2.5L9.40493 8.21429H11.5478V12.5H7.26207C6.8833 12.5004 6.52016 12.651 6.25233 12.9188C5.98451 13.1867 5.83388 13.5498 5.8335 13.9286V16.7857H3.69064V22.5H9.40493L9.40493 16.7857H7.26207V13.9286L17.2621 13.9286V16.7857H15.1192V22.5ZM10.8335 6.78571V3.92857L13.6906 3.92857V6.78571L10.8335 6.78571ZM7.97635 18.2143V21.0714H5.11921V18.2143L7.97635 18.2143ZM19.4049 18.2143V21.0714H16.5478V18.2143H19.4049Z" fill="#E9994A"/>
</svg>
