<svg width="15" height="17" viewBox="0 0 15 17" fill="none" xmlns="http://www.w3.org/2000/svg">
<path d="M7.50016 0.166504C5.20266 0.166504 3.3335 2.03567 3.3335 4.33317V6.83317H2.50016C1.581 6.83317 0.833496 7.58067 0.833496 8.49984V15.1665C0.833496 16.0857 1.581 16.8332 2.50016 16.8332H12.5002C13.4193 16.8332 14.1668 16.0857 14.1668 15.1665V8.49984C14.1668 7.58067 13.4193 6.83317 12.5002 6.83317H11.6668V4.33317C11.6668 2.03567 9.79766 0.166504 7.50016 0.166504ZM12.5002 8.49984L12.5018 15.1665H2.50016V8.49984H12.5002ZM5.00016 6.83317V4.33317C5.00016 2.95484 6.12183 1.83317 7.50016 1.83317C8.8785 1.83317 10.0002 2.95484 10.0002 4.33317V6.83317H5.00016Z" fill="black"/>
</svg>
