<svg width="25" height="25" viewBox="0 0 25 25" fill="none" xmlns="http://www.w3.org/2000/svg">
<path d="M21.0938 8.78906H16.2109V3.90625C16.2109 3.54365 16.0669 3.1959 15.8105 2.9395C15.5541 2.68311 15.2064 2.53906 14.8438 2.53906H10.1562C9.79365 2.53906 9.4459 2.68311 9.1895 2.9395C8.9331 3.1959 8.78906 3.54365 8.78906 3.90625V8.78906H3.90625C3.54365 8.78906 3.1959 8.9331 2.9395 9.1895C2.68311 9.4459 2.53906 9.79365 2.53906 10.1562V14.8438C2.53906 15.2064 2.68311 15.5541 2.9395 15.8105C3.1959 16.0669 3.54365 16.2109 3.90625 16.2109H8.78906V21.0938C8.78906 21.4564 8.9331 21.8041 9.1895 22.0605C9.4459 22.3169 9.79365 22.4609 10.1562 22.4609H14.8438C15.2064 22.4609 15.5541 22.3169 15.8105 22.0605C16.0669 21.8041 16.2109 21.4564 16.2109 21.0938V16.2109H21.0938C21.4564 16.2109 21.8041 16.0669 22.0605 15.8105C22.3169 15.5541 22.4609 15.2064 22.4609 14.8438V10.1562C22.4609 9.79365 22.3169 9.4459 22.0605 9.1895C21.8041 8.9331 21.4564 8.78906 21.0938 8.78906ZM21.2891 14.8438C21.2891 14.8955 21.2685 14.9452 21.2319 14.9819C21.1952 15.0185 21.1455 15.0391 21.0938 15.0391H15.625C15.4696 15.0391 15.3206 15.1008 15.2107 15.2107C15.1008 15.3206 15.0391 15.4696 15.0391 15.625V21.0938C15.0391 21.1455 15.0185 21.1952 14.9819 21.2319C14.9452 21.2685 14.8955 21.2891 14.8438 21.2891H10.1562C10.1044 21.2891 10.0548 21.2685 10.0181 21.2319C9.98151 21.1952 9.96094 21.1455 9.96094 21.0938V15.625C9.96094 15.4696 9.8992 15.3206 9.78932 15.2107C9.67944 15.1008 9.5304 15.0391 9.375 15.0391H3.90625C3.85445 15.0391 3.80477 15.0185 3.76814 14.9819C3.73151 14.9452 3.71094 14.8955 3.71094 14.8438V10.1562C3.71094 10.1044 3.73151 10.0548 3.76814 10.0181C3.80477 9.98151 3.85445 9.96094 3.90625 9.96094H9.375C9.5304 9.96094 9.67944 9.8992 9.78932 9.78932C9.8992 9.67944 9.96094 9.5304 9.96094 9.375V3.90625C9.96094 3.85445 9.98151 3.80477 10.0181 3.76814C10.0548 3.73151 10.1044 3.71094 10.1562 3.71094H14.8438C14.8955 3.71094 14.9452 3.73151 14.9819 3.76814C15.0185 3.80477 15.0391 3.85445 15.0391 3.90625V9.375C15.0391 9.5304 15.1008 9.67944 15.2107 9.78932C15.3206 9.8992 15.4696 9.96094 15.625 9.96094H21.0938C21.1455 9.96094 21.1952 9.98151 21.2319 10.0181C21.2685 10.0548 21.2891 10.1044 21.2891 10.1562V14.8438Z" fill="#E9994A"/>
</svg>
