<svg width="25" height="25" viewBox="0 0 25 25" fill="none" xmlns="http://www.w3.org/2000/svg">
<path fill-rule="evenodd" clip-rule="evenodd" d="M12.5 13.0212C12.9104 13.0212 13.3167 12.9403 13.6959 12.7833C14.075 12.6262 14.4195 12.3961 14.7097 12.1059C14.9999 11.8157 15.2301 11.4712 15.3871 11.092C15.5442 10.7129 15.625 10.3065 15.625 9.89616C15.625 9.48578 15.5442 9.07942 15.3871 8.70027C15.2301 8.32113 14.9999 7.97663 14.7097 7.68645C14.4195 7.39627 14.075 7.16608 13.6959 7.00904C13.3167 6.85199 12.9104 6.77116 12.5 6.77116C11.6712 6.77116 10.8763 7.1004 10.2903 7.68645C9.70424 8.2725 9.375 9.06736 9.375 9.89616C9.375 10.725 9.70424 11.5198 10.2903 12.1059C10.8763 12.6919 11.6712 13.0212 12.5 13.0212ZM12.5 14.0628C13.6051 14.0628 14.6649 13.6238 15.4463 12.8424C16.2277 12.061 16.6667 11.0012 16.6667 9.89616C16.6667 8.79109 16.2277 7.73128 15.4463 6.94988C14.6649 6.16848 13.6051 5.72949 12.5 5.72949C11.3949 5.72949 10.3351 6.16848 9.55373 6.94988C8.77232 7.73128 8.33334 8.79109 8.33334 9.89616C8.33334 11.0012 8.77232 12.061 9.55373 12.8424C10.3351 13.6238 11.3949 14.0628 12.5 14.0628Z" fill="#E9994A"/>
<path fill-rule="evenodd" clip-rule="evenodd" d="M18.1082 18.102C18.1082 17.2653 17.543 16.5357 16.7415 16.3326C16.6769 16.3162 16.6109 16.3033 16.5435 16.294C13.4114 15.8605 11.2221 15.819 8.07253 16.2793C7.15824 16.4127 6.5011 17.2038 6.5011 18.1141V18.6779C6.5011 19.5151 7.06693 20.245 7.86923 20.4477C7.93331 20.4639 7.9989 20.4767 8.06583 20.486C11.198 20.9194 13.3873 20.961 16.5368 20.5007C17.4511 20.3672 18.1082 19.5761 18.1082 18.6659V18.102ZM16.4223 17.1782C13.3625 16.7545 11.2585 16.7161 8.20266 17.1626C7.74061 17.23 7.39507 17.6331 7.39507 18.1139L7.39507 18.6787C7.39362 18.9026 7.47323 19.1194 7.61921 19.2892C7.74397 19.4343 7.90999 19.5366 8.09394 19.5834C8.12488 19.5912 8.15632 19.5974 8.18815 19.602C11.248 20.0257 13.352 20.0641 16.4078 19.6177C16.8698 19.5502 17.2154 19.1471 17.2154 18.6663L17.2165 18.1019C17.218 17.878 17.1383 17.6611 16.9924 17.4913C16.8673 17.3459 16.7009 17.2435 16.5165 17.1969C16.4856 17.1891 16.4541 17.1828 16.4223 17.1782Z" fill="#E9994A"/>
</svg>
