<svg width="25" height="25" viewBox="0 0 25 25" fill="none" xmlns="http://www.w3.org/2000/svg">
<path fill-rule="evenodd" clip-rule="evenodd" d="M7.71335 18.08C11.2785 17.5592 13.7331 17.604 17.3029 18.0983C17.5615 18.1357 17.7977 18.2655 17.968 18.4636C18.1383 18.6617 18.2312 18.9147 18.2295 19.1759C18.2295 19.4259 18.1436 19.6686 17.9883 19.8582C17.7178 20.1887 17.4407 20.5138 17.1571 20.8332H18.5326C18.6191 20.73 18.7061 20.6248 18.7941 20.5181C19.103 20.1392 19.2716 19.6652 19.2712 19.1764C19.2712 18.1217 18.5014 17.2129 17.4456 17.067C13.7915 16.5613 11.2373 16.5129 7.56283 17.0498C6.49616 17.2056 5.72949 18.1285 5.72949 19.1905C5.72949 19.6618 5.88314 20.128 6.17428 20.5056C6.26022 20.617 6.34512 20.7264 6.42949 20.8337H7.77168C7.50784 20.5178 7.25049 20.1966 6.9998 19.8702C6.85083 19.6747 6.77046 19.4357 6.77116 19.1899C6.77116 18.629 7.17428 18.1587 7.71335 18.08ZM12.5003 13.0207C12.9107 13.0207 13.3171 12.9398 13.6962 12.7828C14.0754 12.6257 14.4199 12.3956 14.71 12.1054C15.0002 11.8152 15.2304 11.4707 15.3875 11.0916C15.5445 10.7124 15.6253 10.3061 15.6253 9.89567C15.6253 9.48529 15.5445 9.07893 15.3875 8.69978C15.2304 8.32064 15.0002 7.97615 14.71 7.68596C14.4199 7.39578 14.0754 7.16559 13.6962 7.00855C13.3171 6.8515 12.9107 6.77067 12.5003 6.77067C11.6715 6.77067 10.8767 7.09991 10.2906 7.68596C9.70457 8.27201 9.37533 9.06687 9.37533 9.89567C9.37533 10.7245 9.70457 11.5193 10.2906 12.1054C10.8767 12.6914 11.6715 13.0207 12.5003 13.0207ZM12.5003 14.0623C13.6054 14.0623 14.6652 13.6234 15.4466 12.8419C16.228 12.0605 16.667 11.0007 16.667 9.89567C16.667 8.7906 16.228 7.73079 15.4466 6.94939C14.6652 6.16799 13.6054 5.729 12.5003 5.729C11.3953 5.729 10.3354 6.16799 9.55405 6.94939C8.77265 7.73079 8.33366 8.7906 8.33366 9.89567C8.33366 11.0007 8.77265 12.0605 9.55405 12.8419C10.3354 13.6234 11.3953 14.0623 12.5003 14.0623Z" fill="#E9994A"/>
<path fill-rule="evenodd" clip-rule="evenodd" d="M12.5002 21.8749C17.6778 21.8749 21.8752 17.6775 21.8752 12.4999C21.8752 7.32231 17.6778 3.12492 12.5002 3.12492C7.32256 3.12492 3.12516 7.32231 3.12516 12.4999C3.12516 17.6775 7.32256 21.8749 12.5002 21.8749ZM12.5002 22.9166C18.2533 22.9166 22.9168 18.253 22.9168 12.4999C22.9168 6.74679 18.2533 2.08325 12.5002 2.08325C6.74704 2.08325 2.0835 6.74679 2.0835 12.4999C2.0835 18.253 6.74704 22.9166 12.5002 22.9166Z" fill="#E9994A"/>
</svg>
