<svg width="25" height="25" viewBox="0 0 25 25" fill="none" xmlns="http://www.w3.org/2000/svg">
<mask id="path-1-inside-1_1_2692" fill="white">
<path d="M14.624 17.5485C16.3116 14.6361 18.4446 10.5417 18.4446 8.43707C18.4446 4.8869 15.67 2 12.258 2C8.84592 2 6.07132 4.8869 6.07132 8.43707C6.07132 10.5417 8.20437 14.6361 9.89201 17.5485C7.88972 17.7058 3.3335 18.2713 3.3335 20.1463C3.3335 21.9915 7.95919 22.8333 12.2621 22.8333C16.5609 22.8333 21.1906 21.9915 21.1906 20.1463C21.1866 18.2713 16.6262 17.7058 14.624 17.5485ZM6.92536 8.43707C6.92536 5.37585 9.31993 2.88435 12.258 2.88435C15.2001 2.88435 17.5947 5.37585 17.5947 8.43707C17.5947 11.1114 13.5002 17.8206 12.258 19.7934C11.0157 17.8206 6.92536 11.1114 6.92536 8.43707ZM12.258 21.9447C7.0316 21.9447 4.18345 20.7543 4.18345 20.142C4.18345 19.6701 6.06315 18.6539 10.3946 18.3946C11.2078 19.7594 11.8248 20.7245 11.9066 20.8393C12.0169 20.9923 12.3397 21.1752 12.6135 20.8393C12.6993 20.733 13.3122 19.7594 14.1254 18.3946C18.4569 18.6539 20.3366 19.6658 20.3366 20.142C20.3325 20.7585 17.4844 21.9447 12.258 21.9447Z"/>
<path d="M14.9508 8.43708C14.9508 6.88946 13.7454 5.63521 12.258 5.63521C10.7705 5.63521 9.56509 6.88946 9.56509 8.43708C9.56509 9.98469 10.7705 11.2389 12.258 11.2389C13.7454 11.2389 14.9508 9.98469 14.9508 8.43708ZM10.415 8.43708C10.415 7.3784 11.2405 6.51956 12.258 6.51956C13.2755 6.51956 14.1009 7.3784 14.1009 8.43708C14.1009 9.49575 13.2755 10.3546 12.258 10.3546C11.2405 10.3546 10.415 9.49575 10.415 8.43708Z"/>
</mask>
<path d="M14.624 17.5485C16.3116 14.6361 18.4446 10.5417 18.4446 8.43707C18.4446 4.8869 15.67 2 12.258 2C8.84592 2 6.07132 4.8869 6.07132 8.43707C6.07132 10.5417 8.20437 14.6361 9.89201 17.5485C7.88972 17.7058 3.3335 18.2713 3.3335 20.1463C3.3335 21.9915 7.95919 22.8333 12.2621 22.8333C16.5609 22.8333 21.1906 21.9915 21.1906 20.1463C21.1866 18.2713 16.6262 17.7058 14.624 17.5485ZM6.92536 8.43707C6.92536 5.37585 9.31993 2.88435 12.258 2.88435C15.2001 2.88435 17.5947 5.37585 17.5947 8.43707C17.5947 11.1114 13.5002 17.8206 12.258 19.7934C11.0157 17.8206 6.92536 11.1114 6.92536 8.43707ZM12.258 21.9447C7.0316 21.9447 4.18345 20.7543 4.18345 20.142C4.18345 19.6701 6.06315 18.6539 10.3946 18.3946C11.2078 19.7594 11.8248 20.7245 11.9066 20.8393C12.0169 20.9923 12.3397 21.1752 12.6135 20.8393C12.6993 20.733 13.3122 19.7594 14.1254 18.3946C18.4569 18.6539 20.3366 19.6658 20.3366 20.142C20.3325 20.7585 17.4844 21.9447 12.258 21.9447Z" fill="#E9994A"/>
<path d="M14.9508 8.43708C14.9508 6.88946 13.7454 5.63521 12.258 5.63521C10.7705 5.63521 9.56509 6.88946 9.56509 8.43708C9.56509 9.98469 10.7705 11.2389 12.258 11.2389C13.7454 11.2389 14.9508 9.98469 14.9508 8.43708ZM10.415 8.43708C10.415 7.3784 11.2405 6.51956 12.258 6.51956C13.2755 6.51956 14.1009 7.3784 14.1009 8.43708C14.1009 9.49575 13.2755 10.3546 12.258 10.3546C11.2405 10.3546 10.415 9.49575 10.415 8.43708Z" fill="#E9994A"/>
<path d="M14.624 17.5485L13.7587 17.0471L12.9626 18.421L14.5456 18.5454L14.624 17.5485ZM9.89201 17.5485L9.97034 18.5454L11.5534 18.421L10.7572 17.0471L9.89201 17.5485ZM21.1906 20.1463H22.1906L22.1906 20.1441L21.1906 20.1463ZM12.258 19.7934L11.4118 20.3262L12.258 21.6701L13.1042 20.3262L12.258 19.7934ZM10.3946 18.3946L11.2537 17.8827L10.9422 17.36L10.3349 17.3963L10.3946 18.3946ZM11.9066 20.8393L11.0919 21.4193L11.0953 21.424L11.9066 20.8393ZM12.6135 20.8393L13.3886 21.4711L13.3916 21.4674L12.6135 20.8393ZM14.1254 18.3946L14.1852 17.3963L13.5778 17.36L13.2663 17.8827L14.1254 18.3946ZM20.3366 20.142L21.3366 20.1486V20.142H20.3366ZM15.4892 18.0498C16.3407 16.5804 17.3147 14.7957 18.0788 13.1008C18.8198 11.4573 19.4446 9.72855 19.4446 8.43707H17.4446C17.4446 9.2502 17.003 10.6209 16.2555 12.2788C15.5312 13.8854 14.5949 15.6042 13.7587 17.0471L15.4892 18.0498ZM19.4446 8.43707C19.4446 4.37239 16.2594 1 12.258 1V3C15.0807 3 17.4446 5.40142 17.4446 8.43707H19.4446ZM12.258 1C8.25661 1 5.07132 4.37239 5.07132 8.43707H7.07132C7.07132 5.40142 9.43523 3 12.258 3V1ZM5.07132 8.43707C5.07132 9.72855 5.6962 11.4573 6.43717 13.1008C7.20128 14.7957 8.17527 16.5804 9.02678 18.0498L10.7572 17.0471C9.92111 15.6042 8.98476 13.8854 8.26043 12.2788C7.51297 10.6209 7.07132 9.2502 7.07132 8.43707H5.07132ZM9.81369 16.5515C8.79518 16.6316 7.07553 16.8181 5.58817 17.2414C4.85116 17.4512 4.09651 17.7392 3.50535 18.1508C2.91461 18.562 2.3335 19.2135 2.3335 20.1463H4.3335C4.3335 20.1415 4.32191 20.0192 4.64804 19.7922C4.97374 19.5654 5.48328 19.3507 6.13563 19.165C7.42695 18.7975 8.98655 18.6227 9.97034 18.5454L9.81369 16.5515ZM2.3335 20.1463C2.3335 21.0835 2.93304 21.7471 3.56367 22.1732C4.19989 22.603 5.03712 22.9164 5.93225 23.1495C7.73708 23.6194 10.0609 23.8333 12.2621 23.8333V21.8333C10.1604 21.8333 8.01989 21.6264 6.43616 21.214C5.637 21.006 5.04888 20.7629 4.68332 20.516C4.50465 20.3953 4.4126 20.2958 4.36922 20.2316C4.33246 20.1772 4.3335 20.1544 4.3335 20.1463H2.3335ZM12.2621 23.8333C14.4613 23.8333 16.785 23.6194 18.5903 23.1495C19.4856 22.9165 20.3232 22.6031 20.9596 22.1734C21.5904 21.7475 22.1906 21.0838 22.1906 20.1463H20.1906C20.1906 20.1542 20.1917 20.1769 20.1549 20.2313C20.1115 20.2955 20.0194 20.395 19.8405 20.5158C19.4746 20.7629 18.886 21.0059 18.0865 21.214C16.5022 21.6264 14.3616 21.8333 12.2621 21.8333V23.8333ZM22.1906 20.1441C22.1886 19.2116 21.6061 18.5609 21.015 18.1502C20.4231 17.739 19.6678 17.4511 18.9301 17.2413C17.4413 16.8181 15.7208 16.6316 14.7023 16.5515L14.5456 18.5454C15.5294 18.6227 17.0902 18.7975 18.3832 19.1651C19.0363 19.3508 19.547 19.5656 19.8739 19.7927C20.2015 20.0203 20.1906 20.1435 20.1906 20.1484L22.1906 20.1441ZM7.92536 8.43707C7.92536 5.88986 9.90973 3.88435 12.258 3.88435V1.88435C8.73013 1.88435 5.92536 4.86184 5.92536 8.43707H7.92536ZM12.258 3.88435C14.6108 3.88435 16.5947 5.89037 16.5947 8.43707H18.5947C18.5947 4.86133 15.7894 1.88435 12.258 1.88435V3.88435ZM16.5947 8.43707C16.5947 8.907 16.4007 9.67967 16.0036 10.6995C15.6189 11.6878 15.0865 12.8029 14.5057 13.9155C13.3451 16.1387 12.0272 18.2831 11.4118 19.2605L13.1042 20.3262C13.731 19.3308 15.0815 17.1342 16.2786 14.8411C16.8767 13.6955 17.4456 12.5086 17.8674 11.4251C18.2769 10.3732 18.5947 9.30431 18.5947 8.43707H16.5947ZM13.1042 19.2605C12.4889 18.2834 11.1721 16.139 10.0125 13.9158C9.43214 12.8032 8.90026 11.6881 8.51588 10.6998C8.11924 9.67999 7.92536 8.90719 7.92536 8.43707H5.92536C5.92536 9.30412 6.24277 10.3728 6.6519 11.4248C7.07329 12.5082 7.64165 13.6952 8.2392 14.8408C9.43531 17.1339 10.7848 19.3305 11.4118 20.3262L13.1042 19.2605ZM12.258 20.9447C9.71518 20.9447 7.78783 20.6545 6.52511 20.3085C5.88824 20.134 5.45456 19.9545 5.20337 19.8121C5.07489 19.7392 5.03225 19.6974 5.03511 19.7003C5.03813 19.7034 5.06941 19.7357 5.10295 19.7999C5.13733 19.8657 5.18345 19.9837 5.18345 20.142H3.18345C3.18345 20.6009 3.43767 20.9254 3.59697 21.0902C3.77599 21.2754 3.9967 21.427 4.21689 21.5519C4.66306 21.8048 5.26806 22.0378 5.99653 22.2374C7.46448 22.6397 9.5744 22.9447 12.258 22.9447V20.9447ZM5.18345 20.142C5.18345 20.4086 5.0588 20.5604 5.04789 20.5738C5.02616 20.6004 5.03311 20.5836 5.10675 20.5335C5.25121 20.4354 5.53149 20.2908 5.98797 20.1349C6.89157 19.8262 8.35086 19.5187 10.4544 19.3928L10.3349 17.3963C8.10691 17.5297 6.46061 17.86 5.3415 18.2422C4.78661 18.4318 4.32625 18.6459 3.98291 18.8791C3.81265 18.9948 3.6389 19.1368 3.49746 19.3104C3.36683 19.4707 3.18345 19.7574 3.18345 20.142H5.18345ZM9.53555 18.9064C10.3457 20.2662 10.9828 21.266 11.0919 21.4193L12.7212 20.2593C12.7233 20.2623 12.7143 20.2493 12.6875 20.2085C12.6638 20.1724 12.6318 20.1231 12.592 20.061C12.5125 19.9371 12.4045 19.7665 12.2731 19.5561C12.0105 19.1354 11.6565 18.5588 11.2537 17.8827L9.53555 18.9064ZM11.0953 21.424C11.2785 21.6782 11.6013 21.9322 12.0239 22.0072C12.5381 22.0985 13.0412 21.8973 13.3886 21.4711L11.8384 20.2075C11.8601 20.1808 11.9229 20.1168 12.0373 20.0718C12.1537 20.0261 12.2729 20.0202 12.3735 20.038C12.4671 20.0546 12.5355 20.0895 12.5803 20.1194C12.6229 20.1478 12.6709 20.1895 12.7178 20.2545L11.0953 21.424ZM13.3916 21.4674C13.4546 21.3894 13.5424 21.2543 13.612 21.1463C13.6983 21.0125 13.8115 20.8331 13.946 20.6168C14.2153 20.1835 14.5751 19.5935 14.9845 18.9064L13.2663 17.8827C12.8626 18.5604 12.5093 19.1396 12.2474 19.5609C12.1163 19.7719 12.0093 19.9412 11.9311 20.0625C11.8363 20.2096 11.8153 20.236 11.8354 20.2111L13.3916 21.4674ZM14.0657 19.3928C16.1696 19.5187 17.629 19.8253 18.5325 20.1334C18.989 20.2891 19.2688 20.4335 19.4128 20.5314C19.4862 20.5813 19.4928 20.598 19.4709 20.571C19.4592 20.5566 19.3366 20.406 19.3366 20.142H21.3366C21.3366 19.759 21.1552 19.4725 21.0238 19.3106C20.8822 19.1362 20.7082 18.9937 20.5376 18.8777C20.1938 18.6438 19.733 18.4297 19.1781 18.2405C18.0589 17.8588 16.4127 17.5297 14.1852 17.3963L14.0657 19.3928ZM19.3366 20.1354C19.3377 19.9794 19.3834 19.8633 19.4174 19.7987C19.4506 19.7356 19.4813 19.7039 19.484 19.7011C19.4863 19.6987 19.4432 19.7409 19.3146 19.8137C19.0629 19.9563 18.6289 20.1357 17.9918 20.31C16.7286 20.6555 14.8011 20.9447 12.258 20.9447V22.9447C14.9412 22.9447 17.0511 22.6408 18.5195 22.2391C19.2482 22.0398 19.8537 21.807 20.3006 21.5538C20.5212 21.4288 20.742 21.2771 20.9213 21.0919C21.0814 20.9264 21.3336 20.6041 21.3366 20.1486L19.3366 20.1354ZM15.9508 8.43708C15.9508 6.37494 14.3347 4.63521 12.258 4.63521V6.63521C13.1561 6.63521 13.9508 7.40397 13.9508 8.43708H15.9508ZM12.258 4.63521C10.1812 4.63521 8.56509 6.37494 8.56509 8.43708H10.5651C10.5651 7.40397 11.3599 6.63521 12.258 6.63521V4.63521ZM8.56509 8.43708C8.56509 10.4992 10.1812 12.2389 12.258 12.2389V10.2389C11.3599 10.2389 10.5651 9.47018 10.5651 8.43708H8.56509ZM12.258 12.2389C14.3347 12.2389 15.9508 10.4992 15.9508 8.43708H13.9508C13.9508 9.47018 13.1561 10.2389 12.258 10.2389V12.2389ZM11.415 8.43708C11.415 7.89292 11.8298 7.51956 12.258 7.51956V5.51956C10.6512 5.51956 9.41504 6.86388 9.41504 8.43708H11.415ZM12.258 7.51956C12.6861 7.51956 13.1009 7.89292 13.1009 8.43708H15.1009C15.1009 6.86388 13.8648 5.51956 12.258 5.51956V7.51956ZM13.1009 8.43708C13.1009 8.98123 12.6861 9.35459 12.258 9.35459V11.3546C13.8648 11.3546 15.1009 10.0103 15.1009 8.43708H13.1009ZM12.258 9.35459C11.8298 9.35459 11.415 8.98123 11.415 8.43708H9.41504C9.41504 10.0103 10.6512 11.3546 12.258 11.3546V9.35459Z" fill="#E9994A" mask="url(#path-1-inside-1_1_2692)"/>
</svg>
