<svg width="25" height="25" viewBox="0 0 25 25" fill="none" xmlns="http://www.w3.org/2000/svg">
<path d="M7.29183 13.5418H14.5835C14.8786 13.5418 15.1262 13.4418 15.3262 13.2418C15.5262 13.0418 15.6259 12.7945 15.6252 12.5001C15.6252 12.2049 15.5252 11.9574 15.3252 11.7574C15.1252 11.5574 14.8779 11.4577 14.5835 11.4584H7.29183C6.99669 11.4584 6.74912 11.5584 6.54912 11.7584C6.34912 11.9584 6.24947 12.2056 6.25016 12.5001C6.25016 12.7952 6.35017 13.0428 6.55017 13.2428C6.75016 13.4428 6.99739 13.5424 7.29183 13.5418ZM7.29183 10.4168H14.5835C14.8786 10.4168 15.1262 10.3168 15.3262 10.1168C15.5262 9.91675 15.6259 9.66953 15.6252 9.37508C15.6252 9.07995 15.5252 8.83238 15.3252 8.63238C15.1252 8.43237 14.8779 8.33272 14.5835 8.33342H7.29183C6.99669 8.33342 6.74912 8.43342 6.54912 8.63342C6.34912 8.83342 6.24947 9.08064 6.25016 9.37508C6.25016 9.67022 6.35017 9.91779 6.55017 10.1178C6.75016 10.3178 6.99739 10.4174 7.29183 10.4168ZM4.16683 20.8334C3.59391 20.8334 3.10329 20.6293 2.69496 20.2209C2.28662 19.8126 2.0828 19.3223 2.0835 18.7501V6.25008C2.0835 5.67717 2.28766 5.18654 2.696 4.77821C3.10433 4.36987 3.59461 4.16606 4.16683 4.16675H20.8335C21.4064 4.16675 21.897 4.37092 22.3054 4.77925C22.7137 5.18758 22.9175 5.67786 22.9168 6.25008V18.7501C22.9168 19.323 22.7127 19.8136 22.3043 20.222C21.896 20.6303 21.4057 20.8341 20.8335 20.8334H4.16683ZM4.16683 18.7501H20.8335V6.25008H4.16683V18.7501Z" fill="#E9994A"/>
</svg>
