<svg width="17" height="13" viewBox="0 0 17 13" fill="none" xmlns="http://www.w3.org/2000/svg">
<path d="M8.48657 3.99951C7.82843 4.00388 7.19849 4.26867 6.7331 4.73657C6.26772 5.20447 6.00434 5.83782 6 6.49951C6 7.86784 7.12559 8.99951 8.48657 8.99951C9.84673 8.99951 10.9731 7.86784 10.9731 6.49951C10.9731 5.13201 9.84673 3.99951 8.48657 3.99951Z" fill="#323232"/>
<path d="M8.49984 0.666016C2.17317 0.666016 0.271769 6.18018 0.254363 6.23602L0.166504 6.49935L0.253534 6.76268C0.271769 6.81852 2.17317 12.3327 8.49984 12.3327C14.8265 12.3327 16.7279 6.81852 16.7453 6.76268L16.8332 6.49935L16.7461 6.23602C16.7279 6.18018 14.8265 0.666016 8.49984 0.666016ZM8.49984 10.666C4.06462 10.666 2.3464 7.46102 1.93031 6.49935C2.34806 5.53435 4.06711 2.33268 8.49984 2.33268C12.9351 2.33268 14.6533 5.53768 15.0694 6.49935C14.6516 7.46435 12.9326 10.666 8.49984 10.666Z" fill="#323232"/>
</svg>
