<svg width="25" height="25" viewBox="0 0 25 25" fill="none" xmlns="http://www.w3.org/2000/svg">
<g clip-path="url(#clip0_1_3134)">
<path d="M22.4168 14.8695V15.9986L14.8448 13.7715C14.2044 13.5832 13.5627 14.0633 13.5627 14.7309V19.5087C13.5627 19.86 13.747 20.1855 14.0482 20.3662L14.3054 19.9375L14.0482 20.3662L16.1668 21.6374L16.1668 22.2764L12.7427 21.4204C12.5835 21.3806 12.4169 21.3806 12.2576 21.4204L8.8335 22.2764V21.6374L10.9522 20.3662C11.2534 20.1855 11.4377 19.86 11.4377 19.5087V14.7309C11.4377 14.0633 10.796 13.5832 10.1555 13.7715L2.5835 15.9986L2.5835 14.8695L10.9447 9.95112C11.2501 9.77145 11.4377 9.44355 11.4377 9.08919V3.646C11.4377 3.05756 11.9117 2.5835 12.5002 2.5835C13.0886 2.5835 13.5627 3.05756 13.5627 3.646V9.08919C13.5627 9.44355 13.7502 9.77145 14.0556 9.95112L22.4168 14.8695Z" stroke="#E9994A"/>
</g>
<defs>
<clipPath id="clip0_1_3134">
<rect width="25" height="25" fill="white"/>
</clipPath>
</defs>
</svg>
