<svg width="25" height="25" viewBox="0 0 25 25" fill="none" xmlns="http://www.w3.org/2000/svg">
<path d="M19.5705 9.02313C18.7768 9.02313 18.1312 9.67065 18.1312 10.4666V11.4391C17.8607 11.2618 17.5389 11.1566 17.1922 11.1566H16.7614L17.7961 4.38803C17.855 4.00433 17.7442 3.61543 17.492 3.3207C17.24 3.02619 16.8736 2.85714 16.4865 2.85714H8.45149C8.06446 2.85714 7.698 3.02619 7.446 3.32075C7.19382 3.61547 7.08305 4.00438 7.14197 4.3879L8.1766 11.1566H7.7481C7.40053 11.1566 7.07791 11.2622 6.80683 11.4408V10.4666C6.80683 9.67065 6.16124 9.02313 5.3676 9.02313C4.57443 9.02313 3.92871 9.67065 3.92871 10.4666C3.92871 10.6836 4.10389 10.8595 4.32045 10.8595C4.53702 10.8595 4.71202 10.6836 4.71202 10.4666C4.71202 10.1039 5.0062 9.80879 5.36764 9.80879C5.72943 9.80879 6.0236 10.1039 6.0236 10.4666C6.0236 10.4666 6.02528 12.8938 6.02545 12.8968C6.02896 13.8472 6.80006 14.6194 7.74818 14.6194H10.6534L7.13438 19.8348C7.03784 19.8128 6.93843 19.7987 6.8355 19.7987C6.09302 19.7987 5.48913 20.4046 5.48913 21.1493C5.48913 21.8939 6.09302 22.5 6.8355 22.5C7.57781 22.5 8.18222 21.8939 8.18222 21.1493C8.18222 20.7925 8.04098 20.4699 7.81477 20.2282L11.599 14.6194H12.0784V19.8634C11.5272 20.0327 11.1223 20.5417 11.1223 21.1493C11.1223 21.8939 11.7265 22.5 12.469 22.5C13.2115 22.5 13.8157 21.8939 13.8157 21.1493C13.8157 20.5426 13.412 20.034 12.8617 19.8641V14.6194H13.3367L17.1243 20.2269C16.8975 20.4687 16.7558 20.7919 16.7558 21.1493C16.7558 21.8939 17.3602 22.5 18.1025 22.5C18.8449 22.5 19.4489 21.8939 19.4489 21.1493C19.4489 20.4046 18.8449 19.7987 18.1025 19.7987C18.0003 19.7987 17.9014 19.8124 17.8055 19.8343L14.2831 14.6194H17.1922C18.1427 14.6194 18.9161 13.8438 18.9161 12.8904L18.9146 10.4666C18.9146 10.1039 19.2087 9.80879 19.5705 9.80879C19.932 9.80879 20.2261 10.1039 20.2261 10.4666C20.2261 10.6836 20.4012 10.8595 20.6177 10.8595C20.8343 10.8595 21.0095 10.6836 21.0095 10.4666C21.0094 9.67069 20.3636 9.02313 19.5705 9.02313ZM6.83554 21.7142C6.52496 21.7142 6.27248 21.4608 6.27248 21.1493C6.27248 20.8378 6.525 20.5843 6.83554 20.5843C7.14613 20.5843 7.39895 20.8378 7.39895 21.1493C7.39895 21.4608 7.14613 21.7142 6.83554 21.7142ZM13.0324 21.1493C13.0324 21.4608 12.7796 21.7142 12.469 21.7142C12.1584 21.7142 11.9056 21.4608 11.9056 21.1493C11.9056 20.8378 12.1585 20.5843 12.469 20.5843C12.7796 20.5844 13.0324 20.8378 13.0324 21.1493ZM18.6656 21.1493C18.6656 21.4608 18.413 21.7142 18.1025 21.7142C17.7919 21.7142 17.539 21.4608 17.539 21.1493C17.539 20.8378 17.7919 20.5843 18.1025 20.5843C18.413 20.5843 18.6656 20.8378 18.6656 21.1493ZM7.91603 4.26871C7.8916 4.1096 7.93595 3.95452 8.04034 3.83232C8.14511 3.71012 8.29084 3.64281 8.45149 3.64281H16.4865C16.6472 3.64281 16.7929 3.71012 16.8977 3.83232C17.0021 3.95452 17.0465 4.1096 17.022 4.26889L15.9692 11.1566H8.96887L7.91603 4.26871ZM17.1922 13.8338H7.74801C7.22977 13.8338 6.80795 13.4105 6.80795 12.8858C6.80795 12.3654 7.22977 11.9423 7.74801 11.9423H17.1922C17.7057 11.9423 18.1229 12.3574 18.1312 12.8705V12.8857C18.1312 12.8881 18.1324 12.8899 18.1326 12.8922C18.1314 13.4115 17.7102 13.8338 17.1922 13.8338Z" fill="#E9994A"/>
</svg>
