<svg width="25" height="25" viewBox="0 0 25 25" fill="none" xmlns="http://www.w3.org/2000/svg">
<path d="M5.20829 15.1038C5.20829 14.8162 5.44148 14.583 5.72913 14.583H19.2708C19.5584 14.583 19.7916 14.8162 19.7916 15.1038C19.7916 15.3915 19.5584 15.6247 19.2708 15.6247H5.72913C5.44148 15.6247 5.20829 15.3915 5.20829 15.1038ZM21.9987 17.999V6.99902H2.99866V17.999H21.9987ZM1.04163 6.20801C1.04163 5.65572 1.48934 5.20801 2.04163 5.20801H22.9583C23.5106 5.20801 23.9583 5.65572 23.9583 6.20801V18.7913C23.9583 19.3436 23.5106 19.7913 22.9583 19.7913H2.04163C1.48934 19.7913 1.04163 19.3436 1.04163 18.7913V6.20801ZM5.20829 11.4163C5.20829 10.8641 5.65601 10.4163 6.20829 10.4163H11.5C12.0522 10.4163 12.5 10.8641 12.5 11.4163V11.4997C12.5 12.052 12.0522 12.4997 11.5 12.4997H6.20829C5.65601 12.4997 5.20829 12.052 5.20829 11.4997V11.4163Z" fill="#E9994A"/>
</svg>
