<svg width="25" height="25" viewBox="0 0 25 25" fill="none" xmlns="http://www.w3.org/2000/svg">
<path d="M10.5796 15.1042H12.1421V13.8021L18.7502 13.8021V12.2396L12.1421 12.2396V10.9375H10.5796V15.1042ZM6.25016 13.8021L10.5796 13.8021V12.2396L6.25016 12.2396V13.8021ZM9.37516 23.4375C9.08003 23.4375 8.83246 23.3375 8.63245 23.1375C8.43246 22.9375 8.3328 22.6903 8.3335 22.3958V21.3542H4.16683C3.59391 21.3542 3.10329 21.15 2.69496 20.7417C2.28662 20.3333 2.0828 19.843 2.0835 19.2708V6.77082C2.0835 6.1979 2.28766 5.70728 2.696 5.29894C3.10433 4.89061 3.59461 4.68679 4.16683 4.68749H20.8335C21.4064 4.68749 21.897 4.89165 22.3054 5.29999C22.7137 5.70832 22.9175 6.1986 22.9168 6.77082V19.2708C22.9168 19.8437 22.7127 20.3344 22.3043 20.7427C21.896 21.151 21.4057 21.3548 20.8335 21.3542H16.6668V22.3958C16.6668 22.691 16.5668 22.9385 16.3668 23.1385C16.1668 23.3385 15.9196 23.4382 15.6252 23.4375H9.37516ZM4.16683 19.2708H20.8335V6.77082H4.16683V19.2708Z" fill="#E9994A"/>
</svg>
