<svg width="25" height="25" viewBox="0 0 25 25" fill="none" xmlns="http://www.w3.org/2000/svg">
<path d="M20.8335 6.25004C21.4377 6.25004 21.9272 6.45837 22.3127 6.86462C22.7085 7.29171 22.9168 7.76046 22.9168 8.33337V19.7917C22.9168 20.3646 22.7085 20.8334 22.3127 21.2605C21.9272 21.6667 21.4377 21.875 20.8335 21.875H4.16683C3.56266 21.875 3.07308 21.6667 2.68766 21.2605C2.29183 20.8334 2.0835 20.3646 2.0835 19.7917V8.33337C2.0835 7.76046 2.29183 7.29171 2.68766 6.86462C3.07308 6.45837 3.56266 6.25004 4.16683 6.25004H8.3335V4.16671C8.3335 3.56254 8.54183 3.07296 8.93766 2.68754C9.32308 2.29171 9.81266 2.08337 10.4168 2.08337H14.5835C15.1877 2.08337 15.6772 2.29171 16.0627 2.68754C16.4585 3.07296 16.6668 3.56254 16.6668 4.16671V6.25004H20.8335ZM4.16683 8.33337V19.7917H20.8335V8.33337H4.16683ZM14.5835 6.25004V4.16671H10.4168V6.25004H14.5835Z" fill="#E9994A"/>
</svg>
