<svg width="31" height="30" viewBox="0 0 31 30" fill="none" xmlns="http://www.w3.org/2000/svg">
<path d="M8 1.25V3.75H6.75C5.3625 3.75 4.25 4.8625 4.25 6.25V23.75C4.25 24.413 4.51339 25.0489 4.98223 25.5178C5.45107 25.9866 6.08696 26.25 6.75 26.25H14.375C15.95 27.8 18.1125 28.75 20.5 28.75C25.3375 28.75 29.25 24.8375 29.25 20C29.25 17.6125 28.3 15.45 26.75 13.875V6.25C26.75 5.58696 26.4866 4.95107 26.0178 4.48223C25.5489 4.01339 24.913 3.75 24.25 3.75H23V1.25H20.5V3.75H10.5V1.25M6.75 6.25H24.25V8.75H6.75M6.75 11.25H24.25V12.0875C23.1125 11.55 21.8375 11.25 20.5 11.25C15.6625 11.25 11.75 15.1625 11.75 20C11.75 21.3375 12.05 22.6125 12.5875 23.75H6.75M20.5 13.9375C23.85 13.9375 26.5625 16.65 26.5625 20C26.5625 23.35 23.85 26.0625 20.5 26.0625C17.15 26.0625 14.4375 23.35 14.4375 20C14.4375 16.65 17.15 13.9375 20.5 13.9375ZM19.25 16.25V20.8625L23.2375 23.1625L24.175 21.5375L21.125 19.775V16.25H19.25Z" fill="#777777"/>
</svg>
