<svg width="25" height="25" viewBox="0 0 25 25" fill="none" xmlns="http://www.w3.org/2000/svg">
<path d="M16.7969 10.1565C16.7969 10.2601 16.7557 10.3594 16.6825 10.4327C16.6092 10.5059 16.5098 10.5471 16.4062 10.5471H8.59375C8.49015 10.5471 8.39079 10.5059 8.31754 10.4327C8.24428 10.3594 8.20312 10.2601 8.20312 10.1565C8.20312 10.0529 8.24428 9.9535 8.31754 9.88024C8.39079 9.80699 8.49015 9.76583 8.59375 9.76583H16.4062C16.5098 9.76583 16.6092 9.80699 16.6825 9.88024C16.7557 9.9535 16.7969 10.0529 16.7969 10.1565ZM16.4062 12.8908H8.59375C8.49015 12.8908 8.39079 12.932 8.31754 13.0052C8.24428 13.0785 8.20312 13.1779 8.20312 13.2815C8.20312 13.3851 8.24428 13.4844 8.31754 13.5577C8.39079 13.6309 8.49015 13.6721 8.59375 13.6721H16.4062C16.5098 13.6721 16.6092 13.6309 16.6825 13.5577C16.7557 13.4844 16.7969 13.3851 16.7969 13.2815C16.7969 13.1779 16.7557 13.0785 16.6825 13.0052C16.6092 12.932 16.5098 12.8908 16.4062 12.8908ZM24.6094 10.1565V12.5002C24.6094 13.2254 24.3213 13.9209 23.8085 14.4337C23.2957 14.9465 22.6002 15.2346 21.875 15.2346H21.1133C20.543 16.6643 19.3232 17.9211 17.5 18.9318C15.4951 20.0461 13.3457 20.55 12.7344 20.6789C12.5778 20.7115 12.4163 20.7115 12.2598 20.6789C11.6484 20.55 9.49902 20.0461 7.49414 18.9318C5.67383 17.9211 4.4541 16.6643 3.88086 15.2346H3.125C2.3998 15.2346 1.7043 14.9465 1.1915 14.4337C0.67871 13.9209 0.390625 13.2254 0.390625 12.5002V10.1565C0.390625 9.43126 0.67871 8.73576 1.1915 8.22296C1.7043 7.71017 2.3998 7.42208 3.125 7.42208H3.52148C3.54157 7.20067 3.62421 6.98954 3.75978 6.81334C3.89535 6.63713 4.07824 6.50313 4.28711 6.42697L12.0996 3.58615C12.3583 3.49212 12.6417 3.49212 12.9004 3.58615L20.7129 6.42697C20.9218 6.50313 21.1047 6.63713 21.2402 6.81334C21.3758 6.98954 21.4584 7.20067 21.4785 7.42208H21.875C22.6002 7.42208 23.2957 7.71017 23.8085 8.22296C24.3213 8.73576 24.6094 9.43126 24.6094 10.1565ZM3.64453 14.4533C3.55866 14.0736 3.51542 13.6854 3.51562 13.2961V8.20333H3.125C2.607 8.20333 2.11021 8.40911 1.74393 8.77539C1.37765 9.14167 1.17188 9.63846 1.17188 10.1565V12.5002C1.17188 13.0182 1.37765 13.515 1.74393 13.8813C2.11021 14.2476 2.607 14.4533 3.125 14.4533H3.64453ZM20.457 14.7727C20.4638 14.7388 20.475 14.706 20.4902 14.675C20.6326 14.2293 20.7044 13.764 20.7031 13.2961V7.52853C20.7032 7.44837 20.6785 7.37013 20.6326 7.30445C20.5866 7.23876 20.5216 7.1888 20.4463 7.16134L12.6338 4.32052C12.5474 4.28902 12.4526 4.28902 12.3662 4.32052L4.55371 7.16134C4.4784 7.1888 4.41335 7.23876 4.36741 7.30445C4.32146 7.37013 4.29684 7.44837 4.29688 7.52853V13.2961C4.29545 13.7637 4.36729 14.2287 4.50977 14.674C4.52481 14.7051 4.53597 14.7379 4.54297 14.7717C5.00586 16.1076 6.12109 17.2727 7.87695 18.2483C9.78613 19.3088 11.8389 19.7902 12.4229 19.9084C12.4737 19.9192 12.5263 19.9192 12.5771 19.9084C13.1631 19.7854 15.2139 19.3039 17.123 18.2483C18.8799 17.2736 19.9951 16.1135 20.457 14.7727ZM23.8281 10.1565C23.8281 9.63846 23.6223 9.14167 23.2561 8.77539C22.8898 8.40911 22.393 8.20333 21.875 8.20333H21.4844V13.2961C21.4846 13.6854 21.4413 14.0736 21.3555 14.4533H21.875C22.393 14.4533 22.8898 14.2476 23.2561 13.8813C23.6223 13.515 23.8281 13.0182 23.8281 12.5002V10.1565Z" fill="#E9994A"/>
</svg>
