<svg width="25" height="25" viewBox="0 0 25 25" fill="none" xmlns="http://www.w3.org/2000/svg">
<mask id="mask0_1_2898" style="mask-type:alpha" maskUnits="userSpaceOnUse" x="0" y="6" width="14" height="13">
<rect y="6.44531" width="13.1944" height="12.2378" fill="#C4C4C4"/>
</mask>
<g mask="url(#mask0_1_2898)">
<path d="M25.0155 11.1526L22.8956 10.2989L21.0247 7.66634C20.4838 6.90326 19.5322 6.4406 18.5102 6.44535H10.5394C9.61473 6.44535 8.73864 6.82203 8.17627 7.47077L5.7591 10.2607L1.73041 11.2337C0.708278 11.4817 0 12.3068 0 13.2415V14.6008C0 15.7502 1.03827 16.6992 2.34146 16.6992H2.68759C3.10392 18.1159 4.74248 18.9649 6.3485 18.5975C7.40291 18.3543 8.23033 17.6294 8.50075 16.6992H17.5854C18.0019 18.1159 19.6403 18.9649 21.2463 18.5975C22.3007 18.3543 23.1281 17.6294 23.3986 16.6992H24.0474C25.3507 16.6992 26.3889 15.7502 26.3889 14.6008V13.0508C26.3944 12.2353 25.8536 11.4912 25.0155 11.1526ZM5.59142 17.72C4.5315 17.72 3.67167 16.9616 3.67167 16.0269C3.67167 15.0921 4.5315 14.3337 5.59142 14.3337C6.65121 14.3337 7.51103 15.0921 7.51103 16.0269C7.51654 16.957 6.65672 17.7152 5.59142 17.72ZM20.4893 17.72C19.4294 17.72 18.5696 16.9616 18.5696 16.0269C18.5696 15.0921 19.4294 14.3337 20.4893 14.3337C21.5491 14.3337 22.409 15.0921 22.409 16.0269C22.4143 16.957 21.5545 17.7152 20.4893 17.72ZM24.0474 15.7455H23.4741C23.2957 14.2908 21.8087 13.2416 20.1594 13.4037C18.7587 13.5373 17.6556 14.515 17.5042 15.7455H8.5762C8.39776 14.2908 6.91074 13.2416 5.26142 13.4037C3.86088 13.5373 2.75766 14.515 2.60624 15.7455H2.33582C1.62741 15.7455 1.07593 15.2256 1.07593 14.6008V13.2415C1.07055 12.7312 1.45447 12.2878 2.01146 12.1494L6.22398 11.1334C6.33748 11.1048 6.44022 11.0476 6.51055 10.9617L9.03045 8.04766C9.39273 7.63753 9.94972 7.39903 10.5391 7.39903H18.5099C19.1587 7.39428 19.7699 7.68521 20.1105 8.1716L22.0681 10.9282C22.1221 11.0093 22.2087 11.0713 22.3005 11.1095L24.561 12.0204C25.0152 12.2064 25.3071 12.607 25.3018 13.0506V14.6006H25.3072C25.3074 15.2256 24.7559 15.7455 24.0474 15.7455Z" fill="#E9994A"/>
</g>
<mask id="mask1_1_2898" style="mask-type:alpha" maskUnits="userSpaceOnUse" x="13" y="7" width="13" height="13">
<rect x="13.8901" y="7.05731" width="11.1111" height="12.2378" fill="#C4C4C4"/>
</mask>
<g mask="url(#mask1_1_2898)">
<path d="M20.9505 8.89297C20.9505 8.5684 20.8091 8.25713 20.5573 8.02763C20.3055 7.79812 19.964 7.66919 19.6079 7.66919H16.2515L20.9505 15.0119" stroke="#E9994A" stroke-linecap="round" stroke-linejoin="round"/>
<path d="M20.9502 18.0713C22.804 18.0713 24.3067 16.7016 24.3067 15.0119C24.3067 13.3222 22.804 11.9524 20.9502 11.9524C19.0965 11.9524 17.5938 13.3222 17.5938 15.0119C17.5938 16.7016 19.0965 18.0713 20.9502 18.0713Z" stroke="#E9994A" stroke-linecap="round" stroke-linejoin="round"/>
<path d="M7.52441 7.66919H9.87395L14.573 15.0119" stroke="#E9994A" stroke-linecap="round" stroke-linejoin="round"/>
<path d="M17.769 10.1168H11.4403L7.52441 15.0119" stroke="#E9994A" stroke-linecap="round" stroke-linejoin="round"/>
</g>
<line x1="13.6934" y1="6.33334" x2="13.6934" y2="17.5711" stroke="#E9994A" stroke-linecap="round"/>
</svg>
