<svg width="25" height="25" viewBox="0 0 25 25" fill="none" xmlns="http://www.w3.org/2000/svg">
<path d="M10.9377 20.8334H14.0627C14.2016 20.8334 14.3231 20.7813 14.4272 20.6772C14.5314 20.573 14.5835 20.4515 14.5835 20.3126C14.5835 20.1737 14.5314 20.0522 14.4272 19.948C14.3231 19.8438 14.2016 19.7917 14.0627 19.7917H10.9377C10.7988 19.7917 10.6772 19.8438 10.5731 19.948C10.4689 20.0522 10.4168 20.1737 10.4168 20.3126C10.4168 20.4515 10.4689 20.573 10.5731 20.6772C10.6772 20.7813 10.7988 20.8334 10.9377 20.8334ZM7.29183 23.9584C6.71891 23.9584 6.22829 23.7542 5.81996 23.3459C5.41162 22.9376 5.2078 22.4473 5.2085 21.8751V3.12508C5.2085 2.55217 5.41266 2.06154 5.821 1.65321C6.22933 1.24487 6.71961 1.04106 7.29183 1.04175H17.7085C18.2814 1.04175 18.772 1.24592 19.1804 1.65425C19.5887 2.06258 19.7925 2.55286 19.7918 3.12508V21.8751C19.7918 22.448 19.5877 22.9386 19.1793 23.347C18.771 23.7553 18.2807 23.9591 17.7085 23.9584H7.29183ZM7.29183 16.6667H17.7085V6.25008H7.29183V16.6667ZM7.29183 18.7501V21.8751H17.7085V18.7501H7.29183ZM7.29183 4.16675H17.7085V3.12508H7.29183V4.16675Z" fill="#E9994A"/>
</svg>
