<svg width="25" height="25" viewBox="0 0 25 25" fill="none" xmlns="http://www.w3.org/2000/svg">
<path d="M11.4581 2.08337C13.4816 2.08351 15.436 2.81971 16.9567 4.15466C18.4773 5.48961 19.4605 7.33215 19.7227 9.33858L22.0665 13.025C22.2206 13.2677 22.1894 13.6292 21.8321 13.7834L19.7915 14.6563V17.7084C19.7915 18.2609 19.572 18.7908 19.1813 19.1815C18.7906 19.5722 18.2607 19.7917 17.7081 19.7917H15.6258L15.6248 22.9167H6.2498V19.0688C6.2498 17.8396 5.79563 16.6761 4.95397 15.6261C3.97246 14.4006 3.35714 12.9227 3.17888 11.3628C3.00063 9.80285 3.2667 8.22429 3.94644 6.80896C4.62618 5.39364 5.69193 4.19914 7.02091 3.36308C8.3499 2.52702 9.88804 2.08341 11.4581 2.08337ZM11.4581 4.16671C10.2806 4.16666 9.12703 4.49926 8.13028 5.12618C7.13353 5.75311 6.33416 6.64887 5.82425 7.71026C5.31435 8.77165 5.11466 9.9555 5.24818 11.1254C5.38171 12.2953 5.84302 13.4038 6.57897 14.323C7.71855 15.7438 8.33313 17.3615 8.33313 19.0688V20.8334H13.5415L13.5435 17.7084H17.7081V13.2834L19.3227 12.5917L17.7154 10.0657L17.656 9.60525C17.4589 8.10099 16.7213 6.71978 15.581 5.71914C14.4406 4.7185 12.9753 4.16673 11.4581 4.16671ZM10.906 8.0865L11.4581 8.63858L12.0102 8.0865C12.1783 7.91236 12.3795 7.77344 12.6018 7.67786C12.8242 7.58228 13.0634 7.53194 13.3055 7.52979C13.5475 7.52764 13.7876 7.57371 14.0116 7.66533C14.2357 7.75694 14.4392 7.89226 14.6104 8.06338C14.7816 8.2345 14.917 8.43801 15.0087 8.66202C15.1004 8.88603 15.1466 9.12606 15.1445 9.36811C15.1425 9.61015 15.0922 9.84937 14.9967 10.0718C14.9012 10.2942 14.7624 10.4954 14.5883 10.6636L11.4581 13.7948L8.32792 10.6636C8.15385 10.4954 8.01502 10.2942 7.91953 10.0718C7.82403 9.84937 7.7738 9.61015 7.77174 9.36811C7.76969 9.12606 7.81586 8.88603 7.90756 8.66202C7.99926 8.43801 8.13466 8.2345 8.30586 8.06338C8.47705 7.89226 8.68061 7.75694 8.90466 7.66533C9.1287 7.57371 9.36875 7.52764 9.6108 7.52979C9.85284 7.53194 10.092 7.58228 10.3144 7.67786C10.5368 7.77344 10.7379 7.91236 10.906 8.0865Z" fill="#E9994A"/>
</svg>
