<svg width="25" height="25" viewBox="0 0 25 25" fill="none" xmlns="http://www.w3.org/2000/svg">
<path d="M19.8904 8.21881C21.0537 8.21881 21.9999 7.27266 21.9999 6.10949C21.9999 4.94632 21.0537 4.00017 19.8904 4.00017C18.7273 4.00017 17.7811 4.94644 17.7811 6.10949C17.7811 7.27266 18.7273 8.21881 19.8904 8.21881ZM19.8904 5.40642C20.2783 5.40642 20.5937 5.72185 20.5937 6.10949C20.5937 6.49713 20.2783 6.81268 19.8904 6.81268C19.5028 6.81268 19.1873 6.49725 19.1873 6.10949C19.1873 5.72173 19.5029 5.40642 19.8904 5.40642ZM6.10932 8.21881C7.27249 8.21881 8.21864 7.27266 8.21864 6.10949C8.21864 4.94632 7.27249 4.00017 6.10932 4.00017C4.94615 4.00017 4 4.94644 4 6.10949C4 7.27266 4.94615 8.21881 6.10932 8.21881ZM6.10932 5.40642C6.49708 5.40642 6.81251 5.72185 6.81251 6.10949C6.81251 6.49713 6.49708 6.81268 6.10932 6.81268C5.72156 6.81268 5.40625 6.49725 5.40625 6.10949C5.40625 5.72173 5.72168 5.40642 6.10932 5.40642ZM19.9015 8.88679C19.8982 8.88679 19.8945 8.88679 19.8913 8.88679C18.4359 8.88679 17.8841 9.9465 17.5362 10.9837C17.4181 11.3365 17.1613 12.1074 16.9929 12.6135H16.1641V10.9962C16.1641 9.83307 15.2178 8.88691 14.0547 8.88691H11.9453C10.7822 8.88691 9.8359 9.83307 9.8359 10.9962V12.6135H9.00702C8.83856 12.1074 8.58189 11.3365 8.46365 10.9837C8.11578 9.9465 7.56424 8.88679 6.10872 8.88679C6.10535 8.88679 6.10175 8.88679 6.09827 8.88679C4.94135 8.89076 4.00012 9.83715 4.00012 10.9961V14.8282C4.00012 15.7448 4.58795 16.5264 5.40637 16.8166V16.8321C5.42452 16.8321 5.44218 16.8335 5.46009 16.8348C5.53831 16.8601 5.61858 16.8813 5.70053 16.8974C5.94146 17.0088 6.10944 17.2525 6.10944 17.5352V21.9999H7.51569V17.5352C7.51569 17.3277 7.48505 17.1271 7.42894 16.9375H8.25397C8.64161 16.9375 8.95704 17.2529 8.95704 17.6407V21.9999H10.3633V17.6407C10.3633 16.4774 9.41702 15.5313 8.25397 15.5313H6.10944C6.0913 15.5313 6.07363 15.5299 6.05573 15.5285C5.97738 15.5031 5.89723 15.4821 5.81528 15.4659C5.57424 15.3545 5.40637 15.1108 5.40637 14.8282V10.9961C5.40637 10.6099 5.71903 10.2944 6.10331 10.2929C6.42102 10.2918 6.74822 10.2908 7.13022 11.4304C7.31286 11.9752 7.82775 13.5228 7.83292 13.5383L7.99298 14.0194H18.0073L18.1673 13.5383C18.1725 13.5226 18.6874 11.9752 18.87 11.4304C19.2519 10.2908 19.5791 10.2922 19.897 10.2929C20.2812 10.2944 20.594 10.6098 20.594 10.9961V14.8282C20.594 15.1108 20.426 15.3545 20.185 15.4659C20.103 15.4821 20.0227 15.5031 19.9446 15.5285C19.9267 15.5299 19.9089 15.5313 19.8908 15.5313H17.7815C16.6182 15.5313 15.6722 16.4775 15.6722 17.6407V21.9999H17.0783V17.6407C17.0783 17.2529 17.3937 16.9375 17.7815 16.9375H18.5713C18.5152 17.127 18.4845 17.3277 18.4845 17.5352V21.9999H19.8907V17.5352C19.8907 17.2525 20.0587 17.0088 20.2996 16.8974C20.3817 16.8812 20.4619 16.86 20.5402 16.8348C20.5579 16.8333 20.5757 16.8321 20.5939 16.8321V16.8166C21.4122 16.5264 22 15.7449 22 14.8282V10.9961C21.9999 9.83715 21.0585 8.89088 19.9015 8.88679ZM11.242 10.9962C11.242 10.6086 11.5575 10.293 11.9452 10.293H14.0545C14.4423 10.293 14.7576 10.6085 14.7576 10.9962V12.6135H11.242V10.9962ZM12.9999 8.21881C14.163 8.21881 15.1093 7.27266 15.1093 6.10949C15.1093 4.94632 14.163 4.00017 12.9999 4.00017C11.8367 4.00017 10.8906 4.94644 10.8906 6.10949C10.8906 7.27266 11.8367 8.21881 12.9999 8.21881ZM12.9999 5.40642C13.3876 5.40642 13.7031 5.72185 13.7031 6.10949C13.7031 6.49713 13.3876 6.81268 12.9999 6.81268C12.6121 6.81268 12.2968 6.49725 12.2968 6.10949C12.2968 5.72173 12.6122 5.40642 12.9999 5.40642Z" fill="#E9994A"/>
</svg>
