<svg width="25" height="25" viewBox="0 0 25 25" fill="none" xmlns="http://www.w3.org/2000/svg">
<path d="M12.4996 7.63672C9.73551 7.63672 8.01855 9.05315 8.01855 11.3478C8.01855 11.6085 8.22975 11.8199 8.49025 11.8199H16.509C16.7695 11.8199 16.9807 11.6085 16.9807 11.3478C16.9807 9.05787 15.2637 7.63672 12.4996 7.63672ZM8.99496 10.8756C9.30627 8.7557 11.7261 8.58101 12.4996 8.58101C13.2732 8.58101 15.693 8.7557 16.0043 10.8756H8.99496Z" fill="#E9994A"/>
<path d="M12.4997 2.67871C11.2623 2.67871 10.2592 3.68278 10.2592 4.92139C10.2617 6.15894 11.2633 7.16147 12.4997 7.16407C13.7371 7.16407 14.7402 6.16 14.7402 4.92139C14.7402 3.68278 13.7371 2.67871 12.4997 2.67871ZM12.4997 6.21978C11.7833 6.21978 11.2025 5.63846 11.2025 4.92139C11.2025 4.20432 11.7833 3.623 12.4997 3.623C13.2161 3.623 13.7969 4.20432 13.7969 4.92139C13.7969 5.63846 13.2161 6.21978 12.4997 6.21978Z" fill="#E9994A"/>
<path d="M4.48107 18.4951C1.71696 18.4951 0 19.9115 0 22.2062C0 22.4669 0.2112 22.6783 0.471692 22.6783H8.49046C8.75095 22.6783 8.96215 22.4669 8.96215 22.2062C8.96215 19.9163 7.24519 18.4951 4.48107 18.4951ZM0.976402 21.734C1.28772 19.6141 3.70278 19.4394 4.48107 19.4394C5.25937 19.4394 7.67443 19.6141 7.98575 21.734H0.976402Z" fill="#E9994A"/>
<path d="M4.48114 13.5381C3.24371 13.5381 2.2406 14.5422 2.2406 15.7808C2.24319 17.0183 3.24478 18.0209 4.48114 18.0235C5.71857 18.0235 6.72168 17.0194 6.72168 15.7808C6.72168 14.5422 5.71857 13.5381 4.48114 13.5381ZM4.48114 17.0792C3.76476 17.0792 3.18399 16.4978 3.18399 15.7808C3.18399 15.0637 3.76476 14.4824 4.48114 14.4824C5.19752 14.4824 5.7783 15.0637 5.7783 15.7808C5.7783 16.4978 5.19752 17.0792 4.48114 17.0792Z" fill="#E9994A"/>
<path d="M20.5189 18.4951C17.7548 18.4951 16.0378 19.9115 16.0378 22.2062C16.0378 22.4669 16.249 22.6783 16.5095 22.6783H24.5283C24.7888 22.6783 25 22.4669 25 22.2062C25 19.9163 23.283 18.4951 20.5189 18.4951ZM17.0142 21.734C17.3256 19.6141 19.7406 19.4394 20.5189 19.4394C21.2972 19.4394 23.7123 19.6141 24.0236 21.734H17.0142Z" fill="#E9994A"/>
<path d="M20.5186 13.5381C19.2812 13.5381 18.2781 14.5422 18.2781 15.7808C18.2807 17.0183 19.2822 18.0209 20.5186 18.0235C21.756 18.0235 22.7592 17.0194 22.7592 15.7808C22.7592 14.5422 21.756 13.5381 20.5186 13.5381ZM20.5186 17.0792C19.8022 17.0792 19.2215 16.4978 19.2215 15.7808C19.2215 15.0637 19.8022 14.4824 20.5186 14.4824C21.235 14.4824 21.8158 15.0637 21.8158 15.7808C21.8158 16.4978 21.235 17.0792 20.5186 17.0792Z" fill="#E9994A"/>
<path d="M14.9385 17.6785L12.9716 15.7002V12.9145C12.9716 12.6538 12.7604 12.4424 12.4999 12.4424C12.2394 12.4424 12.0282 12.6538 12.0282 12.9145V15.7002L10.0613 17.669C9.875 17.8529 9.87288 18.153 10.0565 18.3395C10.2402 18.5259 10.5401 18.528 10.7263 18.3442L12.4999 16.5642L14.2735 18.3442C14.4713 18.5138 14.7691 18.4907 14.9385 18.2927C15.0898 18.1159 15.0898 17.8552 14.9385 17.6785Z" fill="#E9994A"/>
</svg>
