<svg width="25" height="25" viewBox="0 0 25 25" fill="none" xmlns="http://www.w3.org/2000/svg">
<path fill-rule="evenodd" clip-rule="evenodd" d="M8.82829 22.1219C9.15815 22.3219 9.49669 22.3351 9.84391 22.1615L12.5002 20.8334L15.1564 22.1615C15.5036 22.3358 15.8422 22.323 16.172 22.123C16.5019 21.923 16.6668 21.6233 16.6668 21.224V17.7084H20.8335C21.4057 17.7091 21.896 17.5053 22.3043 17.0969C22.7127 16.6886 22.9168 16.198 22.9168 15.625V4.16671C22.9175 3.59449 22.7137 3.10421 22.3054 2.69588C21.897 2.28754 21.4064 2.08338 20.8335 2.08338H4.16683C3.59461 2.08268 3.10433 2.2865 2.696 2.69483C2.28766 3.10317 2.0835 3.59379 2.0835 4.16671V15.625C2.0828 16.1973 2.28662 16.6875 2.69496 17.0959C3.10329 17.5042 3.59391 17.7084 4.16683 17.7084H8.3335V21.224C8.3335 21.6226 8.49843 21.9219 8.82829 22.1219ZM20.8335 10.4167H4.16683V4.16671H20.8335V10.4167ZM4.16683 15.625V13.5417H20.8335V15.625H14.9992V19.9998L12.5002 19.2855L9.99923 19.9998V15.625H4.16683Z" fill="#E9994A"/>
</svg>
