<svg width="31" height="30" viewBox="0 0 31 30" fill="none" xmlns="http://www.w3.org/2000/svg">
<g clip-path="url(#clip0_201_14912)">
<path d="M27.5 17.786V19.3318L18.1572 16.5839C17.5167 16.3955 16.875 16.8756 16.875 17.5432V23.4669C16.875 23.8182 17.0593 24.1437 17.3605 24.3244L20 25.9081L20 26.8596L15.7425 25.7952C15.5833 25.7554 15.4167 25.7554 15.2575 25.7952L11 26.8596L11 25.9081L13.6395 24.3244C13.9407 24.1437 14.125 23.8182 14.125 23.4669V17.5432C14.125 16.8756 13.4833 16.3955 12.8428 16.5839L3.5 19.3318L3.5 17.786L13.632 11.826C13.9375 11.6463 14.125 11.3184 14.125 10.964V4.375C14.125 3.61364 14.7386 3 15.5 3C16.2614 3 16.875 3.61364 16.875 4.375V10.964C16.875 11.3184 17.0625 11.6463 17.368 11.826L27.5 17.786Z" stroke="#777777"/>
</g>
<defs>
<clipPath id="clip0_201_14912">
<rect x="0.5" width="30" height="30" fill="white"/>
</clipPath>
</defs>
</svg>
