<svg width="25" height="25" viewBox="0 0 25 25" fill="none" xmlns="http://www.w3.org/2000/svg">
<path d="M3.90643 20.5729C3.68073 20.3472 3.56789 20.0868 3.56789 19.7917C3.56789 19.4965 3.68073 19.2361 3.90643 19.0104L10.2085 12.7083C10.3127 12.6042 10.4255 12.5302 10.5471 12.4865C10.6686 12.4427 10.7988 12.4212 10.9377 12.4219C11.0766 12.4219 11.2068 12.4434 11.3283 12.4865C11.4498 12.5295 11.5627 12.6035 11.6668 12.7083L15.1043 16.1458L21.771 8.64583C21.962 8.42014 22.2096 8.30729 22.5137 8.30729C22.8179 8.30729 23.0738 8.41146 23.2814 8.61979C23.4724 8.81076 23.5721 9.04097 23.5804 9.31042C23.5887 9.57986 23.4977 9.8184 23.3075 10.026L15.8335 18.4375C15.7293 18.559 15.6123 18.6503 15.4825 18.7115C15.3526 18.7726 15.2179 18.8028 15.0783 18.8021C14.9394 18.8021 14.805 18.776 14.6752 18.724C14.5453 18.6719 14.428 18.5938 14.3231 18.4896L10.9377 15.1042L5.46893 20.5729C5.24323 20.7986 4.98282 20.9115 4.68768 20.9115C4.39254 20.9115 4.13212 20.7986 3.90643 20.5729ZM4.16685 13.8542C4.08004 13.8542 3.99323 13.8323 3.90643 13.7885C3.81962 13.7448 3.75018 13.6712 3.6981 13.5677L3.17726 12.4479L2.05747 11.9271C1.9533 11.875 1.87935 11.8056 1.8356 11.7188C1.79185 11.6319 1.77032 11.5451 1.77101 11.4583C1.77101 11.3715 1.79289 11.2847 1.83664 11.1979C1.88039 11.1111 1.954 11.0417 2.05747 10.9896L3.17726 10.4688L3.6981 9.34896C3.75018 9.24479 3.81962 9.17118 3.90643 9.12813C3.99323 9.08507 4.08004 9.06319 4.16685 9.0625C4.25365 9.0625 4.34046 9.08438 4.42726 9.12813C4.51407 9.17188 4.58351 9.24549 4.6356 9.34896L5.15643 10.4688L6.27622 10.9896C6.46719 11.0764 6.56268 11.2326 6.56268 11.4583C6.56268 11.684 6.46719 11.8403 6.27622 11.9271L5.15643 12.4479L4.6356 13.5677C4.58351 13.6719 4.51407 13.7455 4.42726 13.7885C4.34046 13.8316 4.25365 13.8535 4.16685 13.8542ZM15.6252 11.7708C15.5384 11.7708 15.4516 11.749 15.3648 11.7052C15.278 11.6615 15.2085 11.5878 15.1564 11.4844L14.6356 10.3646L13.5158 9.84375C13.4116 9.79167 13.338 9.72222 13.295 9.63542C13.2519 9.54861 13.23 9.46181 13.2293 9.375C13.2293 9.2882 13.2512 9.20139 13.295 9.11458C13.3387 9.02778 13.4123 8.95833 13.5158 8.90625L14.6356 8.38542L15.1564 7.26562C15.2085 7.16146 15.278 7.08785 15.3648 7.04479C15.4516 7.00174 15.5384 6.97986 15.6252 6.97917C15.712 6.97917 15.7988 7.00104 15.8856 7.04479C15.9724 7.08854 16.0418 7.16215 16.0939 7.26562L16.6148 8.38542L17.7346 8.90625C17.8387 8.95833 17.9127 9.02778 17.9564 9.11458C18.0002 9.20139 18.0217 9.2882 18.021 9.375C18.021 9.46181 17.9991 9.54861 17.9554 9.63542C17.9116 9.72222 17.838 9.79167 17.7346 9.84375L16.6148 10.3646L16.0939 11.4844C16.0418 11.5885 15.9724 11.6625 15.8856 11.7063C15.7988 11.75 15.712 11.7715 15.6252 11.7708ZM8.85435 8.64583C8.76754 8.64583 8.68073 8.61979 8.59393 8.56771C8.50712 8.51563 8.43768 8.4375 8.3856 8.33333L7.70851 6.875L6.25018 6.19792C6.14601 6.14583 6.06789 6.07639 6.0158 5.98958C5.96372 5.90278 5.93768 5.81597 5.93768 5.72917C5.93768 5.64236 5.96372 5.55556 6.0158 5.46875C6.06789 5.38194 6.14601 5.3125 6.25018 5.26042L7.70851 4.58333L8.3856 3.125C8.43768 3.02083 8.50712 2.94271 8.59393 2.89063C8.68073 2.83854 8.76754 2.8125 8.85435 2.8125C8.94115 2.8125 9.02796 2.83854 9.11476 2.89063C9.20157 2.94271 9.27101 3.02083 9.32309 3.125L10.0002 4.58333L11.4585 5.26042C11.5627 5.3125 11.6408 5.38194 11.6929 5.46875C11.745 5.55556 11.771 5.64236 11.771 5.72917C11.771 5.81597 11.745 5.90278 11.6929 5.98958C11.6408 6.07639 11.5627 6.14583 11.4585 6.19792L10.0002 6.875L9.32309 8.33333C9.27101 8.4375 9.20157 8.51563 9.11476 8.56771C9.02796 8.61979 8.94115 8.64583 8.85435 8.64583Z" fill="#E9994A"/>
</svg>
