<svg width="21" height="21" viewBox="0 0 21 21" fill="none" xmlns="http://www.w3.org/2000/svg">
<path d="M8 17.3759H4.25C4.08424 17.3759 3.92527 17.31 3.80806 17.1928C3.69085 17.0756 3.625 16.9166 3.625 16.7509V13.2598C3.625 13.1777 3.64117 13.0964 3.67258 13.0206C3.70398 12.9448 3.75002 12.8759 3.80806 12.8178L13.1831 3.44282C13.3003 3.32561 13.4592 3.25977 13.625 3.25977C13.7908 3.25977 13.9497 3.32561 14.0669 3.44282L17.5581 6.93394C17.6753 7.05115 17.7411 7.21012 17.7411 7.37588C17.7411 7.54164 17.6753 7.70061 17.5581 7.81782L8 17.3759Z" stroke="#323232" stroke-width="1.5" stroke-linecap="round" stroke-linejoin="round"/>
<path d="M11.125 5.5L15.5 9.875" stroke="#323232" stroke-width="1.5" stroke-linecap="round" stroke-linejoin="round"/>
</svg>
