<svg width="25" height="25" viewBox="0 0 25 25" fill="none" xmlns="http://www.w3.org/2000/svg">
<path d="M11.0271 2.18736C11.3958 1.8191 11.8892 1.60242 12.4098 1.58005C12.9305 1.55768 13.4406 1.73125 13.8396 2.06653L13.9729 2.1884L15.9521 4.16653H18.75C19.2754 4.16662 19.7814 4.36525 20.1666 4.72261C20.5518 5.07997 20.7877 5.56967 20.8271 6.09361L20.8333 6.24986V9.04778L22.8125 11.0269C23.181 11.3957 23.3979 11.8893 23.4203 12.4102C23.4427 12.9311 23.2689 13.4415 22.9333 13.8405L22.8115 13.9728L20.8323 15.9519V18.7499C20.8325 19.2755 20.634 19.7817 20.2766 20.1671C19.9192 20.5525 19.4293 20.7886 18.9052 20.828L18.75 20.8332H15.9531L13.974 22.8124C13.6052 23.1809 13.1116 23.3978 12.5907 23.4202C12.0698 23.4425 11.5594 23.2688 11.1604 22.9332L11.0281 22.8124L9.04896 20.8332H6.25C5.7244 20.8334 5.21816 20.6349 4.83276 20.2775C4.44736 19.9201 4.21129 19.4302 4.17187 18.9061L4.16667 18.7499V15.9519L2.1875 13.9728C1.81895 13.604 1.60208 13.1104 1.57971 12.5895C1.55734 12.0686 1.73109 11.5583 2.06667 11.1592L2.1875 11.0269L4.16667 9.04778V6.24986C4.16676 5.72444 4.36539 5.21846 4.72275 4.83328C5.08011 4.44811 5.56981 4.21218 6.09375 4.17278L6.25 4.16653H9.04792L11.0271 2.18736ZM12.5 3.66236L10.5208 5.64153C10.1748 5.987 9.71832 6.19976 9.23125 6.24257L9.04792 6.24986H6.25V9.04778C6.25013 9.53725 6.0779 10.0111 5.76354 10.3863L5.63958 10.5217L3.66042 12.5009L5.63958 14.479C5.98544 14.8249 6.19858 15.2814 6.24167 15.7686L6.25 15.9519V18.7499H9.04792C9.53739 18.7497 10.0113 18.922 10.3865 19.2363L10.5219 19.3603L12.5 21.3394L14.4792 19.3603C14.825 19.0144 15.2815 18.8013 15.7688 18.7582L15.9521 18.7499H18.75V15.9519C18.7499 15.4625 18.9221 14.9886 19.2365 14.6134L19.3604 14.478L21.3396 12.4999L19.3604 10.5207C19.0146 10.1748 18.8014 9.71832 18.7583 9.23111L18.75 9.04778V6.24986H15.9521C15.4626 6.24999 14.9887 6.07776 14.6135 5.7634L14.4781 5.63944L12.499 3.66028L12.5 3.66236ZM15.7083 9.35819C15.8958 9.17137 16.1473 9.06291 16.4119 9.05483C16.6764 9.04675 16.9341 9.13967 17.1326 9.3147C17.3311 9.48974 17.4555 9.73377 17.4806 9.99723C17.5057 10.2607 17.4296 10.5238 17.2677 10.7332L17.1802 10.8311L12.0969 15.9144C11.8984 16.1132 11.6339 16.2321 11.3535 16.2486C11.0731 16.2651 10.7965 16.1781 10.576 16.004L10.476 15.9155L7.97188 13.4113C7.78307 13.2243 7.67288 12.9722 7.66387 12.7066C7.65486 12.441 7.74771 12.182 7.9234 11.9826C8.0991 11.7832 8.34436 11.6585 8.60898 11.634C8.87361 11.6095 9.13758 11.6871 9.34687 11.8509L9.44479 11.9374L11.2865 13.779L15.7083 9.35819Z" fill="#E9994A"/>
</svg>
