<svg width="25" height="25" viewBox="0 0 25 25" fill="none" xmlns="http://www.w3.org/2000/svg">
<path d="M21.3333 5H4.66667C3.75833 5.03333 3.03333 5.75833 3 6.66667V18.3333C3.03333 19.2417 3.75833 19.9667 4.66667 20H21.3333C22.2417 19.9667 22.9667 19.2417 23 18.3333V6.66667C22.9847 6.22952 22.8041 5.81445 22.4948 5.50515C22.1855 5.19586 21.7705 5.01534 21.3333 5ZM21.5714 18.4524H4.42857V6.5H21.5714V18.4524ZM15.0833 8.33333C14.8532 8.33333 14.6667 8.51988 14.6667 8.75C14.6667 8.98012 14.8532 9.16667 15.0833 9.16667H19.25C19.4801 9.16667 19.6667 8.98012 19.6667 8.75C19.6667 8.51988 19.4801 8.33333 19.25 8.33333H15.0833ZM15.0833 10C14.8532 10 14.6667 10.1865 14.6667 10.4167C14.6667 10.6468 14.8532 10.8333 15.0833 10.8333H19.25C19.4801 10.8333 19.6667 10.6468 19.6667 10.4167C19.6667 10.1865 19.4801 10 19.25 10H15.0833ZM15.0833 11.6667C14.8532 11.6667 14.6667 11.8532 14.6667 12.0833C14.6667 12.3135 14.8532 12.5 15.0833 12.5H17.5833C17.8135 12.5 18 12.3135 18 12.0833C18 11.8532 17.8135 11.6667 17.5833 11.6667H15.0833Z" fill="#E9994A"/>
<path fill-rule="evenodd" clip-rule="evenodd" d="M9.70238 11.7496C9.93688 11.7496 10.1691 11.7034 10.3857 11.6137C10.6024 11.5239 10.7993 11.3924 10.9651 11.2266C11.1309 11.0607 11.2624 10.8639 11.3522 10.6472C11.4419 10.4306 11.4881 10.1984 11.4881 9.96388C11.4881 9.72937 11.4419 9.49717 11.3522 9.28051C11.2624 9.06386 11.1309 8.867 10.9651 8.70118C10.7993 8.53537 10.6024 8.40383 10.3857 8.31409C10.1691 8.22435 9.93688 8.17816 9.70238 8.17816C9.22878 8.17816 8.77458 8.3663 8.43969 8.70118C8.1048 9.03607 7.91667 9.49027 7.91667 9.96388C7.91667 10.4375 8.1048 10.8917 8.43969 11.2266C8.77458 11.5615 9.22878 11.7496 9.70238 11.7496ZM9.70238 12.3448C10.3338 12.3448 10.9395 12.094 11.386 11.6475C11.8325 11.2009 12.0833 10.5953 12.0833 9.96388C12.0833 9.33241 11.8325 8.7268 11.386 8.28029C10.9395 7.83377 10.3338 7.58292 9.70238 7.58292C9.07091 7.58292 8.46531 7.83377 8.01879 8.28029C7.57228 8.7268 7.32143 9.33241 7.32143 9.96388C7.32143 10.5953 7.57228 11.2009 8.01879 11.6475C8.46531 12.094 9.07091 12.3448 9.70238 12.3448Z" fill="#E9994A"/>
<path fill-rule="evenodd" clip-rule="evenodd" d="M13.5707 15.267C13.5707 14.7092 13.1939 14.2228 12.6595 14.0873C12.6165 14.0764 12.5725 14.0678 12.5275 14.0616C10.4394 13.7726 8.97991 13.7449 6.88021 14.0518C6.27068 14.1408 5.83259 14.6682 5.83259 15.275V15.6509C5.83259 16.209 6.20981 16.6956 6.74468 16.8307C6.7874 16.8415 6.83112 16.8501 6.87574 16.8563C8.96384 17.1452 10.4234 17.1729 12.5231 16.8661C13.1326 16.7771 13.5707 16.2497 13.5707 15.6429V15.267ZM12.4467 14.6511C10.4068 14.3686 9.00417 14.343 6.96696 14.6407C6.65893 14.6856 6.42857 14.9544 6.42857 15.2749L6.42857 15.6514C6.4276 15.8006 6.48068 15.9452 6.578 16.0584C6.66117 16.1551 6.77185 16.2234 6.89448 16.2545C6.91511 16.2597 6.93607 16.2639 6.95729 16.267C8.99717 16.5494 10.3999 16.575 12.4371 16.2774C12.7451 16.2324 12.9754 15.9637 12.9754 15.6432L12.9762 15.2669C12.9772 15.1176 12.9241 14.973 12.8268 14.8598C12.7434 14.7629 12.6325 14.6946 12.5095 14.6635C12.4889 14.6583 12.468 14.6542 12.4467 14.6511Z" fill="#E9994A"/>
</svg>
