<svg width="25" height="25" viewBox="0 0 25 25" fill="none" xmlns="http://www.w3.org/2000/svg">
<path d="M5.9987 20H18.9987V5H5.9987V20ZM6.54762 21.875C5.89286 21.875 5.33215 21.6453 4.86548 21.1859C4.39881 20.7266 4.16588 20.175 4.16667 19.5312V5.46875C4.16667 4.82422 4.4 4.27227 4.86667 3.81289C5.33334 3.35352 5.89365 3.12422 6.54762 3.125H18.4524C19.1071 3.125 19.6679 3.35469 20.1345 3.81406C20.6012 4.27344 20.8341 4.825 20.8333 5.46875V19.5312C20.8333 20.1758 20.6 20.7277 20.1333 21.1871C19.6667 21.6465 19.1063 21.8758 18.4524 21.875H6.54762ZM8.9987 9C8.9987 9.55228 9.44641 10 9.9987 10H14.9987C15.551 10 15.9987 9.55228 15.9987 9C15.9987 8.44772 15.551 8 14.9987 8H9.9987C9.44641 8 8.9987 8.44772 8.9987 9ZM8.9987 12.5C8.9987 13.0523 9.44641 13.5 9.9987 13.5H14.9987C15.551 13.5 15.9987 13.0523 15.9987 12.5C15.9987 11.9477 15.551 11.5 14.9987 11.5H9.9987C9.44641 11.5 8.9987 11.9477 8.9987 12.5ZM8.9987 16C8.9987 16.5523 9.44641 17 9.9987 17H14.9987C15.551 17 15.9987 16.5523 15.9987 16C15.9987 15.4477 15.551 15 14.9987 15H9.9987C9.44641 15 8.9987 15.4477 8.9987 16Z" fill="#E9994A"/>
</svg>
