<svg width="25" height="25" viewBox="0 0 25 25" fill="none" xmlns="http://www.w3.org/2000/svg">
<path d="M14.6375 3.82519C14.002 3.40973 13.2592 3.18848 12.5 3.18848C11.7408 3.18848 10.998 3.40973 10.3625 3.82519L1.91563 9.34706C1.79547 9.42552 1.69924 9.53555 1.6375 9.6651C1.57576 9.79464 1.55089 9.93869 1.56563 10.0814C1.5634 10.1064 1.56236 10.1314 1.5625 10.1564V16.4064C1.5625 16.6136 1.64481 16.8124 1.79132 16.9589C1.93784 17.1054 2.13655 17.1877 2.34375 17.1877C2.55095 17.1877 2.74967 17.1054 2.89618 16.9589C3.04269 16.8124 3.125 16.6136 3.125 16.4064V11.4752L4.6875 12.533V18.283C4.68749 18.4692 4.75398 18.6493 4.875 18.7908L4.87813 18.7955L4.8875 18.8064L4.91875 18.8408L5.025 18.9564C5.11719 19.0533 5.25 19.1877 5.42188 19.3471C5.76563 19.6643 6.27031 20.083 6.92031 20.5033C8.21719 21.3393 10.1219 22.1908 12.5 22.1908C14.8781 22.1908 16.7813 21.3393 18.0797 20.5033C18.7297 20.083 19.2344 19.6643 19.5781 19.3471C19.7528 19.1854 19.9207 19.0165 20.0813 18.8408L20.1125 18.8064L20.1219 18.7955L20.125 18.7924L20.1266 18.7893C20.2463 18.6483 20.3122 18.4695 20.3125 18.2846V12.5314L23.0938 10.6486C23.206 10.5823 23.2975 10.4861 23.3582 10.3708C23.4189 10.2555 23.4464 10.1255 23.4375 9.9955C23.4365 9.86654 23.4036 9.73983 23.3417 9.62669C23.2798 9.51354 23.1909 9.41747 23.0828 9.34706L14.6375 3.82519ZM18.75 13.5877V17.9736C18.2871 18.4296 17.7787 18.8369 17.2328 19.1893C16.1078 19.9127 14.4969 20.6268 12.5 20.6268C10.5031 20.6268 8.89063 19.9127 7.76719 19.1893C7.22121 18.8364 6.71283 18.4286 6.25 17.9721V13.5893L10.3109 16.3377C10.9572 16.775 11.7197 17.0087 12.5 17.0087C13.2803 17.0087 14.0428 16.775 14.6891 16.3377L18.75 13.5877ZM5.46875 18.283L4.875 18.7893L5.46875 18.2814V18.283ZM11.2172 5.133C11.5985 4.8836 12.0443 4.75077 12.5 4.75077C12.9557 4.75077 13.4015 4.8836 13.7828 5.133L21.2453 10.0002L13.8141 15.0439C13.4262 15.3066 12.9685 15.447 12.5 15.447C12.0315 15.447 11.5738 15.3066 11.1859 15.0439L3.75313 10.0127L11.2172 5.133Z" fill="#E9994A"/>
</svg>
