<svg width="25" height="25" viewBox="0 0 25 25" fill="none" xmlns="http://www.w3.org/2000/svg">
<path d="M14.0107 -7.89762e-07H10.9888C10.3853 -7.89762e-07 9.88546 0.452328 9.82598 1.05176L9.51618 2.90821C8.93411 3.08917 8.36859 3.32422 7.82827 3.60841L6.27337 2.498C6.08746 2.34391 5.82476 2.24975 5.55539 2.24975C5.24306 2.24975 4.9498 2.37157 4.72876 2.5926L2.5922 4.72921C2.16548 5.15592 2.13243 5.82929 2.51454 6.29608L3.60842 7.82827C3.32337 8.3694 3.08873 8.93537 2.90821 9.51581L1.02447 9.83015C0.452737 9.88505 0 10.3849 0 10.9893V14.0107C0 14.6143 0.452328 15.1141 1.05176 15.174L2.90821 15.4847C3.08954 16.0676 3.32459 16.6331 3.60801 17.1718L2.498 18.7267C2.13199 19.1708 2.16503 19.8441 2.5922 20.2704L4.72917 22.4078C5.14105 22.8188 5.8462 22.8531 6.29481 22.4863L7.82909 21.392C8.36736 21.6757 8.93288 21.9104 9.51618 22.0917L9.8297 23.9751C9.8855 24.5477 10.3857 25 10.9893 25H14.0111C14.6138 25 15.1137 24.5481 15.1744 23.9491L15.4847 22.0917C16.0672 21.9104 16.6327 21.6757 17.1714 21.392L18.7267 22.5024C18.9122 22.656 19.1749 22.7498 19.4442 22.7498C19.7565 22.7498 20.0498 22.6284 20.2704 22.4078L22.407 20.2704C22.8333 19.8453 22.8676 19.1724 22.4863 18.7052L21.392 17.1717C21.6762 16.633 21.9104 16.0675 22.0918 15.4846L23.9755 15.1703C24.5481 15.1141 25 14.6143 25 14.0107V10.9893C25 10.3849 24.5477 9.8855 23.9474 9.82729L22.0918 9.51703C21.9104 8.93374 21.6757 8.36777 21.392 7.82913L22.5024 6.27459C22.868 5.82888 22.8337 5.15511 22.4065 4.72962L20.2704 2.59346C19.8602 2.18284 19.1534 2.14653 18.7035 2.5154L17.1713 3.6089C16.631 3.32426 16.0655 3.08921 15.4846 2.90866L15.1699 1.02451C15.1137 0.452328 14.6138 -7.89762e-07 14.0107 -7.89762e-07ZM7.79849 4.50813C7.86789 4.50813 7.9377 4.49081 8.00049 4.45527C8.63007 4.10245 9.30008 3.82447 9.99371 3.62827C10.1474 3.58489 10.2622 3.45641 10.2886 3.29861L10.6443 1.16038C10.665 0.961274 10.815 0.826183 10.9888 0.826183H14.0107C14.1846 0.826183 14.3342 0.960866 14.3511 1.13313L14.7117 3.29861C14.7377 3.456 14.853 3.58448 15.0067 3.62786C15.6986 3.82369 16.3687 4.10172 16.9987 4.4549C17.1379 4.53337 17.3106 4.52386 17.4407 4.43051L19.205 3.17014C19.383 3.0268 19.5644 3.05658 19.685 3.17676L21.822 5.31372C21.9476 5.43885 21.9574 5.63595 21.8459 5.77263L20.5686 7.5585C20.4752 7.68864 20.4662 7.86087 20.5442 8.0009C20.897 8.62802 21.1746 9.29804 21.3705 9.99289C21.4138 10.147 21.5423 10.2618 21.7005 10.2882L23.8391 10.6448C24.0383 10.6654 24.1734 10.8145 24.1734 10.9885V14.0099C24.1734 14.1838 24.0387 14.3337 23.8664 14.3507L21.7009 14.7109C21.5427 14.7373 21.4146 14.8522 21.3709 15.0062C21.175 15.7011 20.897 16.3712 20.5446 16.9974C20.4666 17.1375 20.4757 17.3097 20.569 17.4398L21.8302 19.205C21.9579 19.3628 21.9475 19.5594 21.8228 19.6842L19.6859 21.822C19.5657 21.9422 19.3587 21.9525 19.2281 21.8455L17.4411 20.5679C17.3109 20.4745 17.1383 20.4654 16.9991 20.5435C16.3716 20.8958 15.7015 21.1739 15.0071 21.3705C14.8534 21.4135 14.7386 21.5424 14.7121 21.7002L14.356 23.8384C14.3342 24.0416 14.1875 24.1738 14.0107 24.1738H10.9888C10.8116 24.1738 10.6654 24.042 10.648 23.8668L10.2886 21.7018C10.2626 21.544 10.1474 21.4155 9.99371 21.3721C9.29804 21.1751 8.62798 20.8975 8.00217 20.5451C7.86172 20.467 7.68946 20.4761 7.55972 20.5695L5.79371 21.8307C5.61605 21.9728 5.43391 21.9443 5.31368 21.8232L3.17676 19.6863C3.052 19.5615 3.04248 19.3649 3.15404 19.229L4.43092 17.4415C4.52431 17.3109 4.53337 17.1387 4.45531 16.999C4.10335 16.3728 3.82533 15.7027 3.62827 15.0075C3.58529 14.8538 3.45641 14.7389 3.29861 14.7125L1.16042 14.356C0.957966 14.3345 0.826226 14.1879 0.826226 14.0106V10.9892C0.826226 10.8124 0.957598 10.6662 1.13231 10.6493L3.2982 10.2891C3.456 10.263 3.58448 10.1478 3.62786 9.99371C3.82324 9.30257 4.10127 8.63211 4.4549 8.0009C4.53301 7.86127 4.5239 7.68942 4.43051 7.55927L3.17014 5.79493C3.04126 5.63631 3.05114 5.43971 3.17631 5.3145L5.31328 3.17794C5.43472 3.0569 5.64089 3.04616 5.771 3.15441L7.55809 4.43129C7.62994 4.48215 7.71422 4.50813 7.79849 4.50813ZM12.5004 7.55519C9.77312 7.55519 7.55437 9.77353 7.55437 12.5004C7.55437 15.2277 9.77312 17.4464 12.5004 17.4464C15.2277 17.4464 17.446 15.2277 17.446 12.5004C17.4456 9.77398 15.2273 7.55519 12.5004 7.55519ZM12.5004 16.6203C10.2288 16.6203 8.38056 14.772 8.38056 12.5004C8.38056 10.2292 10.2288 8.38141 12.5004 8.38141C14.7717 8.38141 16.6199 10.2292 16.6199 12.5004C16.6194 14.7721 14.7716 16.6203 12.5004 16.6203Z" fill="#E9994A"/>
</svg>
