<svg width="16" height="17" viewBox="0 0 16 17" fill="none" xmlns="http://www.w3.org/2000/svg">
<path d="M14.875 5.53125H10.9688V1.625C10.9688 1.33492 10.8535 1.05672 10.6484 0.851602C10.4433 0.646484 10.1651 0.53125 9.875 0.53125H6.125C5.83492 0.53125 5.55672 0.646484 5.3516 0.851602C5.14648 1.05672 5.03125 1.33492 5.03125 1.625V5.53125H1.125C0.834919 5.53125 0.55672 5.64648 0.351602 5.8516C0.146484 6.05672 0.03125 6.33492 0.03125 6.625V10.375C0.03125 10.6651 0.146484 10.9433 0.351602 11.1484C0.55672 11.3535 0.834919 11.4688 1.125 11.4688H5.03125V15.375C5.03125 15.6651 5.14648 15.9433 5.3516 16.1484C5.55672 16.3535 5.83492 16.4688 6.125 16.4688H9.875C10.1651 16.4688 10.4433 16.3535 10.6484 16.1484C10.8535 15.9433 10.9688 15.6651 10.9688 15.375V11.4688H14.875C15.1651 11.4688 15.4433 11.3535 15.6484 11.1484C15.8535 10.9433 15.9688 10.6651 15.9688 10.375V6.625C15.9688 6.33492 15.8535 6.05672 15.6484 5.8516C15.4433 5.64648 15.1651 5.53125 14.875 5.53125ZM15.0312 10.375C15.0312 10.4164 15.0148 10.4562 14.9855 10.4855C14.9562 10.5148 14.9164 10.5312 14.875 10.5312H10.5C10.3757 10.5312 10.2565 10.5806 10.1685 10.6685C10.0806 10.7565 10.0312 10.8757 10.0312 11V15.375C10.0312 15.4164 10.0148 15.4562 9.98549 15.4855C9.95618 15.5148 9.91644 15.5312 9.875 15.5312H6.125C6.08356 15.5312 6.04382 15.5148 6.01451 15.4855C5.98521 15.4562 5.96875 15.4164 5.96875 15.375V11C5.96875 10.8757 5.91936 10.7565 5.83146 10.6685C5.74355 10.5806 5.62432 10.5312 5.5 10.5312H1.125C1.08356 10.5312 1.04382 10.5148 1.01451 10.4855C0.985212 10.4562 0.96875 10.4164 0.96875 10.375V6.625C0.96875 6.58356 0.985212 6.54382 1.01451 6.51451C1.04382 6.48521 1.08356 6.46875 1.125 6.46875H5.5C5.62432 6.46875 5.74355 6.41936 5.83146 6.33146C5.91936 6.24355 5.96875 6.12432 5.96875 6V1.625C5.96875 1.58356 5.98521 1.54382 6.01451 1.51451C6.04382 1.48521 6.08356 1.46875 6.125 1.46875H9.875C9.91644 1.46875 9.95618 1.48521 9.98549 1.51451C10.0148 1.54382 10.0312 1.58356 10.0312 1.625V6C10.0312 6.12432 10.0806 6.24355 10.1685 6.33146C10.2565 6.41936 10.3757 6.46875 10.5 6.46875H14.875C14.9164 6.46875 14.9562 6.48521 14.9855 6.51451C15.0148 6.54382 15.0312 6.58356 15.0312 6.625V10.375Z" fill="#323232"/>
</svg>
