<svg width="23" height="22" viewBox="0 0 23 22" fill="none" xmlns="http://www.w3.org/2000/svg">
<path d="M1.72498 20.875L6.24268 7.9917L14.7458 16.7282L1.72498 20.875Z" stroke="black" stroke-width="2" stroke-linejoin="round"/>
<path d="M10.5792 8.896L13.1833 6.29183C14.5724 4.90277 14.7458 3.68766 13.7042 2.646M13.7042 12.021L16.3083 9.41683C18.0443 7.68089 19.7807 7.68089 21.5167 9.41683" stroke="black" stroke-width="2" stroke-linecap="round" stroke-linejoin="round"/>
<path d="M9.01664 2.64591C9.29291 2.64591 9.55786 2.53617 9.75321 2.34082C9.94856 2.14547 10.0583 1.88052 10.0583 1.60425C10.0583 1.32798 9.94856 1.06303 9.75321 0.867678C9.55786 0.672328 9.29291 0.562581 9.01664 0.562581C8.74038 0.562581 8.47542 0.672328 8.28007 0.867678C8.08472 1.06303 7.97498 1.32798 7.97498 1.60425C7.97498 1.88052 8.08472 2.14547 8.28007 2.34082C8.47542 2.53617 8.74038 2.64591 9.01664 2.64591ZM20.475 2.12508C20.7512 2.12508 21.0162 2.01533 21.2115 1.81998C21.4069 1.62463 21.5166 1.35968 21.5166 1.08341C21.5166 0.807148 21.4069 0.542195 21.2115 0.346845C21.0162 0.151495 20.7512 0.041748 20.475 0.041748C20.1987 0.041748 19.9338 0.151495 19.7384 0.346845C19.5431 0.542195 19.4333 0.807148 19.4333 1.08341C19.4333 1.35968 19.5431 1.62463 19.7384 1.81998C19.9338 2.01533 20.1987 2.12508 20.475 2.12508ZM20.475 14.1042C20.7512 14.1042 21.0162 13.9945 21.2115 13.7992C21.4069 13.6038 21.5166 13.3388 21.5166 13.0626C21.5166 12.7863 21.4069 12.5214 21.2115 12.326C21.0162 12.1307 20.7512 12.0209 20.475 12.0209C20.1987 12.0209 19.9338 12.1307 19.7384 12.326C19.5431 12.5214 19.4333 12.7863 19.4333 13.0626C19.4333 13.3388 19.5431 13.6038 19.7384 13.7992C19.9338 13.9945 20.1987 14.1042 20.475 14.1042ZM18.9125 18.7917C19.1887 18.7917 19.4537 18.682 19.649 18.4867C19.8444 18.2913 19.9541 18.0263 19.9541 17.7501C19.9541 17.4738 19.8444 17.2089 19.649 17.0135C19.4537 16.8182 19.1887 16.7084 18.9125 16.7084C18.6362 16.7084 18.3713 16.8182 18.1759 17.0135C17.9806 17.2089 17.8708 17.4738 17.8708 17.7501C17.8708 18.0263 17.9806 18.2913 18.1759 18.4867C18.3713 18.682 18.6362 18.7917 18.9125 18.7917Z" fill="black"/>
</svg>
