<svg width="19" height="14" viewBox="0 0 19 14" fill="none" xmlns="http://www.w3.org/2000/svg">
<path d="M15.5 3.66671L12.1666 7.00004H14.6666C14.6666 9.75837 12.425 12 9.66662 12C8.82496 12 8.02496 11.7917 7.33329 11.4167L6.11662 12.6334C7.14162 13.2834 8.35829 13.6667 9.66662 13.6667C13.35 13.6667 16.3333 10.6834 16.3333 7.00004H18.8333L15.5 3.66671ZM4.66662 7.00004C4.66662 4.24171 6.90829 2.00004 9.66662 2.00004C10.5083 2.00004 11.3083 2.20837 12 2.58337L13.2166 1.36671C12.1916 0.716707 10.975 0.333374 9.66662 0.333374C5.98329 0.333374 2.99996 3.31671 2.99996 7.00004H0.499958L3.83329 10.3334L7.16662 7.00004H4.66662Z" fill="black"/>
</svg>
