<svg width="19" height="22" viewBox="0 0 19 22" fill="none" xmlns="http://www.w3.org/2000/svg">
<path d="M12.0715 7.92343L11.7167 17.154M6.80604 17.154L6.45118 7.92343M16.6745 4.63121C17.0253 4.68454 17.374 4.74095 17.7227 4.80146M16.6745 4.63223L15.5791 18.8698C15.5344 19.4495 15.2725 19.991 14.8458 20.3859C14.4191 20.7809 13.8591 21.0002 13.2777 21H5.24506C4.66363 21.0002 4.10357 20.7809 3.67687 20.3859C3.25017 19.991 2.98829 19.4495 2.94358 18.8698L1.84823 4.63121M16.6745 4.63121C15.4908 4.45225 14.301 4.31644 13.1074 4.22404M0.800049 4.80043C1.14876 4.73992 1.49747 4.68351 1.84823 4.63121M1.84823 4.63121C3.03192 4.45226 4.22174 4.31644 5.41531 4.22404M13.1074 4.22404V3.28458C13.1074 2.07435 12.1741 1.06515 10.9639 1.0272C9.82916 0.990933 8.69357 0.990933 7.55884 1.0272C6.34862 1.06515 5.41531 2.07538 5.41531 3.28458V4.22404M13.1074 4.22404C10.5472 4.02617 7.97553 4.02617 5.41531 4.22404" stroke="black" stroke-width="1.5" stroke-linecap="round" stroke-linejoin="round"/>
</svg>
