<svg width="24" height="21" viewBox="0 0 24 21" fill="none" xmlns="http://www.w3.org/2000/svg">
<path d="M0.828895 12.4314H2.78375V20.0583C2.78375 20.5078 3.16088 20.8755 3.62158 20.8755H9.34664C9.80735 20.8755 10.1845 20.5078 10.1845 20.0583V14.4742H13.6753V20.0583C13.6753 20.5078 14.0524 20.8755 14.5131 20.8755H19.9588C20.4195 20.8755 20.7966 20.5078 20.7966 20.0583V12.4314H23.1703C23.5055 12.4314 23.8127 12.227 23.9385 11.9275C24.0641 11.6278 23.9942 11.2738 23.757 11.0422L12.8376 0.24187C12.5164 -0.0714191 11.9859 -0.0850047 11.6647 0.228285L0.256552 11.0286C0.00520421 11.2602 -0.0646486 11.6144 0.061126 11.9275C0.186497 12.2406 0.493765 12.4314 0.828895 12.4314ZM12.2229 1.97156L21.1596 10.797H19.9588C19.498 10.797 19.1211 11.1649 19.1211 11.6142V19.2411H15.3509V13.657C15.3509 13.2076 14.974 12.8398 14.5131 12.8398H9.34664C8.88594 12.8398 8.50882 13.2076 8.50882 13.657V19.2411H4.4594V11.6142C4.4594 11.1647 4.08228 10.797 3.62158 10.797H2.8954L12.2229 1.97156Z" fill="#323232"/>
</svg>
