<svg width="200" height="15" viewBox="0 0 200 15" fill="none" xmlns="http://www.w3.org/2000/svg">
<rect x="0.5" y="0.5" width="199" height="14" rx="4.5" fill="#FAFAFA"/>
<rect x="7" y="3.5" width="8" height="2" rx="1" transform="rotate(90 7 3.5)" fill="#EEEEEE"/>
<rect x="21.4619" y="3.5" width="8" height="2" rx="1" transform="rotate(90 21.4619 3.5)" fill="#EEEEEE"/>
<rect x="35.9229" y="3.5" width="8" height="2" rx="1" transform="rotate(90 35.9229 3.5)" fill="#EEEEEE"/>
<rect x="50.3848" y="3.5" width="8" height="2" rx="1" transform="rotate(90 50.3848 3.5)" fill="#EEEEEE"/>
<rect x="64.8457" y="3.5" width="8" height="2" rx="1" transform="rotate(90 64.8457 3.5)" fill="#EEEEEE"/>
<rect x="79.3076" y="3.5" width="8" height="2" rx="1" transform="rotate(90 79.3076 3.5)" fill="#EEEEEE"/>
<rect x="93.7695" y="3.5" width="8" height="2" rx="1" transform="rotate(90 93.7695 3.5)" fill="#EEEEEE"/>
<rect x="108.23" y="3.5" width="8" height="2" rx="1" transform="rotate(90 108.23 3.5)" fill="#EEEEEE"/>
<rect x="122.692" y="3.5" width="8" height="2" rx="1" transform="rotate(90 122.692 3.5)" fill="#EEEEEE"/>
<rect x="137.154" y="3.5" width="8" height="2" rx="1" transform="rotate(90 137.154 3.5)" fill="#EEEEEE"/>
<rect x="151.615" y="3.5" width="8" height="2" rx="1" transform="rotate(90 151.615 3.5)" fill="#EEEEEE"/>
<rect x="166.077" y="3.5" width="8" height="2" rx="1" transform="rotate(90 166.077 3.5)" fill="#EEEEEE"/>
<rect x="180.538" y="3.5" width="8" height="2" rx="1" transform="rotate(90 180.538 3.5)" fill="#EEEEEE"/>
<rect x="195" y="3.5" width="8" height="2" rx="1" transform="rotate(90 195 3.5)" fill="#EEEEEE"/>
<rect x="0.5" y="0.5" width="199" height="14" rx="4.5" stroke="#EEEEEE"/>
</svg>
