<svg width="16" height="15" viewBox="0 0 16 15" fill="none" xmlns="http://www.w3.org/2000/svg">
<g clip-path="url(#clip0_318_1199)">
<circle cx="8" cy="7.5" r="7.5" fill="#E68282"/>
<path d="M8 0C3.82143 0 0.5 3.32143 0.5 7.5C0.5 11.6786 3.82143 15 8 15C12.1786 15 15.5 11.6786 15.5 7.5C15.5 3.32143 12.1786 0 8 0ZM8 13.9286C4.46429 13.9286 1.57143 11.0357 1.57143 7.5C1.57143 3.96429 4.46429 1.07143 8 1.07143C11.5357 1.07143 14.4286 3.96429 14.4286 7.5C14.4286 11.0357 11.5357 13.9286 8 13.9286Z" fill="black"/>
<path d="M10.8929 11.25L8 8.35714L5.10714 11.25L4.25 10.3929L7.14286 7.5L4.25 4.60714L5.10714 3.75L8 6.64286L10.8929 3.75L11.75 4.60714L8.85714 7.5L11.75 10.3929L10.8929 11.25Z" fill="black"/>
</g>
<defs>
<clipPath id="clip0_318_1199">
<rect width="15" height="15" fill="white" transform="translate(0.5)"/>
</clipPath>
</defs>
</svg>
