<svg width="16" height="15" viewBox="0 0 16 15" fill="none" xmlns="http://www.w3.org/2000/svg">
<g clip-path="url(#clip0_318_1208)">
<circle cx="8" cy="7.5" r="7.5" fill="#F4D993"/>
<path d="M8 0C6.51664 0 5.06659 0.439867 3.83323 1.26398C2.59986 2.08809 1.63856 3.25943 1.07091 4.62987C0.50325 6.00032 0.354725 7.50832 0.644114 8.96317C0.933503 10.418 1.64781 11.7544 2.6967 12.8033C3.7456 13.8522 5.08197 14.5665 6.53682 14.8559C7.99168 15.1453 9.49968 14.9967 10.8701 14.4291C12.2406 13.8614 13.4119 12.9001 14.236 11.6668C15.0601 10.4334 15.5 8.98336 15.5 7.5C15.5 5.51087 14.7098 3.60322 13.3033 2.1967C11.8968 0.790176 9.98913 0 8 0ZM8 13.9286C6.72855 13.9286 5.48565 13.5515 4.42848 12.8452C3.37131 12.1388 2.54734 11.1348 2.06078 9.9601C1.57421 8.78544 1.44691 7.49287 1.69495 6.24585C1.943 4.99883 2.55526 3.85336 3.45432 2.95431C4.35337 2.05526 5.49883 1.443 6.74585 1.19495C7.99287 0.946904 9.28544 1.07421 10.4601 1.56077C11.6348 2.04734 12.6388 2.8713 13.3452 3.92848C14.0515 4.98565 14.4286 6.22855 14.4286 7.5C14.4286 9.20496 13.7513 10.8401 12.5457 12.0457C11.3401 13.2513 9.70496 13.9286 8 13.9286Z" fill="black"/>
<path d="M7.46439 3.21436H8.53582V9.10721H7.46439V3.21436ZM8.0001 10.7144C7.84117 10.7144 7.68581 10.7615 7.55366 10.8498C7.42152 10.9381 7.31852 11.0636 7.2577 11.2104C7.19688 11.3572 7.18097 11.5188 7.21197 11.6747C7.24298 11.8306 7.31951 11.9738 7.43189 12.0861C7.54428 12.1985 7.68746 12.2751 7.84334 12.3061C7.99921 12.3371 8.16078 12.3211 8.30762 12.2603C8.45445 12.1995 8.57995 12.0965 8.66825 11.9644C8.75655 11.8322 8.80368 11.6769 8.80368 11.5179C8.80368 11.3048 8.71901 11.1004 8.56832 10.9497C8.41762 10.799 8.21323 10.7144 8.0001 10.7144Z" fill="black"/>
</g>
<defs>
<clipPath id="clip0_318_1208">
<rect width="15" height="15" fill="white" transform="translate(0.5)"/>
</clipPath>
</defs>
</svg>
