<svg width="25" height="25" viewBox="0 0 25 25" fill="none" xmlns="http://www.w3.org/2000/svg">
<path d="M24.0607 14.0607C24.6464 13.4749 24.6464 12.5251 24.0607 11.9393L14.5147 2.3934C13.9289 1.80761 12.9792 1.80761 12.3934 2.3934C11.8076 2.97918 11.8076 3.92893 12.3934 4.51472L20.8787 13L12.3934 21.4853C11.8076 22.0711 11.8076 23.0208 12.3934 23.6066C12.9792 24.1924 13.9289 24.1924 14.5147 23.6066L24.0607 14.0607ZM3 11.5C2.17158 11.5 1.5 12.1716 1.5 13C1.5 13.8284 2.17158 14.5 3 14.5L3 11.5ZM23 11.5L3 11.5L3 14.5L23 14.5L23 11.5Z" fill="black"/>
</svg>
