<svg width="25" height="25" viewBox="0 0 25 25" fill="none" xmlns="http://www.w3.org/2000/svg">
<path d="M1.93934 11.9393C1.35355 12.5251 1.35355 13.4749 1.93934 14.0607L11.4853 23.6066C12.0711 24.1924 13.0208 24.1924 13.6066 23.6066C14.1924 23.0208 14.1924 22.0711 13.6066 21.4853L5.12132 13L13.6066 4.51472C14.1924 3.92893 14.1924 2.97919 13.6066 2.3934C13.0208 1.80761 12.0711 1.80761 11.4853 2.3934L1.93934 11.9393ZM23 14.5C23.8284 14.5 24.5 13.8284 24.5 13C24.5 12.1716 23.8284 11.5 23 11.5L23 14.5ZM3 14.5L23 14.5L23 11.5L3 11.5L3 14.5Z" fill="black"/>
</svg>
