<svg width="25" height="25" viewBox="0 0 25 25" fill="none" xmlns="http://www.w3.org/2000/svg">
<path d="M2.29289 12.2929C1.90237 12.6834 1.90237 13.3166 2.29289 13.7071L8.65685 20.0711C9.04738 20.4616 9.68054 20.4616 10.0711 20.0711C10.4616 19.6805 10.4616 19.0474 10.0711 18.6569L4.41421 13L10.0711 7.34315C10.4616 6.95262 10.4616 6.31946 10.0711 5.92893C9.68054 5.53841 9.04738 5.53841 8.65685 5.92893L2.29289 12.2929ZM23.7071 13.7071C24.0976 13.3166 24.0976 12.6834 23.7071 12.2929L17.3431 5.92893C16.9526 5.53841 16.3195 5.53841 15.9289 5.92893C15.5384 6.31946 15.5384 6.95262 15.9289 7.34315L21.5858 13L15.9289 18.6569C15.5384 19.0474 15.5384 19.6805 15.9289 20.0711C16.3195 20.4616 16.9526 20.4616 17.3431 20.0711L23.7071 13.7071ZM3 14H23V12H3V14Z" fill="black"/>
</svg>
