<svg width="25" height="25" viewBox="0 0 25 25" fill="none" xmlns="http://www.w3.org/2000/svg">
<mask id="path-1-inside-1_308_6481" fill="white">
<path fill-rule="evenodd" clip-rule="evenodd" d="M13 23L3 23L3 13L3 3L13 3L23 3L23 13L13 13L13 23Z"/>
</mask>
<path d="M3 23L3 26L2.62268e-07 26L0 23L3 23ZM13 23L16 23L16 26L13 26L13 23ZM3 13L6 13L3 13ZM3 3L-1.74846e-06 3L-2.01072e-06 2.62268e-07L3 0L3 3ZM23 3L23 -1.74846e-06L26 -2.01072e-06L26 3L23 3ZM23 13L26 13L26 16L23 16L23 13ZM13 13L10 13L10 10L13 10L13 13ZM3 20L13 20L13 26L3 26L3 20ZM6 13L6 23L0 23L-8.74228e-07 13L6 13ZM6 3L6 13L-8.74228e-07 13L-1.74846e-06 3L6 3ZM13 6L3 6L3 0L13 -8.74228e-07L13 6ZM23 6L13 6L13 -8.74228e-07L23 -1.74846e-06L23 6ZM20 13L20 3L26 3L26 13L20 13ZM13 10L23 10L23 16L13 16L13 10ZM10 23L10 13L16 13L16 23L10 23Z" fill="black" mask="url(#path-1-inside-1_308_6481)"/>
<path fill-rule="evenodd" clip-rule="evenodd" d="M10 23L6 23L6 10L6 6L10 6L23 6L23 10L10 10L10 23Z" fill="white"/>
</svg>
