<svg width="25" height="25" viewBox="0 0 25 25" fill="none" xmlns="http://www.w3.org/2000/svg">
<mask id="path-1-inside-1_308_6563" fill="white">
<path fill-rule="evenodd" clip-rule="evenodd" d="M13 23L23 23L23 13L23 3L13 3L3 3L3 13L13 13L13 23Z"/>
</mask>
<path d="M23 23L23 26L26 26L26 23L23 23ZM13 23L10 23L10 26L13 26L13 23ZM23 3L26 3L26 2.62268e-07L23 0L23 3ZM3 3L3 -1.74846e-06L2.01072e-06 -2.01072e-06L1.74846e-06 3L3 3ZM3 13L8.74228e-07 13L6.11959e-07 16L3 16L3 13ZM13 13L16 13L16 10L13 10L13 13ZM23 20L13 20L13 26L23 26L23 20ZM20 13L20 23L26 23L26 13L20 13ZM20 3L20 13L26 13L26 3L20 3ZM13 6L23 6L23 0L13 -8.74228e-07L13 6ZM3 6L13 6L13 -8.74228e-07L3 -1.74846e-06L3 6ZM6 13L6 3L1.74846e-06 3L8.74228e-07 13L6 13ZM13 10L3 10L3 16L13 16L13 10ZM16 23L16 13L10 13L10 23L16 23Z" fill="black" mask="url(#path-1-inside-1_308_6563)"/>
<path fill-rule="evenodd" clip-rule="evenodd" d="M16 23L20 23L20 10L20 6L16 6L3 6L3 10L16 10L16 23Z" fill="white"/>
</svg>
