<svg width="22" height="22" viewBox="0 0 22 22" fill="none" xmlns="http://www.w3.org/2000/svg">
<path d="M19.2029 5.30784C20.5878 5.30784 21.7141 4.18146 21.7141 2.79674C21.7141 1.41202 20.5878 0.285645 19.2029 0.285645C17.8182 0.285645 16.6918 1.41216 16.6918 2.79674C16.6918 4.18146 17.8182 5.30784 19.2029 5.30784ZM19.2029 1.95976C19.6647 1.95976 20.0402 2.33526 20.0402 2.79674C20.0402 3.25822 19.6647 3.63387 19.2029 3.63387C18.7414 3.63387 18.3658 3.25836 18.3658 2.79674C18.3658 2.33512 18.7416 1.95976 19.2029 1.95976ZM2.7968 5.30784C4.18152 5.30784 5.3079 4.18146 5.3079 2.79674C5.3079 1.41202 4.18152 0.285645 2.7968 0.285645C1.41208 0.285645 0.285706 1.41216 0.285706 2.79674C0.285706 4.18146 1.41208 5.30784 2.7968 5.30784ZM2.7968 1.95976C3.25842 1.95976 3.63393 2.33526 3.63393 2.79674C3.63393 3.25822 3.25842 3.63387 2.7968 3.63387C2.33518 3.63387 1.95982 3.25836 1.95982 2.79674C1.95982 2.33512 2.33532 1.95976 2.7968 1.95976ZM19.2161 6.10305C19.2122 6.10305 19.2078 6.10305 19.2039 6.10305C17.4713 6.10305 16.8144 7.36461 16.4003 8.59941C16.2596 9.01941 15.9539 9.93707 15.7534 10.5396H14.7668V8.61429C14.7668 7.22957 13.6403 6.1032 12.2555 6.1032H9.74444C8.35972 6.1032 7.2332 7.22957 7.2332 8.61429V10.5396H6.24645C6.04589 9.93707 5.74034 9.01941 5.59958 8.59941C5.18545 7.36461 4.52885 6.10305 2.79609 6.10305C2.79208 6.10305 2.78779 6.10305 2.78364 6.10305C1.40636 6.10777 0.285849 7.23443 0.285849 8.61415V13.1762C0.285849 14.2673 0.985647 15.1979 1.95996 15.5433V15.5618C1.98156 15.5618 2.00259 15.5634 2.0239 15.5649C2.11703 15.5951 2.21259 15.6203 2.31015 15.6395C2.59696 15.7721 2.79695 16.0622 2.79695 16.3988V21.7139H4.47106V16.3988C4.47106 16.1517 4.43458 15.913 4.36777 15.6872H5.34996C5.81143 15.6872 6.18694 16.0628 6.18694 16.5244V21.7139H7.86105V16.5244C7.86105 15.1395 6.73453 14.0131 5.34996 14.0131H2.79695C2.77535 14.0131 2.75432 14.0116 2.733 14.0098C2.63973 13.9797 2.54432 13.9546 2.44676 13.9353C2.1598 13.8027 1.95996 13.5126 1.95996 13.1762V8.61415C1.95996 8.15439 2.33218 7.77874 2.78965 7.77702C3.16787 7.77573 3.5574 7.77445 4.01215 9.13113C4.22959 9.77972 4.84256 11.6221 4.84871 11.6405L5.03925 12.2133H16.961L17.1516 11.6405C17.1577 11.6219 17.7707 9.77972 17.9881 9.13113C18.4427 7.77445 18.8323 7.77616 19.2108 7.77702C19.6681 7.77874 20.0405 8.15424 20.0405 8.61415V13.1762C20.0405 13.5126 19.8405 13.8027 19.5535 13.9353C19.4559 13.9546 19.3604 13.9797 19.2674 14.0098C19.2461 14.0116 19.2249 14.0131 19.2033 14.0131H16.6922C15.3074 14.0131 14.1811 15.1397 14.1811 16.5244V21.7139H15.8551V16.5244C15.8551 16.0628 16.2306 15.6872 16.6922 15.6872H17.6325C17.5657 15.9128 17.5292 16.1517 17.5292 16.3988V21.7139H19.2032V16.3988C19.2032 16.0622 19.4032 15.7721 19.69 15.6395C19.7877 15.6202 19.8832 15.595 19.9764 15.5649C19.9975 15.5632 20.0187 15.5618 20.0403 15.5618V15.5433C21.0145 15.1979 21.7143 14.2675 21.7143 13.1762V8.61415C21.7141 7.23443 20.5935 6.10791 19.2161 6.10305ZM8.90717 8.61429C8.90717 8.15281 9.28268 7.77716 9.7443 7.77716H12.2554C12.717 7.77716 13.0924 8.15267 13.0924 8.61429V10.5396H8.90717V8.61429ZM10.9998 5.30784C12.3846 5.30784 13.5111 4.18146 13.5111 2.79674C13.5111 1.41202 12.3846 0.285645 10.9998 0.285645C9.61513 0.285645 8.48875 1.41216 8.48875 2.79674C8.48875 4.18146 9.61513 5.30784 10.9998 5.30784ZM10.9998 1.95976C11.4615 1.95976 11.837 2.33526 11.837 2.79674C11.837 3.25822 11.4615 3.63387 10.9998 3.63387C10.5382 3.63387 10.1629 3.25836 10.1629 2.79674C10.1629 2.33512 10.5384 1.95976 10.9998 1.95976Z" fill="#323232"/>
</svg>
