<svg width="19" height="19" viewBox="0 0 19 19" fill="none" xmlns="http://www.w3.org/2000/svg">
<path d="M16.6929 4.75657C17.847 4.75657 18.7856 3.81793 18.7856 2.66399C18.7856 1.51006 17.847 0.571411 16.6929 0.571411C15.539 0.571411 14.6003 1.51018 14.6003 2.66399C14.6003 3.81793 15.539 4.75657 16.6929 4.75657ZM16.6929 1.9665C17.0777 1.9665 17.3906 2.27943 17.3906 2.66399C17.3906 3.04856 17.0777 3.3616 16.6929 3.3616C16.3083 3.3616 15.9953 3.04868 15.9953 2.66399C15.9953 2.27931 16.3085 1.9665 16.6929 1.9665ZM3.02117 4.75657C4.1751 4.75657 5.11375 3.81793 5.11375 2.66399C5.11375 1.51006 4.1751 0.571411 3.02117 0.571411C1.86723 0.571411 0.928589 1.51018 0.928589 2.66399C0.928589 3.81793 1.86723 4.75657 3.02117 4.75657ZM3.02117 1.9665C3.40585 1.9665 3.71878 2.27943 3.71878 2.66399C3.71878 3.04856 3.40585 3.3616 3.02117 3.3616C2.63648 3.3616 2.32368 3.04868 2.32368 2.66399C2.32368 2.27931 2.6366 1.9665 3.02117 1.9665ZM16.7039 5.41925C16.7007 5.41925 16.697 5.41925 16.6937 5.41925C15.2499 5.41925 14.7025 6.47055 14.3574 7.49955C14.2402 7.84955 13.9855 8.61427 13.8183 9.11637H12.9962V7.51195C12.9962 6.35802 12.0574 5.41937 10.9034 5.41937H8.81087C7.65694 5.41937 6.71817 6.35802 6.71817 7.51195V9.11637H5.89587C5.72874 8.61427 5.47411 7.84955 5.35681 7.49955C5.01171 6.47055 4.46454 5.41925 3.02057 5.41925C3.01723 5.41925 3.01366 5.41925 3.0102 5.41925C1.86247 5.42318 0.928708 6.36207 0.928708 7.51183V11.3135C0.928708 12.2228 1.51187 12.9983 2.3238 13.2862V13.3015C2.3418 13.3015 2.35933 13.3028 2.37709 13.3042C2.45469 13.3293 2.53432 13.3503 2.61562 13.3663C2.85464 13.4768 3.02129 13.7185 3.02129 13.999V18.4283H4.41638V13.999C4.41638 13.7932 4.38598 13.5942 4.33031 13.4061H5.1488C5.53336 13.4061 5.84628 13.719 5.84628 14.1037V18.4283H7.24138V14.1037C7.24138 12.9496 6.30261 12.011 5.1488 12.011H3.02129C3.00329 12.011 2.98576 12.0097 2.968 12.0082C2.89028 11.9831 2.81077 11.9622 2.72947 11.9461C2.49033 11.8356 2.3238 11.5939 2.3238 11.3135V7.51183C2.3238 7.1287 2.63398 6.81566 3.01521 6.81422C3.33039 6.81315 3.655 6.81208 4.03396 7.94265C4.21516 8.48314 4.72596 10.0184 4.73109 10.0338L4.88987 10.5111H14.8247L14.9835 10.0338C14.9886 10.0183 15.4994 8.48314 15.6806 7.94265C16.0594 6.81208 16.384 6.81351 16.6995 6.81422C17.0806 6.81566 17.3909 7.12858 17.3909 7.51183V11.3135C17.3909 11.5939 17.2242 11.8356 16.9851 11.9461C16.9038 11.9622 16.8242 11.9831 16.7467 12.0082C16.7289 12.0097 16.7113 12.011 16.6933 12.011H14.6007C13.4466 12.011 12.5081 12.9498 12.5081 14.1037V18.4283H13.9031V14.1037C13.9031 13.719 14.216 13.4061 14.6007 13.4061H15.3842C15.3286 13.5941 15.2982 13.7932 15.2982 13.999V18.4283H16.6932V13.999C16.6932 13.7185 16.8598 13.4768 17.0988 13.3663C17.1802 13.3502 17.2599 13.3292 17.3375 13.3042C17.3551 13.3027 17.3728 13.3015 17.3908 13.3015V13.2862C18.2026 12.9983 18.7857 12.2229 18.7857 11.3135V7.51183C18.7856 6.36207 17.8517 5.4233 16.7039 5.41925ZM8.11314 7.51195C8.11314 7.12739 8.42607 6.81434 8.81075 6.81434H10.9033C11.288 6.81434 11.6008 7.12727 11.6008 7.51195V9.11637H8.11314V7.51195ZM9.85704 4.75657C11.011 4.75657 11.9497 3.81793 11.9497 2.66399C11.9497 1.51006 11.011 0.571411 9.85704 0.571411C8.7031 0.571411 7.76446 1.51018 7.76446 2.66399C7.76446 3.81793 8.7031 4.75657 9.85704 4.75657ZM9.85704 1.9665C10.2417 1.9665 10.5546 2.27943 10.5546 2.66399C10.5546 3.04856 10.2417 3.3616 9.85704 3.3616C9.47235 3.3616 9.15955 3.04868 9.15955 2.66399C9.15955 2.27931 9.47247 1.9665 9.85704 1.9665Z" fill="#323232"/>
</svg>
