<svg width="21" height="21" viewBox="0 0 21 21" fill="none" xmlns="http://www.w3.org/2000/svg">
<mask id="path-1-inside-1_6641_23182" fill="white">
<path d="M15.0666 19.2667H5.73323C5.54925 19.2667 5.39991 19.416 5.39991 19.6V20.2667C5.39991 20.4507 5.54925 20.6 5.73323 20.6C5.91722 20.6 6.06655 20.4507 6.06655 20.2667V19.9334H15.0666C15.2506 19.9334 15.3999 19.7841 15.3999 19.6001C15.3999 19.4161 15.2506 19.2667 15.0666 19.2667Z"/>
<path d="M8.06652 8.93332C8.06652 9.1173 8.21586 9.26664 8.39985 9.26664H9.73321C9.91719 9.26664 10.0665 9.1173 10.0665 8.93332V6.93331C10.0665 6.74933 9.91719 6.59999 9.73321 6.59999H8.39988C8.2159 6.59999 8.06656 6.74933 8.06656 6.93331L8.06652 8.93332ZM8.73321 7.26667H9.39989V8.6H8.73321V7.26667Z"/>
<path d="M5.06649 4.59999H1.06648C0.882491 4.59999 0.733154 4.74932 0.733154 4.93331V11.6C0.733154 11.784 0.882491 11.9333 1.06648 11.9333C1.25046 11.9333 1.3998 11.784 1.3998 11.6V5.26667H5.06649C5.25047 5.26667 5.39981 5.11733 5.39981 4.93335C5.39981 4.74936 5.25051 4.59999 5.06649 4.59999Z"/>
<path d="M16.7332 16.9333C16.7332 17.1173 16.8825 17.2667 17.0665 17.2667H18.3998C18.5838 17.2667 18.7331 17.1173 18.7331 16.9333V14.9333C18.7331 14.7494 18.5838 14.6 18.3998 14.6H17.0665C16.8825 14.6 16.7332 14.7494 16.7332 14.9333V16.9333ZM17.3999 15.2667H18.0665V16.6H17.3999V15.2667Z"/>
<path d="M2.39984 12.6C0.752139 12.6 0.733154 16.89 0.733154 16.9333C0.733154 17.7383 1.30683 18.4114 2.06648 18.5664V20.2667C2.06648 20.4507 2.21581 20.6 2.3998 20.6C2.58378 20.6 2.73312 20.4507 2.73312 20.2667V18.5664C3.49277 18.4114 4.06645 17.7383 4.06645 16.9333C4.06648 16.89 4.0475 12.6 2.39984 12.6ZM2.39984 17.9333C1.84851 17.9333 1.39984 17.4847 1.39984 16.9333C1.39984 15.2727 1.84585 13.2667 2.39984 13.2667C2.95382 13.2667 3.39984 15.2727 3.39984 16.9333C3.39984 17.4847 2.95117 17.9333 2.39984 17.9333Z"/>
<path d="M4.39978 10.6H3.06642C2.88244 10.6 2.7331 10.7493 2.7331 10.9333V11.6C2.7331 11.784 2.88244 11.9333 3.06642 11.9333C3.25041 11.9333 3.39974 11.784 3.39974 11.6V11.2667H4.06642V12.9334C4.06642 13.1174 4.21576 13.2667 4.39974 13.2667C4.58373 13.2667 4.73307 13.1174 4.73307 12.9334V10.9334C4.7331 10.7493 4.58377 10.6 4.39978 10.6Z"/>
<path d="M17.0665 9.26668H18.3998C18.5838 9.26668 18.7331 9.11734 18.7331 8.93336V6.93335C18.7331 6.74937 18.5838 6.60003 18.3998 6.60003H17.0665C16.8825 6.60003 16.7332 6.74937 16.7332 6.93335V8.93336C16.7332 9.11734 16.8825 9.26668 17.0665 9.26668ZM17.3999 7.26667H18.0665V8.6H17.3999V7.26667Z"/>
<path d="M4.39978 6.59999H3.06642C2.88244 6.59999 2.7331 6.74933 2.7331 6.93331V8.93332C2.7331 9.1173 2.88244 9.26664 3.06642 9.26664H4.39974C4.58373 9.26664 4.73307 9.1173 4.73307 8.93332V6.93331C4.7331 6.74933 4.58377 6.59999 4.39978 6.59999ZM4.06642 8.6H3.39978V7.26667H4.06646L4.06642 8.6Z"/>
<path d="M11.3999 8.93332C11.3999 9.1173 11.5492 9.26664 11.7332 9.26664H13.0665C13.2505 9.26664 13.3999 9.1173 13.3999 8.93332V6.93331C13.3999 6.74933 13.2505 6.59999 13.0665 6.59999H11.7332C11.5492 6.59999 11.3999 6.74933 11.3999 6.93331V8.93332ZM12.0665 7.26667H12.7332V8.6H12.0665V7.26667Z"/>
<path d="M20.3998 4.59999H16.3998C16.2158 4.59999 16.0665 4.74932 16.0665 4.93331C16.0665 5.11729 16.2158 5.26663 16.3998 5.26663H20.0665V18.6614C19.9619 18.624 19.8508 18.6 19.7332 18.6C19.6755 18.6 19.6182 18.605 19.5619 18.615C19.3319 18.2007 18.8942 17.9333 18.3999 17.9333C17.9055 17.9333 17.4679 18.2007 17.2379 18.615C17.1815 18.605 17.1242 18.6 17.0665 18.6C16.5152 18.6 16.0665 19.0487 16.0665 19.6C16.0665 20.1514 16.5152 20.6 17.0665 20.6H19.7332C20.2845 20.6 20.7332 20.1514 20.7332 19.6V4.93331C20.7332 4.74932 20.5838 4.59999 20.3998 4.59999ZM19.7332 19.9334H17.0665C16.8828 19.9334 16.7331 19.7837 16.7331 19.6C16.7331 19.4164 16.8828 19.2667 17.0665 19.2667C17.1304 19.2667 17.1911 19.285 17.2471 19.321C17.3385 19.3797 17.4525 19.3904 17.5531 19.3497C17.6538 19.3091 17.7281 19.2217 17.7525 19.116C17.8228 18.8124 18.0892 18.6 18.3998 18.6C18.7105 18.6 18.9768 18.8124 19.0472 19.116C19.0715 19.2217 19.1458 19.3091 19.2465 19.3497C19.3469 19.3904 19.4612 19.3797 19.5525 19.321C19.7695 19.181 20.0665 19.3524 20.0665 19.6C20.0665 19.7837 19.9168 19.9334 19.7332 19.9334Z"/>
<path d="M11.7332 5.26667H13.0665C13.2505 5.26667 13.3999 5.11733 13.3999 4.93335V2.93334C13.3999 2.74936 13.2505 2.60002 13.0665 2.60002H11.7332C11.5492 2.60002 11.3999 2.74936 11.3999 2.93334V4.93335C11.3999 5.11733 11.5492 5.26667 11.7332 5.26667ZM12.0665 3.26666H12.7332V4.59999H12.0665V3.26666Z"/>
<path d="M11.3999 12.9333C11.3999 13.1173 11.5492 13.2667 11.7332 13.2667H13.0665C13.2505 13.2667 13.3999 13.1173 13.3999 12.9333V10.9333C13.3999 10.7493 13.2505 10.6 13.0665 10.6H11.7332C11.5492 10.6 11.3999 10.7493 11.3999 10.9333V12.9333ZM12.0665 11.2667H12.7332V12.6H12.0665V11.2667Z"/>
<path d="M8.39989 5.26667H9.73321C9.9172 5.26667 10.0665 5.11733 10.0665 4.93335V2.93334C10.0665 2.74936 9.9172 2.60002 9.73321 2.60002H8.39989C8.2159 2.60002 8.06657 2.74936 8.06657 2.93334V4.93335C8.06653 5.11733 8.21587 5.26667 8.39989 5.26667ZM8.73321 3.26666H9.39989V4.59999H8.73321V3.26666Z"/>
<path d="M10.4966 16.6967C10.4366 16.76 10.3999 16.8467 10.3999 16.9334C10.3999 17.0201 10.4366 17.1067 10.4966 17.1701C10.5599 17.2301 10.6466 17.2667 10.7332 17.2667C10.8199 17.2667 10.9066 17.2301 10.9699 17.1701C11.0299 17.1067 11.0666 17.0201 11.0666 16.9334C11.0666 16.8467 11.0299 16.7601 10.9699 16.6967C10.8432 16.5733 10.6232 16.5733 10.4966 16.6967Z"/>
<path d="M8.06652 12.9333C8.06652 13.1173 8.21586 13.2667 8.39985 13.2667H9.73321C9.91719 13.2667 10.0665 13.1173 10.0665 12.9333V10.9333C10.0665 10.7493 9.91719 10.6 9.73321 10.6H8.39988C8.2159 10.6 8.06656 10.7493 8.06656 10.9333L8.06652 12.9333ZM8.73321 11.2667H9.39989V12.6H8.73321V11.2667Z"/>
<path d="M7.39986 14.9333C7.39986 15.1173 7.54919 15.2667 7.73318 15.2667H8.73318V18.2667C8.73318 18.4507 8.88252 18.6 9.0665 18.6C9.25049 18.6 9.39983 18.4507 9.39983 18.2667V15.2667H12.0665V18.2667C12.0665 18.4507 12.2159 18.6 12.3998 18.6C12.5838 18.6 12.7332 18.4507 12.7332 18.2667V15.2667H13.7332C13.9171 15.2667 14.0665 15.1173 14.0665 14.9333C14.0665 14.7494 13.9171 14.6 13.7332 14.6H7.73318C7.54919 14.6 7.39986 14.7494 7.39986 14.9333Z"/>
<path d="M16.7332 12.9333C16.7332 13.1173 16.8825 13.2667 17.0665 13.2667H18.3998C18.5838 13.2667 18.7331 13.1173 18.7331 12.9333V10.9333C18.7331 10.7493 18.5838 10.6 18.3998 10.6H17.0665C16.8825 10.6 16.7332 10.7493 16.7332 10.9333V12.9333ZM17.3999 11.2667H18.0665V12.6H17.3999V11.2667Z"/>
<path d="M15.0665 0.599976H6.39979C6.21581 0.599976 6.06647 0.749312 6.06647 0.933297V18.2667C6.06647 18.4507 6.21581 18.6 6.39979 18.6C6.58378 18.6 6.73311 18.4507 6.73311 18.2667V1.26662H14.7331V18.2667C14.7331 18.4507 14.8825 18.6 15.0665 18.6C15.2504 18.6 15.3998 18.4507 15.3998 18.2667V0.933297C15.3998 0.749312 15.2505 0.599976 15.0665 0.599976Z"/>
</mask>
<path d="M15.0666 19.2667H5.73323C5.54925 19.2667 5.39991 19.416 5.39991 19.6V20.2667C5.39991 20.4507 5.54925 20.6 5.73323 20.6C5.91722 20.6 6.06655 20.4507 6.06655 20.2667V19.9334H15.0666C15.2506 19.9334 15.3999 19.7841 15.3999 19.6001C15.3999 19.4161 15.2506 19.2667 15.0666 19.2667Z" fill="#283237"/>
<path d="M8.06652 8.93332C8.06652 9.1173 8.21586 9.26664 8.39985 9.26664H9.73321C9.91719 9.26664 10.0665 9.1173 10.0665 8.93332V6.93331C10.0665 6.74933 9.91719 6.59999 9.73321 6.59999H8.39988C8.2159 6.59999 8.06656 6.74933 8.06656 6.93331L8.06652 8.93332ZM8.73321 7.26667H9.39989V8.6H8.73321V7.26667Z" fill="#283237"/>
<path d="M5.06649 4.59999H1.06648C0.882491 4.59999 0.733154 4.74932 0.733154 4.93331V11.6C0.733154 11.784 0.882491 11.9333 1.06648 11.9333C1.25046 11.9333 1.3998 11.784 1.3998 11.6V5.26667H5.06649C5.25047 5.26667 5.39981 5.11733 5.39981 4.93335C5.39981 4.74936 5.25051 4.59999 5.06649 4.59999Z" fill="#283237"/>
<path d="M16.7332 16.9333C16.7332 17.1173 16.8825 17.2667 17.0665 17.2667H18.3998C18.5838 17.2667 18.7331 17.1173 18.7331 16.9333V14.9333C18.7331 14.7494 18.5838 14.6 18.3998 14.6H17.0665C16.8825 14.6 16.7332 14.7494 16.7332 14.9333V16.9333ZM17.3999 15.2667H18.0665V16.6H17.3999V15.2667Z" fill="#283237"/>
<path d="M2.39984 12.6C0.752139 12.6 0.733154 16.89 0.733154 16.9333C0.733154 17.7383 1.30683 18.4114 2.06648 18.5664V20.2667C2.06648 20.4507 2.21581 20.6 2.3998 20.6C2.58378 20.6 2.73312 20.4507 2.73312 20.2667V18.5664C3.49277 18.4114 4.06645 17.7383 4.06645 16.9333C4.06648 16.89 4.0475 12.6 2.39984 12.6ZM2.39984 17.9333C1.84851 17.9333 1.39984 17.4847 1.39984 16.9333C1.39984 15.2727 1.84585 13.2667 2.39984 13.2667C2.95382 13.2667 3.39984 15.2727 3.39984 16.9333C3.39984 17.4847 2.95117 17.9333 2.39984 17.9333Z" fill="#283237"/>
<path d="M4.39978 10.6H3.06642C2.88244 10.6 2.7331 10.7493 2.7331 10.9333V11.6C2.7331 11.784 2.88244 11.9333 3.06642 11.9333C3.25041 11.9333 3.39974 11.784 3.39974 11.6V11.2667H4.06642V12.9334C4.06642 13.1174 4.21576 13.2667 4.39974 13.2667C4.58373 13.2667 4.73307 13.1174 4.73307 12.9334V10.9334C4.7331 10.7493 4.58377 10.6 4.39978 10.6Z" fill="#283237"/>
<path d="M17.0665 9.26668H18.3998C18.5838 9.26668 18.7331 9.11734 18.7331 8.93336V6.93335C18.7331 6.74937 18.5838 6.60003 18.3998 6.60003H17.0665C16.8825 6.60003 16.7332 6.74937 16.7332 6.93335V8.93336C16.7332 9.11734 16.8825 9.26668 17.0665 9.26668ZM17.3999 7.26667H18.0665V8.6H17.3999V7.26667Z" fill="#283237"/>
<path d="M4.39978 6.59999H3.06642C2.88244 6.59999 2.7331 6.74933 2.7331 6.93331V8.93332C2.7331 9.1173 2.88244 9.26664 3.06642 9.26664H4.39974C4.58373 9.26664 4.73307 9.1173 4.73307 8.93332V6.93331C4.7331 6.74933 4.58377 6.59999 4.39978 6.59999ZM4.06642 8.6H3.39978V7.26667H4.06646L4.06642 8.6Z" fill="#283237"/>
<path d="M11.3999 8.93332C11.3999 9.1173 11.5492 9.26664 11.7332 9.26664H13.0665C13.2505 9.26664 13.3999 9.1173 13.3999 8.93332V6.93331C13.3999 6.74933 13.2505 6.59999 13.0665 6.59999H11.7332C11.5492 6.59999 11.3999 6.74933 11.3999 6.93331V8.93332ZM12.0665 7.26667H12.7332V8.6H12.0665V7.26667Z" fill="#283237"/>
<path d="M20.3998 4.59999H16.3998C16.2158 4.59999 16.0665 4.74932 16.0665 4.93331C16.0665 5.11729 16.2158 5.26663 16.3998 5.26663H20.0665V18.6614C19.9619 18.624 19.8508 18.6 19.7332 18.6C19.6755 18.6 19.6182 18.605 19.5619 18.615C19.3319 18.2007 18.8942 17.9333 18.3999 17.9333C17.9055 17.9333 17.4679 18.2007 17.2379 18.615C17.1815 18.605 17.1242 18.6 17.0665 18.6C16.5152 18.6 16.0665 19.0487 16.0665 19.6C16.0665 20.1514 16.5152 20.6 17.0665 20.6H19.7332C20.2845 20.6 20.7332 20.1514 20.7332 19.6V4.93331C20.7332 4.74932 20.5838 4.59999 20.3998 4.59999ZM19.7332 19.9334H17.0665C16.8828 19.9334 16.7331 19.7837 16.7331 19.6C16.7331 19.4164 16.8828 19.2667 17.0665 19.2667C17.1304 19.2667 17.1911 19.285 17.2471 19.321C17.3385 19.3797 17.4525 19.3904 17.5531 19.3497C17.6538 19.3091 17.7281 19.2217 17.7525 19.116C17.8228 18.8124 18.0892 18.6 18.3998 18.6C18.7105 18.6 18.9768 18.8124 19.0472 19.116C19.0715 19.2217 19.1458 19.3091 19.2465 19.3497C19.3469 19.3904 19.4612 19.3797 19.5525 19.321C19.7695 19.181 20.0665 19.3524 20.0665 19.6C20.0665 19.7837 19.9168 19.9334 19.7332 19.9334Z" fill="#283237"/>
<path d="M11.7332 5.26667H13.0665C13.2505 5.26667 13.3999 5.11733 13.3999 4.93335V2.93334C13.3999 2.74936 13.2505 2.60002 13.0665 2.60002H11.7332C11.5492 2.60002 11.3999 2.74936 11.3999 2.93334V4.93335C11.3999 5.11733 11.5492 5.26667 11.7332 5.26667ZM12.0665 3.26666H12.7332V4.59999H12.0665V3.26666Z" fill="#283237"/>
<path d="M11.3999 12.9333C11.3999 13.1173 11.5492 13.2667 11.7332 13.2667H13.0665C13.2505 13.2667 13.3999 13.1173 13.3999 12.9333V10.9333C13.3999 10.7493 13.2505 10.6 13.0665 10.6H11.7332C11.5492 10.6 11.3999 10.7493 11.3999 10.9333V12.9333ZM12.0665 11.2667H12.7332V12.6H12.0665V11.2667Z" fill="#283237"/>
<path d="M8.39989 5.26667H9.73321C9.9172 5.26667 10.0665 5.11733 10.0665 4.93335V2.93334C10.0665 2.74936 9.9172 2.60002 9.73321 2.60002H8.39989C8.2159 2.60002 8.06657 2.74936 8.06657 2.93334V4.93335C8.06653 5.11733 8.21587 5.26667 8.39989 5.26667ZM8.73321 3.26666H9.39989V4.59999H8.73321V3.26666Z" fill="#283237"/>
<path d="M10.4966 16.6967C10.4366 16.76 10.3999 16.8467 10.3999 16.9334C10.3999 17.0201 10.4366 17.1067 10.4966 17.1701C10.5599 17.2301 10.6466 17.2667 10.7332 17.2667C10.8199 17.2667 10.9066 17.2301 10.9699 17.1701C11.0299 17.1067 11.0666 17.0201 11.0666 16.9334C11.0666 16.8467 11.0299 16.7601 10.9699 16.6967C10.8432 16.5733 10.6232 16.5733 10.4966 16.6967Z" fill="#283237"/>
<path d="M8.06652 12.9333C8.06652 13.1173 8.21586 13.2667 8.39985 13.2667H9.73321C9.91719 13.2667 10.0665 13.1173 10.0665 12.9333V10.9333C10.0665 10.7493 9.91719 10.6 9.73321 10.6H8.39988C8.2159 10.6 8.06656 10.7493 8.06656 10.9333L8.06652 12.9333ZM8.73321 11.2667H9.39989V12.6H8.73321V11.2667Z" fill="#283237"/>
<path d="M7.39986 14.9333C7.39986 15.1173 7.54919 15.2667 7.73318 15.2667H8.73318V18.2667C8.73318 18.4507 8.88252 18.6 9.0665 18.6C9.25049 18.6 9.39983 18.4507 9.39983 18.2667V15.2667H12.0665V18.2667C12.0665 18.4507 12.2159 18.6 12.3998 18.6C12.5838 18.6 12.7332 18.4507 12.7332 18.2667V15.2667H13.7332C13.9171 15.2667 14.0665 15.1173 14.0665 14.9333C14.0665 14.7494 13.9171 14.6 13.7332 14.6H7.73318C7.54919 14.6 7.39986 14.7494 7.39986 14.9333Z" fill="#283237"/>
<path d="M16.7332 12.9333C16.7332 13.1173 16.8825 13.2667 17.0665 13.2667H18.3998C18.5838 13.2667 18.7331 13.1173 18.7331 12.9333V10.9333C18.7331 10.7493 18.5838 10.6 18.3998 10.6H17.0665C16.8825 10.6 16.7332 10.7493 16.7332 10.9333V12.9333ZM17.3999 11.2667H18.0665V12.6H17.3999V11.2667Z" fill="#283237"/>
<path d="M15.0665 0.599976H6.39979C6.21581 0.599976 6.06647 0.749312 6.06647 0.933297V18.2667C6.06647 18.4507 6.21581 18.6 6.39979 18.6C6.58378 18.6 6.73311 18.4507 6.73311 18.2667V1.26662H14.7331V18.2667C14.7331 18.4507 14.8825 18.6 15.0665 18.6C15.2504 18.6 15.3998 18.4507 15.3998 18.2667V0.933297C15.3998 0.749312 15.2505 0.599976 15.0665 0.599976Z" fill="#283237"/>
<path d="M15.0666 19.2667H5.73323C5.54925 19.2667 5.39991 19.416 5.39991 19.6V20.2667C5.39991 20.4507 5.54925 20.6 5.73323 20.6C5.91722 20.6 6.06655 20.4507 6.06655 20.2667V19.9334H15.0666C15.2506 19.9334 15.3999 19.7841 15.3999 19.6001C15.3999 19.4161 15.2506 19.2667 15.0666 19.2667Z" stroke="#283237" stroke-width="2" mask="url(#path-1-inside-1_6641_23182)"/>
<path d="M8.06652 8.93332C8.06652 9.1173 8.21586 9.26664 8.39985 9.26664H9.73321C9.91719 9.26664 10.0665 9.1173 10.0665 8.93332V6.93331C10.0665 6.74933 9.91719 6.59999 9.73321 6.59999H8.39988C8.2159 6.59999 8.06656 6.74933 8.06656 6.93331L8.06652 8.93332ZM8.73321 7.26667H9.39989V8.6H8.73321V7.26667Z" stroke="#283237" stroke-width="2" mask="url(#path-1-inside-1_6641_23182)"/>
<path d="M5.06649 4.59999H1.06648C0.882491 4.59999 0.733154 4.74932 0.733154 4.93331V11.6C0.733154 11.784 0.882491 11.9333 1.06648 11.9333C1.25046 11.9333 1.3998 11.784 1.3998 11.6V5.26667H5.06649C5.25047 5.26667 5.39981 5.11733 5.39981 4.93335C5.39981 4.74936 5.25051 4.59999 5.06649 4.59999Z" stroke="#283237" stroke-width="2" mask="url(#path-1-inside-1_6641_23182)"/>
<path d="M16.7332 16.9333C16.7332 17.1173 16.8825 17.2667 17.0665 17.2667H18.3998C18.5838 17.2667 18.7331 17.1173 18.7331 16.9333V14.9333C18.7331 14.7494 18.5838 14.6 18.3998 14.6H17.0665C16.8825 14.6 16.7332 14.7494 16.7332 14.9333V16.9333ZM17.3999 15.2667H18.0665V16.6H17.3999V15.2667Z" stroke="#283237" stroke-width="2" mask="url(#path-1-inside-1_6641_23182)"/>
<path d="M2.39984 12.6C0.752139 12.6 0.733154 16.89 0.733154 16.9333C0.733154 17.7383 1.30683 18.4114 2.06648 18.5664V20.2667C2.06648 20.4507 2.21581 20.6 2.3998 20.6C2.58378 20.6 2.73312 20.4507 2.73312 20.2667V18.5664C3.49277 18.4114 4.06645 17.7383 4.06645 16.9333C4.06648 16.89 4.0475 12.6 2.39984 12.6ZM2.39984 17.9333C1.84851 17.9333 1.39984 17.4847 1.39984 16.9333C1.39984 15.2727 1.84585 13.2667 2.39984 13.2667C2.95382 13.2667 3.39984 15.2727 3.39984 16.9333C3.39984 17.4847 2.95117 17.9333 2.39984 17.9333Z" stroke="#283237" stroke-width="2" mask="url(#path-1-inside-1_6641_23182)"/>
<path d="M4.39978 10.6H3.06642C2.88244 10.6 2.7331 10.7493 2.7331 10.9333V11.6C2.7331 11.784 2.88244 11.9333 3.06642 11.9333C3.25041 11.9333 3.39974 11.784 3.39974 11.6V11.2667H4.06642V12.9334C4.06642 13.1174 4.21576 13.2667 4.39974 13.2667C4.58373 13.2667 4.73307 13.1174 4.73307 12.9334V10.9334C4.7331 10.7493 4.58377 10.6 4.39978 10.6Z" stroke="#283237" stroke-width="2" mask="url(#path-1-inside-1_6641_23182)"/>
<path d="M17.0665 9.26668H18.3998C18.5838 9.26668 18.7331 9.11734 18.7331 8.93336V6.93335C18.7331 6.74937 18.5838 6.60003 18.3998 6.60003H17.0665C16.8825 6.60003 16.7332 6.74937 16.7332 6.93335V8.93336C16.7332 9.11734 16.8825 9.26668 17.0665 9.26668ZM17.3999 7.26667H18.0665V8.6H17.3999V7.26667Z" stroke="#283237" stroke-width="2" mask="url(#path-1-inside-1_6641_23182)"/>
<path d="M4.39978 6.59999H3.06642C2.88244 6.59999 2.7331 6.74933 2.7331 6.93331V8.93332C2.7331 9.1173 2.88244 9.26664 3.06642 9.26664H4.39974C4.58373 9.26664 4.73307 9.1173 4.73307 8.93332V6.93331C4.7331 6.74933 4.58377 6.59999 4.39978 6.59999ZM4.06642 8.6H3.39978V7.26667H4.06646L4.06642 8.6Z" stroke="#283237" stroke-width="2" mask="url(#path-1-inside-1_6641_23182)"/>
<path d="M11.3999 8.93332C11.3999 9.1173 11.5492 9.26664 11.7332 9.26664H13.0665C13.2505 9.26664 13.3999 9.1173 13.3999 8.93332V6.93331C13.3999 6.74933 13.2505 6.59999 13.0665 6.59999H11.7332C11.5492 6.59999 11.3999 6.74933 11.3999 6.93331V8.93332ZM12.0665 7.26667H12.7332V8.6H12.0665V7.26667Z" stroke="#283237" stroke-width="2" mask="url(#path-1-inside-1_6641_23182)"/>
<path d="M20.3998 4.59999H16.3998C16.2158 4.59999 16.0665 4.74932 16.0665 4.93331C16.0665 5.11729 16.2158 5.26663 16.3998 5.26663H20.0665V18.6614C19.9619 18.624 19.8508 18.6 19.7332 18.6C19.6755 18.6 19.6182 18.605 19.5619 18.615C19.3319 18.2007 18.8942 17.9333 18.3999 17.9333C17.9055 17.9333 17.4679 18.2007 17.2379 18.615C17.1815 18.605 17.1242 18.6 17.0665 18.6C16.5152 18.6 16.0665 19.0487 16.0665 19.6C16.0665 20.1514 16.5152 20.6 17.0665 20.6H19.7332C20.2845 20.6 20.7332 20.1514 20.7332 19.6V4.93331C20.7332 4.74932 20.5838 4.59999 20.3998 4.59999ZM19.7332 19.9334H17.0665C16.8828 19.9334 16.7331 19.7837 16.7331 19.6C16.7331 19.4164 16.8828 19.2667 17.0665 19.2667C17.1304 19.2667 17.1911 19.285 17.2471 19.321C17.3385 19.3797 17.4525 19.3904 17.5531 19.3497C17.6538 19.3091 17.7281 19.2217 17.7525 19.116C17.8228 18.8124 18.0892 18.6 18.3998 18.6C18.7105 18.6 18.9768 18.8124 19.0472 19.116C19.0715 19.2217 19.1458 19.3091 19.2465 19.3497C19.3469 19.3904 19.4612 19.3797 19.5525 19.321C19.7695 19.181 20.0665 19.3524 20.0665 19.6C20.0665 19.7837 19.9168 19.9334 19.7332 19.9334Z" stroke="#283237" stroke-width="2" mask="url(#path-1-inside-1_6641_23182)"/>
<path d="M11.7332 5.26667H13.0665C13.2505 5.26667 13.3999 5.11733 13.3999 4.93335V2.93334C13.3999 2.74936 13.2505 2.60002 13.0665 2.60002H11.7332C11.5492 2.60002 11.3999 2.74936 11.3999 2.93334V4.93335C11.3999 5.11733 11.5492 5.26667 11.7332 5.26667ZM12.0665 3.26666H12.7332V4.59999H12.0665V3.26666Z" stroke="#283237" stroke-width="2" mask="url(#path-1-inside-1_6641_23182)"/>
<path d="M11.3999 12.9333C11.3999 13.1173 11.5492 13.2667 11.7332 13.2667H13.0665C13.2505 13.2667 13.3999 13.1173 13.3999 12.9333V10.9333C13.3999 10.7493 13.2505 10.6 13.0665 10.6H11.7332C11.5492 10.6 11.3999 10.7493 11.3999 10.9333V12.9333ZM12.0665 11.2667H12.7332V12.6H12.0665V11.2667Z" stroke="#283237" stroke-width="2" mask="url(#path-1-inside-1_6641_23182)"/>
<path d="M8.39989 5.26667H9.73321C9.9172 5.26667 10.0665 5.11733 10.0665 4.93335V2.93334C10.0665 2.74936 9.9172 2.60002 9.73321 2.60002H8.39989C8.2159 2.60002 8.06657 2.74936 8.06657 2.93334V4.93335C8.06653 5.11733 8.21587 5.26667 8.39989 5.26667ZM8.73321 3.26666H9.39989V4.59999H8.73321V3.26666Z" stroke="#283237" stroke-width="2" mask="url(#path-1-inside-1_6641_23182)"/>
<path d="M10.4966 16.6967C10.4366 16.76 10.3999 16.8467 10.3999 16.9334C10.3999 17.0201 10.4366 17.1067 10.4966 17.1701C10.5599 17.2301 10.6466 17.2667 10.7332 17.2667C10.8199 17.2667 10.9066 17.2301 10.9699 17.1701C11.0299 17.1067 11.0666 17.0201 11.0666 16.9334C11.0666 16.8467 11.0299 16.7601 10.9699 16.6967C10.8432 16.5733 10.6232 16.5733 10.4966 16.6967Z" stroke="#283237" stroke-width="2" mask="url(#path-1-inside-1_6641_23182)"/>
<path d="M8.06652 12.9333C8.06652 13.1173 8.21586 13.2667 8.39985 13.2667H9.73321C9.91719 13.2667 10.0665 13.1173 10.0665 12.9333V10.9333C10.0665 10.7493 9.91719 10.6 9.73321 10.6H8.39988C8.2159 10.6 8.06656 10.7493 8.06656 10.9333L8.06652 12.9333ZM8.73321 11.2667H9.39989V12.6H8.73321V11.2667Z" stroke="#283237" stroke-width="2" mask="url(#path-1-inside-1_6641_23182)"/>
<path d="M7.39986 14.9333C7.39986 15.1173 7.54919 15.2667 7.73318 15.2667H8.73318V18.2667C8.73318 18.4507 8.88252 18.6 9.0665 18.6C9.25049 18.6 9.39983 18.4507 9.39983 18.2667V15.2667H12.0665V18.2667C12.0665 18.4507 12.2159 18.6 12.3998 18.6C12.5838 18.6 12.7332 18.4507 12.7332 18.2667V15.2667H13.7332C13.9171 15.2667 14.0665 15.1173 14.0665 14.9333C14.0665 14.7494 13.9171 14.6 13.7332 14.6H7.73318C7.54919 14.6 7.39986 14.7494 7.39986 14.9333Z" stroke="#283237" stroke-width="2" mask="url(#path-1-inside-1_6641_23182)"/>
<path d="M16.7332 12.9333C16.7332 13.1173 16.8825 13.2667 17.0665 13.2667H18.3998C18.5838 13.2667 18.7331 13.1173 18.7331 12.9333V10.9333C18.7331 10.7493 18.5838 10.6 18.3998 10.6H17.0665C16.8825 10.6 16.7332 10.7493 16.7332 10.9333V12.9333ZM17.3999 11.2667H18.0665V12.6H17.3999V11.2667Z" stroke="#283237" stroke-width="2" mask="url(#path-1-inside-1_6641_23182)"/>
<path d="M15.0665 0.599976H6.39979C6.21581 0.599976 6.06647 0.749312 6.06647 0.933297V18.2667C6.06647 18.4507 6.21581 18.6 6.39979 18.6C6.58378 18.6 6.73311 18.4507 6.73311 18.2667V1.26662H14.7331V18.2667C14.7331 18.4507 14.8825 18.6 15.0665 18.6C15.2504 18.6 15.3998 18.4507 15.3998 18.2667V0.933297C15.3998 0.749312 15.2505 0.599976 15.0665 0.599976Z" stroke="#283237" stroke-width="2" mask="url(#path-1-inside-1_6641_23182)"/>
</svg>
