<svg width="24" height="23" viewBox="0 0 24 23" fill="none" xmlns="http://www.w3.org/2000/svg">
<path d="M22.6111 14.5081L22.6111 15.7761L14.4489 13.3754C13.8084 13.1871 13.1667 13.6672 13.1667 14.3348V19.4946C13.1667 19.8458 13.351 20.1714 13.6522 20.3521L15.9445 21.7274V22.4706L12.2426 21.5451C12.0833 21.5053 11.9167 21.5053 11.7575 21.5451L8.05558 22.4706V21.7274L10.3479 20.3521C10.6491 20.1714 10.8334 19.8458 10.8334 19.4946V14.3348C10.8334 13.6672 10.1917 13.1871 9.5512 13.3754L1.38892 15.7761L1.38892 14.5081L10.3404 9.24253C10.6458 9.06286 10.8334 8.73496 10.8334 8.3806V2.55546C10.8334 1.90938 11.3539 1.38879 12 1.38879C12.6461 1.38879 13.1667 1.90938 13.1667 2.55546V8.3806C13.1667 8.73496 13.3542 9.06286 13.6597 9.24253L22.6111 14.5081Z" stroke="black"/>
</svg>
