<svg width="23" height="20" viewBox="0 0 23 20" fill="none" xmlns="http://www.w3.org/2000/svg">
<path d="M1.37547 11.7691H3.17648V18.7956C3.17648 19.2098 3.52392 19.5485 3.94836 19.5485H9.22285C9.64729 19.5485 9.99473 19.2098 9.99473 18.7956V13.6511H13.2108V18.7956C13.2108 19.2098 13.5582 19.5485 13.9827 19.5485H18.9997C19.4242 19.5485 19.7716 19.2098 19.7716 18.7956V11.7691H21.9586C22.2673 11.7691 22.5504 11.5807 22.6663 11.3048C22.782 11.0287 22.7176 10.7025 22.4991 10.4892L12.4391 0.538874C12.1432 0.250242 11.6544 0.237725 11.3585 0.526358L0.848176 10.4766C0.616611 10.69 0.552256 11.0164 0.668132 11.3048C0.783635 11.5933 1.06672 11.7691 1.37547 11.7691ZM11.8727 2.13243L20.1061 10.2633H18.9997C18.5753 10.2633 18.228 10.6022 18.228 11.0162V18.0428H14.7546V12.8982C14.7546 12.4842 14.4073 12.1453 13.9827 12.1453H9.22285C8.7984 12.1453 8.45096 12.4842 8.45096 12.8982V18.0428H4.72025V11.0162C4.72025 10.602 4.37281 10.2633 3.94836 10.2633H3.27933L11.8727 2.13243Z" fill="#323232"/>
</svg>
