<svg width="30" height="30" viewBox="0 0 30 30" fill="none" xmlns="http://www.w3.org/2000/svg">
<path d="M30 27.627L21.1432 18.7702C22.6135 16.8083 23.4956 14.3821 23.4956 11.7478C23.4956 5.26969 18.2258 0 11.7478 0C5.26969 0 0 5.26969 0 11.7478C0 18.2258 5.26969 23.4956 11.7478 23.4956C14.3821 23.4956 16.8083 22.6135 18.7702 21.1432L27.627 30L30 27.627ZM1.11889 11.7478C1.11889 5.88671 5.88684 1.11889 11.7478 1.11889C17.6087 1.11889 22.3767 5.88684 22.3767 11.7478C22.3767 17.6087 17.6089 22.3767 11.7478 22.3767C5.8867 22.3767 1.11889 17.6087 1.11889 11.7478ZM19.8969 20.191C19.9966 20.0948 20.0944 19.9969 20.1907 19.8972C20.2724 19.8128 20.3607 19.735 20.4397 19.6483L28.4182 27.6268L27.6266 28.4183L19.6488 20.4393C19.7352 20.3605 19.8124 20.2721 19.8969 20.191Z" fill="#323232"/>
</svg>
