<svg width="22" height="22" viewBox="0 0 22 22" fill="none" xmlns="http://www.w3.org/2000/svg">
<path d="M12.3294 -1.90735e-06H9.67019C9.13906 -1.90735e-06 8.6992 0.398048 8.64686 0.925545L8.37424 2.55923C7.86202 2.71847 7.36436 2.92532 6.88888 3.1754L5.52056 2.19824C5.35696 2.06264 5.12578 1.97978 4.88875 1.97978C4.61389 1.97978 4.35582 2.08698 4.16131 2.28149L2.28113 4.1617C1.90562 4.53721 1.87654 5.12977 2.2128 5.54055L3.17541 6.88888C2.92456 7.36507 2.71808 7.86313 2.55923 8.37391L0.901533 8.65053C0.398409 8.69884 0 9.13873 0 9.67058V12.3294C0 12.8605 0.398049 13.3004 0.925546 13.3531L2.55923 13.6265C2.7188 14.1395 2.92564 14.6371 3.17505 15.1112L2.19824 16.4795C1.87615 16.8703 1.90523 17.4628 2.28113 17.838L4.16167 19.7189C4.52413 20.0806 5.14466 20.1107 5.53943 19.7879L6.8896 18.8249C7.36328 19.0746 7.86094 19.2811 8.37424 19.4407L8.65013 21.0981C8.69924 21.602 9.13945 22 9.67058 22H12.3298C12.8602 22 13.3 21.6023 13.3535 21.0752L13.6265 19.4407C14.1391 19.2812 14.6368 19.0746 15.1108 18.8249L16.4795 19.8021C16.6427 19.9373 16.8739 20.0199 17.1109 20.0199C17.3858 20.0199 17.6438 19.913 17.838 19.7189L19.7181 17.838C20.0933 17.4639 20.1235 16.8717 19.7879 16.4606L18.825 15.1111C19.075 14.6371 19.2812 14.1394 19.4408 13.6265L21.0985 13.3498C21.6023 13.3004 22 12.8605 22 12.3294V9.67058C22 9.13873 21.602 8.69924 21.0737 8.64801L19.4407 8.37499C19.2812 7.86169 19.0746 7.36364 18.8249 6.88963L19.8021 5.52164C20.1238 5.12941 20.0936 4.53649 19.7178 4.16206L17.8379 2.28225C17.477 1.9209 16.8549 1.88894 16.4591 2.21355L15.1108 3.17584C14.6352 2.92535 14.1376 2.71851 13.6265 2.55962L13.3495 0.901567C13.3 0.398048 12.8602 -1.90735e-06 12.3294 -1.90735e-06ZM6.86267 3.96715C6.92375 3.96715 6.98518 3.95191 7.04043 3.92064C7.59446 3.61016 8.18407 3.36553 8.79446 3.19287C8.9297 3.1547 9.03075 3.04164 9.05401 2.90278L9.367 1.02113C9.38519 0.845921 9.51716 0.727041 9.67019 0.727041H12.3294C12.4824 0.727041 12.6141 0.845562 12.629 0.997152L12.9463 2.90278C12.9692 3.04128 13.0706 3.15434 13.2059 3.19252C13.8148 3.36485 14.4044 3.60951 14.9588 3.92031C15.0813 3.98937 15.2333 3.98099 15.3478 3.89885L16.9004 2.78972C17.0571 2.66358 17.2167 2.68979 17.3228 2.79555L19.2033 4.67608C19.3138 4.78618 19.3225 4.95963 19.2244 5.07991L18.1004 6.65148C18.0182 6.76601 18.0102 6.91756 18.0789 7.04079C18.3894 7.59266 18.6337 8.18227 18.806 8.79375C18.8442 8.92934 18.9572 9.03039 19.0964 9.05365L20.9784 9.3674C21.1537 9.38559 21.2726 9.5168 21.2726 9.66986V12.3287C21.2726 12.4817 21.154 12.6137 21.0025 12.6286L19.0968 12.9456C18.9576 12.9689 18.8449 13.0699 18.8064 13.2055C18.634 13.817 18.3894 14.4066 18.0793 14.9577C18.0106 15.081 18.0186 15.2326 18.1008 15.347L19.2106 16.9004C19.3229 17.0393 19.3138 17.2123 19.2041 17.3221L17.3236 19.2034C17.2178 19.3092 17.0357 19.3182 16.9208 19.2241L15.3482 18.0997C15.2336 18.0175 15.0817 18.0096 14.9592 18.0782C14.407 18.3883 13.8173 18.633 13.2063 18.806C13.071 18.8439 12.97 18.9573 12.9467 19.0961L12.6333 20.9778C12.6141 21.1566 12.485 21.2729 12.3294 21.2729H9.67019C9.51425 21.2729 9.38555 21.157 9.37027 21.0028L9.05401 19.0976C9.03111 18.9587 8.9297 18.8457 8.79446 18.8075C8.18227 18.6341 7.59262 18.3898 7.04191 18.0797C6.91832 18.011 6.76673 18.019 6.65256 18.1011L5.09846 19.211C4.94213 19.3361 4.78184 19.311 4.67604 19.2045L2.79555 17.3239C2.68576 17.2141 2.67739 17.0411 2.77556 16.9215L3.89921 15.3485C3.98139 15.2336 3.98937 15.082 3.92067 14.9591C3.61095 14.408 3.36629 13.8184 3.19288 13.2066C3.15506 13.0713 3.04164 12.9703 2.90278 12.947L1.02117 12.6333C0.84301 12.6144 0.727078 12.4853 0.727078 12.3293V9.67051C0.727078 9.51493 0.842686 9.38623 0.996435 9.37135L2.90242 9.05437C3.04128 9.03143 3.15434 8.93002 3.19252 8.79446C3.36445 8.18626 3.60911 7.59625 3.92031 7.04079C3.98905 6.91792 3.98103 6.76669 3.89885 6.65216L2.78972 5.09954C2.67631 4.95996 2.68501 4.78694 2.79515 4.67676L4.67568 2.79659C4.78256 2.69007 4.96398 2.68062 5.07848 2.77588L6.65112 3.89953C6.71435 3.94429 6.78851 3.96715 6.86267 3.96715ZM11.0004 6.64856C8.60035 6.64856 6.64785 8.60071 6.64785 11.0004C6.64785 13.4004 8.60035 15.3529 11.0004 15.3529C13.4004 15.3529 15.3525 13.4004 15.3525 11.0004C15.3522 8.6011 13.4 6.64856 11.0004 6.64856ZM11.0004 14.6258C9.00134 14.6258 7.37489 12.9994 7.37489 11.0004C7.37489 9.00167 9.00131 7.37564 11.0004 7.37564C12.9991 7.37564 14.6255 9.00167 14.6255 11.0004C14.6251 12.9994 12.999 14.6258 11.0004 14.6258Z" fill="#323232"/>
</svg>
