<svg width="36" height="35" viewBox="0 0 36 35" fill="none" xmlns="http://www.w3.org/2000/svg">
<path d="M20.115 -1.93715e-07H15.8844C15.0394 -1.93715e-07 14.3396 0.63326 14.2564 1.47246L13.8226 4.07149C13.0078 4.32484 12.216 4.65391 11.4596 5.05178L9.28271 3.4972C9.02244 3.28148 8.65466 3.14966 8.27755 3.14966C7.84028 3.14966 7.42971 3.32019 7.12026 3.62965L4.12908 6.62089C3.53167 7.21829 3.48541 8.161 4.02036 8.81451L5.55178 10.9596C5.15271 11.7172 4.82422 12.5095 4.5715 13.3221L1.93426 13.7622C1.13383 13.8391 0.5 14.5389 0.5 15.385V19.615C0.5 20.46 1.13326 21.1597 1.97246 21.2436L4.5715 21.6786C4.82536 22.4946 5.15443 23.2863 5.55121 24.0405L3.9972 26.2173C3.48478 26.8391 3.53105 27.7817 4.12908 28.3786L7.12083 31.3709C7.69748 31.9464 8.68468 31.9943 9.31274 31.4808L11.4607 29.9487C12.2143 30.346 13.006 30.6745 13.8226 30.9284L14.2616 33.5651C14.3397 34.3667 15.04 35 15.885 35H20.1156C20.9594 35 21.6592 34.3673 21.7442 33.5287L22.1786 30.9284C22.994 30.6746 23.7858 30.346 24.5399 29.9487L26.7173 31.5033C26.977 31.7185 27.3449 31.8498 27.7219 31.8498C28.1591 31.8498 28.5697 31.6797 28.8786 31.3709L31.8698 28.3786C32.4667 27.7835 32.5146 26.8414 31.9808 26.1873L30.4488 24.0404C30.8467 23.2863 31.1746 22.4945 31.4285 21.6785L34.0657 21.2384C34.8673 21.1597 35.5 20.46 35.5 19.615V15.385C35.5 14.5389 34.8667 13.8397 34.0263 13.7582L31.4284 13.3238C31.1746 12.5072 30.846 11.7149 30.4487 10.9608L32.0033 8.78443C32.5152 8.16043 32.4671 7.21715 31.8692 6.62146L28.8785 3.63085C28.3042 3.05598 27.3147 3.00514 26.6849 3.52156L24.5399 5.05247C23.7834 4.65397 22.9917 4.3249 22.1785 4.07212L21.7378 1.43431C21.6592 0.633261 20.9594 -1.93715e-07 20.115 -1.93715e-07ZM11.4179 6.31138C11.515 6.31138 11.6128 6.28713 11.7007 6.23738C12.5821 5.74343 13.5201 5.35426 14.4912 5.07958C14.7063 5.01884 14.8671 4.83898 14.9041 4.61806L15.4021 1.62453C15.431 1.34578 15.6409 1.15666 15.8844 1.15666H20.115C20.3584 1.15666 20.5678 1.34521 20.5915 1.58638L21.0964 4.61806C21.1328 4.83841 21.2942 5.01827 21.5094 5.079C22.4781 5.35317 23.4161 5.7424 24.2981 6.23686C24.493 6.34672 24.7348 6.3334 24.917 6.20272L27.387 4.43819C27.6363 4.23752 27.8902 4.27921 28.059 4.44746L31.0508 7.43921C31.2266 7.61439 31.2404 7.89033 31.0843 8.08168L29.2961 10.5819C29.1653 10.7641 29.1526 11.0052 29.2619 11.2013C29.7558 12.0792 30.1445 13.0173 30.4187 13.99C30.4794 14.2058 30.6592 14.3665 30.8807 14.4035L33.8748 14.9027C34.1536 14.9316 34.3427 15.1404 34.3427 15.3839V19.6138C34.3427 19.8573 34.1542 20.0672 33.913 20.091L30.8813 20.5953C30.6598 20.6323 30.4805 20.793 30.4192 21.0087C30.1451 21.9815 29.7558 22.9196 29.2625 23.7963C29.1532 23.9924 29.166 24.2336 29.2967 24.4158L31.0623 26.887C31.241 27.1079 31.2266 27.3832 31.0519 27.5579L28.0602 30.5508C27.892 30.7191 27.6022 30.7335 27.4194 30.5838L24.9175 28.795C24.7353 28.6643 24.4936 28.6516 24.2987 28.7608C23.4203 29.2542 22.4821 29.6434 21.51 29.9187C21.2948 29.9789 21.134 30.1593 21.097 30.3802L20.5985 33.3737C20.5678 33.6583 20.3625 33.8433 20.115 33.8433H15.8844C15.6363 33.8433 15.4316 33.6588 15.4073 33.4136L14.9041 30.3825C14.8677 30.1616 14.7063 29.9817 14.4912 29.921C13.5173 29.6451 12.5792 29.2565 11.703 28.7631C11.5064 28.6538 11.2652 28.6665 11.0836 28.7973L8.61119 30.5629C8.36248 30.7619 8.10747 30.722 7.93916 30.5525L4.94746 27.5608C4.7728 27.3861 4.75948 27.1108 4.91566 26.9205L6.70329 24.418C6.83403 24.2353 6.84672 23.9942 6.73743 23.7986C6.24469 22.9219 5.85546 21.9838 5.57958 21.0105C5.51941 20.7953 5.33898 20.6345 5.11806 20.5975L2.12458 20.0984C1.84115 20.0683 1.65672 19.863 1.65672 19.6149V15.3849C1.65672 15.1374 1.84064 14.9326 2.08524 14.909L5.11748 14.4047C5.33841 14.3682 5.51827 14.2069 5.579 13.9912C5.85254 13.0236 6.24177 12.085 6.73686 11.2013C6.84621 11.0058 6.83346 10.7652 6.70272 10.583L4.93819 8.11291C4.75776 7.89084 4.7716 7.61559 4.94683 7.4403L7.93859 4.44912C8.10861 4.27967 8.39725 4.26462 8.5794 4.41617L11.0813 6.20381C11.1819 6.27501 11.2999 6.31138 11.4179 6.31138ZM18.0006 10.5773C14.1824 10.5773 11.0761 13.6829 11.0761 17.5006C11.0761 21.3188 14.1824 24.425 18.0006 24.425C21.8188 24.425 24.9245 21.3188 24.9245 17.5006C24.9239 13.6836 21.8182 10.5773 18.0006 10.5773ZM18.0006 23.2684C14.8203 23.2684 12.2328 20.6808 12.2328 17.5006C12.2328 14.3208 14.8203 11.734 18.0006 11.734C21.1803 11.734 23.7678 14.3208 23.7678 17.5006C23.7672 20.6809 21.1803 23.2684 18.0006 23.2684Z" fill="#323232"/>
</svg>
