<svg width="18" height="17" viewBox="0 0 18 17" fill="none" xmlns="http://www.w3.org/2000/svg">
<path fill-rule="evenodd" clip-rule="evenodd" d="M8.68408 6.10005C8.68408 5.54776 8.23637 5.10005 7.68408 5.10005H5.48408C4.9318 5.10005 4.48408 5.54776 4.48408 6.10005V6.30005C4.48408 6.85233 4.9318 7.30005 5.48408 7.30005H7.68408C8.23637 7.30005 8.68408 6.85233 8.68408 6.30005V6.10005ZM5.08408 5.70005H6.28408V6.70005H5.08408V5.70005ZM8.08408 5.70005H6.88408V6.70005H8.08408V5.70005Z" fill="black"/>
<path fill-rule="evenodd" clip-rule="evenodd" d="M13.6841 6.10005C13.6841 5.54776 13.2364 5.10005 12.6841 5.10005H10.4841C9.9318 5.10005 9.48408 5.54776 9.48408 6.10005V6.30005C9.48408 6.85233 9.9318 7.30005 10.4841 7.30005H12.6841C13.2364 7.30005 13.6841 6.85233 13.6841 6.30005V6.10005ZM10.0841 5.70005H11.2841V6.70005H10.0841V5.70005ZM13.0841 5.70005H11.8841V6.70005H13.0841V5.70005Z" fill="black"/>
<path fill-rule="evenodd" clip-rule="evenodd" d="M13.6841 9.70005C13.6841 9.14776 13.2364 8.70005 12.6841 8.70005H10.4841C9.9318 8.70005 9.48408 9.14776 9.48408 9.70005V9.90005C9.48408 10.4523 9.9318 10.9 10.4841 10.9H12.6841C13.2364 10.9 13.6841 10.4523 13.6841 9.90005V9.70005ZM10.0841 9.30005H11.2841V10.3H10.0841V9.30005ZM13.0841 9.30005H11.8841V10.3H13.0841V9.30005Z" fill="black"/>
<path fill-rule="evenodd" clip-rule="evenodd" d="M8.68408 9.70005C8.68408 9.14776 8.23637 8.70005 7.68408 8.70005H5.48408C4.9318 8.70005 4.48408 9.14776 4.48408 9.70005V9.90005C4.48408 10.4523 4.9318 10.9 5.48408 10.9H7.68408C8.23637 10.9 8.68408 10.4523 8.68408 9.90005V9.70005ZM5.08408 9.30005H6.28408V10.3H5.08408V9.30005ZM8.08408 9.30005H6.88408V10.3H8.08408V9.30005Z" fill="black"/>
<path fill-rule="evenodd" clip-rule="evenodd" d="M0.684082 15.7C0.684082 16.2523 1.1318 16.7 1.68408 16.7H16.2841C16.8364 16.7 17.2841 16.2523 17.2841 15.7V7.70005C17.2841 7.14776 16.8364 6.70005 16.2841 6.70005H14.8841V3.70005C15.3259 3.70005 15.6841 3.34188 15.6841 2.90005V2.70005C15.6841 2.14776 15.2364 1.70005 14.6841 1.70005H13.2841V1.30005C13.2841 0.747764 12.8364 0.300049 12.2841 0.300049H5.68408C5.1318 0.300049 4.68408 0.747764 4.68408 1.30005V1.70005H3.28408C2.7318 1.70005 2.28408 2.14776 2.28408 2.70005V2.90005C2.28408 3.34188 2.64225 3.70005 3.08408 3.70005V6.70005H1.68408C1.1318 6.70005 0.684082 7.14776 0.684082 7.70005V15.7ZM3.08408 7.30005H1.28408V16.1H3.08408V7.30005ZM16.6841 7.30005H14.8841V16.1H16.6841V7.30005ZM14.8841 2.30005H3.08408V3.10005H14.8841V2.30005ZM12.6841 0.900049H5.28408V1.70005H12.6841V0.900049ZM3.68408 3.70005H14.2841V16.1H10.2841V14.5C10.2841 13.9478 9.83637 13.5 9.28408 13.5H8.68408C8.1318 13.5 7.68408 13.9478 7.68408 14.5V16.1H3.68408V3.70005ZM8.68408 6.10005C8.68408 5.54776 8.23637 5.10005 7.68408 5.10005H5.48408C4.9318 5.10005 4.48408 5.54776 4.48408 6.10005V6.30005C4.48408 6.85233 4.9318 7.30005 5.48408 7.30005H7.68408C8.23637 7.30005 8.68408 6.85233 8.68408 6.30005V6.10005ZM13.6841 6.10005C13.6841 5.54776 13.2364 5.10005 12.6841 5.10005H10.4841C9.9318 5.10005 9.48408 5.54776 9.48408 6.10005V6.30005C9.48408 6.85233 9.9318 7.30005 10.4841 7.30005H12.6841C13.2364 7.30005 13.6841 6.85233 13.6841 6.30005V6.10005ZM13.6841 9.70005C13.6841 9.14776 13.2364 8.70005 12.6841 8.70005H10.4841C9.9318 8.70005 9.48408 9.14776 9.48408 9.70005V9.90005C9.48408 10.4523 9.9318 10.9 10.4841 10.9H12.6841C13.2364 10.9 13.6841 10.4523 13.6841 9.90005V9.70005ZM8.68408 9.70005C8.68408 9.14776 8.23637 8.70005 7.68408 8.70005H5.48408C4.9318 8.70005 4.48408 9.14776 4.48408 9.70005V9.90005C4.48408 10.4523 4.9318 10.9 5.48408 10.9H7.68408C8.23637 10.9 8.68408 10.4523 8.68408 9.90005V9.70005ZM9.68408 14.1V16.1H8.28408V14.1H9.68408ZM5.08408 5.70005H6.28408V6.70005H5.08408V5.70005ZM8.08408 5.70005H6.88408V6.70005H8.08408V5.70005ZM10.0841 5.70005H11.2841V6.70005H10.0841V5.70005ZM13.0841 5.70005H11.8841V6.70005H13.0841V5.70005ZM11.8841 9.30005H13.0841V10.3H11.8841V9.30005ZM11.2841 9.30005H10.0841V10.3H11.2841V9.30005ZM6.88408 9.30005H8.08408V10.3H6.88408V9.30005ZM6.28408 9.30005H5.08408V10.3H6.28408V9.30005Z" fill="black"/>
</svg>
