<svg width="21" height="21" viewBox="0 0 21 21" fill="none" xmlns="http://www.w3.org/2000/svg">
<mask id="path-1-inside-1_6801_33030" fill="white">
<path d="M14.7338 19.2667H5.40047C5.21648 19.2667 5.06715 19.416 5.06715 19.6V20.2667C5.06715 20.4507 5.21648 20.6 5.40047 20.6C5.58445 20.6 5.73379 20.4507 5.73379 20.2667V19.9334H14.7338C14.9178 19.9334 15.0671 19.7841 15.0671 19.6001C15.0671 19.4161 14.9178 19.2667 14.7338 19.2667Z"/>
<path d="M7.73376 8.93332C7.73376 9.1173 7.8831 9.26664 8.06708 9.26664H9.40044C9.58443 9.26664 9.73377 9.1173 9.73377 8.93332V6.93331C9.73377 6.74933 9.58443 6.59999 9.40044 6.59999H8.06712C7.88314 6.59999 7.7338 6.74933 7.7338 6.93331L7.73376 8.93332ZM8.40044 7.26667H9.06712V8.6H8.40044V7.26667Z"/>
<path d="M4.73372 4.59999H0.733712C0.549727 4.59999 0.400391 4.74932 0.400391 4.93331V11.6C0.400391 11.784 0.549727 11.9333 0.733712 11.9333C0.917697 11.9333 1.06703 11.784 1.06703 11.6V5.26667H4.73372C4.91771 5.26667 5.06704 5.11733 5.06704 4.93335C5.06704 4.74936 4.91775 4.59999 4.73372 4.59999Z"/>
<path d="M16.4004 16.9333C16.4004 17.1173 16.5497 17.2667 16.7337 17.2667H18.0671C18.251 17.2667 18.4004 17.1173 18.4004 16.9333V14.9333C18.4004 14.7494 18.251 14.6 18.0671 14.6H16.7337C16.5497 14.6 16.4004 14.7494 16.4004 14.9333V16.9333ZM17.0671 15.2667H17.7338V16.6H17.0671V15.2667Z"/>
<path d="M2.06708 12.6C0.419375 12.6 0.400391 16.89 0.400391 16.9333C0.400391 17.7383 0.974064 18.4114 1.73371 18.5664V20.2667C1.73371 20.4507 1.88305 20.6 2.06704 20.6C2.25102 20.6 2.40036 20.4507 2.40036 20.2667V18.5664C3.16001 18.4114 3.73368 17.7383 3.73368 16.9333C3.73372 16.89 3.71474 12.6 2.06708 12.6ZM2.06708 17.9333C1.51575 17.9333 1.06707 17.4847 1.06707 16.9333C1.06707 15.2727 1.51309 13.2667 2.06708 13.2667C2.62106 13.2667 3.06708 15.2727 3.06708 16.9333C3.06708 17.4847 2.6184 17.9333 2.06708 17.9333Z"/>
<path d="M4.06702 10.6H2.73366C2.54967 10.6 2.40034 10.7493 2.40034 10.9333V11.6C2.40034 11.784 2.54967 11.9333 2.73366 11.9333C2.91764 11.9333 3.06698 11.784 3.06698 11.6V11.2667H3.73366V12.9334C3.73366 13.1174 3.883 13.2667 4.06698 13.2667C4.25096 13.2667 4.4003 13.1174 4.4003 12.9334V10.9334C4.40034 10.7493 4.251 10.6 4.06702 10.6Z"/>
<path d="M16.7337 9.26668H18.0671C18.251 9.26668 18.4004 9.11734 18.4004 8.93336V6.93335C18.4004 6.74937 18.251 6.60003 18.0671 6.60003H16.7337C16.5497 6.60003 16.4004 6.74937 16.4004 6.93335V8.93336C16.4004 9.11734 16.5497 9.26668 16.7337 9.26668ZM17.0671 7.26667H17.7338V8.6H17.0671V7.26667Z"/>
<path d="M4.06702 6.59999H2.73366C2.54967 6.59999 2.40034 6.74933 2.40034 6.93331V8.93332C2.40034 9.1173 2.54967 9.26664 2.73366 9.26664H4.06698C4.25096 9.26664 4.4003 9.1173 4.4003 8.93332V6.93331C4.40034 6.74933 4.251 6.59999 4.06702 6.59999ZM3.73366 8.6H3.06702V7.26667H3.7337L3.73366 8.6Z"/>
<path d="M11.0671 8.93332C11.0671 9.1173 11.2165 9.26664 11.4005 9.26664H12.7338C12.9178 9.26664 13.0671 9.1173 13.0671 8.93332V6.93331C13.0671 6.74933 12.9178 6.59999 12.7338 6.59999H11.4005C11.2165 6.59999 11.0671 6.74933 11.0671 6.93331V8.93332ZM11.7338 7.26667H12.4005V8.6H11.7338V7.26667Z"/>
<path d="M20.0671 4.59999H16.0671C15.8831 4.59999 15.7337 4.74932 15.7337 4.93331C15.7337 5.11729 15.8831 5.26663 16.0671 5.26663H19.7337V18.6614C19.6291 18.624 19.5181 18.6 19.4004 18.6C19.3428 18.6 19.2854 18.605 19.2291 18.615C18.9991 18.2007 18.5614 17.9333 18.0671 17.9333C17.5728 17.9333 17.1351 18.2007 16.9051 18.615C16.8488 18.605 16.7914 18.6 16.7338 18.6C16.1825 18.6 15.7338 19.0487 15.7338 19.6C15.7338 20.1514 16.1825 20.6 16.7338 20.6H19.4004C19.9517 20.6 20.4004 20.1514 20.4004 19.6V4.93331C20.4004 4.74932 20.2511 4.59999 20.0671 4.59999ZM19.4004 19.9334H16.7337C16.55 19.9334 16.4004 19.7837 16.4004 19.6C16.4004 19.4164 16.55 19.2667 16.7337 19.2667C16.7977 19.2667 16.8584 19.285 16.9144 19.321C17.0057 19.3797 17.1197 19.3904 17.2204 19.3497C17.321 19.3091 17.3954 19.2217 17.4197 19.116C17.4901 18.8124 17.7564 18.6 18.0671 18.6C18.3777 18.6 18.6441 18.8124 18.7144 19.116C18.7387 19.2217 18.8131 19.3091 18.9137 19.3497C19.0141 19.3904 19.1284 19.3797 19.2198 19.321C19.4368 19.181 19.7337 19.3524 19.7337 19.6C19.7337 19.7837 19.5841 19.9334 19.4004 19.9334Z"/>
<path d="M11.4005 5.26667H12.7338C12.9178 5.26667 13.0671 5.11733 13.0671 4.93335V2.93334C13.0671 2.74936 12.9178 2.60002 12.7338 2.60002H11.4005C11.2165 2.60002 11.0671 2.74936 11.0671 2.93334V4.93335C11.0671 5.11733 11.2165 5.26667 11.4005 5.26667ZM11.7338 3.26666H12.4005V4.59999H11.7338V3.26666Z"/>
<path d="M11.0671 12.9333C11.0671 13.1173 11.2165 13.2667 11.4005 13.2667H12.7338C12.9178 13.2667 13.0671 13.1173 13.0671 12.9333V10.9333C13.0671 10.7493 12.9178 10.6 12.7338 10.6H11.4005C11.2165 10.6 11.0671 10.7493 11.0671 10.9333V12.9333ZM11.7338 11.2667H12.4005V12.6H11.7338V11.2667Z"/>
<path d="M8.06713 5.26667H9.40045C9.58443 5.26667 9.73377 5.11733 9.73377 4.93335V2.93334C9.73377 2.74936 9.58443 2.60002 9.40045 2.60002H8.06713C7.88314 2.60002 7.7338 2.74936 7.7338 2.93334V4.93335C7.73377 5.11733 7.8831 5.26667 8.06713 5.26667ZM8.40045 3.26666H9.06713V4.59999H8.40045V3.26666Z"/>
<path d="M10.1638 16.6967C10.1038 16.76 10.0671 16.8467 10.0671 16.9334C10.0671 17.0201 10.1038 17.1067 10.1638 17.1701C10.2271 17.2301 10.3138 17.2667 10.4005 17.2667C10.4872 17.2667 10.5738 17.2301 10.6372 17.1701C10.6972 17.1067 10.7338 17.0201 10.7338 16.9334C10.7338 16.8467 10.6972 16.7601 10.6372 16.6967C10.5105 16.5733 10.2905 16.5733 10.1638 16.6967Z"/>
<path d="M7.73376 12.9333C7.73376 13.1173 7.8831 13.2667 8.06708 13.2667H9.40044C9.58443 13.2667 9.73377 13.1173 9.73377 12.9333V10.9333C9.73377 10.7493 9.58443 10.6 9.40044 10.6H8.06712C7.88314 10.6 7.7338 10.7493 7.7338 10.9333L7.73376 12.9333ZM8.40044 11.2667H9.06712V12.6H8.40044V11.2667Z"/>
<path d="M7.06709 14.9333C7.06709 15.1173 7.21643 15.2667 7.40042 15.2667H8.40042V18.2667C8.40042 18.4507 8.54976 18.6 8.73374 18.6C8.91773 18.6 9.06706 18.4507 9.06706 18.2667V15.2667H11.7338V18.2667C11.7338 18.4507 11.8831 18.6 12.0671 18.6C12.2511 18.6 12.4004 18.4507 12.4004 18.2667V15.2667H13.4004C13.5844 15.2667 13.7337 15.1173 13.7337 14.9333C13.7337 14.7494 13.5844 14.6 13.4004 14.6H7.40042C7.21643 14.6 7.06709 14.7494 7.06709 14.9333Z"/>
<path d="M16.4004 12.9333C16.4004 13.1173 16.5497 13.2667 16.7337 13.2667H18.0671C18.251 13.2667 18.4004 13.1173 18.4004 12.9333V10.9333C18.4004 10.7493 18.251 10.6 18.0671 10.6H16.7337C16.5497 10.6 16.4004 10.7493 16.4004 10.9333V12.9333ZM17.0671 11.2667H17.7338V12.6H17.0671V11.2667Z"/>
<path d="M14.7337 0.599976H6.06703C5.88304 0.599976 5.73371 0.749312 5.73371 0.933297V18.2667C5.73371 18.4507 5.88304 18.6 6.06703 18.6C6.25101 18.6 6.40035 18.4507 6.40035 18.2667V1.26662H14.4004V18.2667C14.4004 18.4507 14.5497 18.6 14.7337 18.6C14.9177 18.6 15.067 18.4507 15.067 18.2667V0.933297C15.0671 0.749312 14.9177 0.599976 14.7337 0.599976Z"/>
</mask>
<path d="M14.7338 19.2667H5.40047C5.21648 19.2667 5.06715 19.416 5.06715 19.6V20.2667C5.06715 20.4507 5.21648 20.6 5.40047 20.6C5.58445 20.6 5.73379 20.4507 5.73379 20.2667V19.9334H14.7338C14.9178 19.9334 15.0671 19.7841 15.0671 19.6001C15.0671 19.4161 14.9178 19.2667 14.7338 19.2667Z" fill="#283237"/>
<path d="M7.73376 8.93332C7.73376 9.1173 7.8831 9.26664 8.06708 9.26664H9.40044C9.58443 9.26664 9.73377 9.1173 9.73377 8.93332V6.93331C9.73377 6.74933 9.58443 6.59999 9.40044 6.59999H8.06712C7.88314 6.59999 7.7338 6.74933 7.7338 6.93331L7.73376 8.93332ZM8.40044 7.26667H9.06712V8.6H8.40044V7.26667Z" fill="#283237"/>
<path d="M4.73372 4.59999H0.733712C0.549727 4.59999 0.400391 4.74932 0.400391 4.93331V11.6C0.400391 11.784 0.549727 11.9333 0.733712 11.9333C0.917697 11.9333 1.06703 11.784 1.06703 11.6V5.26667H4.73372C4.91771 5.26667 5.06704 5.11733 5.06704 4.93335C5.06704 4.74936 4.91775 4.59999 4.73372 4.59999Z" fill="#283237"/>
<path d="M16.4004 16.9333C16.4004 17.1173 16.5497 17.2667 16.7337 17.2667H18.0671C18.251 17.2667 18.4004 17.1173 18.4004 16.9333V14.9333C18.4004 14.7494 18.251 14.6 18.0671 14.6H16.7337C16.5497 14.6 16.4004 14.7494 16.4004 14.9333V16.9333ZM17.0671 15.2667H17.7338V16.6H17.0671V15.2667Z" fill="#283237"/>
<path d="M2.06708 12.6C0.419375 12.6 0.400391 16.89 0.400391 16.9333C0.400391 17.7383 0.974064 18.4114 1.73371 18.5664V20.2667C1.73371 20.4507 1.88305 20.6 2.06704 20.6C2.25102 20.6 2.40036 20.4507 2.40036 20.2667V18.5664C3.16001 18.4114 3.73368 17.7383 3.73368 16.9333C3.73372 16.89 3.71474 12.6 2.06708 12.6ZM2.06708 17.9333C1.51575 17.9333 1.06707 17.4847 1.06707 16.9333C1.06707 15.2727 1.51309 13.2667 2.06708 13.2667C2.62106 13.2667 3.06708 15.2727 3.06708 16.9333C3.06708 17.4847 2.6184 17.9333 2.06708 17.9333Z" fill="#283237"/>
<path d="M4.06702 10.6H2.73366C2.54967 10.6 2.40034 10.7493 2.40034 10.9333V11.6C2.40034 11.784 2.54967 11.9333 2.73366 11.9333C2.91764 11.9333 3.06698 11.784 3.06698 11.6V11.2667H3.73366V12.9334C3.73366 13.1174 3.883 13.2667 4.06698 13.2667C4.25096 13.2667 4.4003 13.1174 4.4003 12.9334V10.9334C4.40034 10.7493 4.251 10.6 4.06702 10.6Z" fill="#283237"/>
<path d="M16.7337 9.26668H18.0671C18.251 9.26668 18.4004 9.11734 18.4004 8.93336V6.93335C18.4004 6.74937 18.251 6.60003 18.0671 6.60003H16.7337C16.5497 6.60003 16.4004 6.74937 16.4004 6.93335V8.93336C16.4004 9.11734 16.5497 9.26668 16.7337 9.26668ZM17.0671 7.26667H17.7338V8.6H17.0671V7.26667Z" fill="#283237"/>
<path d="M4.06702 6.59999H2.73366C2.54967 6.59999 2.40034 6.74933 2.40034 6.93331V8.93332C2.40034 9.1173 2.54967 9.26664 2.73366 9.26664H4.06698C4.25096 9.26664 4.4003 9.1173 4.4003 8.93332V6.93331C4.40034 6.74933 4.251 6.59999 4.06702 6.59999ZM3.73366 8.6H3.06702V7.26667H3.7337L3.73366 8.6Z" fill="#283237"/>
<path d="M11.0671 8.93332C11.0671 9.1173 11.2165 9.26664 11.4005 9.26664H12.7338C12.9178 9.26664 13.0671 9.1173 13.0671 8.93332V6.93331C13.0671 6.74933 12.9178 6.59999 12.7338 6.59999H11.4005C11.2165 6.59999 11.0671 6.74933 11.0671 6.93331V8.93332ZM11.7338 7.26667H12.4005V8.6H11.7338V7.26667Z" fill="#283237"/>
<path d="M20.0671 4.59999H16.0671C15.8831 4.59999 15.7337 4.74932 15.7337 4.93331C15.7337 5.11729 15.8831 5.26663 16.0671 5.26663H19.7337V18.6614C19.6291 18.624 19.5181 18.6 19.4004 18.6C19.3428 18.6 19.2854 18.605 19.2291 18.615C18.9991 18.2007 18.5614 17.9333 18.0671 17.9333C17.5728 17.9333 17.1351 18.2007 16.9051 18.615C16.8488 18.605 16.7914 18.6 16.7338 18.6C16.1825 18.6 15.7338 19.0487 15.7338 19.6C15.7338 20.1514 16.1825 20.6 16.7338 20.6H19.4004C19.9517 20.6 20.4004 20.1514 20.4004 19.6V4.93331C20.4004 4.74932 20.2511 4.59999 20.0671 4.59999ZM19.4004 19.9334H16.7337C16.55 19.9334 16.4004 19.7837 16.4004 19.6C16.4004 19.4164 16.55 19.2667 16.7337 19.2667C16.7977 19.2667 16.8584 19.285 16.9144 19.321C17.0057 19.3797 17.1197 19.3904 17.2204 19.3497C17.321 19.3091 17.3954 19.2217 17.4197 19.116C17.4901 18.8124 17.7564 18.6 18.0671 18.6C18.3777 18.6 18.6441 18.8124 18.7144 19.116C18.7387 19.2217 18.8131 19.3091 18.9137 19.3497C19.0141 19.3904 19.1284 19.3797 19.2198 19.321C19.4368 19.181 19.7337 19.3524 19.7337 19.6C19.7337 19.7837 19.5841 19.9334 19.4004 19.9334Z" fill="#283237"/>
<path d="M11.4005 5.26667H12.7338C12.9178 5.26667 13.0671 5.11733 13.0671 4.93335V2.93334C13.0671 2.74936 12.9178 2.60002 12.7338 2.60002H11.4005C11.2165 2.60002 11.0671 2.74936 11.0671 2.93334V4.93335C11.0671 5.11733 11.2165 5.26667 11.4005 5.26667ZM11.7338 3.26666H12.4005V4.59999H11.7338V3.26666Z" fill="#283237"/>
<path d="M11.0671 12.9333C11.0671 13.1173 11.2165 13.2667 11.4005 13.2667H12.7338C12.9178 13.2667 13.0671 13.1173 13.0671 12.9333V10.9333C13.0671 10.7493 12.9178 10.6 12.7338 10.6H11.4005C11.2165 10.6 11.0671 10.7493 11.0671 10.9333V12.9333ZM11.7338 11.2667H12.4005V12.6H11.7338V11.2667Z" fill="#283237"/>
<path d="M8.06713 5.26667H9.40045C9.58443 5.26667 9.73377 5.11733 9.73377 4.93335V2.93334C9.73377 2.74936 9.58443 2.60002 9.40045 2.60002H8.06713C7.88314 2.60002 7.7338 2.74936 7.7338 2.93334V4.93335C7.73377 5.11733 7.8831 5.26667 8.06713 5.26667ZM8.40045 3.26666H9.06713V4.59999H8.40045V3.26666Z" fill="#283237"/>
<path d="M10.1638 16.6967C10.1038 16.76 10.0671 16.8467 10.0671 16.9334C10.0671 17.0201 10.1038 17.1067 10.1638 17.1701C10.2271 17.2301 10.3138 17.2667 10.4005 17.2667C10.4872 17.2667 10.5738 17.2301 10.6372 17.1701C10.6972 17.1067 10.7338 17.0201 10.7338 16.9334C10.7338 16.8467 10.6972 16.7601 10.6372 16.6967C10.5105 16.5733 10.2905 16.5733 10.1638 16.6967Z" fill="#283237"/>
<path d="M7.73376 12.9333C7.73376 13.1173 7.8831 13.2667 8.06708 13.2667H9.40044C9.58443 13.2667 9.73377 13.1173 9.73377 12.9333V10.9333C9.73377 10.7493 9.58443 10.6 9.40044 10.6H8.06712C7.88314 10.6 7.7338 10.7493 7.7338 10.9333L7.73376 12.9333ZM8.40044 11.2667H9.06712V12.6H8.40044V11.2667Z" fill="#283237"/>
<path d="M7.06709 14.9333C7.06709 15.1173 7.21643 15.2667 7.40042 15.2667H8.40042V18.2667C8.40042 18.4507 8.54976 18.6 8.73374 18.6C8.91773 18.6 9.06706 18.4507 9.06706 18.2667V15.2667H11.7338V18.2667C11.7338 18.4507 11.8831 18.6 12.0671 18.6C12.2511 18.6 12.4004 18.4507 12.4004 18.2667V15.2667H13.4004C13.5844 15.2667 13.7337 15.1173 13.7337 14.9333C13.7337 14.7494 13.5844 14.6 13.4004 14.6H7.40042C7.21643 14.6 7.06709 14.7494 7.06709 14.9333Z" fill="#283237"/>
<path d="M16.4004 12.9333C16.4004 13.1173 16.5497 13.2667 16.7337 13.2667H18.0671C18.251 13.2667 18.4004 13.1173 18.4004 12.9333V10.9333C18.4004 10.7493 18.251 10.6 18.0671 10.6H16.7337C16.5497 10.6 16.4004 10.7493 16.4004 10.9333V12.9333ZM17.0671 11.2667H17.7338V12.6H17.0671V11.2667Z" fill="#283237"/>
<path d="M14.7337 0.599976H6.06703C5.88304 0.599976 5.73371 0.749312 5.73371 0.933297V18.2667C5.73371 18.4507 5.88304 18.6 6.06703 18.6C6.25101 18.6 6.40035 18.4507 6.40035 18.2667V1.26662H14.4004V18.2667C14.4004 18.4507 14.5497 18.6 14.7337 18.6C14.9177 18.6 15.067 18.4507 15.067 18.2667V0.933297C15.0671 0.749312 14.9177 0.599976 14.7337 0.599976Z" fill="#283237"/>
<path d="M14.7338 19.2667H5.40047C5.21648 19.2667 5.06715 19.416 5.06715 19.6V20.2667C5.06715 20.4507 5.21648 20.6 5.40047 20.6C5.58445 20.6 5.73379 20.4507 5.73379 20.2667V19.9334H14.7338C14.9178 19.9334 15.0671 19.7841 15.0671 19.6001C15.0671 19.4161 14.9178 19.2667 14.7338 19.2667Z" stroke="#283237" stroke-width="2" mask="url(#path-1-inside-1_6801_33030)"/>
<path d="M7.73376 8.93332C7.73376 9.1173 7.8831 9.26664 8.06708 9.26664H9.40044C9.58443 9.26664 9.73377 9.1173 9.73377 8.93332V6.93331C9.73377 6.74933 9.58443 6.59999 9.40044 6.59999H8.06712C7.88314 6.59999 7.7338 6.74933 7.7338 6.93331L7.73376 8.93332ZM8.40044 7.26667H9.06712V8.6H8.40044V7.26667Z" stroke="#283237" stroke-width="2" mask="url(#path-1-inside-1_6801_33030)"/>
<path d="M4.73372 4.59999H0.733712C0.549727 4.59999 0.400391 4.74932 0.400391 4.93331V11.6C0.400391 11.784 0.549727 11.9333 0.733712 11.9333C0.917697 11.9333 1.06703 11.784 1.06703 11.6V5.26667H4.73372C4.91771 5.26667 5.06704 5.11733 5.06704 4.93335C5.06704 4.74936 4.91775 4.59999 4.73372 4.59999Z" stroke="#283237" stroke-width="2" mask="url(#path-1-inside-1_6801_33030)"/>
<path d="M16.4004 16.9333C16.4004 17.1173 16.5497 17.2667 16.7337 17.2667H18.0671C18.251 17.2667 18.4004 17.1173 18.4004 16.9333V14.9333C18.4004 14.7494 18.251 14.6 18.0671 14.6H16.7337C16.5497 14.6 16.4004 14.7494 16.4004 14.9333V16.9333ZM17.0671 15.2667H17.7338V16.6H17.0671V15.2667Z" stroke="#283237" stroke-width="2" mask="url(#path-1-inside-1_6801_33030)"/>
<path d="M2.06708 12.6C0.419375 12.6 0.400391 16.89 0.400391 16.9333C0.400391 17.7383 0.974064 18.4114 1.73371 18.5664V20.2667C1.73371 20.4507 1.88305 20.6 2.06704 20.6C2.25102 20.6 2.40036 20.4507 2.40036 20.2667V18.5664C3.16001 18.4114 3.73368 17.7383 3.73368 16.9333C3.73372 16.89 3.71474 12.6 2.06708 12.6ZM2.06708 17.9333C1.51575 17.9333 1.06707 17.4847 1.06707 16.9333C1.06707 15.2727 1.51309 13.2667 2.06708 13.2667C2.62106 13.2667 3.06708 15.2727 3.06708 16.9333C3.06708 17.4847 2.6184 17.9333 2.06708 17.9333Z" stroke="#283237" stroke-width="2" mask="url(#path-1-inside-1_6801_33030)"/>
<path d="M4.06702 10.6H2.73366C2.54967 10.6 2.40034 10.7493 2.40034 10.9333V11.6C2.40034 11.784 2.54967 11.9333 2.73366 11.9333C2.91764 11.9333 3.06698 11.784 3.06698 11.6V11.2667H3.73366V12.9334C3.73366 13.1174 3.883 13.2667 4.06698 13.2667C4.25096 13.2667 4.4003 13.1174 4.4003 12.9334V10.9334C4.40034 10.7493 4.251 10.6 4.06702 10.6Z" stroke="#283237" stroke-width="2" mask="url(#path-1-inside-1_6801_33030)"/>
<path d="M16.7337 9.26668H18.0671C18.251 9.26668 18.4004 9.11734 18.4004 8.93336V6.93335C18.4004 6.74937 18.251 6.60003 18.0671 6.60003H16.7337C16.5497 6.60003 16.4004 6.74937 16.4004 6.93335V8.93336C16.4004 9.11734 16.5497 9.26668 16.7337 9.26668ZM17.0671 7.26667H17.7338V8.6H17.0671V7.26667Z" stroke="#283237" stroke-width="2" mask="url(#path-1-inside-1_6801_33030)"/>
<path d="M4.06702 6.59999H2.73366C2.54967 6.59999 2.40034 6.74933 2.40034 6.93331V8.93332C2.40034 9.1173 2.54967 9.26664 2.73366 9.26664H4.06698C4.25096 9.26664 4.4003 9.1173 4.4003 8.93332V6.93331C4.40034 6.74933 4.251 6.59999 4.06702 6.59999ZM3.73366 8.6H3.06702V7.26667H3.7337L3.73366 8.6Z" stroke="#283237" stroke-width="2" mask="url(#path-1-inside-1_6801_33030)"/>
<path d="M11.0671 8.93332C11.0671 9.1173 11.2165 9.26664 11.4005 9.26664H12.7338C12.9178 9.26664 13.0671 9.1173 13.0671 8.93332V6.93331C13.0671 6.74933 12.9178 6.59999 12.7338 6.59999H11.4005C11.2165 6.59999 11.0671 6.74933 11.0671 6.93331V8.93332ZM11.7338 7.26667H12.4005V8.6H11.7338V7.26667Z" stroke="#283237" stroke-width="2" mask="url(#path-1-inside-1_6801_33030)"/>
<path d="M20.0671 4.59999H16.0671C15.8831 4.59999 15.7337 4.74932 15.7337 4.93331C15.7337 5.11729 15.8831 5.26663 16.0671 5.26663H19.7337V18.6614C19.6291 18.624 19.5181 18.6 19.4004 18.6C19.3428 18.6 19.2854 18.605 19.2291 18.615C18.9991 18.2007 18.5614 17.9333 18.0671 17.9333C17.5728 17.9333 17.1351 18.2007 16.9051 18.615C16.8488 18.605 16.7914 18.6 16.7338 18.6C16.1825 18.6 15.7338 19.0487 15.7338 19.6C15.7338 20.1514 16.1825 20.6 16.7338 20.6H19.4004C19.9517 20.6 20.4004 20.1514 20.4004 19.6V4.93331C20.4004 4.74932 20.2511 4.59999 20.0671 4.59999ZM19.4004 19.9334H16.7337C16.55 19.9334 16.4004 19.7837 16.4004 19.6C16.4004 19.4164 16.55 19.2667 16.7337 19.2667C16.7977 19.2667 16.8584 19.285 16.9144 19.321C17.0057 19.3797 17.1197 19.3904 17.2204 19.3497C17.321 19.3091 17.3954 19.2217 17.4197 19.116C17.4901 18.8124 17.7564 18.6 18.0671 18.6C18.3777 18.6 18.6441 18.8124 18.7144 19.116C18.7387 19.2217 18.8131 19.3091 18.9137 19.3497C19.0141 19.3904 19.1284 19.3797 19.2198 19.321C19.4368 19.181 19.7337 19.3524 19.7337 19.6C19.7337 19.7837 19.5841 19.9334 19.4004 19.9334Z" stroke="#283237" stroke-width="2" mask="url(#path-1-inside-1_6801_33030)"/>
<path d="M11.4005 5.26667H12.7338C12.9178 5.26667 13.0671 5.11733 13.0671 4.93335V2.93334C13.0671 2.74936 12.9178 2.60002 12.7338 2.60002H11.4005C11.2165 2.60002 11.0671 2.74936 11.0671 2.93334V4.93335C11.0671 5.11733 11.2165 5.26667 11.4005 5.26667ZM11.7338 3.26666H12.4005V4.59999H11.7338V3.26666Z" stroke="#283237" stroke-width="2" mask="url(#path-1-inside-1_6801_33030)"/>
<path d="M11.0671 12.9333C11.0671 13.1173 11.2165 13.2667 11.4005 13.2667H12.7338C12.9178 13.2667 13.0671 13.1173 13.0671 12.9333V10.9333C13.0671 10.7493 12.9178 10.6 12.7338 10.6H11.4005C11.2165 10.6 11.0671 10.7493 11.0671 10.9333V12.9333ZM11.7338 11.2667H12.4005V12.6H11.7338V11.2667Z" stroke="#283237" stroke-width="2" mask="url(#path-1-inside-1_6801_33030)"/>
<path d="M8.06713 5.26667H9.40045C9.58443 5.26667 9.73377 5.11733 9.73377 4.93335V2.93334C9.73377 2.74936 9.58443 2.60002 9.40045 2.60002H8.06713C7.88314 2.60002 7.7338 2.74936 7.7338 2.93334V4.93335C7.73377 5.11733 7.8831 5.26667 8.06713 5.26667ZM8.40045 3.26666H9.06713V4.59999H8.40045V3.26666Z" stroke="#283237" stroke-width="2" mask="url(#path-1-inside-1_6801_33030)"/>
<path d="M10.1638 16.6967C10.1038 16.76 10.0671 16.8467 10.0671 16.9334C10.0671 17.0201 10.1038 17.1067 10.1638 17.1701C10.2271 17.2301 10.3138 17.2667 10.4005 17.2667C10.4872 17.2667 10.5738 17.2301 10.6372 17.1701C10.6972 17.1067 10.7338 17.0201 10.7338 16.9334C10.7338 16.8467 10.6972 16.7601 10.6372 16.6967C10.5105 16.5733 10.2905 16.5733 10.1638 16.6967Z" stroke="#283237" stroke-width="2" mask="url(#path-1-inside-1_6801_33030)"/>
<path d="M7.73376 12.9333C7.73376 13.1173 7.8831 13.2667 8.06708 13.2667H9.40044C9.58443 13.2667 9.73377 13.1173 9.73377 12.9333V10.9333C9.73377 10.7493 9.58443 10.6 9.40044 10.6H8.06712C7.88314 10.6 7.7338 10.7493 7.7338 10.9333L7.73376 12.9333ZM8.40044 11.2667H9.06712V12.6H8.40044V11.2667Z" stroke="#283237" stroke-width="2" mask="url(#path-1-inside-1_6801_33030)"/>
<path d="M7.06709 14.9333C7.06709 15.1173 7.21643 15.2667 7.40042 15.2667H8.40042V18.2667C8.40042 18.4507 8.54976 18.6 8.73374 18.6C8.91773 18.6 9.06706 18.4507 9.06706 18.2667V15.2667H11.7338V18.2667C11.7338 18.4507 11.8831 18.6 12.0671 18.6C12.2511 18.6 12.4004 18.4507 12.4004 18.2667V15.2667H13.4004C13.5844 15.2667 13.7337 15.1173 13.7337 14.9333C13.7337 14.7494 13.5844 14.6 13.4004 14.6H7.40042C7.21643 14.6 7.06709 14.7494 7.06709 14.9333Z" stroke="#283237" stroke-width="2" mask="url(#path-1-inside-1_6801_33030)"/>
<path d="M16.4004 12.9333C16.4004 13.1173 16.5497 13.2667 16.7337 13.2667H18.0671C18.251 13.2667 18.4004 13.1173 18.4004 12.9333V10.9333C18.4004 10.7493 18.251 10.6 18.0671 10.6H16.7337C16.5497 10.6 16.4004 10.7493 16.4004 10.9333V12.9333ZM17.0671 11.2667H17.7338V12.6H17.0671V11.2667Z" stroke="#283237" stroke-width="2" mask="url(#path-1-inside-1_6801_33030)"/>
<path d="M14.7337 0.599976H6.06703C5.88304 0.599976 5.73371 0.749312 5.73371 0.933297V18.2667C5.73371 18.4507 5.88304 18.6 6.06703 18.6C6.25101 18.6 6.40035 18.4507 6.40035 18.2667V1.26662H14.4004V18.2667C14.4004 18.4507 14.5497 18.6 14.7337 18.6C14.9177 18.6 15.067 18.4507 15.067 18.2667V0.933297C15.0671 0.749312 14.9177 0.599976 14.7337 0.599976Z" stroke="#283237" stroke-width="2" mask="url(#path-1-inside-1_6801_33030)"/>
</svg>
