<svg width="23" height="23" viewBox="0 0 23 23" fill="none" xmlns="http://www.w3.org/2000/svg">
<path d="M22.6949 15.7761C22.6949 15.943 22.5345 16.063 22.3743 16.016L14.2121 13.6153C13.7317 13.474 13.2504 13.8341 13.2504 14.3348V19.4946C13.2504 19.758 13.3887 20.0022 13.6146 20.1377L15.9068 21.5131C15.9821 21.5583 16.0282 21.6396 16.0282 21.7274V22.4706C16.0282 22.6333 15.8754 22.7526 15.7176 22.7132L12.0157 21.7877C11.8962 21.7578 11.7713 21.7578 11.6519 21.7877L7.94996 22.7132C7.79217 22.7526 7.63932 22.6333 7.63932 22.4706V21.7274C7.63932 21.6396 7.6854 21.5583 7.7607 21.5131L10.053 20.1377C10.2789 20.0022 10.4171 19.758 10.4171 19.4946V14.3348C10.4171 13.8341 9.93584 13.474 9.45548 13.6153L1.2932 16.016C1.13308 16.063 0.972656 15.943 0.972656 15.7761V14.5081C0.972656 14.4195 1.01954 14.3375 1.0959 14.2926L10.0474 9.02705C10.2764 8.8923 10.4171 8.64637 10.4171 8.3806V2.55546C10.4171 1.77131 11.0496 1.13879 11.8338 1.13879C12.6179 1.13879 13.2504 1.77131 13.2504 2.55546V8.3806C13.2504 8.64637 13.3911 8.8923 13.6202 9.02705L22.5716 14.2926C22.648 14.3375 22.6949 14.4195 22.6949 14.5081V15.7761Z" stroke="#DCDCDC" stroke-width="0.5"/>
</svg>
