<svg width="23" height="20" viewBox="0 0 23 20" fill="none" xmlns="http://www.w3.org/2000/svg">
<path d="M0.874986 11.7691H2.67599V18.7956C2.67599 19.2098 3.02343 19.5485 3.44788 19.5485H8.72236C9.1468 19.5485 9.49424 19.2098 9.49424 18.7956V13.6511H12.7103V18.7956C12.7103 19.2098 13.0577 19.5485 13.4822 19.5485H18.4993C18.9237 19.5485 19.2711 19.2098 19.2711 18.7956V11.7691H21.4581C21.7668 11.7691 22.0499 11.5807 22.1658 11.3048C22.2815 11.0287 22.2171 10.7025 21.9986 10.4892L11.9386 0.538874C11.6427 0.250242 11.1539 0.237725 10.858 0.526358L0.347688 10.4766C0.116123 10.69 0.0517676 11.0164 0.167643 11.3048C0.283147 11.5933 0.566232 11.7691 0.874986 11.7691ZM11.3722 2.13243L19.6056 10.2633H18.4993C18.0748 10.2633 17.7276 10.6022 17.7276 11.0162V18.0428H14.2541V12.8982C14.2541 12.4842 13.9068 12.1453 13.4822 12.1453H8.72236C8.29792 12.1453 7.95047 12.4842 7.95047 12.8982V18.0428H4.21976V11.0162C4.21976 10.602 3.87232 10.2633 3.44788 10.2633H2.77885L11.3722 2.13243Z" fill="#323232"/>
</svg>
