<svg width="26" height="27" viewBox="0 0 26 27" fill="none" xmlns="http://www.w3.org/2000/svg">
<path d="M24.0712 8.63554H17.7804V2.34469C17.7804 1.87753 17.5948 1.4295 17.2645 1.09917C16.9341 0.768832 16.4861 0.583252 16.019 0.583252H9.97974C9.51258 0.583252 9.06455 0.768832 8.73422 1.09917C8.40388 1.4295 8.2183 1.87753 8.2183 2.34469V8.63554H1.92745C1.46029 8.63554 1.01226 8.82112 0.681929 9.15145C0.351595 9.48179 0.166016 9.92981 0.166016 10.397V16.4362C0.166016 16.9034 0.351595 17.3514 0.681929 17.6817C1.01226 18.0121 1.46029 18.1976 1.92745 18.1976H8.2183V24.4885C8.2183 24.9556 8.40388 25.4037 8.73422 25.734C9.06455 26.0643 9.51258 26.2499 9.97974 26.2499H16.019C16.4861 26.2499 16.9341 26.0643 17.2645 25.734C17.5948 25.4037 17.7804 24.9556 17.7804 24.4885V18.1976H24.0712C24.5384 18.1976 24.9864 18.0121 25.3168 17.6817C25.6471 17.3514 25.8327 16.9034 25.8327 16.4362V10.397C25.8327 9.92981 25.6471 9.48179 25.3168 9.15145C24.9864 8.82112 24.5384 8.63554 24.0712 8.63554ZM24.3229 16.4362C24.3229 16.5029 24.2964 16.5669 24.2492 16.6141C24.202 16.6613 24.138 16.6878 24.0712 16.6878H17.0255C16.8253 16.6878 16.6333 16.7674 16.4917 16.9089C16.3501 17.0505 16.2706 17.2425 16.2706 17.4427V24.4885C16.2706 24.5552 16.2441 24.6192 16.1969 24.6664C16.1497 24.7136 16.0857 24.7401 16.019 24.7401H9.97974C9.913 24.7401 9.849 24.7136 9.80181 24.6664C9.75462 24.6192 9.72811 24.5552 9.72811 24.4885V17.4427C9.72811 17.2425 9.64857 17.0505 9.507 16.9089C9.36543 16.7674 9.17342 16.6878 8.9732 16.6878H1.92745C1.86072 16.6878 1.79671 16.6613 1.74952 16.6141C1.70233 16.5669 1.67582 16.5029 1.67582 16.4362V10.397C1.67582 10.3302 1.70233 10.2662 1.74952 10.219C1.79671 10.1719 1.86072 10.1453 1.92745 10.1453H8.9732C9.17342 10.1453 9.36543 10.0658 9.507 9.92424C9.64857 9.78267 9.72811 9.59065 9.72811 9.39044V2.34469C9.72811 2.27795 9.75462 2.21395 9.80181 2.16676C9.849 2.11957 9.913 2.09306 9.97974 2.09306H16.019C16.0857 2.09306 16.1497 2.11957 16.1969 2.16676C16.2441 2.21395 16.2706 2.27795 16.2706 2.34469V9.39044C16.2706 9.59065 16.3501 9.78267 16.4917 9.92424C16.6333 10.0658 16.8253 10.1453 17.0255 10.1453H24.0712C24.138 10.1453 24.202 10.1719 24.2492 10.219C24.2964 10.2662 24.3229 10.3302 24.3229 10.397V16.4362Z" fill="#323232"/>
</svg>
