<svg width="22" height="22" viewBox="0 0 22 22" fill="none" xmlns="http://www.w3.org/2000/svg">
<path d="M19.9674 7.37498H14.7591V2.16665C14.7591 1.77987 14.6055 1.40894 14.332 1.13545C14.0585 0.861958 13.6876 0.708313 13.3008 0.708313H8.30078C7.91401 0.708313 7.54307 0.861958 7.26958 1.13545C6.99609 1.40894 6.84245 1.77987 6.84245 2.16665V7.37498H1.63411C1.24734 7.37498 0.876408 7.52862 0.602917 7.80211C0.329427 8.0756 0.175781 8.44654 0.175781 8.83331V13.8333C0.175781 14.2201 0.329427 14.591 0.602917 14.8645C0.876408 15.138 1.24734 15.2916 1.63411 15.2916H6.84245V20.5C6.84245 20.8868 6.99609 21.2577 7.26958 21.5312C7.54307 21.8047 7.91401 21.9583 8.30078 21.9583H13.3008C13.6876 21.9583 14.0585 21.8047 14.332 21.5312C14.6055 21.2577 14.7591 20.8868 14.7591 20.5V15.2916H19.9674C20.3542 15.2916 20.7252 15.138 20.9986 14.8645C21.2721 14.591 21.4258 14.2201 21.4258 13.8333V8.83331C21.4258 8.44654 21.2721 8.0756 20.9986 7.80211C20.7252 7.52862 20.3542 7.37498 19.9674 7.37498ZM20.1758 13.8333C20.1758 13.8886 20.1538 13.9416 20.1148 13.9806C20.0757 14.0197 20.0227 14.0416 19.9674 14.0416H14.1341C13.9684 14.0416 13.8094 14.1075 13.6922 14.2247C13.575 14.3419 13.5091 14.5009 13.5091 14.6666V20.5C13.5091 20.5552 13.4872 20.6082 13.4481 20.6473C13.409 20.6864 13.356 20.7083 13.3008 20.7083H8.30078C8.24553 20.7083 8.19254 20.6864 8.15347 20.6473C8.1144 20.6082 8.09245 20.5552 8.09245 20.5V14.6666C8.09245 14.5009 8.0266 14.3419 7.90939 14.2247C7.79218 14.1075 7.63321 14.0416 7.46745 14.0416H1.63411C1.57886 14.0416 1.52587 14.0197 1.4868 13.9806C1.44773 13.9416 1.42578 13.8886 1.42578 13.8333V8.83331C1.42578 8.77806 1.44773 8.72507 1.4868 8.686C1.52587 8.64693 1.57886 8.62498 1.63411 8.62498H7.46745C7.63321 8.62498 7.79218 8.55913 7.90939 8.44192C8.0266 8.32471 8.09245 8.16574 8.09245 7.99998V2.16665C8.09245 2.11139 8.1144 2.0584 8.15347 2.01933C8.19254 1.98026 8.24553 1.95831 8.30078 1.95831H13.3008C13.356 1.95831 13.409 1.98026 13.4481 2.01933C13.4872 2.0584 13.5091 2.11139 13.5091 2.16665V7.99998C13.5091 8.16574 13.575 8.32471 13.6922 8.44192C13.8094 8.55913 13.9684 8.62498 14.1341 8.62498H19.9674C20.0227 8.62498 20.0757 8.64693 20.1148 8.686C20.1538 8.72507 20.1758 8.77806 20.1758 8.83331V13.8333Z" fill="#323232"/>
</svg>
