<svg width="31" height="33" viewBox="0 0 31 33" fill="none" xmlns="http://www.w3.org/2000/svg">
<rect x="0.5" width="2" height="33" rx="1" fill="#1B1B1B"/>
<path d="M13.315 8.50009C14.263 8.50009 15.0314 7.71657 15.0314 6.75005C15.0314 5.78352 14.263 5 13.315 5C12.3671 5 11.5986 5.78352 11.5986 6.75005C11.5986 7.71657 12.3671 8.50009 13.315 8.50009Z" fill="black"/>
<path d="M25.3093 21.865L22.8953 22.4803L21.9297 17.8858C21.8707 17.6107 21.7215 17.3643 21.5067 17.1873C21.2919 17.0102 21.0243 16.9131 20.7481 16.9119H16.2816L15.9562 14.0369H21.4765V12.3941H15.7704L15.5622 10.5548C15.544 10.394 15.4949 10.2385 15.4178 10.0971C15.3407 9.95571 15.237 9.83117 15.1126 9.73063C14.9883 9.63008 14.8458 9.55549 14.6931 9.51111C14.5405 9.46673 14.3808 9.45344 14.2232 9.47199L12.2224 9.70738L13.2239 18.5547H20.4227L21.6693 24.4863L25.7003 23.4588L25.3093 21.865Z" fill="black"/>
<path d="M13.4201 26.3591C12.0192 26.3589 10.6619 25.8624 9.58042 24.9545C8.49893 24.0466 7.76046 22.7838 7.49132 21.382C7.22219 19.9803 7.43912 18.5267 8.10501 17.2701C8.7709 16.0134 9.84436 15.0317 11.1418 14.4929L10.9515 12.8115C7.93893 13.861 5.7666 16.7759 5.7666 20.1984C5.7666 24.5013 9.19994 28.002 13.4201 28.002C14.7371 28.0013 16.0317 27.6542 17.1788 26.9943C18.3258 26.3344 19.2865 25.384 19.968 24.2348L19.4623 21.8413C18.6567 24.3056 16.3707 26.3591 13.4201 26.3591Z" fill="black"/>
<rect x="28.5" width="2" height="33" rx="1" fill="#1B1B1B"/>
</svg>
