<svg width="16" height="26" viewBox="0 0 16 26" fill="none" xmlns="http://www.w3.org/2000/svg">
<path d="M3 25.5C2.3125 25.5 1.72375 25.255 1.23375 24.765C0.743752 24.275 0.499169 23.6867 0.500002 23V13C0.500002 12.3125 0.745002 11.7238 1.235 11.2338C1.725 10.7438 2.31334 10.4992 3 10.5H13C13.6875 10.5 14.2763 10.745 14.7663 11.235C15.2563 11.725 15.5008 12.3133 15.5 13V23C15.5 23.6875 15.255 24.2763 14.765 24.7663C14.275 25.2563 13.6867 25.5008 13 25.5H3ZM13 13H3V23H13V13ZM0.500002 8V5.5H3V8H0.500002ZM13 8V5.5H15.5V8H13ZM6.75 3V0.500002H9.25V3H6.75ZM0.500002 3C0.500002 2.3125 0.745002 1.72375 1.235 1.23375C1.725 0.743752 2.31334 0.499169 3 0.500002V3H0.500002ZM13 3V0.500002C13.6875 0.500002 14.2763 0.745002 14.7663 1.235C15.2563 1.725 15.5008 2.31334 15.5 3H13Z" fill="black"/>
</svg>
