<svg width="31" height="31" viewBox="0 0 31 31" fill="none" xmlns="http://www.w3.org/2000/svg">
<path d="M15.75 26.75C13.125 26.75 10.8021 25.9529 8.78125 24.3587C6.76042 22.7646 5.44792 20.7283 4.84375 18.25C4.76042 17.9375 4.82292 17.6512 5.03125 17.3912C5.23959 17.1312 5.52084 16.98 5.875 16.9375C6.20834 16.8958 6.51042 16.9583 6.78125 17.125C7.05209 17.2917 7.23959 17.5417 7.34375 17.875C7.84375 19.75 8.875 21.2813 10.4375 22.4688C12 23.6563 13.7708 24.25 15.75 24.25C18.1875 24.25 20.2554 23.4008 21.9538 21.7025C23.6521 20.0042 24.5008 17.9367 24.5 15.5C24.5 13.0625 23.6508 10.9946 21.9525 9.29625C20.2542 7.59792 18.1867 6.74917 15.75 6.75C14.3125 6.75 12.9688 7.08333 11.7188 7.75C10.4688 8.41667 9.41667 9.33333 8.5625 10.5H10.75C11.1042 10.5 11.4013 10.62 11.6413 10.86C11.8813 11.1 12.0008 11.3967 12 11.75C12 12.1042 11.88 12.4013 11.64 12.6413C11.4 12.8813 11.1033 13.0008 10.75 13H5.75C5.39584 13 5.09875 12.88 4.85875 12.64C4.61875 12.4 4.49917 12.1033 4.5 11.75V6.75C4.5 6.39583 4.62 6.09875 4.86 5.85875C5.1 5.61875 5.39667 5.49917 5.75 5.5C6.10417 5.5 6.40125 5.62 6.64125 5.86C6.88125 6.1 7.00084 6.39667 7 6.75V8.4375C8.0625 7.10417 9.35959 6.07292 10.8913 5.34375C12.4229 4.61458 14.0425 4.25 15.75 4.25C17.3125 4.25 18.7763 4.54708 20.1413 5.14125C21.5063 5.73542 22.6938 6.53708 23.7038 7.54625C24.7138 8.55708 25.5158 9.74458 26.11 11.1088C26.7042 12.4729 27.0008 13.9367 27 15.5C27 17.0625 26.7029 18.5262 26.1088 19.8912C25.5146 21.2562 24.7129 22.4438 23.7038 23.4538C22.6929 24.4638 21.5054 25.2658 20.1413 25.86C18.7771 26.4542 17.3133 26.7508 15.75 26.75ZM17 15L20.125 18.125C20.3542 18.3542 20.4688 18.6458 20.4688 19C20.4688 19.3542 20.3542 19.6458 20.125 19.875C19.8958 20.1042 19.6042 20.2187 19.25 20.2187C18.8958 20.2187 18.6042 20.1042 18.375 19.875L14.875 16.375C14.75 16.25 14.6563 16.1096 14.5938 15.9537C14.5313 15.7979 14.5 15.6363 14.5 15.4688V10.5C14.5 10.1458 14.62 9.84875 14.86 9.60875C15.1 9.36875 15.3967 9.24917 15.75 9.25C16.1042 9.25 16.4013 9.37 16.6413 9.61C16.8813 9.85 17.0008 10.1467 17 10.5V15Z" fill="#323232"/>
</svg>
