<svg width="31" height="31" viewBox="0 0 31 31" fill="none" xmlns="http://www.w3.org/2000/svg">
<path d="M17.3128 0.5H13.6866C12.9624 0.5 12.3625 1.04279 12.2912 1.76211L11.9194 3.98985C11.2209 4.20701 10.5423 4.48907 9.89392 4.8301L8.02804 3.4976C7.80495 3.3127 7.48971 3.19971 7.16647 3.19971C6.79167 3.19971 6.43975 3.34588 6.17451 3.61113L3.61064 6.17505C3.09858 6.68711 3.05892 7.49515 3.51745 8.05529L4.8301 9.89392C4.48804 10.5433 4.20647 11.2225 3.98985 11.919L1.72936 12.2962C1.04328 12.3621 0.5 12.9619 0.5 13.6872V17.3128C0.5 18.0371 1.04279 18.6369 1.76211 18.7088L3.98985 19.0816C4.20745 19.7811 4.48951 20.4597 4.82961 21.1061L3.4976 22.972C3.05838 23.5049 3.09804 24.3129 3.61064 24.8245L6.175 27.3894C6.66926 27.8826 7.51544 27.9237 8.05377 27.4835L9.8949 26.1703C10.5408 26.5109 11.2195 26.7925 11.9194 27.0101L12.2956 29.2701C12.3626 29.9572 12.9629 30.5 13.6872 30.5H17.3133C18.0366 30.5 18.6364 29.9577 18.7093 29.2389L19.0816 27.0101C19.7806 26.7925 20.4592 26.5109 21.1056 26.1703L22.972 27.5028C23.1946 27.6873 23.5099 27.7998 23.833 27.7998C24.2078 27.7998 24.5598 27.6541 24.8245 27.3894L27.3884 24.8245C27.9 24.3144 27.9411 23.5069 27.4835 22.9462L26.1704 21.1061C26.5114 20.4597 26.7925 19.781 27.0101 19.0816L29.2706 18.7043C29.9577 18.6369 30.5 18.0371 30.5 17.3128V13.6872C30.5 12.9619 29.9572 12.3626 29.2369 12.2927L27.0101 11.9204C26.7925 11.2205 26.5109 10.5413 26.1703 9.89495L27.5028 8.02951C27.9416 7.49466 27.9004 6.68613 27.3878 6.17554L24.8245 3.61216C24.3322 3.11941 23.484 3.07583 22.9442 3.51848L21.1056 4.83069C20.4572 4.48912 19.7786 4.20706 19.0816 3.99039L18.7038 1.72941C18.6364 1.0428 18.0366 0.5 17.3128 0.5ZM9.85819 5.90976C9.94147 5.90976 10.0252 5.88897 10.1006 5.84632C10.8561 5.42294 11.6601 5.08936 12.4925 4.85392C12.6769 4.80186 12.8147 4.6477 12.8464 4.45833L13.2732 1.89245C13.298 1.65353 13.4779 1.49142 13.6866 1.49142H17.3128C17.5215 1.49142 17.701 1.65304 17.7213 1.85975L18.1541 4.45833C18.1853 4.64721 18.3236 4.80137 18.508 4.85343C19.3383 5.08843 20.1424 5.42206 20.8984 5.84588C21.0654 5.94005 21.2727 5.92863 21.4288 5.81662L23.546 4.30416C23.7597 4.13216 23.9773 4.16789 24.122 4.31211L26.6864 6.87647C26.8371 7.02662 26.8489 7.26314 26.7151 7.42716L25.1824 9.5702C25.0703 9.72637 25.0594 9.93304 25.1531 10.1011C25.5764 10.8536 25.9096 11.6576 26.1446 12.4915C26.1966 12.6764 26.3507 12.8142 26.5406 12.8459L29.107 13.2737C29.3459 13.2985 29.508 13.4774 29.508 13.6862V17.3119C29.508 17.5205 29.3464 17.7005 29.1397 17.7208L26.5411 18.1531C26.3513 18.1848 26.1975 18.3226 26.1451 18.5075C25.91 19.3413 25.5764 20.1454 25.1536 20.8969C25.0599 21.065 25.0708 21.2717 25.1828 21.4278L26.6963 23.546C26.8495 23.7353 26.8371 23.9713 26.6874 24.121L24.123 26.6864C23.9788 26.8307 23.7304 26.843 23.5738 26.7147L21.4293 25.1814C21.2731 25.0694 21.0659 25.0585 20.8989 25.1522C20.1459 25.575 19.3418 25.9086 18.5085 26.1446C18.3241 26.1962 18.1863 26.3508 18.1546 26.5402L17.7273 29.106C17.701 29.35 17.525 29.5085 17.3128 29.5085H13.6866C13.474 29.5085 13.2985 29.3504 13.2776 29.1402L12.8464 26.5422C12.8151 26.3528 12.6769 26.1986 12.4925 26.1466C11.6576 25.9101 10.8536 25.577 10.1026 25.1541C9.93407 25.0604 9.72735 25.0713 9.57167 25.1834L7.45245 26.6968C7.23926 26.8674 7.02069 26.8331 6.87642 26.6879L4.31211 24.1235C4.1624 23.9738 4.15098 23.7378 4.28485 23.5748L5.81711 21.4298C5.92917 21.2731 5.94005 21.0664 5.84637 20.8988C5.42402 20.1473 5.09039 19.3433 4.85392 18.509C4.80235 18.3246 4.6477 18.1867 4.45833 18.155L1.8925 17.7272C1.64956 17.7014 1.49147 17.5254 1.49147 17.3127V13.6871C1.49147 13.4749 1.64912 13.2994 1.85877 13.2791L4.45784 12.8469C4.64721 12.8156 4.80137 12.6773 4.85343 12.4925C5.08789 11.6631 5.42152 10.8585 5.84588 10.1011C5.93961 9.93353 5.92868 9.7273 5.81662 9.57113L4.30417 7.45392C4.14951 7.26358 4.16137 7.02765 4.31157 6.8774L6.87593 4.31353C7.02167 4.16829 7.26907 4.15539 7.4252 4.28529L9.56971 5.81755C9.65593 5.87858 9.75706 5.90976 9.85819 5.90976ZM15.5005 9.56623C12.2277 9.56623 9.56525 12.2282 9.56525 15.5005C9.56525 18.7732 12.2277 21.4357 15.5005 21.4357C18.7733 21.4357 21.4352 18.7732 21.4352 15.5005C21.4348 12.2288 18.7727 9.56623 15.5005 9.56623ZM15.5005 20.4443C12.7746 20.4443 10.5567 18.2264 10.5567 15.5005C10.5567 12.775 12.7745 10.5577 15.5005 10.5577C18.226 10.5577 20.4438 12.775 20.4438 15.5005C20.4433 18.2265 18.2259 20.4443 15.5005 20.4443Z" fill="#323232"/>
</svg>
