<svg width="31" height="31" viewBox="0 0 31 31" fill="none" xmlns="http://www.w3.org/2000/svg">
<g opacity="0.4">
<path d="M8.91675 16.75H17.6668C18.0209 16.75 18.318 16.63 18.558 16.39C18.798 16.15 18.9176 15.8533 18.9168 15.5C18.9168 15.1458 18.7968 14.8488 18.5568 14.6088C18.3168 14.3688 18.0201 14.2492 17.6668 14.25H8.91675C8.56258 14.25 8.2655 14.37 8.0255 14.61C7.7855 14.85 7.66592 15.1467 7.66675 15.5C7.66675 15.8542 7.78675 16.1513 8.02675 16.3913C8.26675 16.6313 8.56342 16.7508 8.91675 16.75ZM8.91675 13H17.6668C18.0209 13 18.318 12.88 18.558 12.64C18.798 12.4 18.9176 12.1033 18.9168 11.75C18.9168 11.3958 18.7968 11.0988 18.5568 10.8588C18.3168 10.6188 18.0201 10.4992 17.6668 10.5H8.91675C8.56258 10.5 8.2655 10.62 8.0255 10.86C7.7855 11.1 7.66592 11.3967 7.66675 11.75C7.66675 12.1042 7.78675 12.4013 8.02675 12.6413C8.26675 12.8813 8.56342 13.0008 8.91675 13ZM5.16675 25.5C4.47925 25.5 3.8905 25.255 3.4005 24.765C2.9105 24.275 2.66592 23.6867 2.66675 23V8C2.66675 7.3125 2.91175 6.72375 3.40175 6.23375C3.89175 5.74375 4.48008 5.49917 5.16675 5.5H25.1668C25.8543 5.5 26.443 5.745 26.933 6.235C27.423 6.725 27.6676 7.31334 27.6668 8V23C27.6668 23.6875 27.4218 24.2763 26.9318 24.7663C26.4418 25.2563 25.8534 25.5008 25.1668 25.5H5.16675ZM5.16675 23H25.1668V8H5.16675V23Z" fill="#3F3F3F"/>
</g>
</svg>
