<svg width="31" height="31" viewBox="0 0 31 31" fill="none" xmlns="http://www.w3.org/2000/svg">
<path d="M14.25 19.25H16.75V21.75H14.25V19.25ZM14.25 9.25H16.75V16.75H14.25V9.25ZM15.5 3C8.5875 3 3 8.625 3 15.5C3 18.8152 4.31696 21.9946 6.66117 24.3388C7.8219 25.4996 9.19989 26.4203 10.7165 27.0485C12.233 27.6767 13.8585 28 15.5 28C18.8152 28 21.9946 26.683 24.3388 24.3388C26.683 21.9946 28 18.8152 28 15.5C28 13.8585 27.6767 12.233 27.0485 10.7165C26.4203 9.19989 25.4996 7.8219 24.3388 6.66117C23.1781 5.50043 21.8001 4.57969 20.2835 3.95151C18.767 3.32332 17.1415 3 15.5 3ZM15.5 25.5C12.8478 25.5 10.3043 24.4464 8.42893 22.5711C6.55357 20.6957 5.5 18.1522 5.5 15.5C5.5 12.8478 6.55357 10.3043 8.42893 8.42893C10.3043 6.55357 12.8478 5.5 15.5 5.5C18.1522 5.5 20.6957 6.55357 22.5711 8.42893C24.4464 10.3043 25.5 12.8478 25.5 15.5C25.5 18.1522 24.4464 20.6957 22.5711 22.5711C20.6957 24.4464 18.1522 25.5 15.5 25.5Z" fill="#777777"/>
</svg>
