<svg width="31" height="31" viewBox="0 0 31 31" fill="none" xmlns="http://www.w3.org/2000/svg">
<path d="M11.5 25.8138H5.875C5.62636 25.8138 5.3879 25.7151 5.21209 25.5392C5.03627 25.3634 4.9375 25.125 4.9375 24.8763V19.6396C4.9375 19.5165 4.96175 19.3946 5.00886 19.2809C5.05598 19.1671 5.12503 19.0638 5.21209 18.9767L19.2746 4.91424C19.4504 4.73842 19.6889 4.63965 19.9375 4.63965C20.1861 4.63965 20.4246 4.73842 20.6004 4.91424L25.8371 10.1509C26.0129 10.3267 26.1117 10.5652 26.1117 10.8138C26.1117 11.0625 26.0129 11.3009 25.8371 11.4767L11.5 25.8138Z" stroke="#323232" stroke-linecap="round" stroke-linejoin="round"/>
<path d="M16.1875 8L22.75 14.5625" stroke="#323232" stroke-linecap="round" stroke-linejoin="round"/>
</svg>
