<svg width="16" height="16" viewBox="0 0 16 16" fill="none" xmlns="http://www.w3.org/2000/svg">
<path d="M14.875 5.03125H10.9688V1.125C10.9688 0.834919 10.8535 0.55672 10.6484 0.351602C10.4433 0.146484 10.1651 0.03125 9.875 0.03125H6.125C5.83492 0.03125 5.55672 0.146484 5.3516 0.351602C5.14648 0.55672 5.03125 0.834919 5.03125 1.125V5.03125H1.125C0.834919 5.03125 0.55672 5.14648 0.351602 5.3516C0.146484 5.55672 0.03125 5.83492 0.03125 6.125V9.875C0.03125 10.1651 0.146484 10.4433 0.351602 10.6484C0.55672 10.8535 0.834919 10.9688 1.125 10.9688H5.03125V14.875C5.03125 15.1651 5.14648 15.4433 5.3516 15.6484C5.55672 15.8535 5.83492 15.9688 6.125 15.9688H9.875C10.1651 15.9688 10.4433 15.8535 10.6484 15.6484C10.8535 15.4433 10.9688 15.1651 10.9688 14.875V10.9688H14.875C15.1651 10.9688 15.4433 10.8535 15.6484 10.6484C15.8535 10.4433 15.9688 10.1651 15.9688 9.875V6.125C15.9688 5.83492 15.8535 5.55672 15.6484 5.3516C15.4433 5.14648 15.1651 5.03125 14.875 5.03125ZM15.0312 9.875C15.0312 9.91644 15.0148 9.95618 14.9855 9.98549C14.9562 10.0148 14.9164 10.0312 14.875 10.0312H10.5C10.3757 10.0312 10.2565 10.0806 10.1685 10.1685C10.0806 10.2565 10.0312 10.3757 10.0312 10.5V14.875C10.0312 14.9164 10.0148 14.9562 9.98549 14.9855C9.95618 15.0148 9.91644 15.0312 9.875 15.0312H6.125C6.08356 15.0312 6.04382 15.0148 6.01451 14.9855C5.98521 14.9562 5.96875 14.9164 5.96875 14.875V10.5C5.96875 10.3757 5.91936 10.2565 5.83146 10.1685C5.74355 10.0806 5.62432 10.0312 5.5 10.0312H1.125C1.08356 10.0312 1.04382 10.0148 1.01451 9.98549C0.985212 9.95618 0.96875 9.91644 0.96875 9.875V6.125C0.96875 6.08356 0.985212 6.04382 1.01451 6.01451C1.04382 5.98521 1.08356 5.96875 1.125 5.96875H5.5C5.62432 5.96875 5.74355 5.91936 5.83146 5.83146C5.91936 5.74355 5.96875 5.62432 5.96875 5.5V1.125C5.96875 1.08356 5.98521 1.04382 6.01451 1.01451C6.04382 0.985212 6.08356 0.96875 6.125 0.96875H9.875C9.91644 0.96875 9.95618 0.985212 9.98549 1.01451C10.0148 1.04382 10.0312 1.08356 10.0312 1.125V5.5C10.0312 5.62432 10.0806 5.74355 10.1685 5.83146C10.2565 5.91936 10.3757 5.96875 10.5 5.96875H14.875C14.9164 5.96875 14.9562 5.98521 14.9855 6.01451C15.0148 6.04382 15.0312 6.08356 15.0312 6.125V9.875Z" fill="#323232"/>
</svg>
