<svg width="14" height="18" viewBox="0 0 14 18" fill="none" xmlns="http://www.w3.org/2000/svg">
<path d="M13.291 8.16404C12.9118 7.31063 12.3606 6.54466 11.6719 5.91404L11.1035 5.39255C11.0842 5.37533 11.061 5.36311 11.0359 5.35697C11.0107 5.35082 10.9845 5.35093 10.9594 5.35729C10.9344 5.36366 10.9112 5.37608 10.8921 5.39346C10.8729 5.41085 10.8584 5.43267 10.8496 5.45701L10.5957 6.18552C10.4375 6.64255 10.1465 7.10935 9.73438 7.56834C9.70703 7.59763 9.67578 7.60545 9.6543 7.6074C9.63281 7.60935 9.59961 7.60545 9.57031 7.5781C9.54297 7.55466 9.5293 7.51951 9.53125 7.48435C9.60352 6.30857 9.25195 4.9824 8.48242 3.53904C7.8457 2.33982 6.96094 1.40427 5.85547 0.75193L5.04883 0.277321C4.94336 0.214821 4.80859 0.296852 4.81445 0.419899L4.85742 1.3574C4.88672 1.99802 4.8125 2.56443 4.63672 3.03513C4.42188 3.6113 4.11328 4.14646 3.71875 4.62693C3.44419 4.96084 3.13299 5.26287 2.79102 5.52732C1.96739 6.16046 1.29768 6.97172 0.832031 7.90037C0.367527 8.83711 0.125567 9.86845 0.125 10.914C0.125 11.8359 0.306641 12.7285 0.666016 13.5703C1.01302 14.3808 1.51379 15.1163 2.14063 15.7363C2.77344 16.3613 3.50781 16.8535 4.32617 17.1953C5.17383 17.5508 6.07227 17.7304 7 17.7304C7.92773 17.7304 8.82617 17.5508 9.67383 17.1972C10.4902 16.8574 11.2325 16.3619 11.8594 15.7383C12.4922 15.1133 12.9883 14.3828 13.334 13.5722C13.6928 12.7327 13.8769 11.829 13.875 10.916C13.875 9.96287 13.6797 9.03709 13.291 8.16404ZM10.9258 14.791C9.87695 15.8301 8.48438 16.4004 7 16.4004C5.51562 16.4004 4.12305 15.8301 3.07422 14.791C2.0293 13.7539 1.45312 12.3789 1.45312 10.916C1.45312 10.0664 1.64453 9.25193 2.02148 8.49412C2.38867 7.75388 2.93555 7.09177 3.59961 6.58201C4.02312 6.25817 4.40725 5.88584 4.74414 5.47263C5.23242 4.87693 5.61523 4.21287 5.88086 3.49998C5.98982 3.20591 6.06899 2.90165 6.11719 2.59177C6.58789 3.02537 6.98242 3.5488 7.3125 4.16209C7.96484 5.38474 8.26562 6.47263 8.20703 7.39841C8.19303 7.61645 8.22864 7.83483 8.31119 8.03713C8.39373 8.23942 8.52105 8.42038 8.68359 8.56638C8.82445 8.69362 8.98919 8.7916 9.16823 8.85464C9.34728 8.91767 9.53706 8.9445 9.72656 8.93357C10.1113 8.91404 10.4648 8.74412 10.7227 8.45701C10.9824 8.16599 11.207 7.86912 11.3945 7.56638C11.668 7.91599 11.8965 8.29685 12.0781 8.70701C12.3887 9.40623 12.5469 10.1504 12.5469 10.916C12.5469 12.3789 11.9707 13.7558 10.9258 14.791Z" fill="black"/>
</svg>
