<svg width="26" height="25" viewBox="0 0 26 25" fill="none" xmlns="http://www.w3.org/2000/svg">
<mask id="path-1-inside-1_6642_43135" fill="white">
<path d="M18.4168 23.3334H6.7501C6.52012 23.3334 6.33345 23.5201 6.33345 23.7501V24.5834C6.33345 24.8134 6.52012 25.0001 6.7501 25.0001C6.98008 25.0001 7.16675 24.8134 7.16675 24.5834V24.1668H18.4168C18.6468 24.1668 18.8334 23.9801 18.8334 23.7501C18.8334 23.5201 18.6468 23.3334 18.4168 23.3334Z"/>
<path d="M9.66671 10.4167C9.66671 10.6467 9.85338 10.8333 10.0834 10.8333H11.7501C11.98 10.8333 12.1667 10.6467 12.1667 10.4167V7.91667C12.1667 7.68669 11.98 7.50002 11.7501 7.50002H10.0834C9.85343 7.50002 9.66676 7.68669 9.66676 7.91667L9.66671 10.4167ZM10.5001 8.33337H11.3334V10H10.5001V8.33337Z"/>
<path d="M5.91667 5.00001H0.916652C0.68667 5.00001 0.5 5.18669 0.5 5.41667V13.75C0.5 13.98 0.68667 14.1667 0.916652 14.1667C1.14663 14.1667 1.3333 13.98 1.3333 13.75V5.83337H5.91667C6.14665 5.83337 6.33332 5.6467 6.33332 5.41672C6.33332 5.18673 6.1467 5.00001 5.91667 5.00001Z"/>
<path d="M20.5 20.4167C20.5 20.6467 20.6867 20.8334 20.9167 20.8334H22.5833C22.8133 20.8334 23 20.6467 23 20.4167V17.9167C23 17.6867 22.8133 17.5 22.5833 17.5H20.9167C20.6867 17.5 20.5 17.6867 20.5 17.9167V20.4167ZM21.3334 18.3334H22.1667V20.0001H21.3334V18.3334Z"/>
<path d="M2.58336 15C0.52373 15 0.5 20.3626 0.5 20.4167C0.5 21.423 1.21709 22.2642 2.16665 22.458V24.5834C2.16665 24.8134 2.35333 25.0001 2.58331 25.0001C2.81329 25.0001 2.99996 24.8134 2.99996 24.5834V22.458C3.94952 22.2642 4.66661 21.423 4.66661 20.4167C4.66666 20.3626 4.64293 15 2.58336 15ZM2.58336 21.6667C1.89419 21.6667 1.33335 21.1059 1.33335 20.4167C1.33335 18.3409 1.89087 15.8333 2.58336 15.8333C3.27584 15.8333 3.83336 18.3409 3.83336 20.4167C3.83336 21.1059 3.27252 21.6667 2.58336 21.6667Z"/>
<path d="M5.08329 12.5H3.41658C3.1866 12.5 2.99993 12.6867 2.99993 12.9167V13.75C2.99993 13.98 3.1866 14.1667 3.41658 14.1667C3.64656 14.1667 3.83323 13.98 3.83323 13.75V13.3334H4.66659V15.4167C4.66659 15.6467 4.85326 15.8334 5.08324 15.8334C5.31322 15.8334 5.49989 15.6467 5.49989 15.4167V12.9167C5.49994 12.6867 5.31327 12.5 5.08329 12.5Z"/>
<path d="M20.9167 10.8334H22.5833C22.8133 10.8334 23 10.6467 23 10.4167V7.91672C23 7.68674 22.8133 7.50007 22.5833 7.50007H20.9167C20.6867 7.50007 20.5 7.68674 20.5 7.91672V10.4167C20.5 10.6467 20.6867 10.8334 20.9167 10.8334ZM21.3334 8.33337H22.1667V10H21.3334V8.33337Z"/>
<path d="M5.08329 7.50002H3.41658C3.1866 7.50002 2.99993 7.68669 2.99993 7.91667V10.4167C2.99993 10.6467 3.1866 10.8333 3.41658 10.8333H5.08324C5.31322 10.8333 5.49989 10.6467 5.49989 10.4167V7.91667C5.49994 7.68669 5.31327 7.50002 5.08329 7.50002ZM4.66659 10H3.83328V8.33337H4.66663L4.66659 10Z"/>
<path d="M13.8334 10.4167C13.8334 10.6467 14.0201 10.8333 14.2501 10.8333H15.9167C16.1467 10.8333 16.3334 10.6467 16.3334 10.4167V7.91667C16.3334 7.68669 16.1467 7.50002 15.9167 7.50002H14.2501C14.0201 7.50002 13.8334 7.68669 13.8334 7.91667V10.4167ZM14.6667 8.33337H15.5001V10H14.6667V8.33337Z"/>
<path d="M25.0833 5.00001H20.0833C19.8534 5.00001 19.6667 5.18669 19.6667 5.41667C19.6667 5.64665 19.8534 5.83332 20.0833 5.83332H24.6667V22.5767C24.5359 22.53 24.3971 22.5001 24.25 22.5001C24.178 22.5001 24.1063 22.5063 24.0359 22.5188C23.7484 22.0009 23.2013 21.6667 22.5834 21.6667C21.9655 21.6667 21.4184 22.0009 21.1309 22.5188C21.0605 22.5063 20.9888 22.5001 20.9167 22.5001C20.2276 22.5001 19.6667 23.0609 19.6667 23.7501C19.6667 24.4392 20.2276 25.0001 20.9167 25.0001H24.25C24.9392 25.0001 25.5 24.4392 25.5 23.7501V5.41667C25.5 5.18669 25.3133 5.00001 25.0833 5.00001ZM24.25 24.1667H20.9166C20.687 24.1667 20.5 23.9797 20.5 23.7501C20.5 23.5205 20.687 23.3334 20.9166 23.3334C20.9966 23.3334 21.0724 23.3563 21.1425 23.4013C21.2566 23.4747 21.3992 23.488 21.525 23.4372C21.6508 23.3864 21.7437 23.2772 21.7742 23.1451C21.8621 22.7655 22.195 22.5001 22.5833 22.5001C22.9717 22.5001 23.3046 22.7655 23.3925 23.1451C23.4229 23.2772 23.5159 23.3864 23.6417 23.4372C23.7671 23.488 23.91 23.4747 24.0242 23.4013C24.2955 23.2263 24.6667 23.4405 24.6667 23.7501C24.6666 23.9797 24.4796 24.1667 24.25 24.1667Z"/>
<path d="M14.2501 5.83337H15.9167C16.1467 5.83337 16.3334 5.64669 16.3334 5.41671V2.91671C16.3334 2.68673 16.1467 2.50006 15.9167 2.50006H14.2501C14.0201 2.50006 13.8334 2.68673 13.8334 2.91671V5.41671C13.8334 5.64669 14.0201 5.83337 14.2501 5.83337ZM14.6667 3.33336H15.5001V5.00001H14.6667V3.33336Z"/>
<path d="M13.8334 15.4167C13.8334 15.6467 14.0201 15.8333 14.2501 15.8333H15.9167C16.1467 15.8333 16.3334 15.6467 16.3334 15.4167V12.9167C16.3334 12.6867 16.1467 12.5 15.9167 12.5H14.2501C14.0201 12.5 13.8334 12.6867 13.8334 12.9167V15.4167ZM14.6667 13.3334H15.5001V15H14.6667V13.3334Z"/>
<path d="M10.0834 5.83337H11.7501C11.9801 5.83337 12.1667 5.64669 12.1667 5.41671V2.91671C12.1667 2.68673 11.9801 2.50006 11.7501 2.50006H10.0834C9.85344 2.50006 9.66677 2.68673 9.66677 2.91671V5.41671C9.66672 5.64669 9.85339 5.83337 10.0834 5.83337ZM10.5001 3.33336H11.3334V5.00001H10.5001V3.33336Z"/>
<path d="M12.7043 20.1209C12.6293 20.2001 12.5834 20.3084 12.5834 20.4168C12.5834 20.5251 12.6293 20.6334 12.7043 20.7126C12.7834 20.7876 12.8918 20.8335 13.0001 20.8335C13.1085 20.8335 13.2168 20.7876 13.296 20.7126C13.371 20.6335 13.4168 20.5251 13.4168 20.4168C13.4168 20.3084 13.371 20.2001 13.296 20.1209C13.1376 19.9667 12.8626 19.9667 12.7043 20.1209Z"/>
<path d="M9.66671 15.4167C9.66671 15.6467 9.85338 15.8333 10.0834 15.8333H11.7501C11.98 15.8333 12.1667 15.6467 12.1667 15.4167V12.9167C12.1667 12.6867 11.98 12.5 11.7501 12.5H10.0834C9.85343 12.5 9.66676 12.6867 9.66676 12.9167L9.66671 15.4167ZM10.5001 13.3334H11.3334V15H10.5001V13.3334Z"/>
<path d="M8.83338 17.9167C8.83338 18.1467 9.02005 18.3334 9.25003 18.3334H10.5V22.0834C10.5 22.3133 10.6867 22.5 10.9167 22.5C11.1467 22.5 11.3333 22.3133 11.3333 22.0834V18.3334H14.6667V22.0834C14.6667 22.3133 14.8534 22.5 15.0834 22.5C15.3133 22.5 15.5 22.3133 15.5 22.0834V18.3334H16.75C16.98 18.3334 17.1667 18.1467 17.1667 17.9167C17.1667 17.6867 16.98 17.5 16.75 17.5H9.25003C9.02005 17.5 8.83338 17.6867 8.83338 17.9167Z"/>
<path d="M20.5 15.4167C20.5 15.6467 20.6867 15.8333 20.9167 15.8333H22.5833C22.8133 15.8333 23 15.6467 23 15.4167V12.9167C23 12.6867 22.8133 12.5 22.5833 12.5H20.9167C20.6867 12.5 20.5 12.6867 20.5 12.9167V15.4167ZM21.3334 13.3334H22.1667V15H21.3334V13.3334Z"/>
<path d="M18.4166 0H7.5833C7.35332 0 7.16665 0.18667 7.16665 0.416652V22.0834C7.16665 22.3133 7.35332 22.5 7.5833 22.5C7.81328 22.5 7.99995 22.3133 7.99995 22.0834V0.833303H18V22.0834C18 22.3133 18.1866 22.5 18.4166 22.5C18.6466 22.5 18.8333 22.3133 18.8333 22.0834V0.416652C18.8333 0.18667 18.6467 0 18.4166 0Z"/>
</mask>
<path d="M18.4168 23.3334H6.7501C6.52012 23.3334 6.33345 23.5201 6.33345 23.7501V24.5834C6.33345 24.8134 6.52012 25.0001 6.7501 25.0001C6.98008 25.0001 7.16675 24.8134 7.16675 24.5834V24.1668H18.4168C18.6468 24.1668 18.8334 23.9801 18.8334 23.7501C18.8334 23.5201 18.6468 23.3334 18.4168 23.3334Z" fill="#283237"/>
<path d="M9.66671 10.4167C9.66671 10.6467 9.85338 10.8333 10.0834 10.8333H11.7501C11.98 10.8333 12.1667 10.6467 12.1667 10.4167V7.91667C12.1667 7.68669 11.98 7.50002 11.7501 7.50002H10.0834C9.85343 7.50002 9.66676 7.68669 9.66676 7.91667L9.66671 10.4167ZM10.5001 8.33337H11.3334V10H10.5001V8.33337Z" fill="#283237"/>
<path d="M5.91667 5.00001H0.916652C0.68667 5.00001 0.5 5.18669 0.5 5.41667V13.75C0.5 13.98 0.68667 14.1667 0.916652 14.1667C1.14663 14.1667 1.3333 13.98 1.3333 13.75V5.83337H5.91667C6.14665 5.83337 6.33332 5.6467 6.33332 5.41672C6.33332 5.18673 6.1467 5.00001 5.91667 5.00001Z" fill="#283237"/>
<path d="M20.5 20.4167C20.5 20.6467 20.6867 20.8334 20.9167 20.8334H22.5833C22.8133 20.8334 23 20.6467 23 20.4167V17.9167C23 17.6867 22.8133 17.5 22.5833 17.5H20.9167C20.6867 17.5 20.5 17.6867 20.5 17.9167V20.4167ZM21.3334 18.3334H22.1667V20.0001H21.3334V18.3334Z" fill="#283237"/>
<path d="M2.58336 15C0.52373 15 0.5 20.3626 0.5 20.4167C0.5 21.423 1.21709 22.2642 2.16665 22.458V24.5834C2.16665 24.8134 2.35333 25.0001 2.58331 25.0001C2.81329 25.0001 2.99996 24.8134 2.99996 24.5834V22.458C3.94952 22.2642 4.66661 21.423 4.66661 20.4167C4.66666 20.3626 4.64293 15 2.58336 15ZM2.58336 21.6667C1.89419 21.6667 1.33335 21.1059 1.33335 20.4167C1.33335 18.3409 1.89087 15.8333 2.58336 15.8333C3.27584 15.8333 3.83336 18.3409 3.83336 20.4167C3.83336 21.1059 3.27252 21.6667 2.58336 21.6667Z" fill="#283237"/>
<path d="M5.08329 12.5H3.41658C3.1866 12.5 2.99993 12.6867 2.99993 12.9167V13.75C2.99993 13.98 3.1866 14.1667 3.41658 14.1667C3.64656 14.1667 3.83323 13.98 3.83323 13.75V13.3334H4.66659V15.4167C4.66659 15.6467 4.85326 15.8334 5.08324 15.8334C5.31322 15.8334 5.49989 15.6467 5.49989 15.4167V12.9167C5.49994 12.6867 5.31327 12.5 5.08329 12.5Z" fill="#283237"/>
<path d="M20.9167 10.8334H22.5833C22.8133 10.8334 23 10.6467 23 10.4167V7.91672C23 7.68674 22.8133 7.50007 22.5833 7.50007H20.9167C20.6867 7.50007 20.5 7.68674 20.5 7.91672V10.4167C20.5 10.6467 20.6867 10.8334 20.9167 10.8334ZM21.3334 8.33337H22.1667V10H21.3334V8.33337Z" fill="#283237"/>
<path d="M5.08329 7.50002H3.41658C3.1866 7.50002 2.99993 7.68669 2.99993 7.91667V10.4167C2.99993 10.6467 3.1866 10.8333 3.41658 10.8333H5.08324C5.31322 10.8333 5.49989 10.6467 5.49989 10.4167V7.91667C5.49994 7.68669 5.31327 7.50002 5.08329 7.50002ZM4.66659 10H3.83328V8.33337H4.66663L4.66659 10Z" fill="#283237"/>
<path d="M13.8334 10.4167C13.8334 10.6467 14.0201 10.8333 14.2501 10.8333H15.9167C16.1467 10.8333 16.3334 10.6467 16.3334 10.4167V7.91667C16.3334 7.68669 16.1467 7.50002 15.9167 7.50002H14.2501C14.0201 7.50002 13.8334 7.68669 13.8334 7.91667V10.4167ZM14.6667 8.33337H15.5001V10H14.6667V8.33337Z" fill="#283237"/>
<path d="M25.0833 5.00001H20.0833C19.8534 5.00001 19.6667 5.18669 19.6667 5.41667C19.6667 5.64665 19.8534 5.83332 20.0833 5.83332H24.6667V22.5767C24.5359 22.53 24.3971 22.5001 24.25 22.5001C24.178 22.5001 24.1063 22.5063 24.0359 22.5188C23.7484 22.0009 23.2013 21.6667 22.5834 21.6667C21.9655 21.6667 21.4184 22.0009 21.1309 22.5188C21.0605 22.5063 20.9888 22.5001 20.9167 22.5001C20.2276 22.5001 19.6667 23.0609 19.6667 23.7501C19.6667 24.4392 20.2276 25.0001 20.9167 25.0001H24.25C24.9392 25.0001 25.5 24.4392 25.5 23.7501V5.41667C25.5 5.18669 25.3133 5.00001 25.0833 5.00001ZM24.25 24.1667H20.9166C20.687 24.1667 20.5 23.9797 20.5 23.7501C20.5 23.5205 20.687 23.3334 20.9166 23.3334C20.9966 23.3334 21.0724 23.3563 21.1425 23.4013C21.2566 23.4747 21.3992 23.488 21.525 23.4372C21.6508 23.3864 21.7437 23.2772 21.7742 23.1451C21.8621 22.7655 22.195 22.5001 22.5833 22.5001C22.9717 22.5001 23.3046 22.7655 23.3925 23.1451C23.4229 23.2772 23.5159 23.3864 23.6417 23.4372C23.7671 23.488 23.91 23.4747 24.0242 23.4013C24.2955 23.2263 24.6667 23.4405 24.6667 23.7501C24.6666 23.9797 24.4796 24.1667 24.25 24.1667Z" fill="#283237"/>
<path d="M14.2501 5.83337H15.9167C16.1467 5.83337 16.3334 5.64669 16.3334 5.41671V2.91671C16.3334 2.68673 16.1467 2.50006 15.9167 2.50006H14.2501C14.0201 2.50006 13.8334 2.68673 13.8334 2.91671V5.41671C13.8334 5.64669 14.0201 5.83337 14.2501 5.83337ZM14.6667 3.33336H15.5001V5.00001H14.6667V3.33336Z" fill="#283237"/>
<path d="M13.8334 15.4167C13.8334 15.6467 14.0201 15.8333 14.2501 15.8333H15.9167C16.1467 15.8333 16.3334 15.6467 16.3334 15.4167V12.9167C16.3334 12.6867 16.1467 12.5 15.9167 12.5H14.2501C14.0201 12.5 13.8334 12.6867 13.8334 12.9167V15.4167ZM14.6667 13.3334H15.5001V15H14.6667V13.3334Z" fill="#283237"/>
<path d="M10.0834 5.83337H11.7501C11.9801 5.83337 12.1667 5.64669 12.1667 5.41671V2.91671C12.1667 2.68673 11.9801 2.50006 11.7501 2.50006H10.0834C9.85344 2.50006 9.66677 2.68673 9.66677 2.91671V5.41671C9.66672 5.64669 9.85339 5.83337 10.0834 5.83337ZM10.5001 3.33336H11.3334V5.00001H10.5001V3.33336Z" fill="#283237"/>
<path d="M12.7043 20.1209C12.6293 20.2001 12.5834 20.3084 12.5834 20.4168C12.5834 20.5251 12.6293 20.6334 12.7043 20.7126C12.7834 20.7876 12.8918 20.8335 13.0001 20.8335C13.1085 20.8335 13.2168 20.7876 13.296 20.7126C13.371 20.6335 13.4168 20.5251 13.4168 20.4168C13.4168 20.3084 13.371 20.2001 13.296 20.1209C13.1376 19.9667 12.8626 19.9667 12.7043 20.1209Z" fill="#283237"/>
<path d="M9.66671 15.4167C9.66671 15.6467 9.85338 15.8333 10.0834 15.8333H11.7501C11.98 15.8333 12.1667 15.6467 12.1667 15.4167V12.9167C12.1667 12.6867 11.98 12.5 11.7501 12.5H10.0834C9.85343 12.5 9.66676 12.6867 9.66676 12.9167L9.66671 15.4167ZM10.5001 13.3334H11.3334V15H10.5001V13.3334Z" fill="#283237"/>
<path d="M8.83338 17.9167C8.83338 18.1467 9.02005 18.3334 9.25003 18.3334H10.5V22.0834C10.5 22.3133 10.6867 22.5 10.9167 22.5C11.1467 22.5 11.3333 22.3133 11.3333 22.0834V18.3334H14.6667V22.0834C14.6667 22.3133 14.8534 22.5 15.0834 22.5C15.3133 22.5 15.5 22.3133 15.5 22.0834V18.3334H16.75C16.98 18.3334 17.1667 18.1467 17.1667 17.9167C17.1667 17.6867 16.98 17.5 16.75 17.5H9.25003C9.02005 17.5 8.83338 17.6867 8.83338 17.9167Z" fill="#283237"/>
<path d="M20.5 15.4167C20.5 15.6467 20.6867 15.8333 20.9167 15.8333H22.5833C22.8133 15.8333 23 15.6467 23 15.4167V12.9167C23 12.6867 22.8133 12.5 22.5833 12.5H20.9167C20.6867 12.5 20.5 12.6867 20.5 12.9167V15.4167ZM21.3334 13.3334H22.1667V15H21.3334V13.3334Z" fill="#283237"/>
<path d="M18.4166 0H7.5833C7.35332 0 7.16665 0.18667 7.16665 0.416652V22.0834C7.16665 22.3133 7.35332 22.5 7.5833 22.5C7.81328 22.5 7.99995 22.3133 7.99995 22.0834V0.833303H18V22.0834C18 22.3133 18.1866 22.5 18.4166 22.5C18.6466 22.5 18.8333 22.3133 18.8333 22.0834V0.416652C18.8333 0.18667 18.6467 0 18.4166 0Z" fill="#283237"/>
<path d="M18.4168 23.3334H6.7501C6.52012 23.3334 6.33345 23.5201 6.33345 23.7501V24.5834C6.33345 24.8134 6.52012 25.0001 6.7501 25.0001C6.98008 25.0001 7.16675 24.8134 7.16675 24.5834V24.1668H18.4168C18.6468 24.1668 18.8334 23.9801 18.8334 23.7501C18.8334 23.5201 18.6468 23.3334 18.4168 23.3334Z" stroke="#283237" stroke-width="2" mask="url(#path-1-inside-1_6642_43135)"/>
<path d="M9.66671 10.4167C9.66671 10.6467 9.85338 10.8333 10.0834 10.8333H11.7501C11.98 10.8333 12.1667 10.6467 12.1667 10.4167V7.91667C12.1667 7.68669 11.98 7.50002 11.7501 7.50002H10.0834C9.85343 7.50002 9.66676 7.68669 9.66676 7.91667L9.66671 10.4167ZM10.5001 8.33337H11.3334V10H10.5001V8.33337Z" stroke="#283237" stroke-width="2" mask="url(#path-1-inside-1_6642_43135)"/>
<path d="M5.91667 5.00001H0.916652C0.68667 5.00001 0.5 5.18669 0.5 5.41667V13.75C0.5 13.98 0.68667 14.1667 0.916652 14.1667C1.14663 14.1667 1.3333 13.98 1.3333 13.75V5.83337H5.91667C6.14665 5.83337 6.33332 5.6467 6.33332 5.41672C6.33332 5.18673 6.1467 5.00001 5.91667 5.00001Z" stroke="#283237" stroke-width="2" mask="url(#path-1-inside-1_6642_43135)"/>
<path d="M20.5 20.4167C20.5 20.6467 20.6867 20.8334 20.9167 20.8334H22.5833C22.8133 20.8334 23 20.6467 23 20.4167V17.9167C23 17.6867 22.8133 17.5 22.5833 17.5H20.9167C20.6867 17.5 20.5 17.6867 20.5 17.9167V20.4167ZM21.3334 18.3334H22.1667V20.0001H21.3334V18.3334Z" stroke="#283237" stroke-width="2" mask="url(#path-1-inside-1_6642_43135)"/>
<path d="M2.58336 15C0.52373 15 0.5 20.3626 0.5 20.4167C0.5 21.423 1.21709 22.2642 2.16665 22.458V24.5834C2.16665 24.8134 2.35333 25.0001 2.58331 25.0001C2.81329 25.0001 2.99996 24.8134 2.99996 24.5834V22.458C3.94952 22.2642 4.66661 21.423 4.66661 20.4167C4.66666 20.3626 4.64293 15 2.58336 15ZM2.58336 21.6667C1.89419 21.6667 1.33335 21.1059 1.33335 20.4167C1.33335 18.3409 1.89087 15.8333 2.58336 15.8333C3.27584 15.8333 3.83336 18.3409 3.83336 20.4167C3.83336 21.1059 3.27252 21.6667 2.58336 21.6667Z" stroke="#283237" stroke-width="2" mask="url(#path-1-inside-1_6642_43135)"/>
<path d="M5.08329 12.5H3.41658C3.1866 12.5 2.99993 12.6867 2.99993 12.9167V13.75C2.99993 13.98 3.1866 14.1667 3.41658 14.1667C3.64656 14.1667 3.83323 13.98 3.83323 13.75V13.3334H4.66659V15.4167C4.66659 15.6467 4.85326 15.8334 5.08324 15.8334C5.31322 15.8334 5.49989 15.6467 5.49989 15.4167V12.9167C5.49994 12.6867 5.31327 12.5 5.08329 12.5Z" stroke="#283237" stroke-width="2" mask="url(#path-1-inside-1_6642_43135)"/>
<path d="M20.9167 10.8334H22.5833C22.8133 10.8334 23 10.6467 23 10.4167V7.91672C23 7.68674 22.8133 7.50007 22.5833 7.50007H20.9167C20.6867 7.50007 20.5 7.68674 20.5 7.91672V10.4167C20.5 10.6467 20.6867 10.8334 20.9167 10.8334ZM21.3334 8.33337H22.1667V10H21.3334V8.33337Z" stroke="#283237" stroke-width="2" mask="url(#path-1-inside-1_6642_43135)"/>
<path d="M5.08329 7.50002H3.41658C3.1866 7.50002 2.99993 7.68669 2.99993 7.91667V10.4167C2.99993 10.6467 3.1866 10.8333 3.41658 10.8333H5.08324C5.31322 10.8333 5.49989 10.6467 5.49989 10.4167V7.91667C5.49994 7.68669 5.31327 7.50002 5.08329 7.50002ZM4.66659 10H3.83328V8.33337H4.66663L4.66659 10Z" stroke="#283237" stroke-width="2" mask="url(#path-1-inside-1_6642_43135)"/>
<path d="M13.8334 10.4167C13.8334 10.6467 14.0201 10.8333 14.2501 10.8333H15.9167C16.1467 10.8333 16.3334 10.6467 16.3334 10.4167V7.91667C16.3334 7.68669 16.1467 7.50002 15.9167 7.50002H14.2501C14.0201 7.50002 13.8334 7.68669 13.8334 7.91667V10.4167ZM14.6667 8.33337H15.5001V10H14.6667V8.33337Z" stroke="#283237" stroke-width="2" mask="url(#path-1-inside-1_6642_43135)"/>
<path d="M25.0833 5.00001H20.0833C19.8534 5.00001 19.6667 5.18669 19.6667 5.41667C19.6667 5.64665 19.8534 5.83332 20.0833 5.83332H24.6667V22.5767C24.5359 22.53 24.3971 22.5001 24.25 22.5001C24.178 22.5001 24.1063 22.5063 24.0359 22.5188C23.7484 22.0009 23.2013 21.6667 22.5834 21.6667C21.9655 21.6667 21.4184 22.0009 21.1309 22.5188C21.0605 22.5063 20.9888 22.5001 20.9167 22.5001C20.2276 22.5001 19.6667 23.0609 19.6667 23.7501C19.6667 24.4392 20.2276 25.0001 20.9167 25.0001H24.25C24.9392 25.0001 25.5 24.4392 25.5 23.7501V5.41667C25.5 5.18669 25.3133 5.00001 25.0833 5.00001ZM24.25 24.1667H20.9166C20.687 24.1667 20.5 23.9797 20.5 23.7501C20.5 23.5205 20.687 23.3334 20.9166 23.3334C20.9966 23.3334 21.0724 23.3563 21.1425 23.4013C21.2566 23.4747 21.3992 23.488 21.525 23.4372C21.6508 23.3864 21.7437 23.2772 21.7742 23.1451C21.8621 22.7655 22.195 22.5001 22.5833 22.5001C22.9717 22.5001 23.3046 22.7655 23.3925 23.1451C23.4229 23.2772 23.5159 23.3864 23.6417 23.4372C23.7671 23.488 23.91 23.4747 24.0242 23.4013C24.2955 23.2263 24.6667 23.4405 24.6667 23.7501C24.6666 23.9797 24.4796 24.1667 24.25 24.1667Z" stroke="#283237" stroke-width="2" mask="url(#path-1-inside-1_6642_43135)"/>
<path d="M14.2501 5.83337H15.9167C16.1467 5.83337 16.3334 5.64669 16.3334 5.41671V2.91671C16.3334 2.68673 16.1467 2.50006 15.9167 2.50006H14.2501C14.0201 2.50006 13.8334 2.68673 13.8334 2.91671V5.41671C13.8334 5.64669 14.0201 5.83337 14.2501 5.83337ZM14.6667 3.33336H15.5001V5.00001H14.6667V3.33336Z" stroke="#283237" stroke-width="2" mask="url(#path-1-inside-1_6642_43135)"/>
<path d="M13.8334 15.4167C13.8334 15.6467 14.0201 15.8333 14.2501 15.8333H15.9167C16.1467 15.8333 16.3334 15.6467 16.3334 15.4167V12.9167C16.3334 12.6867 16.1467 12.5 15.9167 12.5H14.2501C14.0201 12.5 13.8334 12.6867 13.8334 12.9167V15.4167ZM14.6667 13.3334H15.5001V15H14.6667V13.3334Z" stroke="#283237" stroke-width="2" mask="url(#path-1-inside-1_6642_43135)"/>
<path d="M10.0834 5.83337H11.7501C11.9801 5.83337 12.1667 5.64669 12.1667 5.41671V2.91671C12.1667 2.68673 11.9801 2.50006 11.7501 2.50006H10.0834C9.85344 2.50006 9.66677 2.68673 9.66677 2.91671V5.41671C9.66672 5.64669 9.85339 5.83337 10.0834 5.83337ZM10.5001 3.33336H11.3334V5.00001H10.5001V3.33336Z" stroke="#283237" stroke-width="2" mask="url(#path-1-inside-1_6642_43135)"/>
<path d="M12.7043 20.1209C12.6293 20.2001 12.5834 20.3084 12.5834 20.4168C12.5834 20.5251 12.6293 20.6334 12.7043 20.7126C12.7834 20.7876 12.8918 20.8335 13.0001 20.8335C13.1085 20.8335 13.2168 20.7876 13.296 20.7126C13.371 20.6335 13.4168 20.5251 13.4168 20.4168C13.4168 20.3084 13.371 20.2001 13.296 20.1209C13.1376 19.9667 12.8626 19.9667 12.7043 20.1209Z" stroke="#283237" stroke-width="2" mask="url(#path-1-inside-1_6642_43135)"/>
<path d="M9.66671 15.4167C9.66671 15.6467 9.85338 15.8333 10.0834 15.8333H11.7501C11.98 15.8333 12.1667 15.6467 12.1667 15.4167V12.9167C12.1667 12.6867 11.98 12.5 11.7501 12.5H10.0834C9.85343 12.5 9.66676 12.6867 9.66676 12.9167L9.66671 15.4167ZM10.5001 13.3334H11.3334V15H10.5001V13.3334Z" stroke="#283237" stroke-width="2" mask="url(#path-1-inside-1_6642_43135)"/>
<path d="M8.83338 17.9167C8.83338 18.1467 9.02005 18.3334 9.25003 18.3334H10.5V22.0834C10.5 22.3133 10.6867 22.5 10.9167 22.5C11.1467 22.5 11.3333 22.3133 11.3333 22.0834V18.3334H14.6667V22.0834C14.6667 22.3133 14.8534 22.5 15.0834 22.5C15.3133 22.5 15.5 22.3133 15.5 22.0834V18.3334H16.75C16.98 18.3334 17.1667 18.1467 17.1667 17.9167C17.1667 17.6867 16.98 17.5 16.75 17.5H9.25003C9.02005 17.5 8.83338 17.6867 8.83338 17.9167Z" stroke="#283237" stroke-width="2" mask="url(#path-1-inside-1_6642_43135)"/>
<path d="M20.5 15.4167C20.5 15.6467 20.6867 15.8333 20.9167 15.8333H22.5833C22.8133 15.8333 23 15.6467 23 15.4167V12.9167C23 12.6867 22.8133 12.5 22.5833 12.5H20.9167C20.6867 12.5 20.5 12.6867 20.5 12.9167V15.4167ZM21.3334 13.3334H22.1667V15H21.3334V13.3334Z" stroke="#283237" stroke-width="2" mask="url(#path-1-inside-1_6642_43135)"/>
<path d="M18.4166 0H7.5833C7.35332 0 7.16665 0.18667 7.16665 0.416652V22.0834C7.16665 22.3133 7.35332 22.5 7.5833 22.5C7.81328 22.5 7.99995 22.3133 7.99995 22.0834V0.833303H18V22.0834C18 22.3133 18.1866 22.5 18.4166 22.5C18.6466 22.5 18.8333 22.3133 18.8333 22.0834V0.416652C18.8333 0.18667 18.6467 0 18.4166 0Z" stroke="#283237" stroke-width="2" mask="url(#path-1-inside-1_6642_43135)"/>
</svg>
