<svg width="26" height="24" viewBox="0 0 26 24" fill="none" xmlns="http://www.w3.org/2000/svg">
<path d="M1.36343 14.2921H3.39974V23.0605C3.39974 23.5773 3.79258 24 4.27248 24H10.2361C10.716 24 11.1088 23.5773 11.1088 23.0605V16.6406H14.7451V23.0605C14.7451 23.5773 15.1379 24 15.6178 24H21.2904C21.7703 24 22.1631 23.5773 22.1631 23.0605V14.2921H24.6358C24.9849 14.2921 25.3049 14.0571 25.436 13.7128C25.5668 13.3682 25.494 12.9612 25.2469 12.6949L13.8725 0.278072C13.538 -0.0821088 12.9853 -0.0977279 12.6507 0.262453L0.767241 12.6793C0.505421 12.9455 0.432658 13.3528 0.563673 13.7128C0.694268 14.0727 1.01434 14.2921 1.36343 14.2921ZM13.2322 2.26665L22.5412 12.4131H21.2904C20.8105 12.4131 20.4178 12.836 20.4178 13.3526V22.121H16.4905V15.7011C16.4905 15.1845 16.0979 14.7616 15.6178 14.7616H10.2361C9.75619 14.7616 9.36335 15.1845 9.36335 15.7011V22.121H5.14521V13.3526C5.14521 12.8357 4.75238 12.4131 4.27248 12.4131H3.51604L13.2322 2.26665Z" fill="#323232"/>
</svg>
