<svg width="28" height="25" viewBox="0 0 28 25" fill="none" xmlns="http://www.w3.org/2000/svg">
<path d="M1.13585 14.7113H3.3871V23.4945C3.3871 24.0122 3.8214 24.4356 4.35196 24.4356H10.9451C11.4756 24.4356 11.9099 24.0122 11.9099 23.4945V17.0638H15.93V23.4945C15.93 24.0122 16.3643 24.4356 16.8949 24.4356H23.1662C23.6967 24.4356 24.131 24.0122 24.131 23.4945V14.7113H26.8647C27.2507 14.7113 27.6045 14.4759 27.7494 14.131C27.894 13.7858 27.8135 13.3781 27.5404 13.1114L14.9654 0.673562C14.5955 0.312772 13.9845 0.297126 13.6146 0.657917L0.476724 13.0958C0.187268 13.3625 0.106824 13.7704 0.251668 14.131C0.396048 14.4915 0.749905 14.7113 1.13585 14.7113ZM14.2574 2.66551L24.5491 12.8291H23.1662C22.6356 12.8291 22.2016 13.2527 22.2016 13.7702V22.5534H17.8597V16.1227C17.8597 15.6052 17.4256 15.1816 16.8949 15.1816H10.9451C10.4145 15.1816 9.98021 15.6052 9.98021 16.1227V22.5534H5.31681V13.7702C5.31681 13.2525 4.88251 12.8291 4.35196 12.8291H3.51567L14.2574 2.66551Z" fill="#323232"/>
</svg>
