<svg width="25" height="25" viewBox="0 0 25 25" fill="none" xmlns="http://www.w3.org/2000/svg">
<mask id="path-1-inside-1_4990_30858" fill="white">
<path d="M17.9168 23.3334H6.2501C6.02012 23.3334 5.83345 23.5201 5.83345 23.7501V24.5834C5.83345 24.8134 6.02012 25.0001 6.2501 25.0001C6.48008 25.0001 6.66675 24.8134 6.66675 24.5834V24.1668H17.9168C18.1468 24.1668 18.3334 23.9801 18.3334 23.7501C18.3334 23.5201 18.1468 23.3334 17.9168 23.3334Z"/>
<path d="M9.16671 10.4167C9.16671 10.6467 9.35338 10.8333 9.58336 10.8333H11.2501C11.48 10.8333 11.6667 10.6467 11.6667 10.4167V7.91667C11.6667 7.68669 11.48 7.50002 11.2501 7.50002H9.58341C9.35343 7.50002 9.16676 7.68669 9.16676 7.91667L9.16671 10.4167ZM10.0001 8.33337H10.8334V10H10.0001V8.33337Z"/>
<path d="M5.41667 5.00001H0.416652C0.18667 5.00001 0 5.18669 0 5.41667V13.75C0 13.98 0.18667 14.1667 0.416652 14.1667C0.646633 14.1667 0.833303 13.98 0.833303 13.75V5.83337H5.41667C5.64665 5.83337 5.83332 5.6467 5.83332 5.41672C5.83332 5.18673 5.6467 5.00001 5.41667 5.00001Z"/>
<path d="M20 20.4167C20 20.6467 20.1867 20.8334 20.4167 20.8334H22.0833C22.3133 20.8334 22.5 20.6467 22.5 20.4167V17.9167C22.5 17.6867 22.3133 17.5 22.0833 17.5H20.4167C20.1867 17.5 20 17.6867 20 17.9167V20.4167ZM20.8334 18.3334H21.6667V20.0001H20.8334V18.3334Z"/>
<path d="M2.08336 15C0.0237305 15 0 20.3626 0 20.4167C0 21.423 0.717092 22.2642 1.66665 22.458V24.5834C1.66665 24.8134 1.85333 25.0001 2.08331 25.0001C2.31329 25.0001 2.49996 24.8134 2.49996 24.5834V22.458C3.44952 22.2642 4.16661 21.423 4.16661 20.4167C4.16666 20.3626 4.14293 15 2.08336 15ZM2.08336 21.6667C1.39419 21.6667 0.833352 21.1059 0.833352 20.4167C0.833352 18.3409 1.39087 15.8333 2.08336 15.8333C2.77584 15.8333 3.33336 18.3409 3.33336 20.4167C3.33336 21.1059 2.77252 21.6667 2.08336 21.6667Z"/>
<path d="M4.58329 12.5H2.91658C2.6866 12.5 2.49993 12.6867 2.49993 12.9167V13.75C2.49993 13.98 2.6866 14.1667 2.91658 14.1667C3.14656 14.1667 3.33323 13.98 3.33323 13.75V13.3334H4.16659V15.4167C4.16659 15.6467 4.35326 15.8334 4.58324 15.8334C4.81322 15.8334 4.99989 15.6467 4.99989 15.4167V12.9167C4.99994 12.6867 4.81327 12.5 4.58329 12.5Z"/>
<path d="M20.4167 10.8334H22.0833C22.3133 10.8334 22.5 10.6467 22.5 10.4167V7.91672C22.5 7.68674 22.3133 7.50007 22.0833 7.50007H20.4167C20.1867 7.50007 20 7.68674 20 7.91672V10.4167C20 10.6467 20.1867 10.8334 20.4167 10.8334ZM20.8334 8.33337H21.6667V10H20.8334V8.33337Z"/>
<path d="M4.58329 7.50002H2.91658C2.6866 7.50002 2.49993 7.68669 2.49993 7.91667V10.4167C2.49993 10.6467 2.6866 10.8333 2.91658 10.8333H4.58324C4.81322 10.8333 4.99989 10.6467 4.99989 10.4167V7.91667C4.99994 7.68669 4.81327 7.50002 4.58329 7.50002ZM4.16659 10H3.33328V8.33337H4.16663L4.16659 10Z"/>
<path d="M13.3334 10.4167C13.3334 10.6467 13.5201 10.8333 13.7501 10.8333H15.4167C15.6467 10.8333 15.8334 10.6467 15.8334 10.4167V7.91667C15.8334 7.68669 15.6467 7.50002 15.4167 7.50002H13.7501C13.5201 7.50002 13.3334 7.68669 13.3334 7.91667V10.4167ZM14.1667 8.33337H15.0001V10H14.1667V8.33337Z"/>
<path d="M24.5833 5.00001H19.5833C19.3534 5.00001 19.1667 5.18669 19.1667 5.41667C19.1667 5.64665 19.3534 5.83332 19.5833 5.83332H24.1667V22.5767C24.0359 22.53 23.8971 22.5001 23.75 22.5001C23.678 22.5001 23.6063 22.5063 23.5359 22.5188C23.2484 22.0009 22.7013 21.6667 22.0834 21.6667C21.4655 21.6667 20.9184 22.0009 20.6309 22.5188C20.5605 22.5063 20.4888 22.5001 20.4167 22.5001C19.7276 22.5001 19.1667 23.0609 19.1667 23.7501C19.1667 24.4392 19.7276 25.0001 20.4167 25.0001H23.75C24.4392 25.0001 25 24.4392 25 23.7501V5.41667C25 5.18669 24.8133 5.00001 24.5833 5.00001ZM23.75 24.1667H20.4166C20.187 24.1667 20 23.9797 20 23.7501C20 23.5205 20.187 23.3334 20.4166 23.3334C20.4966 23.3334 20.5724 23.3563 20.6425 23.4013C20.7566 23.4747 20.8992 23.488 21.025 23.4372C21.1508 23.3864 21.2437 23.2772 21.2742 23.1451C21.3621 22.7655 21.695 22.5001 22.0833 22.5001C22.4717 22.5001 22.8046 22.7655 22.8925 23.1451C22.9229 23.2772 23.0159 23.3864 23.1417 23.4372C23.2671 23.488 23.41 23.4747 23.5242 23.4013C23.7955 23.2263 24.1667 23.4405 24.1667 23.7501C24.1666 23.9797 23.9796 24.1667 23.75 24.1667Z"/>
<path d="M13.7501 5.83337H15.4167C15.6467 5.83337 15.8334 5.64669 15.8334 5.41671V2.91671C15.8334 2.68673 15.6467 2.50006 15.4167 2.50006H13.7501C13.5201 2.50006 13.3334 2.68673 13.3334 2.91671V5.41671C13.3334 5.64669 13.5201 5.83337 13.7501 5.83337ZM14.1667 3.33336H15.0001V5.00001H14.1667V3.33336Z"/>
<path d="M13.3334 15.4167C13.3334 15.6467 13.5201 15.8333 13.7501 15.8333H15.4167C15.6467 15.8333 15.8334 15.6467 15.8334 15.4167V12.9167C15.8334 12.6867 15.6467 12.5 15.4167 12.5H13.7501C13.5201 12.5 13.3334 12.6867 13.3334 12.9167V15.4167ZM14.1667 13.3334H15.0001V15H14.1667V13.3334Z"/>
<path d="M9.58342 5.83337H11.2501C11.4801 5.83337 11.6667 5.64669 11.6667 5.41671V2.91671C11.6667 2.68673 11.4801 2.50006 11.2501 2.50006H9.58342C9.35344 2.50006 9.16677 2.68673 9.16677 2.91671V5.41671C9.16672 5.64669 9.35339 5.83337 9.58342 5.83337ZM10.0001 3.33336H10.8334V5.00001H10.0001V3.33336Z"/>
<path d="M12.2043 20.1209C12.1293 20.2001 12.0834 20.3084 12.0834 20.4168C12.0834 20.5251 12.1293 20.6334 12.2043 20.7126C12.2834 20.7876 12.3918 20.8335 12.5001 20.8335C12.6085 20.8335 12.7168 20.7876 12.796 20.7126C12.871 20.6335 12.9168 20.5251 12.9168 20.4168C12.9168 20.3084 12.871 20.2001 12.796 20.1209C12.6376 19.9667 12.3626 19.9667 12.2043 20.1209Z"/>
<path d="M9.16671 15.4167C9.16671 15.6467 9.35338 15.8333 9.58336 15.8333H11.2501C11.48 15.8333 11.6667 15.6467 11.6667 15.4167V12.9167C11.6667 12.6867 11.48 12.5 11.2501 12.5H9.58341C9.35343 12.5 9.16676 12.6867 9.16676 12.9167L9.16671 15.4167ZM10.0001 13.3334H10.8334V15H10.0001V13.3334Z"/>
<path d="M8.33338 17.9167C8.33338 18.1467 8.52005 18.3334 8.75003 18.3334H10V22.0834C10 22.3133 10.1867 22.5 10.4167 22.5C10.6467 22.5 10.8333 22.3133 10.8333 22.0834V18.3334H14.1667V22.0834C14.1667 22.3133 14.3534 22.5 14.5834 22.5C14.8133 22.5 15 22.3133 15 22.0834V18.3334H16.25C16.48 18.3334 16.6667 18.1467 16.6667 17.9167C16.6667 17.6867 16.48 17.5 16.25 17.5H8.75003C8.52005 17.5 8.33338 17.6867 8.33338 17.9167Z"/>
<path d="M20 15.4167C20 15.6467 20.1867 15.8333 20.4167 15.8333H22.0833C22.3133 15.8333 22.5 15.6467 22.5 15.4167V12.9167C22.5 12.6867 22.3133 12.5 22.0833 12.5H20.4167C20.1867 12.5 20 12.6867 20 12.9167V15.4167ZM20.8334 13.3334H21.6667V15H20.8334V13.3334Z"/>
<path d="M17.9166 0H7.0833C6.85332 0 6.66665 0.18667 6.66665 0.416652V22.0834C6.66665 22.3133 6.85332 22.5 7.0833 22.5C7.31328 22.5 7.49995 22.3133 7.49995 22.0834V0.833303H17.5V22.0834C17.5 22.3133 17.6866 22.5 17.9166 22.5C18.1466 22.5 18.3333 22.3133 18.3333 22.0834V0.416652C18.3333 0.18667 18.1467 0 17.9166 0Z"/>
</mask>
<path d="M17.9168 23.3334H6.2501C6.02012 23.3334 5.83345 23.5201 5.83345 23.7501V24.5834C5.83345 24.8134 6.02012 25.0001 6.2501 25.0001C6.48008 25.0001 6.66675 24.8134 6.66675 24.5834V24.1668H17.9168C18.1468 24.1668 18.3334 23.9801 18.3334 23.7501C18.3334 23.5201 18.1468 23.3334 17.9168 23.3334Z" fill="#283237"/>
<path d="M9.16671 10.4167C9.16671 10.6467 9.35338 10.8333 9.58336 10.8333H11.2501C11.48 10.8333 11.6667 10.6467 11.6667 10.4167V7.91667C11.6667 7.68669 11.48 7.50002 11.2501 7.50002H9.58341C9.35343 7.50002 9.16676 7.68669 9.16676 7.91667L9.16671 10.4167ZM10.0001 8.33337H10.8334V10H10.0001V8.33337Z" fill="#283237"/>
<path d="M5.41667 5.00001H0.416652C0.18667 5.00001 0 5.18669 0 5.41667V13.75C0 13.98 0.18667 14.1667 0.416652 14.1667C0.646633 14.1667 0.833303 13.98 0.833303 13.75V5.83337H5.41667C5.64665 5.83337 5.83332 5.6467 5.83332 5.41672C5.83332 5.18673 5.6467 5.00001 5.41667 5.00001Z" fill="#283237"/>
<path d="M20 20.4167C20 20.6467 20.1867 20.8334 20.4167 20.8334H22.0833C22.3133 20.8334 22.5 20.6467 22.5 20.4167V17.9167C22.5 17.6867 22.3133 17.5 22.0833 17.5H20.4167C20.1867 17.5 20 17.6867 20 17.9167V20.4167ZM20.8334 18.3334H21.6667V20.0001H20.8334V18.3334Z" fill="#283237"/>
<path d="M2.08336 15C0.0237305 15 0 20.3626 0 20.4167C0 21.423 0.717092 22.2642 1.66665 22.458V24.5834C1.66665 24.8134 1.85333 25.0001 2.08331 25.0001C2.31329 25.0001 2.49996 24.8134 2.49996 24.5834V22.458C3.44952 22.2642 4.16661 21.423 4.16661 20.4167C4.16666 20.3626 4.14293 15 2.08336 15ZM2.08336 21.6667C1.39419 21.6667 0.833352 21.1059 0.833352 20.4167C0.833352 18.3409 1.39087 15.8333 2.08336 15.8333C2.77584 15.8333 3.33336 18.3409 3.33336 20.4167C3.33336 21.1059 2.77252 21.6667 2.08336 21.6667Z" fill="#283237"/>
<path d="M4.58329 12.5H2.91658C2.6866 12.5 2.49993 12.6867 2.49993 12.9167V13.75C2.49993 13.98 2.6866 14.1667 2.91658 14.1667C3.14656 14.1667 3.33323 13.98 3.33323 13.75V13.3334H4.16659V15.4167C4.16659 15.6467 4.35326 15.8334 4.58324 15.8334C4.81322 15.8334 4.99989 15.6467 4.99989 15.4167V12.9167C4.99994 12.6867 4.81327 12.5 4.58329 12.5Z" fill="#283237"/>
<path d="M20.4167 10.8334H22.0833C22.3133 10.8334 22.5 10.6467 22.5 10.4167V7.91672C22.5 7.68674 22.3133 7.50007 22.0833 7.50007H20.4167C20.1867 7.50007 20 7.68674 20 7.91672V10.4167C20 10.6467 20.1867 10.8334 20.4167 10.8334ZM20.8334 8.33337H21.6667V10H20.8334V8.33337Z" fill="#283237"/>
<path d="M4.58329 7.50002H2.91658C2.6866 7.50002 2.49993 7.68669 2.49993 7.91667V10.4167C2.49993 10.6467 2.6866 10.8333 2.91658 10.8333H4.58324C4.81322 10.8333 4.99989 10.6467 4.99989 10.4167V7.91667C4.99994 7.68669 4.81327 7.50002 4.58329 7.50002ZM4.16659 10H3.33328V8.33337H4.16663L4.16659 10Z" fill="#283237"/>
<path d="M13.3334 10.4167C13.3334 10.6467 13.5201 10.8333 13.7501 10.8333H15.4167C15.6467 10.8333 15.8334 10.6467 15.8334 10.4167V7.91667C15.8334 7.68669 15.6467 7.50002 15.4167 7.50002H13.7501C13.5201 7.50002 13.3334 7.68669 13.3334 7.91667V10.4167ZM14.1667 8.33337H15.0001V10H14.1667V8.33337Z" fill="#283237"/>
<path d="M24.5833 5.00001H19.5833C19.3534 5.00001 19.1667 5.18669 19.1667 5.41667C19.1667 5.64665 19.3534 5.83332 19.5833 5.83332H24.1667V22.5767C24.0359 22.53 23.8971 22.5001 23.75 22.5001C23.678 22.5001 23.6063 22.5063 23.5359 22.5188C23.2484 22.0009 22.7013 21.6667 22.0834 21.6667C21.4655 21.6667 20.9184 22.0009 20.6309 22.5188C20.5605 22.5063 20.4888 22.5001 20.4167 22.5001C19.7276 22.5001 19.1667 23.0609 19.1667 23.7501C19.1667 24.4392 19.7276 25.0001 20.4167 25.0001H23.75C24.4392 25.0001 25 24.4392 25 23.7501V5.41667C25 5.18669 24.8133 5.00001 24.5833 5.00001ZM23.75 24.1667H20.4166C20.187 24.1667 20 23.9797 20 23.7501C20 23.5205 20.187 23.3334 20.4166 23.3334C20.4966 23.3334 20.5724 23.3563 20.6425 23.4013C20.7566 23.4747 20.8992 23.488 21.025 23.4372C21.1508 23.3864 21.2437 23.2772 21.2742 23.1451C21.3621 22.7655 21.695 22.5001 22.0833 22.5001C22.4717 22.5001 22.8046 22.7655 22.8925 23.1451C22.9229 23.2772 23.0159 23.3864 23.1417 23.4372C23.2671 23.488 23.41 23.4747 23.5242 23.4013C23.7955 23.2263 24.1667 23.4405 24.1667 23.7501C24.1666 23.9797 23.9796 24.1667 23.75 24.1667Z" fill="#283237"/>
<path d="M13.7501 5.83337H15.4167C15.6467 5.83337 15.8334 5.64669 15.8334 5.41671V2.91671C15.8334 2.68673 15.6467 2.50006 15.4167 2.50006H13.7501C13.5201 2.50006 13.3334 2.68673 13.3334 2.91671V5.41671C13.3334 5.64669 13.5201 5.83337 13.7501 5.83337ZM14.1667 3.33336H15.0001V5.00001H14.1667V3.33336Z" fill="#283237"/>
<path d="M13.3334 15.4167C13.3334 15.6467 13.5201 15.8333 13.7501 15.8333H15.4167C15.6467 15.8333 15.8334 15.6467 15.8334 15.4167V12.9167C15.8334 12.6867 15.6467 12.5 15.4167 12.5H13.7501C13.5201 12.5 13.3334 12.6867 13.3334 12.9167V15.4167ZM14.1667 13.3334H15.0001V15H14.1667V13.3334Z" fill="#283237"/>
<path d="M9.58342 5.83337H11.2501C11.4801 5.83337 11.6667 5.64669 11.6667 5.41671V2.91671C11.6667 2.68673 11.4801 2.50006 11.2501 2.50006H9.58342C9.35344 2.50006 9.16677 2.68673 9.16677 2.91671V5.41671C9.16672 5.64669 9.35339 5.83337 9.58342 5.83337ZM10.0001 3.33336H10.8334V5.00001H10.0001V3.33336Z" fill="#283237"/>
<path d="M12.2043 20.1209C12.1293 20.2001 12.0834 20.3084 12.0834 20.4168C12.0834 20.5251 12.1293 20.6334 12.2043 20.7126C12.2834 20.7876 12.3918 20.8335 12.5001 20.8335C12.6085 20.8335 12.7168 20.7876 12.796 20.7126C12.871 20.6335 12.9168 20.5251 12.9168 20.4168C12.9168 20.3084 12.871 20.2001 12.796 20.1209C12.6376 19.9667 12.3626 19.9667 12.2043 20.1209Z" fill="#283237"/>
<path d="M9.16671 15.4167C9.16671 15.6467 9.35338 15.8333 9.58336 15.8333H11.2501C11.48 15.8333 11.6667 15.6467 11.6667 15.4167V12.9167C11.6667 12.6867 11.48 12.5 11.2501 12.5H9.58341C9.35343 12.5 9.16676 12.6867 9.16676 12.9167L9.16671 15.4167ZM10.0001 13.3334H10.8334V15H10.0001V13.3334Z" fill="#283237"/>
<path d="M8.33338 17.9167C8.33338 18.1467 8.52005 18.3334 8.75003 18.3334H10V22.0834C10 22.3133 10.1867 22.5 10.4167 22.5C10.6467 22.5 10.8333 22.3133 10.8333 22.0834V18.3334H14.1667V22.0834C14.1667 22.3133 14.3534 22.5 14.5834 22.5C14.8133 22.5 15 22.3133 15 22.0834V18.3334H16.25C16.48 18.3334 16.6667 18.1467 16.6667 17.9167C16.6667 17.6867 16.48 17.5 16.25 17.5H8.75003C8.52005 17.5 8.33338 17.6867 8.33338 17.9167Z" fill="#283237"/>
<path d="M20 15.4167C20 15.6467 20.1867 15.8333 20.4167 15.8333H22.0833C22.3133 15.8333 22.5 15.6467 22.5 15.4167V12.9167C22.5 12.6867 22.3133 12.5 22.0833 12.5H20.4167C20.1867 12.5 20 12.6867 20 12.9167V15.4167ZM20.8334 13.3334H21.6667V15H20.8334V13.3334Z" fill="#283237"/>
<path d="M17.9166 0H7.0833C6.85332 0 6.66665 0.18667 6.66665 0.416652V22.0834C6.66665 22.3133 6.85332 22.5 7.0833 22.5C7.31328 22.5 7.49995 22.3133 7.49995 22.0834V0.833303H17.5V22.0834C17.5 22.3133 17.6866 22.5 17.9166 22.5C18.1466 22.5 18.3333 22.3133 18.3333 22.0834V0.416652C18.3333 0.18667 18.1467 0 17.9166 0Z" fill="#283237"/>
<path d="M17.9168 23.3334H6.2501C6.02012 23.3334 5.83345 23.5201 5.83345 23.7501V24.5834C5.83345 24.8134 6.02012 25.0001 6.2501 25.0001C6.48008 25.0001 6.66675 24.8134 6.66675 24.5834V24.1668H17.9168C18.1468 24.1668 18.3334 23.9801 18.3334 23.7501C18.3334 23.5201 18.1468 23.3334 17.9168 23.3334Z" stroke="#283237" stroke-width="2" mask="url(#path-1-inside-1_4990_30858)"/>
<path d="M9.16671 10.4167C9.16671 10.6467 9.35338 10.8333 9.58336 10.8333H11.2501C11.48 10.8333 11.6667 10.6467 11.6667 10.4167V7.91667C11.6667 7.68669 11.48 7.50002 11.2501 7.50002H9.58341C9.35343 7.50002 9.16676 7.68669 9.16676 7.91667L9.16671 10.4167ZM10.0001 8.33337H10.8334V10H10.0001V8.33337Z" stroke="#283237" stroke-width="2" mask="url(#path-1-inside-1_4990_30858)"/>
<path d="M5.41667 5.00001H0.416652C0.18667 5.00001 0 5.18669 0 5.41667V13.75C0 13.98 0.18667 14.1667 0.416652 14.1667C0.646633 14.1667 0.833303 13.98 0.833303 13.75V5.83337H5.41667C5.64665 5.83337 5.83332 5.6467 5.83332 5.41672C5.83332 5.18673 5.6467 5.00001 5.41667 5.00001Z" stroke="#283237" stroke-width="2" mask="url(#path-1-inside-1_4990_30858)"/>
<path d="M20 20.4167C20 20.6467 20.1867 20.8334 20.4167 20.8334H22.0833C22.3133 20.8334 22.5 20.6467 22.5 20.4167V17.9167C22.5 17.6867 22.3133 17.5 22.0833 17.5H20.4167C20.1867 17.5 20 17.6867 20 17.9167V20.4167ZM20.8334 18.3334H21.6667V20.0001H20.8334V18.3334Z" stroke="#283237" stroke-width="2" mask="url(#path-1-inside-1_4990_30858)"/>
<path d="M2.08336 15C0.0237305 15 0 20.3626 0 20.4167C0 21.423 0.717092 22.2642 1.66665 22.458V24.5834C1.66665 24.8134 1.85333 25.0001 2.08331 25.0001C2.31329 25.0001 2.49996 24.8134 2.49996 24.5834V22.458C3.44952 22.2642 4.16661 21.423 4.16661 20.4167C4.16666 20.3626 4.14293 15 2.08336 15ZM2.08336 21.6667C1.39419 21.6667 0.833352 21.1059 0.833352 20.4167C0.833352 18.3409 1.39087 15.8333 2.08336 15.8333C2.77584 15.8333 3.33336 18.3409 3.33336 20.4167C3.33336 21.1059 2.77252 21.6667 2.08336 21.6667Z" stroke="#283237" stroke-width="2" mask="url(#path-1-inside-1_4990_30858)"/>
<path d="M4.58329 12.5H2.91658C2.6866 12.5 2.49993 12.6867 2.49993 12.9167V13.75C2.49993 13.98 2.6866 14.1667 2.91658 14.1667C3.14656 14.1667 3.33323 13.98 3.33323 13.75V13.3334H4.16659V15.4167C4.16659 15.6467 4.35326 15.8334 4.58324 15.8334C4.81322 15.8334 4.99989 15.6467 4.99989 15.4167V12.9167C4.99994 12.6867 4.81327 12.5 4.58329 12.5Z" stroke="#283237" stroke-width="2" mask="url(#path-1-inside-1_4990_30858)"/>
<path d="M20.4167 10.8334H22.0833C22.3133 10.8334 22.5 10.6467 22.5 10.4167V7.91672C22.5 7.68674 22.3133 7.50007 22.0833 7.50007H20.4167C20.1867 7.50007 20 7.68674 20 7.91672V10.4167C20 10.6467 20.1867 10.8334 20.4167 10.8334ZM20.8334 8.33337H21.6667V10H20.8334V8.33337Z" stroke="#283237" stroke-width="2" mask="url(#path-1-inside-1_4990_30858)"/>
<path d="M4.58329 7.50002H2.91658C2.6866 7.50002 2.49993 7.68669 2.49993 7.91667V10.4167C2.49993 10.6467 2.6866 10.8333 2.91658 10.8333H4.58324C4.81322 10.8333 4.99989 10.6467 4.99989 10.4167V7.91667C4.99994 7.68669 4.81327 7.50002 4.58329 7.50002ZM4.16659 10H3.33328V8.33337H4.16663L4.16659 10Z" stroke="#283237" stroke-width="2" mask="url(#path-1-inside-1_4990_30858)"/>
<path d="M13.3334 10.4167C13.3334 10.6467 13.5201 10.8333 13.7501 10.8333H15.4167C15.6467 10.8333 15.8334 10.6467 15.8334 10.4167V7.91667C15.8334 7.68669 15.6467 7.50002 15.4167 7.50002H13.7501C13.5201 7.50002 13.3334 7.68669 13.3334 7.91667V10.4167ZM14.1667 8.33337H15.0001V10H14.1667V8.33337Z" stroke="#283237" stroke-width="2" mask="url(#path-1-inside-1_4990_30858)"/>
<path d="M24.5833 5.00001H19.5833C19.3534 5.00001 19.1667 5.18669 19.1667 5.41667C19.1667 5.64665 19.3534 5.83332 19.5833 5.83332H24.1667V22.5767C24.0359 22.53 23.8971 22.5001 23.75 22.5001C23.678 22.5001 23.6063 22.5063 23.5359 22.5188C23.2484 22.0009 22.7013 21.6667 22.0834 21.6667C21.4655 21.6667 20.9184 22.0009 20.6309 22.5188C20.5605 22.5063 20.4888 22.5001 20.4167 22.5001C19.7276 22.5001 19.1667 23.0609 19.1667 23.7501C19.1667 24.4392 19.7276 25.0001 20.4167 25.0001H23.75C24.4392 25.0001 25 24.4392 25 23.7501V5.41667C25 5.18669 24.8133 5.00001 24.5833 5.00001ZM23.75 24.1667H20.4166C20.187 24.1667 20 23.9797 20 23.7501C20 23.5205 20.187 23.3334 20.4166 23.3334C20.4966 23.3334 20.5724 23.3563 20.6425 23.4013C20.7566 23.4747 20.8992 23.488 21.025 23.4372C21.1508 23.3864 21.2437 23.2772 21.2742 23.1451C21.3621 22.7655 21.695 22.5001 22.0833 22.5001C22.4717 22.5001 22.8046 22.7655 22.8925 23.1451C22.9229 23.2772 23.0159 23.3864 23.1417 23.4372C23.2671 23.488 23.41 23.4747 23.5242 23.4013C23.7955 23.2263 24.1667 23.4405 24.1667 23.7501C24.1666 23.9797 23.9796 24.1667 23.75 24.1667Z" stroke="#283237" stroke-width="2" mask="url(#path-1-inside-1_4990_30858)"/>
<path d="M13.7501 5.83337H15.4167C15.6467 5.83337 15.8334 5.64669 15.8334 5.41671V2.91671C15.8334 2.68673 15.6467 2.50006 15.4167 2.50006H13.7501C13.5201 2.50006 13.3334 2.68673 13.3334 2.91671V5.41671C13.3334 5.64669 13.5201 5.83337 13.7501 5.83337ZM14.1667 3.33336H15.0001V5.00001H14.1667V3.33336Z" stroke="#283237" stroke-width="2" mask="url(#path-1-inside-1_4990_30858)"/>
<path d="M13.3334 15.4167C13.3334 15.6467 13.5201 15.8333 13.7501 15.8333H15.4167C15.6467 15.8333 15.8334 15.6467 15.8334 15.4167V12.9167C15.8334 12.6867 15.6467 12.5 15.4167 12.5H13.7501C13.5201 12.5 13.3334 12.6867 13.3334 12.9167V15.4167ZM14.1667 13.3334H15.0001V15H14.1667V13.3334Z" stroke="#283237" stroke-width="2" mask="url(#path-1-inside-1_4990_30858)"/>
<path d="M9.58342 5.83337H11.2501C11.4801 5.83337 11.6667 5.64669 11.6667 5.41671V2.91671C11.6667 2.68673 11.4801 2.50006 11.2501 2.50006H9.58342C9.35344 2.50006 9.16677 2.68673 9.16677 2.91671V5.41671C9.16672 5.64669 9.35339 5.83337 9.58342 5.83337ZM10.0001 3.33336H10.8334V5.00001H10.0001V3.33336Z" stroke="#283237" stroke-width="2" mask="url(#path-1-inside-1_4990_30858)"/>
<path d="M12.2043 20.1209C12.1293 20.2001 12.0834 20.3084 12.0834 20.4168C12.0834 20.5251 12.1293 20.6334 12.2043 20.7126C12.2834 20.7876 12.3918 20.8335 12.5001 20.8335C12.6085 20.8335 12.7168 20.7876 12.796 20.7126C12.871 20.6335 12.9168 20.5251 12.9168 20.4168C12.9168 20.3084 12.871 20.2001 12.796 20.1209C12.6376 19.9667 12.3626 19.9667 12.2043 20.1209Z" stroke="#283237" stroke-width="2" mask="url(#path-1-inside-1_4990_30858)"/>
<path d="M9.16671 15.4167C9.16671 15.6467 9.35338 15.8333 9.58336 15.8333H11.2501C11.48 15.8333 11.6667 15.6467 11.6667 15.4167V12.9167C11.6667 12.6867 11.48 12.5 11.2501 12.5H9.58341C9.35343 12.5 9.16676 12.6867 9.16676 12.9167L9.16671 15.4167ZM10.0001 13.3334H10.8334V15H10.0001V13.3334Z" stroke="#283237" stroke-width="2" mask="url(#path-1-inside-1_4990_30858)"/>
<path d="M8.33338 17.9167C8.33338 18.1467 8.52005 18.3334 8.75003 18.3334H10V22.0834C10 22.3133 10.1867 22.5 10.4167 22.5C10.6467 22.5 10.8333 22.3133 10.8333 22.0834V18.3334H14.1667V22.0834C14.1667 22.3133 14.3534 22.5 14.5834 22.5C14.8133 22.5 15 22.3133 15 22.0834V18.3334H16.25C16.48 18.3334 16.6667 18.1467 16.6667 17.9167C16.6667 17.6867 16.48 17.5 16.25 17.5H8.75003C8.52005 17.5 8.33338 17.6867 8.33338 17.9167Z" stroke="#283237" stroke-width="2" mask="url(#path-1-inside-1_4990_30858)"/>
<path d="M20 15.4167C20 15.6467 20.1867 15.8333 20.4167 15.8333H22.0833C22.3133 15.8333 22.5 15.6467 22.5 15.4167V12.9167C22.5 12.6867 22.3133 12.5 22.0833 12.5H20.4167C20.1867 12.5 20 12.6867 20 12.9167V15.4167ZM20.8334 13.3334H21.6667V15H20.8334V13.3334Z" stroke="#283237" stroke-width="2" mask="url(#path-1-inside-1_4990_30858)"/>
<path d="M17.9166 0H7.0833C6.85332 0 6.66665 0.18667 6.66665 0.416652V22.0834C6.66665 22.3133 6.85332 22.5 7.0833 22.5C7.31328 22.5 7.49995 22.3133 7.49995 22.0834V0.833303H17.5V22.0834C17.5 22.3133 17.6866 22.5 17.9166 22.5C18.1466 22.5 18.3333 22.3133 18.3333 22.0834V0.416652C18.3333 0.18667 18.1467 0 17.9166 0Z" stroke="#283237" stroke-width="2" mask="url(#path-1-inside-1_4990_30858)"/>
</svg>
