<svg width="24" height="20" viewBox="0 0 24 20" fill="none" xmlns="http://www.w3.org/2000/svg">
<path d="M12.0001 4.76001C9.34652 4.76001 7.69824 6.11978 7.69824 8.32262C7.69824 8.57293 7.90099 8.77588 8.15107 8.77588H15.8491C16.0992 8.77588 16.3019 8.57293 16.3019 8.32262C16.3019 6.12432 14.6536 4.76001 12.0001 4.76001ZM8.63559 7.86936C8.93445 5.83423 11.2574 5.66653 12.0001 5.66653C12.7427 5.66653 15.0657 5.83423 15.3646 7.86936H8.63559Z" fill="#323232"/>
<path d="M11.9986 0C10.8106 0 9.84766 0.963909 9.84766 2.15297C9.85015 3.34102 10.8117 4.30346 11.9986 4.30595C13.1865 4.30595 14.1495 3.34204 14.1495 2.15297C14.1495 0.963909 13.1865 0 11.9986 0ZM11.9986 3.39943C11.3109 3.39943 10.7533 2.84136 10.7533 2.15297C10.7533 1.46459 11.3109 0.906516 11.9986 0.906516C12.6863 0.906516 13.2439 1.46459 13.2439 2.15297C13.2439 2.84136 12.6863 3.39943 11.9986 3.39943Z" fill="#323232"/>
<path d="M4.30184 15.1843C1.64828 15.1843 0 16.5441 0 18.7469C0 18.9972 0.202752 19.2002 0.452825 19.2002H8.15085C8.40092 19.2002 8.60367 18.9972 8.60367 18.7469C8.60367 16.5486 6.95539 15.1843 4.30184 15.1843ZM0.937347 18.2937C1.23621 16.2585 3.55467 16.0908 4.30184 16.0908C5.049 16.0908 7.36746 16.2585 7.66632 18.2937H0.937347Z" fill="#323232"/>
<path d="M4.30326 10.4243C3.11533 10.4243 2.15234 11.3882 2.15234 12.5773C2.15483 13.7653 3.11635 14.7278 4.30326 14.7303C5.4912 14.7303 6.45419 13.7664 6.45419 12.5773C6.45419 11.3882 5.4912 10.4243 4.30326 10.4243ZM4.30326 13.8238C3.61554 13.8238 3.05799 13.2657 3.05799 12.5773C3.05799 11.8889 3.61554 11.3308 4.30326 11.3308C4.99099 11.3308 5.54853 11.8889 5.54853 12.5773C5.54853 13.2657 4.99099 13.8238 4.30326 13.8238Z" fill="#323232"/>
<path d="M19.6973 15.1843C17.0438 15.1843 15.3955 16.5441 15.3955 18.7469C15.3955 18.9972 15.5983 19.2002 15.8483 19.2002H23.5464C23.7964 19.2002 23.9992 18.9972 23.9992 18.7469C23.9992 16.5486 22.3509 15.1843 19.6973 15.1843ZM16.3329 18.2937C16.6317 16.2585 18.9502 16.0908 19.6973 16.0908C20.4445 16.0908 22.763 16.2585 23.0618 18.2937H16.3329Z" fill="#323232"/>
<path d="M19.6978 10.4243C18.5099 10.4243 17.5469 11.3882 17.5469 12.5773C17.5494 13.7653 18.5109 14.7278 19.6978 14.7303C20.8857 14.7303 21.8487 13.7664 21.8487 12.5773C21.8487 11.3882 20.8857 10.4243 19.6978 10.4243ZM19.6978 13.8238C19.0101 13.8238 18.4525 13.2657 18.4525 12.5773C18.4525 11.8889 19.0101 11.3308 19.6978 11.3308C20.3855 11.3308 20.9431 11.8889 20.9431 12.5773C20.9431 13.2657 20.3855 13.8238 19.6978 13.8238Z" fill="#323232"/>
<path d="M14.3421 14.3998L12.4538 12.5007V9.82643C12.4538 9.57612 12.251 9.37317 12.001 9.37317C11.7509 9.37317 11.5481 9.57612 11.5481 9.82643V12.5007L9.65986 14.3907C9.48105 14.5672 9.47902 14.8554 9.65533 15.0344C9.83165 15.2133 10.1195 15.2154 10.2983 15.0389L12.001 13.3301L13.7036 15.0389C13.8935 15.2017 14.1794 15.1796 14.3421 14.9894C14.4873 14.8197 14.4873 14.5695 14.3421 14.3998Z" fill="#323232"/>
</svg>
