<svg width="23" height="25" viewBox="0 0 23 25" fill="none" xmlns="http://www.w3.org/2000/svg">
<g clip-path="url(#clip0_9204_35187)">
<path d="M12.2694 1.48369C12.1932 1.24635 12.0443 1.04003 11.8445 0.894918C11.6447 0.749807 11.4045 0.673526 11.159 0.677235H11.1035C10.8553 0.670026 10.6115 0.744682 10.4085 0.890042C10.2055 1.0354 10.0542 1.24366 9.97729 1.48369L3.50557 15.774C3.43355 15.922 3.39558 16.0847 3.39453 16.2498C3.39453 16.4637 3.47809 16.6688 3.62683 16.8201C3.77556 16.9713 3.97729 17.0563 4.18763 17.0563C4.37712 17.0603 4.56283 17.0021 4.71716 16.8902C4.87148 16.7783 4.98617 16.6188 5.04419 16.4353L6.69384 12.6853H15.418L17.0676 16.3869C17.1327 16.5762 17.2521 16.7412 17.4105 16.8605C17.5689 16.9799 17.7589 17.0481 17.9559 17.0563C18.0684 17.0563 18.1798 17.0337 18.2837 16.99C18.3876 16.9462 18.482 16.882 18.5616 16.8012C18.6411 16.7203 18.7042 16.6243 18.7473 16.5186C18.7903 16.4129 18.8125 16.2997 18.8125 16.1853C18.8038 16.0264 18.7662 15.8705 18.7014 15.7256L12.2694 1.48369ZM7.4235 11.0563L11.1035 2.81433L14.7518 11.0563H7.4235Z" fill="black"/>
<path d="M20.6685 18.5488H1.63406C0.758021 18.5488 0.0478516 19.2709 0.0478516 20.1617V23.3875C0.0478516 24.2783 0.758021 25.0004 1.63406 25.0004H20.6685C21.5446 25.0004 22.2547 24.2783 22.2547 23.3875V20.1617C22.2547 19.2709 21.5446 18.5488 20.6685 18.5488Z" fill="#1B1B1B"/>
</g>
<defs>
<clipPath id="clip0_9204_35187">
<rect width="23" height="25" fill="white"/>
</clipPath>
</defs>
</svg>
