<svg width="18" height="19" viewBox="0 0 18 19" fill="none" xmlns="http://www.w3.org/2000/svg">
<path d="M0.75 0.9375C0.75 0.68886 0.848772 0.450403 1.02459 0.274588C1.2004 0.0987722 1.43886 0 1.6875 0H16.6875C16.9361 0 17.1746 0.0987722 17.3504 0.274588C17.5262 0.450403 17.625 0.68886 17.625 0.9375V3.75C17.625 3.99864 17.5262 4.2371 17.3504 4.41291C17.1746 4.58873 16.9361 4.6875 16.6875 4.6875C16.4389 4.6875 16.2004 4.58873 16.0246 4.41291C15.8488 4.2371 15.75 3.99864 15.75 3.75V1.875H10.125V16.875H11.0625C11.3111 16.875 11.5496 16.9738 11.7254 17.1496C11.9012 17.3254 12 17.5639 12 17.8125C12 18.0611 11.9012 18.2996 11.7254 18.4754C11.5496 18.6512 11.3111 18.75 11.0625 18.75H7.3125C7.06386 18.75 6.8254 18.6512 6.64959 18.4754C6.47377 18.2996 6.375 18.0611 6.375 17.8125C6.375 17.5639 6.47377 17.3254 6.64959 17.1496C6.8254 16.9738 7.06386 16.875 7.3125 16.875H8.25V1.875H2.625V3.75C2.625 3.99864 2.52623 4.2371 2.35041 4.41291C2.1746 4.58873 1.93614 4.6875 1.6875 4.6875C1.43886 4.6875 1.2004 4.58873 1.02459 4.41291C0.848772 4.2371 0.75 3.99864 0.75 3.75V0.9375Z" fill="black"/>
</svg>
