<svg width="16" height="15" viewBox="0 0 16 15" fill="none" xmlns="http://www.w3.org/2000/svg">
<path d="M9.5 0.499999C9.63261 0.499999 9.75979 0.552678 9.85355 0.646446C9.94732 0.740214 10 0.867391 10 0.999999C10 1.13261 9.94732 1.25979 9.85355 1.35355C9.75979 1.44732 9.63261 1.5 9.5 1.5L3 1.5C2.46957 1.5 1.96086 1.71071 1.58579 2.08579C1.21072 2.46086 1 2.96957 1 3.5L1 11.5C1 12.0304 1.21071 12.5391 1.58579 12.9142C1.96086 13.2893 2.46957 13.5 3 13.5L9.5 13.5C9.63261 13.5 9.75979 13.5527 9.85355 13.6464C9.94732 13.7402 10 13.8674 10 14C10 14.1326 9.94732 14.2598 9.85355 14.3536C9.75979 14.4473 9.63261 14.5 9.5 14.5L3 14.5C2.20435 14.5 1.44129 14.1839 0.878679 13.6213C0.316071 13.0587 1.9271e-07 12.2956 2.62268e-07 11.5L9.61651e-07 3.5C1.03121e-06 2.70435 0.316072 1.94129 0.87868 1.37868C1.44129 0.816069 2.20435 0.499999 3 0.499999L9.5 0.499999ZM9.354 11.354C9.30755 11.4006 9.25238 11.4375 9.19163 11.4627C9.13089 11.4879 9.06577 11.5009 9 11.5009C8.93423 11.5009 8.86911 11.4879 8.80837 11.4627C8.74762 11.4375 8.69245 11.4006 8.646 11.354L5.146 7.854C5.09944 7.80755 5.06249 7.75238 5.03729 7.69163C5.01208 7.63089 4.99911 7.56577 4.99911 7.5C4.99911 7.43423 5.01208 7.36911 5.03729 7.30837C5.06249 7.24762 5.09944 7.19244 5.146 7.146L8.646 3.646C8.73989 3.55211 8.86723 3.49937 9 3.49937C9.13278 3.49937 9.26011 3.55211 9.354 3.646C9.44789 3.73989 9.50063 3.86722 9.50063 4C9.50063 4.13277 9.44789 4.26011 9.354 4.354L6.707 7L15.5 7C15.6326 7 15.7598 7.05268 15.8536 7.14645C15.9473 7.24021 16 7.36739 16 7.5C16 7.63261 15.9473 7.75979 15.8536 7.85355C15.7598 7.94732 15.6326 8 15.5 8L6.707 8L9.354 10.646C9.40056 10.6924 9.43751 10.7476 9.46271 10.8084C9.48792 10.8691 9.50089 10.9342 9.50089 11C9.50089 11.0658 9.48792 11.1309 9.46271 11.1916C9.43751 11.2524 9.40056 11.3076 9.354 11.354Z" fill="#323232"/>
</svg>
