<svg width="16" height="15" viewBox="0 0 16 15" fill="none" xmlns="http://www.w3.org/2000/svg">
<path d="M6.5 14.5C6.36739 14.5 6.24021 14.4473 6.14645 14.3536C6.05268 14.2598 6 14.1326 6 14C6 13.8674 6.05268 13.7402 6.14645 13.6464C6.24021 13.5527 6.36739 13.5 6.5 13.5H13C13.5304 13.5 14.0391 13.2893 14.4142 12.9142C14.7893 12.5391 15 12.0304 15 11.5V3.5C15 2.96957 14.7893 2.46086 14.4142 2.08579C14.0391 1.71071 13.5304 1.5 13 1.5H6.5C6.36739 1.5 6.24021 1.44732 6.14645 1.35355C6.05268 1.25979 6 1.13261 6 1C6 0.867392 6.05268 0.740215 6.14645 0.646447C6.24021 0.552679 6.36739 0.5 6.5 0.5H13C13.7956 0.5 14.5587 0.816071 15.1213 1.37868C15.6839 1.94129 16 2.70435 16 3.5V11.5C16 12.2956 15.6839 13.0587 15.1213 13.6213C14.5587 14.1839 13.7956 14.5 13 14.5H6.5ZM6.646 3.646C6.69245 3.59944 6.74762 3.56249 6.80837 3.53729C6.86911 3.51208 6.93423 3.49911 7 3.49911C7.06577 3.49911 7.13089 3.51208 7.19163 3.53729C7.25238 3.56249 7.30755 3.59944 7.354 3.646L10.854 7.146C10.9006 7.19245 10.9375 7.24762 10.9627 7.30837C10.9879 7.36911 11.0009 7.43423 11.0009 7.5C11.0009 7.56577 10.9879 7.63089 10.9627 7.69163C10.9375 7.75238 10.9006 7.80755 10.854 7.854L7.354 11.354C7.26011 11.4479 7.13278 11.5006 7 11.5006C6.86722 11.5006 6.73989 11.4479 6.646 11.354C6.55211 11.2601 6.49937 11.1328 6.49937 11C6.49937 10.8672 6.55211 10.7399 6.646 10.646L9.293 8H0.5C0.367392 8 0.240215 7.94732 0.146447 7.85355C0.0526784 7.75979 0 7.63261 0 7.5C0 7.36739 0.0526784 7.24021 0.146447 7.14645C0.240215 7.05268 0.367392 7 0.5 7H9.293L6.646 4.354C6.59944 4.30755 6.56249 4.25238 6.53729 4.19163C6.51208 4.13089 6.49911 4.06577 6.49911 4C6.49911 3.93423 6.51208 3.86911 6.53729 3.80837C6.56249 3.74762 6.59944 3.69245 6.646 3.646Z" fill="#323232"/>
</svg>
