<svg width="38" height="41" viewBox="0 0 38 41" fill="none" xmlns="http://www.w3.org/2000/svg">
<path d="M4.41667 40.8332C3.27084 40.8332 2.28959 40.4249 1.47292 39.6082C0.656253 38.7916 0.248615 37.811 0.250004 36.6666V7.49991C0.250004 6.35407 0.658337 5.37282 1.475 4.55616C2.29167 3.73949 3.27223 3.33185 4.41667 3.33324H7C7.55228 3.33324 8 2.88552 8 2.33324V1C8 0.447716 8.44771 0 9 0H9.66667C10.219 0 10.6667 0.447715 10.6667 1V2.33324C10.6667 2.88552 11.1144 3.33324 11.6667 3.33324H26.3333C26.8856 3.33324 27.3333 2.88552 27.3333 2.33324V1C27.3333 0.447716 27.7811 0 28.3333 0H29C29.5523 0 30 0.447715 30 1V2.33324C30 2.88552 30.4477 3.33324 31 3.33324H33.5833C34.7292 3.33324 35.7104 3.74157 36.5271 4.55824C37.3438 5.37491 37.7514 6.35546 37.75 7.49991V36.6666C37.75 37.8124 37.3417 38.7937 36.525 39.6103C35.7083 40.427 34.7278 40.8346 33.5833 40.8332H4.41667ZM3 36.9996C3 37.5519 3.44772 37.9996 4 37.9996H34C34.5523 37.9996 35 37.5519 35 36.9996V16.9996C35 16.4473 34.5523 15.9996 34 15.9996H4C3.44772 15.9996 3 16.4473 3 16.9996V36.9996ZM3 11.9996C3 12.5519 3.44772 12.9996 4 12.9996H34C34.5523 12.9996 35 12.5519 35 11.9996V7.49958C35 6.9473 34.5523 6.49958 34 6.49958H4C3.44772 6.49958 3 6.9473 3 7.49958V11.9996Z" fill="black"/>
<path d="M8 24C7.44772 24 7 23.5523 7 23V21C7 20.4477 7.44772 20 8 20H10C10.5523 20 11 20.4477 11 21V23C11 23.5523 10.5523 24 10 24H8Z" fill="black"/>
<path d="M28 24C27.4477 24 27 23.5523 27 23V21C27 20.4477 27.4477 20 28 20H30C30.5523 20 31 20.4477 31 21V23C31 23.5523 30.5523 24 30 24H28Z" fill="black"/>
<path d="M18 24C17.4477 24 17 23.5523 17 23V21C17 20.4477 17.4477 20 18 20H20C20.5523 20 21 20.4477 21 21V23C21 23.5523 20.5523 24 20 24H18Z" fill="black"/>
<path d="M8 33C7.44772 33 7 32.5523 7 32V30C7 29.4477 7.44772 29 8 29H10C10.5523 29 11 29.4477 11 30V32C11 32.5523 10.5523 33 10 33H8Z" fill="black"/>
<path d="M28 33C27.4477 33 27 32.5523 27 32V30C27 29.4477 27.4477 29 28 29H30C30.5523 29 31 29.4477 31 30V32C31 32.5523 30.5523 33 30 33H28Z" fill="black"/>
<path d="M18 33C17.4477 33 17 32.5523 17 32V30C17 29.4477 17.4477 29 18 29H20C20.5523 29 21 29.4477 21 30V32C21 32.5523 20.5523 33 20 33H18Z" fill="black"/>
</svg>
