<svg width="42" height="43" viewBox="0 0 42 43" fill="none" xmlns="http://www.w3.org/2000/svg">
<path d="M1.25 41.7498L10.2854 15.9832L27.2917 33.4561L1.25 41.7498Z" stroke="black" stroke-width="2" stroke-linejoin="round"/>
<path d="M18.9584 17.7915L24.1667 12.5832C26.9448 9.80505 27.2917 7.37484 25.2084 5.2915M25.2084 24.0415L30.4167 18.8332C33.8886 15.3613 37.3615 15.3613 40.8334 18.8332" stroke="black" stroke-width="2" stroke-linecap="round" stroke-linejoin="round"/>
<path d="M15.8333 5.29158C16.3859 5.29158 16.9158 5.07209 17.3065 4.68139C17.6972 4.29069 17.9167 3.76079 17.9167 3.20825C17.9167 2.65572 17.6972 2.12581 17.3065 1.73511C16.9158 1.34441 16.3859 1.12492 15.8333 1.12492C15.2808 1.12492 14.7509 1.34441 14.3602 1.73511C13.9695 2.12581 13.75 2.65572 13.75 3.20825C13.75 3.76079 13.9695 4.29069 14.3602 4.68139C14.7509 5.07209 15.2808 5.29158 15.8333 5.29158ZM38.75 4.24992C39.3025 4.24992 39.8324 4.03043 40.2231 3.63972C40.6138 3.24902 40.8333 2.71912 40.8333 2.16659C40.8333 1.61405 40.6138 1.08415 40.2231 0.693446C39.8324 0.302745 39.3025 0.083252 38.75 0.083252C38.1975 0.083252 37.6676 0.302745 37.2769 0.693446C36.8862 1.08415 36.6667 1.61405 36.6667 2.16659C36.6667 2.71912 36.8862 3.24902 37.2769 3.63972C37.6676 4.03043 38.1975 4.24992 38.75 4.24992ZM38.75 28.2083C39.3025 28.2083 39.8324 27.9888 40.2231 27.5981C40.6138 27.2074 40.8333 26.6775 40.8333 26.1249C40.8333 25.5724 40.6138 25.0425 40.2231 24.6518C39.8324 24.2611 39.3025 24.0416 38.75 24.0416C38.1975 24.0416 37.6676 24.2611 37.2769 24.6518C36.8862 25.0425 36.6667 25.5724 36.6667 26.1249C36.6667 26.6775 36.8862 27.2074 37.2769 27.5981C37.6676 27.9888 38.1975 28.2083 38.75 28.2083ZM35.625 37.5833C36.1775 37.5833 36.7074 37.3638 37.0981 36.9731C37.4888 36.5824 37.7083 36.0525 37.7083 35.4999C37.7083 34.9474 37.4888 34.4175 37.0981 34.0268C36.7074 33.6361 36.1775 33.4166 35.625 33.4166C35.0725 33.4166 34.5426 33.6361 34.1519 34.0268C33.7612 34.4175 33.5417 34.9474 33.5417 35.4999C33.5417 36.0525 33.7612 36.5824 34.1519 36.9731C34.5426 37.3638 35.0725 37.5833 35.625 37.5833Z" fill="black"/>
</svg>
