<svg width="21" height="21" viewBox="0 0 21 21" fill="none" xmlns="http://www.w3.org/2000/svg">
<path d="M18.6937 6.78906H13.8109V1.90625C13.8109 1.54365 13.6669 1.1959 13.4105 0.939503C13.1541 0.683105 12.8063 0.539062 12.4437 0.539062H7.75623C7.39362 0.539062 7.04588 0.683105 6.78948 0.939503C6.53308 1.1959 6.38904 1.54365 6.38904 1.90625V6.78906H1.50623C1.14362 6.78906 0.795875 6.9331 0.539478 7.1895C0.283081 7.4459 0.139038 7.79365 0.139038 8.15625V12.8438C0.139038 13.2064 0.283081 13.5541 0.539478 13.8105C0.795875 14.0669 1.14362 14.2109 1.50623 14.2109H6.38904V19.0938C6.38904 19.4564 6.53308 19.8041 6.78948 20.0605C7.04588 20.3169 7.39362 20.4609 7.75623 20.4609H12.4437C12.8063 20.4609 13.1541 20.3169 13.4105 20.0605C13.6669 19.8041 13.8109 19.4564 13.8109 19.0938V14.2109H18.6937C19.0563 14.2109 19.4041 14.0669 19.6605 13.8105C19.9169 13.5541 20.0609 13.2064 20.0609 12.8438V8.15625C20.0609 7.79365 19.9169 7.4459 19.6605 7.1895C19.4041 6.9331 19.0563 6.78906 18.6937 6.78906ZM18.889 12.8438C18.889 12.8955 18.8685 12.9452 18.8318 12.9819C18.7952 13.0185 18.7455 13.0391 18.6937 13.0391H13.225C13.0696 13.0391 12.9205 13.1008 12.8107 13.2107C12.7008 13.3206 12.639 13.4696 12.639 13.625V19.0938C12.639 19.1455 12.6185 19.1952 12.5818 19.2319C12.5452 19.2685 12.4955 19.2891 12.4437 19.2891H7.75623C7.70443 19.2891 7.65475 19.2685 7.61812 19.2319C7.58149 19.1952 7.56091 19.1455 7.56091 19.0938V13.625C7.56091 13.4696 7.49918 13.3206 7.3893 13.2107C7.27941 13.1008 7.13038 13.0391 6.97498 13.0391H1.50623C1.45443 13.0391 1.40475 13.0185 1.36812 12.9819C1.33149 12.9452 1.31091 12.8955 1.31091 12.8438V8.15625C1.31091 8.10445 1.33149 8.05477 1.36812 8.01814C1.40475 7.98151 1.45443 7.96094 1.50623 7.96094H6.97498C7.13038 7.96094 7.27941 7.8992 7.3893 7.78932C7.49918 7.67944 7.56091 7.5304 7.56091 7.375V1.90625C7.56091 1.85445 7.58149 1.80477 7.61812 1.76814C7.65475 1.73151 7.70443 1.71094 7.75623 1.71094H12.4437C12.4955 1.71094 12.5452 1.73151 12.5818 1.76814C12.6185 1.80477 12.639 1.85445 12.639 1.90625V7.375C12.639 7.5304 12.7008 7.67944 12.8107 7.78932C12.9205 7.8992 13.0696 7.96094 13.225 7.96094H18.6937C18.7455 7.96094 18.7952 7.98151 18.8318 8.01814C18.8685 8.05477 18.889 8.10445 18.889 8.15625V12.8438Z" fill="#323232"/>
</svg>
