<svg width="22" height="21" viewBox="0 0 22 21" fill="none" xmlns="http://www.w3.org/2000/svg">
<path d="M21.0166 12.8692V13.9983L13.4446 11.7713C12.8041 11.5829 12.1625 12.063 12.1625 12.7307V17.5085C12.1625 17.8598 12.3468 18.1853 12.648 18.366L12.9052 17.9372L12.648 18.366L14.7666 19.6372L14.7666 20.2762L11.3425 19.4202C11.1833 19.3804 11.0167 19.3804 10.8574 19.4202L7.43329 20.2762V19.6372L9.55195 18.366C9.85316 18.1853 10.0375 17.8598 10.0375 17.5085V12.7307C10.0375 12.063 9.39577 11.5829 8.75529 11.7713L1.18329 13.9983L1.18329 12.8692L9.54448 7.95088C9.84992 7.77121 10.0375 7.44331 10.0375 7.08895V1.64575C10.0375 1.05731 10.5115 0.583252 11.1 0.583252C11.6884 0.583252 12.1625 1.05731 12.1625 1.64575V7.08895C12.1625 7.44331 12.35 7.77121 12.6554 7.95088L21.0166 12.8692Z" stroke="#323232"/>
</svg>
