<svg width="43" height="42" viewBox="0 0 43 42" fill="none" xmlns="http://www.w3.org/2000/svg">
<path d="M41.6667 25.4527L41.6667 28.6652L25.2406 23.834C24.6001 23.6456 23.9584 24.1257 23.9584 24.7933V35.3003C23.9584 35.6516 24.1427 35.9771 24.4439 36.1578L29.1667 38.9915L29.1667 41.193L21.5759 39.2953C21.4167 39.2555 21.2501 39.2555 21.0909 39.2953L13.5001 41.193L13.5001 38.9915L18.2229 36.1578C18.5241 35.9771 18.7084 35.6516 18.7084 35.3003V24.7933C18.7084 24.1257 18.0667 23.6456 17.4262 23.834L1.00006 28.6652L1.00006 25.4527L18.2154 15.326C18.5209 15.1464 18.7084 14.8185 18.7084 14.4641V3.29175C18.7084 1.83872 19.8804 0.666748 21.3334 0.666748C22.7864 0.666748 23.9584 1.83872 23.9584 3.29175V14.4641C23.9584 14.8185 24.1459 15.1464 24.4514 15.326L41.6667 25.4527Z" stroke="#323232"/>
</svg>
