<svg width="41" height="40" viewBox="0 0 41 40" fill="none" xmlns="http://www.w3.org/2000/svg">
<path d="M37.8542 12.5781H28.0886V2.8125C28.0886 2.0873 27.8005 1.3918 27.2877 0.879005C26.7749 0.36621 26.0794 0.078125 25.3542 0.078125H15.9792C15.254 0.078125 14.5585 0.36621 14.0457 0.879005C13.5329 1.3918 13.2448 2.0873 13.2448 2.8125V12.5781H3.47919C2.75399 12.5781 2.05849 12.8662 1.54569 13.379C1.0329 13.8918 0.744812 14.5873 0.744812 15.3125V24.6875C0.744812 25.4127 1.0329 26.1082 1.54569 26.621C2.05849 27.1338 2.75399 27.4219 3.47919 27.4219H13.2448V37.1875C13.2448 37.9127 13.5329 38.6082 14.0457 39.121C14.5585 39.6338 15.254 39.9219 15.9792 39.9219H25.3542C26.0794 39.9219 26.7749 39.6338 27.2877 39.121C27.8005 38.6082 28.0886 37.9127 28.0886 37.1875V27.4219H37.8542C38.5794 27.4219 39.2749 27.1338 39.7877 26.621C40.3005 26.1082 40.5886 25.4127 40.5886 24.6875V15.3125C40.5886 14.5873 40.3005 13.8918 39.7877 13.379C39.2749 12.8662 38.5794 12.5781 37.8542 12.5781ZM38.2448 24.6875C38.2448 24.7911 38.2037 24.8905 38.1304 24.9637C38.0571 25.037 37.9578 25.0781 37.8542 25.0781H26.9167C26.6059 25.0781 26.3078 25.2016 26.088 25.4214C25.8683 25.6411 25.7448 25.9392 25.7448 26.25V37.1875C25.7448 37.2911 25.7037 37.3905 25.6304 37.4637C25.5571 37.537 25.4578 37.5781 25.3542 37.5781H15.9792C15.8756 37.5781 15.7762 37.537 15.703 37.4637C15.6297 37.3905 15.5886 37.2911 15.5886 37.1875V26.25C15.5886 25.9392 15.4651 25.6411 15.2453 25.4214C15.0256 25.2016 14.7275 25.0781 14.4167 25.0781H3.47919C3.37559 25.0781 3.27623 25.037 3.20297 24.9637C3.12972 24.8905 3.08856 24.7911 3.08856 24.6875V15.3125C3.08856 15.2089 3.12972 15.1095 3.20297 15.0363C3.27623 14.963 3.37559 14.9219 3.47919 14.9219H14.4167C14.7275 14.9219 15.0256 14.7984 15.2453 14.5786C15.4651 14.3589 15.5886 14.0608 15.5886 13.75V2.8125C15.5886 2.7089 15.6297 2.60954 15.703 2.53629C15.7762 2.46303 15.8756 2.42188 15.9792 2.42188H25.3542C25.4578 2.42188 25.5571 2.46303 25.6304 2.53629C25.7037 2.60954 25.7448 2.7089 25.7448 2.8125V13.75C25.7448 14.0608 25.8683 14.3589 26.088 14.5786C26.3078 14.7984 26.6059 14.9219 26.9167 14.9219H37.8542C37.9578 14.9219 38.0571 14.963 38.1304 15.0363C38.2037 15.1095 38.2448 15.2089 38.2448 15.3125V24.6875Z" fill="#323232"/>
</svg>
