<svg width="16" height="36" viewBox="0 0 16 36" fill="none" xmlns="http://www.w3.org/2000/svg">
<g clip-path="url(#clip0_6641_23260)">
<path d="M2.4125 11.1625C2.77839 11.5283 3.37161 11.5283 3.7375 11.1625L7.29289 7.60706C7.68342 7.21653 8.31658 7.21653 8.70711 7.60706L12.2625 11.1625C12.6284 11.5283 13.2216 11.5283 13.5875 11.1625C13.9534 10.7966 13.9534 10.2033 13.5875 9.83745L8.70711 4.95706C8.31658 4.56653 7.68342 4.56653 7.29289 4.95706L2.4125 9.83745C2.04661 10.2033 2.04661 10.7966 2.4125 11.1625Z" fill="#0F62AB"/>
</g>
<g clip-path="url(#clip1_6641_23260)">
<path d="M13.5875 24.8375C13.2216 24.4717 12.6284 24.4717 12.2625 24.8375L8.70711 28.3929C8.31658 28.7835 7.68342 28.7835 7.29289 28.3929L3.7375 24.8375C3.37161 24.4717 2.77839 24.4717 2.4125 24.8375C2.04661 25.2034 2.04661 25.7967 2.4125 26.1625L7.29289 31.0429C7.68342 31.4335 8.31658 31.4335 8.70711 31.0429L13.5875 26.1625C13.9534 25.7967 13.9534 25.2034 13.5875 24.8375Z" fill="#0F62AB"/>
</g>
<defs>
<clipPath id="clip0_6641_23260">
<rect width="15" height="15" fill="white" transform="translate(0.5 15.5) rotate(-90)"/>
</clipPath>
<clipPath id="clip1_6641_23260">
<rect width="15" height="15" fill="white" transform="translate(15.5 20.5) rotate(90)"/>
</clipPath>
</defs>
</svg>
