<svg width="251" height="251" viewBox="0 0 251 251" fill="none" xmlns="http://www.w3.org/2000/svg">
<path d="M249 100.025V250.525L152 250.525V120.525C152 120.525 152.5 112.525 146 105.525C139.5 98.5254 130.5 99.0254 130.5 99.0254H0.5V2.02539H152C152 2.02539 190.5 0.0253372 221 31.5254C251.5 63.0255 249 100.025 249 100.025Z" fill="#DCDCDC"/>
<path d="M202 249.5L202 127.5C202 127.5 203.607 84.1484 186.5 66.5C169.026 48.473 124.5 49.5 124.5 49.5L2.00006 49.5" stroke="#777777" stroke-width="3" stroke-linecap="round" stroke-dasharray="20 20"/>
<path d="M249 251V100.5C249 100.5 251.5 63.5001 221 32C190.5 0.499947 152 2.5 152 2.5H0.5" stroke="#FAFAFA" stroke-width="3"/>
<path d="M152 251V121C152 121 152.5 113 146 106C139.5 99 130.5 99.5 130.5 99.5H0.5" stroke="#FAFAFA" stroke-width="3"/>
</svg>