<svg width="48" height="48" viewBox="0 0 48 48" fill="none" xmlns="http://www.w3.org/2000/svg">
<path d="M44.625 15.0938H32.9062V3.375C32.9062 2.50476 32.5605 1.67016 31.9452 1.05481C31.3298 0.439452 30.4952 0.09375 29.625 0.09375H18.375C17.5048 0.09375 16.6702 0.439452 16.0548 1.05481C15.4395 1.67016 15.0938 2.50476 15.0938 3.375V15.0938H3.375C2.50476 15.0938 1.67016 15.4395 1.05481 16.0548C0.439452 16.6702 0.09375 17.5048 0.09375 18.375V29.625C0.09375 30.4952 0.439452 31.3298 1.05481 31.9452C1.67016 32.5605 2.50476 32.9062 3.375 32.9062H15.0938V44.625C15.0938 45.4952 15.4395 46.3298 16.0548 46.9452C16.6702 47.5605 17.5048 47.9062 18.375 47.9062H29.625C30.4952 47.9062 31.3298 47.5605 31.9452 46.9452C32.5605 46.3298 32.9062 45.4952 32.9062 44.625V32.9062H44.625C45.4952 32.9062 46.3298 32.5605 46.9452 31.9452C47.5605 31.3298 47.9062 30.4952 47.9062 29.625V18.375C47.9062 17.5048 47.5605 16.6702 46.9452 16.0548C46.3298 15.4395 45.4952 15.0938 44.625 15.0938ZM45.0938 29.625C45.0938 29.7493 45.0444 29.8685 44.9565 29.9565C44.8685 30.0444 44.7493 30.0938 44.625 30.0938H31.5C31.127 30.0938 30.7694 30.2419 30.5056 30.5056C30.2419 30.7694 30.0938 31.127 30.0938 31.5V44.625C30.0938 44.7493 30.0444 44.8685 29.9565 44.9565C29.8685 45.0444 29.7493 45.0938 29.625 45.0938H18.375C18.2507 45.0938 18.1315 45.0444 18.0435 44.9565C17.9556 44.8685 17.9062 44.7493 17.9062 44.625V31.5C17.9062 31.127 17.7581 30.7694 17.4944 30.5056C17.2306 30.2419 16.873 30.0938 16.5 30.0938H3.375C3.25068 30.0938 3.13145 30.0444 3.04354 29.9565C2.95564 29.8685 2.90625 29.7493 2.90625 29.625V18.375C2.90625 18.2507 2.95564 18.1315 3.04354 18.0435C3.13145 17.9556 3.25068 17.9062 3.375 17.9062H16.5C16.873 17.9062 17.2306 17.7581 17.4944 17.4944C17.7581 17.2306 17.9062 16.873 17.9062 16.5V3.375C17.9062 3.25068 17.9556 3.13145 18.0435 3.04354C18.1315 2.95564 18.2507 2.90625 18.375 2.90625H29.625C29.7493 2.90625 29.8685 2.95564 29.9565 3.04354C30.0444 3.13145 30.0938 3.25068 30.0938 3.375V16.5C30.0938 16.873 30.2419 17.2306 30.5056 17.4944C30.7694 17.7581 31.127 17.9062 31.5 17.9062H44.625C44.7493 17.9062 44.8685 17.9556 44.9565 18.0435C45.0444 18.1315 45.0938 18.2507 45.0938 18.375V29.625Z" fill="#323232"/>
</svg>
