<svg width="42" height="48" viewBox="0 0 42 48" fill="none" xmlns="http://www.w3.org/2000/svg">
<path d="M38.2902 15.6555C36.3855 15.6555 34.8361 17.2096 34.8361 19.1198V21.4538C34.1867 21.0283 33.4144 20.7758 32.5823 20.7758H31.5485L34.0317 4.53131C34.1731 3.61043 33.9071 2.67707 33.3019 1.96972C32.6971 1.26289 31.8177 0.857178 30.8887 0.857178H11.6047C10.6758 0.857178 9.7963 1.26289 9.19148 1.96983C8.58626 2.67717 8.32041 3.61054 8.46182 4.531L10.9449 20.7759H9.91652C9.08237 20.7759 8.30807 21.0294 7.65749 21.4579V19.1198C7.65749 17.2096 6.10807 15.6555 4.20334 15.6555C2.29973 15.6555 0.75 17.2096 0.75 19.1198C0.75 19.6407 1.17042 20.0629 1.69018 20.0629C2.20995 20.0629 2.62995 19.6407 2.62995 19.1198C2.62995 18.2493 3.33596 17.5411 4.20344 17.5411C5.07173 17.5411 5.77774 18.2493 5.77774 19.1198C5.77774 19.1198 5.78176 24.9451 5.78217 24.9524C5.7906 27.2332 7.64124 29.0866 9.91673 29.0866H16.8893L8.44362 41.6035C8.21191 41.5507 7.97332 41.5168 7.72629 41.5168C5.94435 41.5168 4.495 42.971 4.495 44.7584C4.495 46.5453 5.94435 48 7.72629 48C9.50783 48 10.9584 46.5453 10.9584 44.7584C10.9584 43.9019 10.6194 43.1277 10.0765 42.5477L19.1587 29.0866H20.3093V41.6723C18.9865 42.0784 18.0146 43.3001 18.0146 44.7584C18.0146 46.5453 19.4648 48 21.2467 48C23.0287 48 24.4789 46.5453 24.4789 44.7584C24.4789 43.3022 23.5098 42.0816 22.1893 41.6739V29.0866H23.3291L32.4193 42.5445C31.8752 43.1249 31.535 43.9007 31.535 44.7584C31.535 46.5453 32.9855 48 34.7671 48C36.5489 48 37.9984 46.5453 37.9984 44.7584C37.9984 42.971 36.5489 41.5168 34.7671 41.5168C34.5217 41.5168 34.2844 41.5498 34.0542 41.6022L25.6005 29.0866H32.5824C34.8635 29.0866 36.7196 27.2252 36.7196 24.9371L36.716 19.1198C36.716 18.2493 37.4221 17.5411 38.2903 17.5411C39.1578 17.5411 39.8638 18.2493 39.8638 19.1198C39.8638 19.6407 40.2839 20.0629 40.8036 20.0629C41.3234 20.0629 41.7438 19.6407 41.7438 19.1198C41.7436 17.2097 40.1939 15.6555 38.2902 15.6555ZM7.7264 46.114C6.981 46.114 6.37505 45.506 6.37505 44.7584C6.37505 44.0107 6.9811 43.4024 7.7264 43.4024C8.4718 43.4024 9.07856 44.0106 9.07856 44.7584C9.07856 45.506 8.4718 46.114 7.7264 46.114ZM22.5989 44.7584C22.5989 45.506 21.9921 46.114 21.2467 46.114C20.5013 46.114 19.8946 45.506 19.8946 44.7584C19.8946 44.0107 20.5014 43.4024 21.2467 43.4024C21.9921 43.4025 22.5989 44.0107 22.5989 44.7584ZM36.1184 44.7584C36.1184 45.506 35.5124 46.114 34.767 46.114C34.0216 46.114 33.4148 45.506 33.4148 44.7584C33.4148 44.0107 34.0216 43.4024 34.767 43.4024C35.5124 43.4024 36.1184 44.0107 36.1184 44.7584ZM10.3196 4.24495C10.2609 3.86306 10.3674 3.49087 10.6179 3.1976C10.8694 2.90432 11.2191 2.74278 11.6047 2.74278H30.8888C31.2744 2.74278 31.6241 2.90432 31.8756 3.1976C32.1262 3.49087 32.2326 3.86306 32.1739 4.24536L29.6471 20.7759H12.8464L10.3196 4.24495ZM32.5823 27.201H9.91632C8.67254 27.201 7.66017 26.1852 7.66017 24.9259C7.66017 23.6771 8.67254 22.6615 9.91632 22.6615H32.5823C33.8148 22.6615 34.816 23.6577 34.8361 24.8892V24.9258C34.8361 24.9315 34.8389 24.9358 34.8393 24.9414C34.8365 26.1876 33.8257 27.201 32.5823 27.201Z" fill="#323232"/>
</svg>
