<svg width="34" height="34" viewBox="0 0 34 34" fill="none" xmlns="http://www.w3.org/2000/svg">
<path d="M34 16.6667C34 7.47697 26.523 0 17.3334 0C8.14366 0 0.666687 7.47697 0.666687 16.6667C0.666687 21.5206 2.75396 25.8958 6.07638 28.9442L6.06063 28.9582L6.60123 29.4139C6.63638 29.4436 6.67457 29.4679 6.70972 29.497C6.99699 29.7351 7.29457 29.9612 7.5976 30.18C7.69578 30.2509 7.79396 30.3218 7.89396 30.3909C8.2176 30.6139 8.54972 30.8255 8.88911 31.0261C8.96305 31.0697 9.0376 31.1121 9.11214 31.1545C9.48366 31.3661 9.86305 31.5655 10.2515 31.7485C10.28 31.7618 10.3091 31.7739 10.3376 31.7873C11.6037 32.3758 12.9552 32.8079 14.3685 33.063C14.4055 33.0697 14.4424 33.0764 14.48 33.083C14.9188 33.1588 15.3624 33.2194 15.8115 33.26C15.8661 33.2648 15.9206 33.2679 15.9758 33.2727C16.423 33.3097 16.8752 33.3333 17.3334 33.3333C17.7873 33.3333 18.2352 33.3097 18.68 33.2739C18.7364 33.2691 18.7927 33.2661 18.8491 33.2612C19.2946 33.2206 19.7346 33.1618 20.1691 33.0873C20.2067 33.0806 20.2449 33.0739 20.2824 33.0667C21.6746 32.817 23.0067 32.3945 24.2564 31.8212C24.3024 31.8 24.3491 31.78 24.3952 31.7582C24.7691 31.5824 25.1346 31.3927 25.4927 31.1909C25.5818 31.1406 25.6703 31.0897 25.7588 31.0376C26.0849 30.8455 26.4055 30.6448 26.717 30.4315C26.8291 30.3552 26.9388 30.2745 27.0497 30.1945C27.3158 30.003 27.577 29.8055 27.8309 29.5988C27.8873 29.5533 27.9479 29.5139 28.003 29.4673L28.5576 29.0042L28.5412 28.9903C31.8927 25.9406 34 21.5455 34 16.6667ZM1.87881 16.6667C1.87881 8.14485 8.81153 1.21212 17.3334 1.21212C25.8552 1.21212 32.7879 8.14485 32.7879 16.6667C32.7879 21.2588 30.7727 25.3873 27.5824 28.22C27.4043 28.097 27.2249 27.9867 27.0412 27.8945L21.9097 25.3291C21.4491 25.0988 21.163 24.6358 21.163 24.1212V22.3291C21.2818 22.1824 21.4073 22.0164 21.537 21.8339C22.2012 20.8958 22.734 19.8521 23.1224 18.7291C23.8903 18.3642 24.3861 17.5994 24.3861 16.7358V14.5873C24.3861 14.0618 24.1934 13.5521 23.8485 13.1515V10.323C23.88 10.0085 23.9915 8.23333 22.7073 6.76909C21.5903 5.49394 19.7824 4.84848 17.3334 4.84848C14.8843 4.84848 13.0764 5.49394 11.9594 6.76848C10.6752 8.23273 10.7867 10.0079 10.8182 10.3224V13.1509C10.474 13.5515 10.2806 14.0612 10.2806 14.5867V16.7352C10.2806 17.4024 10.58 18.0248 11.0927 18.4448C11.5837 20.3679 12.594 21.8236 12.9673 22.317V24.0709C12.9673 24.5655 12.6976 25.02 12.2631 25.2576L7.47093 27.8715C7.3182 27.9545 7.16669 28.0515 7.01517 28.16C3.86426 25.3285 1.87881 21.2255 1.87881 16.6667ZM26.3994 29.1709C26.1873 29.3248 25.9715 29.4739 25.7527 29.6164C25.6521 29.6818 25.5521 29.7473 25.4497 29.8109C25.1637 29.9879 24.8727 30.1564 24.5758 30.3139C24.5103 30.3485 24.4443 30.3812 24.3782 30.4151C23.6958 30.7648 22.9897 31.0655 22.2643 31.3097C22.2388 31.3182 22.2134 31.3273 22.1873 31.3358C21.8073 31.4618 21.4224 31.5739 21.0334 31.6703C21.0321 31.6703 21.0309 31.6709 21.0297 31.6709C20.637 31.7679 20.2394 31.8485 19.8394 31.9145C19.8285 31.9164 19.8176 31.9188 19.8067 31.9206C19.4303 31.9818 19.0509 32.0261 18.6703 32.0594C18.603 32.0655 18.5358 32.0697 18.4679 32.0745C18.0915 32.103 17.7134 32.1212 17.3334 32.1212C16.9491 32.1212 16.5661 32.1024 16.1849 32.0739C16.1188 32.0691 16.0527 32.0648 15.9873 32.0588C15.603 32.0248 15.2206 31.9794 14.8418 31.9176C14.8249 31.9145 14.8079 31.9115 14.7909 31.9085C13.9897 31.7745 13.2012 31.5776 12.4334 31.32C12.4097 31.3121 12.3855 31.3036 12.3618 31.2958C11.9806 31.1661 11.6037 31.0224 11.2334 30.8636C11.2309 30.8624 11.2279 30.8612 11.2255 30.86C10.8752 30.7091 10.5315 30.5418 10.1921 30.3655C10.1479 30.3424 10.1031 30.3206 10.0594 30.297C9.74972 30.1315 9.44669 29.9527 9.1479 29.7661C9.05941 29.7103 8.97153 29.6539 8.88426 29.597C8.60911 29.417 8.3376 29.2297 8.07335 29.0315C8.04608 29.0109 8.02002 28.9891 7.99275 28.9685C8.01214 28.9576 8.03154 28.9467 8.05093 28.9358L12.8431 26.3218C13.6673 25.8721 14.1794 25.0097 14.1794 24.0709L14.1788 21.8879L14.0394 21.7194C14.0261 21.7042 12.7158 20.1103 12.2206 17.9521L12.1655 17.7121L11.9588 17.5782C11.6673 17.3897 11.4927 17.0745 11.4927 16.7345V14.5861C11.4927 14.3042 11.6121 14.0418 11.8303 13.8448L12.0303 13.6642V10.2885L12.0249 10.2091C12.023 10.1945 11.8443 8.73697 12.8709 7.56667C13.7473 6.56788 15.2491 6.06061 17.3334 6.06061C19.4097 6.06061 20.9067 6.56364 21.7855 7.55515C22.8109 8.71333 22.643 10.1982 22.6418 10.2103L22.6364 13.6655L22.8364 13.8461C23.054 14.0424 23.174 14.3055 23.174 14.5873V16.7358C23.174 17.1679 22.88 17.56 22.4582 17.6903L22.157 17.783L22.06 18.083C21.7024 19.1939 21.1934 20.22 20.5473 21.1327C20.3885 21.357 20.234 21.5558 20.1012 21.7079L19.9509 21.8794V24.1212C19.9509 25.0982 20.494 25.977 21.3679 26.4133L26.4994 28.9788C26.5321 28.9951 26.5643 29.0121 26.5964 29.0291C26.5315 29.0782 26.4649 29.1236 26.3994 29.1709Z" fill="#323232"/>
</svg>
