<svg width="25" height="32" viewBox="0 0 25 32" fill="none" xmlns="http://www.w3.org/2000/svg">
<path fill-rule="evenodd" clip-rule="evenodd" d="M0.704124 26.5936L0.6875 26.6086L1.25784 27.0986C1.29493 27.1306 1.33521 27.1566 1.37229 27.1879C1.67537 27.444 1.98931 27.687 2.30901 27.9222C2.41259 27.9985 2.51617 28.0747 2.62167 28.149C2.96311 28.3888 3.3135 28.6162 3.67156 28.8319C3.74957 28.8788 3.82821 28.9244 3.90686 28.97C4.29881 29.1974 4.69907 29.4118 5.10892 29.6086C5.13897 29.6229 5.16967 29.6359 5.19972 29.6503C6.53541 30.283 7.96127 30.7476 9.45234 31.0219C9.49134 31.0291 9.53034 31.0362 9.56999 31.0434C10.0329 31.1248 10.5009 31.19 10.9747 31.2337C11.0323 31.2389 11.0898 31.2421 11.148 31.2473C11.6199 31.2871 12.0969 31.3125 12.5803 31.3125C13.0592 31.3125 13.5317 31.2871 14.001 31.2486C14.0605 31.2434 14.1199 31.2402 14.1794 31.235C14.6493 31.1913 15.1136 31.1281 15.572 31.048L15.5873 31.0452C15.622 31.0389 15.657 31.0326 15.6916 31.0258C17.1603 30.7573 18.5656 30.3032 19.8841 29.6868C19.9327 29.664 19.9819 29.6425 20.0305 29.619C20.425 29.43 20.8106 29.2261 21.1885 29.0091C21.2824 28.955 21.3758 28.9003 21.4691 28.8443C21.8131 28.6377 22.1514 28.422 22.48 28.1927C22.5983 28.1106 22.7141 28.0239 22.8311 27.9379C23.1118 27.732 23.3873 27.5196 23.6552 27.2974C23.7147 27.2485 23.7786 27.2061 23.8368 27.156L24.4219 26.6581L24.4046 26.6432C24.2166 26.5109 23.0158 25.5641 22.8221 25.4651L17.4083 22.7069C16.9224 22.4593 16.6206 21.9614 16.6206 21.4082V19.4815C16.7459 19.3238 16.8783 19.1453 17.0151 18.9491C17.7159 17.9405 18.2779 16.8184 18.6878 15.611C19.4979 15.2187 20.0209 14.3964 20.0209 13.4679V11.158C20.0209 10.5931 19.8176 10.0451 19.4538 9.61436V6.57337C19.487 6.23519 19.6047 4.32666 18.2498 2.75241C17.0714 1.38145 15.1641 0.6875 12.5803 0.6875C9.99647 0.6875 8.08915 1.38145 6.91074 2.75176C5.55586 4.32601 5.67351 6.23453 5.70676 6.57271V9.61371C5.34358 10.0444 5.13961 10.5924 5.13961 11.1573V13.4672C5.13961 14.1847 5.45547 14.8538 5.9964 15.3054C6.51431 17.3729 7.58019 18.938 7.97406 19.4684V21.3542C7.97406 21.8859 7.68952 22.3746 7.23108 22.63L2.17537 25.4403C2.01425 25.5296 0.863973 26.477 0.704124 26.5936ZM21.4628 27.3163C21.6936 27.1631 21.9212 27.0028 22.145 26.8373C22.214 26.7865 22.2844 26.7376 22.3528 26.6849L22.3524 26.6847C22.3483 26.6824 22.3441 26.6802 22.3399 26.6779C22.3103 26.662 22.2806 26.6461 22.2505 26.6308L16.8367 23.8726C15.9147 23.4034 15.3418 22.4586 15.3418 21.4082V18.998L15.5004 18.8136C15.6404 18.65 15.8035 18.4363 15.971 18.1952C16.6526 17.2139 17.1897 16.1108 17.5669 14.9164L17.6692 14.5939L17.987 14.4942C18.432 14.3541 18.7421 13.9325 18.7421 13.4679V11.158C18.7421 10.855 18.6155 10.5722 18.386 10.3611L18.175 10.1669L18.1807 6.45217L18.1808 6.45152C18.1849 6.41273 18.3502 4.83242 17.2773 3.59753C16.3501 2.53152 14.7708 1.99069 12.5803 1.99069C10.3814 1.99069 8.79696 2.53608 7.87239 3.60991C6.78926 4.86814 6.97788 6.43523 6.97979 6.45086L6.98555 6.53622V10.1656L6.77455 10.3598C6.54437 10.5716 6.41841 10.8537 6.41841 11.1567V13.4666C6.41841 13.8321 6.60255 14.171 6.9101 14.3736L7.12813 14.5176L7.18632 14.7757C7.70871 17.096 9.09108 18.8097 9.10515 18.826L9.25221 19.0071L9.25285 21.3542C9.25285 22.3635 8.71256 23.2907 7.84298 23.7742L2.78728 26.5845L2.72589 26.6197C2.75467 26.6419 2.78216 26.6653 2.81093 26.6875C3.08971 26.9005 3.37616 27.1019 3.66645 27.2954C3.75852 27.3567 3.85123 27.4173 3.94458 27.4772C4.25981 27.6779 4.5795 27.8701 4.90623 28.048C4.95227 28.0734 4.99959 28.0969 5.04626 28.1216C5.40432 28.3113 5.76686 28.4911 6.13643 28.6533C6.13899 28.6546 6.14219 28.6559 6.14474 28.6572C6.53541 28.828 6.93312 28.9824 7.3353 29.1218C7.36024 29.1303 7.38581 29.1394 7.41075 29.1479C8.22086 29.4248 9.05272 29.6366 9.898 29.7806L9.95171 29.7904C10.3513 29.8568 10.7548 29.9057 11.1602 29.9422C11.2292 29.9487 11.2989 29.9533 11.3686 29.9585C11.7708 29.9891 12.1749 30.0093 12.5803 30.0093C12.9812 30.0093 13.3801 29.9898 13.7772 29.9591C13.8488 29.9539 13.9198 29.9494 13.9908 29.9428C14.3923 29.907 14.7926 29.8594 15.1896 29.7936C15.2011 29.7917 15.2127 29.7891 15.2242 29.7871C15.6462 29.7161 16.0656 29.6294 16.4799 29.5252C16.4812 29.5252 16.4825 29.5245 16.4838 29.5245C16.8943 29.4209 17.3003 29.3004 17.7012 29.1648C17.7287 29.1557 17.7555 29.1459 17.7824 29.1368C18.5477 28.8742 19.2926 28.551 20.0126 28.1751C20.0823 28.1386 20.152 28.1034 20.221 28.0662C20.5343 27.8968 20.8413 27.7157 21.1431 27.5254C21.2399 27.4641 21.3348 27.4012 21.4299 27.3381L21.4628 27.3163Z" fill="#323232"/>
</svg>
