<svg width="25" height="18" viewBox="0 0 25 18" fill="none" xmlns="http://www.w3.org/2000/svg">
<path d="M16.7969 7.15621C16.7969 7.25981 16.7557 7.35917 16.6825 7.43243C16.6092 7.50568 16.5098 7.54684 16.4062 7.54684H8.59375C8.49015 7.54684 8.39079 7.50568 8.31754 7.43243C8.24428 7.35917 8.20312 7.25981 8.20312 7.15621C8.20312 7.05261 8.24428 6.95326 8.31754 6.88C8.39079 6.80674 8.49015 6.76559 8.59375 6.76559H16.4062C16.5098 6.76559 16.6092 6.80674 16.6825 6.88C16.7557 6.95326 16.7969 7.05261 16.7969 7.15621ZM16.4062 9.89059H8.59375C8.49015 9.89059 8.39079 9.93174 8.31754 10.005C8.24428 10.0783 8.20312 10.1776 8.20312 10.2812C8.20312 10.3848 8.24428 10.4842 8.31754 10.5574C8.39079 10.6307 8.49015 10.6718 8.59375 10.6718H16.4062C16.5098 10.6718 16.6092 10.6307 16.6825 10.5574C16.7557 10.4842 16.7969 10.3848 16.7969 10.2812C16.7969 10.1776 16.7557 10.0783 16.6825 10.005C16.6092 9.93174 16.5098 9.89059 16.4062 9.89059ZM24.6094 7.15621V9.49996C24.6094 10.2252 24.3213 10.9207 23.8085 11.4335C23.2957 11.9463 22.6002 12.2343 21.875 12.2343H21.1133C20.543 13.664 19.3232 14.9209 17.5 15.9316C15.4951 17.0459 13.3457 17.5498 12.7344 17.6787C12.5778 17.7112 12.4163 17.7112 12.2598 17.6787C11.6484 17.5498 9.49902 17.0459 7.49414 15.9316C5.67383 14.9209 4.4541 13.664 3.88086 12.2343H3.125C2.3998 12.2343 1.7043 11.9463 1.1915 11.4335C0.67871 10.9207 0.390625 10.2252 0.390625 9.49996V7.15621C0.390625 6.43101 0.67871 5.73551 1.1915 5.22272C1.7043 4.70992 2.3998 4.42184 3.125 4.42184H3.52148C3.54157 4.20043 3.62421 3.9893 3.75978 3.81309C3.89535 3.63689 4.07824 3.50288 4.28711 3.42672L12.0996 0.585903C12.3583 0.491874 12.6417 0.491874 12.9004 0.585903L20.7129 3.42672C20.9218 3.50288 21.1047 3.63689 21.2402 3.81309C21.3758 3.9893 21.4584 4.20043 21.4785 4.42184H21.875C22.6002 4.42184 23.2957 4.70992 23.8085 5.22272C24.3213 5.73551 24.6094 6.43101 24.6094 7.15621ZM3.64453 11.4531C3.55866 11.0733 3.51542 10.6852 3.51562 10.2959V5.20309H3.125C2.607 5.20309 2.11021 5.40886 1.74393 5.77515C1.37765 6.14143 1.17188 6.63821 1.17188 7.15621V9.49996C1.17188 10.018 1.37765 10.5147 1.74393 10.881C2.11021 11.2473 2.607 11.4531 3.125 11.4531H3.64453ZM20.457 11.7724C20.4638 11.7386 20.475 11.7057 20.4902 11.6748C20.6326 11.229 20.7044 10.7638 20.7031 10.2959V4.52828C20.7032 4.44812 20.6785 4.36989 20.6326 4.3042C20.5866 4.23851 20.5216 4.18855 20.4463 4.1611L12.6338 1.32028C12.5474 1.28878 12.4526 1.28878 12.3662 1.32028L4.55371 4.1611C4.4784 4.18855 4.41335 4.23851 4.36741 4.3042C4.32146 4.36989 4.29684 4.44812 4.29688 4.52828V10.2959C4.29545 10.7635 4.36729 11.2284 4.50977 11.6738C4.52481 11.7049 4.53597 11.7377 4.54297 11.7714C5.00586 13.1074 6.12109 14.2724 7.87695 15.248C9.78613 16.3086 11.8389 16.79 12.4229 16.9082C12.4737 16.9189 12.5263 16.9189 12.5771 16.9082C13.1631 16.7851 15.2139 16.3037 17.123 15.248C18.8799 14.2734 19.9951 13.1132 20.457 11.7724ZM23.8281 7.15621C23.8281 6.63821 23.6223 6.14143 23.2561 5.77515C22.8898 5.40886 22.393 5.20309 21.875 5.20309H21.4844V10.2959C21.4846 10.6852 21.4413 11.0733 21.3555 11.4531H21.875C22.393 11.4531 22.8898 11.2473 23.2561 10.881C23.6223 10.5147 23.8281 10.018 23.8281 9.49996V7.15621Z" fill="#E9994A"/>
</svg>
