<svg width="18" height="25" viewBox="0 0 18 25" fill="none" xmlns="http://www.w3.org/2000/svg">
<path d="M16.0714 14.2857H9.82143V10.7143H12.5C12.9735 10.7138 13.4274 10.5255 13.7622 10.1907C14.097 9.85596 14.2852 9.40203 14.2857 8.92857V5.35714C14.2852 4.88369 14.097 4.42976 13.7622 4.09497C13.4274 3.76019 12.9735 3.5719 12.5 3.57143H9.82143V0H8.03572V3.57143H5.35714C4.88369 3.5719 4.42976 3.76019 4.09497 4.09497C3.76019 4.42976 3.5719 4.88369 3.57143 5.35714V8.92857C3.5719 9.40203 3.76019 9.85596 4.09497 10.1907C4.42976 10.5255 4.88369 10.7138 5.35714 10.7143H8.03572V14.2857H1.78571C1.31226 14.2862 0.85833 14.4745 0.523546 14.8093C0.188762 15.144 0.000472747 15.598 0 16.0714V19.6429C0.000472747 20.1163 0.188762 20.5702 0.523546 20.905C0.85833 21.2398 1.31226 21.4281 1.78571 21.4286H8.03572V25H9.82143V21.4286H16.0714C16.5449 21.4281 16.9988 21.2398 17.3336 20.905C17.6684 20.5702 17.8567 20.1163 17.8571 19.6429V16.0714C17.8567 15.598 17.6684 15.144 17.3336 14.8093C16.9988 14.4745 16.5449 14.2862 16.0714 14.2857ZM5.35714 5.35714H12.5V8.92857H5.35714V5.35714ZM16.0714 19.6429H1.78571V16.0714H16.0714V19.6429Z" fill="black"/>
</svg>
