<svg width="17" height="19" viewBox="0 0 17 19" fill="none" xmlns="http://www.w3.org/2000/svg">
<path d="M1.99869 17H14.9987V2H1.99869V17ZM2.54761 18.875C1.89285 18.875 1.33213 18.6453 0.865468 18.1859C0.398801 17.7266 0.165865 17.175 0.166659 16.5312V2.46875C0.166659 1.82422 0.399992 1.27227 0.866658 0.812892C1.33332 0.353517 1.89364 0.124221 2.54761 0.125002H14.4524C15.1071 0.125002 15.6678 0.354689 16.1345 0.814064C16.6012 1.27344 16.8341 1.825 16.8333 2.46875V16.5312C16.8333 17.1758 16.6 17.7277 16.1333 18.1871C15.6667 18.6465 15.1063 18.8758 14.4524 18.875H2.54761ZM4.99869 6C4.99869 6.55228 5.4464 7 5.99869 7H10.9987C11.551 7 11.9987 6.55228 11.9987 6C11.9987 5.44772 11.551 5 10.9987 5H5.99869C5.4464 5 4.99869 5.44772 4.99869 6ZM4.99869 9.5C4.99869 10.0523 5.4464 10.5 5.99869 10.5H10.9987C11.551 10.5 11.9987 10.0523 11.9987 9.5C11.9987 8.94771 11.551 8.5 10.9987 8.5H5.99869C5.4464 8.5 4.99869 8.94771 4.99869 9.5ZM4.99869 13C4.99869 13.5523 5.4464 14 5.99869 14H10.9987C11.551 14 11.9987 13.5523 11.9987 13C11.9987 12.4477 11.551 12 10.9987 12H5.99869C5.4464 12 4.99869 12.4477 4.99869 13Z" fill="#E9994A"/>
</svg>
