<svg width="25" height="25" viewBox="0 0 25 25" fill="none" xmlns="http://www.w3.org/2000/svg">
<mask id="path-1-inside-1_9204_35681" fill="white">
<path fill-rule="evenodd" clip-rule="evenodd" d="M13 3H3V13V23H13H23V13H13V3Z"/>
</mask>
<path d="M3 3V0H0V3H3ZM13 3H16V0H13V3ZM3 23H0V26H3V23ZM23 23V26H26V23H23ZM23 13H26V10H23V13ZM13 13H10V16H13V13ZM3 6H13V0H3V6ZM6 13V3H0V13H6ZM6 23V13H0V23H6ZM13 20H3V26H13V20ZM23 20H13V26H23V20ZM20 13V23H26V13H20ZM13 16H23V10H13V16ZM10 3V13H16V3H10Z" fill="black" mask="url(#path-1-inside-1_9204_35681)"/>
</svg>
