<svg width="19" height="19" viewBox="0 0 19 19" fill="none" xmlns="http://www.w3.org/2000/svg">
<path fill-rule="evenodd" clip-rule="evenodd" d="M6.89583 12.6252C6.89583 12.6252 6.11615 11.5304 5.85417 11.5903C3.03958 12.2309 0.125 14.0809 0.125 16.047V18.8752H18.875V16.047C18.875 14.0809 15.9604 12.2309 13.1458 11.5903C12.8839 11.5304 12.1042 12.6252 12.1042 12.6252H6.89583ZM10.3776 13.6668H6.35937L6.04792 13.2293L6.04271 13.2226L6.02187 13.1939C5.9017 13.0303 5.7754 12.8714 5.64323 12.7173C4.50521 13.0314 3.39115 13.5481 2.54844 14.1632C1.54687 14.8934 1.16667 15.5767 1.16667 16.047V17.8335H17.8333V16.047C17.8333 15.5767 17.4531 14.8934 16.4521 14.1632C15.6094 13.5486 14.4953 13.0314 13.3573 12.7173L13.3182 12.7621C13.1997 12.9016 13.0864 13.0454 12.9786 13.1934L12.9578 13.2226L12.9526 13.2288V13.2293L12.6411 13.6668H10.3776Z" fill="#323232"/>
<path fill-rule="evenodd" clip-rule="evenodd" d="M13.6667 16.7915V13.6665H14.7084V16.7915H13.6667Z" fill="#323232"/>
<path fill-rule="evenodd" clip-rule="evenodd" d="M15.75 15.75H12.625V14.7083H15.75V15.75ZM9.50002 9.5C10.6051 9.5 11.6649 9.06101 12.4463 8.27961C13.2277 7.49821 13.6667 6.4384 13.6667 5.33333C13.6667 4.22826 13.2277 3.16846 12.4463 2.38705C11.6649 1.60565 10.6051 1.16667 9.50002 1.16667C8.39495 1.16667 7.33514 1.60565 6.55374 2.38705C5.77234 3.16846 5.33335 4.22826 5.33335 5.33333C5.33335 6.4384 5.77234 7.49821 6.55374 8.27961C7.33514 9.06101 8.39495 9.5 9.50002 9.5ZM9.50002 10.5417C12.3766 10.5417 14.7084 8.2099 14.7084 5.33333C14.7084 2.45677 12.3766 0.125 9.50002 0.125C6.62346 0.125 4.29169 2.45677 4.29169 5.33333C4.29169 8.2099 6.62346 10.5417 9.50002 10.5417Z" fill="#323232"/>
</svg>
