<svg width="22" height="22" viewBox="0 0 22 22" fill="none" xmlns="http://www.w3.org/2000/svg">
<path d="M3.25 22C2.38805 22 1.5614 21.6576 0.951903 21.0481C0.34241 20.4386 0 19.612 0 18.75V3.25C0 2.38805 0.34241 1.5614 0.951903 0.951903C1.5614 0.34241 2.38805 0 3.25 0H18.75C19.612 0 20.4386 0.34241 21.0481 0.951903C21.6576 1.5614 22 2.38805 22 3.25V18.75C22 19.612 21.6576 20.4386 21.0481 21.0481C20.4386 21.6576 19.612 22 18.75 22H3.25ZM3.25 20.5H18.75C19.2141 20.5 19.6592 20.3156 19.9874 19.9874C20.3156 19.6592 20.5 19.2141 20.5 18.75V3.25C20.5 2.78587 20.3156 2.34075 19.9874 2.01256C19.6592 1.68437 19.2141 1.5 18.75 1.5H3.25C2.78587 1.5 2.34075 1.68437 2.01256 2.01256C1.68437 2.34075 1.5 2.78587 1.5 3.25V18.75C1.5 19.716 2.284 20.5 3.25 20.5ZM4.5 5.75C4.5 5.55109 4.57902 5.36032 4.71967 5.21967C4.86032 5.07902 5.05109 5 5.25 5H16.75C16.9489 5 17.1397 5.07902 17.2803 5.21967C17.421 5.36032 17.5 5.55109 17.5 5.75V11.25C17.5 11.4489 17.421 11.6397 17.2803 11.7803C17.1397 11.921 16.9489 12 16.75 12H5.25C5.05109 12 4.86032 11.921 4.71967 11.7803C4.57902 11.6397 4.5 11.4489 4.5 11.25V5.75ZM6 6.5V10.5H16V6.5H6Z" fill="black"/>
</svg>
