<svg width="30" height="17" viewBox="0 0 30 17" fill="none" xmlns="http://www.w3.org/2000/svg">
<mask id="mask0_8166_33303" style="mask-type:alpha" maskUnits="userSpaceOnUse" x="0" y="0" width="16" height="16">
<rect y="0.734375" width="15.8333" height="14.6853" fill="#C4C4C4"/>
</mask>
<g mask="url(#mask0_8166_33303)">
<path d="M30.0185 6.38315L27.4747 5.35872L25.2296 2.19961C24.5806 1.28392 23.4386 0.728724 22.2122 0.734418H12.6472C11.5377 0.734418 10.4864 1.18644 9.81152 1.96493L6.91092 5.3129L2.07649 6.4805C0.849933 6.77809 0 7.76822 0 8.88986V10.521C0 11.9002 1.24592 13.0391 2.80975 13.0391H3.22511C3.72471 14.7391 5.69097 15.7578 7.6182 15.3169C8.88349 15.0252 9.87639 14.1553 10.2009 13.0391H21.1025C21.6022 14.7391 23.5683 15.7578 25.4956 15.3169C26.7609 15.0252 27.7537 14.1553 28.0783 13.0391H28.8569C30.4208 13.0391 31.6666 11.9002 31.6666 10.521V8.661C31.6732 7.6824 31.0244 6.78948 30.0185 6.38315ZM6.7097 14.264C5.43779 14.264 4.406 13.3539 4.406 12.2323C4.406 11.1105 5.43779 10.2005 6.7097 10.2005C7.98145 10.2005 9.01324 11.1105 9.01324 12.2323C9.01985 13.3484 7.98806 14.2582 6.7097 14.264ZM24.5872 14.264C23.3153 14.264 22.2835 13.3539 22.2835 12.2323C22.2835 11.1105 23.3153 10.2005 24.5872 10.2005C25.859 10.2005 26.8907 11.1105 26.8907 12.2323C26.8972 13.3484 25.8654 14.2582 24.5872 14.264ZM28.8569 11.8945H28.169C27.9548 10.149 26.1704 8.88986 24.1912 9.08442C22.5104 9.2448 21.1867 10.418 21.005 11.8945H10.2914C10.0773 10.149 8.29289 8.88986 6.31371 9.08442C4.63305 9.2448 3.30919 10.418 3.12749 11.8945H2.80298C1.9529 11.8945 1.29112 11.2708 1.29112 10.521V8.88986C1.28466 8.27745 1.74537 7.74531 2.41376 7.57922L7.46878 6.3601C7.60498 6.3258 7.72827 6.25706 7.81266 6.15402L10.8365 2.65719C11.2713 2.16504 11.9397 1.87883 12.6469 1.87883H22.2119C22.9905 1.87314 23.7239 2.22225 24.1327 2.80592L26.4817 6.11389C26.5466 6.2111 26.6505 6.28554 26.7605 6.33136L29.4731 7.42453C30.0182 7.64769 30.3686 8.12845 30.3621 8.66073V10.5207H30.3686C30.3689 11.2708 29.7071 11.8945 28.8569 11.8945Z" fill="#323232"/>
</g>
<mask id="mask1_8166_33303" style="mask-type:alpha" maskUnits="userSpaceOnUse" x="16" y="1" width="14" height="16">
<rect x="16.667" y="1.46851" width="13.3333" height="14.6853" fill="#C4C4C4"/>
</mask>
<g mask="url(#mask1_8166_33303)">
<path d="M25.1389 3.67117C25.1389 3.28169 24.9691 2.90816 24.667 2.63276C24.3649 2.35736 23.9551 2.20264 23.5278 2.20264H19.5L25.1389 11.0138" stroke="#323232" stroke-linecap="round" stroke-linejoin="round"/>
<path d="M25.1391 14.6852C27.3636 14.6852 29.1669 13.0415 29.1669 11.0139C29.1669 8.98624 27.3636 7.34253 25.1391 7.34253C22.9146 7.34253 21.1113 8.98624 21.1113 11.0139C21.1113 13.0415 22.9146 14.6852 25.1391 14.6852Z" stroke="#323232" stroke-linecap="round" stroke-linejoin="round"/>
<path d="M9.02734 2.20264H11.8468L17.4857 11.0138" stroke="#323232" stroke-linecap="round" stroke-linejoin="round"/>
<path d="M21.3208 5.13965H13.7265L9.02734 11.0138" stroke="#323232" stroke-linecap="round" stroke-linejoin="round"/>
</g>
<line x1="16.333" y1="0.5" x2="16.333" y2="14.1853" stroke="#323232" stroke-linecap="round"/>
</svg>
