<svg width="23" height="25" viewBox="0 0 23 25" fill="none" xmlns="http://www.w3.org/2000/svg">
<path d="M2.09091 3.5C2.09091 3.22388 2.32496 3 2.61364 3H5.75C6.03867 3 6.27273 3.22388 6.27273 3.5C6.27273 3.77612 6.03867 4 5.75 4H2.61364C2.32496 4 2.09091 3.77612 2.09091 3.5Z" fill="#323232"/>
<path d="M2.61364 5C2.32496 5 2.09091 5.22388 2.09091 5.5C2.09091 5.77612 2.32496 6 2.61364 6H5.75C6.03867 6 6.27273 5.77612 6.27273 5.5C6.27273 5.22388 6.03867 5 5.75 5H2.61364Z" fill="#323232"/>
<path d="M2.09091 7.5C2.09091 7.22388 2.32496 7 2.61364 7H5.75C6.03867 7 6.27273 7.22388 6.27273 7.5C6.27273 7.77612 6.03867 8 5.75 8H2.61364C2.32496 8 2.09091 7.77612 2.09091 7.5Z" fill="#323232"/>
<path d="M2.61364 13C2.90231 13 3.13636 12.7761 3.13636 12.5C3.13636 12.2239 2.90231 12 2.61364 12C2.32496 12 2.09091 12.2239 2.09091 12.5C2.09091 12.7761 2.32496 13 2.61364 13Z" fill="#323232"/>
<path d="M9.93182 3C9.64314 3 9.40909 3.22388 9.40909 3.5C9.40909 3.77612 9.64314 4 9.93182 4H13.0682C13.3569 4 13.5909 3.77612 13.5909 3.5C13.5909 3.22388 13.3569 3 13.0682 3H9.93182Z" fill="#323232"/>
<path d="M9.40909 5.5C9.40909 5.22388 9.64314 5 9.93182 5H13.0682C13.3569 5 13.5909 5.22388 13.5909 5.5C13.5909 5.77612 13.3569 6 13.0682 6H9.93182C9.64314 6 9.40909 5.77612 9.40909 5.5Z" fill="#323232"/>
<path d="M9.93182 7C9.64314 7 9.40909 7.22388 9.40909 7.5C9.40909 7.77612 9.64314 8 9.93182 8H13.0682C13.3569 8 13.5909 7.77612 13.5909 7.5C13.5909 7.22388 13.3569 7 13.0682 7H9.93182Z" fill="#323232"/>
<path d="M10.4545 12.5C10.4545 12.7761 10.2205 13 9.93182 13C9.64314 13 9.40909 12.7761 9.40909 12.5C9.40909 12.2239 9.64314 12 9.93182 12C10.2205 12 10.4545 12.2239 10.4545 12.5Z" fill="#323232"/>
<path d="M16.7273 3.5C16.7273 3.22388 16.9613 3 17.25 3H20.3864C20.675 3 20.9091 3.22388 20.9091 3.5C20.9091 3.77612 20.675 4 20.3864 4H17.25C16.9613 4 16.7273 3.77612 16.7273 3.5Z" fill="#323232"/>
<path d="M17.25 5C16.9613 5 16.7273 5.22388 16.7273 5.5C16.7273 5.77612 16.9613 6 17.25 6H20.3864C20.675 6 20.9091 5.77612 20.9091 5.5C20.9091 5.22388 20.675 5 20.3864 5H17.25Z" fill="#323232"/>
<path d="M16.7273 7.5C16.7273 7.22388 16.9613 7 17.25 7H20.3864C20.675 7 20.9091 7.22388 20.9091 7.5C20.9091 7.77612 20.675 8 20.3864 8H17.25C16.9613 8 16.7273 7.77612 16.7273 7.5Z" fill="#323232"/>
<path d="M17.25 13C17.5387 13 17.7727 12.7761 17.7727 12.5C17.7727 12.2239 17.5387 12 17.25 12C16.9613 12 16.7273 12.2239 16.7273 12.5C16.7273 12.7761 16.9613 13 17.25 13Z" fill="#323232"/>
<path fill-rule="evenodd" clip-rule="evenodd" d="M6.27273 25C6.89723 25 7.4578 24.738 7.84091 24.3229C8.22402 24.738 8.78459 25 9.40909 25H13.5909C14.2154 25 14.776 24.738 15.1591 24.3229C15.5422 24.738 16.1028 25 16.7273 25H20.9091C22.0639 25 23 24.1046 23 23V2C23 0.895386 22.0639 0 20.9091 0H16.7273C16.1028 0 15.5422 0.261963 15.1591 0.677124C14.776 0.261963 14.2154 0 13.5909 0H9.40909C8.78459 0 8.22402 0.261963 7.84091 0.677124C7.4578 0.261963 6.89723 0 6.27273 0H2.09091C0.936149 0 0 0.895386 0 2V23C0 24.1046 0.936149 25 2.09091 25H6.27273ZM6.27273 1H2.09091C1.5135 1 1.04545 1.44775 1.04545 2V23C1.04545 23.5522 1.5135 24 2.09091 24H6.27273C6.85014 24 7.31818 23.5522 7.31818 23V2C7.31818 1.44775 6.85014 1 6.27273 1ZM14.6364 2C14.6364 1.44775 14.1683 1 13.5909 1H9.40909C8.83168 1 8.36364 1.44775 8.36364 2V23C8.36364 23.5522 8.83168 24 9.40909 24H13.5909C14.1683 24 14.6364 23.5522 14.6364 23V2ZM15.6818 23C15.6818 23.5522 16.1499 24 16.7273 24H20.9091C21.4865 24 21.9545 23.5522 21.9545 23V2C21.9545 1.44775 21.4865 1 20.9091 1H16.7273C16.1499 1 15.6818 1.44775 15.6818 2V23Z" fill="#323232"/>
</svg>
