<svg width="22" height="22" viewBox="0 0 22 22" fill="none" xmlns="http://www.w3.org/2000/svg">
<path d="M22 18.0714C22 19.1133 21.5861 20.1126 20.8493 20.8493C20.1126 21.5861 19.1133 22 18.0714 22L3.92857 22C2.88665 22 1.8874 21.5861 1.15065 20.8493C0.413901 20.1126 -8.35471e-07 19.1133 -7.89927e-07 18.0714L-1.71723e-07 3.92857C-1.26179e-07 2.88665 0.413902 1.8874 1.15065 1.15065C1.8874 0.413901 2.88665 -8.35471e-07 3.92857 -7.89927e-07L18.0714 -1.71723e-07C19.1134 -1.26179e-07 20.1126 0.413902 20.8493 1.15065C21.5861 1.8874 22 2.88665 22 3.92857L22 18.0714ZM20.4286 18.0714L20.4286 3.92857C20.4286 3.30342 20.1802 2.70387 19.7382 2.26182C19.2961 1.81977 18.6966 1.57143 18.0714 1.57143L3.92857 1.57143C3.30342 1.57143 2.70387 1.81977 2.26182 2.26182C1.81977 2.70387 1.57143 3.30342 1.57143 3.92857L1.57143 18.0714C1.57143 18.6966 1.81977 19.2961 2.26182 19.7382C2.70387 20.1802 3.30342 20.4286 3.92857 20.4286L18.0714 20.4286C18.6966 20.4286 19.2961 20.1802 19.7382 19.7382C20.1802 19.2961 20.4286 18.6966 20.4286 18.0714ZM17.2857 5.5C17.2858 5.6839 17.2213 5.86199 17.1036 6.00326C16.9859 6.14454 16.8223 6.24004 16.6414 6.27314L16.5 6.28571L5.5 6.28571C5.30366 6.28607 5.11429 6.21291 4.9692 6.08063C4.8241 5.94835 4.73379 5.76653 4.71605 5.57099C4.69831 5.37545 4.75443 5.18036 4.87335 5.02412C4.99227 4.86789 5.16537 4.76184 5.35857 4.72686L5.5 4.71429L16.5 4.71429C16.7084 4.71429 16.9082 4.79707 17.0556 4.94442C17.2029 5.09177 17.2857 5.29162 17.2857 5.5ZM17.2857 11C17.2858 11.1839 17.2213 11.362 17.1036 11.5033C16.9859 11.6445 16.8223 11.74 16.6414 11.7731L16.5 11.7857L5.5 11.7857C5.30366 11.7861 5.11429 11.7129 4.9692 11.5806C4.8241 11.4483 4.73379 11.2665 4.71605 11.071C4.69831 10.8755 4.75443 10.6804 4.87335 10.5241C4.99227 10.3679 5.16537 10.2618 5.35857 10.2269L5.5 10.2143L16.5 10.2143C16.7084 10.2143 16.9082 10.2971 17.0556 10.4444C17.2029 10.5918 17.2857 10.7916 17.2857 11ZM17.2857 16.5C17.2858 16.6839 17.2213 16.862 17.1036 17.0033C16.9859 17.1445 16.8223 17.24 16.6414 17.2731L16.5 17.2857L5.5 17.2857C5.30366 17.2861 5.11429 17.2129 4.9692 17.0806C4.8241 16.9483 4.73379 16.7665 4.71605 16.571C4.69831 16.3755 4.75443 16.1804 4.87335 16.0241C4.99227 15.8679 5.16537 15.7618 5.35857 15.7269L5.5 15.7143L16.5 15.7143C16.7084 15.7143 16.9082 15.7971 17.0556 15.9444C17.2029 16.0918 17.2857 16.2916 17.2857 16.5Z" fill="black"/>
</svg>
