<svg width="22" height="22" viewBox="0 0 22 22" fill="none" xmlns="http://www.w3.org/2000/svg">
<path d="M18.0714 0C19.1133 0 20.1126 0.413902 20.8493 1.15065C21.5861 1.8874 22 2.88665 22 3.92857V18.0714C22 19.1133 21.5861 20.1126 20.8493 20.8493C20.1126 21.5861 19.1133 22 18.0714 22H3.92857C2.88665 22 1.8874 21.5861 1.15065 20.8493C0.413902 20.1126 0 19.1133 0 18.0714V3.92857C0 2.88665 0.413902 1.8874 1.15065 1.15065C1.8874 0.413902 2.88665 0 3.92857 0H18.0714ZM18.0714 1.57143H3.92857C3.30342 1.57143 2.70387 1.81977 2.26182 2.26182C1.81977 2.70387 1.57143 3.30342 1.57143 3.92857V18.0714C1.57143 18.6966 1.81977 19.2961 2.26182 19.7382C2.70387 20.1802 3.30342 20.4286 3.92857 20.4286H18.0714C18.6966 20.4286 19.2961 20.1802 19.7382 19.7382C20.1802 19.2961 20.4286 18.6966 20.4286 18.0714V3.92857C20.4286 3.30342 20.1802 2.70387 19.7382 2.26182C19.2961 1.81977 18.6966 1.57143 18.0714 1.57143ZM15.2711 9.42857C15.972 9.42857 16.225 9.50086 16.4811 9.63914C16.7344 9.77289 16.9414 9.97991 17.0751 10.2331C17.2134 10.4893 17.2857 10.7423 17.2857 11.4431V15.2711C17.2857 15.972 17.2134 16.225 17.0751 16.4811C16.9412 16.7343 16.7343 16.9412 16.4811 17.0751C16.2266 17.2134 15.972 17.2857 15.2711 17.2857H6.72886C6.028 17.2857 5.775 17.2134 5.51886 17.0751C5.26574 16.9412 5.05877 16.7343 4.92486 16.4811C4.78657 16.2266 4.71429 15.972 4.71429 15.2711V11.4431C4.71429 10.7423 4.78657 10.4893 4.92486 10.2331C5.05884 9.98008 5.2658 9.77313 5.51886 9.63914C5.775 9.50086 6.028 9.42857 6.72886 9.42857H15.2711ZM15.576 11.0031H6.424L6.29829 11.011L6.28886 11.1367V15.576L6.29671 15.7017L6.42243 15.7111H15.576L15.7017 15.7033L15.7111 15.5776V11.1383L15.7033 11.0126L15.5776 11.0031H15.576ZM16.5 4.71429C16.6963 4.71392 16.8857 4.78709 17.0308 4.91937C17.1759 5.05165 17.2662 5.23346 17.2839 5.42901C17.3017 5.62455 17.2456 5.81964 17.1267 5.97588C17.0077 6.13211 16.8346 6.23816 16.6414 6.27314L16.5 6.28571H5.5C5.30366 6.28608 5.11429 6.21291 4.9692 6.08063C4.8241 5.94835 4.73379 5.76654 4.71605 5.57099C4.69831 5.37545 4.75443 5.18036 4.87334 5.02412C4.99226 4.86789 5.16537 4.76184 5.35857 4.72686L5.5 4.71429H16.5Z" fill="black"/>
</svg>
