<svg width="22" height="22" viewBox="0 0 22 22" fill="none" xmlns="http://www.w3.org/2000/svg">
<path d="M18.0278 0C19.0813 0 20.0916 0.418501 20.8366 1.16344C21.5815 1.90837 22 2.91872 22 3.97222V18.0278C22 19.0813 21.5815 20.0916 20.8366 20.8366C20.0916 21.5815 19.0813 22 18.0278 22H3.97222C2.91872 22 1.90837 21.5815 1.16344 20.8366C0.418501 20.0916 0 19.0813 0 18.0278V3.97222C0 2.91872 0.418501 1.90837 1.16344 1.16344C1.90837 0.418501 2.91872 0 3.97222 0H18.0278ZM18.0278 1.83333H3.97222C3.40495 1.83333 2.86092 2.05868 2.4598 2.4598C2.05868 2.86092 1.83333 3.40495 1.83333 3.97222V18.0278C1.83333 19.2084 2.79156 20.1667 3.97222 20.1667H18.0278C18.595 20.1667 19.1391 19.9413 19.5402 19.5402C19.9413 19.1391 20.1667 18.595 20.1667 18.0278V3.97222C20.1667 3.40495 19.9413 2.86092 19.5402 2.4598C19.1391 2.05868 18.595 1.83333 18.0278 1.83333ZM5.80556 4.88889C6.02707 4.8889 6.24108 4.96912 6.40803 5.11472C6.57497 5.26031 6.68354 5.46143 6.71367 5.68089L6.72222 5.80556V16.1944C6.72215 16.4267 6.63392 16.6503 6.47537 16.82C6.31681 16.9897 6.09975 17.0929 5.86804 17.1087C5.63632 17.1245 5.40724 17.0518 5.22708 16.9052C5.04692 16.7587 4.9291 16.5492 4.89744 16.3191L4.88889 16.1944V5.80556C4.88889 5.56244 4.98547 5.32928 5.15737 5.15737C5.32928 4.98547 5.56244 4.88889 5.80556 4.88889Z" fill="black"/>
</svg>
