<svg width="25" height="25" viewBox="0 0 25 25" fill="none" xmlns="http://www.w3.org/2000/svg">
<g clip-path="url(#clip0_6641_24562)">
<path d="M12.5 0.5C19.1274 0.5 24.5 5.8726 24.5 12.5C24.5 19.1274 19.1274 24.5 12.5 24.5C5.8726 24.5 0.5 19.1274 0.5 12.5C0.5 5.8726 5.8726 0.5 12.5 0.5Z" fill="#323232"/>
<path d="M4.5 8.90314V14.3017C4.5052 15.5224 5.58743 16.505 6.90724 16.5H15.4484C15.6911 16.5 15.8865 16.32 15.8865 16.1011V10.7026C15.8813 9.48181 14.7991 8.49928 13.4795 8.50426H4.93834C4.69556 8.50426 4.50021 8.68425 4.50021 8.90314H4.5ZM16.4301 11.0091L19.9564 8.63575C20.2626 8.40229 20.5 8.46056 20.5 8.88378V16.1207C20.5 16.6021 20.2096 16.5439 19.9564 16.3687L16.4301 14.0002V11.0091Z" fill="white"/>
</g>
<defs>
<clipPath id="clip0_6641_24562">
<rect width="24" height="24" fill="white" transform="translate(0.5 0.5)"/>
</clipPath>
</defs>
</svg>
