<svg width="20" height="20" viewBox="0 0 20 20" fill="none" xmlns="http://www.w3.org/2000/svg">
<path d="M20 10.4286C20 10.9809 19.5523 11.4286 19 11.4286H12.4286C11.8763 11.4286 11.4286 11.8763 11.4286 12.4286V19C11.4286 19.5523 10.9809 20 10.4286 20H9.57143C9.01915 20 8.57143 19.5523 8.57143 19V12.4286C8.57143 11.8763 8.12371 11.4286 7.57143 11.4286H0.999999C0.447714 11.4286 0 10.9809 0 10.4286V9.57143C0 9.01915 0.447715 8.57143 1 8.57143H7.57143C8.12371 8.57143 8.57143 8.12371 8.57143 7.57143V0.999999C8.57143 0.447714 9.01914 0 9.57143 0H10.4286C10.9809 0 11.4286 0.447715 11.4286 1V7.57143C11.4286 8.12371 11.8763 8.57143 12.4286 8.57143H19C19.5523 8.57143 20 9.01914 20 9.57143V10.4286Z" fill="#1B1B1B"/>
</svg>
