<svg width="70" height="45" viewBox="0 0 70 45" fill="none" xmlns="http://www.w3.org/2000/svg">
<path d="M65.27 10.5007C67.8082 10.5007 69.8056 12.5337 69.4604 14.912C69.0481 17.7529 68.2787 20.5382 67.1655 23.2018C65.4162 27.3873 62.8522 31.1905 59.6195 34.3943C56.3868 37.5982 52.5489 40.1398 48.3246 41.874C44.1003 43.6081 39.5726 44.5007 35 44.5007C30.4274 44.5007 25.8997 43.6081 21.6754 41.874C17.4511 40.1398 13.6132 37.5982 10.3805 34.3943C7.14784 31.1905 4.58379 27.3873 2.83453 23.2018C1.72128 20.5382 0.951887 17.7529 0.539575 14.912C0.194411 12.5337 2.19182 10.5007 4.73001 10.5007L65.27 10.5007Z" fill="#C9C9C9" stroke="#323232"/>
<circle cx="35" cy="13.0007" r="12.5" fill="#800040" stroke="#323232"/>
</svg>