<svg width="26" height="26" viewBox="0 0 26 26" fill="none" xmlns="http://www.w3.org/2000/svg">
<path d="M2 13.9444C1.17157 13.9444 0.5 13.2729 0.5 12.4444V2C0.5 1.17157 1.17157 0.5 2 0.5H9.55556C10.384 0.5 11.0556 1.17157 11.0556 2V12.4444C11.0556 13.2729 10.384 13.9444 9.55555 13.9444H2ZM2 25.5C1.17157 25.5 0.5 24.8284 0.5 24V19.3333C0.5 18.5049 1.17157 17.8333 2 17.8333H9.55556C10.384 17.8333 11.0556 18.5049 11.0556 19.3333V24C11.0556 24.8284 10.384 25.5 9.55555 25.5H2ZM16.4444 25.5C15.616 25.5 14.9444 24.8284 14.9444 24V13.5556C14.9444 12.7271 15.616 12.0556 16.4444 12.0556H24C24.8284 12.0556 25.5 12.7271 25.5 13.5556V24C25.5 24.8284 24.8284 25.5 24 25.5H16.4444ZM14.9444 2C14.9444 1.17157 15.616 0.5 16.4444 0.5H24C24.8284 0.5 25.5 1.17157 25.5 2V6.66667C25.5 7.49509 24.8284 8.16667 24 8.16667H16.4444C15.616 8.16667 14.9444 7.49509 14.9444 6.66667V2Z" stroke="#777777"/>
</svg>
