<svg width="30" height="30" viewBox="0 0 30 30" fill="none" xmlns="http://www.w3.org/2000/svg">
<path d="M23.4844 10.8279C22.532 10.8279 21.7573 11.6049 21.7573 12.56V13.727C21.4327 13.5143 21.0465 13.388 20.6304 13.388H20.1136L21.3551 5.26578C21.4258 4.80534 21.2929 4.33866 20.9902 3.98498C20.6878 3.63157 20.2481 3.42871 19.7836 3.42871H10.1416C9.6772 3.42871 9.23744 3.63157 8.93504 3.98504C8.63242 4.33871 8.4995 4.80539 8.5702 5.26562L9.81177 13.3881H9.29755C8.88048 13.3881 8.49333 13.5148 8.16804 13.7291V12.56C8.16804 11.6049 7.39333 10.8279 6.44096 10.8279C5.48916 10.8279 4.71429 11.6049 4.71429 12.56C4.71429 12.8205 4.9245 13.0316 5.18439 13.0316C5.44427 13.0316 5.65427 12.8205 5.65427 12.56C5.65427 12.1248 6.00728 11.7707 6.44101 11.7707C6.87516 11.7707 7.22817 12.1248 7.22817 12.56C7.22817 12.56 7.23017 15.4727 7.23038 15.4763C7.23459 16.6167 8.15992 17.5434 9.29766 17.5434H12.784L8.5611 23.8019C8.44525 23.7755 8.32595 23.7585 8.20244 23.7585C7.31147 23.7585 6.58679 24.4856 6.58679 25.3793C6.58679 26.2728 7.31147 27.0001 8.20244 27.0001C9.09321 27.0001 9.8185 26.2728 9.8185 25.3793C9.8185 24.9511 9.64902 24.564 9.37757 24.274L13.9187 17.5434H14.494V23.8363C13.8325 24.0393 13.3466 24.6502 13.3466 25.3793C13.3466 26.2728 14.0717 27.0001 14.9627 27.0001C15.8536 27.0001 16.5787 26.2728 16.5787 25.3793C16.5787 24.6512 16.0942 24.0409 15.4339 23.8371V17.5434H16.0038L20.5489 24.2724C20.2769 24.5626 20.1068 24.9505 20.1068 25.3793C20.1068 26.2728 20.8321 27.0001 21.7228 27.0001C22.6138 27.0001 23.3385 26.2728 23.3385 25.3793C23.3385 24.4856 22.6138 23.7585 21.7228 23.7585C21.6001 23.7585 21.4815 23.775 21.3664 23.8012L17.1395 17.5434H20.6305C21.7711 17.5434 22.6991 16.6127 22.6991 15.4687L22.6973 12.56C22.6973 12.1248 23.0503 11.7707 23.4845 11.7707C23.9182 11.7707 24.2712 12.1248 24.2712 12.56C24.2712 12.8205 24.4813 13.0316 24.7411 13.0316C25.001 13.0316 25.2112 12.8205 25.2112 12.56C25.2111 11.605 24.4362 10.8279 23.4844 10.8279ZM8.20249 26.0571C7.82979 26.0571 7.52682 25.7531 7.52682 25.3793C7.52682 25.0055 7.82984 24.7013 8.20249 24.7013C8.57519 24.7013 8.87858 25.0054 8.87858 25.3793C8.87858 25.7531 8.57519 26.0571 8.20249 26.0571ZM15.6387 25.3793C15.6387 25.7531 15.3354 26.0571 14.9627 26.0571C14.59 26.0571 14.2866 25.7531 14.2866 25.3793C14.2866 25.0055 14.59 24.7013 14.9627 24.7013C15.3354 24.7014 15.6387 25.0055 15.6387 25.3793ZM22.3985 25.3793C22.3985 25.7531 22.0955 26.0571 21.7228 26.0571C21.3501 26.0571 21.0467 25.7531 21.0467 25.3793C21.0467 25.0055 21.3501 24.7013 21.7228 24.7013C22.0955 24.7013 22.3985 25.0055 22.3985 25.3793ZM9.49907 5.1226C9.46976 4.93165 9.52298 4.74556 9.64825 4.59892C9.77397 4.45228 9.94885 4.37151 10.1416 4.37151H19.7837C19.9765 4.37151 20.1514 4.45228 20.2771 4.59892C20.4024 4.74556 20.4556 4.93165 20.4263 5.1228L19.1628 13.3881H10.7625L9.49907 5.1226ZM20.6304 16.6006H9.29745C8.67557 16.6006 8.16938 16.0927 8.16938 15.4631C8.16938 14.8387 8.67557 14.3309 9.29745 14.3309H20.6304C21.2467 14.3309 21.7473 14.829 21.7573 15.4447V15.463C21.7573 15.4659 21.7587 15.468 21.7589 15.4708C21.7575 16.0939 21.2521 16.6006 20.6304 16.6006Z" fill="#777777"/>
</svg>
