<svg width="28" height="22" viewBox="0 0 28 22" fill="none" xmlns="http://www.w3.org/2000/svg">
<path d="M28 7.47095C28 8.26155 27.8693 9.0413 27.6163 9.79101C26.4274 15.1333 16.1428 21.5961 15.7049 21.8715C15.5684 21.9558 15.415 22 15.2586 22C15.1023 22 14.9468 21.9608 14.8102 21.8715C14.6926 21.7956 11.795 19.9803 8.85706 17.485C8.50531 17.1838 8.46833 16.6644 8.76376 16.3169C9.06592 15.9719 9.58828 15.9297 9.94087 16.223C12.1308 18.0804 14.3438 19.5819 15.2628 20.1868C18.3512 18.1876 25.1701 13.1015 26.0059 9.34961C26.2245 8.68709 26.3228 8.08424 26.3228 7.47262C26.3228 5.34322 25.1549 3.37945 23.2744 2.35147C20.8727 1.02852 17.6578 1.63847 15.9008 3.74117C15.5852 4.12082 14.9355 4.12082 14.6136 3.74117C12.8515 1.63722 9.63913 1.03186 7.24038 2.34897C5.35391 3.37987 4.18605 5.34197 4.18605 7.46928C4.18605 8.07715 4.28985 8.68209 4.48274 9.26701C4.60671 9.81437 4.84373 10.3492 5.14546 10.9041H10.0174L11.6903 7.08713C11.8336 6.76046 12.1757 6.55478 12.5279 6.59149C12.8868 6.62236 13.1856 6.87853 13.2654 7.22647L14.4971 12.396L16.0903 9.80227C16.2399 9.55612 16.511 9.40552 16.8022 9.40552H19.8258C20.2864 9.40552 20.66 9.77557 20.66 10.2345C20.66 10.6909 20.286 11.0631 19.8258 11.0631H17.2708L14.8707 14.9772C14.7178 15.2267 14.4476 15.3757 14.161 15.3757C14.1156 15.3757 14.0714 15.3723 14.0303 15.3661C13.6941 15.3123 13.4293 15.0661 13.3486 14.7399L12.2228 10.0309L11.3336 12.0635C11.2008 12.3685 10.8994 12.5612 10.5674 12.5612H0.834184C0.377379 12.5612 0 12.1903 0 11.7331C0 11.2762 0.377379 10.9045 0.834184 10.9045H3.2821C3.10812 10.4932 2.96776 10.0939 2.88077 9.70757C2.64796 9.03713 2.52188 8.25612 2.52188 7.4697C2.52188 4.73703 4.01921 2.22047 6.43813 0.89794C9.2399 -0.6407 12.9469 -0.156746 15.2624 2.00311C17.5712 -0.157163 21.2761 -0.640283 24.0825 0.89794C26.4985 2.21838 28 4.7362 28 7.47095Z" fill="#777777"/>
</svg>
