<svg width="24" height="23" viewBox="0 0 24 23" fill="none" xmlns="http://www.w3.org/2000/svg">
<path d="M2 10.75H9.5C9.83152 10.75 10.1495 10.6183 10.3839 10.3839C10.6183 10.1495 10.75 9.83152 10.75 9.5V2C10.75 1.66848 10.6183 1.35054 10.3839 1.11612C10.1495 0.881696 9.83152 0.75 9.5 0.75H2C1.66848 0.75 1.35054 0.881696 1.11612 1.11612C0.881696 1.35054 0.75 1.66848 0.75 2V9.5C0.75 9.83152 0.881696 10.1495 1.11612 10.3839C1.35054 10.6183 1.66848 10.75 2 10.75ZM2.5 2.5H9V9H2.5V2.5ZM19.5 14.5H17.5V17H15V19H17.5V21.5H19.5V19H22V17H19.5V14.5Z" fill="#777777"/>
<path fill-rule="evenodd" clip-rule="evenodd" d="M14.5745 10.75H22.0745C22.406 10.75 22.7239 10.6183 22.9584 10.3839C23.1928 10.1495 23.3245 9.83152 23.3245 9.5V2C23.3245 1.66848 23.1928 1.35054 22.9584 1.11612C22.7239 0.881696 22.406 0.75 22.0745 0.75H14.5745C14.243 0.75 13.925 0.881696 13.6906 1.11612C13.4562 1.35054 13.3245 1.66848 13.3245 2V9.5C13.3245 9.83152 13.4562 10.1495 13.6906 10.3839C13.925 10.6183 14.243 10.75 14.5745 10.75ZM21.5745 2.5H15.0745V9H21.5745V2.5Z" fill="#777777"/>
<path fill-rule="evenodd" clip-rule="evenodd" d="M2 23H9.5C9.83152 23 10.1495 22.8683 10.3839 22.6339C10.6183 22.3995 10.75 22.0815 10.75 21.75V14.25C10.75 13.9185 10.6183 13.6005 10.3839 13.3661C10.1495 13.1317 9.83152 13 9.5 13H2C1.66848 13 1.35054 13.1317 1.11612 13.3661C0.881696 13.6005 0.75 13.9185 0.75 14.25V21.75C0.75 22.0815 0.881696 22.3995 1.11612 22.6339C1.35054 22.8683 1.66848 23 2 23ZM9 14.75H2.5V21.25H9V14.75Z" fill="#777777"/>
</svg>
