<svg width="26" height="15" viewBox="0 0 26 15" fill="none" xmlns="http://www.w3.org/2000/svg">
<mask id="mask0_281_658" style="mask-type:alpha" maskUnits="userSpaceOnUse" x="0" y="1" width="14" height="13">
<rect x="0.142883" y="1.20081" width="13.5714" height="12.5874" fill="#C4C4C4"/>
</mask>
<g mask="url(#mask0_281_658)">
<path d="M25.8731 6.04261L23.6927 5.16453L21.7683 2.45672C21.212 1.67184 20.2331 1.19596 19.1819 1.20084H10.9834C10.0323 1.20084 9.13119 1.58829 8.55276 2.25556L6.06653 5.12525L1.92273 6.12605C0.871398 6.38113 0.142883 7.22982 0.142883 8.19122V9.58934C0.142883 10.7715 1.21082 11.7477 2.55124 11.7477H2.90726C3.33549 13.2049 5.02086 14.0781 6.67277 13.7002C7.75731 13.4501 8.60836 12.7045 8.88651 11.7477H18.2307C18.6591 13.2049 20.3443 14.0781 21.9962 13.7002C23.0808 13.4501 23.9318 12.7045 24.21 11.7477H24.8773C26.2179 11.7477 27.2857 10.7715 27.2857 9.58934V7.99506C27.2914 7.15626 26.7352 6.3909 25.8731 6.04261ZM5.89405 12.7977C4.80385 12.7977 3.91946 12.0175 3.91946 11.0561C3.91946 10.0946 4.80385 9.31462 5.89405 9.31462C6.98412 9.31462 7.86851 10.0946 7.86851 11.0561C7.87418 12.0128 6.98979 12.7927 5.89405 12.7977ZM21.2176 12.7977C20.1274 12.7977 19.243 12.0175 19.243 11.0561C19.243 10.0946 20.1274 9.31462 21.2176 9.31462C22.3077 9.31462 23.1921 10.0946 23.1921 11.0561C23.1976 12.0128 22.3132 12.7927 21.2176 12.7977ZM24.8773 10.7667H24.2877C24.1042 9.27046 22.5747 8.19122 20.8782 8.35798C19.4375 8.49546 18.3029 9.50102 18.1472 10.7667H8.96412C8.78057 9.27046 7.25107 8.19122 5.55463 8.35798C4.11407 8.49546 2.97933 9.50102 2.82359 10.7667H2.54544C1.81679 10.7667 1.24956 10.232 1.24956 9.58934V8.19122C1.24402 7.6663 1.63891 7.21018 2.21182 7.06782L6.54469 6.02286C6.66144 5.99346 6.76711 5.93454 6.83945 5.84622L9.43135 2.84893C9.80397 2.42709 10.3769 2.18177 10.9831 2.18177H19.1816C19.849 2.17689 20.4777 2.47613 20.828 2.97641L22.8415 5.81182C22.8971 5.89514 22.9862 5.95894 23.0805 5.99822L25.4056 6.93522C25.8728 7.1265 26.1731 7.53859 26.1676 7.99483V9.58911H26.1731C26.1734 10.232 25.6061 10.7667 24.8773 10.7667Z" fill="#777777"/>
</g>
<mask id="mask1_281_658" style="mask-type:alpha" maskUnits="userSpaceOnUse" x="14" y="1" width="12" height="14">
<rect x="14.4286" y="1.8302" width="11.4286" height="12.5874" fill="#C4C4C4"/>
</mask>
<g mask="url(#mask1_281_658)">
<path d="M21.6906 3.71834C21.6906 3.3845 21.5451 3.06433 21.2862 2.82827C21.0272 2.59221 20.6759 2.45959 20.3097 2.45959H16.8573L21.6906 10.0121" stroke="#777777" stroke-linecap="round" stroke-linejoin="round"/>
<path d="M21.6905 13.159C23.5972 13.159 25.1429 11.7501 25.1429 10.0121C25.1429 8.27413 23.5972 6.86523 21.6905 6.86523C19.7838 6.86523 18.2382 8.27413 18.2382 10.0121C18.2382 11.7501 19.7838 13.159 21.6905 13.159Z" stroke="#777777" stroke-linecap="round" stroke-linejoin="round"/>
<path d="M7.88086 2.45959H10.2975L15.1309 10.0121" stroke="#777777" stroke-linecap="round" stroke-linejoin="round"/>
<path d="M18.4181 4.97705H11.9087L7.88086 10.012" stroke="#777777" stroke-linecap="round" stroke-linejoin="round"/>
</g>
<line x1="14.2143" y1="1.07141" x2="14.2143" y2="12.6588" stroke="#777777" stroke-linecap="round"/>
</svg>
