<svg width="26" height="26" viewBox="0 0 26 26" fill="none" xmlns="http://www.w3.org/2000/svg">
<path d="M18.6199 11.4683C18.7425 11.3137 18.7999 11.1173 18.7796 10.921C18.7594 10.7248 18.6632 10.5442 18.5117 10.4179C18.3601 10.2915 18.1651 10.2295 17.9684 10.245C17.7717 10.2605 17.5889 10.3523 17.459 10.5008L15.648 12.6735C15.2752 13.122 15.0444 13.3951 14.8559 13.5654C14.8069 13.6135 14.7517 13.6549 14.6917 13.6884L14.6806 13.6934L14.6695 13.6884C14.6092 13.6549 14.5536 13.6136 14.5042 13.5654C14.3158 13.3941 14.086 13.122 13.7121 12.6735L13.4179 12.3208C13.0863 11.9228 12.788 11.565 12.5099 11.3131C12.2066 11.039 11.8246 10.7951 11.3207 10.7951C10.8169 10.7951 10.4359 11.039 10.1316 11.3131C9.85345 11.565 9.55516 11.9228 9.22461 12.3208L7.38043 14.5318C7.3169 14.6081 7.26903 14.6962 7.23954 14.791C7.21005 14.8858 7.19952 14.9855 7.20855 15.0843C7.22679 15.284 7.32359 15.4682 7.47768 15.5965C7.63176 15.7248 7.83049 15.7867 8.03016 15.7684C8.22983 15.7502 8.41408 15.6534 8.54237 15.4993L10.3533 13.3266C10.7262 12.8781 10.9569 12.605 11.1454 12.4347C11.1944 12.3866 11.2497 12.3452 11.3097 12.3118L11.3207 12.3067L11.3318 12.3118C11.3922 12.3452 11.4477 12.3865 11.4971 12.4347C11.6855 12.606 11.9153 12.8781 12.2892 13.3266L12.5835 13.6793C12.915 14.0773 13.2133 14.4351 13.4914 14.687C13.7948 14.9611 14.1767 15.205 14.6806 15.205C15.1845 15.205 15.5654 14.9611 15.8697 14.687C16.1479 14.4351 16.4462 14.0773 16.7767 13.6793L18.6199 11.4683Z" fill="#777777"/>
<path fill-rule="evenodd" clip-rule="evenodd" d="M12.9425 2.1665C10.6156 2.1665 8.79263 2.1665 7.36968 2.35798C5.91449 2.55348 4.76565 2.96263 3.86371 3.86356C2.96177 4.7655 2.55363 5.91433 2.35813 7.37053C2.16666 8.79247 2.16666 10.6155 2.16666 12.9424V13.0573C2.16666 15.3842 2.16666 17.2072 2.35813 18.6301C2.55363 20.0853 2.96278 21.2342 3.86371 22.1361C4.76565 23.0381 5.91449 23.4462 7.37069 23.6417C8.79263 23.8332 10.6156 23.8332 12.9425 23.8332H13.0574C15.3843 23.8332 17.2074 23.8332 18.6303 23.6417C20.0855 23.4462 21.2343 23.037 22.1363 22.1361C23.0382 21.2342 23.4463 20.0853 23.6418 18.6291C23.8333 17.2072 23.8333 15.3842 23.8333 13.0573V12.9424C23.8333 10.6155 23.8333 8.79247 23.6418 7.36953C23.4463 5.91433 23.0372 4.7655 22.1363 3.86356C21.2343 2.96162 20.0855 2.55348 18.6293 2.35798C17.2074 2.1665 15.3843 2.1665 13.0574 2.1665H12.9425ZM4.93294 4.93278C5.50735 4.35836 6.28332 4.02883 7.57224 3.8555C8.88232 3.68015 10.6036 3.67813 13 3.67813C15.3964 3.67813 17.1177 3.68015 18.4277 3.8555C19.7167 4.02883 20.4936 4.35937 21.0681 4.93278C21.6415 5.5072 21.971 6.28317 22.1443 7.57209C22.3197 8.88216 22.3217 10.6034 22.3217 12.9998C22.3217 15.3963 22.3197 17.1175 22.1443 18.4276C21.971 19.7165 21.6405 20.4935 21.067 21.0679C20.4926 21.6413 19.7167 21.9708 18.4277 22.1442C17.1177 22.3195 15.3964 22.3215 13 22.3215C10.6036 22.3215 8.88232 22.3195 7.57224 22.1442C6.28332 21.9708 5.50635 21.6403 4.93193 21.0669C4.35852 20.4925 4.02898 19.7165 3.85565 18.4276C3.6803 17.1175 3.67828 15.3963 3.67828 12.9998C3.67828 10.6034 3.6803 8.88216 3.85565 7.57209C4.02898 6.28317 4.35952 5.5072 4.93294 4.93278Z" fill="#777777"/>
</svg>
