<svg width="23" height="22" viewBox="0 0 23 22" fill="none" xmlns="http://www.w3.org/2000/svg">
<path d="M19.6315 5.30784C21.0163 5.30784 22.1427 4.18146 22.1427 2.79674C22.1427 1.41202 21.0163 0.285645 19.6315 0.285645C18.2468 0.285645 17.1204 1.41216 17.1204 2.79674C17.1204 4.18146 18.2468 5.30784 19.6315 5.30784ZM19.6315 1.95976C20.0932 1.95976 20.4688 2.33526 20.4688 2.79674C20.4688 3.25822 20.0932 3.63387 19.6315 3.63387C19.17 3.63387 18.7944 3.25836 18.7944 2.79674C18.7944 2.33512 19.1701 1.95976 19.6315 1.95976ZM3.22539 5.30784C4.61011 5.30784 5.73649 4.18146 5.73649 2.79674C5.73649 1.41202 4.61011 0.285645 3.22539 0.285645C1.84067 0.285645 0.714294 1.41216 0.714294 2.79674C0.714294 4.18146 1.84067 5.30784 3.22539 5.30784ZM3.22539 1.95976C3.68701 1.95976 4.06252 2.33526 4.06252 2.79674C4.06252 3.25822 3.68701 3.63387 3.22539 3.63387C2.76377 3.63387 2.38841 3.25836 2.38841 2.79674C2.38841 2.33512 2.76391 1.95976 3.22539 1.95976ZM19.6446 6.10305C19.6408 6.10305 19.6363 6.10305 19.6325 6.10305C17.8999 6.10305 17.243 7.36461 16.8289 8.59941C16.6882 9.01941 16.3825 9.93707 16.182 10.5396H15.1954V8.61429C15.1954 7.22957 14.0688 6.1032 12.6841 6.1032H10.173C8.78831 6.1032 7.66179 7.22957 7.66179 8.61429V10.5396H6.67504C6.47448 9.93707 6.16893 9.01941 6.02816 8.59941C5.61404 7.36461 4.95744 6.10305 3.22467 6.10305C3.22067 6.10305 3.21638 6.10305 3.21223 6.10305C1.83495 6.10777 0.714437 7.23443 0.714437 8.61415V13.1762C0.714437 14.2673 1.41424 15.1979 2.38855 15.5433V15.5618C2.41015 15.5618 2.43118 15.5634 2.45249 15.5649C2.54562 15.5951 2.64118 15.6203 2.73874 15.6395C3.02555 15.7721 3.22553 16.0622 3.22553 16.3988V21.7139H4.89964V16.3988C4.89964 16.1517 4.86317 15.913 4.79636 15.6872H5.77854C6.24002 15.6872 6.61553 16.0628 6.61553 16.5244V21.7139H8.28964V16.5244C8.28964 15.1395 7.16312 14.0131 5.77854 14.0131H3.22553C3.20393 14.0131 3.1829 14.0116 3.16159 14.0098C3.06832 13.9797 2.97291 13.9546 2.87535 13.9353C2.58839 13.8027 2.38855 13.5126 2.38855 13.1762V8.61415C2.38855 8.15439 2.76076 7.77874 3.21824 7.77702C3.59646 7.77573 3.98599 7.77445 4.44074 9.13113C4.65818 9.77972 5.27114 11.6221 5.2773 11.6405L5.46784 12.2133H17.3896L17.5802 11.6405C17.5863 11.6219 18.1993 9.77972 18.4167 9.13113C18.8713 7.77445 19.2608 7.77616 19.6394 7.77702C20.0967 7.77874 20.469 8.15424 20.469 8.61415V13.1762C20.469 13.5126 20.2691 13.8027 19.9821 13.9353C19.8845 13.9546 19.789 13.9797 19.696 14.0098C19.6747 14.0116 19.6535 14.0131 19.6319 14.0131H17.1208C15.736 14.0131 14.6097 15.1397 14.6097 16.5244V21.7139H16.2837V16.5244C16.2837 16.0628 16.6592 15.6872 17.1208 15.6872H18.0611C17.9943 15.9128 17.9578 16.1517 17.9578 16.3988V21.7139H19.6318V16.3988C19.6318 16.0622 19.8318 15.7721 20.1186 15.6395C20.2163 15.6202 20.3118 15.595 20.405 15.5649C20.4261 15.5632 20.4473 15.5618 20.4689 15.5618V15.5433C21.4431 15.1979 22.1429 14.2675 22.1429 13.1762V8.61415C22.1427 7.23443 21.0221 6.10791 19.6446 6.10305ZM9.33576 8.61429C9.33576 8.15281 9.71127 7.77716 10.1729 7.77716H12.684C13.1456 7.77716 13.521 8.15267 13.521 8.61429V10.5396H9.33576V8.61429ZM11.4284 5.30784C12.8132 5.30784 13.9397 4.18146 13.9397 2.79674C13.9397 1.41202 12.8132 0.285645 11.4284 0.285645C10.0437 0.285645 8.91734 1.41216 8.91734 2.79674C8.91734 4.18146 10.0437 5.30784 11.4284 5.30784ZM11.4284 1.95976C11.8901 1.95976 12.2656 2.33526 12.2656 2.79674C12.2656 3.25822 11.8901 3.63387 11.4284 3.63387C10.9668 3.63387 10.5915 3.25836 10.5915 2.79674C10.5915 2.33512 10.967 1.95976 11.4284 1.95976Z" fill="#777777"/>
</svg>
