<svg width="34" height="34" viewBox="0 0 34 34" fill="none" xmlns="http://www.w3.org/2000/svg">
<circle cx="16.6667" cy="17.3332" r="5.16667" fill="#800040" stroke="#323232"/>
<path d="M33.0505 18.9353C32.7475 21.4474 31.8579 23.8628 30.4421 25.9816C28.6657 28.6402 26.1408 30.7124 23.1868 31.936C20.2327 33.1596 16.9821 33.4797 13.8461 32.8559C10.7101 32.2322 7.82944 30.6924 5.56849 28.4315C3.30754 26.1705 1.76781 23.2899 1.14402 20.1539C0.520225 17.0179 0.840379 13.7673 2.064 10.8132C3.28761 7.85913 5.35973 5.33424 8.01833 3.55783C10.1371 2.14209 12.5526 1.25241 15.0646 0.949507C15.8231 0.858056 16.5 1.48625 16.5 2.33325V8.33325C16.5 9.13879 15.8157 9.86455 14.8821 10.1533C14.2249 10.3567 13.5967 10.6547 13.0185 11.0411C11.8399 11.8285 10.9213 12.9478 10.3789 14.2574C9.83648 15.5669 9.69456 17.0079 9.97109 18.3981C10.2476 19.7883 10.9302 21.0652 11.9324 22.0675C12.9347 23.0698 14.2117 23.7524 15.6019 24.0289C16.9921 24.3054 18.4331 24.1635 19.7426 23.6211C21.0521 23.0786 22.1714 22.1601 22.9589 20.9815C23.3453 20.4032 23.6433 19.7751 23.8466 19.1178C24.1354 18.1842 24.8612 17.4999 25.6667 17.4999H31.6667C32.5137 17.4999 33.1419 18.1769 33.0505 18.9353Z" fill="#C9C9C9" stroke="#323232"/>
</svg>