<svg width="98" height="32" viewBox="0 0 98 32" fill="none" xmlns="http://www.w3.org/2000/svg">
<rect x="0.5" y="3.66339" width="21.1436" height="10.0718" rx="2.5" fill="#EEEEEE" stroke="#101A22"/>
<circle cx="11.0718" cy="4.11238" r="3.61238" fill="#EEEEEE" stroke="#101A22"/>
<rect x="25.8069" y="3.66339" width="21.1436" height="10.0718" rx="2.5" fill="#EEEEEE" stroke="#101A22"/>
<circle cx="36.3787" cy="4.11238" r="3.61238" fill="#EEEEEE" stroke="#101A22"/>
<rect x="51.1139" y="3.66339" width="21.1436" height="10.0718" rx="2.5" fill="#EEEEEE" stroke="#101A22"/>
<circle cx="61.6857" cy="4.11238" r="3.61238" fill="#EEEEEE" stroke="#101A22"/>
<rect x="76.3563" y="3.66339" width="21.1436" height="10.0718" rx="2.5" fill="#EEEEEE" stroke="#101A22"/>
<circle cx="86.9281" cy="4.11238" r="3.61238" fill="#EEEEEE" stroke="#101A22"/>
<rect x="21.6437" y="27.9708" width="21.1436" height="10.0718" rx="2.5" transform="rotate(-180 21.6437 27.9708)" fill="#EEEEEE" stroke="#101A22"/>
<circle cx="11.0719" cy="27.5218" r="3.61238" transform="rotate(-180 11.0719 27.5218)" fill="#EEEEEE" stroke="#101A22"/>
<rect x="46.9506" y="27.9708" width="21.1436" height="10.0718" rx="2.5" transform="rotate(-180 46.9506 27.9708)" fill="#EEEEEE" stroke="#101A22"/>
<circle cx="36.3788" cy="27.5218" r="3.61238" transform="rotate(-180 36.3788 27.5218)" fill="#EEEEEE" stroke="#101A22"/>
<rect x="72.2576" y="27.9708" width="21.1436" height="10.0718" rx="2.5" transform="rotate(-180 72.2576 27.9708)" fill="#EEEEEE" stroke="#101A22"/>
<circle cx="61.6858" cy="27.5218" r="3.61238" transform="rotate(-180 61.6858 27.5218)" fill="#EEEEEE" stroke="#101A22"/>
<rect x="97.5" y="27.9708" width="21.1436" height="10.0718" rx="2.5" transform="rotate(-180 97.5 27.9708)" fill="#EEEEEE" stroke="#101A22"/>
<circle cx="86.9282" cy="27.5218" r="3.61238" transform="rotate(-180 86.9282 27.5218)" fill="#EEEEEE" stroke="#101A22"/>
</svg>
