<svg width="98" height="20" viewBox="0 0 98 20" fill="none" xmlns="http://www.w3.org/2000/svg">
<rect x="0.5" y="4.76086" width="28.8261" height="13.913" rx="4.5" fill="#EEEEEE" stroke="#101A22"/>
<path d="M19.9522 5.53913C19.9522 8.32217 17.6961 10.5783 14.913 10.5783C12.13 10.5783 9.8739 8.32217 9.8739 5.53913C9.8739 2.7561 12.13 0.5 14.913 0.5C17.6961 0.5 19.9522 2.7561 19.9522 5.53913Z" fill="#EEEEEE" stroke="#101A22"/>
<rect x="34.587" y="4.76086" width="28.8261" height="13.913" rx="4.5" fill="#EEEEEE" stroke="#101A22"/>
<path d="M54.0391 5.53913C54.0391 8.32217 51.783 10.5783 49 10.5783C46.217 10.5783 43.9609 8.32217 43.9609 5.53913C43.9609 2.7561 46.217 0.5 49 0.5C51.783 0.5 54.0391 2.7561 54.0391 5.53913Z" fill="#EEEEEE" stroke="#101A22"/>
<rect x="68.6739" y="4.76086" width="28.8261" height="13.913" rx="4.5" fill="#EEEEEE" stroke="#101A22"/>
<path d="M88.1261 5.53913C88.1261 8.32217 85.87 10.5783 83.0869 10.5783C80.3039 10.5783 78.0478 8.32217 78.0478 5.53913C78.0478 2.7561 80.3039 0.5 83.0869 0.5C85.87 0.5 88.1261 2.7561 88.1261 5.53913Z" fill="#EEEEEE" stroke="#101A22"/>
</svg>
