<svg width="98" height="43" viewBox="0 0 98 43" fill="none" xmlns="http://www.w3.org/2000/svg">
<rect x="0.5" y="4.76086" width="28.8261" height="13.913" rx="2.5" fill="#EEEEEE" stroke="#101A22"/>
<path d="M19.9522 5.53913C19.9522 8.32217 17.6961 10.5783 14.913 10.5783C12.13 10.5783 9.8739 8.32217 9.8739 5.53913C9.8739 2.7561 12.13 0.5 14.913 0.5C17.6961 0.5 19.9522 2.7561 19.9522 5.53913Z" fill="#EEEEEE" stroke="#101A22"/>
<rect x="34.587" y="4.76086" width="28.8261" height="13.913" rx="2.5" fill="#EEEEEE" stroke="#101A22"/>
<path d="M54.0391 5.53913C54.0391 8.32217 51.783 10.5783 49 10.5783C46.217 10.5783 43.9609 8.32217 43.9609 5.53913C43.9609 2.7561 46.217 0.5 49 0.5C51.783 0.5 54.0391 2.7561 54.0391 5.53913Z" fill="#EEEEEE" stroke="#101A22"/>
<rect x="68.6739" y="4.76086" width="28.8261" height="13.913" rx="2.5" fill="#EEEEEE" stroke="#101A22"/>
<path d="M88.1261 5.53913C88.1261 8.32217 85.87 10.5783 83.0869 10.5783C80.3039 10.5783 78.0478 8.32217 78.0478 5.53913C78.0478 2.7561 80.3039 0.5 83.0869 0.5C85.87 0.5 88.1261 2.7561 88.1261 5.53913Z" fill="#EEEEEE" stroke="#101A22"/>
<rect x="29.3261" y="37.8478" width="28.8261" height="13.913" rx="2.5" transform="rotate(-180 29.3261 37.8478)" fill="#EEEEEE" stroke="#101A22"/>
<path d="M9.87395 37.0696C9.87395 34.2865 12.13 32.0304 14.9131 32.0304C17.6961 32.0304 19.9522 34.2865 19.9522 37.0696C19.9522 39.8526 17.6961 42.1087 14.9131 42.1087C12.13 42.1087 9.87395 39.8526 9.87395 37.0696Z" fill="#EEEEEE" stroke="#101A22"/>
<rect x="63.413" y="37.8478" width="28.8261" height="13.913" rx="2.5" transform="rotate(-180 63.413 37.8478)" fill="#EEEEEE" stroke="#101A22"/>
<path d="M43.9609 37.0696C43.9609 34.2865 46.217 32.0304 49 32.0304C51.783 32.0304 54.0391 34.2865 54.0391 37.0696C54.0391 39.8526 51.783 42.1087 49 42.1087C46.217 42.1087 43.9609 39.8526 43.9609 37.0696Z" fill="#EEEEEE" stroke="#101A22"/>
<rect x="97.5" y="37.8478" width="28.8261" height="13.913" rx="2.5" transform="rotate(-180 97.5 37.8478)" fill="#EEEEEE" stroke="#101A22"/>
<path d="M78.0478 37.0696C78.0478 34.2865 80.3039 32.0304 83.087 32.0304C85.87 32.0304 88.1261 34.2865 88.1261 37.0696C88.1261 39.8526 85.87 42.1087 83.087 42.1087C80.3039 42.1087 78.0478 39.8526 78.0478 37.0696Z" fill="#EEEEEE" stroke="#101A22"/>
</svg>
