<svg width="50" height="50" viewBox="0 0 50 50" fill="none" xmlns="http://www.w3.org/2000/svg">
<mask id="path-1-inside-1_2077_56680" fill="white">
<path fill-rule="evenodd" clip-rule="evenodd" d="M20 5.00073C20 2.23931 17.7614 0.000732986 15 0.000732864L5 0.000732422C2.23858 0.0007323 1.96701e-06 2.23931 1.96701e-06 5.00073V35.0002V45.0002L0 45.0007C-1.20706e-07 47.7622 2.23858 50.0007 5 50.0007L15 50.0007C15.0238 50.0007 15.0477 50.0006 15.0714 50.0002H45C47.7614 50.0002 50 47.7617 50 45.0002V35.0002C50 32.2388 47.7614 30.0002 45 30.0002H25C22.2386 30.0002 20 27.7617 20 25.0002L20 5.00073Z"/>
</mask>
<path fill-rule="evenodd" clip-rule="evenodd" d="M20 5.00073C20 2.23931 17.7614 0.000732986 15 0.000732864L5 0.000732422C2.23858 0.0007323 1.96701e-06 2.23931 1.96701e-06 5.00073V35.0002V45.0002L0 45.0007C-1.20706e-07 47.7622 2.23858 50.0007 5 50.0007L15 50.0007C15.0238 50.0007 15.0477 50.0006 15.0714 50.0002H45C47.7614 50.0002 50 47.7617 50 45.0002V35.0002C50 32.2388 47.7614 30.0002 45 30.0002H25C22.2386 30.0002 20 27.7617 20 25.0002L20 5.00073Z" fill="#EEEEEE"/>
<path d="M15 0.000732864V-0.999267V0.000732864ZM20 5.00073H21H20ZM5 0.000732422V1.00073V0.000732422ZM1.96701e-06 45.0002L1 45.0042V45.0002H1.96701e-06ZM0 45.0007L-1 44.9968V45.0007H0ZM5 50.0007L5 49.0007H5V50.0007ZM15 50.0007V51.0007V50.0007ZM15.0714 50.0002V49.0001L15.0575 49.0003L15.0714 50.0002ZM20 25.0002H19H20ZM15 1.00073C17.2091 1.00073 19 2.79159 19 5.00073H21C21 1.68702 18.3137 -0.999267 15 -0.999267V1.00073ZM5 1.00073L15 1.00073V-0.999267L5 -0.999268V1.00073ZM1 5.00073C1 2.79159 2.79086 1.00073 5 1.00073V-0.999268C1.68629 -0.999268 -0.999998 1.68703 -0.999998 5.00073H1ZM1 35.0002V5.00073H-0.999998V35.0002H1ZM1 45.0002V35.0002H-0.999998V45.0002H1ZM0.999992 45.0047L0.999994 45.0042L-0.99999 44.9963L-0.999992 44.9968L0.999992 45.0047ZM5 49.0007C2.79086 49.0007 1 47.2099 1 45.0007H-1C-1 48.3144 1.68629 51.0007 5 51.0007V49.0007ZM15 49.0007L5 49.0007L5 51.0007L15 51.0007V49.0007ZM15.0575 49.0003C15.0383 49.0006 15.0192 49.0007 15 49.0007V51.0007C15.0285 51.0007 15.057 51.0005 15.0854 51.0001L15.0575 49.0003ZM45 49.0002H15.0714V51.0002H45V49.0002ZM49 45.0002C49 47.2094 47.2091 49.0002 45 49.0002V51.0002C48.3137 51.0002 51 48.3139 51 45.0002H49ZM49 35.0002V45.0002H51V35.0002H49ZM45 31.0002C47.2091 31.0002 49 32.7911 49 35.0002H51C51 31.6865 48.3137 29.0002 45 29.0002V31.0002ZM25 31.0002H45V29.0002H25V31.0002ZM19 5.00073L19 25.0002H21L21 5.00073H19ZM25 29.0002C22.7909 29.0002 21 27.2094 21 25.0002H19C19 28.3139 21.6863 31.0002 25 31.0002V29.0002Z" fill="#101A22" mask="url(#path-1-inside-1_2077_56680)"/>
<circle cx="24.2857" cy="24.2863" r="8.78571" fill="#EEEEEE" stroke="#101A22"/>
</svg>
