<!-- <svg width="90" height="37" viewBox="0 0 90 37" fill="none" xmlns="http://www.w3.org/2000/svg">
<rect x="5.02148" y="5.03125" width="79.9548" height="26.1357" rx="2.5" fill="#EEEEEE" stroke="#323232"/>
<circle cx="17.188" cy="5.8794" r="5.3794" fill="#EEEEEE" stroke="#101A22"/>
<circle cx="5.8794" cy="18.0864" r="5.3794" fill="#EEEEEE" stroke="#101A22"/>
<circle cx="35.728" cy="5.8794" r="5.3794" fill="#EEEEEE" stroke="#101A22"/>
<circle cx="54.273" cy="5.8794" r="5.3794" fill="#EEEEEE" stroke="#101A22"/>
<circle cx="72.813" cy="5.8794" r="5.3794" fill="#EEEEEE" stroke="#101A22"/>
<circle cx="84.1216" cy="18.0864" r="5.3794" fill="#EEEEEE" stroke="#101A22"/>
<circle cx="54.273" cy="30.2935" r="5.3794" fill="#EEEEEE" stroke="#101A22"/>
<circle cx="72.813" cy="30.2935" r="5.3794" fill="#EEEEEE" stroke="#101A22"/>
<circle cx="35.728" cy="30.2935" r="5.3794" fill="#EEEEEE" stroke="#101A22"/>
<circle cx="17.188" cy="30.2935" r="5.3794" fill="#EEEEEE" stroke="#101A22"/>
</svg> -->

<svg width="124" height="51" viewBox="0 0 124 51" fill="none" xmlns="http://www.w3.org/2000/svg">
<rect x="6.4812" y="6.55591" width="111.038" height="37" rx="4.75" fill="#EEEEEE" stroke="#323232"/>
<path d="M31.5289 8.18091C31.5289 12.5309 28.0134 16.0559 23.6784 16.0559C19.3434 16.0559 15.8279 12.5309 15.8279 8.18091C15.8279 3.83095 19.3434 0.305908 23.6784 0.305908C28.0134 0.305908 31.5289 3.83095 31.5289 8.18091Z" fill="#EEEEEE" stroke="#323232"/>
<path d="M15.951 25.0559C15.951 29.4059 12.4355 32.9309 8.1005 32.9309C3.7655 32.9309 0.25 29.4059 0.25 25.0559C0.25 20.706 3.7655 17.1809 8.1005 17.1809C12.4355 17.1809 15.951 20.706 15.951 25.0559Z" fill="#EEEEEE" stroke="#323232"/>
<path d="M57.0767 8.18091C57.0767 12.5309 53.5612 16.0559 49.2262 16.0559C44.8912 16.0559 41.3757 12.5309 41.3757 8.18091C41.3757 3.83095 44.8912 0.305908 49.2262 0.305908C53.5612 0.305908 57.0767 3.83095 57.0767 8.18091Z" fill="#EEEEEE" stroke="#323232"/>
<path d="M82.6243 8.18091C82.6243 12.5309 79.1088 16.0559 74.7738 16.0559C70.4388 16.0559 66.9233 12.5309 66.9233 8.18091C66.9233 3.83095 70.4388 0.305908 74.7738 0.305908C79.1088 0.305908 82.6243 3.83095 82.6243 8.18091Z" fill="#EEEEEE" stroke="#323232"/>
<path d="M108.172 8.18091C108.172 12.5309 104.657 16.0559 100.322 16.0559C95.9867 16.0559 92.4712 12.5309 92.4712 8.18091C92.4712 3.83095 95.9867 0.305908 100.322 0.305908C104.657 0.305908 108.172 3.83095 108.172 8.18091Z" fill="#EEEEEE" stroke="#323232"/>
<path d="M123.75 25.0559C123.75 29.4059 120.235 32.9309 115.9 32.9309C111.565 32.9309 108.049 29.4059 108.049 25.0559C108.049 20.706 111.565 17.1809 115.9 17.1809C120.235 17.1809 123.75 20.706 123.75 25.0559Z" fill="#EEEEEE" stroke="#323232"/>
<path d="M82.6243 41.9309C82.6243 46.2809 79.1088 49.8059 74.7738 49.8059C70.4388 49.8059 66.9233 46.2809 66.9233 41.9309C66.9233 37.581 70.4388 34.0559 74.7738 34.0559C79.1088 34.0559 82.6243 37.581 82.6243 41.9309Z" fill="#EEEEEE" stroke="#323232"/>
<path d="M108.172 41.9309C108.172 46.2809 104.657 49.8059 100.322 49.8059C95.9867 49.8059 92.4712 46.2809 92.4712 41.9309C92.4712 37.581 95.9867 34.0559 100.322 34.0559C104.657 34.0559 108.172 37.581 108.172 41.9309Z" fill="#EEEEEE" stroke="#323232"/>
<path d="M57.0767 41.9309C57.0767 46.2809 53.5612 49.8059 49.2262 49.8059C44.8912 49.8059 41.3757 46.2809 41.3757 41.9309C41.3757 37.581 44.8912 34.0559 49.2262 34.0559C53.5612 34.0559 57.0767 37.581 57.0767 41.9309Z" fill="#EEEEEE" stroke="#323232"/>
<path d="M31.5289 41.9309C31.5289 46.2809 28.0134 49.8059 23.6784 49.8059C19.3434 49.8059 15.8279 46.2809 15.8279 41.9309C15.8279 37.581 19.3434 34.0559 23.6784 34.0559C28.0134 34.0559 31.5289 37.581 31.5289 41.9309Z" fill="#EEEEEE" stroke="#323232"/>
</svg>

