<!-- <svg width="73" height="60" viewBox="0 0 73 60" fill="none" xmlns="http://www.w3.org/2000/svg">
<rect x="0.5" y="8" width="71.75" height="44" rx="4.5" fill="#EEEEEE" stroke="#101A22"/>
<circle cx="21" cy="9.75" r="9.25" fill="#EEEEEE" stroke="#101A22"/>
<circle cx="51.75" cy="9.75" r="9.25" fill="#EEEEEE" stroke="#101A22"/>
<circle cx="51.75" cy="50.25" r="9.25" fill="#EEEEEE" stroke="#101A22"/>
<circle cx="21" cy="50.25" r="9.25" fill="#EEEEEE" stroke="#101A22"/>
</svg>
 -->
 
<svg width="60" height="50" viewBox="0 0 60 50" fill="none" xmlns="http://www.w3.org/2000/svg">
<rect x="0.25" y="6.5" width="59.5" height="37" rx="4.75" fill="#EEEEEE" stroke="#323232"/>
<path d="M25.1108 8.125C25.1108 12.4767 21.6201 16 17.3196 16C13.019 16 9.52832 12.4767 9.52832 8.125C9.52832 3.77331 13.019 0.25 17.3196 0.25C21.6201 0.25 25.1108 3.77331 25.1108 8.125Z" fill="#EEEEEE" stroke="#323232"/>
<path d="M50.4716 8.125C50.4716 12.4767 46.9809 16 42.6804 16C38.3799 16 34.8892 12.4767 34.8892 8.125C34.8892 3.77331 38.3799 0.25 42.6804 0.25C46.9809 0.25 50.4716 3.77331 50.4716 8.125Z" fill="#EEEEEE" stroke="#323232"/>
<path d="M50.4716 41.875C50.4716 46.2267 46.9809 49.75 42.6804 49.75C38.3799 49.75 34.8892 46.2267 34.8892 41.875C34.8892 37.5233 38.3799 34 42.6804 34C46.9809 34 50.4716 37.5233 50.4716 41.875Z" fill="#EEEEEE" stroke="#323232"/>
<path d="M25.1108 41.875C25.1108 46.2267 21.6201 49.75 17.3196 49.75C13.019 49.75 9.52832 46.2267 9.52832 41.875C9.52832 37.5233 13.019 34 17.3196 34C21.6201 34 25.1108 37.5233 25.1108 41.875Z" fill="#EEEEEE" stroke="#323232"/>
</svg>
