<!-- <svg width="90" height="30" viewBox="0 0 90 30" fill="none" xmlns="http://www.w3.org/2000/svg">
<rect x="4.25" y="4.25" width="81.5" height="21.5" rx="2.5" fill="white" stroke="#101A22"/>
<circle cx="14.25" cy="4.875" r="4.375" fill="white" stroke="#101A22"/>
<circle cx="4.875" cy="15" r="4.375" fill="white" stroke="#101A22"/>
<circle cx="29.625" cy="4.875" r="4.375" fill="white" stroke="#101A22"/>
<circle cx="45" cy="4.875" r="4.375" fill="white" stroke="#101A22"/>
<circle cx="60.375" cy="4.875" r="4.375" fill="white" stroke="#101A22"/>
<circle cx="75.75" cy="4.875" r="4.375" fill="white" stroke="#101A22"/>
<circle cx="85.125" cy="15" r="4.375" fill="white" stroke="#101A22"/>
<circle cx="45" cy="25.125" r="4.375" fill="white" stroke="#101A22"/>
<circle cx="60.375" cy="25.125" r="4.375" fill="white" stroke="#101A22"/>
<circle cx="75.75" cy="25.125" r="4.375" fill="white" stroke="#101A22"/>
<circle cx="29.625" cy="25.125" r="4.375" fill="white" stroke="#101A22"/>
<circle cx="14.25" cy="25.125" r="4.375" fill="white" stroke="#101A22"/>
</svg> -->

<svg width="150" height="51" viewBox="0 0 150 51" fill="none" xmlns="http://www.w3.org/2000/svg">
<rect x="6.5" y="6.55591" width="137" height="37" rx="4.75" fill="white" stroke="#323232"/>
<circle cx="23.75" cy="8.18091" r="7.875" fill="white" stroke="#323232"/>
<circle cx="8.125" cy="25.0559" r="7.875" fill="white" stroke="#323232"/>
<circle cx="49.375" cy="8.18091" r="7.875" fill="white" stroke="#323232"/>
<circle cx="75" cy="8.18091" r="7.875" fill="white" stroke="#323232"/>
<circle cx="100.625" cy="8.18091" r="7.875" fill="white" stroke="#323232"/>
<circle cx="126.25" cy="8.18091" r="7.875" fill="white" stroke="#323232"/>
<circle cx="141.875" cy="25.0559" r="7.875" fill="white" stroke="#323232"/>
<circle cx="75" cy="41.9309" r="7.875" fill="white" stroke="#323232"/>
<circle cx="100.625" cy="41.9309" r="7.875" fill="white" stroke="#323232"/>
<circle cx="126.25" cy="41.9309" r="7.875" fill="white" stroke="#323232"/>
<circle cx="49.375" cy="41.9309" r="7.875" fill="white" stroke="#323232"/>
<circle cx="23.75" cy="41.9309" r="7.875" fill="white" stroke="#323232"/>
</svg>

