<!-- <svg width="90" height="53" viewBox="0 0 90 53" fill="none" xmlns="http://www.w3.org/2000/svg">
<rect x="0.5" y="7.02173" width="89" height="38.1304" rx="4.5" fill="#C1DAF0" stroke="#101A22"/>
<circle cx="18.2609" cy="8.47826" r="7.97826" fill="#C1DAF0" stroke="#101A22"/>
<circle cx="45" cy="8.47826" r="7.97826" fill="#C1DAF0" stroke="#101A22"/>
<circle cx="71.7391" cy="8.47826" r="7.97826" fill="#C1DAF0" stroke="#101A22"/>
<circle cx="71.7391" cy="43.6957" r="7.97826" fill="#C1DAF0" stroke="#101A22"/>
<circle cx="45" cy="43.6957" r="7.97826" fill="#C1DAF0" stroke="#101A22"/>
<circle cx="18.2609" cy="43.6957" r="7.97826" fill="#C1DAF0" stroke="#101A22"/>
</svg> -->


<svg width="86" height="50" viewBox="0 0 86 50" fill="none" xmlns="http://www.w3.org/2000/svg">
<rect x="0.25" y="6.5" width="85.5" height="37" rx="4.75" fill="#C1DAF0" stroke="#323232"/>
<path d="M25.3008 8.125C25.3008 12.4749 21.7849 16 17.4493 16C13.1138 16 9.5979 12.4749 9.5979 8.125C9.5979 3.77507 13.1138 0.25 17.4493 0.25C21.7849 0.25 25.3008 3.77507 25.3008 8.125Z" fill="#C1DAF0" stroke="#323232"/>
<path d="M50.8513 8.125C50.8513 12.4749 47.3354 16 42.9999 16C38.6643 16 35.1484 12.4749 35.1484 8.125C35.1484 3.77507 38.6643 0.25 42.9999 0.25C47.3354 0.25 50.8513 3.77507 50.8513 8.125Z" fill="#C1DAF0" stroke="#323232"/>
<path d="M76.4021 8.125C76.4021 12.4749 72.8862 16 68.5507 16C64.2151 16 60.6992 12.4749 60.6992 8.125C60.6992 3.77507 64.2151 0.25 68.5507 0.25C72.8862 0.25 76.4021 3.77507 76.4021 8.125Z" fill="#C1DAF0" stroke="#323232"/>
<path d="M76.4021 41.875C76.4021 46.2249 72.8862 49.75 68.5507 49.75C64.2151 49.75 60.6992 46.2249 60.6992 41.875C60.6992 37.5251 64.2151 34 68.5507 34C72.8862 34 76.4021 37.5251 76.4021 41.875Z" fill="#C1DAF0" stroke="#323232"/>
<path d="M50.8513 41.875C50.8513 46.2249 47.3354 49.75 42.9999 49.75C38.6643 49.75 35.1484 46.2249 35.1484 41.875C35.1484 37.5251 38.6643 34 42.9999 34C47.3354 34 50.8513 37.5251 50.8513 41.875Z" fill="#C1DAF0" stroke="#323232"/>
<path d="M25.3008 41.875C25.3008 46.2249 21.7849 49.75 17.4493 49.75C13.1138 49.75 9.5979 46.2249 9.5979 41.875C9.5979 37.5251 13.1138 34 17.4493 34C21.7849 34 25.3008 37.5251 25.3008 41.875Z" fill="#C1DAF0" stroke="#323232"/>
</svg>

