<!-- <svg width="90" height="41" viewBox="0 0 90 41" fill="none" xmlns="http://www.w3.org/2000/svg">
<rect x="0.5" y="5.52795" width="89" height="29.1676" rx="4.5" fill="#C1DAF0" stroke="#101A22"/>
<circle cx="14.0782" cy="6.53631" r="6.03631" fill="#C1DAF0" stroke="#101A22"/>
<circle cx="34.6927" cy="6.53631" r="6.03631" fill="#C1DAF0" stroke="#101A22"/>
<circle cx="55.3073" cy="6.53631" r="6.03631" fill="#C1DAF0" stroke="#101A22"/>
<circle cx="75.9218" cy="6.53631" r="6.03631" fill="#C1DAF0" stroke="#101A22"/>
<circle cx="55.3073" cy="33.6871" r="6.03631" fill="#C1DAF0" stroke="#101A22"/>
<circle cx="75.9218" cy="33.6871" r="6.03631" fill="#C1DAF0" stroke="#101A22"/>
<circle cx="34.6927" cy="33.6871" r="6.03631" fill="#C1DAF0" stroke="#101A22"/>
<circle cx="14.0782" cy="33.6871" r="6.03631" fill="#C1DAF0" stroke="#101A22"/>
</svg> -->

<svg width="112" height="51" viewBox="0 0 112 51" fill="none" xmlns="http://www.w3.org/2000/svg">
<rect x="0.25" y="6.50696" width="111.5" height="37.0419" rx="4.75" fill="#C1DAF0" stroke="#323232"/>
<circle cx="17.5196" cy="8.13408" r="7.88408" fill="#C1DAF0" stroke="#323232"/>
<circle cx="43.1731" cy="8.13408" r="7.88408" fill="#C1DAF0" stroke="#323232"/>
<circle cx="68.8267" cy="8.13408" r="7.88408" fill="#C1DAF0" stroke="#323232"/>
<circle cx="94.4805" cy="8.13408" r="7.88408" fill="#C1DAF0" stroke="#323232"/>
<circle cx="68.8267" cy="41.9218" r="7.88408" fill="#C1DAF0" stroke="#323232"/>
<circle cx="94.4805" cy="41.9218" r="7.88408" fill="#C1DAF0" stroke="#323232"/>
<circle cx="43.1731" cy="41.9218" r="7.88408" fill="#C1DAF0" stroke="#323232"/>
<circle cx="17.5196" cy="41.9218" r="7.88408" fill="#C1DAF0" stroke="#323232"/>
</svg>

