<svg width="400" height="400" viewBox="0 0 400 400" fill="none" xmlns="http://www.w3.org/2000/svg">
<mask id="path-1-inside-1_538_7912" fill="white">
<path fill-rule="evenodd" clip-rule="evenodd" d="M0 1C0 0.447715 0.447714 0 0.999999 0H399C399.552 0 400 0.447715 400 1V8L400 399C400 399.552 399.552 400 399 400H393C392.448 400 392 399.552 392 399L392 9C392 8.44771 391.552 8 391 8L9 8C8.44771 8 8 8.44771 8 9L8.00002 399C8.00002 399.552 7.5523 400 7.00002 400H1.00002C0.44773 400 1.52414e-05 399.552 1.52199e-05 399L0 8V1Z"/>
</mask>
<path fill-rule="evenodd" clip-rule="evenodd" d="M0 1C0 0.447715 0.447714 0 0.999999 0H399C399.552 0 400 0.447715 400 1V8L400 399C400 399.552 399.552 400 399 400H393C392.448 400 392 399.552 392 399L392 9C392 8.44771 391.552 8 391 8L9 8C8.44771 8 8 8.44771 8 9L8.00002 399C8.00002 399.552 7.5523 400 7.00002 400H1.00002C0.44773 400 1.52414e-05 399.552 1.52199e-05 399L0 8V1Z" fill="#EEEEEE"/>
<path d="M400 8H398H400ZM0 8H-2H0ZM8.00002 399H6.00002H8.00002ZM8 9H6H8ZM392 399H390H392ZM400 399H398H400ZM392 9H394H392ZM399 -2H0.999999V2H399V-2ZM402 8V1H398V8H402ZM398 8L398 399H402L402 8L398 8ZM399 398H393V402H399V398ZM394 399L394 9L390 9L390 399H394ZM9 10H391V6L9 6V10ZM10 399L10 9H6L6.00002 399H10ZM1.00002 402H7.00002V398H1.00002V402ZM-2 8L-1.99998 399H2.00002L2 8H-2ZM-2 1V8H2V1H-2ZM1.00002 398C1.5523 398 2.00002 398.448 2.00002 399H-1.99998C-1.99998 400.657 -0.656838 402 1.00002 402V398ZM6.00002 399C6.00002 398.448 6.44773 398 7.00002 398V402C8.65687 402 10 400.657 10 399H6.00002ZM9 6C7.34314 6 6 7.34314 6 9H10C10 9.55229 9.55228 10 9 10V6ZM393 398C393.552 398 394 398.448 394 399H390C390 400.657 391.343 402 393 402V398ZM398 399C398 398.448 398.448 398 399 398V402C400.657 402 402 400.657 402 399H398ZM0.999999 -2C-0.656858 -2 -2 -0.656852 -2 1H2C2 1.55228 1.55229 2 0.999999 2V-2ZM394 9C394 7.34312 392.657 6 391 6V10C390.448 10 390 9.55231 390 9L394 9ZM399 2C398.448 2 398 1.55228 398 1H402C402 -0.656854 400.657 -2 399 -2V2Z" fill="#777777" mask="url(#path-1-inside-1_538_7912)"/>
</svg>
