<svg width="600" height="600" viewBox="0 0 600 600" fill="none" xmlns="http://www.w3.org/2000/svg">
<mask id="path-1-inside-1_538_7934" fill="white">
<path fill-rule="evenodd" clip-rule="evenodd" d="M300 1C300 0.447715 299.552 0 299 0H1C0.447715 0 0 0.447715 0 1V8V592V599C0 599.552 0.447714 600 0.999999 600H599C599.552 600 600 599.552 600 599V592V308V301C600 300.448 599.552 300 599 300H301C300.448 300 300 299.552 300 299V8V1ZM292 9C292 8.44771 291.552 8 291 8L9 8C8.44772 8 8 8.44771 8 9L8.00003 591C8.00003 591.552 8.44774 592 9.00003 592H591C591.552 592 592 591.552 592 591V309C592 308.448 591.552 308 591 308H293C292.448 308 292 307.552 292 307V300V9Z"/>
</mask>
<path fill-rule="evenodd" clip-rule="evenodd" d="M300 1C300 0.447715 299.552 0 299 0H1C0.447715 0 0 0.447715 0 1V8V592V599C0 599.552 0.447714 600 0.999999 600H599C599.552 600 600 599.552 600 599V592V308V301C600 300.448 599.552 300 599 300H301C300.448 300 300 299.552 300 299V8V1ZM292 9C292 8.44771 291.552 8 291 8L9 8C8.44772 8 8 8.44771 8 9L8.00003 591C8.00003 591.552 8.44774 592 9.00003 592H591C591.552 592 592 591.552 592 591V309C592 308.448 591.552 308 591 308H293C292.448 308 292 307.552 292 307V300V9Z" fill="#EEEEEE"/>
<path d="M8 9L6 9L8 9ZM1 2H299V-2H1V2ZM2 8V1H-2V8H2ZM2 592V8H-2V592H2ZM2 599V592H-2V599H2ZM599 598H0.999999V602H599V598ZM598 592V599H602V592H598ZM598 308V592H602V308H598ZM598 301V308H602V301H598ZM301 302H599V298H301V302ZM298 8V299H302V8H298ZM298 1V8H302V1H298ZM291 6L9 6V10H291V6ZM6 9L6.00003 591H10L10 9L6 9ZM9.00003 594H591V590H9.00003V594ZM594 591V309H590V591H594ZM591 306H293V310H591V306ZM294 307V300H290V307H294ZM294 300V9H290V300H294ZM293 306C293.552 306 294 306.448 294 307H290C290 308.657 291.343 310 293 310V306ZM591 594C592.657 594 594 592.657 594 591H590C590 590.448 590.448 590 591 590V594ZM6.00003 591C6.00003 592.657 7.34318 594 9.00003 594V590C9.5523 590 10 590.448 10 591H6.00003ZM301 298C301.552 298 302 298.448 302 299H298C298 300.657 299.343 302 301 302V298ZM602 301C602 299.343 600.657 298 599 298V302C598.448 302 598 301.552 598 301H602ZM594 309C594 307.343 592.657 306 591 306V310C590.448 310 590 309.552 590 309H594ZM-2 599C-2 600.657 -0.656858 602 0.999999 602V598C1.55229 598 2 598.448 2 599H-2ZM9 6C7.34316 6 6 7.34313 6 9L10 9C10 9.5523 9.55228 10 9 10V6ZM299 2C298.448 2 298 1.55228 298 1H302C302 -0.656852 300.657 -2 299 -2V2ZM599 602C600.657 602 602 600.657 602 599H598C598 598.448 598.448 598 599 598V602ZM291 10C290.448 10 290 9.55229 290 9H294C294 7.34313 292.657 6 291 6V10ZM1 -2C-0.656854 -2 -2 -0.656854 -2 1H2C2 1.55228 1.55228 2 1 2V-2Z" fill="#777777" mask="url(#path-1-inside-1_538_7934)"/>
</svg>
