<svg width="34" height="34" viewBox="0 0 34 34" fill="none" xmlns="http://www.w3.org/2000/svg">
<mask id="path-1-inside-1_3_6742" fill="rgba(15, 98, 171,0.7)">
<path fill-rule="evenodd" clip-rule="evenodd" d="M13.9167 5.33325C13.9167 2.57183 11.6781 0.333252 8.91671 0.333252H5.58337C2.82195 0.333252 0.583374 2.57183 0.583374 5.33325V25.3333V28.6666C0.583374 28.8392 0.592118 29.0097 0.609188 29.1778C0.865238 31.6991 2.99453 33.6666 5.58337 33.6666H8.91671L28.9167 33.6666C31.6781 33.6666 33.9167 31.428 33.9167 28.6666V25.3333C33.9167 22.5718 31.6781 20.3333 28.9167 20.3333H13.9167L13.9167 5.33325Z" fill="rgba(15, 98, 171,0.7)"/>
</mask>
<path fill-rule="evenodd" clip-rule="evenodd" d="M13.9167 5.33325C13.9167 2.57183 11.6781 0.333252 8.91671 0.333252H5.58337C2.82195 0.333252 0.583374 2.57183 0.583374 5.33325V25.3333V28.6666C0.583374 28.8392 0.592118 29.0097 0.609188 29.1778C0.865238 31.6991 2.99453 33.6666 5.58337 33.6666H8.91671L28.9167 33.6666C31.6781 33.6666 33.9167 31.428 33.9167 28.6666V25.3333C33.9167 22.5718 31.6781 20.3333 28.9167 20.3333H13.9167L13.9167 5.33325Z" fill="rgba(15, 98, 171,0.7)" stroke="#323232"/>
<path d="M13.9167 5.33325H14.9167H13.9167ZM0.609188 29.1778L1.60407 29.0768H1.60407L0.609188 29.1778ZM8.91671 33.6666V32.6666V33.6666ZM28.9167 33.6666V34.6666V33.6666ZM13.9167 20.3333H12.9167V21.3333H13.9167V20.3333ZM8.91671 1.33325C11.1258 1.33325 12.9167 3.12411 12.9167 5.33325H14.9167C14.9167 2.01954 12.2304 -0.666748 8.91671 -0.666748V1.33325ZM5.58337 1.33325H8.91671V-0.666748H5.58337V1.33325ZM1.58337 5.33325C1.58337 3.12411 3.37424 1.33325 5.58337 1.33325V-0.666748C2.26967 -0.666748 -0.416626 2.01954 -0.416626 5.33325H1.58337ZM1.58337 25.3333V5.33325H-0.416626V25.3333H1.58337ZM1.58337 28.6666V25.3333H-0.416626V28.6666H1.58337ZM1.60407 29.0768C1.5904 28.9422 1.58337 28.8054 1.58337 28.6666H-0.416626C-0.416626 28.873 -0.406168 29.0772 -0.385694 29.2788L1.60407 29.0768ZM5.58337 32.6666C3.51292 32.6666 1.8088 31.0927 1.60407 29.0768L-0.385694 29.2788C-0.0783266 32.3054 2.47615 34.6666 5.58337 34.6666V32.6666ZM8.91671 32.6666H5.58337V34.6666H8.91671V32.6666ZM28.9167 32.6666L8.91671 32.6666V34.6666L28.9167 34.6666V32.6666ZM32.9167 28.6666C32.9167 30.8757 31.1258 32.6666 28.9167 32.6666V34.6666C32.2304 34.6666 34.9167 31.9803 34.9167 28.6666H32.9167ZM32.9167 25.3333V28.6666H34.9167V25.3333H32.9167ZM28.9167 21.3333C31.1258 21.3333 32.9167 23.1241 32.9167 25.3333H34.9167C34.9167 22.0195 32.2304 19.3333 28.9167 19.3333V21.3333ZM13.9167 21.3333H28.9167V19.3333H13.9167V21.3333ZM12.9167 5.33325L12.9167 20.3333H14.9167L14.9167 5.33325H12.9167Z" fill="rgba(15, 98, 171,0.7)" mask="url(#path-1-inside-1_3_6742)"/>
<circle cx="16.25" cy="17.3332" r="5.16667" fill="rgba(15, 98, 171,0.7)" stroke="#323232"/>
</svg>
