<svg width="34" height="24" viewBox="0 0 34 24" fill="none" xmlns="http://www.w3.org/2000/svg">
<circle cx="16.6667" cy="6.33341" r="5.16667" fill="white" stroke="#323232"/>
<path d="M31.9361 12.8535C31.1236 14.8149 29.9328 16.5971 28.4316 18.0983C26.9304 19.5995 25.1482 20.7904 23.1868 21.6028C21.2253 22.4153 19.1231 22.8334 17 22.8334C14.877 22.8334 12.7748 22.4153 10.8133 21.6028C8.85189 20.7904 7.06969 19.5995 5.56848 18.0983C4.06727 16.5971 2.87644 14.8149 2.06399 12.8535C1.49959 11.4909 1.12547 10.0604 0.949635 8.60211C0.858186 7.84371 1.48636 7.16675 2.33337 7.16675H8.33337C9.13891 7.16675 9.86467 7.85105 10.1535 8.78465C10.2188 8.99588 10.294 9.20433 10.3789 9.40931C10.7391 10.2788 11.267 11.0689 11.9324 11.7343C12.5979 12.3998 13.388 12.9277 14.2575 13.2879C15.127 13.648 16.0589 13.8334 17 13.8334C17.9412 13.8334 18.8731 13.648 19.7426 13.2879C20.6121 12.9277 21.4022 12.3998 22.0676 11.7343C22.7331 11.0689 23.261 10.2788 23.6212 9.40931C23.7061 9.20433 23.7813 8.99588 23.8466 8.78465C24.1354 7.85105 24.8612 7.16675 25.6667 7.16675H31.6667C32.5137 7.16675 33.1419 7.84371 33.0504 8.60211C32.8746 10.0604 32.5005 11.4909 31.9361 12.8535Z" fill="white" stroke="black"/>
</svg>
