<svg width="400" height="404" viewBox="0 0 400 404" fill="none" xmlns="http://www.w3.org/2000/svg">
<mask id="path-1-inside-1_538_7900" fill="white">
<path fill-rule="evenodd" clip-rule="evenodd" d="M400 1C400 0.447715 399.552 0 399 0H1C0.447715 0 0 0.447715 0 1V8L1.52588e-05 396V403C1.52588e-05 403.552 0.44773 404 1.00001 404H399C399.552 404 400 403.552 400 403V396V8V1ZM392 8.99999C392 8.44771 391.552 8 391 8L9.00001 8C8.44772 8 8 8.44771 8 9L8.00002 395C8.00002 395.552 8.44773 396 9.00002 396H391C391.552 396 392 395.552 392 395L392 8.99999Z"/>
</mask>
<path fill-rule="evenodd" clip-rule="evenodd" d="M400 1C400 0.447715 399.552 0 399 0H1C0.447715 0 0 0.447715 0 1V8L1.52588e-05 396V403C1.52588e-05 403.552 0.44773 404 1.00001 404H399C399.552 404 400 403.552 400 403V396V8V1ZM392 8.99999C392 8.44771 391.552 8 391 8L9.00001 8C8.44772 8 8 8.44771 8 9L8.00002 395C8.00002 395.552 8.44773 396 9.00002 396H391C391.552 396 392 395.552 392 395L392 8.99999Z" fill="#EEEEEE"/>
<path d="M0 8H-2H0ZM1.52588e-05 396H2.00002H1.52588e-05ZM8.00002 395H6.00002H8.00002ZM392 8.99999H394H392ZM392 395H390H392ZM1 2H399V-2H1V2ZM2 8V1H-2V8H2ZM2.00002 396L2 8H-2L-1.99998 396H2.00002ZM2.00002 403V396H-1.99998V403H2.00002ZM399 402H1.00001V406H399V402ZM398 396V403H402V396H398ZM398 8V396H402V8H398ZM398 1V8H402V1H398ZM391 6L9.00001 6V10H391V6ZM6 9L6.00002 395H10L10 9L6 9ZM9.00002 398H391V394H9.00002V398ZM394 395L394 8.99999H390L390 395H394ZM6.00002 395C6.00002 396.657 7.34318 398 9.00002 398V394C9.55229 394 10 394.448 10 395H6.00002ZM9.00001 6C7.34317 6 6 7.34312 6 9L10 9C10 9.5523 9.55227 10 9.00001 10V6ZM391 10C390.448 10 390 9.55229 390 8.99999H394C394 7.34313 392.657 6 391 6V10ZM-1.99998 403C-1.99998 404.657 -0.656843 406 1.00001 406V402C1.5523 402 2.00002 402.448 2.00002 403H-1.99998ZM399 2C398.448 2 398 1.55228 398 1H402C402 -0.656852 400.657 -2 399 -2V2ZM399 406C400.657 406 402 404.657 402 403H398C398 402.448 398.448 402 399 402V406ZM391 398C392.657 398 394 396.657 394 395H390C390 394.448 390.448 394 391 394V398ZM1 -2C-0.656854 -2 -2 -0.656854 -2 1H2C2 1.55228 1.55228 2 1 2V-2Z" fill="#777777" mask="url(#path-1-inside-1_538_7900)"/>
</svg>
