<svg width="20" height="21" viewBox="0 0 20 21" fill="none" xmlns="http://www.w3.org/2000/svg">
<mask id="path-1-inside-1_11987_5750" fill="white">
<path d="M14.3334 19.1667H5.00008C4.81609 19.1667 4.66676 19.316 4.66676 19.5V20.1667C4.66676 20.3507 4.81609 20.5 5.00008 20.5C5.18406 20.5 5.3334 20.3507 5.3334 20.1667V19.8334H14.3334C14.5174 19.8334 14.6667 19.684 14.6667 19.5C14.6667 19.3161 14.5175 19.1667 14.3334 19.1667Z"/>
<path d="M7.33337 8.83332C7.33337 9.0173 7.48271 9.16664 7.66669 9.16664H9.00005C9.18404 9.16664 9.33338 9.0173 9.33338 8.83332V6.83332C9.33338 6.64933 9.18404 6.5 9.00005 6.5H7.66673C7.48274 6.5 7.33341 6.64933 7.33341 6.83332L7.33337 8.83332ZM8.00005 7.16668H8.66673V8.5H8.00005V7.16668Z"/>
<path d="M4.33333 4.5H0.333321C0.149336 4.5 0 4.64934 0 4.83332V11.5C0 11.684 0.149336 11.8333 0.333321 11.8333C0.517306 11.8333 0.666643 11.684 0.666643 11.5V5.16668H4.33333C4.51732 5.16668 4.66665 5.01734 4.66665 4.83336C4.66665 4.64937 4.51736 4.5 4.33333 4.5Z"/>
<path d="M16 16.8333C16 17.0173 16.1494 17.1666 16.3333 17.1666H17.6667C17.8506 17.1666 18 17.0173 18 16.8333V14.8333C18 14.6493 17.8506 14.5 17.6667 14.5H16.3333C16.1494 14.5 16 14.6493 16 14.8333V16.8333ZM16.6667 15.1667H17.3334V16.5H16.6667V15.1667Z"/>
<path d="M1.66668 12.5C0.0189844 12.5 0 16.79 0 16.8333C0 17.6383 0.573673 18.3113 1.33332 18.4663V20.1667C1.33332 20.3507 1.48266 20.5 1.66665 20.5C1.85063 20.5 1.99997 20.3507 1.99997 20.1667V18.4663C2.75962 18.3113 3.33329 17.6383 3.33329 16.8333C3.33333 16.79 3.31435 12.5 1.66668 12.5ZM1.66668 17.8333C1.11535 17.8333 0.666682 17.3846 0.666682 16.8333C0.666682 15.1727 1.1127 13.1666 1.66668 13.1666C2.22067 13.1666 2.66669 15.1727 2.66669 16.8333C2.66669 17.3846 2.21801 17.8333 1.66668 17.8333Z"/>
<path d="M3.66663 10.5H2.33327C2.14928 10.5 1.99995 10.6493 1.99995 10.8333V11.5C1.99995 11.684 2.14928 11.8333 2.33327 11.8333C2.51725 11.8333 2.66659 11.684 2.66659 11.5V11.1667H3.33327V12.8334C3.33327 13.0173 3.4826 13.1667 3.66659 13.1667C3.85057 13.1667 3.99991 13.0173 3.99991 12.8334V10.8334C3.99995 10.6493 3.85061 10.5 3.66663 10.5Z"/>
<path d="M16.3333 9.16668H17.6667C17.8506 9.16668 18 9.01734 18 8.83336V6.83336C18 6.64937 17.8506 6.50004 17.6667 6.50004H16.3333C16.1494 6.50004 16 6.64937 16 6.83336V8.83336C16 9.01734 16.1494 9.16668 16.3333 9.16668ZM16.6667 7.16668H17.3334V8.5H16.6667V7.16668Z"/>
<path d="M3.66663 6.5H2.33327C2.14928 6.5 1.99995 6.64933 1.99995 6.83332V8.83332C1.99995 9.0173 2.14928 9.16664 2.33327 9.16664H3.66659C3.85057 9.16664 3.99991 9.0173 3.99991 8.83332V6.83332C3.99995 6.64933 3.85061 6.5 3.66663 6.5ZM3.33327 8.5H2.66663V7.16668H3.33331L3.33327 8.5Z"/>
<path d="M10.6667 8.83332C10.6667 9.0173 10.8161 9.16664 11.0001 9.16664H12.3334C12.5174 9.16664 12.6667 9.0173 12.6667 8.83332V6.83332C12.6667 6.64933 12.5174 6.5 12.3334 6.5H11.0001C10.8161 6.5 10.6667 6.64933 10.6667 6.83332V8.83332ZM11.3334 7.16668H12.0001V8.5H11.3334V7.16668Z"/>
<path d="M19.6667 4.5H15.6667C15.4827 4.5 15.3333 4.64934 15.3333 4.83332C15.3333 5.0173 15.4827 5.16664 15.6667 5.16664H19.3334V18.5613C19.2287 18.524 19.1177 18.5 19 18.5C18.9424 18.5 18.885 18.505 18.8287 18.515C18.5987 18.1007 18.1611 17.8333 17.6667 17.8333C17.1724 17.8333 16.7347 18.1007 16.5047 18.515C16.4484 18.505 16.391 18.5 16.3334 18.5C15.7821 18.5 15.3334 18.9487 15.3334 19.5C15.3334 20.0513 15.7821 20.5 16.3334 20.5H19C19.5513 20.5 20 20.0513 20 19.5V4.83332C20 4.64934 19.8507 4.5 19.6667 4.5ZM19 19.8333H16.3333C16.1496 19.8333 16 19.6837 16 19.5C16 19.3163 16.1496 19.1667 16.3333 19.1667C16.3973 19.1667 16.458 19.185 16.514 19.221C16.6053 19.2797 16.7193 19.2904 16.82 19.2497C16.9207 19.209 16.995 19.1217 17.0193 19.016C17.0897 18.7123 17.356 18.5 17.6667 18.5C17.9773 18.5 18.2437 18.7123 18.314 19.016C18.3384 19.1217 18.4127 19.209 18.5134 19.2497C18.6137 19.2904 18.728 19.2797 18.8194 19.221C19.0364 19.081 19.3334 19.2523 19.3334 19.5C19.3333 19.6837 19.1837 19.8333 19 19.8333Z"/>
<path d="M11.0001 5.16668H12.3334C12.5174 5.16668 12.6667 5.01734 12.6667 4.83336V2.83336C12.6667 2.64937 12.5174 2.50004 12.3334 2.50004H11.0001C10.8161 2.50004 10.6667 2.64937 10.6667 2.83336V4.83336C10.6667 5.01734 10.8161 5.16668 11.0001 5.16668ZM11.3334 3.16668H12.0001V4.5H11.3334V3.16668Z"/>
<path d="M10.6667 12.8333C10.6667 13.0173 10.8161 13.1666 11.0001 13.1666H12.3334C12.5174 13.1666 12.6667 13.0173 12.6667 12.8333V10.8333C12.6667 10.6493 12.5174 10.5 12.3334 10.5H11.0001C10.8161 10.5 10.6667 10.6493 10.6667 10.8333V12.8333ZM11.3334 11.1667H12.0001V12.5H11.3334V11.1667Z"/>
<path d="M7.66674 5.16668H9.00006C9.18404 5.16668 9.33338 5.01734 9.33338 4.83336V2.83336C9.33338 2.64937 9.18404 2.50004 9.00006 2.50004H7.66674C7.48275 2.50004 7.33341 2.64937 7.33341 2.83336V4.83336C7.33337 5.01734 7.48271 5.16668 7.66674 5.16668ZM8.00006 3.16668H8.66674V4.5H8.00006V3.16668Z"/>
<path d="M9.7634 16.5967C9.70341 16.66 9.66673 16.7467 9.66673 16.8334C9.66673 16.92 9.70341 17.0067 9.7634 17.07C9.82673 17.13 9.91341 17.1667 10.0001 17.1667C10.0868 17.1667 10.1734 17.13 10.2368 17.07C10.2968 17.0067 10.3334 16.92 10.3334 16.8334C10.3334 16.7467 10.2968 16.66 10.2368 16.5967C10.1101 16.4733 9.89009 16.4733 9.7634 16.5967Z"/>
<path d="M7.33337 12.8333C7.33337 13.0173 7.48271 13.1666 7.66669 13.1666H9.00005C9.18404 13.1666 9.33338 13.0173 9.33338 12.8333V10.8333C9.33338 10.6493 9.18404 10.5 9.00005 10.5H7.66673C7.48274 10.5 7.33341 10.6493 7.33341 10.8333L7.33337 12.8333ZM8.00005 11.1667H8.66673V12.5H8.00005V11.1667Z"/>
<path d="M6.6667 14.8333C6.6667 15.0173 6.81604 15.1666 7.00003 15.1666H8.00003V18.1666C8.00003 18.3506 8.14937 18.5 8.33335 18.5C8.51733 18.5 8.66667 18.3506 8.66667 18.1666V15.1666H11.3334V18.1666C11.3334 18.3506 11.4827 18.5 11.6667 18.5C11.8507 18.5 12 18.3506 12 18.1666V15.1666H13C13.184 15.1666 13.3333 15.0173 13.3333 14.8333C13.3333 14.6493 13.184 14.5 13 14.5H7.00003C6.81604 14.5 6.6667 14.6493 6.6667 14.8333Z"/>
<path d="M16 12.8333C16 13.0173 16.1494 13.1666 16.3333 13.1666H17.6667C17.8506 13.1666 18 13.0173 18 12.8333V10.8333C18 10.6493 17.8506 10.5 17.6667 10.5H16.3333C16.1494 10.5 16 10.6493 16 10.8333V12.8333ZM16.6667 11.1667H17.3334V12.5H16.6667V11.1667Z"/>
<path d="M14.3333 0.5H5.66664C5.48265 0.5 5.33332 0.649336 5.33332 0.83332V18.1666C5.33332 18.3506 5.48265 18.5 5.66664 18.5C5.85062 18.5 5.99996 18.3506 5.99996 18.1666V1.16664H14V18.1666C14 18.3506 14.1493 18.5 14.3333 18.5C14.5173 18.5 14.6666 18.3506 14.6666 18.1666V0.83332C14.6667 0.649336 14.5173 0.5 14.3333 0.5Z"/>
</mask>
<path d="M14.3334 19.1667H5.00008C4.81609 19.1667 4.66676 19.316 4.66676 19.5V20.1667C4.66676 20.3507 4.81609 20.5 5.00008 20.5C5.18406 20.5 5.3334 20.3507 5.3334 20.1667V19.8334H14.3334C14.5174 19.8334 14.6667 19.684 14.6667 19.5C14.6667 19.3161 14.5175 19.1667 14.3334 19.1667Z" fill="#283237"/>
<path d="M7.33337 8.83332C7.33337 9.0173 7.48271 9.16664 7.66669 9.16664H9.00005C9.18404 9.16664 9.33338 9.0173 9.33338 8.83332V6.83332C9.33338 6.64933 9.18404 6.5 9.00005 6.5H7.66673C7.48274 6.5 7.33341 6.64933 7.33341 6.83332L7.33337 8.83332ZM8.00005 7.16668H8.66673V8.5H8.00005V7.16668Z" fill="#283237"/>
<path d="M4.33333 4.5H0.333321C0.149336 4.5 0 4.64934 0 4.83332V11.5C0 11.684 0.149336 11.8333 0.333321 11.8333C0.517306 11.8333 0.666643 11.684 0.666643 11.5V5.16668H4.33333C4.51732 5.16668 4.66665 5.01734 4.66665 4.83336C4.66665 4.64937 4.51736 4.5 4.33333 4.5Z" fill="#283237"/>
<path d="M16 16.8333C16 17.0173 16.1494 17.1666 16.3333 17.1666H17.6667C17.8506 17.1666 18 17.0173 18 16.8333V14.8333C18 14.6493 17.8506 14.5 17.6667 14.5H16.3333C16.1494 14.5 16 14.6493 16 14.8333V16.8333ZM16.6667 15.1667H17.3334V16.5H16.6667V15.1667Z" fill="#283237"/>
<path d="M1.66668 12.5C0.0189844 12.5 0 16.79 0 16.8333C0 17.6383 0.573673 18.3113 1.33332 18.4663V20.1667C1.33332 20.3507 1.48266 20.5 1.66665 20.5C1.85063 20.5 1.99997 20.3507 1.99997 20.1667V18.4663C2.75962 18.3113 3.33329 17.6383 3.33329 16.8333C3.33333 16.79 3.31435 12.5 1.66668 12.5ZM1.66668 17.8333C1.11535 17.8333 0.666682 17.3846 0.666682 16.8333C0.666682 15.1727 1.1127 13.1666 1.66668 13.1666C2.22067 13.1666 2.66669 15.1727 2.66669 16.8333C2.66669 17.3846 2.21801 17.8333 1.66668 17.8333Z" fill="#283237"/>
<path d="M3.66663 10.5H2.33327C2.14928 10.5 1.99995 10.6493 1.99995 10.8333V11.5C1.99995 11.684 2.14928 11.8333 2.33327 11.8333C2.51725 11.8333 2.66659 11.684 2.66659 11.5V11.1667H3.33327V12.8334C3.33327 13.0173 3.4826 13.1667 3.66659 13.1667C3.85057 13.1667 3.99991 13.0173 3.99991 12.8334V10.8334C3.99995 10.6493 3.85061 10.5 3.66663 10.5Z" fill="#283237"/>
<path d="M16.3333 9.16668H17.6667C17.8506 9.16668 18 9.01734 18 8.83336V6.83336C18 6.64937 17.8506 6.50004 17.6667 6.50004H16.3333C16.1494 6.50004 16 6.64937 16 6.83336V8.83336C16 9.01734 16.1494 9.16668 16.3333 9.16668ZM16.6667 7.16668H17.3334V8.5H16.6667V7.16668Z" fill="#283237"/>
<path d="M3.66663 6.5H2.33327C2.14928 6.5 1.99995 6.64933 1.99995 6.83332V8.83332C1.99995 9.0173 2.14928 9.16664 2.33327 9.16664H3.66659C3.85057 9.16664 3.99991 9.0173 3.99991 8.83332V6.83332C3.99995 6.64933 3.85061 6.5 3.66663 6.5ZM3.33327 8.5H2.66663V7.16668H3.33331L3.33327 8.5Z" fill="#283237"/>
<path d="M10.6667 8.83332C10.6667 9.0173 10.8161 9.16664 11.0001 9.16664H12.3334C12.5174 9.16664 12.6667 9.0173 12.6667 8.83332V6.83332C12.6667 6.64933 12.5174 6.5 12.3334 6.5H11.0001C10.8161 6.5 10.6667 6.64933 10.6667 6.83332V8.83332ZM11.3334 7.16668H12.0001V8.5H11.3334V7.16668Z" fill="#283237"/>
<path d="M19.6667 4.5H15.6667C15.4827 4.5 15.3333 4.64934 15.3333 4.83332C15.3333 5.0173 15.4827 5.16664 15.6667 5.16664H19.3334V18.5613C19.2287 18.524 19.1177 18.5 19 18.5C18.9424 18.5 18.885 18.505 18.8287 18.515C18.5987 18.1007 18.1611 17.8333 17.6667 17.8333C17.1724 17.8333 16.7347 18.1007 16.5047 18.515C16.4484 18.505 16.391 18.5 16.3334 18.5C15.7821 18.5 15.3334 18.9487 15.3334 19.5C15.3334 20.0513 15.7821 20.5 16.3334 20.5H19C19.5513 20.5 20 20.0513 20 19.5V4.83332C20 4.64934 19.8507 4.5 19.6667 4.5ZM19 19.8333H16.3333C16.1496 19.8333 16 19.6837 16 19.5C16 19.3163 16.1496 19.1667 16.3333 19.1667C16.3973 19.1667 16.458 19.185 16.514 19.221C16.6053 19.2797 16.7193 19.2904 16.82 19.2497C16.9207 19.209 16.995 19.1217 17.0193 19.016C17.0897 18.7123 17.356 18.5 17.6667 18.5C17.9773 18.5 18.2437 18.7123 18.314 19.016C18.3384 19.1217 18.4127 19.209 18.5134 19.2497C18.6137 19.2904 18.728 19.2797 18.8194 19.221C19.0364 19.081 19.3334 19.2523 19.3334 19.5C19.3333 19.6837 19.1837 19.8333 19 19.8333Z" fill="#283237"/>
<path d="M11.0001 5.16668H12.3334C12.5174 5.16668 12.6667 5.01734 12.6667 4.83336V2.83336C12.6667 2.64937 12.5174 2.50004 12.3334 2.50004H11.0001C10.8161 2.50004 10.6667 2.64937 10.6667 2.83336V4.83336C10.6667 5.01734 10.8161 5.16668 11.0001 5.16668ZM11.3334 3.16668H12.0001V4.5H11.3334V3.16668Z" fill="#283237"/>
<path d="M10.6667 12.8333C10.6667 13.0173 10.8161 13.1666 11.0001 13.1666H12.3334C12.5174 13.1666 12.6667 13.0173 12.6667 12.8333V10.8333C12.6667 10.6493 12.5174 10.5 12.3334 10.5H11.0001C10.8161 10.5 10.6667 10.6493 10.6667 10.8333V12.8333ZM11.3334 11.1667H12.0001V12.5H11.3334V11.1667Z" fill="#283237"/>
<path d="M7.66674 5.16668H9.00006C9.18404 5.16668 9.33338 5.01734 9.33338 4.83336V2.83336C9.33338 2.64937 9.18404 2.50004 9.00006 2.50004H7.66674C7.48275 2.50004 7.33341 2.64937 7.33341 2.83336V4.83336C7.33337 5.01734 7.48271 5.16668 7.66674 5.16668ZM8.00006 3.16668H8.66674V4.5H8.00006V3.16668Z" fill="#283237"/>
<path d="M9.7634 16.5967C9.70341 16.66 9.66673 16.7467 9.66673 16.8334C9.66673 16.92 9.70341 17.0067 9.7634 17.07C9.82673 17.13 9.91341 17.1667 10.0001 17.1667C10.0868 17.1667 10.1734 17.13 10.2368 17.07C10.2968 17.0067 10.3334 16.92 10.3334 16.8334C10.3334 16.7467 10.2968 16.66 10.2368 16.5967C10.1101 16.4733 9.89009 16.4733 9.7634 16.5967Z" fill="#283237"/>
<path d="M7.33337 12.8333C7.33337 13.0173 7.48271 13.1666 7.66669 13.1666H9.00005C9.18404 13.1666 9.33338 13.0173 9.33338 12.8333V10.8333C9.33338 10.6493 9.18404 10.5 9.00005 10.5H7.66673C7.48274 10.5 7.33341 10.6493 7.33341 10.8333L7.33337 12.8333ZM8.00005 11.1667H8.66673V12.5H8.00005V11.1667Z" fill="#283237"/>
<path d="M6.6667 14.8333C6.6667 15.0173 6.81604 15.1666 7.00003 15.1666H8.00003V18.1666C8.00003 18.3506 8.14937 18.5 8.33335 18.5C8.51733 18.5 8.66667 18.3506 8.66667 18.1666V15.1666H11.3334V18.1666C11.3334 18.3506 11.4827 18.5 11.6667 18.5C11.8507 18.5 12 18.3506 12 18.1666V15.1666H13C13.184 15.1666 13.3333 15.0173 13.3333 14.8333C13.3333 14.6493 13.184 14.5 13 14.5H7.00003C6.81604 14.5 6.6667 14.6493 6.6667 14.8333Z" fill="#283237"/>
<path d="M16 12.8333C16 13.0173 16.1494 13.1666 16.3333 13.1666H17.6667C17.8506 13.1666 18 13.0173 18 12.8333V10.8333C18 10.6493 17.8506 10.5 17.6667 10.5H16.3333C16.1494 10.5 16 10.6493 16 10.8333V12.8333ZM16.6667 11.1667H17.3334V12.5H16.6667V11.1667Z" fill="#283237"/>
<path d="M14.3333 0.5H5.66664C5.48265 0.5 5.33332 0.649336 5.33332 0.83332V18.1666C5.33332 18.3506 5.48265 18.5 5.66664 18.5C5.85062 18.5 5.99996 18.3506 5.99996 18.1666V1.16664H14V18.1666C14 18.3506 14.1493 18.5 14.3333 18.5C14.5173 18.5 14.6666 18.3506 14.6666 18.1666V0.83332C14.6667 0.649336 14.5173 0.5 14.3333 0.5Z" fill="#283237"/>
<path d="M14.3334 19.1667H5.00008C4.81609 19.1667 4.66676 19.316 4.66676 19.5V20.1667C4.66676 20.3507 4.81609 20.5 5.00008 20.5C5.18406 20.5 5.3334 20.3507 5.3334 20.1667V19.8334H14.3334C14.5174 19.8334 14.6667 19.684 14.6667 19.5C14.6667 19.3161 14.5175 19.1667 14.3334 19.1667Z" stroke="#283237" stroke-width="2" mask="url(#path-1-inside-1_11987_5750)"/>
<path d="M7.33337 8.83332C7.33337 9.0173 7.48271 9.16664 7.66669 9.16664H9.00005C9.18404 9.16664 9.33338 9.0173 9.33338 8.83332V6.83332C9.33338 6.64933 9.18404 6.5 9.00005 6.5H7.66673C7.48274 6.5 7.33341 6.64933 7.33341 6.83332L7.33337 8.83332ZM8.00005 7.16668H8.66673V8.5H8.00005V7.16668Z" stroke="#283237" stroke-width="2" mask="url(#path-1-inside-1_11987_5750)"/>
<path d="M4.33333 4.5H0.333321C0.149336 4.5 0 4.64934 0 4.83332V11.5C0 11.684 0.149336 11.8333 0.333321 11.8333C0.517306 11.8333 0.666643 11.684 0.666643 11.5V5.16668H4.33333C4.51732 5.16668 4.66665 5.01734 4.66665 4.83336C4.66665 4.64937 4.51736 4.5 4.33333 4.5Z" stroke="#283237" stroke-width="2" mask="url(#path-1-inside-1_11987_5750)"/>
<path d="M16 16.8333C16 17.0173 16.1494 17.1666 16.3333 17.1666H17.6667C17.8506 17.1666 18 17.0173 18 16.8333V14.8333C18 14.6493 17.8506 14.5 17.6667 14.5H16.3333C16.1494 14.5 16 14.6493 16 14.8333V16.8333ZM16.6667 15.1667H17.3334V16.5H16.6667V15.1667Z" stroke="#283237" stroke-width="2" mask="url(#path-1-inside-1_11987_5750)"/>
<path d="M1.66668 12.5C0.0189844 12.5 0 16.79 0 16.8333C0 17.6383 0.573673 18.3113 1.33332 18.4663V20.1667C1.33332 20.3507 1.48266 20.5 1.66665 20.5C1.85063 20.5 1.99997 20.3507 1.99997 20.1667V18.4663C2.75962 18.3113 3.33329 17.6383 3.33329 16.8333C3.33333 16.79 3.31435 12.5 1.66668 12.5ZM1.66668 17.8333C1.11535 17.8333 0.666682 17.3846 0.666682 16.8333C0.666682 15.1727 1.1127 13.1666 1.66668 13.1666C2.22067 13.1666 2.66669 15.1727 2.66669 16.8333C2.66669 17.3846 2.21801 17.8333 1.66668 17.8333Z" stroke="#283237" stroke-width="2" mask="url(#path-1-inside-1_11987_5750)"/>
<path d="M3.66663 10.5H2.33327C2.14928 10.5 1.99995 10.6493 1.99995 10.8333V11.5C1.99995 11.684 2.14928 11.8333 2.33327 11.8333C2.51725 11.8333 2.66659 11.684 2.66659 11.5V11.1667H3.33327V12.8334C3.33327 13.0173 3.4826 13.1667 3.66659 13.1667C3.85057 13.1667 3.99991 13.0173 3.99991 12.8334V10.8334C3.99995 10.6493 3.85061 10.5 3.66663 10.5Z" stroke="#283237" stroke-width="2" mask="url(#path-1-inside-1_11987_5750)"/>
<path d="M16.3333 9.16668H17.6667C17.8506 9.16668 18 9.01734 18 8.83336V6.83336C18 6.64937 17.8506 6.50004 17.6667 6.50004H16.3333C16.1494 6.50004 16 6.64937 16 6.83336V8.83336C16 9.01734 16.1494 9.16668 16.3333 9.16668ZM16.6667 7.16668H17.3334V8.5H16.6667V7.16668Z" stroke="#283237" stroke-width="2" mask="url(#path-1-inside-1_11987_5750)"/>
<path d="M3.66663 6.5H2.33327C2.14928 6.5 1.99995 6.64933 1.99995 6.83332V8.83332C1.99995 9.0173 2.14928 9.16664 2.33327 9.16664H3.66659C3.85057 9.16664 3.99991 9.0173 3.99991 8.83332V6.83332C3.99995 6.64933 3.85061 6.5 3.66663 6.5ZM3.33327 8.5H2.66663V7.16668H3.33331L3.33327 8.5Z" stroke="#283237" stroke-width="2" mask="url(#path-1-inside-1_11987_5750)"/>
<path d="M10.6667 8.83332C10.6667 9.0173 10.8161 9.16664 11.0001 9.16664H12.3334C12.5174 9.16664 12.6667 9.0173 12.6667 8.83332V6.83332C12.6667 6.64933 12.5174 6.5 12.3334 6.5H11.0001C10.8161 6.5 10.6667 6.64933 10.6667 6.83332V8.83332ZM11.3334 7.16668H12.0001V8.5H11.3334V7.16668Z" stroke="#283237" stroke-width="2" mask="url(#path-1-inside-1_11987_5750)"/>
<path d="M19.6667 4.5H15.6667C15.4827 4.5 15.3333 4.64934 15.3333 4.83332C15.3333 5.0173 15.4827 5.16664 15.6667 5.16664H19.3334V18.5613C19.2287 18.524 19.1177 18.5 19 18.5C18.9424 18.5 18.885 18.505 18.8287 18.515C18.5987 18.1007 18.1611 17.8333 17.6667 17.8333C17.1724 17.8333 16.7347 18.1007 16.5047 18.515C16.4484 18.505 16.391 18.5 16.3334 18.5C15.7821 18.5 15.3334 18.9487 15.3334 19.5C15.3334 20.0513 15.7821 20.5 16.3334 20.5H19C19.5513 20.5 20 20.0513 20 19.5V4.83332C20 4.64934 19.8507 4.5 19.6667 4.5ZM19 19.8333H16.3333C16.1496 19.8333 16 19.6837 16 19.5C16 19.3163 16.1496 19.1667 16.3333 19.1667C16.3973 19.1667 16.458 19.185 16.514 19.221C16.6053 19.2797 16.7193 19.2904 16.82 19.2497C16.9207 19.209 16.995 19.1217 17.0193 19.016C17.0897 18.7123 17.356 18.5 17.6667 18.5C17.9773 18.5 18.2437 18.7123 18.314 19.016C18.3384 19.1217 18.4127 19.209 18.5134 19.2497C18.6137 19.2904 18.728 19.2797 18.8194 19.221C19.0364 19.081 19.3334 19.2523 19.3334 19.5C19.3333 19.6837 19.1837 19.8333 19 19.8333Z" stroke="#283237" stroke-width="2" mask="url(#path-1-inside-1_11987_5750)"/>
<path d="M11.0001 5.16668H12.3334C12.5174 5.16668 12.6667 5.01734 12.6667 4.83336V2.83336C12.6667 2.64937 12.5174 2.50004 12.3334 2.50004H11.0001C10.8161 2.50004 10.6667 2.64937 10.6667 2.83336V4.83336C10.6667 5.01734 10.8161 5.16668 11.0001 5.16668ZM11.3334 3.16668H12.0001V4.5H11.3334V3.16668Z" stroke="#283237" stroke-width="2" mask="url(#path-1-inside-1_11987_5750)"/>
<path d="M10.6667 12.8333C10.6667 13.0173 10.8161 13.1666 11.0001 13.1666H12.3334C12.5174 13.1666 12.6667 13.0173 12.6667 12.8333V10.8333C12.6667 10.6493 12.5174 10.5 12.3334 10.5H11.0001C10.8161 10.5 10.6667 10.6493 10.6667 10.8333V12.8333ZM11.3334 11.1667H12.0001V12.5H11.3334V11.1667Z" stroke="#283237" stroke-width="2" mask="url(#path-1-inside-1_11987_5750)"/>
<path d="M7.66674 5.16668H9.00006C9.18404 5.16668 9.33338 5.01734 9.33338 4.83336V2.83336C9.33338 2.64937 9.18404 2.50004 9.00006 2.50004H7.66674C7.48275 2.50004 7.33341 2.64937 7.33341 2.83336V4.83336C7.33337 5.01734 7.48271 5.16668 7.66674 5.16668ZM8.00006 3.16668H8.66674V4.5H8.00006V3.16668Z" stroke="#283237" stroke-width="2" mask="url(#path-1-inside-1_11987_5750)"/>
<path d="M9.7634 16.5967C9.70341 16.66 9.66673 16.7467 9.66673 16.8334C9.66673 16.92 9.70341 17.0067 9.7634 17.07C9.82673 17.13 9.91341 17.1667 10.0001 17.1667C10.0868 17.1667 10.1734 17.13 10.2368 17.07C10.2968 17.0067 10.3334 16.92 10.3334 16.8334C10.3334 16.7467 10.2968 16.66 10.2368 16.5967C10.1101 16.4733 9.89009 16.4733 9.7634 16.5967Z" stroke="#283237" stroke-width="2" mask="url(#path-1-inside-1_11987_5750)"/>
<path d="M7.33337 12.8333C7.33337 13.0173 7.48271 13.1666 7.66669 13.1666H9.00005C9.18404 13.1666 9.33338 13.0173 9.33338 12.8333V10.8333C9.33338 10.6493 9.18404 10.5 9.00005 10.5H7.66673C7.48274 10.5 7.33341 10.6493 7.33341 10.8333L7.33337 12.8333ZM8.00005 11.1667H8.66673V12.5H8.00005V11.1667Z" stroke="#283237" stroke-width="2" mask="url(#path-1-inside-1_11987_5750)"/>
<path d="M6.6667 14.8333C6.6667 15.0173 6.81604 15.1666 7.00003 15.1666H8.00003V18.1666C8.00003 18.3506 8.14937 18.5 8.33335 18.5C8.51733 18.5 8.66667 18.3506 8.66667 18.1666V15.1666H11.3334V18.1666C11.3334 18.3506 11.4827 18.5 11.6667 18.5C11.8507 18.5 12 18.3506 12 18.1666V15.1666H13C13.184 15.1666 13.3333 15.0173 13.3333 14.8333C13.3333 14.6493 13.184 14.5 13 14.5H7.00003C6.81604 14.5 6.6667 14.6493 6.6667 14.8333Z" stroke="#283237" stroke-width="2" mask="url(#path-1-inside-1_11987_5750)"/>
<path d="M16 12.8333C16 13.0173 16.1494 13.1666 16.3333 13.1666H17.6667C17.8506 13.1666 18 13.0173 18 12.8333V10.8333C18 10.6493 17.8506 10.5 17.6667 10.5H16.3333C16.1494 10.5 16 10.6493 16 10.8333V12.8333ZM16.6667 11.1667H17.3334V12.5H16.6667V11.1667Z" stroke="#283237" stroke-width="2" mask="url(#path-1-inside-1_11987_5750)"/>
<path d="M14.3333 0.5H5.66664C5.48265 0.5 5.33332 0.649336 5.33332 0.83332V18.1666C5.33332 18.3506 5.48265 18.5 5.66664 18.5C5.85062 18.5 5.99996 18.3506 5.99996 18.1666V1.16664H14V18.1666C14 18.3506 14.1493 18.5 14.3333 18.5C14.5173 18.5 14.6666 18.3506 14.6666 18.1666V0.83332C14.6667 0.649336 14.5173 0.5 14.3333 0.5Z" stroke="#283237" stroke-width="2" mask="url(#path-1-inside-1_11987_5750)"/>
</svg>
