<svg width="159" height="69" viewBox="0 0 159 69" fill="none" xmlns="http://www.w3.org/2000/svg">
<path d="M80.4812 12.9459L80.1224 12.8784L19.5542 21.5071L20.1861 45.0734L79.0808 56.631L139.405 47.5334L139.028 24.463L139.241 24.0316L80.4812 12.9459ZM77.9326 55.1409L22.5327 44.2676L22.0062 22.8336L77.5893 33.7219L77.9326 55.1409ZM24.594 22.0757L79.9805 14.1134L133.953 24.2928L78.8381 32.697L24.594 22.0757ZM136.986 46.6278L80.325 55.2467L79.9695 33.7759L136.634 25.1541L136.986 46.6278Z" fill="#777777"/>
<path d="M133.951 24.2905L78.8457 32.7044L24.5924 22.0772L79.9835 14.1103L133.951 24.2905Z" fill="#DCDCDC"/>
<path d="M77.5832 33.7205L77.9341 55.1395L22.5266 44.2661L22.0001 22.8321L77.5832 33.7205Z" fill="#DCDCDC"/>
<path d="M136.634 25.154L136.986 46.6278L80.3251 55.2466L79.9742 33.7713L136.634 25.154Z" fill="#DCDCDC"/>
</svg>
