<svg width="126" height="55" viewBox="0 0 126 55" fill="none" xmlns="http://www.w3.org/2000/svg">
<path d="M63.782 10.3233L63.4959 10.2694L15.199 17.1473L15.706 35.9373L62.671 45.1542L110.773 37.9024L110.469 19.5079L110.64 19.1639L63.782 10.3233ZM61.7552 43.9661L17.577 35.2948L17.1544 18.2051L61.4787 26.8883L61.7552 43.9661ZM19.2178 17.6009L63.3829 11.2541L106.423 19.372L62.4744 26.0712L19.2178 17.6009ZM108.844 37.1803L63.663 44.0505L63.3767 26.9314L108.561 20.0589L108.844 37.1803Z" fill="#777777"/>
<path d="M106.423 19.3617L62.4782 26.0685L19.2129 17.5975L63.3856 11.2472L106.423 19.3617Z" fill="#C6F4E1"/>
<path d="M61.4712 26.8787L61.751 43.9519L17.5653 35.2847L17.1454 18.1996L61.4712 26.8787Z" fill="#C6F4E1"/>
<path d="M108.562 20.0505L108.843 37.1673L63.6578 44.0374L63.3779 26.9194L108.562 20.0505Z" fill="#C6F4E1"/>
</svg>
