<svg width="17" height="18" viewBox="0 0 17 18" fill="none" xmlns="http://www.w3.org/2000/svg">
<path d="M14.4167 12.9168C14.9 12.0751 15.2083 11.0585 14.8417 9.87512C14.4 8.44179 13.1417 7.33346 11.6417 7.19179C11.0854 7.13241 10.5229 7.1983 9.99547 7.3846C9.468 7.57091 8.98892 7.87292 8.59336 8.26848C8.1978 8.66404 7.89579 9.14312 7.70948 9.67059C7.52318 10.1981 7.45729 10.7605 7.51667 11.3168C7.66667 12.8085 8.76667 14.0751 10.2 14.5168C11.3917 14.8835 12.4 14.5751 13.2417 14.0918L15.325 16.1751C15.65 16.5001 16.1667 16.5001 16.4917 16.1751C16.5689 16.0989 16.6302 16.008 16.672 15.9079C16.7138 15.8078 16.7354 15.7003 16.7354 15.5918C16.7354 15.4833 16.7138 15.3758 16.672 15.2757C16.6302 15.1756 16.5689 15.0847 16.4917 15.0085L14.4167 12.9168ZM11.25 13.0001C10.0833 13.0001 9.16667 12.0835 9.16667 10.9168C9.16667 9.75012 10.0833 8.83346 11.25 8.83346C12.4167 8.83346 13.3333 9.75012 13.3333 10.9168C13.3333 12.0835 12.4167 13.0001 11.25 13.0001Z" fill="black"/>
<path d="M8.33333 15.5001V17.1668C3.73333 17.1668 0 13.4335 0 8.83346C0 4.23346 3.73333 0.500122 8.33333 0.500122C12.3667 0.500122 15.725 3.36679 16.5 7.16679H14.775C14.5151 6.15999 14.0233 5.22794 13.3389 4.44513C12.6544 3.66233 11.7964 3.05047 10.8333 2.65846V3.00012C10.8333 3.91679 10.0833 4.66679 9.16667 4.66679H7.5V6.33346C7.5 6.79179 7.125 7.16679 6.66667 7.16679H5L1.84167 7.34179C1.73333 7.82512 1.66667 8.31679 1.66667 8.83346C1.66667 12.5085 4.65833 15.5001 8.33333 15.5001Z" fill="black"/>
</svg>
