<svg width="20" height="14" viewBox="0 0 20 14" fill="none" xmlns="http://www.w3.org/2000/svg">
<path fill-rule="evenodd" clip-rule="evenodd" d="M6.34423 2.58124C6.01412 2.78559 5.59557 2.78041 5.27062 2.56795L2.43153 0.711614C1.76642 0.276739 0.884277 0.753929 0.884277 1.54859V9.55328C0.884277 9.89689 1.06069 10.2164 1.35146 10.3995L5.45099 12.9807C5.78104 13.1885 6.20179 13.1855 6.52879 12.9729L9.24172 11.2095C9.56772 10.9976 9.98699 10.9939 10.3167 11.2L13.7746 13.3611C14.1051 13.5677 14.5256 13.5634 14.8518 13.3501L18.7829 10.7798C19.0654 10.5951 19.2356 10.2803 19.2356 9.94279V1.9869C19.2356 1.18024 18.3296 0.705547 17.6664 1.16471L14.8753 3.09701C14.5381 3.33044 14.0926 3.33434 13.7514 3.10687L10.3108 0.813158C9.98512 0.596009 9.56264 0.588891 9.22979 0.794944L6.34423 2.58124ZM14.8843 3.86211L18.6681 1.21346V10.1054L14.8843 12.5648V3.86211ZM14.1275 4.24049L10.3437 1.59184V10.4837L14.1275 12.9432V4.24049ZM5.99239 3.67292L9.77617 1.21346V10.1054L5.99239 12.5648V3.67292ZM5.23563 3.48374L1.45184 0.835086V9.72698L5.23563 12.1864V3.48374Z" fill="#1B1B1B"/>
</svg>
