<svg width="19" height="21" viewBox="0 0 19 21" fill="none" xmlns="http://www.w3.org/2000/svg">
<mask id="path-1-inside-1_11987_5799" fill="white">
<path d="M11.5144 15.4265C13.2056 12.6306 15.3432 8.7 15.3432 6.67959C15.3432 3.27143 12.5627 0.5 9.14347 0.5C5.72422 0.5 2.94378 3.27143 2.94378 6.67959C2.94378 8.7 5.08132 12.6306 6.77252 15.4265C4.76601 15.5776 0.200195 16.1204 0.200195 17.9204C0.200195 19.6918 4.83563 20.5 9.14756 20.5C13.4554 20.5 18.0949 19.6918 18.0949 17.9204C18.0908 16.1204 13.5209 15.5776 11.5144 15.4265ZM3.79962 6.67959C3.79962 3.74082 6.19923 1.34898 9.14347 1.34898C12.0918 1.34898 14.4914 3.74082 14.4914 6.67959C14.4914 9.24694 10.3883 15.6878 9.14347 17.5816C7.89862 15.6878 3.79962 9.24694 3.79962 6.67959ZM9.14347 19.6469C3.90608 19.6469 1.05194 18.5041 1.05194 17.9163C1.05194 17.4633 2.93559 16.4878 7.27619 16.2388C8.09108 17.549 8.70941 18.4755 8.79131 18.5857C8.90187 18.7327 9.22537 18.9082 9.49973 18.5857C9.58572 18.4837 10.2 17.549 11.0148 16.2388C15.3554 16.4878 17.2391 17.4592 17.2391 17.9163C17.235 18.5082 14.3809 19.6469 9.14347 19.6469Z"/>
<path d="M11.842 6.67959C11.842 5.19388 10.634 3.9898 9.14345 3.9898C7.65291 3.9898 6.44491 5.19388 6.44491 6.67959C6.44491 8.16531 7.65291 9.36939 9.14345 9.36939C10.634 9.36939 11.842 8.16531 11.842 6.67959ZM7.29665 6.67959C7.29665 5.66327 8.12382 4.83878 9.14345 4.83878C10.1631 4.83878 10.9903 5.66327 10.9903 6.67959C10.9903 7.69592 10.1631 8.52041 9.14345 8.52041C8.12382 8.52041 7.29665 7.69592 7.29665 6.67959Z"/>
</mask>
<path d="M11.5144 15.4265C13.2056 12.6306 15.3432 8.7 15.3432 6.67959C15.3432 3.27143 12.5627 0.5 9.14347 0.5C5.72422 0.5 2.94378 3.27143 2.94378 6.67959C2.94378 8.7 5.08132 12.6306 6.77252 15.4265C4.76601 15.5776 0.200195 16.1204 0.200195 17.9204C0.200195 19.6918 4.83563 20.5 9.14756 20.5C13.4554 20.5 18.0949 19.6918 18.0949 17.9204C18.0908 16.1204 13.5209 15.5776 11.5144 15.4265ZM3.79962 6.67959C3.79962 3.74082 6.19923 1.34898 9.14347 1.34898C12.0918 1.34898 14.4914 3.74082 14.4914 6.67959C14.4914 9.24694 10.3883 15.6878 9.14347 17.5816C7.89862 15.6878 3.79962 9.24694 3.79962 6.67959ZM9.14347 19.6469C3.90608 19.6469 1.05194 18.5041 1.05194 17.9163C1.05194 17.4633 2.93559 16.4878 7.27619 16.2388C8.09108 17.549 8.70941 18.4755 8.79131 18.5857C8.90187 18.7327 9.22537 18.9082 9.49973 18.5857C9.58572 18.4837 10.2 17.549 11.0148 16.2388C15.3554 16.4878 17.2391 17.4592 17.2391 17.9163C17.235 18.5082 14.3809 19.6469 9.14347 19.6469Z" fill="#283237"/>
<path d="M11.842 6.67959C11.842 5.19388 10.634 3.9898 9.14345 3.9898C7.65291 3.9898 6.44491 5.19388 6.44491 6.67959C6.44491 8.16531 7.65291 9.36939 9.14345 9.36939C10.634 9.36939 11.842 8.16531 11.842 6.67959ZM7.29665 6.67959C7.29665 5.66327 8.12382 4.83878 9.14345 4.83878C10.1631 4.83878 10.9903 5.66327 10.9903 6.67959C10.9903 7.69592 10.1631 8.52041 9.14345 8.52041C8.12382 8.52041 7.29665 7.69592 7.29665 6.67959Z" fill="#283237"/>
<path d="M11.5144 15.4265L10.6588 14.909L9.81642 16.3016L11.4394 16.4237L11.5144 15.4265ZM6.77252 15.4265L6.84757 16.4237L8.47051 16.3016L7.62816 14.909L6.77252 15.4265ZM18.0949 17.9204H19.0949L19.0949 17.9181L18.0949 17.9204ZM9.14347 17.5816L8.30782 18.1309L9.14347 19.4022L9.97911 18.1309L9.14347 17.5816ZM7.27619 16.2388L8.12535 15.7106L7.81174 15.2064L7.21892 15.2404L7.27619 16.2388ZM8.79131 18.5857L7.98866 19.1822L7.99224 19.187L8.79131 18.5857ZM9.49973 18.5857L10.2613 19.2338L10.2644 19.2301L9.49973 18.5857ZM11.0148 16.2388L11.0721 15.2404L10.4793 15.2064L10.1657 15.7106L11.0148 16.2388ZM17.2391 17.9163L18.2391 17.9232V17.9163H17.2391ZM12.3701 15.9441C13.2237 14.5328 14.2008 12.8177 14.9678 11.1881C15.3512 10.3733 15.6895 9.5645 15.9336 8.81522C16.1734 8.07909 16.3432 7.33855 16.3432 6.67959H14.3432C14.3432 7.03083 14.2458 7.53928 14.0319 8.19576C13.8224 8.83908 13.5205 9.56646 13.1582 10.3364C12.4336 11.8762 11.4963 13.5243 10.6588 14.909L12.3701 15.9441ZM16.3432 6.67959C16.3432 2.71609 13.1119 -0.5 9.14347 -0.5V1.5C12.0135 1.5 14.3432 3.82677 14.3432 6.67959H16.3432ZM9.14347 -0.5C5.175 -0.5 1.94378 2.71609 1.94378 6.67959H3.94378C3.94378 3.82677 6.27344 1.5 9.14347 1.5V-0.5ZM1.94378 6.67959C1.94378 7.33855 2.11358 8.07909 2.35337 8.81522C2.59745 9.5645 2.93572 10.3733 3.31914 11.1881C4.08609 12.8177 5.06322 14.5328 5.91687 15.9441L7.62816 14.909C6.79062 13.5243 5.85338 11.8762 5.12876 10.3364C4.7664 9.56646 4.46458 8.83908 4.25502 8.19576C4.04117 7.53928 3.94378 7.03083 3.94378 6.67959H1.94378ZM6.69747 14.4294C5.67772 14.5061 3.95769 14.6849 2.47088 15.0903C1.73467 15.291 0.981045 15.5665 0.390115 15.9606C-0.194016 16.3502 -0.799805 16.9864 -0.799805 17.9204H1.2002C1.2002 17.9156 1.20063 17.9137 1.20165 17.9106C1.20299 17.9066 1.20809 17.8928 1.2245 17.869C1.26027 17.8169 1.34013 17.731 1.4998 17.6246C1.82766 17.4059 2.3409 17.1988 2.99696 17.0199C4.29468 16.6661 5.86081 16.498 6.84757 16.4237L6.69747 14.4294ZM-0.799805 17.9204C-0.799805 18.8595 -0.174735 19.5069 0.448505 19.9103C1.08436 20.3218 1.92048 20.6217 2.8149 20.8448C4.61925 21.2948 6.94407 21.5 9.14756 21.5V19.5C7.03912 19.5 4.89026 19.3011 3.2989 18.9042C2.49548 18.7038 1.90324 18.4695 1.53521 18.2313C1.35491 18.1146 1.26499 18.0202 1.22496 17.9634C1.20653 17.9373 1.20128 17.9229 1.20034 17.9202C1.1998 17.9186 1.19989 17.9185 1.20005 17.9195C1.20022 17.9205 1.2002 17.921 1.2002 17.9204H-0.799805ZM9.14756 21.5C11.3491 21.5 13.6738 21.2948 15.4786 20.8448C16.3733 20.6217 17.2097 20.3219 17.8458 19.9105C18.4691 19.5073 19.0949 18.8599 19.0949 17.9204H17.0949C17.0949 17.9209 17.0949 17.9204 17.0951 17.9193C17.0953 17.9183 17.0954 17.9184 17.0948 17.9199C17.0939 17.9226 17.0887 17.937 17.0702 17.9631C17.0301 18.0199 16.9401 18.1144 16.7596 18.2311C16.3912 18.4694 15.7985 18.7038 14.9948 18.9042C13.4028 19.3011 11.2539 19.5 9.14756 19.5V21.5ZM19.0949 17.9181C19.0928 16.9844 18.4857 16.3491 17.9012 15.9601C17.3095 15.5663 16.5553 15.2909 15.8183 15.0902C14.3301 14.6849 12.6092 14.5061 11.5895 14.4294L11.4394 16.4237C12.4261 16.498 13.9934 16.6661 15.2928 17.02C15.9497 17.1989 16.4641 17.4061 16.7931 17.6251C16.9534 17.7318 17.0339 17.8179 17.0701 17.8705C17.0868 17.8946 17.092 17.9085 17.0934 17.9127C17.0945 17.916 17.0949 17.918 17.0949 17.9227L19.0949 17.9181ZM4.79962 6.67959C4.79962 4.29566 6.74895 2.34898 9.14347 2.34898V0.34898C5.64951 0.34898 2.79962 3.18597 2.79962 6.67959H4.79962ZM9.14347 2.34898C11.5426 2.34898 13.4914 4.29616 13.4914 6.67959H15.4914C15.4914 3.18547 12.641 0.34898 9.14347 0.34898V2.34898ZM13.4914 6.67959C13.4914 7.11425 13.3022 7.84441 12.9044 8.82334C12.5201 9.76904 11.9878 10.8374 11.4062 11.9047C10.2441 14.0371 8.92434 16.0944 8.30782 17.0324L9.97911 18.1309C10.6074 17.175 11.9617 15.0649 13.1623 12.8617C13.7621 11.7611 14.3334 10.6195 14.7573 9.57628C15.1677 8.5663 15.4914 7.52861 15.4914 6.67959H13.4914ZM9.97911 17.0324C9.36278 16.0947 8.04405 14.0374 6.88298 11.905C6.30188 10.8377 5.77004 9.76937 5.38609 8.82364C4.98867 7.84474 4.79962 7.11445 4.79962 6.67959H2.79962C2.79962 7.52841 3.12294 8.56597 3.53298 9.57597C3.9565 10.6192 4.52721 11.7608 5.12647 12.8614C6.32611 15.0646 7.67931 17.1747 8.30782 18.1309L9.97911 17.0324ZM9.14347 18.6469C6.59208 18.6469 4.65684 18.368 3.3876 18.0348C2.74741 17.8668 2.31057 17.6937 2.05705 17.556C1.92702 17.4853 1.88459 17.4451 1.8888 17.4492C1.89245 17.4529 1.92652 17.4866 1.9631 17.5537C2.0006 17.6224 2.05194 17.7476 2.05194 17.9163H0.0519357C0.0519357 18.3884 0.323634 18.7138 0.480811 18.8696C0.66156 19.0488 0.883029 19.1943 1.10241 19.3134C1.54772 19.5553 2.15174 19.7781 2.87977 19.9693C4.34694 20.3544 6.45748 20.6469 9.14347 20.6469V18.6469ZM2.05194 17.9163C2.05194 18.1995 1.9141 18.3593 1.90307 18.3723C1.87914 18.4004 1.8849 18.3848 1.95952 18.3362C2.10528 18.2414 2.3879 18.1018 2.84733 17.9514C3.75652 17.6539 5.22258 17.3582 7.33346 17.2371L7.21892 15.2404C4.9892 15.3683 3.34314 15.6848 2.22535 16.0506C1.67128 16.2319 1.21171 16.4367 0.86864 16.6599C0.698846 16.7704 0.523532 16.9073 0.379637 17.0765C0.248641 17.2305 0.0519357 17.5199 0.0519357 17.9163H2.05194ZM6.42703 16.7669C7.23881 18.0721 7.8782 19.0335 7.98867 19.1822L9.59394 17.9892C9.59657 17.9928 9.58789 17.9809 9.56106 17.9418C9.53739 17.9072 9.50546 17.86 9.46563 17.8005C9.38611 17.6817 9.27796 17.5181 9.1464 17.3162C8.88335 16.9126 8.52885 16.3594 8.12535 15.7106L6.42703 16.7669ZM7.99224 19.187C8.18176 19.4388 8.5055 19.6777 8.91642 19.7476C9.41015 19.8316 9.90709 19.6501 10.2613 19.2337L8.73811 17.9377C8.76324 17.9082 8.82677 17.8479 8.93649 17.8065C9.04698 17.7649 9.15838 17.76 9.25177 17.7759C9.33911 17.7907 9.40437 17.8222 9.44881 17.8506C9.49068 17.8774 9.54054 17.9182 9.59037 17.9845L7.99224 19.187ZM10.2644 19.2301C10.3291 19.1534 10.4184 19.0216 10.4878 18.9185C10.5744 18.7898 10.688 18.6174 10.8228 18.4096C11.0929 17.9934 11.4536 17.4268 11.864 16.7669L10.1657 15.7106C9.7612 16.361 9.40735 16.9168 9.14507 17.321C9.01373 17.5234 8.90672 17.6857 8.82854 17.8019C8.73307 17.9437 8.71338 17.967 8.73505 17.9413L10.2644 19.2301ZM10.9576 17.2371C13.0689 17.3582 14.535 17.653 15.4441 17.95C15.9036 18.1001 16.1858 18.2395 16.3311 18.3342C16.4054 18.3826 16.4108 18.3981 16.3867 18.3696C16.3748 18.3556 16.2391 18.1968 16.2391 17.9163H18.2391C18.2391 17.5216 18.0445 17.2324 17.9127 17.0768C17.7686 16.9067 17.5929 16.7693 17.4229 16.6585C17.0793 16.4347 16.6193 16.23 16.0653 16.0489C14.9474 15.6837 13.3014 15.3683 11.0721 15.2404L10.9576 17.2371ZM16.2391 17.9094C16.2403 17.7431 16.2912 17.6199 16.3283 17.5524C16.3645 17.4864 16.3979 17.4533 16.4013 17.45C16.405 17.4463 16.362 17.4869 16.2319 17.5576C15.9779 17.6954 15.5407 17.8684 14.9003 18.0362C13.6305 18.369 11.6952 18.6469 9.14347 18.6469V20.6469C11.8292 20.6469 13.9396 20.3555 15.4073 19.9709C16.1355 19.7801 16.74 19.5574 17.186 19.3153C17.4058 19.196 17.6274 19.0504 17.8084 18.8713C17.9665 18.7148 18.2358 18.3916 18.2391 17.9232L16.2391 17.9094ZM12.842 6.67959C12.842 4.63854 11.1832 2.9898 9.14345 2.9898V4.9898C10.0848 4.9898 10.842 5.74922 10.842 6.67959H12.842ZM9.14345 2.9898C7.10368 2.9898 5.44491 4.63854 5.44491 6.67959H7.44491C7.44491 5.74922 8.20213 4.9898 9.14345 4.9898V2.9898ZM5.44491 6.67959C5.44491 8.72065 7.10368 10.3694 9.14345 10.3694V8.36939C8.20213 8.36939 7.44491 7.60996 7.44491 6.67959H5.44491ZM9.14345 10.3694C11.1832 10.3694 12.842 8.72065 12.842 6.67959H10.842C10.842 7.60996 10.0848 8.36939 9.14345 8.36939V10.3694ZM8.29665 6.67959C8.29665 6.21861 8.67304 5.83878 9.14345 5.83878V3.83878C7.5746 3.83878 6.29665 5.10792 6.29665 6.67959H8.29665ZM9.14345 5.83878C9.61386 5.83878 9.99025 6.21861 9.99025 6.67959H11.9903C11.9903 5.10792 10.7123 3.83878 9.14345 3.83878V5.83878ZM9.99025 6.67959C9.99025 7.14058 9.61386 7.52041 9.14345 7.52041V9.52041C10.7123 9.52041 11.9903 8.25126 11.9903 6.67959H9.99025ZM9.14345 7.52041C8.67304 7.52041 8.29665 7.14058 8.29665 6.67959H6.29665C6.29665 8.25126 7.5746 9.52041 9.14345 9.52041V7.52041Z" fill="#283237" mask="url(#path-1-inside-1_11987_5799)"/>
</svg>
