<svg width="19" height="19" viewBox="0 0 19 19" fill="none" xmlns="http://www.w3.org/2000/svg">
<path fill-rule="evenodd" clip-rule="evenodd" d="M8.325 2.3H1.67925C1.33446 2.3 1.01399 2.47762 0.831249 2.77L0.354422 3.53292C0.139913 3.87614 0.153439 4.31481 0.388687 4.64416L0.825885 5.25624C1.0136 5.51903 1.31667 5.675 1.63962 5.675H8.325V17.5C8.325 18.0523 8.77271 18.5 9.325 18.5H9.575C10.1273 18.5 10.575 18.0523 10.575 17.5V9.95H17.2604C17.5833 9.95 17.8864 9.79403 18.0741 9.53124L18.5113 8.91916C18.7466 8.58981 18.7601 8.15114 18.5456 7.80792L18.0688 7.045C17.886 6.75262 17.5655 6.575 17.2208 6.575H10.575V5.675H17.2604C17.5833 5.675 17.8864 5.51903 18.0741 5.25624L18.5113 4.64416C18.7466 4.31481 18.7601 3.87614 18.5456 3.53292L18.0688 2.77C17.886 2.47762 17.5655 2.3 17.2208 2.3H10.575V1.5C10.575 0.947716 10.1273 0.5 9.575 0.5H9.325C8.77271 0.5 8.325 0.947716 8.325 1.5V2.3ZM8.325 2.975H1.575L0.9 4.1L1.575 5H8.325V2.975ZM9.9 1.4H9V17.825H9.9V1.4ZM10.575 2.975H17.325L18 4.1L17.325 5H10.575V2.975ZM10.575 7.25H17.325L18 8.375L17.325 9.275H10.575V7.25Z" fill="black"/>
</svg>
